<?xml version="1.0" encoding="utf-8"?>
<!-- Generator: Adobe Illustrator 20.1.0, SVG Export Plug-In . SVG Version: 6.00 Build 0)  -->
<svg version="1.1" id="Layer_1" xmlns="http://www.w3.org/2000/svg" xmlns:xlink="http://www.w3.org/1999/xlink" x="0px" y="0px"
	 viewBox="0 0 24 24" style="enable-background:new 0 0 24 24;" xml:space="preserve">
<style type="text/css">
	.st0{fill:#FFFFFF;}
	.st1{fill:#FF0000;}
</style>
<g id="Georgia">
	<path class="st0" d="M10.3,0.1C5,0.9,0.9,5,0.1,10.3h10.1V0.1z"/>
	<path class="st0" d="M0.1,13.7C0.9,19,5,23.1,10.3,23.9V13.7H0.1z"/>
	<path class="st0" d="M13.7,23.9c5.2-0.8,9.4-4.9,10.1-10.1H13.7V23.9z"/>
	<path class="st0" d="M23.9,10.3C23.1,5,19,0.9,13.7,0.1v10.1H23.9z"/>
	<path class="st1" d="M6.2,6.8c0-0.2,0-0.4,0-0.6C5.9,6.2,5.5,6.3,5,6.3c0-0.4,0.1-0.8,0.1-1.2c-0.2,0-0.4,0-0.6,0s-0.4,0-0.6,0
		c0.1,0.4,0.1,0.8,0.1,1.2c-0.4,0-0.8-0.1-1.2-0.1c0,0.2,0,0.4,0,0.6s0,0.4,0,0.6c0.4-0.1,0.8-0.1,1.2-0.1c0,0.4-0.1,0.7-0.1,1
		c0,0.1,0,0.1,0,0.2c0.2,0,0.4,0,0.6,0s0.4,0,0.6,0c0-0.1,0-0.1,0-0.2C5.1,7.9,5,7.5,5,7.2c0.4,0,0.8,0.1,1.2,0.1
		C6.2,7.1,6.2,7,6.2,6.8z"/>
	<path class="st1" d="M6.2,17.2c0-0.2,0-0.4,0-0.6c-0.4,0.1-0.8,0.1-1.2,0.1c0-0.4,0.1-0.8,0.1-1.2c-0.2,0-0.4,0-0.6,0s-0.4,0-0.6,0
		c0.1,0.4,0.1,0.8,0.1,1.2c-0.4,0-0.8-0.1-1.2-0.1c0,0.2,0,0.4,0,0.6c0,0.2,0,0.4,0,0.6c0.4-0.1,0.8-0.1,1.2-0.1
		c0,0.4-0.1,0.7-0.1,1c0,0.1,0,0.1,0,0.2c0.2,0,0.4,0,0.6,0s0.4,0,0.6,0c0-0.1,0-0.1,0-0.2C5.1,18.4,5,18,5,17.7
		c0.4,0,0.8,0.1,1.2,0.1C6.2,17.6,6.2,17.4,6.2,17.2z"/>
	<path class="st1" d="M21.1,17.2c0-0.2,0-0.4,0-0.6c-0.4,0.1-0.8,0.1-1.2,0.1c0-0.4,0.1-0.8,0.1-1.2c-0.2,0-0.4,0-0.6,0
		c-0.2,0-0.4,0-0.6,0c0.1,0.4,0.1,0.8,0.1,1.2c-0.4,0-0.8-0.1-1.2-0.1c0,0.2,0,0.4,0,0.6c0,0.2,0,0.4,0,0.6c0.4-0.1,0.8-0.1,1.2-0.1
		c0,0.4-0.1,0.7-0.1,1c0,0.1,0,0.1,0,0.2c0.2,0,0.4,0,0.6,0c0.2,0,0.4,0,0.6,0c0-0.1,0-0.1,0-0.2c-0.1-0.3-0.1-0.7-0.1-1
		c0.4,0,0.8,0.1,1.2,0.1C21.1,17.6,21.1,17.4,21.1,17.2z"/>
	<path class="st1" d="M21.1,6.8c0-0.2,0-0.4,0-0.6c-0.4,0.1-0.8,0.1-1.2,0.1c0-0.4,0.1-0.8,0.1-1.2c-0.2,0-0.4,0-0.6,0
		c-0.2,0-0.4,0-0.6,0c0.1,0.4,0.1,0.8,0.1,1.2c-0.4,0-0.8-0.1-1.2-0.1c0,0.2,0,0.4,0,0.6s0,0.4,0,0.6c0.4-0.1,0.8-0.1,1.2-0.1
		c0,0.4-0.1,0.7-0.1,1c0,0.1,0,0.1,0,0.2c0.2,0,0.4,0,0.6,0c0.2,0,0.4,0,0.6,0c0-0.1,0-0.1,0-0.2c-0.1-0.3-0.1-0.7-0.1-1
		c0.4,0,0.8,0.1,1.2,0.1C21.1,7.1,21.1,7,21.1,6.8z"/>
	<path class="st1" d="M23.9,10.3H13.7V0.1C13.2,0.1,12.6,0,12,0s-1.2,0.1-1.7,0.1v10.1H0.1C0.1,10.8,0,11.4,0,12s0.1,1.2,0.1,1.7
		h10.1v10.1c0.6,0.1,1.1,0.1,1.7,0.1s1.2-0.1,1.7-0.1V13.7h10.1c0.1-0.6,0.1-1.1,0.1-1.7S23.9,10.8,23.9,10.3z"/>
	<path class="st1" d="M23.9,10.3H13.7V0.1C13.2,0.1,12.6,0,12,0s-1.2,0.1-1.7,0.1v10.1H0.1C0.1,10.8,0,11.4,0,12s0.1,1.2,0.1,1.7
		h10.1v10.1c0.6,0.1,1.1,0.1,1.7,0.1s1.2-0.1,1.7-0.1V13.7h10.1c0.1-0.6,0.1-1.1,0.1-1.7S23.9,10.8,23.9,10.3z"/>
</g>
</svg>
