<?xml version="1.0" encoding="utf-8"?>
<!-- Generator: Adobe Illustrator 20.1.0, SVG Export Plug-In . SVG Version: 6.00 Build 0)  -->
<svg version="1.1" id="Layer_1" xmlns="http://www.w3.org/2000/svg" xmlns:xlink="http://www.w3.org/1999/xlink" x="0px" y="0px"
	 viewBox="0 0 24 24" style="enable-background:new 0 0 24 24;" xml:space="preserve">
<style type="text/css">
	.st0{fill:#FFFFFF;}
	.st1{fill:#0065BD;}
	.st2{fill:#EF4135;}
</style>
<circle class="st0" cx="12" cy="12" r="12"/>
<g id="Faroe_Islands">
	<path class="st1" d="M9.4,13.3v10.4c0.2,0,0.4,0.1,0.6,0.1v-9.9h13.8c0-0.2,0.1-0.4,0.1-0.6C23.9,13.3,9.4,13.3,9.4,13.3z"/>
	<path class="st1" d="M9.4,10.1h14.4c0-0.2-0.1-0.4-0.1-0.6H10V0.2c-0.2,0-0.4,0.1-0.6,0.1V10.1z"/>
	<path class="st1" d="M6.2,13.3H0.1c0,0.2,0.1,0.4,0.1,0.6h5.4v8.2c0.2,0.1,0.4,0.2,0.6,0.4V13.3z"/>
	<path class="st1" d="M6.2,10.1V1.5C6,1.6,5.8,1.7,5.6,1.9v7.6H0.3c0,0.2-0.1,0.4-0.1,0.6H6.2z"/>
	<path class="st2" d="M9.4,0.3C8.3,0.5,7.2,0.9,6.2,1.5v8.6h-6C0.1,10.7,0,11.3,0,12c0,0.4,0,0.9,0.1,1.3h6.1v9.2
		c1,0.6,2.1,1,3.3,1.2V13.3H24c0-0.4,0.1-0.9,0.1-1.3c0-0.7-0.1-1.3-0.2-1.9H9.4V0.3z"/>
</g>
</svg>
