<?xml version="1.0" encoding="UTF-8" standalone="no"?>
<svg width="24px" height="24px" viewBox="0 0 24 24" version="1.1" xmlns="http://www.w3.org/2000/svg" xmlns:xlink="http://www.w3.org/1999/xlink">
    <!-- Generator: Sketch 39.1 (31720) - http://www.bohemiancoding.com/sketch -->
    <title>Moldova</title>
    <desc>Created with Sketch.</desc>
    <defs></defs>
    <g id="Page-1" stroke="none" stroke-width="1" fill="none" fill-rule="evenodd">
        <g id="Moldova">
            <path d="M6.1703,1.515 L6.1703,22.485 C7.8973,23.447 9.8833,24 12.0003,24 C14.1173,24 16.1033,23.447 17.8293,22.485 L17.8293,1.515 C16.1033,0.553 14.1173,0 12.0003,0 C9.8833,0 7.8973,0.553 6.1703,1.515" id="Fill-1" fill="#FFD200"></path>
            <path d="M24,12 C24,7.49 21.509,3.565 17.83,1.515 L17.83,22.485 C21.509,20.435 24,16.51 24,12" id="Fill-3" fill="#CC082F"></path>
            <path d="M0,12 C0,16.51 2.491,20.435 6.17,22.485 L6.17,1.515 C2.491,3.565 0,7.49 0,12" id="Fill-5" fill="#0046AE"></path>
            <path d="M10.8495,6.456 C10.7785,6.456 10.7165,6.474 10.6805,6.502 C10.7375,6.519 10.7795,6.572 10.7795,6.636 L10.7795,6.8 L10.6165,6.8 C10.5525,6.8 10.4995,6.758 10.4825,6.702 C10.4545,6.738 10.4365,6.8 10.4365,6.87 C10.4365,6.941 10.4545,7.003 10.4825,7.039 C10.4995,6.982 10.5515,6.94 10.6165,6.94 L10.7795,6.94 L10.7795,7.725 C10.7795,7.787 10.7415,7.838 10.6875,7.857 C10.7655,7.868 10.8325,7.972 10.8505,8.029 C10.8695,7.972 10.9365,7.868 11.0135,7.857 C10.9595,7.839 10.9205,7.787 10.9205,7.725 L10.9205,6.94 L11.0835,6.94 C11.1475,6.94 11.2005,6.981 11.2175,7.038 C11.2455,7.002 11.2635,6.94 11.2635,6.869 C11.2635,6.798 11.2455,6.736 11.2175,6.7 C11.2015,6.758 11.1485,6.799 11.0835,6.799 L10.9205,6.799 L10.9205,6.636 C10.9205,6.572 10.9615,6.519 11.0185,6.502 C10.9825,6.474 10.9205,6.456 10.8495,6.456 L10.8495,6.456 Z" id="Fill-7" fill="#000000"></path>
            <path d="M10.8495,6.4899 C10.8125,6.4899 10.7805,6.4969 10.7525,6.5059 C10.7895,6.5379 10.8135,6.5839 10.8135,6.6359 L10.8135,6.7999 C10.8135,6.8019 10.8125,6.8039 10.8125,6.8059 L10.8125,6.8319 L10.7865,6.8319 C10.7845,6.8329 10.7815,6.8339 10.7795,6.8339 L10.6165,6.8339 C10.5645,6.8339 10.5185,6.8099 10.4865,6.7739 C10.4775,6.8019 10.4695,6.8329 10.4695,6.8709 C10.4695,6.9079 10.4765,6.9399 10.4855,6.9679 C10.5175,6.9309 10.5635,6.9069 10.6165,6.9069 L10.8135,6.9069 C10.8135,6.9099 10.8125,6.9129 10.8125,6.9169 L10.8125,6.9339 C10.8125,6.9359 10.8135,6.9379 10.8135,6.9409 L10.8135,7.7249 C10.8135,7.7759 10.7875,7.8169 10.7525,7.8479 C10.7775,7.8639 10.7985,7.8829 10.8165,7.9049 C10.8335,7.9239 10.8395,7.9429 10.8505,7.9629 C10.8615,7.9429 10.8685,7.9239 10.8845,7.9049 C10.9025,7.8829 10.9235,7.8649 10.9475,7.8489 C10.9125,7.8179 10.8865,7.7769 10.8865,7.7259 L10.8865,6.9079 L10.9135,6.9079 C10.9155,6.9069 10.9185,6.9069 10.9205,6.9069 L11.0835,6.9069 C11.1355,6.9069 11.1815,6.9309 11.2135,6.9659 C11.2225,6.9389 11.2305,6.9069 11.2305,6.8699 C11.2305,6.8329 11.2235,6.7999 11.2145,6.7729 C11.1825,6.8089 11.1365,6.8329 11.0835,6.8329 L10.9205,6.8329 C10.9185,6.8329 10.9155,6.8329 10.9135,6.8319 L10.8875,6.8319 L10.8875,6.8059 C10.8875,6.8039 10.8865,6.8019 10.8865,6.7999 L10.8865,6.6359 C10.8865,6.5839 10.9105,6.5389 10.9465,6.5069 C10.9185,6.4979 10.8865,6.4899 10.8495,6.4899" id="Fill-9" fill="#F6D402"></path>
            <path d="M12.8937,9.3324 C12.7937,9.2614 12.7117,9.1814 12.6537,9.0884 C12.5137,8.8634 12.4547,8.5874 12.4547,8.3064 C12.4547,8.1874 12.5877,8.0544 12.5877,7.9584 C12.5877,7.8134 12.5737,7.7264 12.5737,7.7264 C12.6207,7.7324 12.7037,7.8164 12.7037,7.8164 C12.7037,7.8164 12.7007,7.5754 12.6247,7.5334 C12.6247,7.5334 12.6557,7.5024 12.7667,7.4984 C12.7347,7.4194 12.5807,7.3234 12.5807,7.3234 C12.5887,7.3094 12.6027,7.2974 12.6207,7.2874 C12.6597,7.2654 12.7147,7.2514 12.7567,7.2434 C12.7117,7.2344 12.6607,7.2194 12.6047,7.2014 C12.4757,7.1594 12.3247,7.0984 12.1827,7.0304 C11.9247,6.9064 11.7287,6.8984 11.6197,6.8984 C11.5417,6.8984 11.4257,6.9004 11.3577,6.9464 C11.2957,6.9874 11.3007,7.0404 11.2787,7.0594 C11.2277,7.1044 11.1397,7.1024 11.0977,7.1024 C10.8237,7.1024 10.8137,7.3954 10.8137,7.3954 C10.8137,7.3954 10.8837,7.2894 11.0067,7.2894 C11.2127,7.2894 11.3687,7.4014 11.3687,7.4434 C11.3687,7.4604 11.3477,7.4644 11.3467,7.4644 C11.2117,7.4644 11.0087,7.3864 10.9017,7.3824 L10.9017,7.4354 C11.1417,7.5194 11.3857,7.6384 11.3857,8.1604 C11.3857,8.4884 11.3467,8.8244 11.1817,9.0884 C11.1237,9.1814 11.0407,9.2614 10.9407,9.3324 L11.9177,9.5084 L12.8937,9.3324 Z" id="Fill-11" fill="#000000"></path>
            <path d="M11.9172,9.1125 L10.9412,9.3325 C10.8962,9.3195 10.6872,9.2545 10.5412,9.1725 C10.2832,9.0285 10.1492,8.8855 9.8422,8.8715 L9.8422,8.6385 C9.8422,8.5145 9.8882,8.4015 9.8882,8.2825 C9.7582,8.2485 9.4002,7.8095 9.0692,7.6145 C8.5822,7.9305 8.2052,8.4475 8.2052,8.6865 C8.2052,8.6865 8.2202,13.8015 8.2052,15.5835 C8.2052,15.6855 8.1432,15.8315 8.1432,15.8315 C8.3212,15.7555 8.6472,15.3105 8.7152,15.1405 L8.7152,15.2215 C8.9842,15.0995 9.1802,14.7775 9.2682,14.6115 C9.2702,14.6355 9.2742,14.6955 9.2742,14.6955 C9.5142,14.4855 9.8192,13.2425 9.8192,13.2425 L10.3282,13.7425 C10.3282,13.7425 10.1442,14.1165 10.0722,14.1835 C10.0722,14.1835 10.1202,14.1895 10.1742,14.1885 C10.1412,14.2365 9.8852,14.6055 9.8052,14.7445 C9.7302,14.8745 9.6772,14.8165 9.5622,14.8165 C9.4662,14.8165 9.2492,14.9685 9.2142,15.0305 C9.1762,15.0945 9.1482,15.1735 9.1482,15.2385 C9.1482,15.3095 9.2242,15.4075 9.2242,15.4075 C9.2322,15.3735 9.2462,15.3615 9.2462,15.3615 C9.2462,15.3615 9.4452,15.6085 9.4742,15.6405 C9.4972,15.6655 9.5982,15.6825 9.6342,15.6495 C9.7232,15.5685 9.8102,15.5115 9.8892,15.3935 C9.9302,15.3335 9.9342,15.2645 9.9812,15.1995 C10.1382,14.9815 10.4522,14.5655 10.5242,14.4705 C10.5282,14.4965 10.5322,14.5185 10.5372,14.5455 C10.6182,14.3815 11.0092,14.0685 11.0092,14.0685 L11.4182,14.2565 C11.4182,14.2565 10.6552,16.0105 9.9772,16.2805 C9.9772,16.2805 10.2722,16.4055 10.6342,16.5935 C10.6872,16.6205 10.7412,16.6505 10.7962,16.6805 C10.8412,16.6255 10.8892,16.5645 10.9372,16.5015 C11.1532,16.2115 11.3652,15.8765 11.3652,15.8765 C11.3792,15.9635 11.2652,16.2325 11.0722,16.5645 C11.0342,16.6295 10.9942,16.6975 10.9502,16.7665 C10.9992,16.7945 11.0482,16.8235 11.0972,16.8525 C11.4552,17.0685 11.7922,17.3165 11.9172,17.5445 L12.0052,17.3235 L11.9172,17.1035 L11.9172,9.4045 L11.9612,9.2945 L11.9172,9.1125 Z" id="Fill-13" fill="#000000"></path>
            <path d="M11.9167,17.1036 C11.7907,16.9666 11.5257,16.7986 11.2287,16.6446 C11.5877,15.9996 11.7657,14.9796 11.6827,14.7766 C11.6827,14.7766 11.5347,15.3056 11.3547,15.6066 C11.1877,15.8856 10.9827,16.1996 10.7837,16.4326 C10.6207,16.3626 10.4617,16.3046 10.3267,16.2636 C10.9217,15.8046 11.5307,14.2886 11.5307,14.2886 L10.9007,13.9976 C10.9007,13.9976 10.6657,14.2716 10.5887,14.3226 C10.5887,14.3226 10.5567,14.1866 10.5367,14.1386 C10.5367,14.1386 10.4467,14.2066 10.3977,14.2076 C10.3977,14.2076 10.3827,14.1156 10.3717,14.0546 C10.3097,14.0966 10.2057,14.0876 10.2057,14.0876 C10.2967,14.0446 10.4047,13.7816 10.4047,13.7816 L9.8037,12.9816 C9.8037,12.9816 9.5917,13.9966 9.3517,14.2046 L9.3517,9.8356 L9.5417,10.0126 L9.8307,9.7436 L9.8307,9.5386 L9.5747,9.7776 L9.5747,9.1586 C9.6127,9.1006 9.6387,9.0576 9.6577,9.0226 C9.6997,9.0946 9.8327,9.3156 9.9897,9.4516 C10.0157,9.3466 10.1857,9.2466 10.1857,9.2466 C10.1857,9.2466 10.2467,9.4116 10.3407,9.4526 C10.3737,9.3956 10.5687,9.2676 10.5687,9.2676 C10.5687,9.2676 10.4017,9.2926 10.3337,9.3566 C10.2757,9.3436 10.2607,9.1126 10.2607,9.1126 C10.2607,9.1126 10.0137,9.2326 9.9707,9.3186 C9.9237,9.3066 9.8507,9.1216 9.8227,9.0456 C9.8657,9.0406 9.9257,9.0356 10.0057,9.0356 C10.0767,9.0356 10.1657,9.0686 10.2607,9.1126 C10.3637,9.1616 10.4727,9.2236 10.5687,9.2676 C10.6927,9.3236 10.8807,9.3346 10.9347,9.3366 C10.8727,9.3806 10.8037,9.4216 10.7287,9.4586 C10.7287,9.4586 11.0237,9.4556 11.2317,9.3526 C11.3057,9.3056 11.3817,9.2576 11.4477,9.2016 C11.4187,9.2806 11.3747,9.3746 11.3057,9.4546 C11.6097,9.4286 11.7617,9.2546 11.8047,9.1966 C11.8247,9.2486 11.8607,9.3326 11.9167,9.4046 L12.0267,9.4046 L12.0267,16.8846 L11.9167,17.1036 Z" id="Fill-15" fill="#B07F55"></path>
            <path d="M9.6737,8.3053 L9.6797,8.4453 L9.6797,8.8563 C9.5687,8.8183 9.4297,8.6363 9.3627,8.5403 L9.3627,8.4843 C9.3627,8.4313 9.3937,8.3923 9.4167,8.3713 L9.3507,8.3483 C9.3247,8.3773 9.2977,8.4203 9.2977,8.4753 L9.2977,8.5083 L9.0997,8.7213 L8.9047,8.4263 L8.9047,8.3533 C8.9047,8.3053 8.9417,8.2513 8.9737,8.2143 L8.9077,8.1903 C8.8747,8.2333 8.8407,8.2903 8.8407,8.3443 L8.8407,8.4033 C8.7947,8.4503 8.6157,8.6343 8.6157,8.6343 C8.6157,8.6343 8.5267,8.4423 8.5027,8.3903 C8.6387,8.2003 8.8607,7.9893 9.0687,7.8373 C9.0687,7.8373 9.5217,8.2523 9.6737,8.3053 L9.6737,8.3053 Z" id="Fill-17" fill="#B07F55"></path>
            <path d="M8.5271,8.704 L8.5271,9.043 L8.3691,9.189 L8.3691,8.686 C8.3691,8.638 8.3901,8.58 8.4231,8.516 L8.5271,8.704 Z" id="Fill-19" fill="#B07F55"></path>
            <polygon id="Fill-21" fill="#B07F55" points="9.0181 8.8346 9.0181 9.0436 8.8371 9.2146 8.8371 8.5586"></polygon>
            <polygon id="Fill-23" fill="#B07F55" points="8.7726 9.2131 8.5916 9.0441 8.5916 8.7991 8.7726 8.6081"></polygon>
            <path d="M9.6004,8.9585 C9.5584,9.0185 9.4484,9.1635 9.3294,9.2275 L9.3294,8.6525 C9.3564,8.6975 9.4814,8.9005 9.6004,8.9585" id="Fill-25" fill="#B07F55"></path>
            <polygon id="Fill-27" fill="#B07F55" points="9.2647 8.6815 9.2647 9.2135 9.0837 9.0445 9.0837 8.8565"></polygon>
            <polygon id="Fill-29" fill="#B07F55" points="8.5271 9.248 8.5271 9.778 8.3691 9.631 8.3691 9.396"></polygon>
            <polygon id="Fill-31" fill="#B07F55" points="8.7725 9.418 8.7725 9.608 8.5915 9.777 8.5915 9.249"></polygon>
            <polygon id="Fill-33" fill="#B07F55" points="9.0179 9.2491 9.0179 9.7771 8.8369 9.6071 8.8369 9.4191"></polygon>
            <polygon id="Fill-35" fill="#B07F55" points="9.2646 9.4192 9.2646 9.6072 9.0836 9.7772 9.0836 9.2492"></polygon>
            <path d="M9.5101,9.7785 L9.3291,9.6085 L9.3291,9.4315 C9.3911,9.3935 9.4541,9.3235 9.5101,9.2495 L9.5101,9.7785 Z" id="Fill-37" fill="#B07F55"></path>
            <path d="M9.0507,10.0127 L9.2417,9.8347 L9.2417,14.2047 C9.2417,14.2047 9.2557,14.4217 9.2647,14.5627 C9.1797,14.6487 8.8597,14.9727 8.8597,14.9727 L8.8597,9.8337 L9.0507,10.0127 Z" id="Fill-39" fill="#B07F55"></path>
            <path d="M8.7499,14.8094 C8.7499,14.9494 8.4929,15.2774 8.3689,15.3524 L8.3689,9.8364 L8.5589,10.0124 L8.7499,9.8344 L8.7499,14.8094 Z" id="Fill-41" fill="#B07F55"></path>
            <path d="M10.3401,14.3353 L10.4801,14.2393 C10.4801,14.2393 10.4891,14.2853 10.5011,14.3493 C10.4411,14.4303 10.0981,14.8993 9.9281,15.1283 C9.8861,15.1853 9.8501,15.3293 9.8501,15.3293 C9.8501,15.3293 9.7881,15.3003 9.7881,15.2473 C9.7881,15.1953 9.7951,15.1343 9.7951,15.1343 C9.7951,15.1343 9.7491,15.1863 9.6691,15.1863 C9.6691,15.1233 9.7921,15.0533 9.7971,14.9623 C9.7031,15.0323 9.6211,14.9963 9.5121,15.0303 C9.3941,15.0663 9.3611,15.1163 9.3241,15.1143 C9.3031,15.1133 9.2831,15.0763 9.2911,15.0543 C9.3061,15.0143 9.4521,14.9053 9.5551,14.8863 C9.5801,14.8813 9.7731,14.9283 9.8121,14.8683 C9.9721,14.6203 10.2331,14.2183 10.2581,14.1803 C10.2741,14.1763 10.2901,14.1723 10.3021,14.1643 C10.3021,14.1643 10.3001,14.2903 10.3401,14.3353 L10.3401,14.3353 Z" id="Fill-43" fill="#D10429"></path>
            <path d="M9.4421,15.1067 C9.4501,15.1157 9.4491,15.1287 9.4411,15.1357 L9.3781,15.1907 C9.3701,15.1987 9.3561,15.1967 9.3491,15.1877 C9.3411,15.1787 9.3411,15.1657 9.3501,15.1587 L9.4131,15.1037 C9.4171,15.0997 9.4221,15.0977 9.4271,15.0987 C9.4331,15.0997 9.4381,15.1017 9.4421,15.1067 L9.4421,15.1067 Z" id="Fill-45" fill="#D10429"></path>
            <path d="M9.5379,15.1731 C9.5569,15.1951 9.5559,15.2261 9.5359,15.2431 L9.3829,15.3771 C9.3629,15.3941 9.3299,15.3911 9.3119,15.3691 C9.2929,15.3471 9.2939,15.3151 9.3139,15.2981 L9.4669,15.1651 C9.4739,15.1591 9.4849,15.1551 9.4939,15.1541 C9.5099,15.1531 9.5259,15.1591 9.5379,15.1731" id="Fill-47" fill="#D10429"></path>
            <path d="M9.6256,15.2767 C9.6446,15.2987 9.6436,15.3297 9.6236,15.3467 L9.4686,15.4807 C9.4496,15.4977 9.4186,15.4947 9.3996,15.4727 C9.3806,15.4507 9.3816,15.4187 9.4016,15.4017 L9.5546,15.2687 C9.5626,15.2627 9.5716,15.2587 9.5806,15.2577 C9.5966,15.2567 9.6136,15.2627 9.6256,15.2767 L9.6256,15.2767 Z" id="Fill-49" fill="#D10429"></path>
            <path d="M9.6785,15.3589 C9.6945,15.3579 9.7105,15.3629 9.7225,15.3769 C9.7415,15.3989 9.7405,15.4309 9.7205,15.4479 L9.5675,15.5809 C9.5475,15.5979 9.5165,15.5949 9.4975,15.5729 C9.4785,15.5509 9.4785,15.5199 9.4985,15.5029 L9.6525,15.3689 C9.6605,15.3629 9.6695,15.3599 9.6785,15.3589 L9.6785,15.3589 Z" id="Fill-51" fill="#D10429"></path>
            <path d="M11.9163,9.1125 L12.8923,9.3325 C12.9373,9.3195 13.1463,9.2545 13.2923,9.1725 C13.5503,9.0285 13.6843,8.8855 13.9913,8.8715 L13.9913,8.6385 C13.9913,8.5145 13.9453,8.4015 13.9453,8.2825 C14.0753,8.2485 14.4333,7.8095 14.7643,7.6145 C15.2513,7.9305 15.6283,8.4475 15.6283,8.6865 C15.6283,8.6865 15.6133,13.8015 15.6283,15.5835 C15.6283,15.6855 15.6903,15.8315 15.6903,15.8315 C15.5123,15.7555 15.1863,15.3105 15.1183,15.1405 L15.1183,15.2215 C14.8493,15.0995 14.6533,14.7775 14.5653,14.6115 C14.5633,14.6355 14.5593,14.6955 14.5593,14.6955 C14.3193,14.4855 14.0143,13.2425 14.0143,13.2425 L13.5053,13.7425 C13.5053,13.7425 13.6893,14.1165 13.7613,14.1835 C13.7613,14.1835 13.7133,14.1895 13.6593,14.1885 C13.6923,14.2365 13.9483,14.6055 14.0283,14.7445 C14.1033,14.8745 14.1563,14.8165 14.2713,14.8165 C14.3673,14.8165 14.5843,14.9685 14.6193,15.0305 C14.6573,15.0945 14.6853,15.1735 14.6853,15.2385 C14.6853,15.3095 14.6093,15.4075 14.6093,15.4075 C14.6013,15.3735 14.5873,15.3615 14.5873,15.3615 C14.5873,15.3615 14.3883,15.6085 14.3593,15.6405 C14.3363,15.6655 14.2353,15.6825 14.1993,15.6495 C14.1103,15.5685 14.0233,15.5115 13.9443,15.3935 C13.9033,15.3335 13.8993,15.2645 13.8523,15.1995 C13.6953,14.9815 13.3813,14.5655 13.3093,14.4705 C13.3053,14.4965 13.3013,14.5185 13.2963,14.5455 C13.2153,14.3815 12.8243,14.0685 12.8243,14.0685 L12.4153,14.2565 C12.4153,14.2565 13.1783,16.0105 13.8563,16.2805 C13.8563,16.2805 13.5613,16.4055 13.1993,16.5935 C13.1463,16.6205 13.0923,16.6505 13.0373,16.6805 C12.9923,16.6255 12.9443,16.5645 12.8963,16.5015 C12.6803,16.2115 12.4683,15.8765 12.4683,15.8765 C12.4543,15.9635 12.5683,16.2325 12.7613,16.5645 C12.7993,16.6295 12.8393,16.6975 12.8833,16.7665 C12.8343,16.7945 12.7853,16.8235 12.7363,16.8525 C12.3783,17.0685 12.0413,17.3165 11.9163,17.5445 L11.8283,17.3235 L11.9163,17.1035 L11.9163,9.4045 L11.8723,9.2945 L11.9163,9.1125 Z" id="Fill-53" fill="#000000"></path>
            <path d="M11.9167,17.1036 C12.0427,16.9666 12.3077,16.7986 12.6047,16.6446 C12.2457,15.9996 12.0677,14.9796 12.1507,14.7766 C12.1507,14.7766 12.2987,15.3056 12.4787,15.6066 C12.6457,15.8856 12.8507,16.1996 13.0497,16.4326 C13.2127,16.3626 13.3717,16.3046 13.5067,16.2636 C12.9117,15.8046 12.3027,14.2886 12.3027,14.2886 L12.9327,13.9976 C12.9327,13.9976 13.1677,14.2716 13.2447,14.3226 C13.2447,14.3226 13.2767,14.1866 13.2967,14.1386 C13.2967,14.1386 13.3867,14.2066 13.4357,14.2076 C13.4357,14.2076 13.4507,14.1156 13.4617,14.0546 C13.5237,14.0966 13.6277,14.0876 13.6277,14.0876 C13.5367,14.0446 13.4287,13.7816 13.4287,13.7816 L14.0297,12.9816 C14.0297,12.9816 14.2417,13.9966 14.4817,14.2046 L14.4817,9.8356 L14.2917,10.0126 L14.0027,9.7436 L14.0027,9.5386 L14.2587,9.7776 L14.2587,9.1586 C14.2207,9.1006 14.1947,9.0576 14.1757,9.0226 C14.1337,9.0946 14.0007,9.3156 13.8437,9.4516 C13.8177,9.3466 13.6477,9.2466 13.6477,9.2466 C13.6477,9.2466 13.5867,9.4116 13.4927,9.4526 C13.4597,9.3956 13.2647,9.2676 13.2647,9.2676 C13.2647,9.2676 13.4317,9.2926 13.4997,9.3566 C13.5577,9.3436 13.5727,9.1126 13.5727,9.1126 C13.5727,9.1126 13.8197,9.2326 13.8627,9.3186 C13.9097,9.3066 13.9827,9.1216 14.0107,9.0456 C13.9677,9.0406 13.9077,9.0356 13.8277,9.0356 C13.7567,9.0356 13.6677,9.0686 13.5727,9.1126 C13.4697,9.1616 13.3607,9.2236 13.2647,9.2676 C13.1407,9.3236 12.9527,9.3346 12.8987,9.3366 C12.9607,9.3806 13.0297,9.4216 13.1047,9.4586 C13.1047,9.4586 12.8097,9.4556 12.6017,9.3526 C12.5277,9.3056 12.4517,9.2576 12.3857,9.2016 C12.4147,9.2806 12.4587,9.3746 12.5277,9.4546 C12.2237,9.4286 12.0717,9.2546 12.0287,9.1966 C12.0087,9.2486 11.9727,9.3326 11.9167,9.4046 L11.8067,9.4046 L11.8067,16.8846 L11.9167,17.1036 Z" id="Fill-55" fill="#B07F55"></path>
            <path d="M14.1598,8.3053 L14.1538,8.4453 L14.1538,8.8563 C14.2648,8.8183 14.4038,8.6363 14.4708,8.5403 L14.4708,8.4843 C14.4708,8.4313 14.4398,8.3923 14.4168,8.3713 L14.4828,8.3483 C14.5088,8.3773 14.5358,8.4203 14.5358,8.4753 L14.5358,8.5083 L14.7338,8.7213 L14.9288,8.4263 L14.9288,8.3533 C14.9288,8.3053 14.8918,8.2513 14.8598,8.2143 L14.9258,8.1903 C14.9588,8.2333 14.9928,8.2903 14.9928,8.3443 L14.9928,8.4033 C15.0388,8.4503 15.2178,8.6343 15.2178,8.6343 C15.2178,8.6343 15.3068,8.4423 15.3308,8.3903 C15.1948,8.2003 14.9728,7.9893 14.7648,7.8373 C14.7648,7.8373 14.3118,8.2523 14.1598,8.3053 L14.1598,8.3053 Z" id="Fill-57" fill="#B07F55"></path>
            <path d="M15.3064,8.704 L15.3064,9.043 L15.4644,9.189 L15.4644,8.686 C15.4644,8.638 15.4434,8.58 15.4104,8.516 L15.3064,8.704 Z" id="Fill-59" fill="#B07F55"></path>
            <polygon id="Fill-61" fill="#B07F55" points="14.8154 8.8346 14.8154 9.0436 14.9964 9.2146 14.9964 8.5586"></polygon>
            <polygon id="Fill-63" fill="#B07F55" points="15.0609 9.2131 15.2419 9.0441 15.2419 8.7991 15.0609 8.6081"></polygon>
            <path d="M14.2331,8.9585 C14.2751,9.0185 14.3851,9.1635 14.5041,9.2275 L14.5041,8.6525 C14.4771,8.6975 14.3521,8.9005 14.2331,8.9585" id="Fill-65" fill="#B07F55"></path>
            <polygon id="Fill-67" fill="#B07F55" points="14.5688 8.6815 14.5688 9.2135 14.7498 9.0445 14.7498 8.8565"></polygon>
            <polygon id="Fill-69" fill="#B07F55" points="15.3064 9.248 15.3064 9.778 15.4644 9.631 15.4644 9.396"></polygon>
            <polygon id="Fill-71" fill="#B07F55" points="15.061 9.418 15.061 9.608 15.242 9.777 15.242 9.249"></polygon>
            <polygon id="Fill-73" fill="#B07F55" points="14.8156 9.2491 14.8156 9.7771 14.9966 9.6071 14.9966 9.4191"></polygon>
            <polygon id="Fill-75" fill="#B07F55" points="14.5689 9.4192 14.5689 9.6072 14.7499 9.7772 14.7499 9.2492"></polygon>
            <path d="M14.3234,9.7785 L14.5044,9.6085 L14.5044,9.4315 C14.4424,9.3935 14.3794,9.3235 14.3234,9.2495 L14.3234,9.7785 Z" id="Fill-77" fill="#B07F55"></path>
            <path d="M14.7829,10.0127 L14.5919,9.8347 L14.5919,14.2047 C14.5919,14.2047 14.5779,14.4217 14.5689,14.5627 C14.6539,14.6487 14.9739,14.9727 14.9739,14.9727 L14.9739,9.8337 L14.7829,10.0127 Z" id="Fill-79" fill="#B07F55"></path>
            <path d="M15.0836,14.8094 C15.0836,14.9494 15.3406,15.2774 15.4646,15.3524 L15.4646,9.8364 L15.2746,10.0124 L15.0836,9.8344 L15.0836,14.8094 Z" id="Fill-81" fill="#B07F55"></path>
            <path d="M13.4934,14.3353 L13.3534,14.2393 C13.3534,14.2393 13.3444,14.2853 13.3324,14.3493 C13.3924,14.4303 13.7354,14.8993 13.9054,15.1283 C13.9474,15.1853 13.9834,15.3293 13.9834,15.3293 C13.9834,15.3293 14.0454,15.3003 14.0454,15.2473 C14.0454,15.1953 14.0384,15.1343 14.0384,15.1343 C14.0384,15.1343 14.0844,15.1863 14.1644,15.1863 C14.1644,15.1233 14.0414,15.0533 14.0364,14.9623 C14.1304,15.0323 14.2124,14.9963 14.3214,15.0303 C14.4394,15.0663 14.4724,15.1163 14.5094,15.1143 C14.5304,15.1133 14.5504,15.0763 14.5424,15.0543 C14.5274,15.0143 14.3814,14.9053 14.2784,14.8863 C14.2534,14.8813 14.0604,14.9283 14.0214,14.8683 C13.8614,14.6203 13.6004,14.2183 13.5754,14.1803 C13.5594,14.1763 13.5434,14.1723 13.5314,14.1643 C13.5314,14.1643 13.5334,14.2903 13.4934,14.3353 L13.4934,14.3353 Z" id="Fill-83" fill="#D10429"></path>
            <path d="M14.3914,15.1067 C14.3834,15.1157 14.3844,15.1287 14.3924,15.1357 L14.4554,15.1907 C14.4634,15.1987 14.4774,15.1967 14.4844,15.1877 C14.4924,15.1787 14.4924,15.1657 14.4834,15.1587 L14.4204,15.1037 C14.4164,15.0997 14.4114,15.0977 14.4064,15.0987 C14.4004,15.0997 14.3954,15.1017 14.3914,15.1067 L14.3914,15.1067 Z" id="Fill-85" fill="#D10429"></path>
            <path d="M14.2956,15.1731 C14.2766,15.1951 14.2776,15.2261 14.2976,15.2431 L14.4506,15.3771 C14.4706,15.3941 14.5036,15.3911 14.5216,15.3691 C14.5406,15.3471 14.5396,15.3151 14.5196,15.2981 L14.3666,15.1651 C14.3596,15.1591 14.3486,15.1551 14.3396,15.1541 C14.3236,15.1531 14.3076,15.1591 14.2956,15.1731" id="Fill-87" fill="#D10429"></path>
            <path d="M14.2079,15.2767 C14.1889,15.2987 14.1899,15.3297 14.2099,15.3467 L14.3649,15.4807 C14.3839,15.4977 14.4149,15.4947 14.4339,15.4727 C14.4529,15.4507 14.4519,15.4187 14.4319,15.4017 L14.2789,15.2687 C14.2709,15.2627 14.2619,15.2587 14.2529,15.2577 C14.2369,15.2567 14.2199,15.2627 14.2079,15.2767 L14.2079,15.2767 Z" id="Fill-89" fill="#D10429"></path>
            <path d="M14.155,15.3589 C14.139,15.3579 14.123,15.3629 14.111,15.3769 C14.092,15.3989 14.093,15.4309 14.113,15.4479 L14.266,15.5809 C14.286,15.5979 14.317,15.5949 14.336,15.5729 C14.355,15.5509 14.355,15.5199 14.335,15.5029 L14.181,15.3689 C14.173,15.3629 14.164,15.3599 14.155,15.3589 L14.155,15.3589 Z" id="Fill-91" fill="#D10429"></path>
            <path d="M11.6909,6.9707 C11.9429,6.9707 12.1199,7.0857 12.3589,7.1917 C12.4209,7.2187 12.4789,7.2417 12.5299,7.2587 C12.4979,7.2877 12.4729,7.3157 12.4659,7.3397 C12.4659,7.3397 12.5729,7.3597 12.6209,7.4497 C12.6209,7.4497 12.5199,7.4607 12.5029,7.5207 C12.5599,7.5247 12.6159,7.5967 12.6169,7.6657 L12.4729,7.6207 C12.4729,7.6207 12.5079,7.7827 12.5079,7.9587 C12.5079,8.0487 12.3779,8.1537 12.3779,8.3067 C12.3779,8.7847 12.4979,8.9687 12.5839,9.1157 C12.6179,9.1737 12.6449,9.2407 12.7009,9.2907 C12.4539,9.1597 12.2709,8.9947 12.2709,8.8427 L12.2709,8.2647 L12.2069,8.2647 L12.2069,8.8427 C12.2069,8.9527 12.2339,9.0047 12.2339,9.0047 C12.2729,9.1267 12.3509,9.3157 12.3989,9.3917 C12.1719,9.2697 12.0569,9.1157 12.0569,9.0587 L12.0569,8.2647 L11.9929,8.2647 L11.9929,9.0697 L12.0049,9.1247 C11.9779,9.1667 11.9419,9.2157 11.9169,9.2317 C11.8929,9.2157 11.8579,9.1667 11.8309,9.1247 L11.8429,9.0697 L11.8429,8.2647 L11.7789,8.2647 L11.7789,9.0587 C11.7789,9.1157 11.6629,9.2697 11.4359,9.3917 C11.4849,9.3157 11.5629,9.1267 11.6019,9.0047 C11.6019,9.0047 11.6289,8.9527 11.6289,8.8427 L11.6289,8.2647 L11.5649,8.2647 L11.5649,8.8427 C11.5649,8.9947 11.3819,9.1597 11.1359,9.2907 C11.1919,9.2407 11.2179,9.1737 11.2519,9.1157 C11.3449,8.9547 11.4609,8.7487 11.4609,8.1647 C11.4609,7.9447 11.4289,7.7957 11.3719,7.6917 C11.3549,7.6567 11.3319,7.5657 11.4629,7.5657 C11.5319,7.5657 11.6879,7.6857 11.6879,7.6857 C11.6879,7.6857 11.6809,7.5897 11.6019,7.5347 C11.5889,7.5257 11.5669,7.4977 11.5669,7.4707 C11.5669,7.4507 11.6009,7.4017 11.6279,7.3897 C11.6459,7.3817 11.3599,7.3317 11.3599,7.2017 C11.3599,7.1747 11.3769,7.1567 11.4359,7.1567 C11.5139,7.1567 11.6409,7.2497 11.7539,7.2497 C11.8369,7.2497 11.8699,7.2297 11.9559,7.2297 C12.0599,7.2297 12.2779,7.4277 12.3519,7.4197 C12.2689,7.3677 12.1339,7.1697 11.9309,7.1697 C11.8599,7.1697 11.7959,7.1857 11.7299,7.1857 C11.6459,7.1857 11.5629,7.1077 11.4709,7.1077 C11.4099,7.1077 11.3419,7.1117 11.3319,7.0957 C11.3139,7.0677 11.3299,7.0517 11.3459,7.0287 C11.3769,6.9857 11.4639,6.9737 11.5499,6.9707 C11.5759,6.9697 11.6019,6.9697 11.6259,6.9697 C11.6499,6.9697 11.6719,6.9707 11.6909,6.9707 L11.6909,6.9707 Z" id="Fill-93" fill="#B07F55"></path>
            <path d="M10.8724,7.2799 C10.8724,7.2799 10.9254,7.1789 11.0604,7.1789 C11.1164,7.1789 11.3024,7.1749 11.3024,7.1749 C11.3264,7.2399 11.4394,7.3469 11.4394,7.4589 C11.4394,7.4589 11.3254,7.2519 11.0054,7.2519 C10.9254,7.2519 10.8724,7.2799 10.8724,7.2799 L10.8724,7.2799 Z" id="Fill-95" fill="#CC082F"></path>
            <path d="M11.3918,7.4979 C11.3918,7.4979 11.3238,7.5699 11.3088,7.6079 C11.2418,7.5819 11.1238,7.4609 11.1238,7.4609 C11.1238,7.4609 11.2238,7.5199 11.3918,7.4979 L11.3918,7.4979 Z" id="Fill-97" fill="#D10429"></path>
            <path d="M11.284,7.3081 C11.284,7.3081 11.206,7.2831 11.206,7.2561 C11.206,7.2231 11.244,7.2231 11.266,7.2491 C11.282,7.2671 11.284,7.3081 11.284,7.3081 L11.284,7.3081 Z" id="Fill-99" fill="#000000"></path>
            <path d="M11.6219,7.2211 C11.6839,7.2211 11.7339,7.2611 11.7339,7.3101 C11.7339,7.3591 11.6839,7.3991 11.6219,7.3991 C11.5599,7.3991 11.5099,7.3591 11.5099,7.3101 C11.5099,7.2611 11.5599,7.2211 11.6219,7.2211" id="Fill-101" fill="#000000"></path>
            <path d="M11.6219,7.2317 C11.6649,7.2317 11.6999,7.2667 11.6999,7.3097 C11.6999,7.3537 11.6649,7.3887 11.6219,7.3887 C11.5789,7.3887 11.5439,7.3537 11.5439,7.3097 C11.5439,7.2667 11.5789,7.2317 11.6219,7.2317" id="Fill-103" fill="#F6D402"></path>
            <path d="M11.6219,7.2768 C11.6399,7.2768 11.6549,7.2918 11.6549,7.3098 C11.6549,7.3288 11.6399,7.3428 11.6219,7.3428 C11.6039,7.3428 11.5889,7.3288 11.5889,7.3098 C11.5889,7.2918 11.6039,7.2768 11.6219,7.2768" id="Fill-105" fill="#000000"></path>
            <polygon id="Fill-107" fill="#000000" points="9.8306 15.4477 10.1866 15.6417 10.1006 16.0387 9.7446 15.8447"></polygon>
            <path d="M9.8809,15.3838 L9.7759,15.4918 L9.8419,15.6358 L9.9689,15.5778 L9.8809,15.3838 Z M8.1699,11.6368 L8.0419,11.6958 L9.4919,14.8728 L9.6469,14.8728 L8.1699,11.6368 Z" id="Fill-109" fill="#000000"></path>
            <path d="M8.6209,14.1419 C8.6209,14.1419 8.7429,14.3939 8.8359,14.4289 C8.7879,14.4159 8.6319,14.4729 8.6319,14.4729 C8.6319,14.4729 8.9069,14.7189 9.1399,14.7349 C9.3379,14.7479 9.4339,14.6499 9.4339,14.6499 L9.3939,14.4399 C9.3939,14.4399 9.2729,14.2939 9.0799,14.2269 C8.8839,14.1589 8.6209,14.1419 8.6209,14.1419 L8.6209,14.1419 Z" id="Fill-111" fill="#000000"></path>
            <path d="M9.542,13.6898 C9.542,13.6898 9.373,13.8338 9.327,14.0018 C9.281,14.1688 9.357,14.3588 9.357,14.3588 L9.499,14.6238 C9.499,14.6238 9.695,14.5188 9.779,14.3628 C9.863,14.2058 9.832,13.9948 9.832,13.9948 C9.832,13.9948 9.676,14.0528 9.657,14.0788 C9.689,13.9048 9.542,13.6898 9.542,13.6898 L9.542,13.6898 Z" id="Fill-113" fill="#000000"></path>
            <path d="M8.9997,13.6223 C8.9997,13.6223 8.8077,13.6873 8.6217,13.6763 C8.4437,13.6653 8.2967,13.5163 8.2967,13.5163 C8.2967,13.5163 8.4437,13.4163 8.5157,13.4303 C8.4367,13.4003 8.3207,13.2003 8.3207,13.2003 C8.3207,13.2003 8.4847,13.1513 8.6307,13.2063 C8.7767,13.2613 8.9037,13.4203 8.9037,13.4203 L8.9997,13.6223 L8.9997,13.6223 Z" id="Fill-115" fill="#000000"></path>
            <path d="M9.0657,12.6851 C9.0657,12.6851 9.1617,12.8841 9.1387,12.9531 C9.1687,12.9071 9.2817,12.8351 9.2817,12.8351 C9.2817,12.8351 9.3497,13.1571 9.2847,13.3561 C9.2197,13.5541 9.0207,13.6301 9.0207,13.6301 L8.8017,13.2051 C8.8017,13.2051 8.7697,13.0471 8.8377,12.9221 C8.9057,12.7971 9.0657,12.6851 9.0657,12.6851 L9.0657,12.6851 Z" id="Fill-117" fill="#000000"></path>
            <path d="M7.8172,12.1591 C7.8172,12.1591 8.0242,12.1371 8.2142,12.2161 C8.3732,12.2821 8.4212,12.4011 8.4212,12.4011 L8.4992,12.6111 C8.4992,12.6111 8.2742,12.6951 8.0952,12.6311 C7.9172,12.5661 7.7862,12.3521 7.7862,12.3521 C7.7862,12.3521 7.9112,12.3041 7.9582,12.3221 C7.8892,12.2921 7.8172,12.1591 7.8172,12.1591 L7.8172,12.1591 L7.8172,12.1591 Z" id="Fill-119" fill="#000000"></path>
            <path d="M8.4695,11.7703 C8.4695,11.7703 8.5605,11.8873 8.5635,12.0213 C8.5875,11.9503 8.7015,11.8713 8.7015,11.8713 C8.7015,11.8713 8.8175,12.1543 8.7925,12.3543 C8.7665,12.5553 8.5985,12.6743 8.5985,12.6743 L8.3885,12.2763 C8.3885,12.2763 8.3205,12.1133 8.3405,11.9863 C8.3605,11.8603 8.4695,11.7703 8.4695,11.7703 L8.4695,11.7703 Z" id="Fill-121" fill="#000000"></path>
            <path d="M7.7512,11.0091 C7.7512,11.0091 7.7132,11.2261 7.7772,11.3511 C7.8352,11.4621 7.8712,11.4871 7.8712,11.4871 C7.7622,11.4151 7.5972,11.4081 7.5972,11.4081 C7.5972,11.4081 7.6562,11.6441 7.7962,11.7521 C7.9362,11.8591 8.1522,11.8341 8.1522,11.8341 C8.1522,11.8341 8.2942,11.6451 8.2842,11.4411 C8.2752,11.2371 8.1132,11.0191 8.1132,11.0191 C8.1132,11.0191 8.0492,11.1511 8.0432,11.2501 C8.0022,11.1481 7.7512,11.0091 7.7512,11.0091 L7.7512,11.0091 Z" id="Fill-123" fill="#000000"></path>
            <path d="M9.4452,14.6407 L9.4512,14.7187 C9.5802,14.7197 9.5992,14.7067 9.6322,14.7477 C9.6552,14.7747 9.7072,14.7987 9.7602,14.7747 C9.8132,14.7507 9.8362,14.6867 9.8122,14.6337 C9.7882,14.5817 9.7392,14.5697 9.6922,14.5787 C9.6632,14.5847 9.6442,14.6077 9.6192,14.6207 C9.5722,14.6447 9.4452,14.6407 9.4452,14.6407 L9.4452,14.6407 Z" id="Fill-125" fill="#000000"></path>
            <path d="M9.434,14.5813 L9.497,14.6273 C9.429,14.7373 9.408,14.7473 9.425,14.7973 C9.437,14.8303 9.429,14.8873 9.381,14.9193 C9.332,14.9513 9.266,14.9373 9.234,14.8893 C9.202,14.8403 9.218,14.7933 9.251,14.7583 C9.271,14.7363 9.301,14.7323 9.325,14.7183 C9.37,14.6913 9.434,14.5813 9.434,14.5813 L9.434,14.5813 Z" id="Fill-127" fill="#000000"></path>
            <path d="M8.9962,13.6573 L9.0022,13.7353 C9.1312,13.7363 9.1502,13.7233 9.1832,13.7643 C9.2052,13.7913 9.2582,13.8153 9.3112,13.7913 C9.3642,13.7673 9.3872,13.7033 9.3632,13.6503 C9.3392,13.5983 9.2902,13.5863 9.2432,13.5953 C9.2142,13.6013 9.1952,13.6243 9.1702,13.6373 C9.1232,13.6613 8.9962,13.6573 8.9962,13.6573 L8.9962,13.6573 Z" id="Fill-129" fill="#000000"></path>
            <path d="M9.0224,13.6848 L9.0774,13.7398 C8.9934,13.8388 8.9714,13.8448 8.9804,13.8968 C8.9864,13.9308 8.9704,13.9858 8.9174,14.0098 C8.8644,14.0348 8.8014,14.0108 8.7764,13.9578 C8.7524,13.9048 8.7764,13.8608 8.8144,13.8308 C8.8374,13.8128 8.8674,13.8138 8.8934,13.8028 C8.9424,13.7838 9.0224,13.6848 9.0224,13.6848 L9.0224,13.6848 Z" id="Fill-131" fill="#000000"></path>
            <path d="M8.5611,12.7366 L8.5671,12.8146 C8.6961,12.8156 8.7151,12.8026 8.7481,12.8436 C8.7711,12.8706 8.8231,12.8946 8.8761,12.8706 C8.9291,12.8466 8.9521,12.7826 8.9281,12.7296 C8.9041,12.6776 8.8551,12.6656 8.8081,12.6746 C8.7791,12.6806 8.7601,12.7036 8.7351,12.7166 C8.6881,12.7406 8.5611,12.7366 8.5611,12.7366 L8.5611,12.7366 Z" id="Fill-133" fill="#000000"></path>
            <path d="M8.5969,12.7203 L8.6519,12.7753 C8.5679,12.8743 8.5459,12.8803 8.5549,12.9323 C8.5609,12.9663 8.5449,13.0213 8.4919,13.0453 C8.4389,13.0693 8.3759,13.0463 8.3509,12.9933 C8.3269,12.9403 8.3509,12.8963 8.3889,12.8663 C8.4119,12.8483 8.4419,12.8493 8.4679,12.8383 C8.5169,12.8193 8.5969,12.7203 8.5969,12.7203 L8.5969,12.7203 Z" id="Fill-135" fill="#000000"></path>
            <path d="M8.0975,11.7646 L8.1035,11.8426 C8.2325,11.8436 8.2515,11.8306 8.2845,11.8716 C8.3075,11.8986 8.3595,11.9226 8.4125,11.8986 C8.4655,11.8736 8.4885,11.8106 8.4645,11.7576 C8.4405,11.7056 8.3915,11.6936 8.3445,11.7026 C8.3155,11.7086 8.2965,11.7316 8.2715,11.7446 C8.2245,11.7686 8.0975,11.7646 8.0975,11.7646 L8.0975,11.7646 Z" id="Fill-137" fill="#000000"></path>
            <path d="M8.1334,11.7483 L8.1884,11.8033 C8.1044,11.9023 8.0824,11.9083 8.0914,11.9603 C8.0974,11.9943 8.0814,12.0493 8.0284,12.0733 C7.9754,12.0973 7.9124,12.0743 7.8874,12.0213 C7.8634,11.9683 7.8874,11.9243 7.9254,11.8943 C7.9484,11.8763 7.9784,11.8773 8.0044,11.8663 C8.0534,11.8473 8.1334,11.7483 8.1334,11.7483 L8.1334,11.7483 Z" id="Fill-139" fill="#000000"></path>
            <polygon id="Fill-141" fill="#F6D402" points="9.8819 15.5601 10.1029 15.6811 10.0489 15.9271 9.8279 15.8061"></polygon>
            <path d="M8.9141,13.4267 C8.8681,13.4457 8.7991,13.2447 8.7481,13.1337 C8.6971,13.0207 8.5921,12.8457 8.6211,12.8317 C8.6541,12.8167 8.6971,12.9087 8.7501,13.0247 C8.8031,13.1407 8.9571,13.4087 8.9141,13.4267 L8.9141,13.4267 Z" id="Fill-143" fill="#F6D402"></path>
            <path d="M8.4383,12.3643 C8.3923,12.3833 8.3413,12.2513 8.2913,12.1413 C8.2393,12.0273 8.1883,11.9473 8.2183,11.9343 C8.2513,11.9193 8.2993,12.0183 8.3423,12.1113 C8.3833,12.2013 8.4813,12.3463 8.4383,12.3643 L8.4383,12.3643 Z" id="Fill-145" fill="#F6D402"></path>
            <path d="M9.5392,14.7731 C9.5032,14.7831 9.3442,14.4501 9.2162,14.1691 C9.0872,13.8881 8.9922,13.6611 9.0212,13.6471 C9.0542,13.6321 9.1582,13.8981 9.2872,14.1791 C9.4152,14.4601 9.5662,14.7661 9.5392,14.7731 L9.5392,14.7731 Z" id="Fill-147" fill="#F6D402"></path>
            <path d="M7.815,11.1409 C7.815,11.1409 7.809,11.2989 7.862,11.3889 C7.914,11.4789 8.031,11.5149 8.031,11.5149 C8.031,11.5149 8.037,11.3569 7.984,11.2669 C7.932,11.1769 7.815,11.1409 7.815,11.1409" id="Fill-149" fill="#087754"></path>
            <path d="M7.7055,11.4993 C7.7055,11.4993 7.8435,11.5073 7.9225,11.5683 C8.0025,11.6293 8.0325,11.7563 8.0325,11.7563 C8.0325,11.7563 7.9415,11.7653 7.8625,11.7043 C7.7825,11.6433 7.7055,11.4993 7.7055,11.4993" id="Fill-151" fill="#087754"></path>
            <path d="M8.1373,11.1794 C8.1373,11.1794 8.0913,11.2844 8.0973,11.3974 C8.1023,11.5104 8.1683,11.6384 8.1683,11.6384 C8.1683,11.6384 8.2273,11.5024 8.2223,11.3894 C8.2173,11.2764 8.1533,11.2114 8.1373,11.1794 L8.1373,11.1794 Z" id="Fill-153" fill="#087754"></path>
            <path d="M7.9057,12.1993 C7.9057,12.1993 7.9737,12.2933 8.0777,12.3453 C8.1817,12.3963 8.3367,12.3983 8.3367,12.3983 C8.3367,12.3983 8.2587,12.2983 8.1547,12.2463 C8.0507,12.1953 7.9057,12.1993 7.9057,12.1993 L7.9057,12.1993 Z" id="Fill-155" fill="#087754"></path>
            <path d="M7.9391,12.4185 C7.9391,12.4185 7.9891,12.5155 8.0791,12.5575 C8.1701,12.5995 8.3561,12.5955 8.3561,12.5955 C8.3561,12.5955 8.2851,12.5045 8.1941,12.4635 C8.1031,12.4215 7.9391,12.4185 7.9391,12.4185 L7.9391,12.4185 Z" id="Fill-157" fill="#087754"></path>
            <path d="M8.4621,11.8997 C8.4621,11.8997 8.4071,11.9907 8.4121,12.0907 C8.4181,12.1907 8.4831,12.2997 8.4831,12.2997 C8.4831,12.2997 8.5301,12.1747 8.5241,12.0747 C8.5191,11.9747 8.4621,11.8997 8.4621,11.8997 L8.4621,11.8997 Z" id="Fill-159" fill="#087754"></path>
            <path d="M8.6642,12.028 C8.6642,12.028 8.5702,12.154 8.5572,12.284 C8.5432,12.413 8.6102,12.546 8.6102,12.546 C8.6102,12.546 8.7232,12.432 8.7372,12.303 C8.7502,12.173 8.6642,12.028 8.6642,12.028 L8.6642,12.028 Z" id="Fill-161" fill="#087754"></path>
            <path d="M8.4053,13.2248 C8.4053,13.2248 8.4163,13.2718 8.4563,13.3208 C8.4953,13.3708 8.5623,13.4228 8.5623,13.4228 C8.5623,13.4228 8.6273,13.4018 8.7073,13.4198 C8.7883,13.4368 8.8953,13.5088 8.8953,13.5088 C8.8953,13.5088 8.7803,13.3368 8.6603,13.2698 C8.5403,13.2028 8.4053,13.2248 8.4053,13.2248 L8.4053,13.2248 Z" id="Fill-163" fill="#087754"></path>
            <path d="M8.3934,13.5209 C8.3934,13.5209 8.5424,13.4569 8.6664,13.4739 C8.7894,13.4899 8.9004,13.5869 8.9004,13.5869 C8.9004,13.5869 8.7334,13.6449 8.6104,13.6279 C8.4874,13.6119 8.3934,13.5209 8.3934,13.5209 L8.3934,13.5209 Z" id="Fill-165" fill="#087754"></path>
            <path d="M9.025,12.8261 C9.025,12.8261 8.893,12.9661 8.882,13.0881 C8.871,13.2091 8.989,13.3221 8.989,13.3221 C8.989,13.3221 8.983,13.2441 9.003,13.1931 C9.024,13.1421 9.067,13.0871 9.067,13.0871 C9.067,13.0871 9.086,13.0241 9.078,12.9741 C9.068,12.9041 9.025,12.8261 9.025,12.8261" id="Fill-167" fill="#087754"></path>
            <path d="M9.2147,12.9883 C9.2147,12.9883 9.0897,13.1143 9.0577,13.2493 C9.0247,13.3843 9.0827,13.5283 9.0827,13.5283 C9.0827,13.5283 9.1967,13.4393 9.2287,13.3043 C9.2617,13.1693 9.2147,12.9883 9.2147,12.9883 L9.2147,12.9883 Z" id="Fill-169" fill="#087754"></path>
            <path d="M9.5266,13.8018 C9.5266,13.8018 9.5826,13.9198 9.5976,14.0178 C9.6116,14.1168 9.5986,14.1508 9.5986,14.1508 C9.5986,14.1508 9.5396,14.2078 9.5136,14.2418 C9.4806,14.2848 9.4756,14.3648 9.4756,14.3648 C9.4756,14.3648 9.3586,14.1908 9.3766,14.0628 C9.3946,13.9358 9.5266,13.8018 9.5266,13.8018 L9.5266,13.8018 Z" id="Fill-171" fill="#087754"></path>
            <path d="M9.7735,14.0744 C9.7735,14.0744 9.6235,14.1734 9.5635,14.2754 C9.5045,14.3764 9.5355,14.4804 9.5355,14.4804 C9.5355,14.4804 9.6425,14.4714 9.7015,14.3694 C9.7615,14.2684 9.7735,14.0744 9.7735,14.0744 L9.7735,14.0744 Z" id="Fill-173" fill="#087754"></path>
            <path d="M8.7879,14.4928 C8.7879,14.4928 9.0039,14.4868 9.1359,14.5198 C9.2679,14.5518 9.3169,14.6228 9.3169,14.6228 C9.3169,14.6228 9.1679,14.6918 9.0359,14.6598 C8.9039,14.6278 8.7879,14.4928 8.7879,14.4928 L8.7879,14.4928 Z" id="Fill-175" fill="#087754"></path>
            <path d="M8.7513,14.2363 C8.7513,14.2363 8.8493,14.3873 8.9753,14.4423 C9.1483,14.5183 9.3503,14.4813 9.3503,14.4813 C9.3503,14.4813 9.2403,14.3473 9.0903,14.2883 C8.9393,14.2293 8.7513,14.2363 8.7513,14.2363 L8.7513,14.2363 Z" id="Fill-177" fill="#087754"></path>
            <path d="M13.9936,15.5811 C13.9836,15.6001 13.9816,15.6271 13.9936,15.6501 C13.9936,15.6501 13.9146,15.6251 13.8876,15.6381 C13.8626,15.6511 13.8876,16.0221 13.8876,16.0221 C13.8876,16.0221 14.2026,15.8241 14.1976,15.7961 C14.1926,15.7661 14.1266,15.7161 14.1266,15.7161 C14.1516,15.7121 14.1716,15.6961 14.1816,15.6771 C14.1916,15.6561 14.1936,15.5981 14.1216,15.5621 C14.0956,15.5481 14.0716,15.5441 14.0526,15.5461 C14.0206,15.5491 14.0006,15.5681 13.9936,15.5811 L13.9936,15.5811 Z M16.1526,11.2671 L16.1806,11.3271 C16.1806,11.3271 16.1346,11.3431 16.1146,11.3831 C16.0936,11.4241 16.1276,11.4811 16.1276,11.4811 C16.1276,11.4811 15.8906,11.4611 15.8526,11.4851 C15.8196,11.5071 15.8676,11.6711 15.8456,11.8101 C15.8146,12.0041 15.7376,11.9881 15.7346,12.0251 C15.7316,12.0621 15.7636,12.1191 15.7636,12.1191 C15.7636,12.1191 15.7196,12.1331 15.7096,12.1511 C15.6946,12.1811 15.7206,12.2371 15.7016,12.2731 C15.5986,12.4761 15.4456,12.7751 15.3446,12.9741 C15.3306,13.0011 15.2926,13.0121 15.2736,13.0491 C15.2566,13.0831 15.2706,13.1341 15.2706,13.1341 C15.2706,13.1341 15.2036,13.1381 15.1806,13.1831 C15.1556,13.2321 15.1706,13.2971 15.1706,13.2971 C15.1706,13.2971 15.1286,13.3021 15.1076,13.3431 C15.0856,13.3871 15.1226,13.4091 15.1126,13.4291 C14.9776,13.6951 14.8176,14.0091 14.7196,14.2001 C14.6846,14.2701 14.5586,14.2851 14.4856,14.4281 C14.4146,14.5661 14.5166,14.6691 14.5166,14.6691 C14.5166,14.6691 14.4116,14.6781 14.3836,14.7331 C14.3546,14.7891 14.3776,14.8731 14.4526,14.9121 C14.5286,14.9511 14.6116,14.9191 14.6396,14.8631 C14.6676,14.8091 14.6116,14.7181 14.6116,14.7181 C14.6116,14.7181 14.7536,14.7391 14.8246,14.6001 C14.8976,14.4571 14.8366,14.3481 14.8716,14.2781 C14.9696,14.0861 15.1296,13.7731 15.2646,13.5061 C15.2746,13.4871 15.3146,13.5041 15.3376,13.4601 C15.3576,13.4191 15.3376,13.3821 15.3376,13.3821 C15.3376,13.3821 15.3996,13.3551 15.4236,13.3071 C15.4476,13.2611 15.4116,13.2051 15.4116,13.2051 C15.4116,13.2051 15.4606,13.1871 15.4776,13.1531 C15.4966,13.1151 15.4826,13.0791 15.4966,13.0511 C15.5976,12.8531 15.7506,12.5541 15.8546,12.3511 C15.8726,12.3141 15.9326,12.3021 15.9476,12.2721 C15.9576,12.2531 15.9416,12.2091 15.9416,12.2091 C15.9416,12.2091 16.0076,12.2021 16.0356,12.1781 C16.0636,12.1541 16.0056,12.1011 16.1446,11.9621 C16.2446,11.8631 16.4046,11.8041 16.4026,11.7641 C16.4006,11.7201 16.2436,11.5401 16.2436,11.5401 C16.2436,11.5401 16.3096,11.5341 16.3306,11.4941 C16.3516,11.4531 16.3376,11.4061 16.3376,11.4061 L16.4026,11.3951 L16.4026,11.0851 L16.1526,11.2671 Z" id="Fill-179" fill="#000000"></path>
            <polygon id="Fill-181" fill="#F6D402" points="16.2098 11.28 16.3588 11.355 16.3558 11.176"></polygon>
            <path d="M16.1524,11.3881 C16.1334,11.4251 16.1514,11.4731 16.1944,11.4951 C16.2364,11.5161 16.2854,11.5031 16.3044,11.4661 C16.3234,11.4281 16.3054,11.3801 16.2624,11.3591 C16.2474,11.3511 16.2304,11.3481 16.2144,11.3491 C16.1874,11.3501 16.1644,11.3651 16.1524,11.3881 L16.1524,11.3881 Z" id="Fill-183" fill="#F6D402"></path>
            <path d="M15.8967,11.5244 C15.8807,11.5344 15.9027,11.6684 15.8977,11.7824 C15.8937,11.8894 15.8587,11.9204 15.8407,11.9564 C15.8227,11.9914 15.7607,12.0314 15.7607,12.0314 L15.8127,12.0834 C15.8127,12.0834 15.8457,12.0304 15.8987,11.9264 C15.9617,11.8034 15.9597,11.5814 15.9777,11.5694 C15.9937,11.5594 16.1247,11.5264 16.1247,11.5264 C16.1247,11.5264 16.0047,11.5204 15.9387,11.5214 C15.9167,11.5214 15.9007,11.5224 15.8967,11.5244" id="Fill-185" fill="#F6D402"></path>
            <path d="M15.9104,12.1427 C15.9104,12.1427 15.9274,12.0947 15.9884,11.9757 C16.0614,11.8327 16.2164,11.7297 16.2204,11.7037 C16.2234,11.6767 16.1664,11.5517 16.1664,11.5517 C16.1664,11.5517 16.0284,11.5777 16.0094,11.5967 C15.9904,11.6147 15.9994,11.8007 15.9264,11.9437 C15.8654,12.0617 15.8364,12.1057 15.8364,12.1057 L15.9104,12.1427 Z" id="Fill-187" fill="#F6D402"></path>
            <path d="M16.2606,11.7136 C16.2616,11.7356 16.0806,11.8646 16.0186,11.9876 C15.9656,12.0916 15.9426,12.1496 15.9426,12.1496 L16.0146,12.1606 C16.0146,12.1606 16.0106,12.0866 16.0276,12.0526 C16.0466,12.0156 16.0516,11.9706 16.1356,11.9036 C16.2246,11.8336 16.3456,11.7716 16.3446,11.7526 C16.3446,11.7356 16.2096,11.5696 16.2096,11.5696 C16.2096,11.5696 16.2596,11.6946 16.2606,11.7136 L16.2606,11.7136 Z" id="Fill-189" fill="#F6D402"></path>
            <path d="M15.7313,12.5166 C15.8403,12.3036 15.8733,12.2886 15.8863,12.2616 C15.9013,12.2336 15.8983,12.1946 15.8493,12.1696 C15.8313,12.1606 15.8163,12.1586 15.8023,12.1596 C15.7793,12.1616 15.7633,12.1766 15.7543,12.1946 C15.7403,12.2216 15.7473,12.2576 15.6393,12.4706 L15.3923,12.9536 C15.3923,12.9536 15.3663,13.0006 15.4153,13.0256 C15.4633,13.0506 15.4843,13.0006 15.4843,13.0006 L15.7313,12.5166 Z" id="Fill-191" fill="#F6D402"></path>
            <path d="M15.2955,13.0707 C15.2825,13.0967 15.3055,13.1357 15.3475,13.1577 C15.3895,13.1787 15.4355,13.1747 15.4485,13.1487 C15.4625,13.1217 15.4375,13.0837 15.3955,13.0617 C15.3745,13.0507 15.3535,13.0467 15.3345,13.0477 C15.3165,13.0497 15.3025,13.0577 15.2955,13.0707" id="Fill-193" fill="#F6D402"></path>
            <path d="M15.2042,13.2081 C15.1872,13.2421 15.2142,13.2911 15.2652,13.3171 C15.3162,13.3431 15.3712,13.3371 15.3892,13.3031 C15.4062,13.2681 15.3792,13.2191 15.3282,13.1931 C15.3092,13.1841 15.2902,13.1781 15.2722,13.1781 C15.2412,13.1761 15.2152,13.1871 15.2042,13.2081" id="Fill-195" fill="#F6D402"></path>
            <path d="M15.1467,13.3613 C15.1337,13.3873 15.1567,13.4263 15.1987,13.4483 C15.2407,13.4693 15.2867,13.4653 15.2997,13.4393 C15.3137,13.4123 15.2907,13.3733 15.2477,13.3523 C15.2267,13.3413 15.2047,13.3373 15.1857,13.3383 C15.1677,13.3403 15.1537,13.3483 15.1467,13.3613 L15.1467,13.3613 Z" id="Fill-197" fill="#F6D402"></path>
            <path d="M15.1096,13.5077 C15.1096,13.5077 14.8356,14.0467 14.7396,14.2367 C14.7086,14.2967 14.5786,14.3347 14.5276,14.4347 C14.4766,14.5347 14.5126,14.6287 14.5796,14.6637 C14.6456,14.6977 14.7446,14.6727 14.7956,14.5717 C14.8466,14.4717 14.8006,14.3447 14.8316,14.2837 C14.9276,14.0937 15.2016,13.5547 15.2016,13.5547 C15.2016,13.5547 15.2286,13.5077 15.1806,13.4827 C15.1686,13.4767 15.1576,13.4757 15.1486,13.4777 C15.1226,13.4807 15.1096,13.5077 15.1096,13.5077" id="Fill-199" fill="#F6D402"></path>
            <path d="M14.4168,14.7589 C14.3958,14.7989 14.4198,14.8529 14.4698,14.8779 C14.5198,14.9039 14.5778,14.8919 14.5978,14.8509 C14.6188,14.8109 14.5938,14.7569 14.5438,14.7319 C14.5258,14.7219 14.5058,14.7179 14.4878,14.7179 C14.4568,14.7189 14.4298,14.7339 14.4168,14.7589 L14.4168,14.7589 Z" id="Fill-201" fill="#F6D402"></path>
            <path d="M14.052,15.5822 C14.036,15.5832 14.023,15.5872 14.018,15.5982 C14.008,15.6182 14.029,15.6512 14.067,15.6702 C14.104,15.6892 14.143,15.6872 14.153,15.6662 C14.164,15.6462 14.142,15.6132 14.105,15.5942 C14.086,15.5852 14.068,15.5812 14.052,15.5822 L14.052,15.5822 Z" id="Fill-203" fill="#F6D402"></path>
            <path d="M13.9236,15.6836 L13.9236,15.9496 L14.1396,15.7936 C14.1396,15.7936 14.1106,15.7426 14.0466,15.7096 C13.9826,15.6766 13.9236,15.6836 13.9236,15.6836 L13.9236,15.6836 Z" id="Fill-205" fill="#F6D402"></path>
            <path d="M14.0605,9.7639 C14.0605,9.6179 14.2515,9.4749 14.2515,9.4749 L9.5825,9.4749 C9.5825,9.4749 9.7745,9.6179 9.7745,9.7639 L9.7745,13.2399 C9.7745,13.3309 9.8025,13.3909 9.8475,13.4489 C9.8925,13.5119 9.9875,13.5989 10.0875,13.6629 C10.3935,13.8619 10.9065,14.0719 11.2945,14.2489 C11.6175,14.3959 11.7495,14.4549 11.9175,14.6629 C12.0855,14.4549 12.2175,14.3959 12.5415,14.2489 C12.9295,14.0719 13.4415,13.8619 13.7485,13.6629 C13.8475,13.5989 13.9435,13.5119 13.9885,13.4489 C14.0335,13.3909 14.0605,13.3309 14.0605,13.2399 L14.0605,9.7639 Z" id="Fill-207" fill="#F6D402"></path>
            <path d="M9.8844,11.7303 L9.8844,9.7643 C9.8844,9.6523 9.8284,9.5843 9.8284,9.5843 L14.0064,9.5843 C14.0064,9.5843 13.9504,9.6523 13.9504,9.7643 L13.9514,11.7303 L11.9174,12.3463 L9.8844,11.7303 Z" id="Fill-209" fill="#D10429"></path>
            <path d="M13.9513,11.7303 L12.6923,11.7063 L11.1433,11.7063 L9.8843,11.7303 L9.8843,13.2393 C9.8843,13.3153 9.9633,13.4933 10.4173,13.7193 C11.1673,14.0933 11.7443,14.2683 11.9173,14.4803 C12.0903,14.2683 12.6673,14.0933 13.4173,13.7193 C13.8713,13.4933 13.9503,13.3153 13.9503,13.2393 L13.9513,11.7303 Z" id="Fill-211" fill="#0B45BB"></path>
            <path d="M12.6617,11.6516 C12.6617,11.6516 13.3877,11.4686 13.3877,10.6916 C13.3877,10.0856 12.6597,9.7846 12.6387,9.6406 C12.5677,9.8906 12.8827,10.2366 12.8827,10.6456 C12.8827,11.1756 12.4917,11.2016 12.4917,11.2016 C12.3997,11.2016 12.3627,11.2666 12.3267,11.2666 C12.2507,11.2586 12.2137,11.1606 12.1377,11.1606 C12.0667,11.1606 12.0117,11.2706 11.9177,11.2706 C11.8227,11.2706 11.7687,11.1606 11.6977,11.1606 C11.6217,11.1606 11.5857,11.2586 11.5087,11.2666 C11.4727,11.2666 11.4357,11.2016 11.3437,11.2016 C11.3437,11.2016 10.9527,11.1756 10.9527,10.6456 C10.9527,10.2366 11.2677,9.8906 11.1967,9.6406 C11.1757,9.7846 10.4477,10.0856 10.4477,10.6916 C10.4477,11.4686 11.1737,11.6516 11.1737,11.6516 L10.9667,12.0286 C10.9667,12.0286 11.2667,12.0436 11.4257,12.1796 C11.6187,12.3436 11.5997,12.6906 11.5997,12.9436 C11.5997,13.1426 11.5747,13.3526 11.4727,13.4386 C11.3357,13.5556 11.2427,13.5636 11.2427,13.7006 C11.2427,13.8136 11.3297,13.8366 11.4727,13.9116 C11.6547,14.0086 11.6457,14.1376 11.9177,14.1376 C12.1887,14.1376 12.1807,14.0086 12.3637,13.9116 C12.5057,13.8366 12.5927,13.8136 12.5927,13.7006 C12.5927,13.5636 12.5007,13.5556 12.3637,13.4386 C12.2607,13.3526 12.2357,13.1426 12.2357,12.9436 C12.2357,12.6906 12.2177,12.3436 12.4097,12.1796 C12.5687,12.0436 12.8687,12.0286 12.8687,12.0286 L12.6617,11.6516 Z" id="Fill-213" fill="#000000"></path>
            <polygon id="Fill-215" fill="#000000" points="11.9171 9.694 11.7911 10.052 11.4471 9.889 11.6111 10.232 11.2521 10.36 11.6111 10.487 11.4471 10.829 11.7911 10.666 11.9171 11.024 12.0441 10.666 12.3881 10.829 12.2241 10.487 12.5831 10.36 12.2241 10.232 12.3881 9.889 12.0441 10.052"></polygon>
            <path d="M11.1434,11.7068 C11.1434,11.7068 10.6944,11.5968 10.5274,11.3758 C10.2344,11.6388 9.8844,11.7308 9.8844,11.7308 C9.8844,11.7308 10.2494,11.8958 10.5274,12.1058 C10.6554,11.9218 11.1434,11.7068 11.1434,11.7068" id="Fill-217" fill="#000000"></path>
            <path d="M12.692,11.7068 C12.692,11.7068 13.18,11.9218 13.308,12.1058 C13.586,11.8958 13.951,11.7308 13.951,11.7308 C13.951,11.7308 13.601,11.6388 13.308,11.3758 C13.141,11.5968 12.692,11.7068 12.692,11.7068 L12.692,11.7068 Z" id="Fill-219" fill="#000000"></path>
            <polygon id="Fill-221" fill="#000000" points="11.3271 12.1842 11.1521 12.3592 11.3271 12.5332 11.5021 12.3592"></polygon>
            <polygon id="Fill-223" fill="#000000" points="12.5085 12.1842 12.3335 12.3592 12.5085 12.5332 12.6835 12.3592"></polygon>
            <path d="M11.2832,13.2034 C11.2832,13.4244 11.2622,13.5404 11.2622,13.5404 C11.2622,13.5404 11.5082,13.4674 11.5572,13.2184 C11.5802,13.1014 11.6052,12.6694 11.4872,12.5964 L11.1662,12.5334 C11.2012,12.6194 11.2832,12.8844 11.2832,13.2034 L11.2832,13.2034 Z" id="Fill-225" fill="#000000"></path>
            <path d="M12.3485,12.5964 C12.2305,12.6694 12.2555,13.1014 12.2785,13.2184 C12.3275,13.4674 12.5735,13.5404 12.5735,13.5404 C12.5735,13.5404 12.5525,13.4244 12.5525,13.2034 C12.5525,12.8844 12.6345,12.6194 12.6695,12.5334 L12.3485,12.5964 Z" id="Fill-227" fill="#000000"></path>
            <path d="M10.5264,12.6089 C10.4154,12.6369 10.3484,12.7489 10.3764,12.8599 C10.3804,12.8769 10.3874,12.8929 10.3954,12.9069 C10.3794,12.9019 10.3624,12.8989 10.3454,12.8969 L10.3234,12.8969 C10.2194,12.9009 10.1314,12.9829 10.1244,13.0899 C10.1164,13.2039 10.2034,13.3019 10.3174,13.3099 C10.3344,13.3109 10.3504,13.3099 10.3664,13.3069 C10.3564,13.3209 10.3484,13.3349 10.3414,13.3509 C10.2994,13.4569 10.3504,13.5789 10.4564,13.6219 C10.5624,13.6639 10.6834,13.6109 10.7254,13.5059 C10.7324,13.4889 10.7364,13.4739 10.7384,13.4569 C10.7484,13.4709 10.7594,13.4829 10.7734,13.4939 C10.8604,13.5669 10.9914,13.5559 11.0644,13.4679 C11.1384,13.3809 11.1264,13.2509 11.0384,13.1779 C11.0254,13.1669 11.0114,13.1579 10.9964,13.1509 C11.0124,13.1459 11.0274,13.1389 11.0424,13.1289 C11.1394,13.0689 11.1684,12.9399 11.1074,12.8429 C11.0654,12.7769 10.9924,12.7429 10.9194,12.7479 C10.8864,12.7499 10.8524,12.7599 10.8224,12.7789 C10.8074,12.7879 10.7944,12.7989 10.7834,12.8109 C10.7834,12.7939 10.7814,12.7769 10.7774,12.7599 C10.7534,12.6629 10.6644,12.5989 10.5684,12.6029 C10.5544,12.6039 10.5404,12.6059 10.5264,12.6089 L10.5264,12.6089 Z" id="Fill-229" fill="#000000"></path>
            <path d="M12.7225,13.2102 C12.7445,13.4212 12.9165,13.5982 13.1275,13.6482 C13.0915,13.5892 13.0675,13.5232 13.0605,13.4532 C13.0335,13.2032 13.2275,13.0002 13.4915,13.0002 C13.5335,13.0002 13.5735,13.0062 13.6135,13.0152 C13.5205,12.8622 13.3445,12.7562 13.1535,12.7562 C12.8895,12.7562 12.6955,12.9602 12.7225,13.2102" id="Fill-231" fill="#000000"></path>
            <path d="M12.1965,13.6405 C12.1585,13.6405 12.1145,13.6645 12.1145,13.7145 C12.1145,13.7655 12.1585,13.7885 12.1965,13.7885 C12.3405,13.7885 12.4325,13.7585 12.4325,13.7145 C12.4325,13.6705 12.3405,13.6405 12.1965,13.6405 L12.1965,13.6405 Z M11.6395,13.6405 C11.4945,13.6405 11.4025,13.6715 11.4025,13.7145 C11.4025,13.7585 11.4945,13.7885 11.6395,13.7885 C11.6775,13.7885 11.7215,13.7655 11.7215,13.7145 C11.7215,13.6645 11.6775,13.6405 11.6395,13.6405 L11.6395,13.6405 Z M10.8475,10.6455 C10.8475,11.0445 11.0595,11.2795 11.3435,11.2795 C11.3985,11.2795 11.4575,11.3535 11.5085,11.3535 C11.5915,11.3535 11.6465,11.2605 11.6975,11.2605 C11.7625,11.2605 11.8055,11.3625 11.9175,11.3625 C12.0295,11.3625 12.0735,11.2605 12.1375,11.2605 C12.1885,11.2605 12.2435,11.3535 12.3275,11.3535 C12.3785,11.3535 12.4375,11.2795 12.4915,11.2795 C12.7755,11.2795 12.9885,11.0445 12.9885,10.6455 C12.9885,10.3205 12.7155,9.9235 12.7455,9.8595 C12.7455,9.8595 13.2775,10.2415 13.2775,10.6915 C13.2775,11.4175 12.5425,11.5965 12.5425,11.5965 L12.7075,11.9695 C12.7075,11.9695 12.4795,12.0035 12.3405,12.1155 C12.1555,12.2655 12.1525,12.6695 12.1525,12.9435 C12.1525,13.2655 12.1645,13.4025 12.2815,13.4895 C12.4035,13.5815 12.4965,13.6015 12.4965,13.6955 C12.4965,13.7775 12.4005,13.8115 12.2765,13.8655 C12.1355,13.9275 12.1215,14.0355 11.9175,14.0355 C11.7135,14.0355 11.7005,13.9275 11.5595,13.8655 C11.4355,13.8115 11.3395,13.7775 11.3395,13.6955 C11.3395,13.6015 11.4315,13.5815 11.5545,13.4895 C11.6705,13.4025 11.6825,13.2655 11.6825,12.9435 C11.6825,12.6695 11.6805,12.2655 11.4945,12.1155 C11.3555,12.0035 11.1275,11.9695 11.1275,11.9695 L11.2935,11.5965 C11.2935,11.5965 10.5575,11.4175 10.5575,10.6915 C10.5575,10.2415 11.0905,9.8595 11.0905,9.8595 C11.1205,9.9235 10.8475,10.3205 10.8475,10.6455 L10.8475,10.6455 Z" id="Fill-233" fill="#FFD200"></path>
            <polygon id="Fill-235" fill="#FFD200" points="11.9185 9.9351 11.9995 10.1641 12.2185 10.0591 12.1145 10.2791 12.3415 10.3601 12.1145 10.4411 12.2185 10.6591 11.9995 10.5561 11.9175 10.7831 11.8365 10.5561 11.6175 10.6591 11.7215 10.4411 11.4935 10.3601 11.7215 10.2791 11.6175 10.0591 11.8365 10.1641"></polygon>
            <path d="M10.9035,11.7204 L10.5275,11.9994 L10.5225,12.0054 L10.5145,11.9984 L10.0985,11.7374 C10.0985,11.7374 10.3645,11.6454 10.5205,11.4864 C10.6685,11.6554 10.9035,11.7204 10.9035,11.7204 L10.9035,11.7204 Z" id="Fill-237" fill="#FFD200"></path>
            <path d="M13.7372,11.7372 C13.7372,11.7372 13.4602,11.8752 13.3202,11.9982 L13.3122,12.0052 L13.3082,11.9992 C13.1762,11.8482 12.9322,11.7202 12.9322,11.7202 C12.9322,11.7202 13.1672,11.6552 13.3152,11.4862 C13.4712,11.6452 13.7372,11.7372 13.7372,11.7372" id="Fill-239" fill="#FFD200"></path>
            <polygon id="Fill-241" fill="#FFD200" points="11.3271 12.2675 11.4181 12.3585 11.3271 12.4515 11.2351 12.3585"></polygon>
            <polygon id="Fill-243" fill="#FFD200" points="12.5085 12.2675 12.6005 12.3585 12.5085 12.4515 12.4175 12.3585"></polygon>
            <path d="M11.451,12.6662 C11.515,12.7542 11.504,12.8962 11.504,13.0942 C11.504,13.2932 11.354,13.3702 11.354,13.3702 C11.354,12.8902 11.305,12.7752 11.279,12.6302 L11.451,12.6662 Z" id="Fill-245" fill="#FFD200"></path>
            <path d="M12.5569,12.6301 C12.5309,12.7751 12.4819,12.8901 12.4819,13.3701 C12.4819,13.3701 12.3319,13.2941 12.3319,13.0941 C12.3319,12.8961 12.3209,12.7541 12.3849,12.6661 L12.5569,12.6301 L12.5569,12.6301 Z" id="Fill-247" fill="#FFD200"></path>
            <path d="M10.7426,12.8116 C10.7466,12.8296 10.7476,12.8476 10.7456,12.8646 C10.7446,12.8786 10.7406,12.8916 10.7356,12.9046 C10.7106,12.8956 10.6836,12.8916 10.6556,12.8916 C10.5866,12.8916 10.5246,12.9226 10.4816,12.9706 C10.4696,12.9606 10.4606,12.9496 10.4516,12.9366 C10.4426,12.9226 10.4346,12.9066 10.4306,12.8896 C10.4086,12.8036 10.4616,12.7156 10.5476,12.6946 C10.5586,12.6916 10.5696,12.6906 10.5806,12.6896 C10.6546,12.6866 10.7236,12.7366 10.7426,12.8116 L10.7426,12.8116 Z" id="Fill-249" fill="#FFD200"></path>
            <path d="M10.9827,13.112 C10.9667,13.122 10.9507,13.128 10.9337,13.132 C10.9197,13.135 10.9057,13.135 10.8917,13.134 C10.8927,13.108 10.8887,13.081 10.8797,13.054 C10.8587,12.988 10.8097,12.938 10.7507,12.913 C10.7567,12.899 10.7647,12.886 10.7737,12.874 C10.7847,12.861 10.7967,12.849 10.8127,12.839 C10.8877,12.792 10.9867,12.815 11.0337,12.891 C11.0397,12.9 11.0447,12.91 11.0487,12.92 C11.0747,12.99 11.0487,13.071 10.9827,13.112 L10.9827,13.112 Z" id="Fill-251" fill="#FFD200"></path>
            <path d="M10.7712,13.4332 C10.7572,13.4212 10.7462,13.4072 10.7372,13.3922 C10.7302,13.3802 10.7252,13.3672 10.7222,13.3532 C10.7472,13.3462 10.7712,13.3342 10.7942,13.3172 C10.8502,13.2772 10.8832,13.2152 10.8892,13.1512 C10.9042,13.1522 10.9182,13.1562 10.9332,13.1612 C10.9482,13.1672 10.9642,13.1752 10.9782,13.1872 C11.0462,13.2442 11.0542,13.3452 10.9972,13.4132 C10.9902,13.4222 10.9822,13.4292 10.9742,13.4362 C10.9152,13.4832 10.8312,13.4832 10.7712,13.4332 L10.7712,13.4332 Z" id="Fill-253" fill="#FFD200"></path>
            <path d="M10.4003,13.3313 C10.4073,13.3143 10.4173,13.2993 10.4283,13.2863 C10.4383,13.2753 10.4493,13.2673 10.4603,13.2593 C10.4753,13.2813 10.4943,13.3013 10.5173,13.3173 C10.5733,13.3583 10.6423,13.3703 10.7053,13.3563 C10.7083,13.3713 10.7093,13.3853 10.7093,13.4013 C10.7083,13.4183 10.7053,13.4353 10.6983,13.4513 C10.6653,13.5343 10.5713,13.5733 10.4893,13.5403 C10.4783,13.5363 10.4693,13.5313 10.4603,13.5253 C10.3973,13.4833 10.3713,13.4033 10.4003,13.3313 L10.4003,13.3313 Z" id="Fill-255" fill="#FFD200"></path>
            <path d="M10.3826,12.9471 C10.4006,12.9481 10.4176,12.9531 10.4336,12.9601 C10.4476,12.9661 10.4586,12.9741 10.4696,12.9821 C10.4526,13.0031 10.4406,13.0271 10.4316,13.0541 C10.4106,13.1201 10.4206,13.1891 10.4526,13.2451 C10.4396,13.2521 10.4266,13.2581 10.4116,13.2621 C10.3956,13.2661 10.3776,13.2691 10.3606,13.2681 C10.2716,13.2621 10.2046,13.1851 10.2106,13.0961 C10.2116,13.0851 10.2136,13.0741 10.2166,13.0641 C10.2366,12.9921 10.3056,12.9421 10.3826,12.9471 L10.3826,12.9471 Z" id="Fill-257" fill="#FFD200"></path>
            <path d="M10.6559,12.9716 C10.7419,12.9716 10.8109,13.0416 10.8109,13.1266 C10.8109,13.2126 10.7419,13.2826 10.6559,13.2826 C10.5699,13.2826 10.5009,13.2126 10.5009,13.1266 C10.5009,13.0416 10.5699,12.9716 10.6559,12.9716" id="Fill-259" fill="#FFD200"></path>
            <path d="M13.3847,12.9175 C13.1267,12.9675 12.9407,13.1955 12.9677,13.4615 C12.8857,13.3935 12.8257,13.3015 12.8147,13.2005 C12.7937,13.0025 12.9377,12.8495 13.1537,12.8495 C13.2367,12.8495 13.3157,12.8755 13.3847,12.9175" id="Fill-261" fill="#FFD200"></path>
        </g>
    </g>
</svg>