<?xml version="1.0" encoding="utf-8"?>
<!-- Generator: Adobe Illustrator 19.2.1, SVG Export Plug-In . SVG Version: 6.00 Build 0)  -->
<svg version="1.1" id="Layer_1" xmlns="http://www.w3.org/2000/svg" xmlns:xlink="http://www.w3.org/1999/xlink" x="0px" y="0px"
	 viewBox="0 0 24 24" style="enable-background:new 0 0 24 24;" xml:space="preserve">
<style type="text/css">
	.st0{fill:#FFFFFF;}
	.st1{fill:#EE1C25;}
	.st2{fill:#0055A4;}
	.st3{clip-path:url(#SVGID_2_);}
	.st4{clip-path:url(#SVGID_4_);fill:#FFFFFF;}
	.st5{clip-path:url(#SVGID_6_);}
	.st6{clip-path:url(#SVGID_8_);fill:#EE1C25;}
	.st7{clip-path:url(#SVGID_10_);}
	.st8{clip-path:url(#SVGID_12_);fill:#FFFFFF;}
	.st9{clip-path:url(#SVGID_14_);}
	.st10{clip-path:url(#SVGID_16_);fill:#0B4EA2;}
</style>
<g id="Slovakia">
	<g>
		<path class="st0" d="M12.021,0.019c-5.222,0-9.654,3.336-11.313,7.988h22.626C21.675,3.355,17.243,0.019,12.021,0.019z"/>
		<path class="st1" d="M12.044,24c5.222,0,9.654-3.336,11.313-7.988H0.686C2.345,20.664,6.822,24,12.044,24z"/>
		<path class="st2" d="M0.686,16.012h22.671c0.436-1.245,0.686-2.578,0.686-3.972c0-1.417-0.258-2.771-0.708-4.034H0.708
			C0.258,9.269,0,10.623,0,12.04C0,13.434,0.249,14.767,0.686,16.012z"/>
	</g>
	<g>
		<g>
			<defs>
				<path id="SVGID_1_" d="M7.939,18.096c-2.035-0.98-4.946-2.926-4.946-6.774s0.184-5.599,0.184-5.599h4.762h4.762
					c0,0,0.184,1.75,0.184,5.599S9.974,17.115,7.939,18.096"/>
			</defs>
			<clipPath id="SVGID_2_">
				<use xlink:href="#SVGID_1_"  style="overflow:visible;"/>
			</clipPath>
			<g class="st3">
				<defs>
					<rect id="SVGID_3_" x="0.078" y="0.011" width="24" height="24"/>
				</defs>
				<clipPath id="SVGID_4_">
					<use xlink:href="#SVGID_3_"  style="overflow:visible;"/>
				</clipPath>
				<rect x="-2.007" y="0.722" class="st4" width="19.892" height="22.373"/>
			</g>
		</g>
		<g>
			<defs>
				<path id="SVGID_5_" d="M7.939,17.585C6.072,16.686,3.402,14.9,3.402,11.37c0-3.531,0.169-5.137,0.169-5.137h4.369h4.369
					c0,0,0.169,1.606,0.169,5.137C12.477,14.9,9.806,16.686,7.939,17.585"/>
			</defs>
			<clipPath id="SVGID_6_">
				<use xlink:href="#SVGID_5_"  style="overflow:visible;"/>
			</clipPath>
			<g class="st5">
				<defs>
					<rect id="SVGID_7_" x="0.078" y="0.011" width="24" height="24"/>
				</defs>
				<clipPath id="SVGID_8_">
					<use xlink:href="#SVGID_7_"  style="overflow:visible;"/>
				</clipPath>
				<rect x="-1.598" y="1.233" class="st6" width="19.075" height="21.352"/>
			</g>
		</g>
		<g>
			<defs>
				<path id="SVGID_9_" d="M8.339,10.444c0.505,0.008,1.492,0.028,2.37-0.266c0,0-0.023,0.314-0.023,0.68
					c0,0.366,0.023,0.68,0.023,0.68c-0.806-0.269-1.8-0.275-2.37-0.268v1.95H7.54v-1.95c-0.57-0.007-1.565-0.001-2.37,0.268
					c0,0,0.023-0.314,0.023-0.68c0-0.366-0.023-0.68-0.023-0.68c0.879,0.294,1.865,0.274,2.37,0.266V9.219
					C7.079,9.215,6.415,9.237,5.665,9.488c0,0,0.023-0.314,0.023-0.68c0-0.367-0.023-0.681-0.023-0.681
					c0.749,0.251,1.412,0.273,1.873,0.269c-0.024-0.775-0.25-1.753-0.25-1.753S7.753,6.68,7.939,6.68S8.59,6.644,8.59,6.644
					S8.364,7.621,8.341,8.397c0.461,0.004,1.124-0.018,1.873-0.269c0,0-0.023,0.314-0.023,0.68c0,0.366,0.023,0.68,0.023,0.68
					C9.463,9.237,8.799,9.215,8.339,9.219V10.444L8.339,10.444z"/>
			</defs>
			<clipPath id="SVGID_10_">
				<use xlink:href="#SVGID_9_"  style="overflow:visible;"/>
			</clipPath>
			<g class="st7">
				<defs>
					<rect id="SVGID_11_" x="0.078" y="0.011" width="24" height="24"/>
				</defs>
				<clipPath id="SVGID_12_">
					<use xlink:href="#SVGID_11_"  style="overflow:visible;"/>
				</clipPath>
				<rect x="0.17" y="1.644" class="st8" width="15.538" height="16.577"/>
			</g>
		</g>
		<g>
			<defs>
				<path id="SVGID_13_" d="M7.939,13.01c-0.94,0-1.444,1.304-1.444,1.304s-0.279-0.618-1.046-0.618
					c-0.519,0-0.902,0.462-1.145,0.889c0.944,1.503,2.451,2.43,3.635,3c1.184-0.57,2.692-1.497,3.636-3
					c-0.243-0.427-0.625-0.889-1.145-0.889c-0.767,0-1.047,0.618-1.047,0.618S8.879,13.01,7.939,13.01"/>
			</defs>
			<clipPath id="SVGID_14_">
				<use xlink:href="#SVGID_13_"  style="overflow:visible;"/>
			</clipPath>
			<g class="st9">
				<defs>
					<rect id="SVGID_15_" x="0.078" y="0.011" width="24" height="24"/>
				</defs>
				<clipPath id="SVGID_16_">
					<use xlink:href="#SVGID_15_"  style="overflow:visible;"/>
				</clipPath>
				<rect x="-0.696" y="8.01" class="st10" width="17.271" height="14.575"/>
			</g>
		</g>
	</g>
</g>
</svg>
