<?xml version="1.0" encoding="utf-8"?>
<!-- Generator: Adobe Illustrator 20.1.0, SVG Export Plug-In . SVG Version: 6.00 Build 0)  -->
<svg version="1.1" id="Layer_1" xmlns="http://www.w3.org/2000/svg" xmlns:xlink="http://www.w3.org/1999/xlink" x="0px" y="0px"
	 viewBox="0 0 24 24" style="enable-background:new 0 0 24 24;" xml:space="preserve">
<style type="text/css">
	.st0{fill:#FFFFFF;}
	.st1{fill:#0038B8;}
</style>
<g id="Israel">
	<g>
		<path class="st0" d="M12,24c2.6,0,5-0.8,7-2.2H5C7,23.2,9.4,24,12,24z"/>
		<path class="st0" d="M12,0C9.4,0,7,0.8,5,2.2h14C17,0.8,14.6,0,12,0z"/>
		<path class="st0" d="M0,12c0,2.2,0.6,4.2,1.6,6h20.8c1-1.8,1.6-3.8,1.6-6c0-2.2-0.6-4.2-1.6-6H1.6C0.6,7.8,0,9.8,0,12z"/>
		<path class="st1" d="M19,2.2H5C3.6,3.2,2.5,4.5,1.6,6h20.8C21.5,4.5,20.4,3.2,19,2.2z"/>
		<path class="st1" d="M5,21.8h14c1.4-1,2.5-2.3,3.4-3.8H1.6C2.5,19.5,3.6,20.8,5,21.8z"/>
	</g>
	<path class="st1" d="M14.7,12L16,9.7h-2.7L12,7.3l-1.3,2.3H8L9.3,12L8,14.3h2.7l1.3,2.3l1.3-2.3H16L14.7,12z M15.6,9.9l-1,1.8
		l-1-1.8H15.6z M14.4,12l-1.2,2.1h-2.4L9.6,12l1.2-2.1h2.4L14.4,12z M12,7.9l1,1.8H11L12,7.9z M8.4,9.9h2.1l-1,1.8L8.4,9.9z
		 M8.4,14.1l1-1.8l1,1.8H8.4z M12,16.1l-1-1.8H13L12,16.1z M14.5,12.3l1,1.8h-2.1L14.5,12.3z"/>
</g>
</svg>
