<?xml version="1.0" encoding="utf-8"?>
<!-- Generator: Adobe Illustrator 20.1.0, SVG Export Plug-In . SVG Version: 6.00 Build 0)  -->
<svg version="1.1" id="Layer_1" xmlns="http://www.w3.org/2000/svg" xmlns:xlink="http://www.w3.org/1999/xlink" x="0px" y="0px"
	 viewBox="0 0 24 24" style="enable-background:new 0 0 24 24;" xml:space="preserve">
<style type="text/css">
	.st0{fill:#00B9E4;}
	.st1{fill:#3F9C35;}
	.st2{fill:#ED2939;}
	.st3{fill:#FFFFFF;}
</style>
<g id="Azerbajan">
	<g>
		<path class="st0" d="M12,0C6.8,0,2.4,3.3,0.7,8h22.6C21.6,3.3,17.2,0,12,0z"/>
		<path class="st1" d="M12,24c5.2,0,9.6-3.3,11.3-8H0.7C2.3,20.7,6.8,24,12,24z"/>
		<path class="st2" d="M0.7,16h22.6c0.4-1.2,0.7-2.6,0.7-4c0-1.4-0.3-2.8-0.7-4H0.7C0.3,9.3,0,10.6,0,12C0,13.4,0.2,14.8,0.7,16z"/>
	</g>
	<g>
		<ellipse class="st3" cx="10.9" cy="12" rx="3.4" ry="3.4"/>
		<ellipse class="st2" cx="11.6" cy="12" rx="2.8" ry="2.9"/>
		<path class="st3" d="M14.7,10.1l0.4,1l1-0.5l-0.5,1l1,0.4l-1,0.4l0.5,1l-1-0.5l-0.4,1l-0.4-1l-1,0.5l0.5-1l-1-0.4l1-0.4l-0.5-1
			l1,0.5L14.7,10.1z"/>
	</g>
</g>
</svg>
