<?xml version="1.0" encoding="UTF-8" standalone="no"?>
<svg width="24px" height="24px" viewBox="0 0 24 24" version="1.1" xmlns="http://www.w3.org/2000/svg" xmlns:xlink="http://www.w3.org/1999/xlink">
    <!-- Generator: Sketch 39.1 (31720) - http://www.bohemiancoding.com/sketch -->
    <title>Malta</title>
    <desc>Created with Sketch.</desc>
    <defs></defs>
    <g id="Page-1" stroke="none" stroke-width="1" fill="none" fill-rule="evenodd">
        <g id="Malta">
            <path d="M24,12 C24,5.373 18.627,0 12,0 L12,24 C18.627,24 24,18.627 24,12" id="Fill-1" fill="#CF132B"></path>
            <path d="M11.9999,23.9995 L11.9999,-0.0005 C5.3729,-0.0005 -0.0001,5.3725 -0.0001,11.9995 C-0.0001,18.6275 5.3729,23.9995 11.9999,23.9995 Z" id="Path" fill="#FFFFFF"></path>
            <g id="Group" transform="translate(2.000000, 5.000000)">
                <g id="Group-2" fill="#96877D">
                    <path d="M1.3564,3.0184 C1.3524,2.9994 1.3434,2.9804 1.3434,2.9604 L0.3014,2.9604 L0.3014,2.1274 L1.3434,2.1274 C1.3434,2.1084 1.3524,2.0894 1.3564,2.0704 C1.3484,2.0654 1.3374,2.0694 1.3304,2.0624 C1.3234,2.0554 1.3274,2.0424 1.3224,2.0334 C1.3174,2.0534 1.3084,2.0724 1.3084,2.0924 L0.2664,2.0924 L0.2664,2.9954 L1.3084,2.9954 C1.3084,3.0154 1.3174,3.0354 1.3224,3.0554 C1.3274,3.0464 1.3234,3.0334 1.3304,3.0264 C1.3374,3.0194 1.3484,3.0234 1.3564,3.0184" id="Fill-8"></path>
                    <path d="M2.5809,3.2946 C2.5619,3.2986 2.5429,3.3076 2.5229,3.3076 L2.5229,4.3496 L1.6899,4.3496 L1.6899,3.3076 C1.6709,3.3076 1.6519,3.2986 1.6329,3.2946 C1.6279,3.3026 1.6319,3.3136 1.6249,3.3206 C1.6179,3.3276 1.6049,3.3236 1.5959,3.3286 C1.6159,3.3336 1.6349,3.3426 1.6549,3.3426 L1.6549,4.3846 L2.5579,4.3846 L2.5579,3.3426 C2.5779,3.3426 2.5979,3.3336 2.6169,3.3286 C2.6089,3.3236 2.5959,3.3276 2.5889,3.3206 C2.5819,3.3136 2.5859,3.3026 2.5809,3.2946" id="Fill-10"></path>
                    <path d="M2.8571,2.0699 C2.8611,2.0889 2.8701,2.1079 2.8701,2.1279 L3.9121,2.1279 L3.9121,2.9609 L2.8701,2.9609 C2.8701,2.9799 2.8611,2.9989 2.8571,3.0179 C2.8651,3.0229 2.8761,3.0189 2.8831,3.0259 C2.8901,3.0329 2.8861,3.0459 2.8911,3.0549 C2.8961,3.0349 2.9051,3.0159 2.9051,2.9959 L3.9471,2.9959 L3.9471,2.0929 L2.9051,2.0929 C2.9051,2.0729 2.8961,2.0529 2.8911,2.0339 C2.8861,2.0419 2.8901,2.0549 2.8831,2.0629 C2.8761,2.0689 2.8651,2.0649 2.8571,2.0699" id="Fill-12"></path>
                    <path d="M1.6326,1.7938 C1.6516,1.7898 1.6706,1.7808 1.6906,1.7808 L1.6906,0.7388 L2.5236,0.7388 L2.5236,1.7808 C2.5426,1.7808 2.5616,1.7898 2.5806,1.7938 C2.5856,1.7858 2.5816,1.7748 2.5886,1.7678 C2.5956,1.7608 2.6086,1.7648 2.6176,1.7598 C2.5976,1.7548 2.5786,1.7458 2.5586,1.7458 L2.5586,0.7038 L1.6556,0.7038 L1.6556,1.7458 C1.6356,1.7458 1.6156,1.7548 1.5956,1.7598 C1.6046,1.7648 1.6176,1.7608 1.6246,1.7678 C1.6316,1.7748 1.6276,1.7858 1.6326,1.7938" id="Fill-14"></path>
                </g>
                <path d="M1.5959,1.7595 C1.6159,1.7555 1.6349,1.7455 1.6559,1.7455 L1.6559,0.7035 L2.5579,0.7035 L2.5579,1.7455 C2.5779,1.7455 2.5979,1.7555 2.6179,1.7595 C2.6819,1.7225 2.7749,1.7335 2.8459,1.8045 C2.9179,1.8765 2.9289,1.9695 2.8919,2.0335 C2.8959,2.0535 2.9049,2.0725 2.9049,2.0925 L3.9469,2.0925 L3.9469,2.9955 L2.9049,2.9955 C2.9049,3.0155 2.8959,3.0345 2.8919,3.0545 C2.9289,3.1185 2.9179,3.2125 2.8459,3.2835 C2.7749,3.3555 2.6819,3.3665 2.6169,3.3285 C2.5979,3.3335 2.5779,3.3425 2.5579,3.3425 L2.5579,4.3845 L1.6559,4.3845 L1.6559,3.3425 C1.6349,3.3425 1.6159,3.3335 1.5959,3.3285 C1.5319,3.3665 1.4389,3.3555 1.3669,3.2835 C1.2959,3.2125 1.2849,3.1185 1.3219,3.0545 C1.3179,3.0355 1.3079,3.0155 1.3079,2.9955 L0.2669,2.9955 L0.2669,2.0925 L1.3079,2.0925 C1.3079,2.0725 1.3179,2.0535 1.3219,2.0335 C1.2849,1.9695 1.2959,1.8765 1.3669,1.8045 C1.4389,1.7335 1.5319,1.7225 1.5959,1.7595 M1.2389,2.0235 L0.1969,2.0235 L0.1969,3.0655 L1.2389,3.0655 C1.2389,3.2385 1.4119,3.4125 1.5859,3.4125 L1.5859,4.4535 L2.6279,4.4535 L2.6279,3.4125 C2.8009,3.4125 2.9749,3.2385 2.9749,3.0655 L4.0169,3.0655 L4.0169,2.0235 L2.9749,2.0235 C2.9749,1.8495 2.8009,1.6765 2.6279,1.6765 L2.6279,0.6345 L1.5859,0.6345 L1.5859,1.6765 C1.4119,1.6765 1.2389,1.8495 1.2389,2.0235" id="Fill-6" fill="#E60D2E"></path>
                <path d="M1.3568,2.0699 C1.3518,2.0889 1.3428,2.1079 1.3428,2.1279 L0.3018,2.1279 L0.3018,2.9609 L0.722167969,2.9609 L1.3428,2.9609 C1.3428,2.9799 1.3518,2.9989 1.3568,3.0179 C1.4208,2.9789 1.5158,2.9899 1.5888,3.0629 C1.6608,3.1349 1.6728,3.2309 1.6328,3.2949 C1.6518,3.2989 1.6708,3.3079 1.6898,3.3079 L1.6898,4.3499 L2.5238,4.3499 L2.5238,3.3079 C2.5428,3.3079 2.5618,3.2989 2.5808,3.2949 C2.5408,3.2309 2.5528,3.1349 2.6248,3.0629 C2.6978,2.9899 2.7928,2.9789 2.8568,3.0179 C2.8618,2.9989 2.8708,2.9799 2.8708,2.9609 L3.9118,2.9609 L3.9118,2.1279 L2.8708,2.1279 C2.8708,2.1079 2.8618,2.0889 2.8568,2.0699 C2.7928,2.1099 2.6978,2.0979 2.6248,2.0259 C2.5528,1.9529 2.5408,1.8579 2.5808,1.7939 C2.5618,1.7899 2.5428,1.7799 2.5238,1.7799 L2.5238,0.7389 L1.6898,0.7389 L1.6898,1.50482178 L1.6898,1.7799 C1.6708,1.7799 1.6518,1.7899 1.6328,1.7939 C1.6728,1.8579 1.6608,1.9529 1.5888,2.0259 C1.5158,2.0979 1.4208,2.1099 1.3568,2.0699 Z" id="Fill-16" fill="#CCCCCC"></path>
            </g>
        </g>
    </g>
</svg>