<?xml version="1.0" encoding="utf-8"?>
<!-- Generator: Adobe Illustrator 20.1.0, SVG Export Plug-In . SVG Version: 6.00 Build 0)  -->
<svg version="1.1" id="Layer_1" xmlns="http://www.w3.org/2000/svg" xmlns:xlink="http://www.w3.org/1999/xlink" x="0px" y="0px"
	 viewBox="0 0 24 24" style="enable-background:new 0 0 24 24;" xml:space="preserve">
<style type="text/css">
	.st0{fill:#D20000;}
	.st1{fill:#FFE600;}
</style>
<circle class="st0" cx="12" cy="12" r="12"/>
<path class="st1" d="M16.3,12c0,0.1,0,0.3,0,0.4l7.7,0.8c0-0.4,0.1-0.8,0.1-1.2s0-0.8-0.1-1.2l-7.7,0.8C16.2,11.7,16.3,11.9,16.3,12
	z"/>
<path class="st1" d="M12,16.3c-0.2,0-0.4,0-0.6-0.1l-1.8,7.6c0.8,0.2,1.5,0.2,2.3,0.2c0.8,0,1.6-0.1,2.3-0.2l-1.8-7.6
	C12.4,16.2,12.2,16.3,12,16.3z"/>
<path class="st1" d="M12,7.7c0.2,0,0.4,0,0.6,0.1l1.8-7.6C13.6,0.1,12.8,0,12,0c-0.8,0-1.6,0.1-2.3,0.2l1.8,7.6
	C11.6,7.8,11.8,7.7,12,7.7z"/>
<path class="st1" d="M7.7,12c0-0.1,0-0.3,0-0.4l-7.7-0.8C0,11.2,0,11.6,0,12s0,0.8,0.1,1.2l7.7-0.8C7.8,12.3,7.7,12.1,7.7,12z"/>
<path class="st1" d="M15.3,14.7l6.4,4.4c0.4-0.5,0.8-1.1,1.1-1.7l-6.9-3.5C15.6,14.2,15.5,14.4,15.3,14.7z"/>
<path class="st1" d="M8.2,13.9l-6.9,3.5c0.3,0.6,0.7,1.2,1.1,1.7l6.4-4.4C8.5,14.4,8.4,14.2,8.2,13.9z"/>
<path class="st1" d="M8.2,10.1c0.1-0.3,0.3-0.5,0.5-0.8L2.3,4.9C1.9,5.5,1.6,6,1.3,6.6L8.2,10.1z"/>
<path class="st1" d="M15.8,10.1l6.9-3.5c-0.3-0.6-0.7-1.2-1.1-1.7l-6.4,4.4C15.5,9.6,15.6,9.8,15.8,10.1z"/>
<g>
	<circle class="st1" cx="12" cy="12" r="3.4"/>
</g>
</svg>
