<?xml version="1.0" encoding="utf-8"?>
<!-- Generator: Adobe Illustrator 20.1.0, SVG Export Plug-In . SVG Version: 6.00 Build 0)  -->
<svg version="1.1" id="Layer_1" xmlns="http://www.w3.org/2000/svg" xmlns:xlink="http://www.w3.org/1999/xlink" x="0px" y="0px"
	 viewBox="0 0 24 24" style="enable-background:new 0 0 24 24;" xml:space="preserve">
<style type="text/css">
	.st0{fill:#0065BD;}
	.st1{fill:#FFFFFF;}
</style>
<g id="Scotland">
	<path class="st0" d="M3.2,20.2C5.4,22.5,8.5,24,12,24c3.5,0,6.6-1.5,8.8-3.9L12,14.9L3.2,20.2z"/>
	<path class="st0" d="M23.3,15.9c0.4-1.2,0.7-2.5,0.7-3.9c0-1.4-0.2-2.7-0.7-3.9L16.8,12L23.3,15.9z"/>
	<path class="st0" d="M0.7,8.1C0.2,9.3,0,10.6,0,12c0,1.4,0.2,2.7,0.7,3.9L7.2,12L0.7,8.1z"/>
	<path class="st0" d="M12,0C8.5,0,5.4,1.5,3.2,3.8L12,9.1l8.8-5.3C18.6,1.5,15.5,0,12,0z"/>
	<path class="st1" d="M3.2,3.8C2.1,5,1.2,6.5,0.7,8.1L7.2,12l-6.6,3.9c0.6,1.6,1.4,3,2.5,4.2l8.8-5.3l8.8,5.3c1.1-1.2,2-2.6,2.5-4.2
		L16.8,12l6.5-3.9c-0.5-1.6-1.4-3-2.5-4.2L12,9.1L3.2,3.8z"/>
</g>
</svg>
