<?xml version="1.0" encoding="utf-8"?>
<!-- Generator: Adobe Illustrator 20.1.0, SVG Export Plug-In . SVG Version: 6.00 Build 0)  -->
<svg version="1.1" id="Layer_1" xmlns="http://www.w3.org/2000/svg" xmlns:xlink="http://www.w3.org/1999/xlink" x="0px" y="0px"
	 viewBox="0 0 24 24" style="enable-background:new 0 0 24 24;" xml:space="preserve">
<style type="text/css">
	.st0{fill:#FFFFFF;}
	.st1{fill:#5EB6E4;}
	.st2{fill:#FFFFFF;stroke:#000000;stroke-width:3.713205e-02;}
	.st3{fill:none;stroke:#000000;stroke-width:4.338043e-02;}
	.st4{stroke:#000000;stroke-width:3.713205e-02;stroke-linecap:round;stroke-linejoin:round;}
	.st5{fill:#F1BF31;stroke:#000000;stroke-width:3.713205e-02;stroke-linecap:round;stroke-linejoin:round;}
	.st6{stroke:#000000;stroke-width:2.519249e-02;stroke-linecap:round;stroke-linejoin:round;}
	.st7{fill:#D99F31;}
	.st8{fill:none;stroke:#000000;stroke-width:2.403833e-02;stroke-linecap:round;stroke-linejoin:round;}
	.st9{stroke:#000000;stroke-width:3.713205e-02;}
	.st10{fill:#F1BF31;}
	.st11{fill:none;stroke:#000000;stroke-width:3.713205e-02;}
	.st12{fill:#FFFFFF;stroke:#000000;stroke-width:3.641568e-02;}
	.st13{fill:none;stroke:#000000;stroke-width:4.095272e-02;}
	.st14{fill:none;stroke:#000000;stroke-width:3.597790e-02;}
	.st15{fill:#F1BF31;stroke:#000000;stroke-width:3.713205e-02;}
	.st16{fill:#D99F31;stroke:#000000;stroke-width:3.713205e-02;}
	.st17{fill:none;stroke:#000000;stroke-width:4.019654e-02;}
	.st18{stroke:#000000;stroke-width:3.713205e-02;stroke-linejoin:round;}
	.st19{fill:#F1BF31;stroke:#000000;stroke-width:3.713205e-02;stroke-linejoin:round;}
	.st20{fill:#F1BF31;stroke:#000000;stroke-width:3.597790e-02;}
	.st21{stroke:#000000;stroke-width:1.790935e-02;stroke-linejoin:round;}
	.st22{fill:#D99F31;stroke:#000000;stroke-width:2.861516e-02;stroke-linecap:round;stroke-linejoin:round;}
	.st23{fill:none;stroke:#000000;stroke-width:3.092348e-02;stroke-linecap:round;stroke-linejoin:round;}
	.st24{fill:#D99F31;stroke:#000000;stroke-width:3.092348e-02;stroke-linecap:round;stroke-linejoin:round;}
	.st25{fill:none;stroke:#000000;stroke-width:4.338043e-02;stroke-linecap:round;stroke-linejoin:round;}
	.st26{fill:none;stroke:#000000;stroke-width:3.713205e-02;stroke-linecap:round;stroke-linejoin:round;}
	.st27{fill:none;stroke:#000000;stroke-width:3.315220e-02;stroke-linecap:round;stroke-linejoin:round;}
	.st28{fill:#D99F31;stroke:#000000;stroke-width:3.788823e-02;stroke-linecap:round;stroke-linejoin:round;}
	.st29{fill:#F1F1F2;stroke:#000000;stroke-width:6.777694e-02;stroke-linecap:round;stroke-linejoin:round;}
	.st30{fill:#D99F31;stroke:#000000;stroke-width:3.713205e-02;stroke-linecap:round;stroke-linejoin:round;}
	.st31{fill:none;stroke:#F1BF31;stroke-width:3.597790e-02;stroke-linecap:round;stroke-linejoin:round;}
	.st32{fill:#A0CFEB;}
	.st33{fill:#94BB79;}
	.st34{fill:#658D5C;}
	.st35{fill:none;stroke:#000000;stroke-width:4.950941e-02;stroke-linecap:round;stroke-linejoin:round;}
	.st36{fill:none;stroke:#4C819A;stroke-width:3.092348e-02;stroke-linecap:round;stroke-linejoin:round;}
	.st37{fill:#BDBFC1;}
	.st38{fill:#FFFFFF;stroke:#000000;stroke-width:3.713205e-02;stroke-linecap:round;stroke-linejoin:round;}
	.st39{stroke:#000000;stroke-width:4.338043e-02;stroke-linecap:round;stroke-linejoin:round;}
	.st40{fill:#658D5C;stroke:#000000;stroke-width:3.713205e-02;stroke-linecap:round;stroke-linejoin:round;}
	.st41{stroke:#000000;stroke-width:1.790935e-02;stroke-linecap:round;stroke-linejoin:round;}
	.st42{stroke:#000000;stroke-width:3.092348e-02;stroke-linecap:round;stroke-linejoin:round;}
	.st43{fill:#466343;stroke:#000000;stroke-width:3.713205e-02;stroke-linecap:round;stroke-linejoin:round;}
	.st44{fill:#A48253;stroke:#000000;stroke-width:3.713205e-02;stroke-linecap:round;stroke-linejoin:round;}
	.st45{stroke:#000000;stroke-width:2.479450e-02;stroke-linecap:round;stroke-linejoin:round;}
	.st46{stroke:#000000;stroke-width:3.772903e-02;stroke-linecap:round;stroke-linejoin:round;}
	.st47{fill:#658D5C;stroke:#000000;stroke-width:3.772903e-02;stroke-linecap:round;stroke-linejoin:round;}
	.st48{fill:#A48253;stroke:#000000;stroke-width:3.092348e-02;stroke-linecap:round;stroke-linejoin:round;}
	.st49{fill:#A48253;}
	.st50{fill:none;stroke:#000000;stroke-width:5.233511e-02;stroke-linecap:round;stroke-linejoin:round;}
	.st51{fill:none;stroke:#000000;stroke-width:5.571798e-02;stroke-linecap:round;stroke-linejoin:round;}
	.st52{fill:none;stroke:#000000;stroke-width:5.567819e-02;stroke-linecap:round;stroke-linejoin:round;}
	.st53{fill:#D99F31;stroke:#000000;stroke-width:4.950941e-02;stroke-linecap:round;stroke-linejoin:round;}
	.st54{stroke:#000000;stroke-width:3.366958e-02;stroke-linecap:round;stroke-linejoin:round;}
	.st55{stroke:#000000;stroke-width:3.888319e-02;stroke-linecap:round;stroke-linejoin:round;}
	.st56{fill:#658D5C;stroke:#000000;stroke-width:3.888319e-02;stroke-linecap:round;stroke-linejoin:round;}
	.st57{fill:#D99F31;stroke:#000000;stroke-width:4.338043e-02;stroke-linecap:round;stroke-linejoin:round;}
	.st58{stroke:#000000;stroke-width:3.434616e-02;stroke-linecap:round;stroke-linejoin:round;}
	.st59{fill:#658D5C;stroke:#000000;stroke-width:3.434616e-02;stroke-linecap:round;stroke-linejoin:round;}
	.st60{fill:none;stroke:#000000;stroke-width:2.479450e-02;stroke-linecap:round;stroke-linejoin:round;}
	.st61{fill:#658D5C;stroke:#000000;stroke-width:3.366958e-02;stroke-linecap:round;stroke-linejoin:round;}
	.st62{stroke:#000000;stroke-width:3.979856e-02;stroke-linecap:round;stroke-linejoin:round;}
</style>
<g id="San_Marino">
	<path class="st0" d="M12,0C5.4,0,0,5.4,0,12h24C24,5.4,18.7,0,12,0z"/>
	<path class="st1" d="M12,24c6.6,0,12-5.4,12-12H0C0,18.7,5.4,24,12,24z"/>
	<g id="coa">
		<g id="crown">
			<g>
				<circle class="st2" cx="14.4" cy="6.9" r="0.2"/>
				<circle class="st2" cx="14.5" cy="6.3" r="0.2"/>
				<circle class="st2" cx="11.1" cy="5.7" r="0.2"/>
				<circle class="st2" cx="9.6" cy="6.3" r="0.2"/>
				<circle class="st2" cx="10.5" cy="5.8" r="0.2"/>
				<circle class="st2" cx="9.7" cy="6.9" r="0.2"/>
				<circle class="st2" cx="9.9" cy="5.9" r="0.2"/>
				<circle class="st2" cx="13" cy="5.7" r="0.2"/>
				<circle class="st2" cx="13.6" cy="5.8" r="0.2"/>
				<circle class="st2" cx="14.2" cy="5.9" r="0.2"/>
			</g>
			<g>
				<circle class="st3" cx="14.4" cy="6.9" r="0.2"/>
				<circle class="st3" cx="14.5" cy="6.3" r="0.2"/>
				<circle class="st3" cx="11.1" cy="5.7" r="0.2"/>
				<circle class="st3" cx="9.6" cy="6.3" r="0.2"/>
				<circle class="st3" cx="10.5" cy="5.8" r="0.2"/>
				<circle class="st3" cx="9.7" cy="6.9" r="0.2"/>
				<circle class="st3" cx="9.9" cy="5.9" r="0.2"/>
				<circle class="st3" cx="13" cy="5.7" r="0.2"/>
				<circle class="st3" cx="13.6" cy="5.8" r="0.2"/>
				<circle class="st3" cx="14.2" cy="5.9" r="0.2"/>
			</g>
			<g>
				<path class="st4" d="M11.7,5.3c-0.5,0.6-1.5,0.3-1.9,0.6c-0.7,0.4,0.1,1.4,0.2,1.6l0.8-0.2c-0.3-0.2-0.9-0.6-0.7-1
					c0.2-0.3,1.2,0,1.6-0.7C11.8,5.4,11.8,5.3,11.7,5.3L11.7,5.3z"/>
				<path class="st5" d="M11.7,5.3c-0.5,0.6-1.4,0.3-1.9,0.6C9.1,6.3,10,7.3,10.1,7.5l0.7-0.2c-0.3-0.2-0.9-0.7-0.7-1
					c0.2-0.3,1.2,0,1.6-0.7C11.8,5.4,11.8,5.3,11.7,5.3L11.7,5.3z"/>
				<path class="st6" d="M11.8,5.4c-0.6,0.8-1.5,0.4-1.8,0.7c-0.4,0.3,0.2,1,0.5,1.3l0,0c-0.2-0.2-1-0.9-0.5-1.3
					C10.3,5.8,11.2,6.1,11.8,5.4L11.8,5.4z"/>
				<path class="st7" d="M10.4,6.9c0,0,0,0.1,0,0.1c-0.2-0.3-0.4-0.6-0.2-0.9c0.2-0.2,0.6-0.1,1.1-0.3c0.2-0.1,0.4-0.2,0.6-0.4
					c0,0,0,0.1-0.1,0.2c-0.5,0.6-1.4,0.3-1.6,0.6C10,6.4,10.2,6.7,10.4,6.9L10.4,6.9z"/>
				<path d="M10.1,6.8c0.1,0,0.1,0,0.1-0.1c0,0,0,0,0,0C10.3,6.8,10.2,6.8,10.1,6.8C10.2,6.9,10.1,6.9,10.1,6.8c-0.1,0-0.1,0-0.1,0
					C10.1,6.8,10.1,6.8,10.1,6.8z M10,6.6C10.1,6.6,10.1,6.6,10,6.6c0.1,0,0.1,0,0.1,0C10.1,6.6,10.1,6.6,10,6.6
					c0,0.1-0.1,0.1-0.1,0c0,0,0,0,0-0.1C9.9,6.6,10,6.6,10,6.6L10,6.6z M10.1,6.4c-0.1,0-0.2-0.1-0.2-0.1c0,0,0,0,0,0
					C9.9,6.3,10,6.3,10.1,6.4C10.1,6.4,10.1,6.4,10.1,6.4z M10.2,6.2c-0.1,0-0.1-0.1-0.1-0.2c0,0,0,0,0,0
					C10.1,6.1,10.1,6.1,10.2,6.2C10.2,6.2,10.2,6.2,10.2,6.2z M10.3,6c0,0.1,0,0.1,0.1,0.1c0,0,0,0,0,0C10.3,6.1,10.3,6,10.3,6
					C10.3,6,10.3,6,10.3,6L10.3,6z M10.6,5.9c0,0,0,0.1,0.1,0.1c0,0,0,0,0,0l0,0C10.6,6,10.6,6,10.6,5.9L10.6,5.9L10.6,5.9z
					 M10.9,5.9C10.9,6,10.9,6,11,6c0,0,0,0-0.1,0C10.9,6,10.9,6,10.9,5.9C10.8,5.9,10.9,5.9,10.9,5.9L10.9,5.9z M11.1,5.9
					c0,0,0.1,0.1,0.1,0.1C11.2,5.9,11.2,6,11.1,5.9C11.2,5.9,11.1,5.9,11.1,5.9C11.1,5.9,11.1,5.9,11.1,5.9L11.1,5.9z M11.4,5.8
					c0,0,0.1,0,0.1,0C11.5,5.8,11.5,5.8,11.4,5.8C11.4,5.8,11.4,5.8,11.4,5.8C11.3,5.8,11.4,5.8,11.4,5.8L11.4,5.8z M11.6,5.7
					C11.6,5.7,11.6,5.7,11.6,5.7C11.6,5.7,11.6,5.7,11.6,5.7C11.6,5.7,11.5,5.7,11.6,5.7C11.5,5.7,11.5,5.7,11.6,5.7L11.6,5.7z"/>
				<path class="st8" d="M11.8,5.4c0,0,0,0.1,0,0.1c-0.4,0.7-1.4,0.4-1.6,0.7c-0.2,0.3,0.4,0.7,0.7,1c-0.1,0-0.1,0-0.2,0.1l-0.1,0
					l-0.1,0c-0.2-0.2-1-0.9-0.5-1.3C10.3,5.8,11.2,6.2,11.8,5.4L11.8,5.4z"/>
				<path class="st4" d="M12.3,5.3c0.5,0.6,1.5,0.3,1.9,0.6C15,6.3,14.2,7.3,14,7.5l-0.8-0.2c0.3-0.2,0.9-0.6,0.7-1
					c-0.2-0.3-1.2,0-1.6-0.7C12.2,5.4,12.3,5.3,12.3,5.3L12.3,5.3z"/>
				<path class="st5" d="M12.3,5.3c0.5,0.6,1.4,0.3,1.9,0.6C15,6.3,14.1,7.3,14,7.5l-0.7-0.2c0.3-0.2,0.9-0.7,0.7-1
					c-0.2-0.3-1.2,0-1.6-0.7C12.3,5.4,12.3,5.3,12.3,5.3L12.3,5.3z"/>
				<path class="st6" d="M13.6,7.3c0.2-0.2,1-0.9,0.5-1.3c-0.3-0.3-1.2,0.1-1.8-0.7l0,0c0.6,0.8,1.5,0.4,1.8,0.7
					C14.6,6.4,13.9,7.1,13.6,7.3L13.6,7.3z"/>
				<path class="st7" d="M13.7,6.9c0,0,0,0.1,0,0.1C14,6.7,14.2,6.4,14,6.1c-0.2-0.2-0.6-0.1-1.1-0.3c-0.2-0.1-0.4-0.2-0.6-0.4
					c0,0,0,0.1,0.1,0.2c0.5,0.6,1.4,0.3,1.6,0.6C14.1,6.4,13.9,6.7,13.7,6.9L13.7,6.9z"/>
				<path d="M14,6.8c-0.1,0-0.1,0-0.1-0.1c0,0,0,0,0,0C13.8,6.8,13.8,6.9,14,6.8C13.9,6.9,14,6.9,14,6.8C14,6.9,14,6.9,14,6.8
					C14,6.8,14,6.8,14,6.8L14,6.8z M14.1,6.6C14,6.6,14,6.6,14.1,6.6c-0.1,0-0.1,0-0.1,0C14,6.6,14,6.6,14.1,6.6
					c0,0.1,0.1,0.1,0.1,0c0,0,0,0,0-0.1C14.2,6.6,14.1,6.6,14.1,6.6L14.1,6.6z M14,6.4c0.1,0,0.2-0.1,0.2-0.1c0,0,0,0,0,0
					C14.2,6.3,14.1,6.3,14,6.4C14,6.4,14,6.4,14,6.4L14,6.4z M13.9,6.2c0.1,0,0.1-0.1,0.1-0.2c0,0,0,0,0,0C14,6.1,14,6.1,13.9,6.2
					C13.9,6.2,13.9,6.2,13.9,6.2L13.9,6.2z M13.8,6c0,0.1,0,0.1-0.1,0.1c0,0,0,0,0,0C13.8,6.1,13.8,6,13.8,6C13.8,6,13.8,6,13.8,6
					L13.8,6z M13.5,5.9c0,0,0,0.1-0.1,0.1c0,0,0,0,0,0l0,0C13.5,6,13.5,6,13.5,5.9L13.5,5.9L13.5,5.9z M13.2,5.9
					c0,0-0.1,0.1-0.1,0.1c0,0,0,0,0.1,0C13.2,6,13.2,6,13.2,5.9C13.2,5.9,13.2,5.9,13.2,5.9L13.2,5.9z M13,5.9c0,0-0.1,0.1-0.1,0.1
					C12.9,5.9,12.9,6,13,5.9C12.9,5.9,13,5.9,13,5.9C13,5.9,13,5.9,13,5.9L13,5.9z M12.7,5.8c0,0-0.1,0-0.1,0
					C12.6,5.8,12.6,5.8,12.7,5.8C12.7,5.8,12.7,5.8,12.7,5.8C12.7,5.8,12.7,5.8,12.7,5.8z M12.5,5.7C12.5,5.7,12.5,5.7,12.5,5.7
					C12.5,5.7,12.5,5.7,12.5,5.7C12.5,5.7,12.5,5.7,12.5,5.7C12.6,5.7,12.6,5.7,12.5,5.7L12.5,5.7z"/>
				<path class="st8" d="M12.3,5.4c0,0,0,0.1,0,0.1c0.4,0.7,1.4,0.4,1.6,0.7c0.2,0.3-0.4,0.7-0.7,1c0.1,0,0.1,0,0.2,0.1l0.1,0l0.1,0
					c0.2-0.2,1-0.9,0.5-1.3C13.8,5.8,12.8,6.2,12.3,5.4L12.3,5.4z"/>
			</g>
			<g>
				<path class="st9" d="M12,6.7h-0.3c0,0,0-0.3,0-0.4c0-0.1-0.1-0.3-0.1-0.4c0-0.1,0.1-0.5,0.1-0.5H12h0.3c0,0,0.1,0.3,0.1,0.5
					c0,0.1-0.1,0.3-0.1,0.4c0,0.2,0,0.4,0,0.4H12L12,6.7z"/>
				<path class="st10" d="M12,6.7h-0.3c0,0,0-0.3,0-0.4c0-0.1-0.1-0.3-0.1-0.4c0-0.2,0.2-0.5,0.2-0.5H12h0.2c0,0,0.2,0.3,0.2,0.5
					c0,0.1-0.1,0.3-0.1,0.4c0,0.2,0,0.4,0,0.4H12L12,6.7z"/>
				<path class="st7" d="M11.6,5.8C11.7,5.8,11.7,5.8,11.6,5.8c0.1,0,0.1,0,0.1,0s0.2,0,0.3,0s0.3,0,0.3,0s0,0,0.1,0c0,0,0,0,0,0
					c0,0,0,0,0,0.1c0,0.1-0.1,0.3-0.1,0.4c0,0.1,0,0.2,0,0.3L12,6.6l-0.3-0.1c0-0.1,0-0.2,0-0.3C11.8,6.1,11.7,6,11.6,5.8
					C11.6,5.8,11.6,5.8,11.6,5.8L11.6,5.8z"/>
				<path d="M12.3,5.9c0,0,0,0.1,0,0.2c0,0.1,0,0.1,0,0.2c0,0.2,0,0.3,0,0.5h0c0-0.1-0.1-0.3-0.1-0.5C12.2,6.1,12.2,6,12.3,5.9
					c0-0.1,0-0.2,0-0.3c0-0.1-0.1-0.1-0.1-0.3c0,0,0,0,0,0l0.1,0c0,0.1,0.1,0.2,0.1,0.3C12.4,5.7,12.4,5.8,12.3,5.9L12.3,5.9z
					 M11.8,6.7c0-0.2,0.1-0.3,0-0.5c0,0,0-0.1,0-0.2c0-0.1,0-0.1,0-0.2c0-0.1,0-0.2,0-0.3c0-0.1,0.1-0.2,0.1-0.2h0.1
					c0,0-0.2,0.3-0.1,0.5c0,0.1,0.1,0.2,0.1,0.3C11.9,6.3,11.9,6.5,11.8,6.7L11.8,6.7L11.8,6.7z"/>
				<path class="st11" d="M12,6.7h-0.3c0,0,0-0.3,0-0.4c0-0.1-0.1-0.3-0.1-0.4c0-0.2,0.2-0.5,0.2-0.5H12h0.2c0,0,0.2,0.3,0.2,0.5
					c0,0.1-0.1,0.3-0.1,0.4c0,0.2,0,0.4,0,0.4H12L12,6.7z"/>
				<ellipse class="st12" cx="12" cy="5.6" rx="0.1" ry="0.1"/>
				<ellipse class="st13" cx="12" cy="5.6" rx="0.2" ry="0.1"/>
				<circle class="st12" cx="12" cy="5.9" r="0.1"/>
				<circle class="st13" cx="12" cy="5.9" r="0.2"/>
			</g>
			<g>
				<path class="st14" d="M10.5,8.2C10.5,8.2,10.4,8.1,10.5,8.2C10.4,8.1,10.4,8,10.4,8l-0.2-0.2l0.3-0.3l0.6-0.2L12,7.2h0l0.8,0.1
					l0.6,0.2l0.3,0.3L13.7,8c0,0,0,0,0,0.1c0,0-0.1,0.1-0.1,0.1l-0.8-0.3l-0.8,0l-0.8,0L10.5,8.2z"/>
				<path class="st15" d="M10.5,8.1C10.5,8.1,10.5,8.1,10.5,8.1C10.4,8,10.4,8,10.4,8l-0.2-0.2l0.3-0.3l0.6-0.2L12,7.2l0.8,0.1
					l0.6,0.2l0.3,0.3L13.7,8c0,0,0,0.1,0,0.1c0,0,0,0.1,0,0.1l-0.7-0.2l-0.8,0l-0.8,0L10.5,8.1L10.5,8.1z"/>
				<path class="st9" d="M10.4,8.3c0-0.3,0.7-0.5,1.6-0.5c0.9,0,1.6,0.2,1.6,0.5v0c0,0.2-0.7,0.4-1.6,0.4
					C11.1,8.7,10.4,8.5,10.4,8.3L10.4,8.3z"/>
				<path class="st15" d="M10.5,8.3c0-0.3,0.7-0.5,1.6-0.5c0.9,0,1.6,0.2,1.6,0.5v0c0,0.2-0.7,0.4-1.6,0.4
					C11.2,8.7,10.5,8.5,10.5,8.3L10.5,8.3z"/>
				<ellipse class="st16" cx="12" cy="8.3" rx="1.5" ry="0.4"/>
				<path class="st3" d="M13.5,8.4c-0.3,0.1-0.8,0.2-1.5,0.2c-0.6,0-1.2-0.1-1.5-0.2"/>
				<path class="st17" d="M13.5,8.3c-0.3,0.1-0.8,0.2-1.4,0.2c-0.6,0-1.1-0.1-1.4-0.2"/>
				<path class="st11" d="M13.3,8.2C13,8.2,12.6,8.3,12,8.3c-0.5,0-1,0-1.3-0.1"/>
				<path class="st11" d="M13.1,8.1c-0.3,0.1-0.7,0.1-1.1,0.1c-0.4,0-0.8,0-1.1-0.1"/>
				<path class="st11" d="M12.8,8c-0.2,0-0.5,0-0.8,0c-0.3,0-0.5,0-0.8,0"/>
				<ellipse class="st11" cx="12" cy="8.3" rx="1.5" ry="0.4"/>
				<path class="st18" d="M10.2,7.7C10.1,7.5,10,7.4,9.7,7.3c0,0,0.1-0.1,0.2-0.1c0.1,0,0.2,0,0.3,0c-0.1-0.2,0.1-0.4,0.1-0.4
					s0.2,0,0.4,0.1c0-0.3,0.1-0.4,0.1-0.4s0.2,0,0.4,0.2c0-0.3,0.2-0.4,0.2-0.4s0.2,0.1,0.4,0.3C11.8,6.3,12,6.1,12,6.1
					s0.3,0.1,0.4,0.5c0.1-0.3,0.4-0.3,0.4-0.3s0.1,0.1,0.2,0.4c0.2-0.2,0.4-0.2,0.4-0.2s0.1,0.1,0.1,0.4c0.2-0.2,0.4-0.1,0.4-0.1
					s0.1,0.2,0,0.4c0.1,0,0.2-0.1,0.3,0c0.1,0,0.1,0,0.2,0.1c-0.3,0.1-0.4,0.2-0.6,0.4C13.7,7.4,13,7.1,12,7.1
					C11.1,7.1,10.4,7.4,10.2,7.7L10.2,7.7z"/>
				<path class="st19" d="M10.2,7.7c-0.1-0.2-0.3-0.3-0.5-0.4c0,0,0.1,0,0.2-0.1c0.1,0,0.2,0,0.2,0c-0.1-0.2,0-0.4,0-0.4
					s0.2,0,0.4,0.2c0-0.3,0.1-0.4,0.1-0.4s0.2,0,0.4,0.2c0-0.3,0.2-0.4,0.2-0.4s0.2,0.1,0.4,0.3C11.8,6.3,12,6.2,12,6.2
					s0.3,0.1,0.4,0.5c0.1-0.3,0.4-0.3,0.4-0.3s0.1,0.1,0.2,0.4c0.2-0.2,0.4-0.2,0.4-0.2s0.1,0.1,0.1,0.4c0.2-0.2,0.4-0.1,0.4-0.1
					s0.1,0.2,0,0.4c0.1,0,0.1,0,0.2,0c0.1,0,0.2,0,0.2,0.1c-0.2,0.1-0.4,0.2-0.5,0.4C13.7,7.4,13,7.1,12,7.1
					C11.1,7.1,10.4,7.4,10.2,7.7L10.2,7.7z"/>
				<path class="st9" d="M10.2,7.8c0-0.3,0.8-0.6,1.9-0.6c1,0,1.8,0.3,1.8,0.6c0,0.1-0.1,0.1-0.2,0.2c0,0,0,0,0-0.1
					c0-0.3-0.7-0.6-1.7-0.6c-1,0-1.7,0.2-1.7,0.6c0,0,0,0,0,0.1C10.3,7.9,10.2,7.8,10.2,7.8L10.2,7.8z"/>
				<path class="st20" d="M10.2,7.7c0-0.3,0.8-0.6,1.8-0.6c1,0,1.8,0.3,1.8,0.6c0,0.1-0.1,0.1-0.1,0.1c-0.1-0.3-0.7-0.5-1.7-0.5
					C11,7.3,10.4,7.5,10.2,7.7C10.3,7.8,10.2,7.8,10.2,7.7L10.2,7.7z"/>
				<path class="st21" d="M12,6.9c0-0.1,0-0.3,0-0.3c0,0,0,0,0,0C12,6.6,12.1,6.8,12,6.9c0,0.1,0.1,0.2,0.1,0.2c0,0,0,0,0,0l-0.1,0
					c0,0,0,0,0,0C12,7.1,12,7,12,6.9L12,6.9z M13.6,7.4c0,0,0-0.1,0.1-0.1c0-0.1,0.1-0.2,0.1-0.2c0,0,0,0,0,0c0,0-0.1,0.1-0.1,0.2
					C13.6,7.3,13.5,7.4,13.6,7.4L13.6,7.4z M13,7.2c0,0,0.1-0.1,0.1-0.2c0-0.1,0.1-0.2,0.1-0.2c0,0,0,0,0,0c0,0-0.1,0.1-0.1,0.2
					C13.1,7.1,13.1,7.3,13,7.2L13,7.2L13,7.2z M12.6,7.2c0,0,0-0.1,0.1-0.2c0-0.1,0-0.1,0.1-0.2c0,0,0,0,0,0c0,0.1,0,0.1,0,0.2
					C12.7,7,12.6,7.1,12.6,7.2L12.6,7.2z M11,7.3L11,7.3c0,0-0.1-0.1-0.1-0.2c0-0.1-0.1-0.2-0.1-0.2c0,0,0,0,0,0
					c0,0,0.1,0.1,0.1,0.2C11,7.1,11,7.2,11,7.3L11,7.3z M11.5,7.2c0,0,0-0.1,0-0.2c0-0.1,0-0.1,0-0.2c0,0,0,0,0,0
					c0,0.1,0,0.1,0.1,0.2C11.5,7,11.5,7.1,11.5,7.2L11.5,7.2z M10.5,7.4c0,0,0-0.1-0.1-0.1c0-0.1-0.1-0.2-0.1-0.2c0,0,0,0,0,0
					c0,0,0.1,0.1,0.1,0.2C10.5,7.3,10.6,7.4,10.5,7.4L10.5,7.4z"/>
			</g>
			<g>
				<path class="st22" d="M10.5,7.9c0-0.1-0.1-0.1-0.1-0.1c-0.1,0-0.1,0.1-0.1,0.2c0,0.1,0.1,0.1,0.2,0.1C10.5,8,10.5,8,10.5,7.9
					L10.5,7.9z"/>
				<path class="st10" d="M10.4,7.8C10.4,7.8,10.5,7.8,10.4,7.8c0,0.1,0,0.2-0.1,0.2c0,0,0,0,0,0c0,0,0,0,0,0
					C10.3,7.9,10.3,7.8,10.4,7.8C10.4,7.8,10.4,7.8,10.4,7.8C10.4,7.8,10.4,7.8,10.4,7.8L10.4,7.8z"/>
				<path class="st23" d="M10.5,7.9c0-0.1-0.1-0.1-0.1-0.1c0,0-0.1,0.1-0.1,0.1C10.3,8,10.4,8,10.4,8C10.5,8,10.5,8,10.5,7.9
					L10.5,7.9z"/>
				<path class="st24" d="M11.1,7.7l0-0.1l-0.1,0c0,0-0.1,0-0.2,0.1c-0.1,0-0.2,0.1-0.2,0.1l0,0l0,0.2l0.1,0L11.1,7.7L11.1,7.7
					L11.1,7.7z"/>
				<path class="st10" d="M10.7,7.8L11,7.7l0,0l0-0.1l0,0l-0.3,0.1L10.7,7.8L10.7,7.8z"/>
				<path class="st25" d="M10.7,7.8L11,7.7l0,0l0-0.1 M11.1,7.7L11.1,7.7"/>
				<path class="st10" d="M11.5,7.6C11.5,7.5,11.5,7.5,11.5,7.6c0.1-0.1,0.1,0,0.1,0C11.6,7.6,11.6,7.6,11.5,7.6
					C11.5,7.6,11.5,7.6,11.5,7.6z M11.3,7.7C11.3,7.7,11.4,7.6,11.3,7.7c0.1-0.1,0.1,0,0.1,0C11.5,7.7,11.4,7.8,11.3,7.7
					C11.4,7.8,11.3,7.7,11.3,7.7z M11.2,7.6C11.2,7.6,11.2,7.5,11.2,7.6c0.1-0.1,0.1,0,0.1,0C11.3,7.6,11.3,7.6,11.2,7.6
					C11.2,7.7,11.2,7.6,11.2,7.6L11.2,7.6z M11.3,7.5C11.3,7.4,11.3,7.4,11.3,7.5c0.1-0.1,0.1,0,0.1,0C11.4,7.5,11.4,7.5,11.3,7.5
					C11.3,7.5,11.3,7.5,11.3,7.5z"/>
				<path class="st7" d="M11.5,7.6C11.5,7.6,11.5,7.5,11.5,7.6c0.1,0,0.1,0,0.1,0C11.6,7.6,11.6,7.6,11.5,7.6
					C11.5,7.6,11.5,7.6,11.5,7.6z M11.3,7.5C11.3,7.5,11.4,7.5,11.3,7.5c0.1,0,0.1,0,0.1,0C11.4,7.5,11.4,7.4,11.3,7.5
					C11.3,7.4,11.3,7.5,11.3,7.5L11.3,7.5z M11.2,7.6C11.2,7.6,11.2,7.7,11.2,7.6c0.1,0,0.1,0,0.1,0C11.3,7.6,11.3,7.6,11.2,7.6
					C11.2,7.6,11.2,7.6,11.2,7.6L11.2,7.6z M11.3,7.7C11.3,7.7,11.4,7.8,11.3,7.7c0.1,0,0.1,0,0.1,0C11.4,7.7,11.4,7.7,11.3,7.7
					C11.4,7.7,11.3,7.7,11.3,7.7z"/>
				<path class="st26" d="M11.5,7.6C11.5,7.5,11.5,7.5,11.5,7.6c0.1-0.1,0.1,0,0.1,0C11.6,7.6,11.6,7.6,11.5,7.6
					C11.5,7.6,11.5,7.6,11.5,7.6z M11.3,7.7C11.3,7.7,11.4,7.6,11.3,7.7c0.1-0.1,0.1,0,0.1,0C11.5,7.7,11.4,7.8,11.3,7.7
					C11.4,7.8,11.3,7.7,11.3,7.7z M11.2,7.6C11.2,7.6,11.2,7.5,11.2,7.6c0.1-0.1,0.1,0,0.1,0C11.3,7.6,11.3,7.6,11.2,7.6
					C11.2,7.7,11.2,7.6,11.2,7.6L11.2,7.6z M11.3,7.5C11.3,7.4,11.3,7.4,11.3,7.5c0.1-0.1,0.1,0,0.1,0C11.4,7.5,11.4,7.5,11.3,7.5
					C11.3,7.5,11.3,7.5,11.3,7.5z"/>
				<path class="st7" d="M11.8,7.6V7.5l0.1-0.1h0.4l0.1,0.1l0,0.2l-0.1,0.1L11.8,7.6L11.8,7.6z"/>
				<path class="st10" d="M12.3,7.4L12.3,7.4l0,0.2l0,0l-0.3,0l0,0V7.4l0,0L12.3,7.4z"/>
				<path class="st23" d="M11.8,7.6V7.5l0.1-0.1h0.4l0.1,0.1l0,0.2l-0.1,0.1L11.8,7.6L11.8,7.6z"/>
				<path class="st25" d="M11.8,7.6L11.8,7.6 M12.3,7.6L12.3,7.6 M11.9,7.7L11.9,7.7 M12.2,7.7L12.2,7.7 M12.2,7.4v0.1l0,0l-0.3,0
					l0,0V7.4"/>
				<path class="st10" d="M12.6,7.6C12.6,7.5,12.6,7.5,12.6,7.6c-0.1-0.1-0.1,0-0.1,0C12.5,7.6,12.5,7.6,12.6,7.6
					C12.6,7.6,12.6,7.6,12.6,7.6L12.6,7.6z M12.8,7.7C12.8,7.7,12.7,7.6,12.8,7.7c-0.1-0.1-0.1,0-0.1,0C12.6,7.7,12.7,7.8,12.8,7.7
					C12.7,7.8,12.8,7.7,12.8,7.7z M12.9,7.6C12.9,7.6,12.9,7.5,12.9,7.6c-0.1-0.1-0.1,0-0.1,0C12.8,7.6,12.8,7.6,12.9,7.6
					C12.9,7.7,12.9,7.6,12.9,7.6L12.9,7.6z M12.8,7.5C12.8,7.4,12.8,7.4,12.8,7.5c-0.1-0.1-0.1,0-0.1,0C12.7,7.5,12.7,7.5,12.8,7.5
					C12.7,7.5,12.8,7.5,12.8,7.5L12.8,7.5z"/>
				<path class="st7" d="M12.6,7.6C12.6,7.6,12.6,7.5,12.6,7.6c-0.1,0-0.1,0-0.1,0C12.5,7.6,12.5,7.6,12.6,7.6
					C12.6,7.6,12.6,7.6,12.6,7.6z M12.7,7.5C12.7,7.5,12.7,7.5,12.7,7.5c0.1,0,0.1,0,0.1,0C12.8,7.5,12.7,7.4,12.7,7.5
					C12.7,7.4,12.7,7.5,12.7,7.5L12.7,7.5z M12.8,7.6C12.8,7.6,12.8,7.6,12.8,7.6c0.1,0,0.1,0,0.1,0C12.9,7.6,12.9,7.6,12.8,7.6
					C12.8,7.6,12.8,7.6,12.8,7.6z M12.6,7.7C12.6,7.7,12.7,7.8,12.6,7.7c0.1,0,0.1,0,0.1,0C12.7,7.7,12.7,7.7,12.6,7.7
					C12.7,7.7,12.6,7.7,12.6,7.7z"/>
				<path class="st26" d="M12.6,7.6C12.6,7.5,12.6,7.5,12.6,7.6c-0.1-0.1-0.1,0-0.1,0C12.5,7.6,12.5,7.6,12.6,7.6
					C12.6,7.6,12.6,7.6,12.6,7.6L12.6,7.6z M12.8,7.7C12.8,7.7,12.7,7.6,12.8,7.7c-0.1-0.1-0.1,0-0.1,0C12.6,7.7,12.7,7.8,12.8,7.7
					C12.7,7.8,12.8,7.7,12.8,7.7z M12.9,7.6C12.9,7.6,12.9,7.5,12.9,7.6c-0.1-0.1-0.1,0-0.1,0C12.8,7.6,12.8,7.6,12.9,7.6
					C12.9,7.7,12.9,7.6,12.9,7.6L12.9,7.6z M12.8,7.5C12.8,7.4,12.8,7.4,12.8,7.5c-0.1-0.1-0.1,0-0.1,0C12.7,7.5,12.7,7.5,12.8,7.5
					C12.7,7.5,12.8,7.5,12.8,7.5L12.8,7.5z"/>
				<path class="st24" d="M13,7.7l0-0.1l0.1,0c0,0,0.1,0,0.2,0.1c0.1,0,0.2,0.1,0.2,0.1l0,0l0,0.2l-0.1,0L13,7.7L13,7.7L13,7.7z"/>
				<path class="st10" d="M13.4,7.8l-0.3-0.1l0,0l0-0.1l0,0l0.3,0.1L13.4,7.8L13.4,7.8z"/>
				<path class="st25" d="M13.4,7.8l-0.3-0.1l0,0l0-0.1 M13.1,7.8L13.1,7.8"/>
				<path class="st22" d="M13.6,7.9c0-0.1,0.1-0.1,0.1-0.1c0.1,0,0.1,0.1,0.1,0.2c0,0.1-0.1,0.1-0.2,0.1C13.6,8,13.6,8,13.6,7.9
					L13.6,7.9z"/>
				<path class="st10" d="M13.6,7.9C13.6,7.8,13.6,7.8,13.6,7.9C13.7,7.8,13.7,7.8,13.6,7.9C13.7,7.8,13.7,7.8,13.6,7.9
					c0.1-0.1,0.2,0,0.1,0.1c0,0,0,0,0,0C13.8,8,13.7,8,13.6,7.9C13.7,8,13.6,7.9,13.6,7.9L13.6,7.9z"/>
				<path class="st23" d="M13.6,7.9c0-0.1,0.1-0.1,0.1-0.1c0,0,0.1,0.1,0.1,0.1C13.8,8,13.7,8,13.7,8C13.6,8,13.6,8,13.6,7.9z"/>
				<path class="st27" d="M13,7.7l0-0.2l0.1-0.1c0,0,0.1,0,0.2,0.1c0.1,0,0.2,0.1,0.2,0.1l0,0l0,0.2l-0.1,0.1L13,7.7L13,7.7L13,7.7z
					 M11.7,7.5L11.7,7.5l0.5-0.1l0.1,0.1l0,0.2l-0.1,0.1h-0.4l-0.1-0.1L11.7,7.5L11.7,7.5z M11.1,7.7l0-0.2L11,7.5
					c0,0-0.1,0-0.2,0.1c-0.1,0-0.2,0.1-0.2,0.1l0,0l0,0.2l0.1,0.1L11.1,7.7L11.1,7.7L11.1,7.7z"/>
			</g>
			<g>
				<path class="st28" d="M12.4,3.9c0.1,0,0.1,0.1,0.1,0.1c0,0.1-0.1,0.1-0.1,0.1c-0.1,0-0.2-0.1-0.2,0l0,0l0,0.4c0.1,0-0.4,0-0.3,0
					l0-0.4l0,0c0-0.1-0.1,0-0.2,0c-0.1,0-0.1-0.1-0.1-0.1c0-0.1,0.1-0.1,0.1-0.1c0.1,0,0.1,0.1,0.2,0c0.1,0,0-0.2,0-0.2
					c0-0.1,0.1-0.1,0.1-0.1c0.1,0,0.1,0.1,0.1,0.1c0,0.1-0.1,0.2,0,0.2C12.2,3.9,12.3,3.9,12.4,3.9L12.4,3.9z"/>
				<path class="st10" d="M11.9,3.7C11.9,3.7,11.9,3.7,11.9,3.7c0-0.1,0-0.1,0.1-0.1c0,0,0,0,0.1,0c0,0,0,0-0.1,0
					C12,3.7,12,3.7,11.9,3.7z M12,3.9C12,3.9,12,3.9,12,3.9C12,4,11.9,4,11.8,4c-0.1,0-0.1,0-0.2-0.1c0,0,0.1-0.1,0.1-0.1
					C11.8,3.9,11.9,3.9,12,3.9C12,3.9,12,3.9,12,3.9L12,3.9z M12.1,3.9C12.1,3.9,12.1,3.9,12.1,3.9C12.1,3.9,12.1,3.9,12.1,3.9
					c0.1,0,0.2,0,0.3,0c0,0,0.1,0,0.1,0.1c0,0-0.1,0.1-0.2,0.1C12.2,4,12.1,4,12.1,3.9L12.1,3.9z"/>
				<path class="st26" d="M12.3,3.9c0.1,0,0.1,0.1,0.1,0.1c0,0.1-0.1,0.1-0.1,0.1c-0.1,0-0.2-0.1-0.2,0l0,0l0,0.4c0.1,0-0.3,0-0.2,0
					l0-0.4l0,0c0-0.1-0.2,0-0.2,0c-0.1,0-0.1-0.1-0.1-0.1c0-0.1,0.1-0.1,0.1-0.1c0.1,0,0.2,0.1,0.2,0c0.1,0,0-0.2,0-0.2
					c0-0.1,0.1-0.1,0.1-0.1c0.1,0,0.1,0.1,0.1,0.1c0,0.1-0.1,0.2,0,0.2C12.2,3.9,12.3,3.9,12.3,3.9L12.3,3.9z"/>
				<circle class="st29" cx="12" cy="4.7" r="0.3"/>
				<path d="M12.1,4.9C12.1,4.8,12.1,4.8,12.1,4.9C12.2,4.8,12.2,4.8,12.1,4.9C12.2,4.8,12.2,4.9,12.1,4.9L12.1,4.9z M11.8,4.7
					C11.8,4.7,11.8,4.7,11.8,4.7C11.8,4.7,11.8,4.7,11.8,4.7C11.8,4.6,11.8,4.6,11.8,4.7C11.8,4.6,11.8,4.6,11.8,4.7L11.8,4.7z
					 M11.8,4.7L11.8,4.7C11.8,4.7,11.8,4.7,11.8,4.7C11.9,4.7,11.8,4.7,11.8,4.7C11.8,4.7,11.8,4.7,11.8,4.7
					C11.8,4.7,11.8,4.7,11.8,4.7z M11.8,4.8L11.8,4.8c0.1,0,0.1-0.1,0.1-0.1c0,0,0,0,0,0C11.9,4.7,11.8,4.8,11.8,4.8L11.8,4.8
					L11.8,4.8z M12.2,4.9C12.2,4.8,12.2,4.8,12.2,4.9C12.2,4.8,12.3,4.8,12.2,4.9C12.3,4.8,12.3,4.8,12.2,4.9
					C12.3,4.8,12.2,4.9,12.2,4.9L12.2,4.9z M12,4.9c0-0.1,0.1-0.1,0.1-0.1c0,0,0,0,0,0c0,0,0,0,0,0C12.1,4.8,12.1,4.8,12,4.9
					C12,4.9,12,4.9,12,4.9L12,4.9z M11.9,4.8C11.9,4.8,11.9,4.8,11.9,4.8C12,4.7,12,4.7,12,4.8C12,4.8,11.9,4.8,11.9,4.8L11.9,4.8z"
					/>
				<path class="st30" d="M12.3,5.4H12l-0.2,0c0,0.1-0.2,0.1-0.3,0.1c-0.1,0-0.1-0.1-0.1-0.1s0.2,0,0.2-0.2c0-0.2,0.1-0.3,0.3-0.3
					c0.1,0,0.1,0,0.1,0.1c0,0,0.1-0.1,0.1-0.1c0.1,0,0.3,0.1,0.3,0.3c0,0.2,0.2,0.2,0.2,0.2s0,0.1-0.1,0.1
					C12.5,5.5,12.3,5.4,12.3,5.4L12.3,5.4z"/>
				<path class="st7" d="M12.3,5.4L12.3,5.4c-0.1,0-0.1,0.1-0.2,0.1c-0.1,0-0.2-0.1-0.2-0.1h0c0,0-0.2,0.1-0.3,0
					c0,0-0.1-0.1-0.1-0.1s0.2,0,0.2-0.2c0-0.2,0.1-0.3,0.2-0.3c0.1,0,0.1,0,0.1,0.1c0,0,0.1-0.1,0.1-0.1c0.1,0,0.2,0.1,0.2,0.3
					c0,0.2,0.2,0.2,0.2,0.2s0,0-0.1,0.1C12.5,5.5,12.3,5.4,12.3,5.4L12.3,5.4z"/>
				<path class="st31" d="M11.7,5c0,0,0,0.1,0,0.1s0,0.1-0.1,0.1c0,0-0.1,0.1-0.1,0.1 M12.4,5c0,0,0,0.1,0,0.1s0,0.1,0.1,0.1
					c0,0,0.1,0.1,0.1,0.1"/>
				<path class="st10" d="M12,5.5c-0.3-0.1-0.3-0.2-0.3-0.2C11.8,5.2,11.8,5.4,12,5.5c0.2-0.1,0.3-0.2,0.3-0.2
					C12.3,5.2,12.3,5.4,12,5.5L12,5.5L12,5.5z M11.7,5c0-0.1,0.1-0.1,0.2-0.1c0,0,0.1,0,0.1,0c0,0,0,0,0.1,0c0.1,0,0.2,0.1,0.2,0.1
					c0,0.1-0.2,0.2-0.3,0.2C11.9,5.2,11.7,5.2,11.7,5L11.7,5z"/>
				<path class="st26" d="M12.3,5.4L12.3,5.4c-0.1,0-0.1,0.1-0.2,0.1c-0.1,0-0.2-0.1-0.2-0.1h0c0,0-0.2,0.1-0.3,0
					c0,0-0.1-0.1-0.1-0.1s0.2,0,0.2-0.2c0-0.2,0.1-0.3,0.2-0.3c0.1,0,0.1,0,0.1,0.1c0,0,0.1-0.1,0.1-0.1c0.1,0,0.2,0.1,0.2,0.3
					c0,0.2,0.2,0.2,0.2,0.2s0,0-0.1,0.1C12.5,5.5,12.3,5.4,12.3,5.4L12.3,5.4z"/>
				<path class="st4" d="M12.3,5.2c0,0,0,0.2-0.3,0.3c-0.3-0.1-0.3-0.3-0.3-0.3s0,0.2,0.3,0.2C12.3,5.4,12.3,5.2,12.3,5.2z"/>
			</g>
		</g>
		<g id="shield">
			<path class="st32" d="M12,9.1c0.5,0,2.9-0.4,2.9,2.8c0,3.1-2.8,4.3-2.8,4.3S9.2,15,9.2,11.7C9.2,8.7,12,9.1,12,9.1L12,9.1z"/>
			<path class="st33" d="M12.9,13.9c0.2-0.1,0.4-0.1,0.6-0.1c0.3,0,0.6,0.1,0.8,0.4c-0.8,1.5-2.2,2.1-2.2,2.1s-1.4-0.6-2.2-2.1
				c0.2-0.2,0.5-0.4,0.8-0.4c0.2,0,0.4,0.1,0.6,0.2c0.2-0.2,0.5-0.4,0.8-0.4C12.4,13.6,12.7,13.7,12.9,13.9L12.9,13.9z"/>
			<path class="st34" d="M13.4,13.8c0.1,0,0.4,0.1,0.5,0.3c-0.1,0.2-0.3,0.4-0.4,0.5c-0.2-0.3-0.7-0.8-0.6-0.7c0,0,0,0,0,0
				c0,0,0.1,0,0.1-0.1C13.1,13.8,13.2,13.8,13.4,13.8C13.3,13.8,13.4,13.8,13.4,13.8L13.4,13.8z M12.4,15.8C12.3,15.9,12.1,16,12,16
				c-0.1,0-0.2-0.1-0.4-0.2c-0.3-0.3-1.1-0.9-1.6-1.9c0.2-0.1,0.3-0.1,0.5-0.1c0,0,0.1,0,0.1,0c0.3,0.1,0.7,0.6,0.6,0.7
				c-0.1,0.1-0.4,0-0.4,0.1c0,0,0.6,0.4,0.9,0.6C12.1,15.4,12.5,15.8,12.4,15.8L12.4,15.8z M13.1,15.5c-0.4-0.4-1.2-1.1-1.9-1.6
				c0.2-0.2,0.4-0.3,0.7-0.4l0,0c0.4,0.1,0.7,0.5,0.6,0.6c-0.1,0.1-0.4,0-0.4,0.1c0,0,0.4,0.3,0.6,0.5c0.2,0.2,0.4,0.3,0.6,0.5
				C13.3,15.4,13.2,15.4,13.1,15.5L13.1,15.5z"/>
			<path d="M12.9,13.9C13,14,13,14,13,14c0,0,0,0,0,0C13,14,13,14,12.9,13.9c-0.1-0.1-0.4-0.2-0.5-0.3c0,0,0,0,0,0c0,0,0,0,0,0
				C12.4,13.6,12.7,13.6,12.9,13.9L12.9,13.9z M11.5,14.1C11.5,14.1,11.5,14.1,11.5,14.1C11.5,14.1,11.5,14.1,11.5,14.1
				c-0.2-0.1-0.2-0.1-0.3-0.2c0,0,0,0,0,0c0,0,0,0,0,0c0,0,0,0,0,0C11.4,14,11.4,14,11.5,14.1L11.5,14.1z"/>
			<path class="st35" d="M12.9,13.9c0.2-0.1,0.4-0.2,0.6-0.2c0.3,0,0.6,0.1,0.8,0.4 M9.8,14.1c0.2-0.2,0.5-0.4,0.8-0.4
				c0.2,0,0.4,0.1,0.6,0.2c0.2-0.2,0.5-0.4,0.8-0.4c0.3,0,0.6,0.2,0.8,0.4"/>
			<path class="st36" d="M10.8,9.2h2.7 M10.4,9.4h3.3 M10.2,9.5H14 M10,9.7h4.2 M9.8,9.8h4.4 M9.7,10h4.7 M9.6,10.1h4.9 M9.5,10.3h5
				 M9.5,10.4h5.1 M9.4,10.6h5.3 M9.4,10.7h5.3 M9.3,10.8h5.4 M12.7,11h2 M9.3,11h2 M13.4,11.1h1.4 M9.3,11.1h1.4 M13.7,11.3h1.2
				 M9.3,11.3h1.2 M13.9,11.4h0.9 M9.2,11.4h0.9 M14.2,11.6h0.7 M9.2,11.6h0.7 M14.3,11.7h0.5 M9.2,11.7h0.5 M14.5,11.9h0.3
				 M9.2,11.9h0.3"/>
			<g id="tower1">
				<path d="M10.3,12l0-0.3l0.3-0.1l0.3,0.1l0,0.3H10.3z"/>
				<path class="st0" d="M11,13.3l0.1,0.6c-0.1-0.1-0.3-0.1-0.5-0.1l0-2.3l0.1,0v0.2l0.2,0v-0.2l0.2,0.1V12L11,12.2L11,13.3L11,13.3
					z"/>
				<path class="st37" d="M10.6,13.3v-1.1v-0.2v-0.4l0,0l-0.1,0.1v0.2l-0.2,0.1v-0.2l-0.2,0.1v0.4l0.2,0.2l0,1.1l-0.2,0.6
					c0.1-0.1,0.3-0.1,0.5-0.1v0L10.6,13.3L10.6,13.3z"/>
				<path class="st25" d="M10.6,13.3l-0.3,0.1 M10.2,13.7l0.4-0.1l0.4,0 M10.6,13.4l-0.4,0.1 M11,12.5l-0.3-0.1l-0.3,0.1 M11,12.7
					l-0.3-0.1l-0.3,0.1 M10.3,12.4l0.3-0.1l0.3,0.1 M10.3,12.9l0.3-0.1l0.3,0.1 M10.3,13l0.3-0.1L11,13 M10.3,13.2l0.3-0.1l0.3,0.1
					 M10.8,12.2v0.2 M10.7,12.3v0.2 M10.8,12.5v0.2 M10.5,12.5v0.2 M10.5,12.8V13 M10.4,13v0.1 M10.4,12.4v0.1 M10.5,12.2v0.2
					 M10.6,11.9l0.5,0.1 M10.6,11.9l-0.5,0.2"/>
				<path class="st35" d="M10.6,13.8v-2.3"/>
				<path d="M10.9,13.4l-0.1,0l0-0.5c0-0.1,0-0.1,0.1-0.1c0.1,0,0.1,0.1,0.1,0.1L10.9,13.4z"/>
				<path class="st26" d="M11,13.3l0.1,0.6c-0.1-0.1-0.3-0.1-0.5-0.1c-0.2,0-0.4,0-0.5,0.1l0.2-0.6l0-1.1l-0.2-0.2v-0.4l0.2-0.1v0.2
					l0.2-0.1v-0.2l0.1-0.1l0.1,0v0.2l0.2,0v-0.2l0.2,0.1V12L11,12.2L11,13.3L11,13.3z M11.1,13.8c-0.1-0.1-0.3-0.1-0.4-0.1
					c-0.2,0-0.4,0-0.5,0.1l0.2-0.5l0-1.1c0,0,0,0,0,0l-0.1-0.2v-0.4l0.2-0.1v0.2c0,0,0,0,0,0l0.2-0.1c0,0,0,0,0,0v-0.2l0.1,0l0.1,0
					v0.2c0,0,0,0,0,0l0.2,0c0,0,0,0,0,0v-0.2l0.2,0V12L11,12.2c0,0,0,0,0,0v1.1L11.1,13.8L11.1,13.8z M11.2,13.9
					C11.2,13.9,11.1,13.9,11.2,13.9c-0.2-0.1-0.3-0.1-0.5-0.1c-0.2,0-0.4,0-0.5,0.1c0,0,0,0,0,0l0.2-0.6l0-1.1l-0.1-0.2c0,0,0,0,0,0
					v-0.4c0,0,0,0,0,0l0.2-0.1c0,0,0,0,0,0v0.2l0.1-0.1v-0.2c0,0,0,0,0,0l0.1-0.1c0,0,0,0,0,0l0.1,0c0,0,0,0,0,0v0.2l0.1,0v-0.2
					c0,0,0,0,0,0l0.2,0.1c0,0,0,0,0,0V12c0,0,0,0,0,0L11,12.2v1.1L11.2,13.9L11.2,13.9z M10.6,12.1l0.3,0.1 M10.6,12.1l-0.3,0.1"/>
			</g>
			<g id="tower2">
				<path d="M11.7,11.8l0-0.3l0.3-0.1l0.3,0.1l0,0.3L11.7,11.8z"/>
				<path class="st0" d="M12.4,13.1l0.1,0.5c-0.1,0-0.3-0.1-0.4-0.1c0,0-0.1,0-0.1,0l0-2.3l0.1,0v0.2l0.2,0v-0.2l0.2,0.1v0.4
					L12.4,12L12.4,13.1L12.4,13.1z"/>
				<path class="st37" d="M12,13.6v-0.2V13v-1.1v-0.2v-0.4h0l-0.1,0v0.2l-0.2,0.1v-0.2l-0.2,0.1v0.4l0.2,0.2l0,1.1l-0.2,0.6
					C11.7,13.7,11.8,13.6,12,13.6L12,13.6L12,13.6z"/>
				<path class="st25" d="M12,13.2l-0.3,0.1 M12.4,13.4L12,13.4l-0.4,0.1 M11.8,12.6v0.1 M11.9,12.9v0.2 M11.9,11.9v0.2 M11.8,12.2
					v0.1 M11.9,12.3v0.2 M12.2,12.3v0.2 M12.1,12.1v0.2 M12.2,12v0.2 M11.7,13l0.3-0.1l0.3,0.1 M11.7,12.6l0.3-0.1l0.3,0.1
					 M11.7,12.5l0.3-0.1l0.3,0.1 M11.7,12.3l0.3-0.1l0.3,0.1 M11.7,12.2l0.3-0.1l0.3,0.1 M12.4,12.8L12,12.7l-0.3,0.1 M12,13
					l-0.3,0.1 M12.5,11.8L12,11.7l-0.5,0.2 M12.3,12L12,11.9L11.7,12"/>
				<path class="st35" d="M12,13.6v-2.3"/>
				<path d="M12.3,13.2l-0.1,0l0-0.5c0-0.1,0-0.1,0.1-0.1c0.1,0,0.1,0.1,0.1,0.1L12.3,13.2z"/>
				<path class="st26" d="M12.5,13.6c-0.1,0-0.3-0.1-0.4-0.1c-0.2,0-0.4,0.1-0.6,0.1l0.2-0.6l0-1.1c0,0,0,0,0,0l-0.1-0.2v-0.4
					l0.2-0.1v0.2c0,0,0,0,0,0l0.2-0.1c0,0,0,0,0,0v-0.2l0.1,0l0.1,0v0.2c0,0,0,0,0,0l0.2,0c0,0,0,0,0,0v-0.2l0.2,0.1v0.4L12.4,12
					c0,0,0,0,0,0v1.1L12.5,13.6L12.5,13.6z M12.5,13.7C12.5,13.7,12.5,13.7,12.5,13.7c-0.2,0-0.3-0.1-0.4-0.1
					c-0.2,0-0.4,0.1-0.6,0.2c0,0,0,0,0,0l0.2-0.6l0-1.1l-0.1-0.2c0,0,0,0,0,0v-0.4c0,0,0,0,0,0l0.2-0.1c0,0,0,0,0,0v0.2l0.1,0v-0.2
					c0,0,0,0,0,0l0.1,0c0,0,0,0,0,0l0.1,0c0,0,0,0,0,0v0.2l0.1,0v-0.2c0,0,0,0,0,0l0.2,0.1c0,0,0,0,0,0v0.4c0,0,0,0,0,0L12.4,12v1.1
					L12.5,13.7L12.5,13.7z M12.4,13.1l0.1,0.5c-0.1,0-0.3-0.1-0.4-0.1c-0.2,0-0.4,0.1-0.6,0.2l0.2-0.6l0-1.1l-0.2-0.2v-0.4l0.2-0.1
					v0.2l0.2-0.1v-0.2l0.1,0l0.1,0v0.2l0.2,0v-0.2l0.2,0.1v0.4L12.4,12L12.4,13.1L12.4,13.1z"/>
			</g>
			<g id="tower3">
				<path d="M13.1,12l0-0.3l0.3-0.1l0.3,0.1l0,0.3H13.1z"/>
				<path class="st0" d="M13.8,13.3l0.1,0.5c-0.1-0.1-0.3-0.1-0.4-0.1c0,0,0,0-0.1,0l0-2.3l0.1,0v0.2l0.2,0.1v-0.2l0.2,0.1V12
					l-0.1,0.2V13.3L13.8,13.3z"/>
				<path class="st37" d="M13.4,13.3v-1.1v-0.2v-0.4l-0.1,0v0.2l-0.2,0v-0.2l-0.2,0.1V12l0.2,0.2l0,1.1l-0.2,0.6
					c0.1-0.1,0.3-0.1,0.5-0.1v0L13.4,13.3L13.4,13.3z"/>
				<path class="st25" d="M13,13.7l0.4-0.1l0.4,0.1 M13.4,13.4L13,13.5 M13.3,12.2v0.2 M13.2,12.4v0.1 M13.2,13v0.1 M13.3,12.8V13
					 M13.3,12.5v0.2 M13.6,12.5v0.2 M13.5,12.3v0.2 M13.6,12.2v0.2 M13.1,13.2l0.3-0.1l0.3,0.1 M13.1,12.7l0.3-0.1l0.3,0.1
					 M13.7,12.8l-0.3-0.1l-0.3,0.1 M13.7,12.5l-0.3-0.1l-0.3,0.1 M13.7,12.4l-0.3-0.1l-0.3,0.1 M13.7,12.2l-0.3-0.1l-0.3,0.1
					 M12.9,12l0.5-0.1l0.5,0.1 M13.4,13.3l-0.3,0.1 M13.1,13l0.3-0.1l0.3,0.1"/>
				<path class="st35" d="M13.4,13.8v-2.3"/>
				<path d="M13.6,13.4l-0.1,0l0-0.5c0-0.1,0-0.1,0.1-0.1c0.1,0,0.1,0.1,0.1,0.1L13.6,13.4z"/>
				<path class="st26" d="M13.9,13.8c-0.1,0-0.3-0.1-0.4-0.1c-0.2,0-0.4,0-0.5,0.1l0.2-0.6l0-1.1c0,0,0,0,0,0L12.9,12v-0.4l0.2-0.1
					v0.2c0,0,0,0,0,0l0.2,0c0,0,0,0,0,0v-0.2l0.1,0l0.1,0v0.2c0,0,0,0,0,0l0.2,0.1c0,0,0,0,0,0v-0.2l0.2,0.1V12l-0.1,0.2
					c0,0,0,0,0,0v1.1L13.9,13.8L13.9,13.8z M13.8,13.3l0.1,0.5c-0.1-0.1-0.3-0.1-0.4-0.1c-0.2,0-0.4,0.1-0.5,0.1l0.2-0.6l0-1.1
					L12.9,12v-0.4l0.2-0.1v0.2l0.2,0v-0.2l0.1,0l0.1,0v0.2l0.2,0.1v-0.2l0.2,0.1V12l-0.1,0.2V13.3L13.8,13.3z M13.9,13.8
					C13.9,13.9,13.9,13.8,13.9,13.8c-0.2-0.1-0.3-0.1-0.5-0.1c-0.2,0-0.4,0.1-0.5,0.1c0,0,0,0,0,0l0.2-0.6l0-1.1L12.9,12
					c0,0,0,0,0,0v-0.4c0,0,0,0,0,0l0.2-0.1c0,0,0,0,0,0v0.2l0.1,0v-0.2c0,0,0,0,0,0l0.1,0c0,0,0,0,0,0l0.1,0c0,0,0,0,0,0v0.2l0.1,0
					v-0.2c0,0,0,0,0,0l0.2,0.1c0,0,0,0,0,0V12c0,0,0,0,0,0l-0.1,0.2v1.1L13.9,13.8L13.9,13.8z"/>
			</g>
			<g id="feather">
				<path class="st4" d="M10.8,10.7c0-0.1-0.1-0.3-0.2-0.2c0,0.2,0.2,0.8,0,0.9l0,0c0-0.3-0.3-0.6-0.2-0.9c0-0.2,0.2-0.3,0.3-0.3
					C11,10.2,11.1,10.6,10.8,10.7L10.8,10.7L10.8,10.7z"/>
				<path class="st38" d="M10.8,10.7c0-0.1-0.1-0.3-0.2-0.2l0,0c0,0.2,0.2,0.8,0,0.9c0-0.3-0.3-0.5-0.2-0.9c0-0.1,0.1-0.2,0.2-0.2
					c0,0,0.1,0,0.1,0C11,10.2,11.1,10.5,10.8,10.7L10.8,10.7z"/>
				<path d="M10.4,10.6c0-0.1,0.1-0.1,0.2-0.1c0,0,0,0,0,0l0,0c0,0,0,0,0,0c0,0,0,0,0,0C10.6,10.5,10.5,10.5,10.4,10.6
					C10.4,10.6,10.4,10.6,10.4,10.6L10.4,10.6z"/>
				<path class="st39" d="M10.5,10.6l0.2-0.1 M10.5,10.7l0.2-0.1 M10.5,10.7l0.2-0.1 M10.5,10.8l0.2-0.1 M10.6,10.8l0.1-0.1
					 M10.6,10.9L10.6,10.9"/>
				<path d="M10.8,10.4c-0.1-0.1-0.3-0.1-0.4,0c0,0,0,0,0,0c0,0,0,0,0,0c0,0,0-0.1,0.1-0.1C10.6,10.3,10.8,10.2,10.8,10.4
					C10.9,10.4,10.8,10.4,10.8,10.4C10.8,10.4,10.8,10.4,10.8,10.4L10.8,10.4z"/>
			</g>
			<g>
				<g id="feather_1_">
					<path class="st4" d="M12.2,10.5c0-0.1-0.1-0.3-0.2-0.2c0,0.2,0.2,0.8,0,0.9l0,0c0-0.3-0.3-0.6-0.2-0.9c0-0.2,0.2-0.3,0.3-0.3
						C12.4,10,12.5,10.4,12.2,10.5L12.2,10.5L12.2,10.5z"/>
					<path class="st38" d="M12.3,10.5c0-0.1-0.1-0.3-0.2-0.2l0,0c0,0.2,0.2,0.8,0,0.9c0-0.3-0.3-0.5-0.2-0.9c0-0.1,0.1-0.2,0.2-0.2
						c0,0,0.1,0,0.1,0C12.4,10,12.5,10.3,12.3,10.5L12.3,10.5z"/>
					<path d="M11.8,10.4c0-0.1,0.1-0.1,0.2-0.1c0,0,0,0,0,0l0,0c0,0,0,0,0,0c0,0,0,0,0,0C12,10.3,11.9,10.3,11.8,10.4
						C11.8,10.4,11.8,10.4,11.8,10.4L11.8,10.4z"/>
					<path class="st39" d="M11.9,10.4l0.2-0.1 M11.9,10.4l0.2-0.1 M11.9,10.5l0.2-0.1 M11.9,10.6l0.2-0.1 M12,10.6l0.1-0.1
						 M12.1,10.7L12.1,10.7"/>
					<path d="M12.2,10.2c-0.1-0.1-0.3-0.1-0.4,0c0,0,0,0,0,0c0,0,0,0,0,0c0,0,0-0.1,0.1-0.1C12,10,12.2,10,12.2,10.2
						C12.3,10.2,12.3,10.2,12.2,10.2C12.2,10.2,12.2,10.2,12.2,10.2L12.2,10.2z"/>
				</g>
			</g>
			<g>
				<g id="feather_2_">
					<path class="st4" d="M13.6,10.7c0-0.1-0.1-0.3-0.2-0.2c0,0.2,0.2,0.8,0,0.9l0,0c0-0.3-0.3-0.6-0.2-0.9c0-0.2,0.2-0.3,0.3-0.3
						C13.8,10.2,13.9,10.6,13.6,10.7L13.6,10.7L13.6,10.7z"/>
					<path class="st38" d="M13.7,10.7c0-0.1-0.1-0.3-0.2-0.2l0,0c0,0.2,0.2,0.8,0,0.9c0-0.3-0.3-0.5-0.2-0.9c0-0.1,0.1-0.2,0.2-0.2
						c0,0,0.1,0,0.1,0C13.8,10.2,13.9,10.5,13.7,10.7L13.7,10.7z"/>
					<path d="M13.2,10.6c0-0.1,0.1-0.1,0.2-0.1c0,0,0,0,0,0l0,0c0,0,0,0,0,0c0,0,0,0,0,0C13.4,10.5,13.3,10.5,13.2,10.6
						C13.2,10.6,13.2,10.6,13.2,10.6L13.2,10.6z"/>
					<path class="st39" d="M13.3,10.6l0.2-0.1 M13.3,10.7l0.2-0.1 M13.3,10.7l0.2-0.1 M13.3,10.8l0.2-0.1 M13.4,10.8l0.1-0.1
						 M13.5,10.9L13.5,10.9"/>
					<path d="M13.6,10.4c-0.1-0.1-0.3-0.1-0.4,0c0,0,0,0,0,0c0,0,0,0,0,0c0,0,0-0.1,0.1-0.1C13.4,10.3,13.6,10.2,13.6,10.4
						C13.7,10.4,13.7,10.4,13.6,10.4C13.6,10.4,13.6,10.4,13.6,10.4L13.6,10.4z"/>
				</g>
			</g>
			<g>
				<path class="st4" d="M13.9,9.6c0.1,0.1,0.6,0.3,0.7,1.8c0.1,2.9-2.3,4.5-2.3,4.5s3.1-1.3,3.1-4.5l0,0c0-1.4-0.5-2.8-1.6-2.8
					l-0.6,0L12.3,9c0-0.1-0.1-0.1-0.2-0.1c-0.1,0-0.2,0-0.2,0.1L11,8.6l-0.6,0c-1.1,0-1.6,1.5-1.6,2.8l0,0c0,3.2,3.1,4.5,3.1,4.5
					s-2.4-1.7-2.3-4.5c0.1-1.5,0.5-1.7,0.7-1.8l0.7,0.2l0.9-0.5c0.1,0.1,0.1,0.1,0.2,0.1c0.1,0,0.1,0,0.2-0.1l0.9,0.5L13.9,9.6z"/>
				<path class="st30" d="M13.3,8.6l-1.2,0.5l-1.2-0.5l-0.4,0c-1.1,0-1.6,1.5-1.6,2.8v0c0,3.2,3.1,4.5,3.1,4.5s-2.5-1.7-2.3-4.5
					c0.1-1.5,0.5-1.8,0.7-1.9L11,9.8l1.1-0.6l1.1,0.6l0.8-0.2c0.1,0.1,0.6,0.4,0.7,1.9c0.1,2.9-2.3,4.5-2.3,4.5s3.1-1.3,3.1-4.5l0,0
					c0-1.4-0.5-2.8-1.6-2.8L13.3,8.6z"/>
				<path d="M13.5,9.2c-0.1,0-0.3,0.1-0.3,0.3c0,0.1,0,0.2,0.1,0.3l0,0c-0.1-0.1-0.1-0.2-0.1-0.3C13.2,9.3,13.3,9.1,13.5,9.2
					L13.5,9.2z M10.6,9.1c0.2,0,0.3,0.1,0.3,0.3c0,0.1,0,0.2-0.1,0.3l0,0c0.1-0.1,0.1-0.2,0.1-0.3C10.8,9.3,10.7,9.2,10.6,9.1
					L10.6,9.1z M10.2,9.4C10,9.5,9.8,9.8,9.7,10.1c0,0,0,0,0,0c0,0,0,0,0,0C9.8,9.8,10,9.5,10.2,9.4L10.2,9.4L10.2,9.4z M10.5,8.9
					C10,8.9,9.6,9.3,9.3,10c0,0,0,0,0,0c0,0,0,0,0,0C9.5,9.2,10,8.9,10.5,8.9c0.2,0,0.4,0,0.6,0.1l0,0.1C11,9,10.7,8.9,10.5,8.9
					L10.5,8.9z M10.5,9c-0.5,0-0.8,0.4-1,1c0,0,0,0,0,0c0,0,0,0,0,0C9.6,9.4,10,9,10.5,9c0.2,0,0.5,0,0.6,0.2l0,0.1
					C11,9.1,10.7,9,10.5,9L10.5,9z M11,9.5c-0.1-0.3-0.2-0.4-0.5-0.4c-0.4,0-0.7,0.3-0.9,0.9c0,0,0,0,0,0c0,0,0,0,0,0
					c0.2-0.5,0.5-0.9,0.9-0.9C10.8,9.1,11,9.2,11,9.5L11,9.5L11,9.5z M13.1,9.5L13.1,9.5c0.1-0.3,0.2-0.4,0.5-0.4
					c0.5,0,0.9,0.6,1.1,1.3c0,0,0,0,0,0c0,0,0,0,0,0c-0.2-0.7-0.6-1.2-1-1.2C13.3,9.2,13.2,9.3,13.1,9.5L13.1,9.5z M14.8,10.4
					C14.8,10.4,14.8,10.4,14.8,10.4C14.8,10.4,14.8,10.4,14.8,10.4c-0.2-0.8-0.6-1.4-1.2-1.4c-0.2,0-0.5,0.1-0.6,0.2l0-0.1
					C13.1,9.1,13.3,9,13.6,9C14.2,9,14.6,9.6,14.8,10.4L14.8,10.4z M14.9,10.4C14.9,10.4,14.9,10.5,14.9,10.4
					C14.9,10.5,14.9,10.5,14.9,10.4c-0.2-0.9-0.7-1.5-1.4-1.5c-0.2,0-0.5,0.1-0.6,0.2l0-0.1c0.2-0.1,0.4-0.2,0.6-0.2
					C14.3,8.9,14.8,9.5,14.9,10.4L14.9,10.4z M13.7,9.3c0.4,0,0.7,0.5,0.9,1.1c0,0,0,0,0,0c0,0,0,0,0,0C14.3,9.8,14,9.4,13.7,9.3
					L13.7,9.3L13.7,9.3z"/>
				<path class="st26" d="M12.8,9.6c0,0-0.1-0.2-0.1-0.4 M12.7,9.5c0,0-0.1-0.1-0.1-0.3 M12.6,9.5c0,0-0.1-0.1-0.1-0.3 M12.4,9.4
					c0,0,0-0.1,0-0.2 M11.3,9.6c0,0,0.1-0.2,0.1-0.4 M11.4,9.5c0,0,0.1-0.1,0.1-0.3 M11.6,9.5c0,0,0.1-0.1,0.1-0.3 M11.7,9.4
					c0,0,0-0.1,0-0.2"/>
				<circle class="st7" cx="12.1" cy="9.2" r="0.2"/>
				<path class="st26" d="M11.8,9.1c0-0.1,0.1-0.2,0.2-0.2c0.1,0,0.2,0.1,0.2,0.2 M12.3,9.2c0,0.1-0.1,0.2-0.2,0.2
					c-0.1,0-0.2-0.1-0.2-0.2 M12.1,9.3C12.1,9.3,12.1,9.3,12.1,9.3c-0.2,0-0.2-0.1-0.2-0.1 M12.2,9.3C12.2,9.3,12.2,9.3,12.2,9.3
					 M12.1,9.2C12.1,9.3,12.1,9.3,12.1,9.2C12,9.3,12,9.2,12.1,9.2 M11.9,9.1C11.9,9.1,11.9,9.1,11.9,9.1"/>
				<path class="st26" d="M11.8,9.1c0-0.1,0.1-0.2,0.2-0.2c0.1,0,0.2,0.1,0.2,0.2 M12.3,9.2c0,0.1-0.1,0.2-0.2,0.2
					c-0.1,0-0.2-0.1-0.2-0.2"/>
				<path class="st4" d="M13,9.7c0.1,0.2,0.3,0.3,0.6,0.3c0.3,0,0.5-0.2,0.5-0.5c0-0.2-0.1-0.3-0.4-0.3c-0.2,0-0.3,0.2-0.3,0.3
					c0,0.1,0,0.1,0.1,0.2c-0.2-0.1-0.4-0.2-0.4-0.4c0-0.3,0.2-0.4,0.4-0.5c0.9-0.1,1.5,1,1.6,2.4c0.2,2-0.9,3.7-2.6,4.6
					C12.3,15.9,12.1,16,12,16l0,0.3c0.6-0.2,1.4-0.7,1.8-1.1c0.9-0.8,1.7-2.2,1.6-4C15.4,10,15,9.2,14.6,8.9
					c-0.8-0.7-1.8-0.4-1.8,0.4C12.8,9.4,12.9,9.6,13,9.7L13,9.7z M11.1,9.7C11,9.9,10.8,10,10.6,10C10.3,10,10,9.8,10,9.5
					c0-0.2,0.1-0.3,0.4-0.3c0.2,0,0.3,0.2,0.3,0.3c0,0.1,0,0.1-0.1,0.2C10.8,9.6,11,9.5,11,9.2c0-0.3-0.2-0.4-0.4-0.5
					c-0.9-0.1-1.5,1-1.6,2.4c-0.2,2,0.9,3.7,2.6,4.6C11.8,15.9,12,16,12,16l0,0.3c-0.6-0.2-1.4-0.7-1.8-1.1c-0.9-0.8-1.7-2.2-1.6-4
					C8.7,10,9.1,9.2,9.5,8.9c0.8-0.7,1.8-0.4,1.8,0.4C11.3,9.4,11.2,9.6,11.1,9.7L11.1,9.7z"/>
				<path class="st5" d="M12,16.2c-0.6-0.2-1.4-0.7-1.8-1.2c-0.9-0.8-1.7-2.1-1.5-3.9C8.8,10,9.1,9.3,9.5,8.9
					c0.8-0.7,1.7-0.4,1.7,0.4c0,0.4-0.3,0.7-0.7,0.7c-0.2,0-0.5-0.2-0.5-0.5c0-0.2,0.1-0.3,0.3-0.3c0.2,0,0.3,0.1,0.3,0.3
					c0,0.1-0.1,0.2-0.1,0.2c0.2,0,0.5-0.2,0.5-0.5c0-0.3-0.2-0.5-0.5-0.5c-0.9-0.1-1.5,1-1.6,2.4c-0.1,2,1,3.7,2.6,4.6
					C11.8,15.9,12,16,12,16c0.1,0,0.3-0.1,0.5-0.2c1.7-0.9,2.8-2.6,2.6-4.6c-0.1-1.4-0.7-2.5-1.6-2.4c-0.3,0-0.5,0.2-0.5,0.5
					c0,0.2,0.2,0.5,0.5,0.5c-0.1-0.1-0.1-0.1-0.1-0.2c0-0.2,0.1-0.3,0.3-0.3c0.2,0,0.3,0.1,0.3,0.3c0,0.3-0.2,0.5-0.5,0.5
					c-0.4,0-0.7-0.3-0.7-0.7c0-0.7,1-1,1.7-0.4c0.4,0.4,0.8,1.1,0.9,2.3c0.1,1.8-0.7,3.1-1.5,3.9C13.4,15.5,12.7,16,12,16.2L12,16.2
					z"/>
			</g>
		</g>
		<g id="laurel">
			<path class="st4" d="M8.2,14.3c0,0-0.1-0.1-0.2-0.1c-0.1-0.1-0.3-0.3-0.6-0.5c-0.4-0.2-0.8-0.2-1.1-0.3c0.1,0.4,0.3,0.7,0.7,0.9
				c0.3,0.1,0.9,0,0.9,0C8,14.3,8.2,14.4,8.2,14.3L8.2,14.3L8.2,14.3z"/>
			<path class="st4" d="M6.8,14.7L6.8,14.7c0.2,0,0.4-0.1,0.6-0.1c0.5-0.1,0.7,0,1,0.2c0,0,0.1,0,0.1,0c0.1,0,0.1,0,0.2,0l0,0
				l0.1,0.1c0,0,0,0,0,0c-0.1,0-0.2,0-0.3,0c-0.1,0-0.4,0.3-0.7,0.3C7.3,15.2,7,15,6.8,14.7L6.8,14.7z"/>
			<path class="st40" d="M8.7,14.9c-0.1,0-0.1,0-0.2,0c-0.2,0-0.4,0.3-0.7,0.3c-0.4,0-0.7-0.2-1-0.5c0.4-0.1,0.7-0.3,1.2-0.2
				C8.2,14.7,8.5,14.9,8.7,14.9L8.7,14.9L8.7,14.9z"/>
			<path class="st41" d="M8.5,14.9c0,0-0.4,0.1-0.6,0.1c-0.4,0-0.9-0.2-0.9-0.2S7.5,15,7.9,15C8.1,15,8.5,14.9,8.5,14.9L8.5,14.9
				L8.5,14.9z"/>
			<path class="st23" d="M7.4,10.5C7.5,10.5,7.4,10.5,7.4,10.5C7.4,10.4,7.4,10.4,7.4,10.5c0-0.1-0.1-0.1-0.1-0.2c0,0,0,0,0-0.1
				l0.1,0c0,0,0,0.1,0,0.1c0,0,0,0,0,0c0,0,0,0,0,0C7.5,10.4,7.5,10.4,7.4,10.5L7.4,10.5C7.5,10.5,7.4,10.5,7.4,10.5L7.4,10.5z"/>
			<path class="st42" d="M9.6,15.5C9.6,15.4,9.6,15.5,9.6,15.5C9.7,15.5,9.7,15.5,9.6,15.5C9.6,15.6,9.6,15.6,9.6,15.5
				C9.5,15.6,9.5,15.6,9.6,15.5L9.6,15.5z"/>
			<path class="st4" d="M7.6,10.2c-0.2,0.6-0.3,1.7-0.2,2.2c0.3,1.5,1.5,2.9,2.6,3.1c1,0.2,1.6,0.6,2,1.1c0.3,0.3,0.4,0.4,0.8,1.1
				c0.1,0.2-0.1,0.3-0.2,0.1c-0.3-0.5-0.4-0.7-0.8-1.1c-0.4-0.4-0.9-0.8-1.9-1c-1.1-0.2-2.4-1.6-2.6-3.1C7.2,12,7.3,10.8,7.6,10.2
				L7.6,10.2"/>
			<path class="st4" d="M9.3,15.5c-0.2,0-0.3,0.3-0.5,0.4C8.5,16.2,8,16.2,7.7,16c0,0,0,0,0,0c0.4-0.1,0.5-0.6,1.3-0.6
				C9,15.4,9.1,15.4,9.3,15.5L9.3,15.5L9.3,15.5z"/>
			<path class="st4" d="M8.6,12.9L8.6,12.9c0,0.2,0.2,0.6,0.2,0.9c0,0.2,0,0.4-0.1,0.6c0,0.1-0.1,0.2-0.1,0.2c0,0,0,0.1,0.1,0.1
				c0,0,0.1,0.1,0.1,0.1c-0.2-0.2-0.1-0.1-0.2-0.2c0-0.1-0.1-0.2-0.2-0.3C8.2,13.9,8.2,13.3,8.6,12.9L8.6,12.9z"/>
			<path class="st4" d="M10.2,15.6c-0.1,0-0.2-0.1-0.3-0.2c-0.1-0.2-0.1-0.3-0.2-0.5c-0.2-0.4-0.6-0.4-0.8-0.7
				c0,0.3-0.1,0.8,0.4,1.1c0.2,0.1,0.4,0.1,0.5,0.2c0.1,0,0.1,0.1,0.1,0.1L10.2,15.6L10.2,15.6z"/>
			<path class="st40" d="M10,15.5c0,0-0.1-0.1-0.1-0.1c-0.1-0.1-0.3-0.1-0.5-0.2C9.2,15,9.1,14.9,9,14.6c0-0.2,0-0.3,0-0.4
				c0.2,0.3,0.6,0.3,0.8,0.7C9.9,15.1,9.9,15.4,10,15.5L10,15.5L10,15.5z"/>
			<path class="st42" d="M8.1,13.9C8.1,13.9,8.1,13.9,8.1,13.9c0,0.1,0,0.2,0,0.1C8.1,14,8.1,13.9,8.1,13.9L8.1,13.9L8.1,13.9z"/>
			<path class="st40" d="M8.2,14.3c0,0-0.1,0-0.2-0.1c-0.1-0.1-0.3-0.3-0.6-0.5c-0.4-0.2-0.7-0.2-1.1-0.3c0.1,0.4,0.3,0.6,0.7,0.8
				c0.3,0.1,0.9,0,0.9,0C8,14.3,8.2,14.4,8.2,14.3L8.2,14.3L8.2,14.3z"/>
			<path class="st43" d="M8.7,14.7c0-0.1-0.1-0.3-0.2-0.4c-0.1-0.2-0.1-0.3-0.2-0.5c0-0.4,0-0.6,0.3-0.9c0,0.1,0,0.1,0,0.2
				c0.1,0.3,0.3,0.6,0.2,0.9c0,0.2-0.2,0.4-0.2,0.5C8.7,14.7,8.7,14.7,8.7,14.7L8.7,14.7L8.7,14.7z"/>
			<path class="st4" d="M7.7,13.7c-0.3-0.4-0.9-0.2-1.3-0.6c-0.2-0.2-0.3-0.5-0.3-0.7c0-0.1,0-0.4,0-0.4c0,0,0,0,0,0
				c0.1,0.1,0.3,0.2,0.4,0.3c0.4,0.3,0.5,0.5,0.7,0.9C7.5,13.7,7.7,13.4,7.7,13.7L7.7,13.7z"/>
			<path class="st41" d="M8.6,13.1c0,0-0.1,0.4-0.1,0.7c0,0.3,0.1,0.7,0.1,0.7h0c0,0-0.1-0.4-0.1-0.7C8.5,13.5,8.6,13.1,8.6,13.1
				L8.6,13.1z"/>
			<path class="st40" d="M7.3,13.4c-0.1,0-0.3-0.1-0.5-0.1c-0.2,0-0.3-0.1-0.4-0.2c-0.2-0.2-0.3-0.4-0.3-0.7c0-0.1,0-0.3,0-0.4
				c0,0,0,0.1,0.1,0.1c0.1,0.1,0.3,0.2,0.4,0.2c0.1,0.1,0.2,0.1,0.3,0.2C7,12.7,7.1,12.8,7.1,13C7.2,13.1,7.3,13.2,7.3,13.4
				L7.3,13.4z"/>
			<path class="st44" d="M7.4,13.3c0,0.1,0.2,0.1,0.3,0.1l0.1,0.2v0C7.6,13.5,7.5,13.5,7.4,13.3L7.4,13.3z"/>
			<circle class="st30" cx="6.9" cy="12.2" r="0.2"/>
			<path class="st10" d="M7,12C7,12,7,12.1,7,12c0,0.1,0,0.2,0.1,0.2c0,0,0,0,0,0c0,0,0,0,0,0C7.1,12.1,7,12,7,12z"/>
			<circle class="st35" cx="6.9" cy="12.2" r="0.2"/>
			<path class="st4" d="M7.5,12.1c0,0,0.1-0.3,0.2-0.5c0.2-0.4,0.5-0.5,0.7-0.8c0.1,0.2,0.2,0.5,0,0.9c-0.2,0.4-0.7,0.6-0.7,0.6
				L7.5,12.1L7.5,12.1z"/>
			<path class="st43" d="M8.3,10.9c0.2,0.6-0.1,1.1-0.7,1.4l-0.2-0.2c0.1-0.4,0.2-0.6,0.5-0.9C8.1,11.1,8.2,11,8.3,10.9L8.3,10.9z"
				/>
			<path class="st44" d="M7.6,10.2c-0.2,0.6-0.3,1.7-0.2,2.2c0.3,1.5,1.5,2.9,2.6,3.2c1,0.2,1.6,0.6,2,1.1c0.2,0.2,0.3,0.4,0.5,0.6
				c0.1,0.2,0.2,0.4,0.3,0.5c0,0-0.1,0.1-0.1,0.1c-0.1-0.2-0.2-0.4-0.3-0.5c-0.1-0.2-0.3-0.4-0.5-0.6c-0.4-0.5-0.9-0.8-1.9-1
				c-1.1-0.2-2.4-1.6-2.6-3.1C7.2,12,7.3,10.9,7.6,10.2L7.6,10.2L7.6,10.2z"/>
			<path class="st4" d="M7.5,13.2c0,0-0.1-0.1-0.2-0.1c-0.4-0.5-0.3-1.3,0.2-1.6c0,0,0,0,0,0c0,0.2,0,0.3,0.1,0.5
				c0.1,0.4,0.2,0.6,0,1c-0.1,0.2,0,0.4,0,0.4L7.5,13.2L7.5,13.2z"/>
			<path class="st45" d="M9,15.1c-0.3-0.1-0.6-0.1-0.8-0.3c-0.3-0.3-0.3-0.7-0.3-1c0,0,0,0,0,0C8.1,13.9,8.1,14,8.2,14
				c0.3,0.2,0.6,0.3,0.7,0.6c0,0.1,0,0.1,0.1,0.2c0.1,0.2,0.2,0.3,0.4,0.4L9,15.1z"/>
			<path class="st40" d="M9.3,15.3c-0.3-0.2-0.7-0.1-1-0.4C8,14.6,8,14.2,8,13.9c0.3,0.2,0.5,0.3,0.8,0.5C9,14.8,8.8,15,9.3,15.3
				L9.3,15.3L9.3,15.3z"/>
			<path class="st4" d="M7.9,13.7L7.9,13.7c0.1-0.1,0-0.3,0-0.4c0-0.2,0-0.3,0-0.5c0-0.2,0.1-0.4,0.2-0.5c0-0.1,0.2-0.3,0.2-0.4
				c0,0,0,0,0,0c0.1,0.1,0.1,0.3,0.1,0.4c0,0.2,0,0.4,0,0.6c-0.1,0.2-0.1,0.3-0.3,0.5C8.1,13.4,8,13.5,7.9,13.7
				c0.1,0,0.1,0.1,0.1,0.1L7.9,13.7L7.9,13.7z"/>
			<path class="st46" d="M7.4,11.1C7.4,11.1,7.4,11.1,7.4,11.1c0.1,0,0.1-0.1,0.1-0.1c0-0.1,0.1-0.5,0.3-0.7
				c0.2-0.3,0.4-0.4,0.7-0.7c0,0.2,0,0.6-0.2,1C8.2,10.8,7.7,11,7.7,11C7.6,11.1,7.5,11.1,7.4,11.1c0,0.1,0,0.2,0,0.2L7.4,11.1
				L7.4,11.1z"/>
			<path class="st4" d="M7.4,11.1C7.4,11.1,7.3,11.1,7.4,11.1c-0.1-0.1-0.1-0.1-0.1-0.2c0-0.1,0.1-0.5,0.1-0.8C7.2,9.6,7,9.4,7,9.2
				c0-0.1-0.5,0.6-0.3,1.1c0.1,0.3,0.4,0.6,0.5,0.7C7.2,11,7.3,11.1,7.4,11.1c0,0.1-0.1,0.2-0.1,0.2L7.4,11.1L7.4,11.1z"/>
			<path class="st4" d="M7.6,10.2c0-0.1,0.1-0.2,0.1-0.2c0.1-0.1,0.5-0.4,0.6-0.5c0.3-0.4,0.2-0.9,0.2-1C8.3,8.7,8.1,8.8,7.9,9.1
				C7.7,9.4,7.6,9.9,7.6,10C7.6,10.1,7.5,10.3,7.6,10.2L7.6,10.2L7.6,10.2z"/>
			<path class="st47" d="M7.4,11.2L7.4,11.2C7.5,11.1,7.6,11,7.6,11c0.1-0.3,0.2-0.5,0.3-0.7c0.2-0.3,0.4-0.4,0.6-0.6
				c0,0.3,0.1,0.6-0.2,0.9c-0.1,0.2-0.5,0.4-0.7,0.5C7.6,11.1,7.5,11.1,7.4,11.2L7.4,11.2z"/>
			<path class="st4" d="M6.5,10.7c0.3,0.3,0.4,0.4,0.5,0.9c0,0.1,0.1,0.3,0.1,0.3c0,0.1,0.1,0.1,0.1,0.1c0,0,0,0.1,0,0.1
				c0,0,0,0,0,0c-0.1,0-0.1-0.1-0.1-0.2c-0.1,0-0.2-0.1-0.3-0.1c-0.2-0.1-0.4-0.2-0.5-0.4c-0.2-0.2-0.2-0.6-0.1-0.8
				c0-0.1,0-0.1,0-0.2c0,0,0,0,0,0C6.4,10.5,6.4,10.6,6.5,10.7L6.5,10.7z"/>
			<path class="st40" d="M7.3,12L7.3,12c-0.2-0.1-0.2-0.1-0.4-0.2c-0.2-0.1-0.4-0.2-0.5-0.4c-0.2-0.3-0.2-0.6-0.1-0.9
				c0.1,0.2,0.4,0.4,0.6,0.6C6.9,11.2,7,11.3,7,11.5c0,0.1,0,0.2,0.1,0.3C7.1,11.9,7.2,11.9,7.3,12L7.3,12z"/>
			<path class="st40" d="M7.9,13.7c0.1-0.1,0-0.3,0-0.4c0-0.2,0-0.3,0-0.5c0-0.3,0.2-0.4,0.4-0.7c0,0,0.1-0.1,0.1-0.1
				c0.2,0.5,0.2,1-0.2,1.4C8.1,13.4,8,13.5,7.9,13.7C7.9,13.6,7.9,13.7,7.9,13.7L7.9,13.7L7.9,13.7z"/>
			<path class="st44" d="M9.3,15.4c0,0,0,0-0.1,0L9.3,15.4C9.2,15.5,9.3,15.5,9.3,15.4c0.1,0.1,0.1,0.1,0.1,0.1"/>
			<path class="st43" d="M9.2,15.4c-0.1,0-0.4-0.1-0.7,0C8.2,15.5,8,15.9,7.7,16c0.4,0.2,0.7,0.1,1.1-0.1C9,15.7,9.1,15.5,9.2,15.4
				L9.2,15.4z"/>
			<path class="st26" d="M12.3,17.2C12.3,17.2,12.3,17.1,12.3,17.2c0.1-0.1,0.2-0.1,0.2-0.1"/>
			<path class="st48" d="M9.7,15.5C9.7,15.5,9.6,15.5,9.7,15.5c-0.1,0-0.1,0.1-0.1,0.1l0,0C9.6,15.6,9.6,15.5,9.7,15.5
				C9.6,15.5,9.6,15.5,9.7,15.5L9.7,15.5L9.7,15.5z"/>
			<path class="st34" d="M7.6,10.2C7.6,10,7.6,9.8,7.7,9.6c0.1-0.4,0.2-0.6,0.5-0.8c0.1-0.1,0.2-0.2,0.3-0.2c0,0.1,0,0.2,0,0.3
				C8.4,9.5,8.2,9.6,7.8,10C7.7,10.1,7.6,10.2,7.6,10.2L7.6,10.2z"/>
			<path class="st49" d="M7.6,10.2C7.6,10.2,7.6,10.1,7.6,10.2C7.6,10.1,7.6,10.2,7.6,10.2C7.6,10.2,7.6,10.2,7.6,10.2
				C7.6,10.2,7.6,10.2,7.6,10.2L7.6,10.2z"/>
			<path class="st26" d="M7.6,10.2C7.6,10,7.6,9.8,7.7,9.6c0.1-0.4,0.2-0.6,0.5-0.8c0.1-0.1,0.2-0.2,0.3-0.2c0,0.1,0,0.2,0,0.3
				C8.4,9.5,8.2,9.6,7.8,10C7.7,10.1,7.6,10.2,7.6,10.2L7.6,10.2z"/>
			<path d="M7.6,10.2c0,0,0,0,0-0.1C7.7,10.1,7.7,10.1,7.6,10.2L7.6,10.2L7.6,10.2L7.6,10.2z"/>
			<path class="st34" d="M7.3,11.1L7.3,11.1c0,0-0.1-0.1-0.2-0.2c-0.4-0.4-0.6-0.8-0.4-1.3C6.8,9.5,6.9,9.4,7,9.3
				c0.1,0.1,0.1,0.2,0.2,0.4c0.1,0.4,0.2,0.6,0.1,1C7.3,10.8,7.2,11,7.3,11.1C7.3,11.1,7.3,11.1,7.3,11.1L7.3,11.1z"/>
			<path class="st26" d="M7.3,11.1L7.3,11.1c0,0-0.1-0.1-0.2-0.2c-0.4-0.4-0.6-0.8-0.4-1.3C6.8,9.5,6.9,9.4,7,9.3
				c0.1,0.1,0.1,0.2,0.2,0.4c0.1,0.4,0.2,0.6,0.1,1C7.3,10.8,7.2,11,7.3,11.1C7.3,11.1,7.3,11.1,7.3,11.1L7.3,11.1z"/>
			<path class="st49" d="M7.3,11.4c0,0,0-0.1,0-0.2c0,0,0-0.1,0-0.1s0,0,0.1,0C7.4,11.2,7.3,11.4,7.3,11.4L7.3,11.4z"/>
			<path class="st49" d="M7.5,10.4c0,0-0.1-0.1-0.1-0.2c0-0.1,0,0,0,0c0,0.1,0.1,0.2,0.1,0.3C7.5,10.5,7.5,10.4,7.5,10.4L7.5,10.4z"
				/>
			<path class="st23" d="M7.5,10.4c0,0-0.1-0.1-0.1-0.2c0-0.1,0,0,0,0C7.4,10.4,7.5,10.4,7.5,10.4"/>
			<circle class="st7" cx="7.3" cy="10.1" r="0.2"/>
			<path class="st10" d="M7.3,10.1c0,0-0.1-0.1,0-0.1c0,0,0.1,0,0.1,0c0,0,0.1,0.1,0,0.1C7.4,10.2,7.4,10.2,7.3,10.1L7.3,10.1z"/>
			<circle class="st50" cx="7.3" cy="10.1" r="0.2"/>
			<circle class="st7" cx="8.2" cy="13.8" r="0.2"/>
			<path class="st10" d="M8.2,13.7c0-0.1,0-0.1,0-0.1c0,0,0.1,0,0.1,0c0,0.1,0,0.1,0,0.1C8.3,13.8,8.2,13.8,8.2,13.7z"/>
			<circle class="st51" cx="8.2" cy="13.8" r="0.2"/>
			<path class="st26" d="M12.3,17.3C12.3,17.3,12.3,17.2,12.3,17.3c0.1-0.1,0.2,0,0.2,0 M12.8,17.8c-0.1,0-0.2-0.1-0.2-0.2
				c0,0,0.1,0,0.1,0C12.8,17.7,12.8,17.8,12.8,17.8L12.8,17.8z"/>
			<path class="st49" d="M12.8,17.8c-0.1,0-0.2-0.1-0.2-0.1c0,0,0.1,0,0.1,0C12.8,17.7,12.8,17.8,12.8,17.8z"/>
			<path class="st26" d="M12.8,17.8c-0.1,0-0.2-0.1-0.2-0.1c0,0,0.1,0,0.1,0C12.8,17.7,12.8,17.8,12.8,17.8z"/>
			<path class="st41" d="M7.6,10.2c0.1-0.4,0.2-0.6,0.4-1C8.1,9,8.4,8.7,8.4,8.7S8.1,9,8,9.3C7.8,9.6,7.8,9.8,7.6,10.2L7.6,10.2
				L7.6,10.2z"/>
			<path class="st41" d="M7,9.4c0,0,0,0.6,0,0.9c0.1,0.3,0.3,0.8,0.3,0.8s0,0-0.1-0.2c-0.1-0.2-0.2-0.4-0.2-0.6C7,10,7,9.4,7,9.4
				L7,9.4z"/>
			<path class="st41" d="M6.4,10.9c0,0,0.1,0.2,0.1,0.3c0.2,0.3,0.3,0.5,0.6,0.7l0,0c-0.3-0.2-0.4-0.4-0.6-0.7
				C6.5,11.1,6.4,10.9,6.4,10.9L6.4,10.9z"/>
			<path class="st41" d="M7.5,11.1c0,0,0.4-0.3,0.6-0.6c0.2-0.2,0.4-0.6,0.4-0.6s-0.2,0.4-0.3,0.7C7.9,10.7,7.6,11.1,7.5,11.1
				L7.5,11.1z"/>
			<path class="st41" d="M7.9,13.7C8,13.5,8.1,13.3,8.1,13c0.1-0.3,0.2-0.5,0.2-0.9c0,0.4,0,0.5-0.1,0.8C8.1,13.2,8,13.5,7.9,13.7
				L7.9,13.7L7.9,13.7z"/>
			<path class="st41" d="M7.7,12c0,0,0.3-0.2,0.4-0.5C8.2,11.3,8.3,11,8.3,11s0,0.2-0.2,0.5C8,11.8,7.7,12,7.7,12L7.7,12L7.7,12z"/>
			<path class="st41" d="M7.4,13.4c0,0-0.2-0.2-0.4-0.3c-0.5-0.4-0.8-1-0.8-1s0.3,0.6,0.8,1C7.1,13.3,7.4,13.4,7.4,13.4L7.4,13.4
				L7.4,13.4z"/>
			<path class="st26" d="M7.4,13.4C7.4,13.4,7.3,13.4,7.4,13.4"/>
			<path class="st41" d="M9.2,15.2C9,15,8.7,14.8,8.4,14.5c-0.1-0.1-0.2-0.3-0.2-0.3s0.1,0.2,0.2,0.3C8.6,14.8,9,15,9.2,15.2
				L9.2,15.2L9.2,15.2z"/>
			<path class="st41" d="M10,15.4c0,0-0.4-0.3-0.6-0.6c-0.1-0.1-0.2-0.2-0.2-0.4c0.1,0.2,0.1,0.2,0.3,0.4C9.6,15.1,10,15.4,10,15.4
				L10,15.4L10,15.4z"/>
			<path class="st41" d="M7.9,16c0.6-0.1,0.9-0.4,1.4-0.5c-0.1,0,0,0-0.1,0C8.7,15.5,8.4,15.9,7.9,16L7.9,16z"/>
			<circle class="st7" cx="8.7" cy="15.3" r="0.2"/>
			<path class="st10" d="M8.8,15.2C8.8,15.2,8.8,15.2,8.8,15.2c0,0.1-0.1,0.1-0.2,0c-0.1,0-0.1-0.1-0.1-0.1c0,0,0,0,0,0c0,0,0,0,0,0
				C8.7,15.1,8.8,15.1,8.8,15.2L8.8,15.2z"/>
			<circle class="st52" cx="8.7" cy="15.3" r="0.2"/>
			<path class="st49" d="M9.3,15.3C9.3,15.3,9.3,15.4,9.3,15.3C9.3,15.4,9.3,15.4,9.3,15.3C9.3,15.4,9.3,15.4,9.3,15.3
				c0.1,0.1,0.1,0.1,0.1,0.1c0,0,0.1,0,0.1,0c0,0,0.1,0,0.1,0l-0.1-0.1L9.3,15.3L9.3,15.3z"/>
			<path class="st41" d="M8,14.3c0,0-0.3-0.1-0.8-0.3c-0.4-0.2-0.7-0.4-0.7-0.4s0.3,0.2,0.7,0.4C7.6,14.2,8,14.2,8,14.3L8,14.3
				L8,14.3z"/>
			<circle class="st53" cx="9.4" cy="15.8" r="0.2"/>
			<path class="st10" d="M9.6,15.9c-0.1,0-0.1,0-0.2-0.1c0-0.1,0-0.2,0-0.2l0,0c0,0,0,0,0,0c0.1,0,0.2,0.1,0.2,0.2
				C9.6,15.8,9.6,15.9,9.6,15.9L9.6,15.9z"/>
			<circle class="st26" cx="9.4" cy="15.8" r="0.2"/>
			<path class="st49" d="M7.6,13.3c0,0,0,0.1,0,0.1c0,0,0,0.1,0,0.1s0,0,0,0C7.7,13.5,7.6,13.3,7.6,13.3L7.6,13.3L7.6,13.3z"/>
			<path class="st34" d="M7.6,13.3c-0.1-0.1-0.2-0.2-0.3-0.3c-0.1-0.1-0.2-0.3-0.3-0.5c-0.1-0.5,0.1-0.8,0.4-1.1
				c0,0.3,0.2,0.6,0.2,0.9C7.8,12.8,7.5,12.9,7.6,13.3L7.6,13.3L7.6,13.3z"/>
			<path class="st49" d="M7.6,13.2C7.6,13.2,7.6,13.2,7.6,13.2C7.6,13.3,7.6,13.3,7.6,13.2l0.1,0.1L7.6,13.2L7.6,13.2L7.6,13.2z"/>
			<path class="st26" d="M7.6,13.3c-0.1-0.1-0.2-0.2-0.3-0.3c-0.1-0.1-0.2-0.3-0.3-0.5c-0.1-0.5,0.1-0.8,0.4-1.1
				c0,0.3,0.2,0.6,0.2,0.9C7.8,12.8,7.5,12.9,7.6,13.3"/>
			<path class="st41" d="M7.6,13.2c-0.1-0.2-0.2-0.3-0.2-0.5c-0.1-0.4-0.1-0.9,0-1c-0.1,0.2-0.1,0.6,0,1C7.4,12.9,7.5,13.1,7.6,13.2
				L7.6,13.2L7.6,13.2z"/>
			<path class="st26" d="M7.6,13.3C7.6,13.3,7.6,13.2,7.6,13.3"/>
		</g>
		<g id="oak">
			<path class="st42" d="M16.6,10.3C16.6,10.3,16.6,10.3,16.6,10.3C16.6,10.3,16.6,10.3,16.6,10.3c0-0.1,0-0.1,0.1-0.2l0.1,0
				c-0.1,0.2-0.1,0.3-0.1,0.3c0,0,0,0,0,0L16.6,10.3L16.6,10.3z"/>
			<path class="st4" d="M16.8,11c0.1,0,0.1-0.1,0.1-0.2c0-0.1-0.1-0.2-0.1-0.3c0-0.1,0.1-0.1,0.1-0.1c0,0-0.2-0.2-0.1-0.3
				c0-0.1,0.1,0,0.1-0.1c0-0.1-0.1-0.2,0.1-0.3c0.1,0,0.1,0,0.2-0.1c0-0.1,0-0.2,0.1-0.3c0.2,0,0.2,0.3,0.2,0.3c0,0,0.1,0,0.1,0
				c0.1,0,0,0.3,0,0.3c0.3,0,0,0.2,0,0.3c0,0,0.1,0,0.1,0.1c0,0,0,0.1,0,0.1c-0.1,0.1-0.2,0.1-0.2,0.1l0,0c0,0,0.1,0.1,0,0.1
				C17,10.8,16.9,10.8,16.8,11c0,0.1,0,0.2,0,0.2L16.8,11L16.8,11z"/>
			<path class="st40" d="M16.8,11.2l0-0.1c0,0,0,0,0,0c0,0,0.1-0.1,0.1-0.2c0-0.1-0.1-0.2-0.1-0.3c0,0,0.1-0.1,0.1-0.1
				c0-0.1-0.1-0.2-0.1-0.3c0-0.1,0.1,0,0.1-0.1c0-0.1,0-0.2,0-0.3c0.1,0,0.1,0,0.2-0.1c0-0.1,0-0.2,0.1-0.2c0.1,0,0.2,0.3,0.2,0.3
				c0,0,0.1,0,0.1,0c0.1,0,0,0.1,0,0.2c0,0.1,0,0.1-0.1,0.2c0,0,0,0,0,0c0,0,0.1,0,0.1,0.1c0,0.1-0.1,0.1-0.1,0.2
				c0,0,0.1,0.1,0.1,0.1c0,0.1-0.2,0.2-0.3,0.2c0,0.1,0.1,0.1,0,0.1C17,10.8,16.8,10.9,16.8,11.2L16.8,11.2z"/>
			<path class="st41" d="M16.8,11c0,0,0.3-0.5,0.3-0.8c0.1-0.2,0.1-0.6,0.1-0.6s0,0.4-0.1,0.6C17.1,10.6,16.8,11.1,16.8,11L16.8,11
				L16.8,11z"/>
			<path class="st42" d="M16.8,11.5C16.8,11.5,16.8,11.5,16.8,11.5C16.8,11.5,16.9,11.4,16.8,11.5c0.1-0.1,0.1-0.1,0.1-0.1
				c0,0,0,0,0,0c0,0,0,0,0,0l0.1,0c0,0,0,0,0,0c0,0-0.1,0-0.1,0.1c-0.1,0.1-0.1,0.1-0.1,0.2c0,0,0,0,0,0L16.8,11.5L16.8,11.5z"/>
			<path class="st48" d="M16.8,11.6c0-0.1,0-0.1,0.1-0.2c0,0,0.1-0.1,0.1-0.1l-0.1,0c0,0,0,0,0,0.1c0,0-0.1,0.1-0.1,0.1L16.8,11.6
				L16.8,11.6z"/>
			<path class="st4" d="M16.5,9.9c0,0,0.1,0.2,0.2,0.5c0.2,0.7,0.2,1.6,0.1,2.1c-0.3,1.5-1.6,2.9-2.7,3.1c-0.9,0.2-1.5,0.6-1.9,1
				c-0.3,0.3-0.4,0.6-0.7,1.1c-0.1,0.2-0.4,0.2-0.2,0c0.2-0.4,0.4-0.7,0.7-1.1c0.4-0.5,1-0.9,2-1.1c1.1-0.2,2.4-1.6,2.7-3.1
				c0.1-0.5,0.1-1.6-0.2-2.2L16.5,9.9"/>
			<path class="st54" d="M15.9,9.6c0,0-0.3,0-0.2-0.3c-0.1-0.1-0.3-0.2-0.1-0.3c0,0-0.1-0.1-0.1-0.2c0,0,0.1-0.1,0.1-0.1
				c0,0-0.2-0.2-0.1-0.3c0.1-0.1,0.2,0,0.3,0.1c0,0,0,0,0.1,0C16,8.5,16,8.6,16,8.7c0,0,0.1,0,0.2,0c0.1,0.1,0.1,0.2,0.1,0.3
				c0,0,0.1,0,0.1,0c0.2,0,0.1,0.3,0.1,0.4c0.3,0,0.1,0.2,0.1,0.5c0,0.1,0,0.2-0.1,0.2C16.3,9.7,15.8,9.8,15.9,9.6L15.9,9.6z"/>
			<path class="st55" d="M15.9,10.6c-0.1,0-0.2,0-0.2-0.1c0-0.1,0.1-0.1,0.1-0.1c0,0-0.2-0.1-0.2-0.1c0,0,0.1-0.1,0.1-0.1
				c0-0.1-0.1-0.1-0.1-0.2c0.1-0.1,0.2,0,0.2,0c0,0,0.1-0.1,0.1-0.1c0.1,0,0.1,0.1,0.1,0.1c0,0,0,0,0.1-0.1c0.1,0,0.1,0.1,0.1,0.1
				c0,0.1,0.1,0,0.2,0c0.2,0.1,0.1,0.4,0.1,0.4c0,0,0.1,0,0.1,0.1c0,0.1,0,0.2,0,0.3c0,0.1,0.2,0.2,0.2,0.2s0,0.2,0,0.1
				c-0.1-0.1-0.1-0.2-0.2-0.3c-0.1-0.1-0.3,0-0.4-0.1c0-0.1,0-0.1,0-0.1c0,0-0.2,0-0.2,0C15.9,10.8,15.8,10.7,15.9,10.6L15.9,10.6z"
				/>
			<path class="st56" d="M16.8,11.1L16.8,11.1c-0.3-0.3-0.5-0.1-0.5-0.2c0,0,0-0.1,0-0.1c0,0-0.3,0-0.3-0.1c0,0,0-0.1,0-0.1
				c-0.1,0-0.1,0-0.2-0.1c0,0,0-0.1,0-0.1c0,0,0,0,0,0c0-0.1-0.2-0.1-0.2-0.2c0,0,0.1-0.1,0-0.1c0,0-0.1-0.1-0.1-0.2
				c0-0.1,0.1,0,0.2,0c0,0,0.1-0.1,0.1-0.1c0.1,0,0.1,0.1,0.1,0.1c0,0,0.1-0.1,0.2,0c0,0,0,0.2,0.1,0.1c0,0,0.1,0,0.1,0
				c0.1,0.1,0.1,0.3,0.1,0.4c0,0.1,0.1,0,0.1,0.1c0,0,0,0,0,0.1c0,0,0,0,0,0.1c0,0.1,0,0.1,0,0.2C16.6,11,16.7,11.1,16.8,11.1
				L16.8,11.1z"/>
			<path class="st4" d="M16.8,12.3L16.8,12.3c0.1,0,0.1-0.1,0.1-0.1c0.1-0.2,0-0.4,0.1-0.4c0-0.1,0-0.2,0.1-0.3c0,0,0.1,0,0.1,0
				c0-0.1,0-0.2,0.1-0.2c0,0,0.1,0,0.1,0c0,0,0.1-0.1,0.1-0.2c0,0,0.1,0,0.1,0c0,0,0.1,0,0.1-0.1c0.1-0.1,0.2-0.1,0.2,0
				c0,0,0,0.1,0,0.2c0,0,0.1,0,0.1,0.1c0,0.1-0.1,0.1-0.1,0.2c0,0,0.1,0,0.1,0c0.1,0.1-0.1,0.2-0.2,0.3c0,0,0.1,0.1,0,0.1
				c0,0.2-0.3,0.1-0.4,0.1c0,0,0,0.1,0,0.1c-0.1,0.1-0.4,0-0.4,0c-0.1,0.1-0.1,0.2-0.1,0.2c0,0,0,0,0,0L16.8,12.3L16.8,12.3z"/>
			<path class="st40" d="M16.8,12.3c0.1,0,0.1-0.1,0.1-0.1c0-0.1,0-0.1,0-0.2c0-0.1-0.1-0.2,0.1-0.2c0,0,0-0.2,0.1-0.3
				c0,0,0.1,0,0.1,0c0,0,0-0.2,0.1-0.2c0,0,0.1,0,0.1,0c0,0,0-0.1,0.1-0.1c0,0,0.1,0,0.1,0c0.1,0,0.1-0.1,0.2-0.1
				c0.1,0,0.1,0.2,0,0.2c0,0,0,0.1,0,0.1c0,0.1-0.1,0.1-0.1,0.2c0,0,0,0,0,0c0.1,0.1-0.1,0.2-0.1,0.2c0,0,0,0,0,0.1c0,0,0,0.1,0,0.1
				c0,0.2-0.3,0.1-0.3,0.1c0,0,0,0.1-0.1,0.1C17.3,12.3,17,12.2,16.8,12.3c0.1,0,0,0.1,0,0.2L16.8,12.3L16.8,12.3z"/>
			<path class="st41" d="M16.9,12.3c0,0,0.4-0.3,0.6-0.5c0.2-0.2,0.4-0.5,0.4-0.5s-0.2,0.3-0.4,0.5C17.3,12,16.9,12.3,16.9,12.3
				C16.9,12.3,16.9,12.3,16.9,12.3L16.9,12.3z"/>
			<path class="st4" d="M17,11.4c-0.1,0-0.1-0.3,0.1-0.4c0.1-0.1,0.4,0.2,0.3,0.3C17.3,11.3,17.1,11.4,17,11.4L17,11.4z"/>
			<path class="st4" d="M17.3,11.2c-0.1,0-0.2,0-0.2-0.1C17,11.1,17,11,17,11c0.1-0.1,0.2-0.2,0.3-0.1
				C17.5,10.9,17.4,11.2,17.3,11.2z"/>
			<path class="st44" d="M17.3,11.2c0,0.1-0.2,0.1-0.3,0.1c-0.1,0-0.1-0.3,0.1-0.4C17.1,10.9,17.4,11.1,17.3,11.2L17.3,11.2z"/>
			<path class="st57" d="M17.3,10.9c0.1,0.1,0,0.3,0,0.3c0,0-0.1,0-0.2-0.1C17,11.1,17,11,17,11C17.1,10.9,17.3,10.8,17.3,10.9
				L17.3,10.9z"/>
			<path class="st10" d="M17.3,10.9c0,0,0,0.1,0,0.1c0,0.1,0,0.1,0.1,0.1c0,0,0,0,0-0.1C17.4,11,17.4,11,17.3,10.9
				C17.4,10.9,17.3,10.9,17.3,10.9L17.3,10.9C17.3,10.9,17.3,10.9,17.3,10.9L17.3,10.9L17.3,10.9z"/>
			<path class="st58" d="M15.8,11.5c0-0.1-0.1-0.1-0.1-0.2c0,0,0-0.1,0-0.1c0-0.1-0.1-0.1-0.1-0.2c0.1-0.1,0.2,0,0.2,0
				c0,0,0,0,0-0.1c0.1,0,0.2,0.2,0.3,0.2c0.1,0,0.2-0.1,0.2,0.2c0,0,0.1,0,0.1,0c0.1,0.2,0,0.6,0.2,0.7l0,0c0,0,0,0.1,0,0.1
				c-0.1-0.1-0.1-0.2-0.2-0.2c-0.1,0-0.5,0.1-0.5-0.1c0,0,0-0.1,0-0.1c0-0.1-0.3,0-0.3-0.2C15.7,11.6,15.8,11.5,15.8,11.5L15.8,11.5
				z"/>
			<path class="st59" d="M16.7,12.1c-0.2-0.2-0.2-0.1-0.5-0.1c-0.1,0-0.2,0-0.2-0.1c0,0,0,0,0-0.1c0-0.1-0.2-0.1-0.3-0.2
				c0-0.1,0-0.1,0-0.2c0-0.1-0.2-0.2-0.1-0.3c0,0,0,0,0,0c0,0-0.1-0.1,0-0.2c0-0.1,0.1,0,0.2,0c0,0,0,0,0.1,0c0.1,0,0.1,0,0.2,0.1
				c0,0,0.1,0.1,0.1,0.1c0,0,0.1,0,0.1,0c0,0,0.1,0.2,0.1,0.2l0,0c0,0,0.1,0,0.1,0C16.6,11.5,16.5,11.9,16.7,12.1L16.7,12.1
				L16.7,12.1z"/>
			<path class="st41" d="M16.7,12.1c0,0-0.3-0.5-0.5-0.7C16,11.2,15.8,11,15.8,11s0.3,0.2,0.4,0.4C16.4,11.6,16.7,12.1,16.7,12.1
				L16.7,12.1L16.7,12.1z"/>
			<path class="st4" d="M16.4,12.8C16.4,12.8,16.5,12.8,16.4,12.8c0.2,0,0,0.4,0,0.5c0,0,0,0.1,0,0.1l0,0.1c0,0,0-0.1,0-0.2
				c0-0.1-0.2,0-0.2,0c-0.1,0,0-0.1-0.1-0.1c-0.1,0-0.3,0-0.3-0.1c0,0,0-0.1,0-0.1c-0.1-0.1-0.2-0.1-0.2-0.2c0,0,0.1-0.1,0.1-0.1
				c0,0-0.1-0.1-0.1-0.2c0,0,0.1,0,0.1-0.1c0,0-0.1-0.2,0-0.2c0.1-0.1,0.2,0.1,0.3,0.1c0,0,0.1-0.1,0.1,0c0.1,0,0.1,0.1,0.1,0.1
				c0,0,0.1,0,0.1,0c0.1,0,0.1,0.2,0.1,0.3c0,0,0,0,0.1,0c0,0,0,0,0,0.1C16.4,12.6,16.4,12.7,16.4,12.8L16.4,12.8z"/>
			<path class="st4" d="M17.2,13.1c0,0.2-0.3,0-0.5,0.1c-0.1,0-0.2,0.1-0.2,0.1l0-0.1c0,0,0.1,0,0.1,0c0,0,0.1-0.1,0.1-0.1
				c0-0.1,0-0.2,0-0.3c0-0.1,0.1,0,0.1,0c0.1,0,0.1-0.3,0.2-0.3c0,0,0,0,0.1,0c0,0,0-0.1,0.1-0.1c0,0,0.1,0,0.1,0
				c0,0,0.1-0.2,0.2-0.2c0.1,0,0,0.2,0,0.3c0,0,0,0,0,0c0.1,0.1,0,0.2-0.1,0.3c0,0,0,0,0,0c0,0.1-0.2,0.1-0.2,0.2c0,0,0,0,0,0
				C17.5,13.1,17.2,13.1,17.2,13.1L17.2,13.1z"/>
			<path class="st4" d="M15.1,13.9c0,0-0.1-0.1,0-0.2c0-0.1,0.1,0,0.1-0.1c0-0.1,0-0.2,0.1-0.2c0.1,0,0.1,0,0.1,0.1c0,0,0,0.1,0,0.1
				c0,0,0.1,0,0.1,0c0.1,0,0,0.2,0,0.2c0,0,0.1,0,0.1,0c0.1,0,0,0.2,0,0.2c0,0,0.1,0,0.1,0.1c0,0.1-0.1,0.1-0.1,0.2c0,0,0,0,0,0
				c0.1,0.1,0,0.2-0.1,0.2c-0.1,0.1-0.3,0.1-0.2,0.3c0,0-0.1,0.1-0.1,0.1c0-0.1,0-0.1,0-0.2c0-0.1-0.2-0.1-0.2-0.2
				c0,0,0.1-0.1,0.1-0.1c0-0.1-0.2-0.1-0.2-0.2c0-0.1,0.1-0.1,0.1-0.1C15.1,14.1,14.9,13.9,15.1,13.9C15.1,13.9,15.1,13.9,15.1,13.9
				L15.1,13.9z"/>
			<path class="st40" d="M15.3,14.9c0,0,0-0.1,0-0.2c0-0.1-0.2-0.2-0.2-0.2c0,0,0,0,0-0.1c0-0.1-0.2-0.1-0.1-0.2
				c0-0.1,0.1-0.1,0.1-0.1c0,0-0.1-0.1-0.1-0.2c0-0.1,0.1,0,0.1-0.1c0,0-0.1-0.1,0-0.2c0,0,0.1,0,0.1-0.1c0,0,0-0.2,0.1-0.2
				c0.1,0,0.1,0.2,0.1,0.2c0,0,0.1,0,0.1,0c0.1,0,0,0.1,0,0.2c0,0,0.1,0,0.1,0c0.1,0,0,0.1,0,0.2c0,0,0,0,0.1,0.1
				c0,0.1-0.1,0.1-0.1,0.2c0,0,0,0,0,0c0.1,0.1,0,0.1-0.1,0.2C15.5,14.6,15.3,14.6,15.3,14.9L15.3,14.9L15.3,14.9z"/>
			<path class="st4" d="M17.3,13.5c0.1,0,0.1-0.1,0.2,0c0.1,0.1-0.1,0.2-0.1,0.3c0,0,0.1,0,0.1,0.1c0,0.1-0.2,0.1-0.2,0.1
				c0,0,0,0,0,0.1c0,0.2-0.2,0.1-0.3,0.1c0,0,0,0.1-0.1,0.1c0,0-0.1,0-0.1,0c-0.1,0-0.1,0-0.2,0c0,0,0,0-0.1,0c0,0,0,0,0,0l0.3-0.7
				c0,0,0.1,0,0.1,0c0,0,0.1-0.1,0.1-0.1c0.1-0.1,0.1,0,0.2,0C17.1,13.5,17.2,13.3,17.3,13.5L17.3,13.5z"/>
			<path class="st42" d="M16,13.6C16,13.6,16,13.6,16,13.6c-0.1,0.1,0,0.1,0,0.1c0,0,0.1,0.1,0.1,0.1l0,0C16.1,13.7,16,13.7,16,13.6
				z"/>
			<path class="st4" d="M15.9,13.3C16,13.3,16,13.3,15.9,13.3c0,0.1,0,0.1,0,0.1c-0.1,0.1-0.2,0.1-0.2,0.1c-0.1,0-0.2-0.3-0.1-0.4
				C15.7,13.1,15.9,13.2,15.9,13.3z"/>
			<path class="st4" d="M15.6,13.4C15.7,13.4,15.7,13.4,15.6,13.4c0.1-0.1,0.3-0.2,0.3-0.1c0.1,0.1,0.1,0.3,0,0.4
				c-0.1,0.1-0.3,0-0.4-0.1C15.6,13.5,15.6,13.5,15.6,13.4z"/>
			<path class="st44" d="M15.8,13.3c0.1-0.1,0.2-0.1,0.2-0.1c0.1,0.1,0.1,0.3,0,0.3c-0.1,0.1-0.2,0-0.3-0.1
				C15.6,13.5,15.7,13.4,15.8,13.3L15.8,13.3z"/>
			<path class="st57" d="M15.9,13.3c0,0.1-0.2,0.3-0.3,0.2c-0.1,0-0.1-0.3-0.1-0.4C15.7,13.1,15.9,13.2,15.9,13.3L15.9,13.3z"/>
			<path class="st10" d="M15.7,13.2C15.6,13.2,15.6,13.2,15.7,13.2C15.6,13.2,15.6,13.2,15.7,13.2C15.6,13.2,15.7,13.2,15.7,13.2
				c0.2,0.1,0.2,0.2,0.3,0.1c0,0,0,0,0,0c0,0,0,0-0.1,0c0,0-0.1,0-0.1,0S15.7,13.2,15.7,13.2C15.7,13.2,15.7,13.2,15.7,13.2
				L15.7,13.2z"/>
			<path class="st43" d="M16.5,14.3c0.1,0,0.2,0,0.3,0c0.1,0,0-0.1,0.1-0.1c0,0,0.3,0,0.3-0.1c0,0,0,0,0-0.1c0,0,0.2,0,0.2-0.1
				c0-0.1-0.1-0.1,0-0.1c0,0,0.2-0.2,0.1-0.3c-0.1-0.1-0.2,0-0.2,0c0,0,0-0.1-0.1-0.1c-0.1,0-0.1,0.1-0.1,0.1c0,0-0.1,0-0.1,0
				c-0.1,0-0.1,0.1-0.1,0.1c0,0-0.1,0-0.1,0L16.5,14.3C16.4,14.3,16.5,14.3,16.5,14.3L16.5,14.3z"/>
			<path class="st60" d="M16.6,14c0,0,0.2-0.1,0.4-0.2c0.1-0.1,0.3-0.2,0.3-0.2 M16.6,14c0,0,0.2-0.1,0.4-0.2
				c0.1-0.1,0.3-0.2,0.3-0.2"/>
			<path class="st42" d="M15.1,15.1c0,0,0.1,0,0.1,0c0,0,0.1,0,0.1,0l0-0.1C15.4,15,15.2,15.1,15.1,15.1L15.1,15.1z"/>
			<path class="st26" d="M14.6,16c-0.1-0.1,0.2-0.3,0.3-0.3c0.1,0,0.1,0.3,0.1,0.3C14.8,16.1,14.6,16,14.6,16L14.6,16z"/>
			<path class="st42" d="M14.4,15.7L14.4,15.7c-0.1-0.1-0.1-0.1-0.2-0.1c0,0,0,0,0,0l0.1,0c0,0,0,0,0.1,0
				C14.4,15.6,14.5,15.6,14.4,15.7L14.4,15.7L14.4,15.7z"/>
			<path class="st26" d="M14.4,15.6c0-0.1,0.3-0.1,0.4,0c0.1,0.1,0,0.2-0.1,0.2C14.7,16,14.6,16,14.5,16
				C14.4,15.8,14.4,15.7,14.4,15.6z"/>
			<path class="st40" d="M16.5,13.3c0,0,0.1-0.1,0.2-0.2c0.2-0.1,0.4,0,0.5,0c0,0,0-0.1,0-0.1c0,0,0.3,0,0.3-0.1c0,0,0,0,0-0.1
				c0,0,0.2,0,0.2-0.1c0,0,0,0,0-0.1c0,0,0.1-0.2,0.1-0.2c0,0-0.1,0-0.1,0c0-0.1,0-0.2,0-0.2c-0.1,0-0.2,0.2-0.2,0.2
				c0,0-0.1,0-0.1,0c-0.1,0-0.1,0.1-0.1,0.1c0,0,0,0-0.1,0c-0.1,0-0.1,0.2-0.2,0.2c0,0-0.1,0-0.1,0c-0.1,0-0.1,0.2-0.1,0.3
				c0,0.1-0.1,0.1-0.2,0.2c0,0-0.1,0-0.1,0L16.5,13.3L16.5,13.3z"/>
			<path class="st48" d="M14.2,15.6c0,0,0.1,0,0.1,0c0,0,0.1,0,0.1,0s0,0,0,0c0,0-0.1-0.1-0.1-0.1L14.2,15.6L14.2,15.6z"/>
			<path class="st44" d="M14.4,15.6c0.1-0.1,0.2-0.1,0.3,0c0.1,0.1,0,0.1-0.1,0.2c-0.1,0.1-0.2,0.1-0.2,0.1
				C14.4,15.8,14.4,15.7,14.4,15.6L14.4,15.6z"/>
			<path class="st57" d="M14.6,16c0,0,0-0.1,0.1-0.2c0.1,0,0.1-0.1,0.2-0.1c0.1,0.1,0.1,0.2,0.1,0.3C14.8,16.1,14.6,16,14.6,16
				L14.6,16z"/>
			<path class="st10" d="M14.8,15.7C14.8,15.7,14.8,15.7,14.8,15.7c-0.1,0-0.1,0.1-0.1,0.2c0,0,0,0.1,0,0.1h0c0.1,0,0.1,0,0.1,0
				c0,0,0-0.1,0-0.1C14.9,15.8,14.8,15.8,14.8,15.7L14.8,15.7z"/>
			<path class="st48" d="M16.7,10.4c0,0,0-0.1,0.1-0.3c0,0,0-0.1,0-0.1l-0.1,0c0,0,0,0,0,0.1c0,0.1-0.1,0.2-0.1,0.2L16.7,10.4
				L16.7,10.4z"/>
			<path class="st61" d="M16.5,10.2c0,0-0.1-0.2-0.1-0.3c-0.1-0.1-0.1-0.1-0.2-0.1c-0.1,0-0.3-0.1-0.3-0.1c0-0.1,0-0.1,0-0.1
				c-0.1,0-0.2-0.1-0.2-0.1c0-0.1,0.1-0.1,0-0.1c-0.1,0-0.2-0.1-0.2-0.2c0-0.1,0.1-0.1,0.1-0.1c0,0-0.1-0.1-0.1-0.1
				c0,0,0.1-0.1,0.1-0.1c0,0-0.1-0.2-0.1-0.3c0.1-0.1,0.2,0,0.2,0.1c0,0,0.1-0.1,0.1,0C16,8.6,16,8.7,16,8.7c0,0.1,0.1,0,0.2,0
				c0.1,0,0.1,0.2,0.1,0.3c0,0,0.1,0,0.1,0c0.1,0,0,0.3,0,0.3c0,0,0.1,0,0.1,0c0.1,0.1,0,0.3,0,0.4c0,0.1,0,0.1,0,0.1L16.5,10.2
				L16.5,10.2z"/>
			<path class="st4" d="M15.9,15.9c0,0,0.1,0.1,0.1,0.1c0,0.1,0,0.1-0.1,0.1c0,0-0.1,0-0.1,0c0,0-0.1,0.1-0.2,0.1
				c-0.1,0-0.1-0.1-0.2-0.2c0,0-0.1,0.1-0.1,0.1c-0.1,0-0.1-0.2-0.1-0.3c0,0-0.1,0-0.1,0c-0.1-0.1,0-0.3-0.1-0.3
				c-0.1-0.1-0.3,0-0.3,0l0.1-0.1c0,0,0,0,0,0c0.2,0,0.4,0,0.6,0c0.1,0,0.1,0.1,0.1,0.1l0,0c0.1,0,0.2,0,0.3,0.1
				c0.1,0.1,0,0.1,0,0.1l0,0l0,0l0.1,0c0,0,0.1,0,0.1,0.1C16,15.9,15.9,15.9,15.9,15.9L15.9,15.9z"/>
			<path class="st43" d="M14.7,15.4c0,0,0.5,0,0.6,0c0.1,0,0,0.1,0.1,0.1c0,0,0.4,0,0.3,0.1c0,0,0,0,0,0l0,0c0,0,0.2,0,0.2,0.1
				c0,0-0.1,0.1,0,0.1c0.1,0.1,0.2,0.3-0.1,0.2c-0.1,0-0.1,0.2-0.3,0c0,0-0.1-0.1-0.1-0.1c0,0-0.1,0-0.1,0c-0.1,0-0.1-0.2-0.1-0.2
				c0,0-0.1,0-0.1,0C14.9,15.7,15.1,15.4,14.7,15.4L14.7,15.4L14.7,15.4z"/>
			<path class="st41" d="M14.7,15.4c0,0,0.4,0.1,0.6,0.2c0.2,0.1,0.5,0.3,0.5,0.3s-0.3-0.2-0.5-0.4C15.1,15.5,14.7,15.4,14.7,15.4
				L14.7,15.4L14.7,15.4z"/>
			<path class="st4" d="M15.7,15c0.1,0.1-0.1,0.4-0.2,0.4c-0.2,0-0.3-0.2-0.2-0.3C15.3,15,15.6,14.9,15.7,15L15.7,15z"/>
			<path class="st26" d="M15.5,15.4c-0.1,0,0-0.2,0-0.2c0-0.1,0.1-0.1,0.1-0.1c0.1,0,0.3,0.2,0.2,0.3C15.8,15.4,15.5,15.4,15.5,15.4
				z"/>
			<path class="st44" d="M15.7,15c0.1,0.1-0.1,0.4-0.2,0.3c-0.2,0-0.2-0.2-0.2-0.3C15.3,15,15.6,14.9,15.7,15L15.7,15z"/>
			<path class="st4" d="M16.3,15.2C16.2,15.3,16.2,15.3,16.3,15.2C16,15.3,16,15.2,16,15.1c0,0,0,0-0.1,0c-0.1,0-0.1-0.2-0.2-0.2
				c-0.1,0-0.2,0-0.3,0.1l0.1-0.1c0.1,0.1,0.3-0.2,0.4-0.2c0,0,0,0,0.1,0c0.1,0,0.2-0.1,0.4,0c0.1,0,0,0.1,0.1,0.1
				c0.1,0,0.2,0,0.2,0.1c0,0,0,0.1,0,0.1c0,0,0.3,0.1,0.1,0.2c0,0.1,0.1,0.1,0.1,0.2c-0.1,0.1-0.2,0-0.2,0c0,0,0,0,0,0.1
				c0,0.1-0.2-0.1-0.2-0.1C16.4,15.4,16.3,15.4,16.3,15.2L16.3,15.2z"/>
			<path class="st40" d="M15.7,14.9c0.1,0,0.1,0.2,0.2,0.2c0.1,0,0.1,0,0.1,0c0,0,0.1,0.2,0.2,0.2c0,0,0.1-0.1,0.1-0.1
				s0.1,0.1,0.1,0.1c0.1,0,0.1-0.1,0.1-0.1c0,0,0.1,0.1,0.2,0.1c0,0,0-0.1,0.1-0.1c0,0,0.1,0,0.2,0c0-0.1-0.1-0.1-0.1-0.2
				c0,0,0,0,0,0c0-0.1-0.1-0.1-0.2-0.1c0,0,0-0.1,0-0.1c0-0.1-0.1-0.1-0.2-0.1c-0.1,0,0-0.1-0.1-0.1c-0.1-0.1-0.3,0.1-0.4,0
				c0,0,0,0-0.1,0C15.8,14.6,15.7,14.8,15.7,14.9L15.7,14.9L15.7,14.9z"/>
			<path class="st41" d="M15.6,14.8c0,0,0.4,0,0.6,0.1c0.2,0.1,0.5,0.3,0.5,0.3s-0.3-0.2-0.5-0.3C16,14.8,15.6,14.8,15.6,14.8
				L15.6,14.8L15.6,14.8z"/>
			<path class="st41" d="M15.3,14.8c0,0,0.1-0.5,0.1-0.8c0-0.2,0-0.5,0-0.5s0.1,0.3,0.1,0.5C15.4,14.3,15.3,14.8,15.3,14.8
				L15.3,14.8L15.3,14.8z"/>
			<path class="st4" d="M14.9,14.8c0,0,0.1,0,0.1,0.1c0,0.1-0.2,0.1-0.2,0.1c0,0,0,0.1,0,0.1c-0.1,0.1-0.2,0-0.2,0
				c0,0,0.1,0.1,0,0.2c-0.1,0.1-0.4,0-0.5,0.1c0,0-0.1,0.1-0.1,0.1c-0.1,0-0.3,0.1-0.3,0.1c0.1-0.1,0.3-0.1,0.4-0.2
				c0-0.1,0-0.2,0-0.3c0-0.1,0.1-0.1,0.1-0.1c0,0,0-0.2,0.1-0.3c0.1-0.1,0.1,0,0.2-0.1c0.1,0,0-0.2,0.1-0.2c0.1,0,0.1,0.1,0.2,0.1
				c0,0,0.1-0.1,0.2-0.1c0.1,0,0.1,0.1,0,0.2C15.1,14.6,15,14.7,14.9,14.8L14.9,14.8z"/>
			<path class="st40" d="M13.7,15.6c0,0,0.3-0.1,0.4-0.2c0-0.1,0-0.3,0.1-0.3c0,0,0.1,0,0.1,0c0,0,0-0.2,0.1-0.3
				c0.1,0,0.1,0,0.2-0.1c0.1-0.1,0-0.2,0.1-0.2c0.1,0,0.1,0.1,0.2,0c0.1,0,0.1-0.1,0.2-0.1c0.1,0,0,0.1,0,0.2c0,0,0.1,0,0.1,0.1
				c0,0,0,0.1-0.1,0.2c0,0,0.1,0.1,0.1,0.1c0,0.1-0.2,0.1-0.2,0.1c0,0,0,0.1,0,0.1c-0.1,0.1-0.2,0-0.2,0.1c0,0,0,0.1,0,0.2
				c-0.1,0-0.3,0-0.4,0c-0.1,0-0.2,0.1-0.2,0.1L13.7,15.6L13.7,15.6z"/>
			<path class="st41" d="M14,15.4c0,0,0.4-0.3,0.5-0.5c0.1-0.1,0.2-0.3,0.2-0.3s-0.1,0.2-0.2,0.3C14.4,15.2,14,15.5,14,15.4L14,15.4
				L14,15.4z"/>
			<path class="st41" d="M16.7,13.1c0.1-0.1,0.4-0.2,0.6-0.4c0.1-0.1,0.3-0.4,0.3-0.4s-0.2,0.2-0.3,0.4C17.1,13,16.8,13.1,16.7,13.1
				L16.7,13.1L16.7,13.1z"/>
			<path class="st43" d="M16.4,13.3l0,0.1c0-0.1,0-0.2-0.2-0.2c0,0-0.1,0-0.1,0c-0.1,0,0-0.1,0-0.1c0,0-0.3,0-0.3-0.1
				c0,0,0-0.1,0-0.1c-0.1-0.1-0.2-0.1-0.2-0.2c0,0,0.1-0.1,0.1-0.1c0,0-0.1-0.1-0.1-0.2c0,0,0.1,0,0.1-0.1c0,0-0.1-0.2,0-0.2
				c0.1,0,0.2,0,0.2,0c0,0,0.1-0.1,0.1,0c0.1,0,0.1,0.1,0.1,0.1c0,0,0.1,0,0.1,0c0.1,0,0.1,0.2,0.1,0.3c0,0,0,0,0.1,0
				c0.1,0,0,0.3,0,0.3c0,0,0,0,0.1,0c0.1,0,0,0.2,0,0.2C16.5,13.1,16.4,13.2,16.4,13.3L16.4,13.3z"/>
			<path class="st41" d="M16.4,13.3c0,0-0.1-0.4-0.3-0.7c-0.1-0.2-0.4-0.4-0.4-0.4s0.3,0.2,0.4,0.4C16.3,12.9,16.4,13.3,16.4,13.3
				L16.4,13.3L16.4,13.3z"/>
			<path class="st41" d="M16.7,11c0,0-0.3-0.4-0.5-0.6C16,10.2,15.7,10,15.7,10s0.3,0.2,0.5,0.4C16.4,10.6,16.6,11,16.7,11L16.7,11
				L16.7,11z"/>
			<path class="st44" d="M16.5,10c0,0.1,0.1,0.3,0.1,0.4c0.2,0.7,0.2,1.6,0.1,2.1c-0.3,1.5-1.6,2.9-2.7,3.1c-0.9,0.2-1.5,0.6-1.9,1
				c-0.2,0.2-0.3,0.4-0.4,0.6c-0.1,0.2-0.2,0.4-0.3,0.5c0,0,0,0,0,0c0,0,0,0,0,0c0,0-0.1,0-0.1,0c0,0-0.1,0-0.1,0l0,0c0,0,0,0,0-0.1
				c0.1-0.2,0.2-0.3,0.3-0.5c0.1-0.2,0.2-0.4,0.4-0.6c0.4-0.5,1-0.9,2-1.1c1.1-0.2,2.5-1.7,2.7-3.2C16.8,11.9,16.8,11,16.5,10
				L16.5,10L16.5,10z"/>
			<path class="st41" d="M16.5,9.9c-0.1-0.2-0.2-0.4-0.3-0.6C16,9,15.7,8.7,15.7,8.7S16,9,16.2,9.3c0.2,0.3,0.3,0.5,0.4,0.8
				L16.5,9.9L16.5,9.9z"/>
			<path class="st49" d="M16.6,10.2C16.6,10.2,16.5,10.1,16.6,10.2c0-0.1-0.1-0.2-0.1-0.2S16.5,10,16.6,10.2
				C16.6,10.1,16.6,10.2,16.6,10.2L16.6,10.2z"/>
			<path class="st4" d="M16.6,12.7c-0.1-0.1-0.3-0.2-0.3-0.3c0-0.1,0.1-0.1,0.1-0.1c0,0-0.2-0.2-0.1-0.3c0-0.1,0.1,0,0.2-0.1
				c0-0.1-0.1-0.2,0-0.3c0-0.1,0.1,0,0.1,0c0,0,0-0.1,0-0.1c0-0.1,0-0.1,0.1-0.1c0.1,0,0.1,0.1,0.2,0.2c0,0,0.1,0,0.1,0
				c0.1-0.1,0.1,0.3,0.1,0.3c0,0,0.1,0,0.1,0c0.1,0.1-0.1,0.4-0.1,0.5c0,0,0.1,0,0,0.1c-0.1,0.1-0.1,0.1-0.2,0.2L16.6,12.7
				L16.6,12.7z"/>
			<path class="st40" d="M16.6,12.9c0-0.1,0-0.2-0.1-0.3c-0.1-0.1-0.2-0.2-0.2-0.3c0-0.1,0.1,0,0.1-0.1c0,0-0.1-0.2-0.1-0.2
				c0-0.1,0.1,0,0.1-0.1c0,0-0.1-0.3,0-0.3c0-0.1,0.1,0,0.1,0c0,0,0-0.2,0.1-0.2c0.1,0,0.2,0.2,0.2,0.2c0,0,0.1,0,0.1,0
				c0,0,0,0.3,0,0.3s0.1,0,0.1,0c0.1,0.1-0.1,0.4-0.1,0.5c0,0.1,0.1,0.1,0,0.2C16.9,12.6,16.8,12.7,16.6,12.9"/>
			<path class="st41" d="M16.7,12.9c0,0,0.1-0.5,0.1-0.7c0-0.2,0-0.5,0-0.5s0,0.3,0,0.5c0,0.2-0.1,0.8-0.1,0.8L16.7,12.9L16.7,12.9z
				"/>
			<path class="st4" d="M15.7,14.5c0-0.1-0.1-0.4,0-0.5c0.1,0,0.1,0,0.1,0c0.1-0.1,0-0.3,0.1-0.4c0.1,0,0.1,0,0.2,0
				c0,0,0-0.2,0.2-0.2c0.1,0,0.1,0,0.2,0c0.1,0,0.2-0.2,0.4-0.2c0.1,0.1,0,0.2,0,0.3c0,0,0.1,0,0.1,0.1c0,0.1-0.1,0.1-0.1,0.2
				c0,0,0.1,0.1,0.1,0.1c0,0.1-0.2,0.1-0.2,0.2c0,0,0,0.1,0,0.2c-0.1,0.1-0.3,0-0.3,0c0,0,0,0.2,0,0.2c-0.1,0.1-0.3,0-0.4,0
				c-0.1,0-0.2,0.1-0.3,0.2L15.7,14.5L15.7,14.5z"/>
			<path class="st40" d="M15.5,14.7c0,0,0.1-0.1,0.1-0.1c0-0.1,0-0.1,0-0.2c0-0.1-0.1-0.3,0-0.3c0,0,0.1,0,0.1,0
				c0.1-0.1,0-0.3,0.1-0.4c0.1,0,0.1,0,0.2,0c0,0,0-0.2,0.1-0.2c0.1,0,0.1,0,0.2,0c0.1,0,0.2-0.2,0.3-0.2c0,0,0.1,0.1,0,0.1
				c0,0.1,0,0.1,0,0.1c0,0.1,0.1,0.1,0.1,0.1c0,0.1-0.1,0.1-0.1,0.2c0,0,0.1,0.1,0.1,0.1c0,0.1-0.2,0.1-0.2,0.2c0,0.1,0,0.1,0,0.2
				c0,0.1-0.2,0-0.3,0c-0.1,0,0,0.1-0.1,0.2C16.2,14.7,15.7,14.5,15.5,14.7L15.5,14.7L15.5,14.7z"/>
			<path class="st41" d="M15.5,14.7c0,0,0.5-0.4,0.7-0.7c0.2-0.2,0.4-0.6,0.4-0.6s-0.2,0.4-0.4,0.6C16,14.3,15.6,14.7,15.5,14.7
				L15.5,14.7L15.5,14.7z"/>
			<path class="st49" d="M15.5,14.7L15.5,14.7C15.6,14.7,15.6,14.7,15.5,14.7C15.5,14.8,15.5,14.8,15.5,14.7L15.5,14.7L15.5,14.7z"
				/>
			<path class="st57" d="M15.5,15.4c0,0,0-0.1,0-0.2c0-0.1,0.1-0.1,0.1-0.1c0.1,0,0.2,0.2,0.2,0.3C15.8,15.4,15.5,15.4,15.5,15.4
				L15.5,15.4z"/>
			<path class="st10" d="M15.7,15.1C15.7,15.1,15.7,15.1,15.7,15.1c-0.1,0.1-0.1,0.1,0,0.2c0,0,0.1,0,0.1,0h0c0,0,0,0,0,0
				c0,0,0-0.1,0-0.1C15.8,15.1,15.7,15.1,15.7,15.1L15.7,15.1z"/>
			<path class="st4" d="M16.7,10.2c-0.1,0-0.2-0.2-0.1-0.4c0-0.2,0.4-0.1,0.4,0.1C16.9,10.1,16.8,10.2,16.7,10.2L16.7,10.2z"/>
			<path class="st4" d="M16.9,9.9c0,0.1-0.1,0.1-0.2,0.1c-0.1,0-0.2-0.1-0.2-0.2c0-0.2,0.2-0.3,0.2-0.3C16.9,9.5,17,9.7,16.9,9.9
				L16.9,9.9z"/>
			<path class="st44" d="M16.7,10.1c-0.1,0-0.1-0.2-0.1-0.3c0-0.1,0.4-0.1,0.3,0.1C16.9,10,16.8,10.2,16.7,10.1L16.7,10.1z"/>
			<path class="st57" d="M16.8,9.5c0.1,0,0.1,0.2,0.1,0.3c0,0.1-0.1,0.1-0.2,0.1c-0.1,0-0.2-0.1-0.2-0.1C16.6,9.6,16.8,9.5,16.8,9.5
				L16.8,9.5z"/>
			<path class="st10" d="M16.8,9.6C16.8,9.6,16.8,9.6,16.8,9.6c0,0,0,0.1,0,0.1c0,0.1,0,0.2,0,0.1c0,0,0,0,0-0.1v0
				C16.9,9.7,16.9,9.7,16.8,9.6C16.9,9.6,16.8,9.6,16.8,9.6C16.8,9.6,16.8,9.6,16.8,9.6L16.8,9.6z"/>
			<path class="st26" d="M11.3,17.8c0,0,0-0.2,0.2-0.2c0.1,0,0,0.1,0,0.2C11.4,17.9,11.4,17.9,11.3,17.8L11.3,17.8z"/>
			<path class="st44" d="M11.3,17.8c0,0,0-0.1,0.2-0.1c0.1,0,0.1,0.1,0,0.1C11.4,17.9,11.4,17.9,11.3,17.8L11.3,17.8z"/>
			<path class="st26" d="M11.8,17.2C11.8,17.2,11.8,17.1,11.8,17.2c-0.1-0.1-0.2-0.1-0.2-0.1 M11.8,17.3
				C11.8,17.3,11.8,17.2,11.8,17.3c-0.1-0.1-0.2,0-0.2,0"/>
		</g>
		<g id="motto">
			<path class="st0" d="M12.1,17c0.3,0,0.5,0,0.8-0.1c-0.1,0.2-0.2,0.6,0.3,0.6c0.4,0,0.7-0.2,1.1,0c0.8,0.4,1.4,0.1,1.9-0.4
				c0,0-0.4,0.1-0.7,0.1c0,0,0.3-0.2,0.3-0.6c-0.2,0.2-0.5,0.2-0.7,0.2c-0.2,0-0.4-0.1-0.7-0.2c0-0.1,0-0.2,0.1-0.4
				c0-0.2,0-0.3-0.3-0.3c-0.5-0.1-1.1,0.2-2,0.3c-1,0-1.6-0.3-2.2-0.3c-0.2,0-0.3,0.2-0.3,0.3c0,0.2,0,0.3,0.1,0.4
				c-0.3,0.1-0.5,0.2-0.7,0.2c-0.2,0-0.5,0-0.7-0.2c0,0.3,0.3,0.6,0.3,0.6c-0.4,0-0.7-0.1-0.7-0.1C8.3,17.7,9,18,9.8,17.5
				c0.4-0.2,0.8,0,1.1,0c0.5,0,0.4-0.4,0.3-0.6C11.5,17,11.8,17,12.1,17L12.1,17L12.1,17z"/>
			<path d="M9.6,17.1C9.5,17.1,9.5,17,9.6,17.1c0,0,0.1-0.1,0.2-0.1c0,0,0,0,0,0l0,0c0,0,0,0,0,0C9.7,17,9.6,17,9.6,17.1L9.6,17.1z
				 M9.6,17.2C9.5,17.2,9.5,17.2,9.6,17.2c0,0,0.1-0.1,0.2-0.1c0,0,0,0,0,0l0,0c0,0,0,0,0,0C9.7,17.1,9.6,17.2,9.6,17.2L9.6,17.2z
				 M10.9,17.4c-0.2,0-0.3-0.1-0.5-0.1c-0.2,0-0.5,0-0.7,0.1c0,0,0,0,0,0c0,0,0,0,0,0c0,0,0,0,0,0c0,0,0,0,0,0
				c0.2-0.1,0.5-0.1,0.7-0.1C10.5,17.3,10.7,17.3,10.9,17.4c0.1,0,0.2-0.1,0.2-0.1c0,0,0,0,0,0C11.1,17.4,11,17.4,10.9,17.4
				L10.9,17.4z M9.5,16.9C9.5,16.9,9.5,16.9,9.5,16.9C9.5,16.9,9.5,16.9,9.5,16.9C9.5,16.9,9.5,16.9,9.5,16.9
				C9.5,16.9,9.5,16.9,9.5,16.9c0.1-0.1,0.1-0.1,0.2-0.1c0,0,0,0,0,0c0,0,0,0,0,0C9.7,16.9,9.6,16.9,9.5,16.9L9.5,16.9z M9.5,16.8
				C9.5,16.8,9.5,16.8,9.5,16.8C9.5,16.8,9.5,16.8,9.5,16.8C9.5,16.8,9.5,16.8,9.5,16.8C9.5,16.8,9.5,16.8,9.5,16.8
				c0.1-0.1,0.1-0.1,0.3-0.1c0,0,0,0,0,0c0,0,0,0,0,0C9.6,16.8,9.6,16.8,9.5,16.8L9.5,16.8z M10.9,17.2c-0.1,0-0.2,0-0.4-0.1
				c0,0,0,0,0,0c0,0,0,0,0,0C10.7,17.1,10.8,17.1,10.9,17.2c0,0,0.1,0,0.1-0.1c0,0,0,0,0,0c0,0,0,0,0,0C11,17.2,10.9,17.2,10.9,17.2
				z M10.3,17.4c-0.2,0-0.5,0-0.7,0.1c0,0,0,0,0,0c0,0,0,0,0,0c0,0,0,0,0,0c0,0,0,0,0,0c0,0,0,0,0,0C9.9,17.3,10.2,17.3,10.3,17.4
				c0.2,0,0.4,0,0.5,0c0,0,0,0,0,0c0,0,0,0,0,0C10.7,17.5,10.5,17.4,10.3,17.4L10.3,17.4z M10.9,17.3c-0.2,0-0.5-0.1-0.7-0.1
				c0,0,0,0,0,0c0,0,0,0,0,0C10.4,17.1,10.7,17.2,10.9,17.3c0.1,0,0.2-0.1,0.2-0.1c0,0,0,0,0,0C11,17.3,10.9,17.3,10.9,17.3
				L10.9,17.3z M9.6,17.3C9.6,17.3,9.6,17.3,9.6,17.3c0,0,0.2-0.1,0.3-0.1c0,0,0,0,0,0c0,0,0,0,0,0C9.8,17.2,9.6,17.3,9.6,17.3
				L9.6,17.3z"/>
			<path d="M14.5,17.1C14.6,17.1,14.6,17,14.5,17.1c0,0-0.1-0.1-0.2-0.1c0,0,0,0,0,0l0,0c0,0,0,0,0,0C14.4,17,14.5,17,14.5,17.1
				L14.5,17.1z M14.5,17.2C14.5,17.2,14.6,17.2,14.5,17.2c0,0-0.1-0.1-0.2-0.1c0,0,0,0,0,0l0,0c0,0,0,0,0,0
				C14.3,17.1,14.5,17.2,14.5,17.2L14.5,17.2z M13.2,17.4c0.2,0,0.3-0.1,0.5-0.1c0.2,0,0.5,0,0.7,0.1c0,0,0,0,0,0c0,0,0,0,0,0
				c0,0,0,0,0,0c0,0,0,0,0,0c-0.2-0.1-0.5-0.1-0.7-0.1C13.6,17.3,13.4,17.3,13.2,17.4c-0.1,0-0.2-0.1-0.2-0.1c0,0,0,0,0,0
				C13,17.4,13.1,17.4,13.2,17.4L13.2,17.4z M14.6,16.9C14.6,16.9,14.6,16.9,14.6,16.9C14.6,16.9,14.6,16.9,14.6,16.9
				C14.6,16.9,14.6,16.9,14.6,16.9C14.6,16.9,14.6,16.9,14.6,16.9c-0.1-0.1-0.1-0.1-0.2-0.1c0,0,0,0,0,0c0,0,0,0,0,0
				C14.4,16.9,14.5,16.9,14.6,16.9L14.6,16.9z M14.6,16.8C14.6,16.8,14.6,16.8,14.6,16.8C14.6,16.8,14.6,16.8,14.6,16.8
				C14.6,16.8,14.6,16.8,14.6,16.8C14.6,16.8,14.6,16.8,14.6,16.8c-0.1-0.1-0.1-0.1-0.3-0.1c0,0,0,0,0,0c0,0,0,0,0,0
				C14.4,16.8,14.5,16.8,14.6,16.8L14.6,16.8z M13.2,17.2c0.1,0,0.2,0,0.4-0.1c0,0,0,0,0,0c0,0,0,0,0,0
				C13.4,17.1,13.3,17.1,13.2,17.2c0,0-0.1,0-0.1-0.1c0,0,0,0,0,0c0,0,0,0,0,0C13.1,17.2,13.2,17.2,13.2,17.2L13.2,17.2z M13.8,17.4
				c0.2,0,0.5,0,0.7,0.1c0,0,0,0,0,0c0,0,0,0,0,0c0,0,0,0,0,0c0,0,0,0,0,0c0,0,0,0,0,0C14.2,17.3,13.9,17.3,13.8,17.4
				c-0.2,0-0.4,0-0.5,0c0,0,0,0,0,0c0,0,0,0,0,0C13.4,17.5,13.6,17.4,13.8,17.4L13.8,17.4z M13.2,17.3c0.2,0,0.5-0.1,0.7-0.1
				c0,0,0,0,0,0c0,0,0,0,0,0C13.7,17.1,13.4,17.2,13.2,17.3c-0.1,0-0.2-0.1-0.2-0.1c0,0,0,0,0,0C13,17.3,13.1,17.3,13.2,17.3
				L13.2,17.3z M14.5,17.3C14.5,17.3,14.5,17.3,14.5,17.3c0,0-0.2-0.1-0.3-0.1c0,0,0,0,0,0c0,0,0,0,0,0
				C14.3,17.2,14.4,17.3,14.5,17.3z"/>
			<g>
				<path class="st4" d="M12,17.1c-0.4,0-0.7-0.1-1-0.1c-0.9-0.2-1,0-1,0.1c0,0,0,0.1,0.1,0c0,0,0,0,0,0c0,0,0,0,0,0
					c0-0.1,0.2-0.2,1,0C11.4,17,11.6,17.1,12,17.1L12,17.1L12,17.1z M12,17.1c0.4,0,0.7-0.1,1-0.1c0.9-0.2,1,0,1,0.1
					c0,0,0,0.1-0.1,0c0,0,0,0,0,0c0,0,0,0,0,0c0-0.1-0.2-0.2-1,0C12.7,17,12.5,17.1,12,17.1L12,17.1L12,17.1z"/>
				<path class="st62" d="M9.8,16.6c-0.1,0-0.3,0.1-0.4,0.1c-0.3,0.1-0.7,0.1-1.1-0.1c0,0.2,0.1,0.3,0.2,0.4c0,0,0.1,0.1,0.1,0.1
					c0,0,0,0,0,0c-0.2,0-0.5,0-0.7,0c0.5,0.6,1.1,0.8,1.8,0.4c0.4-0.2,0.7,0,1.1,0c0.4,0,0.4-0.3,0.3-0.6l0.1,0
					c0.1,0.2,0.2,0.7-0.3,0.6c-0.4,0-0.7-0.2-1.1,0c-0.6,0.3-1,0.3-1.6-0.1c-0.1-0.1-0.3-0.2-0.4-0.3c0,0,0,0,0,0
					c0.2,0.1,0.5,0.1,0.7,0.1c-0.1-0.1-0.3-0.4-0.3-0.5c0,0,0,0,0,0c0.3,0.1,0.4,0.2,0.7,0.2C9.2,16.8,9.6,16.6,9.8,16.6L9.8,16.6
					L9.8,16.6z"/>
				<path class="st4" d="M14.3,16.6c0.1,0,0.3,0.1,0.4,0.1c0.3,0.1,0.7,0.1,1.1-0.1c0,0.2-0.1,0.3-0.2,0.4c0,0-0.1,0.1-0.1,0.1
					c0,0,0,0,0,0c0.2,0,0.5,0,0.7,0c-0.5,0.6-1.1,0.8-1.8,0.4c-0.4-0.2-0.7,0-1.1,0c-0.4,0-0.4-0.3-0.3-0.6l0,0
					c-0.1,0.2-0.2,0.7,0.3,0.6c0.4,0,0.7-0.2,1.1,0c0.6,0.3,1,0.3,1.6-0.1c0.1-0.1,0.3-0.2,0.4-0.3c0,0,0,0,0,0
					c-0.2,0.1-0.5,0.1-0.7,0.1c0.1-0.1,0.3-0.4,0.3-0.5c0,0,0,0,0,0c-0.3,0.1-0.4,0.2-0.7,0.2C14.9,16.8,14.5,16.6,14.3,16.6
					L14.3,16.6L14.3,16.6z"/>
				<path class="st62" d="M12,16.2c-0.5,0-0.9-0.1-1.2-0.2c-0.3-0.1-0.6-0.1-0.9-0.1c-0.2,0-0.3,0.1-0.3,0.3c0,0.3,0.1,0.5,0.1,0.8
					c0,0.1,0.1,0.2,0.2,0.1c0.2,0,0.8-0.2,1,0c0.1,0.2,0,0.3-0.2,0.3c0,0,0,0,0,0c0.2,0,0.3-0.1,0.2-0.3c-0.1-0.2-0.7,0-1,0
					c-0.2,0-0.3,0-0.3-0.2c0-0.3-0.1-0.4-0.1-0.8c-0.1-0.6,0.9-0.3,1.2-0.2C11.2,16.1,11.6,16.1,12,16.2c0.5,0,0.8-0.1,1.2-0.2
					c0.3-0.1,1.3-0.3,1.2,0.2c-0.1,0.3-0.1,0.5-0.1,0.8c0,0.2-0.1,0.2-0.3,0.2c-0.2-0.1-0.8-0.2-1,0c-0.1,0.2,0,0.3,0.2,0.3
					c0,0,0,0,0,0c-0.2,0-0.3-0.1-0.2-0.3c0.1-0.2,0.8,0,1,0c0.1,0,0.2,0,0.2-0.1c0-0.3,0.1-0.5,0.1-0.8c0-0.2,0-0.3-0.3-0.3
					c-0.3,0-0.6,0-0.9,0.1C12.9,16.1,12.5,16.2,12,16.2L12,16.2L12,16.2z"/>
			</g>
			<g id="text">
				<path d="M10.5,16.7c-0.1,0-0.2,0-0.2,0l0-0.5l0.1,0l0,0.4c0,0,0.1,0,0.1,0c0,0,0.1,0,0.1,0l0,0.1C10.7,16.7,10.6,16.7,10.5,16.7
					L10.5,16.7z"/>
				<path d="M10.8,16.7l0-0.5l0.1,0l0,0.5L10.8,16.7z"/>
				<path d="M11.2,16.5L11.2,16.5c0.1,0,0.1,0,0.1,0C11.3,16.4,11.3,16.4,11.2,16.5L11.2,16.5L11.2,16.5L11.2,16.5z M11.2,16.6
					L11.2,16.6c0.1,0,0.1,0,0.1,0c0,0,0-0.1-0.1-0.1l0,0L11.2,16.6L11.2,16.6z M11.2,16.8l-0.2,0l0-0.5l0.2,0c0.1,0,0.2,0.1,0.2,0.2
					c0,0,0,0.1,0,0.1c0,0,0.1,0.1,0.1,0.1C11.4,16.7,11.4,16.8,11.2,16.8L11.2,16.8z"/>
				<path d="M11.7,16.8c-0.1,0-0.2,0-0.2,0l0-0.2l0-0.2l0.3,0l0,0l0,0l-0.2,0l0,0.1l0.2,0l0,0.1l-0.2,0l0,0.1
					C11.7,16.7,11.7,16.7,11.7,16.8c0.1-0.1,0.2-0.1,0.2-0.1l0,0.1C11.9,16.8,11.8,16.8,11.7,16.8L11.7,16.8z"/>
				<path d="M12.1,16.6C12.2,16.6,12.2,16.5,12.1,16.6c0.1-0.1,0.1-0.1,0-0.1l-0.1,0L12.1,16.6L12.1,16.6L12.1,16.6z M12.4,16.8
					c-0.1,0-0.2-0.1-0.2-0.1l-0.1-0.1c0,0,0,0,0,0l0,0l0,0.2l-0.1,0l0-0.5l0.2,0c0.1,0,0.2,0,0.2,0.2c0,0.1,0,0.1-0.1,0.1l0,0
					C12.3,16.7,12.4,16.7,12.4,16.8L12.4,16.8L12.4,16.8z"/>
				<path d="M12.4,16.4L12.4,16.4l0.4-0.2l0,0.1l-0.2,0l0,0.4l-0.1,0l0-0.4L12.4,16.4z"/>
				<path d="M13.1,16.3c0,0.1,0,0.1,0,0.2c0,0,0.1,0,0.1,0C13.1,16.4,13.1,16.4,13.1,16.3L13.1,16.3z M13.2,16.7l0-0.1
					c0,0-0.1,0-0.1,0c0,0-0.1,0-0.1,0L13,16.7l-0.1,0l0.2-0.4l-0.1,0l0-0.1c0.1,0,0.2,0,0.3-0.1l0,0.1l-0.1,0l0.1,0.4L13.2,16.7
					L13.2,16.7z"/>
				<path d="M13.6,16.7c-0.1,0-0.1,0-0.2,0l0-0.1c0,0,0.1,0,0.1,0c0.1,0,0.1,0,0.1,0c0,0,0,0,0,0c0,0-0.1,0-0.1,0
					c-0.1,0-0.1-0.1-0.1-0.1c0-0.1,0.1-0.1,0.2-0.1c0.1,0,0.1,0,0.2,0l0,0.1c0,0-0.1,0-0.1,0c0,0-0.1,0-0.1,0c0,0,0,0,0,0
					c0,0,0.1,0,0.1,0c0.1,0,0.1,0.1,0.1,0.1C13.8,16.6,13.7,16.7,13.6,16.7L13.6,16.7z"/>
			</g>
		</g>
	</g>
</g>
</svg>
