<?xml version="1.0" encoding="utf-8"?>
<!-- Generator: Adobe Illustrator 20.1.0, SVG Export Plug-In . SVG Version: 6.00 Build 0)  -->
<svg version="1.1" id="Layer_1" xmlns="http://www.w3.org/2000/svg" xmlns:xlink="http://www.w3.org/1999/xlink" x="0px" y="0px"
	 viewBox="0 0 24 24" style="enable-background:new 0 0 24 24;" xml:space="preserve">
<style type="text/css">
	.st0{fill:#FEDF00;}
	.st1{fill:#D0103A;}
	.st2{fill:#0018A8;}
	.st3{fill:#C7B37F;}
	.st4{fill:none;stroke:#703D29;stroke-width:3.060429e-02;stroke-linejoin:round;}
	.st5{fill:none;stroke:#703D29;stroke-width:3.048669e-02;stroke-linecap:round;}
	.st6{fill:none;stroke:#703D29;stroke-width:3.751304e-02;}
	.st7{fill:none;stroke:#703D29;stroke-width:3.295621e-02;}
	.st8{fill:none;stroke:#703D29;stroke-width:3.295621e-02;stroke-linecap:round;}
	.st9{fill:none;stroke:#703D29;stroke-width:3.060429e-02;stroke-linecap:round;}
	.st10{fill:none;stroke:#703D29;stroke-width:3.107467e-02;}
	.st11{fill:none;stroke:#703D29;stroke-width:3.519053e-02;}
	.st12{fill:none;stroke:#703D29;stroke-width:3.986495e-02;}
	.st13{fill:none;stroke:#703D29;stroke-width:2.731161e-02;}
	.st14{fill:none;stroke:#703D29;stroke-width:2.931074e-02;}
	.st15{fill:none;stroke:#703D29;stroke-width:3.048669e-02;}
	.st16{fill:none;stroke:#703D29;stroke-width:2.590046e-02;}
	.st17{fill:none;stroke:#703D29;stroke-width:2.901675e-02;stroke-linecap:round;}
	.st18{fill:none;stroke:#703D29;stroke-width:2.901675e-02;}
	.st19{fill:none;stroke:#703D29;stroke-width:2.901675e-02;stroke-linecap:square;}
	.st20{fill:#C7B37F;stroke:#C7B37F;stroke-width:1.507313e-02;}
	.st21{fill:none;stroke:#C7B37F;stroke-width:2.901675e-02;stroke-linecap:round;}
	.st22{fill:none;stroke:#C7B37F;stroke-width:2.901675e-02;}
	.st23{fill:#703D29;stroke:#703D29;stroke-width:8.132214e-03;}
	.st24{fill:#703D29;}
	.st25{fill:#D52B1E;}
	.st26{fill:#FFFFFF;}
	.st27{fill:#D52B1E;stroke:#D52B1E;stroke-width:1.508165e-02;}
	.st28{fill:none;stroke:#FEDF00;stroke-width:2.901675e-02;stroke-linecap:round;}
	.st29{fill:#FCD900;stroke:#FEDF00;stroke-width:1.508165e-02;}
	.st30{fill:none;stroke:#FEDF00;stroke-width:2.901675e-02;}
	.st31{fill:#0065BD;}
	.st32{fill:none;stroke:#703D29;stroke-width:2.343095e-02;}
</style>
<g id="Andorra">
	<g>
		<path class="st0" d="M6.2,1.5v21c1.7,1,3.7,1.5,5.8,1.5s4.1-0.6,5.8-1.5v-21C16.1,0.6,14.1,0,12,0S7.9,0.6,6.2,1.5z"/>
		<path class="st1" d="M24,12c0-4.5-2.5-8.4-6.2-10.5v21C21.5,20.4,24,16.5,24,12z"/>
		<path class="st2" d="M0,12c0,4.5,2.5,8.4,6.2,10.5v-21C2.5,3.6,0,7.5,0,12z"/>
	</g>
	<g>
		<path class="st3" d="M11.1,7.2c0.4,0,0.5,0.3,0.9,0.3c0.2,0,0.3-0.1,0.5-0.2c0.1-0.1,0.2-0.1,0.4-0.1s0.3,0,0.3,0.2
			c0,0.1,0.1,0.2,0.1,0.3c0,0.2-0.1,0.2-0.1,0.4c0,0.1-0.1,0.1-0.1,0.2c0,0.2,0.3,0.3,0.4,0.3c0,0,0.4,0,0.6-0.2
			c-0.1,0-0.2-0.1-0.2-0.2C13.9,8.1,14,8,14.1,8h0.1c0,0,0,0,0-0.1c0.1,0,0.1-0.1,0.2-0.1h0.1c0,0,0,0,0.1,0s0.1,0,0.1,0h0.1
			c0,0,0,0.1,0.1,0.1c0,0,0.1,0,0.2,0c0.1,0,0.2,0,0.2,0.1v0.1c0,0,0.1,0,0.2,0.1c0,0,0,0,0,0.1c0,0,0,0.1,0.1,0.1c0,0,0,0,0.1,0
			s0.1,0.1,0.1,0.2v0.1c-0.1,0.3-0.3,0.4-0.5,0.7c-0.2,0-0.3,0.1-0.3,0.2c0,0,0,0.1,0.1,0.1c0-0.1,0-0.1,0.1-0.2
			c0.1,0,0.2,0.1,0.2,0.2v0.1c0.1,0,0.1-0.1,0.2-0.1h0.1c0.2,0,0.3,0.1,0.4,0.2c0.3,0.3,0.4,0.7,0.3,0.8c0,0.2,0,0.7-0.6,0.9
			c0.1,0,0.2,0.1,0.2,0.2c0,0.1-0.1,0.2-0.2,0.2c-0.1,0-0.1,0-0.2-0.1c-0.1,0.1-0.2,0.3-0.2,0.4c0,0.1,0,0.2,0.1,0.3
			c0,0.1,0.1,0.2,0.2,0.2c0-0.1,0.1-0.1,0.2-0.1c0.1,0,0.1,0,0.2,0.1c0,0,0,0,0,0.1c0,0,0,0,0.1,0.1v0.1c0,0,0,0,0.1,0.1v0.1
			c0,0.1-0.1,0.2-0.3,0.2h-0.1c0.1,0.1,0.1,0.1,0.2,0.2c0.1,0.1,0.1,0.2,0.1,0.4c0,0,0,0,0,0.1c0,0.2,0,0.3-0.1,0.5
			s-0.2,0.3-0.3,0.4c-0.3,0.2-0.4,0.2-0.7,0.3c-0.2,0-0.3,0.1-0.5,0.1c-0.3,0-0.4,0-0.6,0c-0.3,0-0.6,0.1-0.8,0.3
			c0.1,0.1,0.2,0.2,0.2,0.3c0,0.1-0.1,0.2-0.2,0.3h-0.1c0,0,0,0.1-0.1,0.1s-0.1,0-0.2,0c-0.1,0-0.2,0-0.3-0.1
			c-0.1,0.1-0.1,0.2-0.2,0.2h-0.1c-0.1,0-0.1,0-0.2-0.1c-0.1-0.1-0.1-0.1-0.2-0.2c-0.1,0.1-0.2,0.1-0.3,0.1s-0.1,0-0.2,0
			c0,0,0-0.1-0.1-0.1h-0.1c-0.1-0.1-0.2-0.2-0.2-0.3s0.1-0.2,0.2-0.3c-0.2-0.2-0.5-0.3-0.8-0.3s-0.4,0-0.6,0c-0.2,0-0.3,0-0.5-0.1
			c-0.1,0-0.2,0-0.4-0.1C8.3,15,8,14.7,8,14.2v-0.1c0-0.3,0.1-0.4,0.3-0.6H8.2c-0.1,0-0.2-0.1-0.2-0.3v-0.1c0,0,0,0,0.1-0.1v-0.1
			c0,0,0,0,0-0.1s0.1-0.2,0.2-0.2c0.1,0,0.1,0,0.2,0.1c0.1,0,0.1-0.1,0.1-0.2c0.1-0.1,0.1-0.2,0.1-0.4c0-0.1,0-0.2,0-0.3
			s0-0.1-0.1-0.2c0,0-0.1,0.1-0.2,0.1c-0.1,0-0.2-0.1-0.2-0.2c0-0.1,0-0.2,0.1-0.2c-0.1-0.1-0.1-0.1-0.2-0.1C8,11.1,7.9,11,7.9,10.9
			c-0.1-0.1-0.1-0.1-0.1-0.2c0-0.1,0-0.2,0-0.3c0,0,0,0,0-0.1c0-0.2,0.1-0.4,0.2-0.5C7.9,10,8,9.9,8.1,9.9s0.2-0.1,0.3-0.1h0.1
			c0.1,0,0.1,0,0.1,0l0,0c0,0,0,0,0-0.1s0.1-0.2,0.2-0.2c0.1,0,0.1,0.1,0.1,0.1V9.5c0-0.2-0.1-0.2-0.2-0.4C8.6,9,8.3,8.9,8.3,8.5
			c0-0.1,0-0.2,0.1-0.2h0.1c0,0,0,0,0-0.1c0,0,0,0,0.1-0.1c0,0,0.1,0,0.1-0.1c0,0,0,0,0.1-0.1c0.1,0,0.2,0,0.3,0h0.1l0,0
			c0,0,0,0,0.1-0.1h0.1c0.1,0,0.1,0,0.1,0l0,0h0.1c0.1,0,0.1,0,0.1,0s0,0.1,0.1,0.1c0,0,0,0,0.1,0s0.2,0.1,0.2,0.2
			c0,0.1,0,0.1-0.1,0.2H9.9c0.2,0.1,0.3,0.2,0.5,0.2s0.4-0.1,0.4-0.3c0-0.1,0-0.1-0.1-0.2c-0.1-0.1-0.1-0.2-0.1-0.4
			c0-0.1,0-0.2,0.1-0.3C10.9,7.3,11,7.2,11.1,7.2L11.1,7.2z"/>
		<g>
			<path class="st4" d="M9.9,8.3L10,8.4c0,0,0.1,0,0.2-0.1c0-0.1,0-0.1,0-0.2c0,0,0-0.1-0.1-0.1L9.9,8.3L9.9,8.3L9.9,8.3z"/>
			<path class="st5" d="M15.8,11.8c-0.1-0.1-0.2-0.1-0.2,0c0,0.2,0.1,0.2,0.2,0.2c0.1,0,0.1,0,0.1-0.1c0,0,0-0.1,0-0.2v-0.1
				c0,0,0,0-0.1-0.1c0,0-0.1,0-0.2,0c-0.3,0-0.5,0.3-0.6,0.6c0,0.1-0.1,0.3,0,0.6c0.1,0.2,0.2,0.4,0.3,0.5s0.2,0.1,0.3,0.2
				c0,0,0.1,0.1,0.2,0.1c0.1,0,0.1,0,0.2,0c0.2,0,0.2-0.2,0.1-0.3s-0.2-0.2-0.3,0c0,0,0,0,0,0.1v0.1c0.1,0,0.2,0,0.2-0.1"/>
			<path class="st6" d="M15,13.6c0.1-0.1,0.2-0.2,0.3-0.2s0.3,0,0.4,0.1c0.2,0.1,0.4,0.3,0.5,0.5c0,0.1,0,0.2,0,0.3
				c0,0.2,0,0.3-0.1,0.4c0,0.1-0.1,0.4-0.7,0.6c-0.3,0.1-0.8,0.2-1.2,0.2c-0.5,0-0.9,0-1.2,0.4"/>
			<g>
				<path class="st7" d="M15.1,14.1c0-0.1,0-0.1,0-0.2c0.1-0.1,0.2-0.1,0.3,0c0,0,0.1,0,0.1,0.1c0,0,0,0.1,0.1,0.1
					c0,0.1,0,0.1,0.1,0.1c0.1,0.3-0.1,0.7-0.3,0.8s-0.4,0.2-0.7,0.2c-0.1,0-0.2,0-0.3,0s-0.2,0-0.3,0s-0.1,0-0.2,0
					c-0.1,0-0.2,0-0.3,0s-0.2,0-0.3,0s-0.2,0-0.3,0h-0.1c0,0,0,0-0.1,0c-0.2,0-0.3,0.1-0.4,0.2l-0.1,0.1c0,0,0,0-0.1,0.1
					C12.1,15.7,12,15.8,12,16c0,0,0,0,0,0.1c0,0.1,0.1,0.2,0.2,0.2"/>
				<path class="st7" d="M12.5,8.4c0,0.1,0.1,0.1,0,0.2c0,0.1-0.1,0.1-0.2,0.1c-0.2,0-0.3-0.2-0.2-0.4s0.4-0.1,0.7,0
					c0-0.1,0-0.1,0-0.2c0,0,0.2-0.1,0.2-0.3c0-0.1,0-0.2,0-0.3c-0.1-0.1-0.1-0.1-0.2,0c-0.2,0.1-0.4,0.3-0.8,0.3
					c-0.4,0-0.6-0.2-0.8-0.3c-0.1,0-0.2,0-0.2,0c-0.1,0.1-0.1,0.2,0,0.3c0,0.2,0.2,0.3,0.2,0.5c0,0.1,0,0.1,0,0.2
					c0.3-0.1,0.6-0.3,0.7,0c0.1,0.1,0,0.4-0.2,0.4c-0.1,0-0.1-0.1-0.2-0.1c0-0.1,0-0.1,0-0.2"/>
				<path class="st8" d="M11.8,8.3c0.1,0.1,0.1,0.1,0.1,0.2c0,0.1,0,0.1-0.1,0.2"/>
				<path class="st8" d="M11.9,8.6c0,0.1,0,0.1-0.1,0.1"/>
			</g>
			<path class="st3" d="M10.1,8L10.1,8L10.1,8l0.1,0.1l0,0v0.1l0,0l0,0l0,0l0,0l0,0h-0.1l0,0l0,0l0,0l0,0l0,0l0,0V8L10.1,8z"/>
			<path class="st9" d="M10,8.2c0-0.1-0.1-0.1-0.1,0c-0.1,0.1,0,0.2,0.1,0.2c0,0,0.1,0,0.2-0.1c0-0.1,0-0.1,0-0.2c0,0,0-0.1-0.1-0.1
				C9.9,7.9,9.7,7.9,9.7,8.1C9.6,8.3,9.8,8.5,9.9,8.6c0.2,0.1,0.5,0.2,0.6,0.2c0.4,0,0.7-0.2,0.9-0.3h0.1v0.1"/>
			<path class="st10" d="M8.7,13.9L8.7,13.9L8.5,14v0.1l-0.1,0.1v0.1v0.1v0.1"/>
			<path class="st10" d="M9.3,13.9L9.3,13.9V14v0.1l-0.1,0.1l-0.1,0.1H9H8.9"/>
			<path class="st11" d="M12,16.1c0,0.1-0.1,0.2-0.2,0.2l0,0"/>
			<path class="st12" d="M15.9,13.7c0.1,0.1,0.2,0.2,0.2,0.4c0,0.1,0,0.2,0,0.3c0,0.2,0,0.3-0.1,0.4c0,0.1-0.1,0.4-0.7,0.6
				c-0.3,0.1-0.8,0.2-1.2,0.2c-0.5,0-0.9,0-1.2,0.3"/>
			<path class="st13" d="M15.1,14c0,0,0.2-0.1,0.3-0.1c0,0,0.1,0,0.1,0.1"/>
			<path class="st12" d="M15.8,13.5C15.8,13.6,15.8,13.6,15.8,13.5c0.1,0,0.2,0,0.2,0c0.1,0,0.2-0.2,0.1-0.3c0,0,0-0.1-0.1-0.1"/>
			<path class="st9" d="M8.4,10.1c-0.1,0.1-0.2,0.1-0.2,0.1c-0.1,0.1-0.1,0.2-0.1,0.3"/>
			<path class="st9" d="M10.2,8.2c0,0.1-0.1,0.1-0.1,0.1"/>
			<path class="st14" d="M15.6,9.8c0.2,0,0.8,0.2,0.9,0.9c0,0.7-0.5,0.9-0.6,0.9"/>
			<path class="st15" d="M15.6,9.8c0.4,0,0.8,0.3,0.8,0.9c0,0.5-0.4,0.8-0.6,0.8"/>
			<g>
				<path class="st16" d="M15.4,12.4L15.4,12.4v-0.2v-0.1V12l0.1-0.1"/>
				<path class="st16" d="M15.9,11.8L15.9,11.8v0.1l0,0l0,0h-0.1l0,0l0,0"/>
				<path class="st16" d="M15,9.6L15,9.6l0.1-0.1V9.4l0.1-0.1l0.1-0.1l0.1-0.1L15.5,9l0,0l0.1-0.1l0.1-0.1V8.7V8.6V8.5l0,0"/>
				<path class="st16" d="M15.1,14.3L15.1,14.3h0.1l0,0l0,0v-0.1l0,0"/>
				<path class="st16" d="M8.1,13.6L8.1,13.6h0.1h0.1"/>
				<path class="st16" d="M8.5,11.9L8.5,11.9L8.5,11.9V12l0,0l0,0l0,0l0,0"/>
				<path class="st16" d="M8.8,11.3L8.8,11.3v0.1v0.1H8.7H8.6H8.5"/>
				<path class="st16" d="M9.2,9.8L9.2,9.8v0.1l0,0l0,0L9,10l0,0l0,0"/>
				<path class="st16" d="M8.9,9.7L8.9,9.7"/>
			</g>
			<g>
				<path class="st17" d="M9,11.3L9,11.3"/>
				<path class="st17" d="M15.8,13.4C15.8,13.4,15.9,13.4,15.8,13.4c0.1,0,0.2,0,0.2-0.1"/>
				<path class="st18" d="M15.6,12c0,0.1,0.1,0.1,0.2,0.1c0.1,0,0.1,0,0.1-0.1c0,0,0-0.1,0-0.2v-0.1c0,0,0-0.1-0.1-0.1l0,0"/>
				<path class="st18" d="M16.1,13.2L16.1,13.2c0-0.1,0-0.1-0.1-0.2l0,0"/>
				<path class="st18" d="M16.1,13c0-0.1-0.1-0.1-0.2-0.2"/>
				<path class="st18" d="M15.7,13C15.7,13,15.7,12.9,15.7,13c-0.2-0.2-0.3-0.3-0.3-0.5s0.1-0.4,0.2-0.5"/>
				<path class="st18" d="M13,15.9L13,15.9l0.1-0.1l0.1-0.1h0.1h0.1h0.1h0.2"/>
				<path class="st18" d="M12.4,16.4c-0.1,0.1-0.2,0.2-0.3,0.3c-0.1-0.1-0.3-0.2-0.3-0.3"/>
				<path class="st17" d="M11.8,16.3c0,0.1-0.1,0.1-0.1,0.2"/>
				<path class="st18" d="M11.8,16.2v0.1"/>
				<path class="st18" d="M11.7,16.4L11.7,16.4l-0.1,0.1h-0.1"/>
				<path class="st18" d="M11.2,8.4V8.3c0-0.2-0.1-0.3-0.2-0.5c0-0.1,0-0.2,0-0.3c0.1-0.1,0.1-0.1,0.2,0c0.2,0.1,0.4,0.3,0.8,0.3
					c-0.4,0-0.6-0.2-0.8-0.3c-0.1,0-0.2,0-0.2,0c0,0.1,0,0.2,0,0.3C11.1,8,11.2,8.1,11.2,8.4L11.2,8.4"/>
				<path class="st18" d="M12,7.8c0.4,0,0.7-0.3,0.8-0.3s0.1,0,0.2,0.1c-0.1-0.1-0.1-0.1-0.2,0C12.6,7.6,12.4,7.8,12,7.8"/>
				<path class="st18" d="M15.7,13c-0.2-0.1-0.3-0.3-0.3-0.6c0-0.2,0.1-0.4,0.2-0.5"/>
				<path class="st18" d="M12.4,16.4c-0.1,0.1-0.2,0.2-0.3,0.3c-0.1-0.1-0.3-0.2-0.3-0.3"/>
				<path class="st17" d="M11.4,8.5c0,0,0.1,0,0.1-0.1h0.1v0.1"/>
				<path class="st18" d="M10.9,8.7c0.3-0.1,0.5-0.2,0.6-0.3"/>
				<path class="st18" d="M13,16C13,16.1,13,16.1,13,16C13,16.1,13,16.1,13,16c0.1,0.2,0,0.2,0,0.2c-0.1,0-0.1,0-0.2-0.1"/>
				<path class="st18" d="M10.9,8.7c0.3-0.1,0.5-0.2,0.6-0.3"/>
				<path class="st18" d="M16,13.4h-0.1h-0.1c-0.1-0.1-0.3-0.2-0.4-0.4c0-0.1-0.1-0.1-0.1-0.2c0-0.1,0-0.1,0-0.2c0-0.1,0-0.2,0-0.3
					c0-0.2,0.1-0.3,0.2-0.4c0.1-0.1,0.1-0.1,0.2-0.1"/>
				<path class="st18" d="M9.1,9.9c0.1,0.1,0.1,0.2,0.1,0.3s-0.1,0.4-0.4,0.5c-0.1,0-0.2,0-0.3,0"/>
				<path class="st18" d="M9.1,10.4c0.1,0,0.1,0.1,0.1,0.1s0,0.1-0.1,0.2c-0.1,0.1-0.2,0.2-0.4,0.2c-0.1,0-0.2,0-0.3-0.1
					s-0.2-0.2-0.2-0.2"/>
				<path class="st18" d="M9.1,10.7c0.1,0.1,0.1,0.1,0.1,0.2c0,0.1-0.1,0.2-0.2,0.3c0,0-0.1,0-0.1,0.1"/>
				<path class="st18" d="M14.9,10.3v0.2"/>
				<path class="st18" d="M14.9,10.3v0.2"/>
				<path class="st18" d="M14.9,9.8v0.3"/>
				<path class="st18" d="M14.9,9.7v0.4"/>
				<path class="st18" d="M14.8,13.9c-0.1,0.1-0.1,0.2-0.2,0.3c-0.1,0.1-0.2,0.1-0.3,0.2c-0.1,0.1-0.2,0.1-0.3,0.1s-0.2,0-0.3,0
					s-0.2,0-0.3,0s-0.2,0-0.3,0s-0.2,0-0.3,0s-0.2,0-0.3,0s-0.1,0-0.2,0.1c-0.1,0-0.3,0.1-0.3,0.2c0,0-0.2-0.1-0.3-0.2
					c-0.1,0-0.1,0-0.2-0.1c-0.1,0-0.2,0-0.3,0s-0.2,0-0.3,0s-0.2,0-0.3,0s-0.2,0-0.3,0s-0.2,0-0.3,0s-0.2,0-0.3-0.1
					s-0.2-0.1-0.3-0.2l0,0"/>
				<path class="st18" d="M11.4,16.6L11.4,16.6"/>
				<path class="st18" d="M12.9,16.4L12.9,16.4h0.2h0.1l0.1-0.1l0,0v-0.1l0,0"/>
				<path class="st18" d="M15.4,9.9c0-0.1,0-0.2-0.1-0.2"/>
				<path class="st18" d="M9.2,11.8C9.2,11.9,9.1,12,9,12"/>
				<path class="st18" d="M9.2,9.8C9.2,9.9,9.1,10,9,10s-0.2,0-0.2,0"/>
				<path class="st17" d="M8.5,10.3c0.1,0,0.1,0,0.1-0.1l-0.1-0.1"/>
				<path class="st18" d="M8.8,14.1C8.8,14.2,8.8,14.2,8.8,14.1c0.1,0,0.1,0.1,0.1,0s0-0.1,0-0.2c0-0.1-0.2-0.1-0.3,0
					c0,0-0.1,0-0.1,0.1c0,0,0,0.1-0.1,0.1c0,0.1,0,0.1-0.1,0.1c-0.1,0.3,0,0.5,0.2,0.7"/>
				<path class="st17" d="M13,16C13,16.1,13,16.1,13,16C13,16.1,13,16.1,13,16c0.1,0.1,0,0.2,0,0.2c-0.1,0-0.1,0-0.2-0.1"/>
				<path class="st18" d="M15.2,8.1c0.2,0,0.3,0.2,0.3,0.3c0,0.2-0.1,0.3-0.2,0.4c-0.1,0.2-0.5,0.4-0.5,0.8c0,0.2,0.1,0.3,0.2,0.4
					c0.1,0,0.2,0,0.2,0c0.1-0.1,0.1-0.3-0.1-0.3c-0.2,0-0.2,0.2,0,0.2"/>
				<path class="st18" d="M16,13c0-0.1-0.1-0.1-0.2-0.1c-0.1,0-0.2,0.1-0.2,0.2v0.1"/>
				<path class="st18" d="M15,9.9c-0.1,0.1-0.1,0.2-0.1,0.3s0.1,0.4,0.4,0.5c0.1,0,0.2,0,0.3,0"/>
				<path class="st18" d="M8.4,10.2c-0.1,0-0.2,0.1-0.2,0.2c-0.1,0.1-0.1,0.2-0.1,0.3c0,0,0,0.2,0,0.3s0.1,0.2,0.1,0.3
					c0,0,0,0,0,0.1c0,0,0,0,0.1,0"/>
				<path class="st18" d="M11.2,15.5c0.2,0.1,0.4,0.2,0.5,0.4c0,0.1,0.1,0.2,0.1,0.2c0,0.1-0.1,0.3-0.2,0.3
					c-0.1,0.1-0.2,0.1-0.3,0.1s-0.2-0.1-0.2-0.1"/>
				<path class="st18" d="M9,11.3c0.1,0.1,0.2,0.2,0.2,0.3c0,0.2-0.1,0.3-0.2,0.3"/>
				<path class="st17" d="M8.9,11.8c0.2,0.2,0.3,0.4,0.3,0.6c0,0.3-0.1,0.4-0.2,0.6"/>
				<path class="st18" d="M12.5,8.8l0.1-0.1c0-0.1,0-0.1,0-0.2c0,0.1,0,0.1,0,0.2C12.6,8.7,12.5,8.7,12.5,8.8"/>
				<path class="st18" d="M14.9,12.7v0.7l0,0v0.1v0.1"/>
				<path class="st18" d="M14.9,12.6v0.8l0,0v0.1v0.1"/>
				<path class="st18" d="M14.9,11.7v0.7"/>
				<path class="st18" d="M14.9,11.8v0.5"/>
				<path class="st18" d="M14.9,11.1v0.4"/>
				<path class="st18" d="M14.9,11v0.5"/>
				<path class="st18" d="M14.9,10.6v0.2"/>
				<path class="st18" d="M14.9,10.6v0.2"/>
				<path class="st18" d="M14.8,13.8C14.8,13.8,14.8,13.9,14.8,13.8c-0.1,0.1-0.1,0.2-0.2,0.3c-0.1,0.1-0.2,0.1-0.3,0.2
					c-0.1,0.1-0.2,0.1-0.3,0.1s-0.2,0-0.3,0s-0.2,0-0.3,0s-0.2,0-0.3,0s-0.2,0-0.3,0s-0.2,0-0.3,0s-0.1,0-0.2,0.1
					c-0.1,0-0.3,0.1-0.3,0.2c0,0-0.2-0.1-0.3-0.2c-0.1,0-0.1,0-0.2-0.1c-0.1,0-0.2,0-0.3,0s-0.2,0-0.3,0s-0.2,0-0.3,0s-0.2,0-0.3,0
					s-0.2,0-0.3,0s-0.2,0-0.3-0.1s-0.2-0.1-0.3-0.2L9.3,14"/>
				<path class="st18" d="M9.3,13.9c0,0.1,0,0.3-0.1,0.4c0,0-0.1,0.1-0.2,0.1c-0.2,0-0.2-0.1-0.2-0.1"/>
				<path class="st18" d="M9.1,13.8l0.1,0.1c0,0.1,0,0.2,0,0.3l0,0"/>
				<path class="st18" d="M8.2,15c0.1,0.1,0.3,0.2,0.5,0.3c0.3,0.1,0.8,0.2,1.2,0.2c0.5,0,0.9,0,1.1,0.3"/>
				<path class="st18" d="M11.8,15.7c0.1,0.1,0.2,0.2,0.2,0.3"/>
				<path class="st18" d="M11.7,16.5L11.7,16.5c-0.1,0.1-0.2,0.1-0.3,0.1s-0.2-0.1-0.2-0.1"/>
				<path class="st18" d="M10.9,16.3L10.9,16.3c0.1,0.1,0.2,0.1,0.2,0.1"/>
				<path class="st18" d="M12.4,16.5c-0.1,0.1-0.2,0.2-0.3,0.3c-0.1-0.1-0.3-0.2-0.3-0.3l0,0"/>
				<path class="st18" d="M12.4,16.5L12.4,16.5c0.1,0.1,0.2,0.1,0.3,0.1s0.2-0.1,0.2-0.1l0,0"/>
				<path class="st18" d="M12.9,16.4L12.9,16.4L12.9,16.4l-0.2,0.1h-0.1"/>
				<path class="st18" d="M13.1,15.9l0.1,0.1v0.1c0,0.1,0,0.1-0.1,0.2s-0.2,0.1-0.2,0.1l0,0"/>
				<path class="st18" d="M12.9,16.4L12.9,16.4c-0.1,0-0.2,0-0.2-0.1"/>
				<path class="st18" d="M15.6,13.2c-0.1-0.1-0.1-0.2-0.2-0.3c0-0.1-0.1-0.1-0.1-0.2c0-0.1,0-0.1,0-0.2c0-0.1,0-0.2,0-0.3
					c0-0.2,0.1-0.3,0.2-0.4l0.1-0.1"/>
				<path class="st18" d="M15.5,8.3c0.1,0,0.2,0.1,0.2,0.3S15.6,8.9,15.5,9C15.4,9.2,15,9.4,15,9.7c0,0,0,0.1,0.1,0.1"/>
				<path class="st18" d="M15,9.9C15,10,15,10,15,9.9c0.2,0.1,0.2,0.1,0.3,0.1"/>
				<path class="st18" d="M14.3,8l0.1,0.1c0.1,0.2-0.1,0.4-0.3,0.5c-0.1,0.1-0.3,0.1-0.4,0.2"/>
				<path class="st18" d="M14.1,8.4c0,0-0.1,0-0.1-0.1l0,0"/>
				<path class="st18" d="M13.2,8.5L13.2,8.5c-0.1-0.1-0.1-0.2-0.1-0.2c0-0.1,0.2-0.3,0.2-0.5c0-0.3-0.1-0.4-0.2-0.5"/>
				<path class="st17" d="M13.3,7.7L13.3,7.7v0.2L13.2,8v0.1v0.1v0.1l0,0l0,0"/>
				<path class="st17" d="M14.9,14.2L14.9,14.2c0.1,0.1,0.2,0.2,0.3,0.2c0.2,0,0.2-0.1,0.2-0.1c0-0.1,0-0.2-0.1-0.2c0,0,0,0-0.1,0"
					/>
				<path class="st18" d="M8.2,13.6c-0.1,0-0.1,0-0.2,0c-0.1,0-0.2-0.2-0.2-0.3"/>
				<path class="st18" d="M8.5,11.8L8.5,11.8c0,0.2-0.1,0.3-0.2,0.2c-0.1,0-0.1-0.1-0.1-0.1v-0.1"/>
				<path class="st18" d="M9.1,10.7C9.1,10.8,9.2,10.8,9.1,10.7"/>
				<path class="st18" d="M9.1,10.4C9.1,10.4,9.2,10.5,9.1,10.4"/>
				<path class="st17" d="M9.2,10.6c0,0,0,0.1-0.1,0.1c-0.1,0.1-0.2,0.2-0.4,0.2c-0.1,0-0.2,0-0.3-0.1s-0.2-0.2-0.2-0.3"/>
				<path class="st18" d="M9.1,9.9c0.1,0,0.1,0.1,0.1,0.2"/>
				<path class="st17" d="M9.2,10.3c0,0.1-0.2,0.3-0.4,0.4c-0.1,0-0.3,0-0.3,0"/>
				<path class="st18" d="M8.4,10.3c0,0.1,0.1,0.2,0.2,0.2c0.2,0,0.3-0.3,0.2-0.5"/>
				<path class="st17" d="M7.9,11.3L8,11.4c0.1,0.1,0.2,0.1,0.3,0.2"/>
				<path class="st17" d="M8.5,11.6c0.2,0,0.3-0.2,0.3-0.3s-0.1-0.2-0.2-0.2"/>
				<path class="st18" d="M8.8,9.6c0.1,0,0.1,0.1,0.1,0.1"/>
				<path class="st17" d="M8.8,8.5c0,0.1,0.1,0.2,0.2,0.3"/>
				<path class="st17" d="M15.7,10.2c0.1,0.1,0,0.3-0.2,0.3c-0.1,0-0.2,0-0.2-0.1"/>
				<path class="st18" d="M14.9,8.7v0.7"/>
				<path class="st17" d="M8.5,10.3c0.1,0,0.2,0,0.1-0.1c0-0.1-0.1-0.1-0.2,0c-0.1,0.1-0.1,0.4,0.2,0.4c0.2,0,0.3-0.3,0.2-0.5
					C8.6,9.7,8.2,9.8,8,9.9c-0.1,0.1-0.3,0.3-0.3,0.5c0,0.1,0,0.2,0,0.2c0,0.1,0,0.1,0,0.2c0,0.2,0.1,0.3,0.1,0.3s0,0.1,0.1,0.1
					c0,0,0,0.1,0.1,0.1c0.1,0.1,0.3,0.2,0.5,0.2c0.2,0,0.3-0.2,0.3-0.3c0-0.2-0.2-0.3-0.3-0.2s-0.1,0.2,0,0.3c0.1,0,0.1-0.1,0.1-0.1
					"/>
				<path class="st17" d="M14.5,7.9c0.1-0.1,0.2-0.1,0.3,0s0.1,0.2,0.1,0.3c0,0.1-0.1,0.2-0.2,0.3"/>
				<path class="st17" d="M14.8,8c0.2-0.1,0.3-0.1,0.4,0c0.1,0.1,0.1,0.2,0.1,0.3c0,0.2-0.1,0.3-0.3,0.4"/>
				<path class="st18" d="M15.5,8.3c0.1,0,0.2,0.1,0.2,0.2c0,0.2,0,0.3-0.2,0.4C15.4,9.1,15,9.4,15,9.6c0,0.1,0.1,0.2,0.2,0.2"/>
				<path class="st17" d="M15.5,10.3c-0.1,0-0.2,0-0.1-0.1c0-0.1,0.1-0.1,0.2-0.1c0.1,0.1,0.1,0.4-0.2,0.4c-0.2,0-0.4-0.3-0.2-0.5
					s0.5-0.2,0.8,0c0.1,0.1,0.3,0.3,0.3,0.5c0,0.3,0,0.7-0.3,1c-0.1,0.1-0.3,0.1-0.5,0.1s-0.3-0.2-0.3-0.3c0-0.2,0.2-0.2,0.3-0.2
					c0.1,0.1,0.1,0.2,0,0.3c-0.1,0-0.1-0.1-0.1-0.1"/>
				<path class="st18" d="M15.4,10.2c0-0.2,0.2-0.2,0.3-0.2c0.3,0,0.5,0.4,0.5,0.7c0,0.4-0.2,0.7-0.5,0.7c-0.1,0-0.2,0-0.2-0.1"/>
				<path class="st19" d="M15.6,10.1c0.3,0.1,0.4,0.4,0.4,0.6c0,0.2,0,0.5-0.5,0.6"/>
				<path class="st18" d="M16.1,13.2C16.1,13.2,16.1,13.1,16.1,13.2c0-0.1-0.1-0.2-0.2-0.2c-0.1,0-0.2,0.1-0.2,0.2
					c0,0.1,0,0.1,0.1,0.1"/>
				<path class="st17" d="M15.5,12.9c0.1,0.1,0.1,0.2,0.3,0.3"/>
				<path class="st17" d="M15.7,13.6c-0.2-0.1-0.4-0.2-0.7-0.1c-0.1,0-0.2,0.1-0.2,0.2c-0.1,0.2,0,0.4,0.1,0.4c0,0,0.1,0.1,0.2,0.1
					c0.2,0,0.2-0.1,0.2-0.1c0-0.1-0.1-0.2-0.1-0.2s-0.1,0-0.1,0.1v0.1"/>
				<path class="st17" d="M13,16.1c0,0.1,0,0.1-0.1,0.2c-0.1,0-0.2-0.1-0.2-0.1c0-0.1,0.1-0.2,0.2-0.2c0.1,0,0.2,0.1,0.2,0.2v0.1
					c0,0.1,0,0.1-0.1,0.2s-0.2,0.1-0.2,0.1c-0.2,0-0.3-0.2-0.3-0.4c0-0.4,0.5-0.5,0.7-0.6c0.3-0.1,0.4-0.1,0.8-0.1
					c0.2,0,0.3,0,0.5,0s0.2,0,0.4-0.1c0.2,0,0.4-0.1,0.6-0.3c0.1-0.1,0.2-0.2,0.3-0.4c0.1-0.1,0.1-0.4-0.1-0.6
					c-0.1-0.2-0.3-0.3-0.5-0.3s-0.3,0-0.4,0.2c0,0.1,0,0.2,0,0.3s0.1,0.1,0.2,0.1c0.2,0,0.2-0.1,0.2-0.1c0-0.1-0.1-0.2-0.1-0.2
					s-0.1,0-0.1,0.1v0.1"/>
				<path class="st17" d="M12.8,15.5c-0.2,0.1-0.4,0.2-0.5,0.4c0,0.1-0.1,0.2-0.1,0.2c0,0.1,0.1,0.3,0.2,0.3
					c0.1,0.1,0.2,0.1,0.3,0.1s0.2-0.1,0.2-0.1"/>
				<path class="st18" d="M15,11.3c-0.1,0-0.2,0.2-0.2,0.3c0,0.2,0.1,0.3,0.2,0.3"/>
				<path class="st17" d="M15.1,11.8c-0.2,0.2-0.3,0.4-0.3,0.6c0,0.3,0.1,0.4,0.2,0.6"/>
				<path class="st18" d="M14.1,8C14.1,8,14.2,7.9,14.1,8c0.1-0.1,0.2-0.2,0.3-0.1s0.2,0.2,0.1,0.4c0,0.1-0.1,0.2-0.2,0.3"/>
				<path class="st17" d="M9.5,7.9c-0.1-0.1-0.2,0-0.3,0C9.1,8,9.1,8.2,9.2,8.3c0,0.1,0.1,0.2,0.2,0.3"/>
				<path class="st18" d="M9.2,8C9.1,7.9,8.9,7.9,8.8,8c0,0.1,0,0.2,0,0.3c0,0.2,0.1,0.3,0.3,0.4"/>
				<path class="st18" d="M8.8,8.1c-0.2,0-0.3,0.1-0.3,0.3s0.1,0.3,0.2,0.4C8.8,9,9.2,9.3,9.2,9.6C9.2,9.8,9.1,9.9,9,10
					c-0.1,0-0.2,0-0.2,0c-0.2-0.2-0.1-0.4,0-0.4c0.2,0,0.2,0.2,0,0.2"/>
				<path class="st18" d="M8.5,8.3c-0.1,0-0.2,0.1-0.2,0.2c0,0.2,0.1,0.3,0.2,0.4C8.7,9.1,9,9.4,9,9.6c0,0.1-0.1,0.2-0.1,0.2"/>
				<path class="st17" d="M8.3,11.8c0.1-0.1,0.2-0.1,0.2,0C8.5,12,8.4,12,8.2,12c-0.1,0-0.1,0-0.1-0.1c0,0,0-0.1,0-0.2v-0.1
					c0,0,0,0,0.1-0.1c0,0,0.1,0,0.2,0c0.3,0,0.5,0.3,0.6,0.6c0,0.1,0.1,0.3,0,0.6c-0.1,0.2-0.2,0.4-0.3,0.5s-0.2,0.1-0.3,0.2
					c0,0-0.1,0.1-0.2,0.1c-0.1,0-0.1,0-0.2,0c-0.1,0-0.2-0.2-0.1-0.3s0.2-0.2,0.3,0c0,0,0,0,0,0.1v0.1c-0.1,0-0.2,0-0.2-0.1"/>
				<path class="st18" d="M8.1,13.4h0.1h0.1c0.1-0.1,0.3-0.2,0.4-0.4c0-0.1,0.1-0.1,0.1-0.2c0-0.1,0-0.1,0-0.2c0-0.1,0-0.2,0-0.3
					c0-0.2-0.1-0.3-0.2-0.4c-0.1-0.1-0.1-0.1-0.2-0.1"/>
				<path class="st18" d="M7.9,13.2C7.9,13.2,7.9,13.1,7.9,13.2C7.9,13.1,8,13,8.1,13s0.2,0.1,0.2,0.2c0,0.1,0,0.1-0.1,0.1"/>
				<path class="st18" d="M8,13c0-0.1,0.1-0.1,0.2-0.1c0.1,0,0.2,0.1,0.2,0.2v0.1"/>
				<path class="st18" d="M8.3,13c0.2-0.1,0.3-0.3,0.3-0.6c0-0.2-0.1-0.4-0.2-0.5"/>
				<path class="st17" d="M8.6,12.9c-0.1,0.1-0.1,0.2-0.3,0.3"/>
				<path class="st18" d="M9,13.5c0-0.1-0.1-0.1-0.3-0.2c-0.1,0-0.3,0-0.4,0.1C8.2,13.6,8,13.7,7.9,14c0,0.1,0,0.2,0,0.3
					c0,0.2,0,0.3,0.1,0.4c0,0.1,0.1,0.4,0.7,0.6c0.3,0.1,0.8,0.2,1.2,0.2c0.5,0,0.9,0,1.2,0.4"/>
				<path class="st17" d="M8.3,13.6c0.2-0.1,0.4-0.2,0.7-0.1c0.1,0,0.2,0.1,0.2,0.2c0.1,0.2,0,0.4-0.1,0.4c0,0-0.1,0.1-0.2,0.1
					c-0.2,0-0.2-0.1-0.2-0.1C8.7,14,8.8,14,8.8,14s0.1,0,0.1,0.1v0.1"/>
				<path class="st18" d="M8.9,14.1c0-0.1,0-0.1,0-0.2c0-0.1-0.2-0.1-0.3,0c0,0-0.1,0-0.1,0.1c0,0,0,0.1-0.1,0.1
					c0,0.1,0,0.1-0.1,0.1c-0.1,0.3,0.1,0.7,0.3,0.8s0.4,0.2,0.7,0.2c0.1,0,0.2,0,0.3,0s0.2,0,0.3,0s0.1,0,0.2,0c0.1,0,0.2,0,0.3,0
					s0.2,0,0.3,0s0.2,0,0.3,0h0.1c0,0,0,0,0.1,0c0.2,0,0.3,0.1,0.4,0.2c0,0,0.1,0,0.1,0.1c0,0,0,0,0.1,0.1s0.2,0.2,0.2,0.3
					c0,0,0,0,0,0.1c0,0.1-0.1,0.2-0.2,0.2"/>
				<path class="st18" d="M11.1,16.1c0,0.1,0,0.1,0.1,0.2c0.1,0,0.2-0.1,0.2-0.1c0-0.1-0.1-0.2-0.2-0.2c-0.1,0-0.2,0.1-0.2,0.2v0.1
					c0,0.1,0,0.1,0.1,0.2s0.2,0.1,0.2,0.1c0.2,0,0.3-0.2,0.3-0.4c0-0.4-0.5-0.5-0.7-0.6c-0.3-0.1-0.4-0.1-0.8-0.1
					c-0.2,0-0.3,0-0.5,0s-0.2,0-0.4-0.1c-0.2,0-0.4-0.1-0.6-0.3c-0.1-0.1-0.2-0.2-0.3-0.4c-0.1-0.1-0.1-0.4,0.1-0.6
					c0.1-0.2,0.3-0.3,0.5-0.3s0.3,0,0.4,0.2c0,0.1,0,0.2,0,0.3s-0.1,0.1-0.2,0.1c-0.2,0-0.2-0.1-0.2-0.1C8.7,14,8.8,14,8.8,14
					s0.1,0,0.1,0.1v0.1"/>
				<path class="st17" d="M9.9,8C9.9,8,9.9,7.9,9.9,8C9.8,7.8,9.7,7.8,9.6,7.9C9.4,8,9.4,8.1,9.4,8.3c0,0.1,0.1,0.2,0.2,0.3"/>
				<path class="st18" d="M14.2,8.3c-0.2,0.2-0.4,0.3-0.6,0.3c-0.1,0-0.3,0-0.3-0.1c-0.1,0-0.1-0.1-0.1-0.2c0-0.1,0.2-0.3,0.2-0.5
					c0-0.3-0.1-0.4-0.2-0.5c-0.3-0.1-0.6,0.2-0.8,0.2c-0.1,0-0.1,0-0.2,0c-0.1,0-0.1,0-0.2,0c-0.2-0.1-0.5-0.3-0.8-0.2
					C11,7.4,10.9,7.5,11,7.8c0,0.2,0.1,0.4,0.2,0.5c0,0.1,0,0.2-0.1,0.2c-0.1,0.1-0.3,0.1-0.3,0.1c-0.3,0-0.5-0.1-0.6-0.3"/>
				<path class="st17" d="M11,15.4c0,0,0,0,0.2,0.1s0.4,0.2,0.5,0.4c0,0.1,0.1,0.2,0.1,0.2v0.1"/>
				<path class="st18" d="M11,16.4h0.1c0.2,0,0.3-0.2,0.3-0.4c0-0.1-0.1-0.2-0.2-0.3"/>
				<path class="st17" d="M11.1,16.1c0,0.1,0,0.2,0.1,0.2s0.2-0.1,0.2-0.1c0-0.1,0-0.2-0.1-0.2"/>
				<path class="st18" d="M15.3,8.1c0.1,0,0.3,0.2,0.3,0.3c0,0.2-0.1,0.3-0.2,0.4C15.3,8.9,15.2,9,15.2,9"/>
				<path class="st17" d="M15.1,7.9C15.1,8,15.2,8,15.1,7.9c0.2,0.2,0.2,0.3,0.2,0.4c0,0.2-0.1,0.3-0.3,0.4"/>
				<path class="st17" d="M14.8,7.9L14.8,7.9c0.1,0.1,0.1,0.3,0.1,0.4s-0.1,0.2-0.2,0.3"/>
				<path class="st17" d="M14.5,7.9c0.1,0.1,0.2,0.2,0.1,0.4c0,0.1-0.1,0.2-0.2,0.2"/>
				<path class="st17" d="M14.9,10.4C14.9,10.5,15,10.5,14.9,10.4c0.1,0.2,0.2,0.2,0.4,0.3c0.1,0,0.2,0,0.3,0"/>
				<path class="st17" d="M8.1,13.1c0.1,0,0.1,0,0.2,0.1c0,0,0,0,0,0.1v0.1c-0.1,0-0.2,0-0.2-0.1"/>
				<path class="st18" d="M8.4,11.6c0.2,0,0.4,0.3,0.5,0.6c0,0.1,0.1,0.3,0,0.6c-0.1,0.2-0.2,0.4-0.3,0.5l-0.1,0.1l0,0"/>
				<path class="st18" d="M8.2,12.8c0.1,0,0.2,0.1,0.2,0.2v0.1"/>
				<path class="st18" d="M8.1,12.9c0.1,0,0.2,0.1,0.2,0.2c0,0.1,0,0.1-0.1,0.1"/>
				<path class="st17" d="M9,12c0.1,0.1,0.1,0.2,0.2,0.4"/>
				<path class="st17" d="M9.2,12.7c0,0.1,0,0.1-0.1,0.2c0,0.1-0.1,0.2-0.2,0.2"/>
				<path class="st18" d="M9,11.3c0.1,0.1,0.1,0.1,0.2,0.2"/>
				<path class="st17" d="M9.2,11.1c0,0.1-0.1,0.1-0.2,0.2"/>
				<path class="st17" d="M8.6,10.5L8.6,10.5l0.2-0.1v-0.1v-0.1v-0.1"/>
				<path class="st18" d="M8.4,10.1H8.3c-0.1,0-0.1,0.1-0.2,0.1c0,0.2-0.1,0.3-0.1,0.4c0,0,0,0.2,0,0.3s0.1,0.2,0.1,0.3
					c0,0,0,0,0,0.1c0.1,0.1,0.1,0.1,0.2,0.1"/>
				<path class="st17" d="M9,9.7c0,0.1,0,0.1-0.1,0.1"/>
				<path class="st18" d="M8.6,10.1c-0.1-0.1-0.3-0.1-0.5,0c0,0,0,0-0.1,0.1c0,0,0,0-0.1,0.1c0,0,0,0.1-0.1,0.1v0.1
					c0,0.1,0,0.3,0,0.3v0.1C7.9,11,8,11.1,8,11.2c0,0.1,0.1,0.2,0.4,0.2c0.1,0,0.2,0,0.2-0.1"/>
				<path class="st17" d="M14,8.2c0-0.1,0.1-0.1,0.1,0c0.1,0.1,0,0.2-0.1,0.2c0,0-0.1,0-0.2-0.1c0-0.1,0-0.1,0-0.2
					c0,0,0-0.1,0.1-0.1c0.1-0.1,0.3-0.1,0.4,0.1c0.1,0.2-0.1,0.4-0.3,0.5s-0.5,0.2-0.6,0.2c-0.4,0-0.7-0.2-0.9-0.3h-0.1v0.1"/>
				<path class="st17" d="M14.1,8.1C14.2,8.1,14.2,8.1,14.1,8.1c0.1,0.1,0.1,0.2,0,0.3"/>
				<path class="st17" d="M14.9,10.7c-0.2,0.2,0,0.5,0.1,0.5h0.1"/>
				<path class="st18" d="M14.9,10.4c-0.1,0-0.1,0.1-0.1,0.1c0,0.1,0,0.1,0.1,0.2c0.1,0.1,0.3,0.2,0.4,0.2c0.1,0,0.2,0,0.3-0.1
					s0.2-0.2,0.2-0.2"/>
				<path class="st18" d="M14.8,13.4v0.1c0,0.1,0,0.2-0.1,0.3s-0.1,0.2-0.2,0.3c-0.1,0.1-0.2,0.1-0.3,0.2c-0.1,0.1-0.2,0.1-0.3,0.1
					s-0.2,0-0.3,0s-0.2,0-0.3,0s-0.2,0-0.3,0s-0.2,0-0.3,0s-0.2,0-0.3,0s-0.1,0-0.2,0.1c-0.1,0.1-0.3,0.1-0.3,0.2
					c0,0-0.2-0.1-0.3-0.2c-0.1,0-0.1,0-0.2-0.1c-0.1,0-0.2,0-0.3,0s-0.2,0-0.3,0s-0.2,0-0.3,0s-0.2,0-0.3,0s-0.2,0-0.3,0
					s-0.2,0-0.3-0.1s-0.2-0.1-0.3-0.2c0.1-0.1,0-0.1,0-0.2c-0.1-0.1-0.1-0.2-0.1-0.3v-0.1l0,0V8.8h5.7L14.8,13.4L14.8,13.4
					L14.8,13.4z"/>
			</g>
			<g>
				<path class="st20" d="M8.7,14.1C8.7,14,8.8,14,8.8,14C8.9,14,9,14,9,14.1s-0.1,0.1-0.1,0.1C8.8,14.2,8.7,14.2,8.7,14.1z"/>
				<path class="st20" d="M8,13.3c0-0.1,0-0.1,0.1-0.1c0,0,0.1,0,0.1,0.1s0,0.1-0.1,0.1C8.1,13.4,8,13.3,8,13.3z"/>
				<path class="st3" d="M8.4,11.2C8.4,11.2,8.5,11.2,8.4,11.2c0.1-0.1,0.2,0,0.2,0C8.6,11.3,8.5,11.3,8.4,11.2
					C8.5,11.3,8.4,11.3,8.4,11.2z"/>
				<path class="st3" d="M9.8,8.2C9.8,8.2,9.9,8.1,9.8,8.2c0.1-0.1,0.1-0.1,0.1,0C10,8.3,10,8.3,9.8,8.2C9.9,8.3,9.8,8.3,9.8,8.2z"
					/>
			</g>
			<g>
				<path class="st21" d="M8.3,11.7L8.3,11.7C8.3,11.8,8.3,11.8,8.3,11.7c-0.1,0.1-0.1,0.1-0.1,0.1"/>
				<path class="st21" d="M8.5,13.1C8.5,13,8.5,13,8.5,13.1C8.5,13,8.5,13,8.5,13.1C8.6,13,8.6,13,8.6,13s0,0,0-0.1"/>
				<path class="st21" d="M8.5,13.5L8.5,13.5c-0.1,0-0.1,0-0.1,0.1c0,0,0,0-0.1,0c0,0,0,0-0.1,0"/>
				<path class="st21" d="M9,11.9L9,11.9C8.9,11.9,8.9,11.9,9,11.9c-0.1-0.1-0.1-0.1-0.1-0.1"/>
				<path class="st22" d="M9,11.3L9,11.3c-0.1,0-0.1,0-0.1,0"/>
				<path class="st21" d="M8.2,10.5C8.3,10.6,8.3,10.6,8.2,10.5c0,0.1,0,0.1,0.1,0.1c0,0,0,0,0.1,0.1c0,0,0,0,0.1,0.1c0,0,0,0,0.1,0
					"/>
				<path class="st21" d="M8.5,10.6L8.5,10.6c0.1,0,0.1,0,0.1,0s0,0,0.1,0c0,0,0,0,0.1,0"/>
				<path class="st21" d="M9.1,8.8C9,8.7,9,8.7,9.1,8.8C8.9,8.7,8.9,8.7,8.9,8.6c0,0,0,0-0.1-0.1c0,0,0,0,0-0.1"/>
				<path class="st21" d="M9.1,8.3C9.1,8.3,9.1,8.4,9.1,8.3c0,0.1,0.1,0.1,0.1,0.2l0.1,0.1"/>
				<path class="st21" d="M9.4,8.3C9.4,8.3,9.4,8.4,9.4,8.3c0,0.1,0.1,0.1,0.1,0.1s0,0,0.1,0.1c0,0,0.1,0,0.1,0.1"/>
			</g>
			<path class="st23" d="M12.6,7.9c0-0.1-0.1-0.1-0.1-0.1c-0.1,0-0.1,0.1-0.2,0.1C12.2,8,12.1,8,12,8s-0.2,0-0.3-0.1
				s-0.1-0.1-0.2-0.1c0,0-0.1,0-0.1,0.1l0,0l0,0V7.8h0.1c0.1,0,0.1,0.1,0.2,0.1C11.8,8,11.9,8,12,8s0.2,0,0.3-0.1
				C12.5,8,12.5,7.9,12.6,7.9L12.6,7.9C12.6,8,12.6,8,12.6,7.9C12.6,8,12.6,8,12.6,7.9C12.6,8,12.7,8,12.6,7.9z"/>
		</g>
		<g>
			<path class="st24" d="M9.5,14.5L9.5,14.5C9.5,14.4,9.5,14.4,9.5,14.5C9.5,14.4,9.5,14.4,9.5,14.5C9.5,14.4,9.5,14.4,9.5,14.5
				C9.4,14.4,9.4,14.4,9.5,14.5C9.4,14.4,9.5,14.4,9.5,14.5C9.4,14.5,9.4,14.5,9.5,14.5l-0.2,0.2l0,0l0,0v-0.2v-0.1l0,0l0,0
				c0,0,0,0-0.1,0l0,0l0,0l0,0l0,0v0.3l0,0l0,0L9.5,14.5L9.5,14.5z"/>
			<path class="st24" d="M9.6,14.5C9.6,14.5,9.7,14.5,9.6,14.5C9.7,14.5,9.7,14.5,9.6,14.5L9.6,14.5L9.6,14.5
				C9.5,14.4,9.5,14.4,9.6,14.5C9.5,14.5,9.6,14.5,9.6,14.5l-0.1,0.2c0,0,0,0-0.1,0l0,0c0,0,0,0,0.1,0h0.1l0,0
				C9.6,14.7,9.5,14.7,9.6,14.5L9.6,14.5L9.6,14.5z"/>
			<path class="st24" d="M9.8,14.6L9.8,14.6C9.9,14.6,9.9,14.6,9.8,14.6c0.1,0.1,0.1,0.2,0,0.1l0,0V14.6L9.8,14.6z M9.7,14.8
				C9.6,14.9,9.6,14.8,9.7,14.8C9.6,14.9,9.6,14.9,9.7,14.8C9.6,14.9,9.7,14.9,9.7,14.8c0,0.1,0.1,0.1,0.1,0.1
				C9.7,14.9,9.7,14.9,9.7,14.8C9.8,14.9,9.7,14.9,9.7,14.8L9.7,14.8c0.1-0.1,0.1-0.1,0.1-0.1l0,0v0.1v0.1h0.1l0,0l0,0l0,0
				c0-0.1,0-0.2,0-0.2l0,0c0,0,0,0,0-0.1c0,0,0-0.1-0.1-0.1H9.7c0,0,0,0-0.1,0l0,0c0,0,0.1,0,0,0.1L9.7,14.8L9.7,14.8z"/>
			<path class="st24" d="M10.1,14.9C10,15,10,14.9,10.1,14.9C10,15,10,15,10.1,14.9C10,15,10,15,10.1,14.9
				C10.1,15,10.1,15,10.1,14.9c0.1,0.1,0.1,0.1,0.1,0.1C10.2,15,10.1,15,10.1,14.9l0.1-0.2l0,0l0,0c0.1,0,0,0.1,0,0.1l0,0v-0.1l0,0
				h-0.1c-0.1,0-0.1,0-0.1,0l0,0v0.1l0,0c0,0,0-0.1,0.1-0.1l0,0l0,0V14.9L10.1,14.9z"/>
			<path class="st24" d="M10.6,14.8C10.7,14.7,10.7,14.8,10.6,14.8C10.7,14.7,10.7,14.7,10.6,14.8C10.6,14.7,10.6,14.7,10.6,14.8
				C10.6,14.7,10.6,14.7,10.6,14.8C10.6,14.7,10.6,14.7,10.6,14.8C10.6,14.7,10.6,14.7,10.6,14.8L10.6,14.8L10.5,15l0,0l0,0v-0.2
				v-0.1l0,0l0,0c0,0,0,0-0.1,0l0,0l0,0l0,0l0,0l0.1,0.3l0,0l0,0L10.6,14.8L10.6,14.8z"/>
			<path class="st24" d="M10.7,15.1L10.7,15.1L10.7,15.1c0.2,0.1,0.2,0,0.2,0c0-0.1,0-0.1-0.1-0.1s-0.1-0.1-0.1-0.1s0-0.1,0.1,0
				c0.1,0,0.1,0.1,0.1,0.1l0,0v-0.1l0,0l0,0c0,0,0,0-0.1,0s-0.1,0-0.1,0.1S10.7,15.1,10.7,15.1c0.2,0.1,0.2,0.1,0.2,0.1
				C10.8,15.1,10.8,15.1,10.7,15.1L10.7,15.1C10.7,15,10.7,15,10.7,15.1C10.7,15,10.7,15,10.7,15.1L10.7,15.1z"/>
			<path class="st24" d="M11.4,14.9C11.4,14.8,11.4,14.9,11.4,14.9C11.4,14.8,11.4,14.8,11.4,14.9C11.4,14.8,11.4,14.8,11.4,14.9
				C11.4,14.8,11.3,14.8,11.4,14.9C11.3,14.8,11.3,14.8,11.4,14.9C11.3,14.8,11.4,14.8,11.4,14.9C11.4,14.9,11.3,14.9,11.4,14.9
				l-0.1,0.2l0,0l0,0l-0.1-0.2v-0.1l0,0l0,0c0,0,0,0-0.1,0l0,0l0,0l0,0l0,0l0.1,0.3l0,0l0,0L11.4,14.9L11.4,14.9z"/>
			<path class="st24" d="M11.5,15.1C11.5,15.2,11.4,15.2,11.5,15.1C11.4,15.2,11.4,15.2,11.5,15.1C11.4,15.2,11.5,15.2,11.5,15.1
				C11.5,15.2,11.5,15.2,11.5,15.1C11.5,15.2,11.6,15.2,11.5,15.1C11.6,15.2,11.5,15.2,11.5,15.1v-0.2l0,0l0,0l0.2,0.3l0,0l0,0v-0.3
				c0-0.1,0,0,0-0.1l0,0c0,0,0,0-0.1,0c0,0,0,0-0.1,0l0,0c0,0,0.1,0,0.1,0.1L11.5,15.1L11.5,15.1L11.5,15.1l-0.1-0.2l0,0
				c0,0,0,0-0.1,0l0,0l0,0c0,0,0.1,0,0.1,0.1L11.5,15.1L11.5,15.1z"/>
			<path class="st24" d="M11.9,14.9C11.9,14.8,12,14.9,11.9,14.9C12,14.8,12,14.8,11.9,14.9C11.9,14.8,11.9,14.8,11.9,14.9
				C11.9,14.8,11.9,14.8,11.9,14.9c-0.1-0.1-0.1-0.1-0.1-0.1C11.8,14.9,11.9,14.8,11.9,14.9l-0.1,0.3c0,0.1,0,0,0,0.1l0,0
				c0,0,0,0,0.1,0H12l0,0c0,0-0.1,0-0.1-0.1V14.9L11.9,14.9z"/>
			<path class="st24" d="M12.2,15.2C12.2,15.2,12.1,15.2,12.2,15.2C12.1,15.2,12.1,15.2,12.2,15.2C12.1,15.2,12.2,15.2,12.2,15.2
				c0.1,0.1,0.1,0.1,0.1,0.1l0,0C12.3,15.2,12.2,15.2,12.2,15.2l0.1-0.3l0,0l0,0c0.1,0,0,0.1,0.1,0.1l0,0v-0.1l0,0c0,0-0.1,0-0.2,0
				c-0.1,0-0.1,0-0.2,0l0,0V15l0,0c0,0,0-0.1,0.1-0.1l0,0l0,0L12.2,15.2L12.2,15.2z"/>
			<path class="st24" d="M12.4,15L12.4,15L12.4,15v-0.1l0,0l0,0V15C12.5,15,12.5,15,12.4,15C12.5,15,12.5,15,12.4,15L12.4,15
				L12.4,15z M12.5,15.1L12.5,15.1C12.6,15.1,12.6,15.1,12.5,15.1c0,0.1,0,0.1,0,0.1l0,0c0,0,0,0,0.1,0c0,0,0,0,0.1,0l0,0l0,0
				l-0.2-0.3l0,0l0,0l-0.1,0.3l0,0l0,0l0,0l0,0l0,0h-0.1l0,0C12.4,15.1,12.4,15.1,12.5,15.1L12.5,15.1L12.5,15.1z"/>
			<path class="st24" d="M12.9,14.8L12.9,14.8c0.2-0.1,0.1,0,0.1,0l0,0v-0.1l0,0C13,14.8,13,14.8,12.9,14.8c-0.1-0.1-0.1-0.1-0.1,0
				l0,0C12.8,14.8,12.8,14.8,12.9,14.8v0.3c0,0.1,0,0,0,0.1l0,0c0,0,0,0,0.1,0c0,0,0,0,0.1,0l0,0c0,0-0.1,0-0.1-0.1V15l0,0l0,0l0,0
				l0,0v-0.1l0,0C13,14.9,13,14.9,12.9,14.8v0.1C12.9,14.9,12.9,14.9,12.9,14.8L12.9,14.8L12.9,14.8z"/>
			<path class="st24" d="M13.1,15c0,0.1,0.1,0.2,0.2,0.2c0.2,0,0.2-0.2,0.1-0.2c0-0.1-0.1-0.2-0.2-0.2C13.1,14.7,13.1,14.8,13.1,15
				L13.1,15z M13.1,14.9c0-0.1,0-0.2,0.1-0.2s0.1,0,0.2,0.2c0,0.1,0,0.2-0.1,0.2C13.2,15.1,13.2,15,13.1,14.9L13.1,14.9z"/>
			<path class="st24" d="M13.5,14.7L13.5,14.7c0.1-0.1,0.1,0,0.1,0s0,0.1-0.1,0.1l0,0V14.7L13.5,14.7z M13.5,15
				C13.5,15.1,13.5,15.1,13.5,15C13.5,15.1,13.5,15.1,13.5,15C13.5,15.1,13.6,15.1,13.5,15c0.1,0.1,0.1,0.1,0.1,0.1l0,0
				C13.6,15,13.6,15.1,13.5,15L13.5,15c0-0.1,0-0.1,0.1-0.1c0,0,0,0,0.1,0l0.1,0.1c0,0,0,0.1,0.1,0l0,0l0,0l0,0l0,0
				c-0.1-0.1-0.1-0.1-0.1-0.1l0,0c0,0,0,0,0-0.1c0,0,0-0.1-0.1-0.1h-0.1c0,0,0,0-0.1,0l0,0h0.1L13.5,15L13.5,15z"/>
			<path class="st24" d="M13.9,14.9C13.9,15,13.9,15,13.9,14.9C13.9,15,13.9,15,13.9,14.9C13.9,15,13.9,15,13.9,14.9
				C14,15,14,15,14,15l0,0C14.1,14.9,14,15,13.9,14.9v-0.3l0,0l0,0c0.1,0,0.1,0,0.1,0l0,0l0,0l0,0h-0.1c-0.1,0-0.1,0-0.1,0l0,0v0.1
				l0,0v-0.1l0,0l0,0L13.9,14.9L13.9,14.9z"/>
			<path class="st24" d="M14.2,14.6C14.2,14.5,14.2,14.5,14.2,14.6C14.2,14.5,14.2,14.5,14.2,14.6C14.1,14.5,14.1,14.5,14.2,14.6
				c-0.1,0-0.1,0-0.1,0l0,0C14.1,14.6,14.1,14.5,14.2,14.6v0.3c0,0.1,0,0,0,0.1l0,0c0,0,0,0,0.1,0h0.1l0,0h-0.1L14.2,14.6L14.2,14.6
				z"/>
			<path class="st24" d="M14.3,14.7c0,0.1,0.1,0.2,0.2,0.1c0.1,0,0.1-0.2,0.1-0.3s-0.1-0.2-0.2-0.1C14.3,14.5,14.2,14.6,14.3,14.7
				L14.3,14.7z M14.3,14.6c0-0.1,0-0.2,0.1-0.2s0.1,0,0.2,0.1c0,0.1,0,0.2-0.1,0.2C14.4,14.8,14.4,14.7,14.3,14.6z"/>
			<path class="st24" d="M14.7,14.4L14.7,14.4c0.1-0.1,0.1,0,0.1,0v0.1l0,0L14.7,14.4L14.7,14.4z M14.7,14.7L14.7,14.7L14.7,14.7
				C14.7,14.7,14.8,14.7,14.7,14.7c0.1,0,0.1,0,0.1,0l0,0C14.8,14.7,14.8,14.7,14.7,14.7L14.7,14.7c0-0.1,0-0.1,0-0.1s0,0,0.1,0
				l0.1,0.1c0,0,0.1,0.1,0.1,0l0,0l0,0l0,0l0,0c-0.1-0.1-0.1-0.1-0.1-0.1l0,0c0,0,0,0,0-0.1c0,0,0-0.1-0.1-0.1h-0.1c0,0,0,0-0.1,0
				l0,0c0,0,0,0,0.1,0V14.7L14.7,14.7z"/>
		</g>
		<g>
			<g>
				<path class="st25" d="M9.5,9h2.4v2.4H9.5V9z"/>
				<path id="mits_3_" class="st26" d="M10.6,10.9c0,0,0,0.1,0,0.2c0,0.1,0,0.1-0.1,0.1c0,0.1-0.1,0.1-0.1,0.1
					c-0.1,0-0.1,0.1-0.2,0.1c-0.2,0-0.2-0.2-0.3-0.3c0-0.2-0.1-0.2-0.2-0.2V11c0,0.1,0.1,0.1,0.1,0.1l-0.1,0.1c0,0-0.2,0-0.2-0.2
					c0-0.1,0-0.2,0.1-0.3c0.2-0.1,0.3,0.1,0.3,0.2c0.1,0.1,0.1,0.4,0.3,0.3c0.1,0,0.1-0.2,0.1-0.2l0.1-0.1L10.6,10.9L10.6,10.9
					L10.6,10.9z"/>
				<path class="st0" d="M10.9,9.9l0.3-0.3c0,0,0,0,0-0.1h-0.1l0,0l0,0h0.1l0,0l0,0h-0.1l0,0l0,0c0,0,0,0,0.1,0c0,0,0,0,0.1,0
					c0.1-0.1,0.3-0.2,0.4,0c0.1,0.1,0.1,0.3-0.1,0.4c-0.1,0-0.1,0-0.2,0l0.1-0.1c0.1,0,0.1,0,0.1-0.1s-0.1-0.1-0.1-0.1
					c-0.1,0-0.1,0-0.1,0.1v0.1v0.1c0,0,0,0.1-0.1,0.1L10.9,9.9l-1.2,1.5l-0.1-0.1L10.9,9.9L10.9,9.9z"/>
				<path class="st26" d="M10,10c0,0,0.1,0.4,0.3,1c0.1-0.1,0.2-0.1,0.4-0.1c0.1,0,0.2,0,0.4,0.1c0.3-0.6,0.3-1,0.3-1l-0.7-0.9
					L10,10z"/>
				<path class="st0" d="M10.7,9.4l0.5,0.6c0,0-0.1,0.3-0.3,0.8c-0.1,0-0.1,0-0.2,0V9.4L10.7,9.4z"/>
				<path class="st0" d="M10.6,9.4L10.1,10c0,0,0.1,0.3,0.3,0.8c0.1,0,0.1,0,0.2,0V9.4L10.6,9.4z"/>
			</g>
			<g>
				<path class="st0" d="M12.1,9h2.4v2.4h-2.4V9z"/>
				<path class="st25" d="M12.5,9h0.4v2.4h-0.4V9z"/>
				<path class="st25" d="M13.2,9h0.4v2.4h-0.4V9z"/>
				<path class="st25" d="M13.9,9h0.4v2.4h-0.4V9z"/>
			</g>
			<g>
				<path class="st0" d="M9.5,13.5c0,0,0,0.1,0.1,0.2c0,0.1,0,0.1,0.1,0.2C9.7,14,9.8,14,9.9,14c0.1,0,0.1,0,0.2,0.1
					c0.2,0.1,0.3,0.1,0.5,0c0.1,0,0.2,0,0.3,0s0.2,0,0.3,0s0.1,0,0.2,0c0.1,0,0.1,0,0.2,0c0.2,0,0.3,0.1,0.3,0.1v-2.5H9.5V13.5
					C9.5,13.4,9.5,13.5,9.5,13.5L9.5,13.5z"/>
				<path class="st27" d="M9.8,14L9.8,14l0.3,0.1v-2.4H9.8V14z"/>
				<path class="st27" d="M11.1,14.1v-2.4h-0.3v2.4C10.8,14.1,11,14.1,11.1,14.1L11.1,14.1z"/>
				<path class="st27" d="M11.6,11.7h-0.3v2.4c0.1,0,0.2,0,0.3,0V11.7L11.6,11.7z"/>
				<path class="st27" d="M10.6,11.7v2.4c0,0-0.2,0-0.3,0v-2.4L10.6,11.7z"/>
			</g>
			<g>
				<path class="st0" d="M14.6,13.5c0,0,0,0.1-0.1,0.2c0,0.1,0,0.1-0.1,0.2c0,0.1-0.1,0.1-0.2,0.1c-0.1,0-0.1,0-0.2,0.1
					c-0.2,0.1-0.3,0.1-0.5,0c-0.1,0-0.2,0-0.3,0s-0.2,0-0.3,0s-0.1,0-0.2,0c-0.1,0-0.1,0-0.2,0c-0.2,0-0.3,0.1-0.3,0.1v-2.5h2.4
					V13.5C14.6,13.4,14.6,13.5,14.6,13.5L14.6,13.5z"/>
				<g id="cow_3_">
					<path class="st25" d="M12.8,11.9L12.8,11.9C12.7,11.9,12.7,11.9,12.8,11.9C12.7,12,12.7,12,12.8,11.9
						C12.7,12,12.7,12,12.8,11.9C12.7,12,12.7,12,12.7,12l0,0l0,0l0,0l0,0l0,0l0,0l0,0l0,0l0,0l0,0c0,0,0,0,0.1,0l0,0l0,0l0,0l0,0
						l0,0l0,0l0,0l0,0l0,0h0.1l0,0l0,0c0,0.1,0,0.1,0,0.1l0,0l0,0c0,0,0,0,0,0.1c0,0,0,0,0,0.1c0,0,0,0,0,0.1c0,0,0,0,0,0.1
						c0,0,0,0,0,0.1l0,0l0,0l0,0l0,0l0,0l0,0l0,0c0,0,0,0,0-0.1l0,0c0,0,0,0,0.1-0.1l0,0l0,0l0,0l0,0l0,0v0.1l0,0l0,0c0,0,0,0,0,0.1
						c0,0,0,0,0,0.1l0,0l0,0l0,0l0,0l0,0l0,0l0,0l0,0l0,0l0,0l0,0c0,0,0,0,0-0.1l0,0c0,0,0,0,0-0.1c0,0,0,0,0-0.1c0.1,0,0.2,0,0.3,0
						l0,0h0.1l0,0l0,0l0,0l0,0l0,0l0,0l0,0l0,0l0,0l0,0l0,0l0,0l0,0l0,0l0,0l0,0l0,0l0,0l0,0l0,0l0,0l0,0c0,0,0,0-0.1,0l0,0l0,0l0,0
						l0,0l0,0l0,0l0,0l0,0c0-0.1,0-0.1,0.1-0.1l0,0l0,0l0,0l0,0l0,0l0,0c0,0,0,0,0,0.1c0,0,0,0,0,0.1c0,0,0,0,0,0.1l0,0l0,0l0,0l0,0
						l0,0l0,0l0,0l0,0l0,0c0-0.1,0-0.1,0-0.1s0,0,0-0.1l0,0c0-0.1,0-0.1,0-0.1l0,0c0,0,0,0,0-0.1v-0.1l0,0c0,0,0,0,0.1-0.1l0,0l0,0
						l0,0l0,0h-0.1h-0.1h-0.1c-0.1,0-0.1,0-0.2,0c-0.1,0-0.1,0-0.1,0c-0.1,0-0.1,0-0.2,0c-0.1,0-0.1,0-0.2,0c-0.1,0-0.1,0-0.1,0
						h-0.1l0,0l0,0l0,0l0,0l0,0l0,0l0,0C12.9,12,12.9,11.9,12.8,11.9L12.8,11.9L12.8,11.9z M12.8,12.3L12.8,12.3L12.8,12.3
						L12.8,12.3L12.8,12.3z"/>
					<g>
						<path class="st28" d="M14.1,12.3L14.1,12.3C14,12.3,14,12.3,14.1,12.3c-0.2,0-0.2,0-0.3,0h-0.1c0,0,0,0-0.1,0l0,0
							c0,0,0,0-0.1,0l0,0l0,0l0,0l0,0l0,0h0.1c0,0,0.1,0,0.2,0C14,12.2,14,12.2,14.1,12.3c0-0.1,0-0.1,0-0.1s0,0,0-0.1l0,0"/>
						<path class="st29" d="M12.8,12C12.8,12,12.7,12,12.8,12C12.7,12,12.7,12,12.8,12C12.7,12.1,12.7,12.1,12.8,12
							C12.7,12.1,12.8,12.1,12.8,12L12.8,12L12.8,12L12.8,12z"/>
						<path class="st28" d="M13.1,12.4L13.1,12.4C13.1,12.4,13.1,12.5,13.1,12.4c0,0.1,0,0.1,0,0.1l0,0l0,0"/>
						<path class="st28" d="M13.3,12.4L13.3,12.4c0,0.1,0,0.1,0,0.1l0,0"/>
						<path class="st28" d="M13,12.4c0,0,0,0.1,0.1,0.1"/>
						<path class="st30" d="M13.8,12.6L13.8,12.6C13.8,12.6,13.9,12.5,13.8,12.6"/>
						<path class="st28" d="M13.6,12.5L13.6,12.5c0.1,0,0.2-0.1,0.2-0.1"/>
						<path class="st28" d="M13.7,12.4L13.7,12.4c0.1,0,0.1,0,0.1,0c0.1,0,0.1,0.1,0.1,0.1l0,0l0,0"/>
						<path class="st29" d="M12.6,12.1L12.6,12.1L12.6,12.1L12.6,12.1L12.6,12.1L12.6,12.1C12.6,12.2,12.6,12.2,12.6,12.1
							C12.6,12.2,12.6,12.2,12.6,12.1C12.6,12.2,12.6,12.1,12.6,12.1L12.6,12.1L12.6,12.1L12.6,12.1z"/>
					</g>
					<g>
						<path class="st31" d="M12.8,12.4C12.8,12.4,12.7,12.4,12.8,12.4C12.7,12.4,12.7,12.4,12.8,12.4L12.8,12.4c0-0.1,0-0.1,0-0.1
							l0,0l0,0C12.8,12.3,12.8,12.3,12.8,12.4L12.8,12.4L12.8,12.4L12.8,12.4L12.8,12.4z"/>
						<path class="st31" d="M12.7,12.4C12.7,12.4,12.8,12.4,12.7,12.4C12.8,12.4,12.8,12.4,12.7,12.4C12.8,12.5,12.8,12.5,12.7,12.4
							C12.8,12.5,12.7,12.5,12.7,12.4z"/>
						<path class="st31" d="M12.7,12L12.7,12C12.7,11.9,12.7,11.9,12.7,12C12.7,11.9,12.7,11.9,12.7,12c0-0.1,0-0.1,0-0.1l0,0l0,0
							l0,0l0,0l0,0l0,0C12.7,11.8,12.7,11.9,12.7,12C12.7,11.9,12.7,11.9,12.7,12C12.7,11.9,12.7,11.9,12.7,12L12.7,12
							C12.7,11.9,12.7,11.9,12.7,12C12.7,11.9,12.7,12,12.7,12L12.7,12L12.7,12z"/>
						<path class="st31" d="M12.8,12.3L12.8,12.3c0.1,0,0.1,0,0.2-0.1c0-0.1,0-0.1,0-0.1V12l0,0c0,0.1,0,0.1,0,0.1
							C12.9,12.2,12.8,12.2,12.8,12.3L12.8,12.3L12.8,12.3z"/>
						<path class="st31" d="M12.9,12.8C13,12.8,13,12.8,12.9,12.8C13,12.8,13,12.7,12.9,12.8C13,12.7,13,12.7,12.9,12.8
							C13,12.7,13,12.8,12.9,12.8C13,12.8,13,12.8,12.9,12.8C13,12.8,13,12.8,12.9,12.8C13,12.8,13,12.9,12.9,12.8
							C13,12.8,12.9,12.8,12.9,12.8L12.9,12.8z"/>
						<path class="st31" d="M13.9,12.9L13.9,12.9C14,12.9,14,12.9,13.9,12.9C14,12.9,14,12.9,13.9,12.9C14,12.9,14,12.9,13.9,12.9
							L13.9,12.9L13.9,12.9L13.9,12.9L13.9,12.9L13.9,12.9z"/>
						<path class="st31" d="M13.6,12.8C13.6,12.8,13.7,12.8,13.6,12.8C13.7,12.8,13.7,12.8,13.6,12.8C13.7,12.8,13.7,12.8,13.6,12.8
							C13.7,12.9,13.7,12.9,13.6,12.8C13.7,12.9,13.7,12.9,13.6,12.8C13.6,12.9,13.6,12.9,13.6,12.8C13.6,12.9,13.6,12.9,13.6,12.8
							L13.6,12.8L13.6,12.8z"/>
						<path class="st31" d="M13.1,12.9L13.1,12.9C13.2,12.9,13.2,12.9,13.1,12.9C13.2,12.9,13.2,12.9,13.1,12.9
							C13.2,12.9,13.2,12.9,13.1,12.9L13.1,12.9L13.1,12.9L13.1,12.9L13.1,12.9L13.1,12.9z"/>
						<path class="st31" d="M12.9,12C12.8,12,12.8,12,12.9,12C12.8,11.9,12.8,11.9,12.9,12C12.9,11.9,12.9,11.9,12.9,12
							c0-0.1,0-0.1,0-0.1l0,0l0,0l0,0l0,0l0,0l0,0C12.9,11.9,12.9,11.9,12.9,12C12.9,11.9,12.9,11.9,12.9,12L12.9,12L12.9,12
							L12.9,12L12.9,12z"/>
					</g>
				</g>
				<g>
					<g id="cow_2_">
						<path class="st25" d="M12.8,13L12.8,13C12.7,13,12.7,13,12.8,13C12.7,13,12.7,13,12.8,13C12.7,13,12.7,13,12.8,13
							c-0.1,0.1-0.1,0.1-0.1,0.1l0,0l0,0l0,0l0,0l0,0l0,0l0,0l0,0l0,0l0,0c0,0,0,0,0.1,0l0,0l0,0l0,0l0,0l0,0l0,0l0,0l0,0l0,0h0.1
							l0,0l0,0c0,0.1,0,0.1,0,0.1l0,0l0,0c0,0,0,0,0,0.1c0,0,0,0,0,0.1c0,0,0,0,0,0.1c0,0,0,0,0,0.1c0,0,0,0,0,0.1l0,0l0,0l0,0l0,0
							l0,0l0,0l0,0c0,0,0,0,0-0.1l0,0c0,0,0,0,0.1-0.1l0,0l0,0l0,0l0,0l0,0v0.1l0,0l0,0c0,0,0,0,0,0.1c0,0,0,0,0,0.1l0,0l0,0l0,0
							l0,0l0,0l0,0l0,0l0,0l0,0l0,0l0,0c0,0,0,0,0-0.1l0,0c0,0,0,0,0-0.1c0,0,0,0,0-0.1c0.1,0,0.2,0,0.3,0l0,0h0.1l0,0l0,0l0,0l0,0
							l0,0l0,0l0,0l0,0l0,0l0,0l0,0l0,0l0,0l0,0l0,0l0,0l0,0l0,0l0,0l0,0l0,0l0,0c0,0,0,0-0.1,0l0,0l0,0l0,0l0,0l0,0l0,0l0,0l0,0
							c0-0.1,0-0.1,0.1-0.1l0,0l0,0l0,0l0,0l0,0l0,0c0,0,0,0,0,0.1c0,0,0,0,0,0.1c0,0,0,0,0,0.1l0,0l0,0l0,0l0,0l0,0l0,0l0,0l0,0
							l0,0c0-0.1,0-0.1,0-0.1s0,0,0-0.1l0,0c0-0.1,0-0.1,0-0.1l0,0c0,0,0,0,0-0.1v-0.1l0,0c0,0,0,0,0.1-0.1l0,0l0,0l0,0l0,0h-0.1
							h-0.1h-0.1c-0.1,0-0.1,0-0.2,0c-0.1,0-0.1,0-0.1,0c-0.1,0-0.1,0-0.2,0c-0.1,0-0.1,0-0.2,0c-0.1,0-0.1,0-0.1,0h-0.1l0,0l0,0
							l0,0l0,0l0,0l0,0l0,0C12.9,13,12.9,13,12.8,13L12.8,13L12.8,13z M12.8,13.3L12.8,13.3L12.8,13.3L12.8,13.3L12.8,13.3z"/>
						<g>
							<path class="st28" d="M14.1,13.4L14.1,13.4C14,13.4,14,13.4,14.1,13.4c-0.2,0-0.2,0-0.3,0h-0.1c0,0,0,0-0.1,0l0,0
								c0,0,0,0-0.1,0l0,0l0,0l0,0l0,0l0,0h0.1c0,0,0.1,0,0.2,0C14,13.3,14,13.3,14.1,13.4c0-0.1,0-0.1,0-0.1s0,0,0-0.1l0,0"/>
							<path class="st29" d="M12.8,13.1C12.8,13.1,12.7,13.1,12.8,13.1C12.7,13.1,12.7,13.1,12.8,13.1
								C12.7,13.1,12.7,13.1,12.8,13.1C12.7,13.1,12.8,13.1,12.8,13.1L12.8,13.1L12.8,13.1L12.8,13.1z"/>
							<path class="st28" d="M13.1,13.5L13.1,13.5L13.1,13.5c0,0.1,0,0.1,0,0.1l0,0l0,0"/>
							<path class="st28" d="M13.3,13.4C13.3,13.4,13.3,13.5,13.3,13.4c0,0.1,0,0.1,0,0.1l0,0"/>
							<path class="st28" d="M13,13.5c0,0,0,0.1,0.1,0.1"/>
							<path class="st30" d="M13.8,13.7L13.8,13.7C13.8,13.6,13.9,13.6,13.8,13.7"/>
							<path class="st28" d="M13.6,13.6L13.6,13.6c0.1,0,0.2-0.1,0.2-0.1"/>
							<path class="st28" d="M13.7,13.5L13.7,13.5c0.1,0,0.1,0,0.1,0c0.1,0,0.1,0.1,0.1,0.1l0,0l0,0"/>
							<path class="st29" d="M12.6,13.2L12.6,13.2L12.6,13.2L12.6,13.2L12.6,13.2L12.6,13.2L12.6,13.2L12.6,13.2L12.6,13.2
								L12.6,13.2L12.6,13.2L12.6,13.2z"/>
						</g>
						<g>
							<path class="st31" d="M12.8,13.5C12.8,13.5,12.7,13.5,12.8,13.5C12.7,13.5,12.7,13.5,12.8,13.5
								C12.8,13.4,12.8,13.4,12.8,13.5c0-0.1,0-0.1,0-0.1l0,0l0,0C12.8,13.4,12.8,13.4,12.8,13.5C12.8,13.4,12.8,13.5,12.8,13.5
								L12.8,13.5L12.8,13.5L12.8,13.5z"/>
							<path class="st31" d="M12.7,13.5C12.7,13.5,12.8,13.5,12.7,13.5C12.8,13.5,12.8,13.5,12.7,13.5
								C12.8,13.5,12.8,13.5,12.7,13.5C12.8,13.5,12.7,13.5,12.7,13.5z"/>
							<path class="st31" d="M12.7,13L12.7,13L12.7,13L12.7,13c0-0.1,0-0.1,0-0.1l0,0l0,0l0,0l0,0l0,0l0,0
								C12.7,12.9,12.7,12.9,12.7,13L12.7,13L12.7,13L12.7,13L12.7,13L12.7,13L12.7,13L12.7,13z"/>
							<path class="st31" d="M12.8,13.3L12.8,13.3c0.1,0,0.1,0,0.2-0.1c0-0.1,0-0.1,0-0.1h-0.1l0,0c0,0.1,0,0.1,0,0.1
								C12.9,13.3,12.8,13.3,12.8,13.3L12.8,13.3L12.8,13.3z"/>
							<path class="st31" d="M12.9,13.9C13,13.9,13,13.9,12.9,13.9C13,13.8,13,13.8,12.9,13.9C13,13.8,13,13.8,12.9,13.9
								C13,13.8,13,13.8,12.9,13.9C13,13.9,13,13.9,12.9,13.9C13,13.9,13,13.9,12.9,13.9C13,13.9,13,13.9,12.9,13.9
								C13,13.9,12.9,13.9,12.9,13.9L12.9,13.9z"/>
							<path class="st31" d="M13.9,13.9L13.9,13.9C14,14,14,14,13.9,13.9C14,14,14,14,13.9,13.9C14,14,14,14,13.9,13.9
								C13.9,14,13.9,14,13.9,13.9C13.9,14,13.9,14,13.9,13.9C13.9,14,13.9,14,13.9,13.9C13.9,14,13.9,13.9,13.9,13.9L13.9,13.9z"/>
							<path class="st31" d="M13.6,13.9C13.6,13.9,13.7,13.9,13.6,13.9C13.7,13.9,13.7,13.9,13.6,13.9
								C13.7,13.9,13.7,13.9,13.6,13.9C13.7,13.9,13.7,13.9,13.6,13.9C13.7,13.9,13.7,13.9,13.6,13.9L13.6,13.9L13.6,13.9L13.6,13.9
								L13.6,13.9z"/>
							<path class="st31" d="M13.1,13.9L13.1,13.9C13.2,14,13.2,14,13.1,13.9C13.2,14,13.2,14,13.1,13.9C13.2,14,13.2,14,13.1,13.9
								C13.1,14,13.1,14,13.1,13.9C13.1,14,13.1,14,13.1,13.9C13.1,14,13.1,14,13.1,13.9C13.1,14,13.1,13.9,13.1,13.9L13.1,13.9z"/>
							<path class="st31" d="M12.9,13.1C12.8,13.1,12.8,13,12.9,13.1C12.8,13,12.8,13,12.9,13.1C12.9,13,12.9,13,12.9,13.1
								c0-0.1,0-0.1,0-0.1l0,0l0,0l0,0l0,0l0,0l0,0C12.9,13,12.9,13,12.9,13.1C12.9,13,12.9,13,12.9,13.1C12.9,13,12.9,13,12.9,13.1
								L12.9,13.1L12.9,13.1L12.9,13.1z"/>
						</g>
					</g>
				</g>
			</g>
			<g>
				<path class="st32" d="M9.5,9h2.4v2.4H9.5V9z"/>
				<path class="st32" d="M12.1,9h2.4v2.4h-2.4V9z"/>
				<path class="st32" d="M9.5,13.5c0,0,0,0.1,0.1,0.2c0,0.1,0,0.1,0.1,0.2C9.7,14,9.8,14,9.9,14c0.1,0,0.1,0,0.2,0.1
					c0.2,0.1,0.3,0.1,0.5,0c0.1,0,0.2,0,0.3,0s0.2,0,0.3,0s0.1,0,0.2,0c0.1,0,0.1,0,0.2,0c0.2,0,0.3,0.1,0.3,0.1v-2.5H9.5V13.5
					C9.5,13.4,9.5,13.5,9.5,13.5L9.5,13.5z"/>
				<path class="st32" d="M14.6,13.5c0,0,0,0.1-0.1,0.2c0,0.1,0,0.1-0.1,0.2c0,0.1-0.1,0.1-0.2,0.1c-0.1,0-0.1,0-0.2,0.1
					c-0.2,0.1-0.3,0.1-0.5,0c-0.1,0-0.2,0-0.3,0s-0.2,0-0.3,0s-0.1,0-0.2,0c-0.1,0-0.1,0-0.2,0c-0.2,0-0.3,0.1-0.3,0.1v-2.5h2.4
					V13.5C14.6,13.4,14.6,13.5,14.6,13.5L14.6,13.5z"/>
			</g>
		</g>
	</g>
</g>
</svg>
