<?xml version="1.0" encoding="utf-8"?>
<!-- Generator: Adobe Illustrator 20.1.0, SVG Export Plug-In . SVG Version: 6.00 Build 0)  -->
<svg version="1.1" id="Layer_1" xmlns="http://www.w3.org/2000/svg" xmlns:xlink="http://www.w3.org/1999/xlink" x="0px" y="0px"
	 viewBox="0 0 24 24" style="enable-background:new 0 0 24 24;" xml:space="preserve">
<style type="text/css">
	.st0{fill:#FFFFFF;}
	.st1{fill:#CC0000;}
	.st2{fill:#009900;}
	.st3{fill:#AA1313;}
</style>
<g id="Belarus">
	<path class="st0" d="M4.6,21.5h0.1C4.6,21.5,4.6,21.4,4.6,21.5L4.6,21.5z"/>
	<path class="st0" d="M4.6,2.5L4.6,2.5c0,0.1,0.1,0,0.1,0H4.6z"/>
	<path class="st0" d="M0.7,8L0.7,8C0.7,8,0.7,8,0.7,8L0.7,8z"/>
	<path class="st1" d="M1.2,6.8L1.2,6.8C1.2,6.8,1.2,6.8,1.2,6.8L1.2,6.8z"/>
	<path class="st1" d="M1.4,17.7L1.4,17.7c0,0,0-0.1,0-0.1V17.7z"/>
	<path class="st1" d="M1.7,18.3h0.2c-0.1-0.1-0.1-0.2-0.2-0.3V18.3z"/>
	<path class="st1" d="M1.2,17.2L1.2,17.2C1.2,17.2,1.2,17.2,1.2,17.2L1.2,17.2z"/>
	<path class="st1" d="M0.7,16L0.7,16C0.7,16,0.7,16,0.7,16L0.7,16z"/>
	<path class="st2" d="M5.5,22.1C7.4,23.3,9.6,24,12,24c5.2,0,9.6-3.3,11.3-7.9H5.5V22.1z"/>
	<path class="st3" d="M23.3,16c0.5-1.3,0.7-2.6,0.7-4c0-6.6-5.4-12-12-12C9.6,0,7.4,0.7,5.5,1.9V16H23.3z"/>
	<path class="st3" d="M5.5,16.1h17.8c0,0,0-0.1,0-0.1L5.5,16.1L5.5,16.1z"/>
	<path class="st3" d="M0.9,16.6V16H0.7c0.1,0.4,0.3,0.7,0.5,1.1v-0.5H0.9z"/>
	<polygon class="st3" points="3,19.1 3.1,19.1 3.1,18.9 3.2,18.9 3.2,18.7 3.1,18.7 3.1,18.4 3,18.4 3,18.7 2.9,18.7 2.9,18.9 
		3,18.9 	"/>
	<path class="st3" d="M1.5,17.7c0.1,0.1,0.1,0.2,0.2,0.3v-0.3H1.5z"/>
	<polygon class="st3" points="2.5,5.1 2.5,4.9 2.4,4.9 2.4,5.1 2.3,5.1 2.3,5.3 2.4,5.3 2.4,5.6 2.5,5.6 2.5,5.3 2.6,5.3 2.6,5.1 	
		"/>
	<polygon class="st3" points="2.5,18.7 2.5,18.4 2.4,18.4 2.4,18.7 2.3,18.7 2.3,18.9 2.4,18.9 2.4,19.1 2.5,19.1 2.5,18.9 
		2.6,18.9 2.6,18.7 	"/>
	<path class="st3" d="M1.2,17.2c0.1,0.2,0.1,0.3,0.2,0.5v-0.5H1.2z"/>
	<path class="st3" d="M1.7,5.9C1.6,6,1.5,6.1,1.5,6.3h0.2V5.9z"/>
	<path class="st3" d="M3.8,3.6V3.2C3.8,3.3,3.7,3.4,3.6,3.4v0.2H3.8z"/>
	<polygon class="st3" points="3,5.6 3.1,5.6 3.1,5.3 3.2,5.3 3.2,5.1 3.1,5.1 3.1,4.9 3,4.9 3,5.1 2.9,5.1 2.9,5.3 3,5.3 	"/>
	<path class="st0" d="M0.9,7.4h0.2V6.9C1,7.2,0.8,7.6,0.7,8h0.2V7.4z"/>
	<path class="st3" d="M4.1,3.1L4.1,3.1C4.1,3,4,3.1,4.1,3.1L4.1,3.1z"/>
	<path class="st3" d="M1.4,6.4C1.3,6.5,1.3,6.7,1.2,6.8h0.2V6.4z"/>
	<path class="st3" d="M2.9,13.6H3v-0.5h0.4v-0.5h0.2v-0.4h0.2v-0.5H3.6v-0.4H3.3v-0.5H3v-0.5H2.9v-0.3H2.6v0.3H2.5v0.5H2.1v0.5H1.9
		v0.4H1.7v0.5h0.2v0.4h0.2v0.5h0.4v0.5h0.1v0.3h0.2V13.6z M3.5,11.7V12v0.3H3.2V12v-0.3H3.5z M2.6,10.8h0.2v0.6H2.6V10.8z M2,12.3
		V12v-0.3h0.2V12v0.3H2z M2.5,12.5v0.2H2.3v-0.3h0.1v-0.2h0.1v-0.5H2.4v-0.2H2.3v-0.3h0.2v0.2h0.1v0.2h0.2v-0.2H3v-0.2h0.2v0.3H3.1
		v0.2H3v0.5h0.1v0.2h0.1v0.3H3v-0.2H2.9v-0.2H2.6v0.2H2.5z M2.6,12.6h0.2v0.6H2.6V12.6z"/>
	<polygon class="st3" points="4.4,18.4 4.3,18.4 4.3,18.7 4.2,18.7 4.2,18.9 4.3,18.9 4.3,19.1 4.4,19.1 4.4,18.9 4.6,18.9 
		4.6,18.7 4.4,18.7 	"/>
	<path class="st3" d="M3.8,20.4H3.6v0.2c0.1,0.1,0.2,0.1,0.2,0.2V20.4z"/>
	<path class="st0" d="M4.8,2.5H4.7c0,0-0.1,0.1-0.1,0.1v0.5H4.3v0.6H4.1v0.6H3.8v0.6H3.6V4.2H3.3V3.7C3.1,4,2.9,4.2,2.6,4.5v0.1h0.2
		V4.3h0.4v0.3h0.1V5h0.1v0.5H3.3v0.3H3.2v0.3H2.9V5.8H2.6v0.3H2.3V5.8H2.1V5.5H2V5.3C1.9,5.5,1.9,5.6,1.8,5.7h0.1v0.6h0.2v0.6h0.2
		v0.6h0.2V8h0.2V7.4h0.2V6.8h0.2V6.3h0.2V5.7h0.2v0.6h0.2v0.6h0.2v0.6h0.2V8h0.2v0.6H4.6v0.6H4.3v0.6H4.1v0.6H3.8V9.7H3.6V9.1H3.3
		V8.5h0.2V7.8H3.3v0.5H3.1v0.9H3v0.6h0.4v0.5h0.2v0.3h0.2v0.6h0.2v-0.6h0.2v-0.3h0.2V9.9h0.2v1H4.6v0.5H4.3v0.4H4.1v0.5h0.2v0.4h0.2
		v0.5h0.2v1H4.6v-0.3H4.3v-0.3H4.1v-0.6H3.8v0.6H3.6v0.3H3.3v0.5H3v0.6h0.1v0.9h0.2v0.5h0.2v-0.7H3.3v-0.6h0.2v-0.6h0.2v-0.6h0.2
		v0.6h0.2v0.6h0.2v0.6h0.2V16H4.6v0.6H4.3v0.6H4.1v0.6H3.8v0.6H3.6v-0.6H3.3v-0.6H3.1v-0.6H2.9V16H2.6v0.6H2.4v0.6H2.1v0.6H1.9v0.6
		H1.8c0.1,0.1,0.1,0.2,0.2,0.3v-0.1h0.1v-0.3h0.1v-0.3h0.4v0.3h0.2v-0.3h0.4v0.3h0.1v0.3h0.1V19H3.3v0.3H3.2v0.3H2.9v-0.3H2.6v0.1
		c0.2,0.3,0.5,0.6,0.7,0.8v-0.5h0.2v-0.6h0.2v0.6h0.2v0.6h0.2v0.6h0.2v0.5c0,0,0.1,0.1,0.1,0.1h0.1v0.1c0.2,0.2,0.5,0.3,0.7,0.5v-6
		V16V1.9C5.3,2.1,5,2.2,4.8,2.5L4.8,2.5z M2.9,7.1H2.6V6.4h0.2V7.1z M2.9,17.6H2.6V17h0.2V17.6z M4.8,20.6H4.6v-0.7h0.2V20.6z
		 M4.8,19H4.7v0.3H4.6v0.3H4.2v-0.3H4.1V19H4v-0.5h0.1v-0.3h0.1v-0.3h0.4v0.3h0.1v0.3h0.1V19z M4.8,17.6H4.6V17h0.2V17.6z M4.8,14.8
		H4.6v-0.5h0.2V14.8z M4.8,12v0.3H4.6V12v-0.3h0.2V12z M4.8,9.7H4.6V9.2h0.2V9.7z M4.8,7.1H4.6V6.4h0.2V7.1z M4.8,5.5H4.7v0.3H4.6
		v0.3H4.2V5.8H4.1V5.5H4V5h0.1V4.7h0.1V4.3h0.4v0.3h0.1V5h0.1V5.5z M4.8,4.1H4.6V3.4h0.2V4.1z"/>
	<path class="st0" d="M0.7,15.5h0.2v-0.6h0.2v-0.6h0.2v-0.6h0.2v0.6h0.2v0.6h0.2v0.6H1.9v0.7h0.2v-0.5h0.2v-0.9h0.1v-0.6H2.1v-0.5
		H1.9v-0.3H1.7v-0.6H1.4v0.6H1.2v0.3H0.9v0.3H0.7v-1h0.2v-0.5h0.2v-0.4h0.2v-0.5H1.2v-0.4H0.9v-0.5H0.7v-1h0.2v0.3h0.2v0.3h0.2v0.6
		h0.2v-0.6h0.2v-0.3h0.2V9.8h0.4V9.2H2.4V8.3H2.1V7.8H1.9v0.7h0.2v0.6H1.9v0.6H1.7v0.6H1.4V9.7H1.2V9.1H0.9V8.5H0.7V8
		C0.2,9.3,0,10.6,0,12s0.2,2.7,0.7,4V15.5z M0.7,9.2h0.2v0.5H0.7V9.2z M0.7,12v-0.3h0.2V12v0.3H0.7V12z M0.7,14.3h0.2v0.5H0.7V14.3z
		"/>
	<polygon class="st3" points="4.4,4.9 4.3,4.9 4.3,5.1 4.2,5.1 4.2,5.3 4.3,5.3 4.3,5.6 4.4,5.6 4.4,5.3 4.6,5.3 4.6,5.1 4.4,5.1 	
		"/>
	<path class="st3" d="M4,20.9C4,21,4.1,21,4,20.9L4,20.9L4,20.9z"/>
	<polygon class="st0" points="0.9,12 0.9,11.7 0.7,11.7 0.7,12 0.8,11.9 	"/>
	<rect x="0.7" y="9.2" class="st0" width="0.2" height="0.5"/>
	<path class="st3" d="M2.1,5.5v0.3h0.1v0.3h0.4V5.8V5.3H2.5v0.2H2.4V5.3H2.3V5.1h0.1V4.9h0.1v0.2h0.1V4.7V4.5C2.4,4.8,2.2,5.1,2,5.3
		v0.1H2.1z"/>
	<path class="st3" d="M1.9,11.8v-0.4h0.2v-0.5h0.4v-0.5h0.1v-0.3V8V7.4H2.4V6.8H2.1V6.3H1.9V5.7H1.8C1.8,5.8,1.7,5.9,1.7,5.9v0.3
		H1.5c0,0,0,0.1-0.1,0.1v0.5H1.2c0,0,0,0,0,0v0.5H0.9V8H0.7c0,0,0,0,0,0.1v0.5h0.2v0.6h0.2v0.6h0.2v0.6h0.2V9.7h0.2V9.1h0.2V8.5H1.9
		V7.8h0.2v0.5h0.2v0.9h0.1v0.6H2.1v0.5H1.9v0.3H1.7v0.6H1.4v-0.6H1.2v-0.3H0.9V9.9H0.7v1h0.2v0.5h0.2v0.4h0.2h0.2H1.9z"/>
	<polygon class="st0" points="2.6,11.7 2.6,11.5 2.5,11.5 2.5,11.3 2.3,11.3 2.3,11.6 2.4,11.6 2.4,11.8 2.5,11.8 2.6,11.8 	"/>
	<polygon class="st0" points="2.3,12 2.3,11.7 2,11.7 2,12 2.1,11.9 	"/>
	<polygon class="st3" points="4.6,12 4.7,11.9 4.8,12 4.8,11.7 4.6,11.7 	"/>
	<rect x="4.6" y="9.2" class="st3" width="0.2" height="0.5"/>
	<rect x="4.6" y="3.4" class="st3" width="0.2" height="0.7"/>
	<rect x="4.6" y="6.4" class="st3" width="0.2" height="0.7"/>
	<path class="st3" d="M4.8,2.4c0,0-0.1,0.1-0.1,0.1L4.8,2.4L4.8,2.4z"/>
	<path class="st3" d="M3.6,4.2v0.6h0.2V4.2h0.2V3.6h0.2V3.1h0.2V2.6C4.4,2.7,4.2,2.9,4.1,3v0.1H4C3.9,3.1,3.9,3.2,3.8,3.2v0.4H3.6
		V3.4C3.5,3.5,3.4,3.6,3.3,3.7v0.5H3.6z"/>
	<path class="st3" d="M4.7,4.7H4.6V4.3H4.2v0.3H4.1V5H4v0.5h0.1v0.3h0.1v0.3h0.4V5.8h0.1V5.5h0.1V5H4.7V4.7z M4.6,5.3H4.4v0.2H4.3
		V5.3H4.2V5.1h0.1V4.9h0.1v0.2h0.1V5.3z"/>
	<polygon class="st3" points="3,5.1 3,4.9 3.1,4.9 3.1,5.1 3.2,5.1 3.2,5.3 3.1,5.3 3.1,5.6 3,5.6 3,5.3 2.9,5.3 2.9,5.8 2.9,6.1 
		3.2,6.1 3.2,5.8 3.3,5.8 3.3,5.5 3.5,5.5 3.5,5 3.3,5 3.3,4.7 3.2,4.7 3.2,4.3 2.9,4.3 2.9,4.7 2.9,5.1 	"/>
	<polygon class="st3" points="2.6,5.3 2.6,5.8 2.9,5.8 2.9,5.3 2.9,5.1 2.9,4.7 2.6,4.7 2.6,5.1 	"/>
	<polygon class="st3" points="2.9,10.4 3,10.4 3,10.9 3.3,10.9 3.3,11.4 3.6,11.4 3.6,11.8 3.8,11.8 4.1,11.8 4.3,11.8 4.3,11.4 
		4.6,11.4 4.6,10.9 4.8,10.9 4.8,9.9 4.6,9.9 4.6,10.2 4.3,10.2 4.3,10.6 4.1,10.6 4.1,11.1 3.8,11.1 3.8,10.6 3.6,10.6 3.6,10.2 
		3.3,10.2 3.3,9.8 3,9.8 3,9.2 3.1,9.2 3.1,8.3 3.3,8.3 3.3,7.8 3.6,7.8 3.6,8.5 3.3,8.5 3.3,9.1 3.6,9.1 3.6,9.7 3.8,9.7 3.8,10.2 
		4.1,10.2 4.1,9.7 4.3,9.7 4.3,9.1 4.6,9.1 4.6,8.5 4.8,8.5 4.8,8 4.6,8 4.6,7.4 4.3,7.4 4.3,6.8 4.1,6.8 4.1,6.3 3.8,6.3 3.8,5.7 
		3.6,5.7 3.6,6.3 3.3,6.3 3.3,6.8 3.1,6.8 3.1,7.4 2.9,7.4 2.9,8 2.9,10.1 	"/>
	<rect x="2.6" y="8" class="st0" width="0.2" height="2.2"/>
	<polygon class="st0" points="3.2,12 3.3,11.9 3.5,12 3.5,11.7 3.2,11.7 	"/>
	<polygon class="st0" points="3,11.8 3.1,11.8 3.1,11.6 3.2,11.6 3.2,11.3 3,11.3 3,11.5 2.9,11.5 2.9,11.7 2.9,11.8 	"/>
	<rect x="2.6" y="11.7" class="st0" width="0.2" height="0.1"/>
	<rect x="2.6" y="10.8" class="st0" width="0.2" height="0.6"/>
	<rect x="2.6" y="6.4" class="st3" width="0.2" height="0.7"/>
	<rect x="0.7" y="14.3" class="st3" width="0.2" height="0.5"/>
	<polygon class="st0" points="0.9,12 0.8,12.1 0.7,12 0.7,12.3 0.9,12.3 	"/>
	<polygon class="st3" points="0.9,12 0.8,11.9 0.7,12 0.8,12.1 	"/>
	<path class="st3" d="M2.6,18.9H2.5v0.2H2.4v-0.2H2.3v-0.2h0.1v-0.2h0.1v0.2h0.1v-0.5v-0.3H2.3v0.3H2.1v0.3H2v0.1
		c0.2,0.3,0.4,0.6,0.6,0.8v-0.1V18.9z"/>
	<path class="st3" d="M1.9,17.7h0.2v-0.6h0.2v-0.6h0.2V16v-2.2v-0.3H2.5v-0.5H2.1v-0.5H1.9v-0.4H1.7H1.4H1.2v0.4H0.9v0.5H0.7v1h0.2
		v-0.3h0.2v-0.3h0.2v-0.6h0.2v0.6h0.2v0.3h0.2v0.5h0.4v0.6H2.4v0.9H2.1v0.5H1.9v-0.7h0.2v-0.6H1.9v-0.6H1.7v-0.6H1.4v0.6H1.2v0.6
		H0.9v0.6H0.7V16c0,0,0,0,0,0.1h0.2v0.6h0.2v0.5c0,0,0,0,0,0h0.2v0.5c0,0,0,0.1,0.1,0.1h0.2v0.3c0.1,0.1,0.1,0.2,0.2,0.3h0.1V17.7z"
		/>
	<rect x="1.4" y="11.8" class="st0" width="0.2" height="0.5"/>
	<polygon class="st0" points="2.6,12.3 2.6,12.2 2.5,12.2 2.4,12.2 2.4,12.4 2.3,12.4 2.3,12.7 2.5,12.7 2.5,12.5 2.6,12.5 	"/>
	<polygon class="st0" points="2.3,12 2.1,12.1 2,12 2,12.3 2.3,12.3 	"/>
	<rect x="2.5" y="11.8" class="st0" width="0.1" height="0.5"/>
	<polygon class="st0" points="2.3,12 2.1,11.9 2,12 2.1,12.1 	"/>
	<polygon class="st3" points="4.6,12 4.6,12.3 4.8,12.3 4.8,12 4.7,12.1 	"/>
	<rect x="4.6" y="17" class="st3" width="0.2" height="0.7"/>
	<rect x="4.6" y="14.3" class="st3" width="0.2" height="0.5"/>
	<rect x="4.6" y="19.9" class="st3" width="0.2" height="0.7"/>
	<polygon class="st3" points="4.6,12 4.7,12.1 4.8,12 4.7,11.9 	"/>
	<path class="st3" d="M4.7,21.5c0,0,0.1,0.1,0.1,0.1v-0.1H4.7z"/>
	<path class="st3" d="M4.3,20.9v-0.6H4.1v-0.6H3.8v-0.6H3.6v0.6H3.3v0.5c0.1,0.1,0.2,0.2,0.2,0.3v-0.2h0.2v0.4
		c0.1,0.1,0.1,0.1,0.2,0.2h0.1V21c0.2,0.1,0.3,0.3,0.5,0.4v-0.5H4.3z"/>
	<path class="st3" d="M4.7,18.2H4.6v-0.3H4.2v0.3H4.1v0.3H4V19h0.1v0.3h0.1v0.3h0.4v-0.3h0.1V19h0.1v-0.5H4.7V18.2z M4.6,18.9H4.4
		v0.2H4.3v-0.2H4.2v-0.2h0.1v-0.2h0.1v0.2h0.1V18.9z"/>
	<polygon class="st3" points="3,18.7 3,18.4 3.1,18.4 3.1,18.7 3.2,18.7 3.2,18.9 3.1,18.9 3.1,19.1 3,19.1 3,18.9 2.9,18.9 
		2.9,19.3 2.9,19.7 3.2,19.7 3.2,19.3 3.3,19.3 3.3,19 3.5,19 3.5,18.5 3.3,18.5 3.3,18.2 3.2,18.2 3.2,17.9 2.9,17.9 2.9,18.2 
		2.9,18.7 	"/>
	<polygon class="st3" points="2.6,18.9 2.6,19.3 2.9,19.3 2.9,18.9 2.9,18.7 2.9,18.2 2.6,18.2 2.6,18.7 	"/>
	<polygon class="st3" points="3.6,12.2 3.6,12.6 3.3,12.6 3.3,13.1 3,13.1 3,13.6 2.9,13.6 2.9,13.9 2.9,16 2.9,16.6 3.1,16.6 
		3.1,17.2 3.3,17.2 3.3,17.7 3.6,17.7 3.6,18.3 3.8,18.3 3.8,17.7 4.1,17.7 4.1,17.2 4.3,17.2 4.3,16.6 4.6,16.6 4.6,16 4.8,16 
		4.8,15.5 4.6,15.5 4.6,14.9 4.3,14.9 4.3,14.3 4.1,14.3 4.1,13.8 3.8,13.8 3.8,14.3 3.6,14.3 3.6,14.9 3.3,14.9 3.3,15.5 3.6,15.5 
		3.6,16.2 3.3,16.2 3.3,15.7 3.1,15.7 3.1,14.8 3,14.8 3,14.2 3.3,14.2 3.3,13.8 3.6,13.8 3.6,13.4 3.8,13.4 3.8,12.9 4.1,12.9 
		4.1,13.4 4.3,13.4 4.3,13.8 4.6,13.8 4.6,14.1 4.8,14.1 4.8,13.1 4.6,13.1 4.6,12.6 4.3,12.6 4.3,12.2 4.1,12.2 3.8,12.2 	"/>
	<rect x="3.8" y="11.8" class="st0" width="0.2" height="0.5"/>
	<rect x="2.6" y="13.9" class="st3" width="0.2" height="2.2"/>
	<polygon class="st0" points="3.2,12 3.2,12.3 3.5,12.3 3.5,12 3.3,12.1 	"/>
	<polygon class="st0" points="2.9,12.3 2.9,12.5 3,12.5 3,12.7 3.2,12.7 3.2,12.4 3.1,12.4 3.1,12.2 3,12.2 2.9,12.2 	"/>
	<polygon class="st0" points="3.2,12 3.3,12.1 3.5,12 3.3,11.9 	"/>
	<rect x="2.9" y="11.8" class="st0" width="0.1" height="0.5"/>
	<rect x="2.6" y="12.2" class="st0" width="0.2" height="0.1"/>
	<rect x="2.6" y="11.8" class="st0" width="0.2" height="0.5"/>
	<rect x="2.6" y="17" class="st3" width="0.2" height="0.7"/>
	<rect x="2.6" y="12.6" class="st0" width="0.2" height="0.6"/>
</g>
</svg>
