<?xml version="1.0" encoding="UTF-8" standalone="no"?>
<svg width="24px" height="24px" viewBox="0 0 24 24" version="1.1" xmlns="http://www.w3.org/2000/svg" xmlns:xlink="http://www.w3.org/1999/xlink">
    <!-- Generator: Sketch 39.1 (31720) - http://www.bohemiancoding.com/sketch -->
    <title>liechtenstein</title>
    <desc>Created with Sketch.</desc>
    <defs></defs>
    <g id="Page-1" stroke="none" stroke-width="1" fill="none" fill-rule="evenodd">
        <g id="liechtenstein">
            <g id="Liechtenstein">
                <path d="M12,0 C5.4,0 0,5.4 0,12 L24,12 C24,5.4 18.6,0 12,0 L12,0 Z" id="Shape" fill="#002B7F"></path>
                <path d="M12,24 C18.6,24 24,18.6 24,12 L0,12 C0,18.6 5.4,24 12,24 L12,24 Z" id="Shape" fill="#CE1126"></path>
                <g id="Group" transform="translate(5.000000, 2.000000)">
                    <g id="half_3_" transform="translate(0.000000, 2.000000)">
                        <path d="M4.2,0.9 L4.1,3.4 L1.6,3.4 C1.3,2.8 1,2.3 1,1.6 C1,1 1.5,0.6 2.1,0.6 C2.9,0.5 3.6,0.8 4.2,0.9 L4.2,0.9 Z" id="Shape" fill="#FFD83D"></path>
                        <g id="Group" transform="translate(1.000000, 0.000000)" stroke="#000000" stroke-width="0.0599858">
                            <path d="M0.3,1 L0.3,2.4" id="Shape" fill="#FFD83D"></path>
                            <path d="M0.5,0.9 L0.5,2.8" id="Shape" fill="#FFD83D"></path>
                            <path d="M0.7,0.8 L0.7,3" id="Shape" fill="#FFD83D"></path>
                            <path d="M0.9,0.7 L0.9,2.5" id="Shape" fill="#FFD83D"></path>
                            <path d="M1.2,0.7 L1.2,2.5" id="Shape" fill="#FFD83D"></path>
                            <path d="M1.4,0.6 L1.4,2.5" id="Shape" fill="#FFD83D"></path>
                            <path d="M1.6,0.6 L1.6,2.5" id="Shape" fill="#FFD83D"></path>
                            <path d="M1.8,0.7 L1.8,2.6" id="Shape" fill="#FFD83D"></path>
                            <path d="M2,0.7 L2,2.6" id="Shape" fill="#FFD83D"></path>
                            <path d="M2.2,0.8 L2.2,2.7" id="Shape" fill="#FFD83D"></path>
                            <path d="M2.4,0.8 L2.4,2.9" id="Shape" fill="#FFD83D"></path>
                            <path d="M2.6,0.8 L2.6,2.7" id="Shape" fill="#FFD83D"></path>
                            <path d="M2.8,0.8 L2.8,2.7" id="Shape" fill="#FFD83D"></path>
                            <path d="M1.6,0.7 C2,0.8 3,1.2 2.9,1.8 C2.7,2.7 2.2,2.3 1.6,2.2 L1.1,2.4 C0.9,2.6 0.6,2.7 0.5,2.5 L0.2,2.5 L0.2,3.6 L3.5,3.6 L3.5,0.9 L1.6,0.7 L1.6,0.7 Z" id="Shape" fill="#000000"></path>
                        </g>
                        <circle id="Oval" stroke="#000000" stroke-width="0.07998107" fill="#FFD83D" cx="4.1" cy="0.5" r="0.2"></circle>
                        <circle id="Oval" stroke="#000000" stroke-width="0.07998107" fill="#FFD83D" cx="3.6" cy="0.4" r="0.2"></circle>
                        <circle id="Oval" stroke="#000000" stroke-width="0.07998107" fill="#FFD83D" cx="3.2" cy="0.3" r="0.2"></circle>
                        <circle id="Oval" stroke="#000000" stroke-width="0.07998107" fill="#FFD83D" cx="2.7" cy="0.2" r="0.2"></circle>
                        <circle id="Oval" stroke="#000000" stroke-width="0.07998107" fill="#FFD83D" cx="2.3" cy="0.2" r="0.2"></circle>
                        <circle id="Oval" stroke="#000000" stroke-width="0.07998107" fill="#FFD83D" cx="1.8" cy="0.2" r="0.2"></circle>
                        <circle id="Oval" stroke="#000000" stroke-width="0.07998107" fill="#FFD83D" cx="1.4" cy="0.3" r="0.2"></circle>
                        <circle id="Oval" stroke="#000000" stroke-width="0.07998107" fill="#FFD83D" cx="1.1" cy="0.6" r="0.2"></circle>
                        <circle id="Oval" stroke="#000000" stroke-width="0.07998107" fill="#FFD83D" cx="0.8" cy="1" r="0.2"></circle>
                        <circle id="Oval" stroke="#000000" stroke-width="0.07998107" fill="#FFD83D" cx="0.7" cy="1.4" r="0.2"></circle>
                        <circle id="Oval" stroke="#000000" stroke-width="0.07998107" fill="#FFD83D" cx="0.7" cy="1.9" r="0.2"></circle>
                        <circle id="Oval" stroke="#000000" stroke-width="0.07998107" fill="#FFD83D" cx="0.8" cy="2.3" r="0.2"></circle>
                        <path d="M4.2,0.8 L4.2,1.1 C3.7,1 3,0.7 2.3,0.7 C1.7,0.7 1.2,0.9 1.2,1.5 C1.2,2.1 1.5,2.6 1.8,3.2 L1.5,3.4 C1.2,2.8 0.9,2.3 0.9,1.6 C0.9,1 1.4,0.4 2.1,0.4 C2.9,0.4 3.6,0.6 4.2,0.8 L4.2,0.8 Z" id="Shape" stroke="#000000" stroke-width="0.07998107" fill="#FFD83D"></path>
                    </g>
                    <g transform="translate(6.437500, 4.000000) scale(-1, 1) translate(-6.437500, -4.000000) translate(3.937500, 2.000000)" id="half_2_">
                        <g>
                            <g id="Group-2" transform="translate(2.500000, 2.000000) scale(-1, 1) translate(-2.500000, -2.000000) ">
                                <path d="M0.7,0.9 L0.8,3.4 L3.3,3.4 C3.6,2.8 3.9,2.3 3.9,1.6 C3.9,1 3.4,0.6 2.8,0.6 C2,0.5 1.3,0.8 0.7,0.9 L0.7,0.9 Z" id="Shape" fill="#FFD83D"></path>
                                <path d="M3.5,1 L3.5,2.4" id="Shape" stroke="#000000" stroke-width="0.0599858" fill="#FFD83D"></path>
                                <path d="M3.3,0.9 L3.3,2.8" id="Shape" stroke="#000000" stroke-width="0.0599858" fill="#FFD83D"></path>
                                <path d="M3.1,0.8 L3.1,3" id="Shape" stroke="#000000" stroke-width="0.0599858" fill="#FFD83D"></path>
                                <path d="M2.9,0.7 L2.9,2.5" id="Shape" stroke="#000000" stroke-width="0.0599858" fill="#FFD83D"></path>
                                <path d="M2.7,0.7 L2.7,2.5" id="Shape" stroke="#000000" stroke-width="0.0599858" fill="#FFD83D"></path>
                                <path d="M2.5,0.6 L2.5,2.5" id="Shape" stroke="#000000" stroke-width="0.0599858" fill="#FFD83D"></path>
                                <path d="M2.3,0.6 L2.3,2.5" id="Shape" stroke="#000000" stroke-width="0.0599858" fill="#FFD83D"></path>
                                <path d="M2.1,0.7 L2.1,2.6" id="Shape" stroke="#000000" stroke-width="0.0599858" fill="#FFD83D"></path>
                                <path d="M1.9,0.7 L1.9,2.6" id="Shape" stroke="#000000" stroke-width="0.0599858" fill="#FFD83D"></path>
                                <path d="M1.7,0.8 L1.7,2.7" id="Shape" stroke="#000000" stroke-width="0.0599858" fill="#FFD83D"></path>
                                <path d="M1.5,0.8 L1.5,2.9" id="Shape" stroke="#000000" stroke-width="0.0599858" fill="#FFD83D"></path>
                                <path d="M1.3,0.8 L1.3,2.7" id="Shape" stroke="#000000" stroke-width="0.0599858" fill="#FFD83D"></path>
                                <path d="M1.1,0.8 L1.1,2.7" id="Shape" stroke="#000000" stroke-width="0.0599858" fill="#FFD83D"></path>
                                <path d="M2.3,0.7 C1.8,0.8 0.9,1.2 1,1.8 C1.2,2.6 1.6,2.3 2.3,2.2 L2.8,2.4 C3,2.6 3.2,2.7 3.4,2.5 L3.7,2.5 L3.7,3.6 L0.5,3.6 L0.5,0.9 L2.3,0.7 L2.3,0.7 Z" id="Shape" stroke="#000000" stroke-width="0.0599858" fill="#000000"></path>
                                <circle id="Oval" stroke="#000000" stroke-width="0.07998107" fill="#FFD83D" cx="0.8" cy="0.5" r="0.2"></circle>
                                <circle id="Oval" stroke="#000000" stroke-width="0.07998107" fill="#FFD83D" cx="1.2" cy="0.4" r="0.2"></circle>
                                <circle id="Oval" stroke="#000000" stroke-width="0.07998107" fill="#FFD83D" cx="1.7" cy="0.3" r="0.2"></circle>
                                <circle id="Oval" stroke="#000000" stroke-width="0.07998107" fill="#FFD83D" cx="2.2" cy="0.2" r="0.2"></circle>
                                <circle id="Oval" stroke="#000000" stroke-width="0.07998107" fill="#FFD83D" cx="2.6" cy="0.2" r="0.2"></circle>
                                <circle id="Oval" stroke="#000000" stroke-width="0.07998107" fill="#FFD83D" cx="3" cy="0.2" r="0.2"></circle>
                                <circle id="Oval" stroke="#000000" stroke-width="0.07998107" fill="#FFD83D" cx="3.5" cy="0.3" r="0.2"></circle>
                                <circle id="Oval" stroke="#000000" stroke-width="0.07998107" fill="#FFD83D" cx="3.8" cy="0.6" r="0.2"></circle>
                                <circle id="Oval" stroke="#000000" stroke-width="0.07998107" fill="#FFD83D" cx="4.1" cy="1" r="0.2"></circle>
                                <circle id="Oval" stroke="#000000" stroke-width="0.07998107" fill="#FFD83D" cx="4.2" cy="1.4" r="0.2"></circle>
                                <circle id="Oval" stroke="#000000" stroke-width="0.07998107" fill="#FFD83D" cx="4.2" cy="1.9" r="0.2"></circle>
                                <circle id="Oval" stroke="#000000" stroke-width="0.07998107" fill="#FFD83D" cx="4.1" cy="2.3" r="0.2"></circle>
                                <path d="M0.7,0.8 L0.7,1.1 C1.2,1 1.9,0.8 2.5,0.8 C3.1,0.8 3.6,1 3.6,1.6 C3.6,2.2 3.3,2.7 3,3.3 L3.3,3.5 C3.7,2.8 4,2.3 4,1.6 C4,1 3.5,0.4 2.8,0.4 C2,0.4 1.3,0.6 0.7,0.8 L0.7,0.8 Z" id="Shape" stroke="#000000" stroke-width="0.07998107" fill="#FFD83D"></path>
                            </g>
                        </g>
                    </g>
                    <path d="M4.4,0.1 L4.2,0.5 L4.4,0.9 L4.6,0.5 L4.4,0.1 L4.4,0.1 Z M4.4,1.1 L4.2,1.5 L4.4,1.9 L4.6,1.5 L4.4,1.1 L4.4,1.1 Z" id="Shape" stroke="#000000" stroke-width="0.07998107" fill="#FFD83D"></path>
                    <path d="M3.7,1 L4,1.2 L4.4,1 L4,0.8 L3.7,1 L3.7,1 Z M4.5,1 L4.8,1.2 L5.2,1 L4.8,0.8 L4.5,1 L4.5,1 Z" id="Shape" stroke="#000000" stroke-width="0.07998107" fill="#FFD83D"></path>
                    <circle id="Oval" stroke="#000000" stroke-width="0.07998107" fill="#FFD83D" cx="4.4" cy="1" r="0.2"></circle>
                    <circle id="Oval" stroke="#000000" stroke-width="0.07998107" fill="#FFD83D" cx="4.4" cy="2" r="0.4"></circle>
                    <path d="M4.3,1.6 L4.3,1.9 L4,1.9 M4.8,1.9 L4.5,1.9 L4.5,1.6 M4,2.1 L4.4,2.1 L4.8,2.1" id="Shape" stroke="#000000" stroke-width="0.0599858"></path>
                    <path d="M4,2.7 C4,3.4 3.9,4.1 3.6,4.6 L4,4.4 C4.2,3.8 4.2,3.1 4.2,2.7 L4,2.7 L4,2.7 Z M4.8,2.7 L4.5,2.7 C4.5,3 4.6,3.8 4.7,4.4 L5.1,4.6 C5,4.1 4.9,3.4 4.8,2.7 L4.8,2.7 Z" id="Shape" stroke="#000000" stroke-width="0.07998107" fill="#FFD83D"></path>
                    <path d="M4.4,4.2 C3.9,4.2 3.5,4.4 3.5,5 C3.4,4.8 2.9,4.1 2.4,4.2 C2.1,4.3 1.8,4.7 1.8,5.2 C1.6,4.5 0.8,4.4 0.3,4.8 C0.8,5.2 1,6.3 1.4,6.8 L4.4,6.8 L7.4,6.8 C7.8,6.3 8,5.2 8.5,4.8 C8,4.3 7.3,4.5 7,5.2 C7,4.7 6.8,4.3 6.5,4.3 C6,4.2 5.5,4.9 5.3,5.1 C5.3,4.4 5,4.2 4.4,4.2 L4.4,4.2 Z" id="Shape" stroke="#000000" stroke-width="0.07998107" fill="#FFD83D"></path>
                    <g transform="translate(0.000000, 2.000000)">
                        <path d="M7.4,4.8 C7.4,5 6.1,5.3 4.4,5.3 C2.7,5.3 1.4,5.1 1.4,4.8 C1.4,4.6 2.7,4.5 4.4,4.5 C6.1,4.5 7.4,4.5 7.4,4.8 L7.4,4.8 Z" id="Shape" stroke="#000000" stroke-width="0.0599858" fill="#000000"></path>
                        <circle id="Oval" stroke="#000000" stroke-width="0.0599858" fill="#FFD83D" cx="4.4" cy="0.6" r="0.1"></circle>
                        <circle id="Oval" stroke="#000000" stroke-width="0.0599858" fill="#FFD83D" cx="4.4" cy="0.9" r="0.1"></circle>
                        <circle id="Oval" stroke="#000000" stroke-width="0.0599858" fill="#FFD83D" cx="4.4" cy="1.2" r="0.2"></circle>
                        <circle id="Oval" stroke="#000000" stroke-width="0.0599858" fill="#FFD83D" cx="4.4" cy="1.6" r="0.2"></circle>
                        <circle id="Oval" stroke="#000000" stroke-width="0.0599858" fill="#FFD83D" cx="4.4" cy="2" r="0.2"></circle>
                        <path d="M4.4,2.4 C4.3,2.4 4.3,2.4 4.4,2.4 L4.4,2.6 C4.4,2.7 4.4,2.6 4.5,2.6 C4.4,2.5 4.4,2.5 4.4,2.4 L4.4,2.4 L4.4,2.4 Z M4.5,2.4 L4.5,2.4 L4.5,2.6 C4.5,2.6 4.5,2.7 4.6,2.6 C4.5,2.5 4.6,2.5 4.5,2.4 L4.5,2.4 L4.5,2.4 Z M4.2,2.4 L4.2,2.4 L4.2,2.6 C4.2,2.7 4.2,2.6 4.3,2.6 C4.2,2.5 4.3,2.5 4.2,2.4 L4.2,2.4 L4.2,2.4 L4.2,2.4 Z M4.7,2.4 C4.6,2.4 4.6,2.4 4.7,2.4 L4.7,2.6 C4.7,2.6 4.7,2.7 4.8,2.6 C4.7,2.5 4.7,2.5 4.7,2.4 L4.7,2.4 L4.7,2.4 L4.7,2.4 Z M4,2.5 L4,2.5 L4,2.7 L4,2.7 C4.1,2.6 4.1,2.6 4,2.5 L4,2.5 L4,2.5 Z M4.8,2.5 L4.8,2.5 L4.8,2.7 L4.8,2.7 C4.8,2.6 4.9,2.6 4.8,2.5 L4.8,2.5 L4.8,2.5 L4.8,2.5 Z M2.5,2.5 C2.4,2.5 2.4,2.5 2.5,2.5 C2.5,2.6 2.5,2.6 2.6,2.7 C2.6,2.8 2.7,2.7 2.6,2.7 C2.5,2.6 2.5,2.6 2.5,2.5 L2.5,2.5 L2.5,2.5 Z M6.4,2.5 L6.4,2.5 C6.3,2.6 6.3,2.7 6.3,2.7 C6.3,2.7 6.3,2.8 6.3,2.7 C6.4,2.6 6.4,2.6 6.4,2.5 L6.4,2.5 L6.4,2.5 Z M2.6,2.5 L2.6,2.5 C2.6,2.6 2.6,2.6 2.7,2.7 L2.7,2.7 C2.7,2.6 2.7,2.6 2.6,2.5 L2.6,2.5 L2.6,2.5 Z M6.2,2.5 L6.2,2.5 C6.1,2.6 6.1,2.7 6.1,2.7 C6.1,2.7 6.1,2.8 6.1,2.7 C6.2,2.6 6.3,2.6 6.2,2.5 L6.2,2.5 L6.2,2.5 L6.2,2.5 Z M2.8,2.5 L2.8,2.5 L2.8,2.7 C2.8,2.8 2.9,2.7 2.8,2.7 C2.9,2.7 2.9,2.6 2.8,2.5 L2.8,2.5 L2.8,2.5 Z M6.1,2.5 C6,2.5 6,2.5 6.1,2.5 C6,2.6 6,2.7 6,2.7 L6,2.7 C6,2.7 6.1,2.6 6.1,2.5 L6.1,2.5 L6.1,2.5 Z M2.3,2.5 C2.3,2.5 2.3,2.6 2.3,2.5 L2.3,2.7 L2.3,2.7 C2.4,2.7 2.4,2.6 2.3,2.5 L2.3,2.5 L2.3,2.5 Z M6.5,2.5 L6.5,2.5 C6.5,2.6 6.4,2.6 6.4,2.7 C6.4,2.8 6.4,2.8 6.4,2.7 C6.5,2.7 6.6,2.6 6.5,2.5 C6.6,2.6 6.6,2.5 6.5,2.5 L6.5,2.5 Z M3.9,2.6 C3.8,2.6 3.8,2.7 3.9,2.6 L3.9,2.8 C3.9,2.9 4,2.8 3.9,2.8 C3.9,2.8 3.9,2.8 3.9,2.6 C3.9,2.7 3.9,2.6 3.9,2.6 L3.9,2.6 Z M5,2.6 C5,2.6 5,2.7 5,2.6 L5,2.8 C5,2.8 5,2.9 5,2.8 C5,2.8 5,2.8 5,2.6 C5.1,2.7 5,2.6 5,2.6 L5,2.6 Z M4.4,2.7 L4.4,2.7 C4.4,2.9 4.4,3 4.3,3 L4.2,3 C4.2,3 4.1,3 4.1,2.9 C4,2.9 4,2.9 4,3 C4.2,3.3 4.4,3.5 4.4,3.9 L4.4,4 C4.4,4 4.4,4 4.4,3.9 C4.4,3.5 4.6,3.2 4.8,3 C4.9,2.9 4.8,2.9 4.8,2.9 C4.8,3 4.7,3 4.7,3 L4.6,3 C4.5,3 4.5,2.9 4.4,2.7 L4.4,2.7 L4.4,2.7 Z M3,2.6 L3,2.6 L3,2.6 L3,2.8 L3,2.8 C3.1,2.8 3.1,2.7 3,2.6 L3,2.6 L3,2.6 Z M5.8,2.6 L5.8,2.6 C5.7,2.7 5.7,2.7 5.7,2.8 C5.7,2.9 5.7,2.9 5.7,2.8 C5.8,2.8 5.9,2.7 5.8,2.6 L5.8,2.6 L5.8,2.6 L5.8,2.6 Z M2.2,2.6 C2.2,2.6 2.1,2.7 2.2,2.6 C2.2,2.7 2.3,2.8 2.3,2.8 L2.3,2.8 C2.3,2.8 2.3,2.7 2.2,2.6 C2.2,2.7 2.2,2.6 2.2,2.6 L2.2,2.6 Z M6.7,2.6 C6.7,2.6 6.7,2.7 6.7,2.6 C6.6,2.7 6.6,2.7 6.6,2.8 C6.6,2.8 6.6,2.9 6.6,2.8 C6.6,2.8 6.7,2.8 6.7,2.6 C6.7,2.7 6.7,2.6 6.7,2.6 L6.7,2.6 Z M0.9,2.8 L0.9,2.8 C0.9,2.9 1,2.9 1,3 L1,3 C1,2.9 1,2.9 0.9,2.8 L0.9,2.8 L0.9,2.8 Z M8,2.8 C7.9,2.8 7.9,2.8 8,2.8 L7.9,2.9 C7.9,2.9 7.9,3 7.9,2.9 C7.9,2.9 7.9,2.9 8,2.8 L8,2.8 L8,2.8 Z M1.1,2.8 L1.1,2.8 C1.1,2.9 1.1,3 1.2,3 C1.2,3 1.3,3.1 1.3,3 C1.2,3 1.2,2.9 1.1,2.8 L1.1,2.8 L1.1,2.8 Z M7.8,2.8 C7.7,2.8 7.7,2.8 7.8,2.8 C7.7,2.9 7.7,3 7.6,3 C7.6,3.1 7.6,3 7.7,3 C7.7,3 7.7,2.9 7.8,2.8 L7.8,2.8 L7.8,2.8 Z M0.7,2.8 C0.7,2.8 0.7,2.9 0.7,2.8 C0.7,2.9 0.8,2.9 0.8,2.9 L0.8,2.9 C0.9,2.9 0.8,2.9 0.7,2.8 L0.7,2.8 L0.7,2.8 Z M8.1,2.8 L8.1,2.8 L8,2.9 C8,2.9 8,3 8,2.9 C8.1,2.9 8.1,2.9 8.1,2.8 C8.2,2.9 8.2,2.8 8.1,2.8 L8.1,2.8 Z M3.8,2.9 C3.7,2.9 3.7,2.9 3.8,2.9 L3.8,3.1 L3.9,3.1 C3.8,3 3.8,3 3.8,2.9 L3.8,2.9 L3.8,2.9 L3.8,2.9 Z M5.1,2.9 L5.1,2.9 C5.1,3 5.1,3.1 5,3.1 L5.1,3.1 L5.1,2.9 L5.1,2.9 L5.1,2.9 L5.1,2.9 Z M2.6,2.8 C2.5,2.8 2.5,2.8 2.6,2.8 C2.6,3.1 2.7,3.2 2.7,3.2 C2.7,3.2 2.7,3.3 2.6,3.2 C2.6,3.2 2.5,3.2 2.5,3.1 C2.5,3.1 2.4,3.1 2.5,3.1 C2.7,3.3 2.9,3.5 3,3.8 C3,3.9 3,3.9 3,3.8 C2.9,3.5 2.9,3.2 3,3 C3,2.9 3,2.9 3,3 C3,3.1 2.9,3.1 2.9,3 C2.7,3.1 2.6,2.9 2.6,2.8 L2.6,2.8 L2.6,2.8 L2.6,2.8 Z M6.3,2.8 L6.3,2.8 C6.2,2.9 6.2,3.1 6.1,3.2 C6.1,3.3 6,3.2 6,3.2 C6,3.1 5.9,3.2 6,3.2 C6,3.3 6,3.6 6,3.9 C6,4 6,4 6,3.9 C6.1,3.6 6.2,3.4 6.5,3.2 C6.5,3.2 6.5,3.1 6.5,3.2 C6.5,3.2 6.4,3.2 6.4,3.3 L6.3,3.3 L6.3,2.8 L6.3,2.8 L6.3,2.8 L6.3,2.8 Z M1.3,2.9 L1.3,2.9 L1.3,3.1 L1.3,3.1 C1.4,3 1.4,3 1.3,2.9 L1.3,2.9 L1.3,2.9 Z M7.5,2.9 L7.5,2.9 L7.5,3 C7.5,3 7.5,3.1 7.5,3 C7.5,3 7.6,3 7.5,2.9 L7.5,2.9 L7.5,2.9 Z M2.1,2.8 C2.1,2.8 2.1,2.9 2.1,2.8 C2.1,2.9 2.2,3 2.2,3 L2.2,3 C2.2,3 2.2,2.9 2.1,2.8 L2.1,2.8 L2.1,2.8 Z M6.8,2.8 L6.8,2.8 C6.7,2.9 6.7,3 6.7,3 C6.7,3 6.7,3.1 6.7,3 C6.7,3 6.8,2.9 6.8,2.8 C6.8,2.9 6.8,2.8 6.8,2.8 L6.8,2.8 Z M1.5,3 L1.5,3 L1.5,3.2 L1.5,3.2 C1.6,3.1 1.6,3 1.5,3 L1.5,3 L1.5,3 Z M7.4,3 C7.4,3 7.3,3 7.4,3 C7.4,3.1 7.3,3.1 7.3,3.2 L7.3,3.2 C7.4,3.1 7.4,3.1 7.4,3 L7.4,3 L7.4,3 Z M2,3 C2,3 2,3.1 2,3 C2,3.1 2.1,3.2 2.1,3.2 L2.1,3.2 C2.1,3.1 2.1,3.1 2,3 L2,3 L2,3 Z M6.8,3 L6.8,3 C6.8,3.1 6.7,3.1 6.7,3.2 C6.7,3.2 6.7,3.3 6.7,3.2 C6.8,3.2 6.8,3.1 6.8,3 C6.9,3.1 6.9,3 6.8,3 L6.8,3 L6.8,3 Z M1.2,3.2 L1.2,3.2 C1.3,3.3 1.3,3.5 1.3,3.5 L1.3,3.6 C1.2,3.6 1.2,3.5 1.1,3.5 C1,3.5 1,3.5 1.1,3.6 C1.3,3.8 1.6,4 1.7,4.2 C1.7,4.3 1.8,4.3 1.8,4.2 C1.6,3.9 1.6,3.7 1.6,3.6 L1.6,3.4 C1.6,3.3 1.6,3.3 1.5,3.4 L1.5,3.5 L1.4,3.5 C1.4,3.4 1.3,3.2 1.2,3.2 L1.2,3.2 L1.2,3.2 Z M7.7,3.2 C7.7,3.2 7.6,3.2 7.7,3.2 C7.6,3.3 7.5,3.4 7.4,3.5 C7.3,3.6 7.3,3.6 7.3,3.5 L7.3,3.4 C7.3,3.3 7.2,3.3 7.2,3.4 L7.2,3.6 C7.2,3.7 7.2,3.9 7.1,4.1 C7.1,4.2 7.1,4.1 7.2,4.1 C7.3,3.9 7.5,3.7 7.8,3.5 L7.8,3.4 C7.7,3.4 7.7,3.5 7.6,3.5 C7.6,3.5 7.5,3.5 7.6,3.4 C7.5,3.4 7.6,3.3 7.7,3.2 L7.7,3.2 L7.7,3.2 Z" id="Shape" fill="#000000"></path>
                        <path d="M1.6,4.5 L1.7,4.7 M1.7,4.5 L1.8,4.7 M1.9,4.4 L1.9,4.7 M2.1,4.4 L2.2,4.7 M2.3,4.4 L2.3,4.7 M2.5,4.4 L2.5,4.7 M2.7,4.3 L2.7,4.6 M2.9,4.3 L2.9,4.6 M3.1,4.3 L3.1,4.6 M3.3,4.3 L3.3,4.6 M3.5,4.3 L3.5,4.6 M3.7,4.3 L3.7,4.6 M3.9,4.2 L3.9,4.5 M4.1,4.2 L4.1,4.5 M7.3,4.5 L7.2,4.7 M7.2,4.5 L7.1,4.7 M7,4.4 L7,4.7 M6.8,4.4 L6.7,4.7 M6.6,4.4 L6.6,4.7 M6.4,4.4 L6.4,4.7 M6.2,4.3 L6.2,4.6 M6,4.3 L6,4.6 M5.8,4.3 L5.8,4.6 M5.6,4.3 L5.6,4.6 M5.4,4.3 L5.4,4.6 M5.2,4.3 L5.2,4.6 M5,4.2 L5,4.5 M4.7,4.2 L4.7,4.5 M4.4,4.2 L4.4,4.5" id="Shape" stroke="#000000" stroke-width="0.0599858" fill="#FFD83D"></path>
                    </g>
                </g>
            </g>
        </g>
    </g>
</svg>