<?xml version="1.0" encoding="utf-8"?>
<!-- Generator: Adobe Illustrator 20.1.0, SVG Export Plug-In . SVG Version: 6.00 Build 0)  -->
<svg version="1.1" id="Layer_1" xmlns="http://www.w3.org/2000/svg" xmlns:xlink="http://www.w3.org/1999/xlink" x="0px" y="0px"
	 viewBox="0 0 24 24" style="enable-background:new 0 0 24 24;" xml:space="preserve">
<style type="text/css">
	.st0{fill:#EF2B2D;}
	.st1{fill:#FFFFFF;}
	.st2{fill:#002868;}
</style>
<g id="Norway">
	<path class="st0" d="M23.7,14.7H10.4v9.2c0.5,0.1,1.1,0.1,1.6,0.1C17.7,24,22.5,20,23.7,14.7z"/>
	<path class="st0" d="M5,2.3C2.7,3.9,1,6.4,0.3,9.3H5V2.3z"/>
	<path class="st0" d="M0.3,14.7C1,17.6,2.7,20.1,5,21.7v-7.1H0.3z"/>
	<path class="st0" d="M10.4,9.3h13.3C22.5,4,17.7,0,12,0c-0.6,0-1.1,0.1-1.6,0.1V9.3z"/>
	<path class="st1" d="M6.4,1.4C5.9,1.7,5.4,1.9,5,2.3v7.1H0.3c-0.1,0.4-0.2,0.9-0.2,1.3h6.3V1.4z"/>
	<path class="st1" d="M0.1,13.3c0.1,0.5,0.1,0.9,0.2,1.3H5v7.1c0.4,0.3,0.9,0.6,1.3,0.8v-9.3H0.1z"/>
	<path class="st1" d="M10.4,0.1C9.9,0.2,9.5,0.3,9,0.4v10.3h14.9c-0.1-0.5-0.1-0.9-0.2-1.3H10.4V0.1z"/>
	<path class="st1" d="M9,23.6c0.4,0.1,0.9,0.2,1.3,0.3v-9.2h13.3c0.1-0.4,0.2-0.9,0.2-1.3H9V23.6z"/>
	<path class="st2" d="M9,0.4C8.1,0.6,7.2,1,6.4,1.4v9.3H0.1C0,11.1,0,11.5,0,12c0,0.5,0,0.9,0.1,1.3h6.3v9.3c0.8,0.4,1.7,0.8,2.7,1
		V13.3h14.9c0-0.4,0.1-0.9,0.1-1.3c0-0.5,0-0.9-0.1-1.3H9V0.4z"/>
</g>
</svg>
