<?xml version="1.0" encoding="utf-8"?>
<!-- Generator: Adobe Illustrator 20.1.0, SVG Export Plug-In . SVG Version: 6.00 Build 0)  -->
<svg version="1.1" id="Layer_1" xmlns="http://www.w3.org/2000/svg" xmlns:xlink="http://www.w3.org/1999/xlink" x="0px" y="0px"
	 viewBox="0 0 24 24" style="enable-background:new 0 0 24 24;" xml:space="preserve">
<style type="text/css">
	.st0{fill:#0D5EAF;}
	.st1{fill:#FFFFFF;}
</style>
<g id="Greece">
	<path class="st0" d="M5.2,2.1C4,3,2.9,4,2.1,5.3h3.2V2.1z"/>
	<path class="st0" d="M12,24c2.8,0,5.4-1,7.4-2.6H4.6C6.6,23,9.2,24,12,24z"/>
	<path class="st0" d="M5.2,8H0.7C0.3,9.2,0,10.6,0,12c0,0.5,0,0.9,0.1,1.3h5.1V8z"/>
	<path class="st0" d="M2.1,18.7h19.9c0.6-0.8,1-1.7,1.3-2.7H0.7C1.1,17,1.5,17.9,2.1,18.7z"/>
	<path class="st0" d="M13.3,5.3V2.6h6.2C17.4,1,14.8,0,12,0c-1.4,0-2.8,0.3-4.1,0.7v4.5H13.3z"/>
	<path class="st0" d="M13.3,8H7.9v5.4h16c0-0.4,0.1-0.9,0.1-1.3s0-0.9-0.1-1.3H13.3V8z"/>
	<path class="st0" d="M13.3,8h10c-0.3-1-0.8-1.9-1.3-2.7h-8.7V8z"/>
	<path class="st1" d="M5.2,5.3H2.1C1.5,6.1,1.1,7,0.7,8h4.5v5.4H0.1c0.1,0.9,0.3,1.8,0.6,2.7h22.6c0.3-0.9,0.5-1.8,0.6-2.7h-16V8
		h5.4v2.7h10.6c-0.1-0.9-0.3-1.8-0.6-2.7h-10V5.3h8.7c-0.7-1-1.5-1.9-2.5-2.7h-6.2v2.7H7.9V0.7C6.9,1.1,6,1.5,5.2,2.1V5.3z"/>
	<path class="st1" d="M4.6,21.4h14.9c1-0.8,1.8-1.7,2.5-2.7H2.1C2.7,19.7,3.6,20.6,4.6,21.4z"/>
</g>
</svg>
