<?xml version="1.0" encoding="utf-8"?>
<!-- Generator: Adobe Illustrator 20.1.0, SVG Export Plug-In . SVG Version: 6.00 Build 0)  -->
<svg version="1.1" id="Layer_1" xmlns="http://www.w3.org/2000/svg" xmlns:xlink="http://www.w3.org/1999/xlink" x="0px" y="0px"
	 viewBox="0 0 24 24" style="enable-background:new 0 0 24 24;" xml:space="preserve">
<style type="text/css">
	.st0{fill:#AA1313;}
	.st1{fill:#B96B29;}
	.st2{fill:#D4AF3A;}
	.st3{fill:#1D5E91;}
	.st4{fill:#6D8C3E;}
	.st5{fill:#C52126;}
</style>
<g id="Montenegro">
	<circle class="st0" cx="12" cy="12" r="12"/>
	<path class="st1" d="M17,11.8c0.1,0,0.6-0.2,0.9-0.4c0.3-0.3,0.4-0.5,0.4-0.6c0-0.1,0-0.2,0-0.1c-0.1,0.1-0.3,0.3-0.5,0.4
		c-0.2,0.1-0.3,0.1-0.4,0.2c-0.1,0-0.2,0-0.1,0c0.1,0,0.4-0.1,0.6-0.4c0.2-0.2,0.4-0.6,0.4-0.8c0-0.2,0-0.2-0.1-0.1
		c-0.1,0.1-0.3,0.3-0.4,0.5c-0.1,0.1-0.3,0.3-0.5,0.3c-0.1,0.1-0.3,0.1,0,0c0.2-0.1,0.6-0.5,0.8-0.9C18.2,9.3,18.1,9,18.1,9
		c0,0,0-0.1-0.1-0.1c0,0.1-0.3,0.6-0.5,0.8c-0.2,0.2-0.2,0.2-0.2,0.2c0,0-0.1,0.1,0,0c0.1-0.1,0.3-0.4,0.4-0.7
		c0.1-0.3,0.1-0.6,0.1-0.8c0-0.2-0.1-0.4-0.1-0.5c0-0.1-0.1-0.1-0.1,0c0,0.1-0.2,0.6-0.3,0.9c-0.1,0.3-0.3,0.5-0.3,0.6
		c0,0.1-0.1,0.2,0,0c0.1-0.2,0.3-0.8,0.3-1.3c0-0.5,0-0.8-0.1-1c-0.1-0.1-0.1-0.2-0.1-0.2s0,0.4-0.1,0.9c-0.1,0.5-0.3,0.8-0.3,0.8
		s-0.1,0.1,0-0.1c0-0.1,0.1-0.3,0.1-0.6c0-0.3,0-0.7-0.1-1c-0.1-0.4-0.3-0.5-0.3-0.5c-0.1,0.5,0,1.2-0.2,1.7c0,0-0.1-0.1-0.1,0
		c0,0.2-0.1,0.5-0.3,0.9c-0.2,0.4-0.3,0.5-0.3,0.5s0-0.1-0.1-0.2c0-0.1,0-0.1-0.1,0c0,0.1-0.2,0.4-0.4,0.7c-0.3,0.3-0.4,0.5-0.4,0.7
		c0,0.2,0.1,0.4,0.3,0.5c0.2,0.1,0.2,0.2,0.2,0.3c0,0.1-0.2,0.2-0.3,0.2c-0.1,0-0.3,0-0.4,0c-0.1,0-0.1,0.1-0.1,0.2
		c-0.1,0.1-0.1,0.1-0.1,0.1c0,0,0,0,0,0c0-0.6,0.2-0.9,0.2-0.9l-0.7-0.8c0,0-0.1,0-0.1,0c0,0,0,0,0,0c-0.1-0.1-0.1-0.2-0.1-0.4
		c0,0,0.1,0,0.2,0c0.1,0,0-0.1,0-0.1c0-0.1,0-0.3,0-0.3c0-0.1,0-0.1,0-0.1s0.1,0.1,0.2,0.1c0.1,0,0.1-0.1,0.1-0.1
		c0-0.1,0.1-0.2,0.1-0.3c0,0,0.1,0.1,0.2,0.1c0.1,0,0.3,0,0.4-0.2c0.1-0.1,0.1-0.2,0.1-0.2s0.2,0.1,0.4,0.1c0.2,0,0.4,0,0.5-0.2
		c0.1-0.2,0-0.4,0-0.4c0,0-0.1-0.1-0.1,0s0,0.2-0.1,0.3c-0.1,0.1-0.2,0.1-0.3,0c-0.1,0-0.3-0.1-0.4-0.1c-0.2,0-0.2,0-0.2,0
		c0,0,0.1-0.2,0.3-0.2c0.1,0,0.2,0,0.3,0.1c0,0.1,0.1,0.1,0.1,0c0-0.1,0-0.3,0-0.4C15,8,14.9,7.9,14.7,7.9c-0.1,0-0.2,0-0.2,0
		s-0.1-0.2-0.3-0.2c-0.2,0-0.5,0-0.7,0.1c0,0-0.1,0-0.3,0c-0.1,0-0.2-0.1-0.3-0.1c0-0.1,0.1-0.2,0.1-0.2s0,0,0.1,0c0,0,0,0,0-0.1
		c0,0-0.1-0.1-0.1-0.1s0-0.1,0.1-0.2c0.1-0.1,0.1-0.1,0.1-0.1s0.1,0,0.1,0c0,0,0,0,0,0s0.1,0,0.1-0.1c0,0,0-0.1,0-0.1
		c0,0,0-0.1,0-0.1c0,0,0-0.1,0-0.1c0,0,0,0,0,0s0.1,0,0-0.1c0-0.1,0-0.1-0.1-0.1c0,0,0,0,0,0s0,0,0-0.1c0-0.1-0.1-0.1-0.1-0.1
		s0,0,0-0.1c0-0.1-0.1-0.1-0.1-0.1c0,0-0.1,0-0.1,0s-0.1-0.1-0.2-0.1c-0.1,0-0.1,0-0.1,0s0,0,0-0.1s-0.1,0-0.1,0s-0.1,0-0.1,0
		s-0.2-0.1-0.3-0.1c-0.1,0-0.1,0-0.1,0s-0.2-0.1-0.2-0.1c-0.1,0-0.1,0-0.1,0s0.1-0.1,0.1-0.2c0-0.1-0.1-0.2-0.1-0.2c0,0-0.1,0-0.1,0
		l0-0.1l0.1,0l0-0.2l-0.1,0l0-0.1l-0.3,0l0,0.1l-0.1,0l0,0.2L12,5l0,0.1c0,0-0.1,0-0.1,0c-0.1,0-0.1,0.1-0.1,0.2
		c0,0.1,0.1,0.2,0.1,0.2s0,0-0.1,0c-0.1,0-0.2,0.1-0.2,0.1s0,0-0.1,0c-0.1,0-0.3,0.1-0.3,0.1s0,0-0.1,0c0,0-0.1,0-0.1,0
		c0,0,0,0.1,0,0.1s0,0-0.1,0c-0.1,0-0.2,0.1-0.2,0.1s0,0-0.1,0c0,0-0.1,0-0.1,0.1s0,0.1,0,0.1s0,0-0.1,0.1c0,0.1,0,0.1,0,0.1
		s0,0,0,0c0,0-0.1,0-0.1,0.1c0,0.1,0,0.1,0,0.1s0,0,0,0c0,0,0,0.1,0,0.1c0,0,0,0,0,0.1c0,0,0,0.1,0,0.1c0,0,0.1,0.1,0.1,0.1s0,0,0,0
		c0,0,0.1,0,0.1,0s0,0,0.1,0.1c0.1,0.1,0.1,0.2,0.1,0.2s-0.1,0.1-0.1,0.1c0,0,0,0.1,0,0.1c0,0,0.1,0,0.1,0s0,0.1,0.1,0.2
		c-0.1,0-0.2,0.1-0.3,0.1c-0.2,0-0.3,0-0.3,0c-0.2-0.1-0.4-0.2-0.7-0.1C9.7,7.8,9.6,8,9.6,8s0,0-0.2,0c-0.1,0-0.3,0-0.3,0.1
		C9,8.2,9,8.3,9,8.4c0,0.1,0.1,0,0.1,0c0-0.1,0.1-0.1,0.3-0.1c0.1,0,0.3,0.2,0.3,0.2c0,0,0,0-0.2,0c-0.2,0-0.3,0-0.4,0.1
		c-0.1,0-0.2,0-0.3,0C8.7,8.4,8.7,8.3,8.7,8.2c0-0.1-0.1,0-0.1,0c0,0-0.1,0.2,0,0.4S8.8,8.9,9,8.9c0.2,0,0.4-0.1,0.4-0.1
		s0,0,0.1,0.2C9.7,9.1,9.9,9.1,10,9.1c0.1,0,0.2-0.1,0.2-0.1c0.1,0.1,0.1,0.2,0.1,0.3c0,0.1,0,0.1,0.1,0.1c0.1,0,0.2-0.1,0.2-0.1
		s0,0,0,0.1s0,0.3,0,0.3c0,0.1-0.1,0.1,0,0.1c0.1,0,0.1,0,0.2,0c0,0.1,0,0.2-0.1,0.4c0,0,0,0,0,0c0,0-0.1,0-0.1,0l-0.7,0.8
		c0,0,0.2,0.3,0.2,0.9v0c0,0,0,0,0,0c-0.1,0-0.1,0-0.1-0.1c-0.1-0.1-0.1-0.1-0.1-0.2s-0.2,0-0.4,0c-0.1,0-0.3-0.1-0.3-0.2
		c0-0.1,0-0.2,0.2-0.3c0.2-0.1,0.3-0.2,0.3-0.5c0-0.2-0.1-0.4-0.4-0.7C8.9,9.7,8.7,9.4,8.7,9.3c0-0.1-0.1,0-0.1,0
		c0,0.1-0.1,0.2-0.1,0.2S8.5,9.4,8.2,9C8,8.6,7.9,8.3,7.9,8.1c0-0.1-0.1-0.1-0.1,0C7.6,7.6,7.6,6.9,7.6,6.4c0,0-0.2,0.2-0.3,0.5
		C7.2,7.3,7.2,7.6,7.2,8c0,0.3,0.1,0.5,0.1,0.6c0,0.1,0,0.1,0,0.1S7.2,8.3,7.1,7.8C7,7.3,7,6.9,7,6.9S6.9,7,6.8,7.1
		c-0.1,0.1-0.1,0.4-0.1,1c0,0.5,0.2,1.1,0.3,1.3c0.1,0.2,0,0.1,0,0c0-0.1-0.2-0.3-0.3-0.6C6.6,8.6,6.4,8,6.4,8c0-0.1,0,0-0.1,0
		c0,0.1-0.1,0.3-0.1,0.5c0,0.2,0,0.5,0.1,0.8C6.5,9.5,6.7,9.8,6.8,10c0.1,0.1,0,0.1,0,0c0,0,0,0-0.2-0.2S6.1,9,6.1,8.9
		C6,8.8,6,8.9,6,9c0,0,0,0.3,0.1,0.7c0.2,0.4,0.6,0.8,0.8,0.9c0.2,0.1,0.1,0.1,0,0c-0.1-0.1-0.3-0.2-0.5-0.3C6.2,10.2,6,9.9,5.9,9.9
		C5.9,9.8,5.9,9.8,5.9,10c0,0.2,0.2,0.5,0.4,0.8c0.2,0.2,0.5,0.3,0.6,0.4c0.1,0,0,0-0.1,0c-0.1,0-0.3-0.1-0.4-0.2
		c-0.2-0.1-0.4-0.3-0.5-0.4c-0.1-0.1-0.1,0,0,0.1c0,0.1,0.1,0.3,0.4,0.6c0.3,0.3,0.8,0.4,0.9,0.4c0.1,0,0,0,0,0s-0.1,0-0.3-0.1
		c-0.3-0.1-0.7-0.3-0.8-0.3C6,11.3,6,11.3,6,11.5c0,0.1,0.2,0.5,0.4,0.6c0.2,0.1,0.7,0.2,0.8,0.2c0.1,0,0.1,0,0,0
		c-0.1,0-0.2,0-0.4,0c-0.2,0-0.4-0.1-0.5-0.1c0,0,0-0.1,0-0.1c0-0.1,0,0-0.1,0c0,0,0,0-0.1,0.1c-0.1,0-0.1,0-0.1,0c0,0,0-0.1,0-0.1
		c0,0,0,0-0.1,0c0,0-0.2,0.1-0.2,0.1c-0.1,0,0,0.1,0,0.1c0,0,0.1,0.1,0.1,0.1s-0.1,0-0.2,0c0,0,0,0,0,0.1c0,0,0.1,0.2,0.1,0.2
		c0,0,0.1,0,0.1,0L6,12.5l0,0.2c0,0-0.1,0-0.1,0.1c-0.1,0,0,0.1,0,0.1c0.1,0,0.2,0.1,0.3,0.2c0.1,0.2,0.1,0.5,0.2,1
		c0.1,0.5,0.4,0.8,0.4,0.8s0,0.1,0,0.1s0,0.1,0,0.2c0,0.1,0.1,0.2,0.2,0.2c0,0,0,0.1,0,0.1s0,0.1,0,0.3c0,0.2,0.2,0.4,0.2,0.5
		c0,0,0,0.1,0,0.1c0,0,0,0-0.1,0c-0.1,0-0.1,0.1-0.2,0.2c0,0.1,0,0.1,0,0.2c0,0.1,0.2,0.2,0.2,0.2s0,0,0,0.1c0,0.1,0,0.2,0.1,0.2
		c0.1,0.1,0.2,0.1,0.2,0.1s0,0.1,0,0.1c0,0,0.1,0.1,0.1,0.1c0.1,0,0.2,0,0.2,0c0,0,0.1,0,0.1,0c0,0,0,0.2,0,0.3c0,0.1,0,0.1,0,0.2
		c0,0,0.1,0,0.1,0c0.1,0,0.1,0,0.1,0C8.2,18,8.3,18,8.3,18c0,0,0-0.1,0-0.1s0-0.2,0-0.2c0,0,0.1,0,0.2,0c0,0,0.1,0,0.1-0.1
		c0,0,0,0-0.2-0.1c-0.1-0.1-0.1-0.1-0.2-0.1c-0.1,0,0-0.1,0-0.1c0,0,0,0,0-0.1c0,0,0-0.1,0-0.1s0.1-0.1,0.1-0.1c0,0,0.1-0.1,0.1-0.1
		c0,0,0.1-0.2,0.1-0.2c0,0,0.1-0.1,0.2-0.2c0-0.1,0.2-0.2,0.3-0.2c0.1,0,0.3-0.1,0.3-0.1s0,0.1,0,0.2c0.1,0.1,0.1,0,0.4-0.2
		C9.9,16,10.1,16,10.1,16s0,0.1,0.1,0.2c0.1,0.1,0.1,0,0.4-0.4c0.2-0.3,0.5-0.6,0.6-0.7c0,0,0,0,0.1,0c0,0,0,0,0,0.1
		c0,0.1-0.1,0.1-0.1,0.2c-0.1,0.1-0.1,0.1-0.2,0.3c-0.1,0.2-0.1,0.3-0.1,0.4c0,0.2,0.1,0.2,0.1,0.2s-0.1,0.1-0.2,0.2
		c0,0.1-0.1,0.3-0.1,0.3s0,0-0.1,0.1c-0.1,0.1-0.1,0.1-0.3,0.3c-0.1,0.1-0.3,0.2-0.4,0.2c-0.1,0-0.1,0.1,0,0.1
		c0,0.1,0.1,0.1,0.2,0.2c0.1,0,0.2,0,0.2,0c0.1,0,0,0.1,0,0.1c0,0-0.1,0.1-0.1,0.3c0,0.1,0.1,0.1,0.2,0.1c0.1,0,0.3-0.1,0.3-0.1
		s0,0,0,0c0,0,0,0.1,0,0.2c0,0.1,0,0.1,0,0.2c0,0,0.1,0,0.1,0c0,0,0.1-0.1,0.2-0.1c0.1,0,0.1-0.1,0.1-0.1s0,0,0,0.1
		c0,0.1,0,0.2,0,0.2c0,0.1,0.1,0.1,0.1,0.2c0.1,0.1,0.1,0,0.1,0c0.1-0.1,0.2-0.2,0.2-0.2s0,0,0.1,0.3c0.1,0.2,0.3,0.4,0.3,0.4
		s0.2-0.2,0.3-0.4c0.1-0.2,0.1-0.3,0.1-0.3s0.1,0.1,0.2,0.2c0.1,0.1,0.1,0.1,0.1,0c0.1-0.1,0.1-0.1,0.1-0.2c0-0.1,0-0.2,0-0.2
		c0-0.1,0-0.1,0-0.1s0,0,0.1,0.1c0.1,0,0.2,0.1,0.2,0.1c0,0,0.1,0.1,0.1,0c0,0,0-0.1,0-0.2c0-0.1,0-0.1,0-0.2c0,0,0,0,0,0
		s0.1,0.1,0.3,0.1s0.2,0,0.2-0.1c0-0.1,0-0.2-0.1-0.3c0,0-0.1-0.1,0-0.1c0.1,0,0.1,0,0.2,0c0.1,0,0.2-0.1,0.2-0.2c0-0.1,0-0.1,0-0.1
		c-0.1,0-0.2-0.1-0.4-0.2c-0.1-0.1-0.2-0.2-0.3-0.3c-0.1-0.1-0.1-0.1-0.1-0.1s0-0.2-0.1-0.3c0-0.1-0.2-0.2-0.2-0.2s0.1,0,0.1-0.2
		c0-0.2,0-0.3-0.1-0.4c-0.1-0.2-0.2-0.2-0.2-0.3c-0.1-0.1-0.1-0.2-0.1-0.2c0,0,0,0,0,0c0,0,0.1,0,0.1,0c0.1,0.1,0.4,0.4,0.6,0.7
		c0.3,0.4,0.3,0.5,0.4,0.4C14,16,14,16,14,16s0.2,0.1,0.4,0.2c0.2,0.2,0.3,0.3,0.4,0.2c0,0,0-0.1,0-0.1c0,0,0.1,0,0.3,0.1
		c0.1,0,0.2,0.1,0.3,0.1c0.2,0.1,0.2,0.1,0.4,0.3c0.2,0.1,0.4,0.1,0.6,0c0.2-0.1,0.8-0.3,1-0.4c0.2-0.1,0.4-0.2,0.4-0.2
		c0,0,0.1-0.2,0.1-0.2c0,0-0.1-0.1-0.1-0.1c0,0,0,0,0-0.1c0,0,0-0.1,0-0.2c0,0,0-0.1,0-0.2c0-0.2-0.2-0.5-0.4-0.6c0,0,0,0,0,0
		c0,0-0.1,0-0.1,0s0-0.1,0-0.2c0,0,0,0,0,0c0,0,0,0,0.1,0.1c0,0,0.1,0,0.1-0.1c0,0,0-0.1,0.1-0.2c0,0,0-0.1,0-0.1c0,0-0.1,0-0.1,0
		c0,0,0,0,0,0c0,0,0,0,0.1-0.1c0-0.1,0-0.1,0-0.1c0,0-0.2-0.1-0.2-0.1c0,0-0.1,0-0.1,0c0,0,0,0.1,0,0.1s0,0,0,0c0,0-0.1,0-0.1-0.1
		c0,0,0,0-0.1,0c0,0,0,0.2-0.1,0.2c0,0,0,0.1,0,0.1c0,0,0.1,0,0.1,0c0,0,0,0,0,0s0,0.1-0.1,0.1c0,0,0,0-0.1,0c0,0-0.1,0-0.1,0
		s-0.2,0-0.4,0.1c-0.2,0.1-0.2,0.2-0.3,0.3c0,0.1-0.1,0.1-0.1,0.1c0,0-0.1,0.1-0.1,0.2c0,0.1,0,0.1-0.1,0.1c-0.1,0.1-0.1,0.3,0,0.4
		c0.1,0.1,0.1,0.2,0.2,0.3c0,0.1,0,0.1,0,0.1c0,0-0.1,0-0.1-0.1c0,0-0.3-0.2-0.4-0.3c-0.1-0.1,0-0.1,0-0.1s0,0,0.1,0
		c0.1,0,0.1-0.1,0-0.1c-0.1,0-0.2-0.1-0.2-0.1c0,0,0-0.1,0-0.1c0.1,0,0.2-0.1,0.1-0.2c-0.1,0-0.2-0.1-0.3-0.1
		c-0.1,0-0.1-0.1-0.1-0.1l0.1-0.1c0,0,0.1-0.1,0-0.1s-0.2,0-0.4-0.1c-0.3-0.1-0.5-0.3-0.5-0.6l0,0c0.1,0.1,0.2,0.3,0.4,0.3
		c0.3,0,0.3-0.1,0.2-0.2c-0.1-0.1-0.1-0.2-0.1-0.2c0,0,0-0.1,0,0c0.1,0.1,0.2,0.3,0.6,0.3c0.4,0,0.4-0.1,0.4-0.1
		c0-0.1-0.1-0.1-0.1-0.1c0,0,0-0.1,0,0s0.3,0.1,0.5,0c0.1,0,0.4-0.1,0.4-0.3c0,0-0.2,0-0.3-0.1c-0.1-0.1-0.2-0.1-0.1-0.1
		c0.1,0,0.4,0.1,0.6,0c0.1,0,0.3-0.1,0.3-0.3c0,0-0.2-0.1-0.3-0.1c-0.1,0-0.1-0.1-0.1-0.1s0.3,0.1,0.6,0c0.3-0.2,0.3-0.4,0.3-0.4
		c0-0.1,0-0.1,0-0.1s-0.3,0.1-0.5,0.1c-0.2,0-0.3,0-0.3,0s0.6,0,0.9-0.2c0.3-0.2,0.3-0.5,0.3-0.5s-0.3,0.1-0.5,0.1
		c-0.2,0-0.3,0-0.4,0c-0.1,0-0.1,0,0,0c0.1,0,0.6-0.1,0.8-0.2c0.2-0.1,0.4-0.5,0.4-0.6c0-0.1,0-0.1-0.1-0.1
		c-0.1,0.1-0.5,0.3-0.8,0.3C17,11.8,16.9,11.8,17,11.8C16.9,11.8,16.8,11.8,17,11.8L17,11.8z M6.4,12.4c0,0-0.1,0.1-0.1,0.1
		s0-0.1-0.1-0.1c0,0,0,0,0,0c0,0,0.1,0,0.1,0c0,0,0,0,0,0C6.4,12.4,6.4,12.4,6.4,12.4C6.4,12.4,6.4,12.4,6.4,12.4L6.4,12.4z
		 M10,14.6c-0.1,0.1-0.3,0.3-0.4,0.3S9.3,15,9.2,15c-0.1,0,0,0.1,0,0.1l0.1,0.1c0,0,0,0-0.1,0.1c-0.1,0-0.2,0.1-0.3,0.1
		c-0.1,0,0,0.1,0.1,0.2c0.1,0,0,0.1,0,0.1c0,0-0.2,0.1-0.2,0.1c-0.1,0-0.1,0.1,0,0.1c0.1,0,0.2,0.1,0.2,0.1s0,0-0.1,0.1
		C8.7,16,8.6,16,8.4,16c-0.1,0-0.3,0-0.6,0c-0.2,0-0.3,0-0.3,0s0-0.1,0-0.2c0-0.1-0.1-0.3-0.1-0.4c-0.1-0.1-0.2-0.2-0.2-0.2
		s0,0,0-0.1c0,0,0-0.1,0-0.2c0-0.1-0.2-0.2-0.2-0.2s0-0.1,0-0.2c0-0.1-0.1-0.4-0.1-0.5c0-0.1-0.3-0.5-0.4-0.7
		c-0.1-0.2-0.2-0.4-0.2-0.6c0-0.2,0-0.3,0-0.3c0,0,0,0,0-0.1c0,0.1,0.1,0.1,0.2,0.1c0.3,0.2,0.9,0.2,0.9,0.2s-0.1,0-0.3,0
		c-0.2,0-0.5-0.1-0.5-0.1s0,0,0,0.1c0,0.1,0,0.3,0.3,0.4c0.3,0.2,0.6,0,0.6,0s0,0-0.1,0.1c-0.1,0-0.3,0.1-0.3,0.1
		c0,0.2,0.2,0.3,0.3,0.3c0.2,0.1,0.5,0,0.6,0c0.1,0,0.1,0-0.1,0.1C8,14,7.8,14,7.8,14c0,0.1,0.3,0.3,0.4,0.3c0.3,0.1,0.5,0,0.5,0
		c0.1,0,0.1,0,0,0c0,0-0.1,0.1-0.1,0.1c0,0,0,0.1,0.4,0.1c0.4,0,0.5-0.2,0.6-0.3c0.1-0.1,0.1,0,0,0c0,0-0.1,0.1-0.1,0.2
		c-0.1,0.1,0,0.2,0.2,0.2c0.2,0,0.3-0.2,0.4-0.3l0,0c0,0,0,0,0,0C10.1,14.4,10,14.5,10,14.6L10,14.6z M13.1,6.2
		C13.1,6.1,13.1,6.1,13.1,6.2c-0.1-0.1,0.1,0,0.2,0.1c0.1,0.1,0.1,0.1,0.1,0.2c0,0,0,0.1,0,0.2c0,0.1,0,0.1,0,0.2c0,0,0,0,0,0
		s-0.1,0-0.1,0c-0.1,0-0.1,0-0.2,0c0,0-0.1-0.1,0-0.1c0,0,0.1-0.1,0.1-0.2C13.2,6.4,13.1,6.3,13.1,6.2L13.1,6.2z M12.3,6.7
		c0-0.1,0-0.2,0-0.3c0-0.1,0-0.3-0.1-0.4c0,0,0.1,0,0.3,0.2c0.2,0.1,0.2,0.3,0.2,0.4c0,0.1,0,0.2,0,0.2c0,0.1,0,0.1,0,0.1
		s-0.1,0-0.1,0.1c-0.1,0-0.1,0.1-0.2,0.1c-0.1,0-0.1,0-0.2-0.1c0,0-0.1,0-0.1,0S12.3,6.8,12.3,6.7L12.3,6.7z M11.6,6.1
		c0.2-0.1,0.3-0.2,0.3-0.2c0,0.2,0,0.3-0.1,0.4c0,0.2,0,0.3,0,0.3c0,0.1,0.1,0.1,0.1,0.1s0,0-0.1,0c0,0-0.1,0.1-0.2,0.1
		c-0.1,0-0.1,0-0.2-0.1c-0.1,0-0.1-0.1-0.1-0.1s0-0.1,0-0.1c0-0.1,0-0.2,0-0.2C11.4,6.4,11.4,6.2,11.6,6.1L11.6,6.1z M11,6.9
		c0,0-0.1,0-0.2,0c-0.1,0-0.1,0-0.1,0s0,0,0,0c0,0,0-0.1,0-0.2c0-0.1,0-0.2,0-0.2c0,0,0-0.1,0.1-0.2C10.9,6.2,11,6.1,11,6.1
		s0,0-0.1,0.1c0,0.1-0.1,0.2-0.1,0.4C10.9,6.8,11,6.8,11,6.9C11.1,6.9,11,6.9,11,6.9L11,6.9z M13.1,8.4c-0.2,0.1-0.2,0.1-0.2,0.1
		c0,0.1,0.1,0.1,0.1,0.1s-0.1,0.1-0.2,0.2C12.6,8.9,12.5,9,12.5,9s0,0,0,0.1c0,0.1,0.1,0.1,0.1,0.1c0,0,0.1,0,0.1,0
		s-0.2,0.2-0.3,0.3c-0.1,0.1-0.1,0.1-0.2,0.1c-0.1,0,0,0.1,0,0.2c0,0,0.1,0.1,0.1,0.1c0,0,0,0,0,0.1c0,0.1-0.1,0.2-0.2,0.3l0,0
		c-0.1-0.1-0.2-0.2-0.2-0.3c0-0.1,0-0.1,0-0.1c0,0,0.1-0.1,0.1-0.1c0,0,0-0.2,0-0.2c-0.1,0-0.1,0-0.2-0.1c-0.1-0.1-0.3-0.3-0.3-0.3
		s0,0,0.1,0c0,0,0.1-0.1,0.1-0.1c0-0.1,0-0.1,0-0.1s-0.1,0-0.2-0.1c-0.1-0.1-0.2-0.2-0.2-0.2s0.1,0,0.1-0.1c0-0.1-0.1,0-0.2-0.1
		c-0.2-0.1-0.2-0.2-0.2-0.2S11,8.2,11.1,8c0-0.1,0-0.1,0-0.2l0,0C11.4,7.9,11.8,8,12.1,8c0.3,0,0.6,0,0.9-0.1l0,0c0,0,0,0.1,0,0.2
		c0.1,0.2,0.3,0.2,0.3,0.2S13.2,8.3,13.1,8.4L13.1,8.4z"/>
	<g>
		<path class="st2" d="M14,11.9c0-0.5,0.2-0.8,0.2-0.8l-0.6-0.7c-0.6,0.2-1.1,0.2-1.6,0c-0.5,0.2-1,0.2-1.6,0l-0.6,0.7
			c0,0,0.2,0.3,0.2,0.8c0,0.5-0.1,0.8-0.1,1.1c-0.1,0.2-0.1,0.7,0,1c0.1,0.3,0.3,0.6,0.8,0.8c0.5,0.2,0.8,0.3,1,0.5
			c0.2,0.2,0.3,0.3,0.3,0.3s0.1-0.1,0.3-0.3c0.2-0.2,0.5-0.3,1-0.5c0.5-0.2,0.7-0.5,0.8-0.8c0.1-0.3,0.1-0.7,0-1
			C14.1,12.7,14,12.3,14,11.9L14,11.9z"/>
		<path class="st1" d="M13.8,12c-0.1-0.5,0.2-0.9,0.2-0.9l-0.5-0.6c-0.4,0.2-0.9,0.2-1.4,0c-0.5,0.2-1,0.2-1.4,0l-0.5,0.6
			c0,0,0.3,0.4,0.2,0.9c-0.1,0.5-0.2,1.2-0.2,1.5c0,0.3,0.2,0.6,0.5,0.8c0.2,0.2,0.5,0.3,0.8,0.4c0.2,0.1,0.4,0.2,0.5,0.3
			c0.1,0.1,0.2,0.2,0.2,0.2s0.1-0.1,0.2-0.2c0.1-0.1,0.3-0.2,0.5-0.3c0.2-0.1,0.5-0.2,0.8-0.4c0.2-0.2,0.4-0.5,0.5-0.8
			C14,13.2,13.9,12.5,13.8,12L13.8,12z"/>
		<path class="st3" d="M13.7,12.1c-0.1-0.5,0.1-0.9,0.1-0.9l-0.5-0.5c-0.4,0.2-0.9,0.1-1.4,0c-0.5,0.2-1,0.2-1.4,0l-0.5,0.5
			c0,0,0.2,0.4,0.1,0.9c-0.1,0.5-0.2,1.1-0.2,1.4c0,0,0,0,0,0.1h0.4c0,0,0,0,0.1,0c0,0,0.1,0,0.1,0s0-0.1,0.1-0.1c0.1,0,0.1,0,0.1,0
			s0,0,0.1,0c0,0,0.1-0.1,0.1-0.2c0-0.1,0-0.1,0-0.2c0-0.1,0-0.1,0-0.1s0,0-0.1,0c0,0,0,0-0.1-0.1c0,0,0-0.1,0-0.2s0-0.1,0-0.1
			l0-0.1c0,0-0.3,0.1-0.3-0.2c0-0.2-0.1-0.3-0.1-0.3c0,0,0,0,0,0c0,0-0.1,0-0.2-0.1c-0.1-0.1-0.1-0.2,0-0.2c0,0,0,0,0.1,0
			c0,0,0.1,0.1,0.1,0.1c0,0,0,0,0-0.1s0-0.1,0-0.1c0,0,0-0.1,0-0.1c0,0,0,0,0,0c0,0,0,0,0.1,0c0,0,0,0,0,0c0,0,0-0.1,0-0.1
			c0,0,0,0,0.1,0c0,0,0.1,0.1,0.1,0.1c0,0,0,0.1,0,0.1c0,0,0,0,0-0.1c0,0,0-0.1,0,0c0,0,0,0.1,0,0.1c0,0.1,0,0,0,0.1
			c0,0.1,0,0.1,0,0.2c0,0.1,0,0.1,0,0.2c0,0.1,0.1,0.2,0.1,0.2c0.1,0,0.1,0,0.1,0s0.1-0.1,0.1-0.2c0.1,0,0.1,0,0.2,0
			c0.1,0,0.1,0,0.1,0c0,0,0,0-0.1,0c-0.1,0-0.1,0-0.1-0.1c0,0,0-0.1,0-0.1c0,0-0.1,0-0.2-0.1c0-0.1,0-0.1,0-0.1c0,0,0.1-0.1,0.1,0
			c0,0.1,0.1,0.1,0.1,0.1c0,0,0.1,0,0,0c0,0,0-0.1,0-0.1c0,0,0-0.1,0.1-0.1c0,0,0.1,0,0.2,0c0,0,0,0,0,0s0,0,0.1,0
			c0.1,0,0.1,0,0.1,0c0,0,0.1,0,0.1,0c0.1,0,0.1,0,0.1,0c0,0,0.1,0,0.1,0c0,0,0,0,0,0.1c0,0,0,0,0,0c0,0,0.1,0,0.1,0
			c0,0,0.1,0,0.1,0.1c0,0,0,0.1-0.1,0.1c0,0,0,0,0,0c0,0,0,0,0,0c0,0,0,0,0.1,0.1c0,0,0.1,0.1,0,0.1c0,0-0.1,0.1-0.1,0.1s0,0,0,0.1
			c0.1,0,0.1,0.1,0.1,0.1c0,0,0,0,0.1,0c0,0,0,0.1,0,0.1s0,0-0.1,0c0,0-0.1,0-0.1,0c0,0-0.1,0,0,0c0,0,0,0.1,0,0.1c0,0,0,0.1,0,0.1
			s0.1,0,0.1,0c0.1,0,0.1,0,0.2,0c0.1,0,0.2,0,0.3,0c0.1,0,0.1,0,0.2,0c0,0,0.1,0,0.1,0s0.2,0,0.3,0c0.1,0,0.1-0.1,0.1-0.1
			c0,0,0-0.1-0.2-0.1c-0.2,0-0.2,0-0.4,0c-0.1,0-0.3-0.1-0.4-0.2c0-0.2,0.1-0.2,0.2-0.3c0.1,0,0.2-0.1,0.3-0.1c0.1,0,0.2-0.1,0.3,0
			c0.1,0,0.2,0.1,0.2,0c0,0,0.1,0,0.1,0c0,0-0.1,0.1-0.2,0.2c-0.1,0-0.3,0-0.4,0c-0.1,0-0.2-0.1-0.2,0c-0.1,0-0.1,0.1-0.1,0.2
			c0.1,0.1,0.4,0.1,0.5,0.1c0.1,0,0.4,0,0.5,0.1c0.1,0.2,0,0.3-0.1,0.4c-0.1,0-0.2,0.1-0.3,0.1c-0.1,0-0.1,0-0.1,0s0,0.1,0,0.1
			c0,0,0,0.1,0,0.1c0,0,0.1,0,0.2,0c0.1,0,0.1,0,0.1,0.1c0,0.1,0,0.1,0,0.3c0,0.1,0,0.2,0,0.2s0,0,0,0.1c0,0-0.1,0.2-0.1,0.2h0.4
			c0,0,0,0,0-0.1C13.9,13.1,13.8,12.6,13.7,12.1L13.7,12.1z"/>
		<path class="st4" d="M10.3,13.8c0.1,0.3,0.3,0.5,0.5,0.7c0.4,0.2,0.5,0.2,0.9,0.4c0.4,0.2,0.3,0.3,0.3,0.3c0,0,0,0,0.3-0.3
			c0.4-0.2,0.5-0.2,0.9-0.4c0.3-0.2,0.5-0.4,0.5-0.7H10.3L10.3,13.8z"/>
		<path class="st2" d="M10.6,11.8c0,0,0.1,0.1,0.1,0c0.1,0,0.1,0,0.1,0.1c0,0,0,0.2,0.1,0.3c0,0.1,0.2,0.1,0.2,0.1
			c0-0.1,0-0.1,0-0.2c0,0,0-0.1,0-0.1c-0.1,0-0.1,0-0.1-0.1c0-0.1-0.1-0.2-0.1-0.3c0-0.1,0-0.2,0-0.3c0,0,0-0.1,0-0.1
			c0,0-0.1,0-0.1,0s0,0,0,0c0,0,0,0,0-0.1c0,0,0,0,0,0c0,0,0,0,0,0c0,0,0,0.1,0,0.1s0,0-0.1,0c0,0-0.1,0-0.1,0c0,0,0,0.1,0.1,0.1
			c0,0,0,0.1,0,0.1C10.7,11.8,10.6,11.8,10.6,11.8C10.6,11.7,10.6,11.7,10.6,11.8C10.5,11.8,10.5,11.8,10.6,11.8L10.6,11.8z"/>
		<path class="st2" d="M10.5,11.7C10.5,11.7,10.5,11.7,10.5,11.7C10.5,11.7,10.5,11.6,10.5,11.7C10.5,11.6,10.5,11.7,10.5,11.7
			C10.5,11.7,10.5,11.7,10.5,11.7L10.5,11.7L10.5,11.7z"/>
		<path class="st2" d="M10.6,11.4C10.7,11.4,10.7,11.4,10.6,11.4C10.6,11.4,10.6,11.3,10.6,11.4C10.6,11.3,10.6,11.3,10.6,11.4
			C10.6,11.3,10.6,11.4,10.6,11.4C10.6,11.4,10.6,11.4,10.6,11.4L10.6,11.4z"/>
		<path class="st2" d="M10.7,11.3C10.7,11.3,10.7,11.3,10.7,11.3C10.8,11.3,10.8,11.3,10.7,11.3C10.8,11.3,10.8,11.3,10.7,11.3
			L10.7,11.3C10.7,11.2,10.7,11.3,10.7,11.3L10.7,11.3z"/>
		<path class="st2" d="M10.9,11.3C10.9,11.3,10.9,11.3,10.9,11.3C10.9,11.3,10.9,11.3,10.9,11.3C10.9,11.4,10.9,11.3,10.9,11.3
			C10.9,11.4,10.9,11.4,10.9,11.3L10.9,11.3z"/>
		<path class="st2" d="M11.2,12.4c0,0.1,0.1,0,0.2-0.1c0.1-0.1,0.1,0,0.1,0.1c0,0.1,0,0.2,0,0.2c0,0.1,0.1,0,0.1,0c0,0,0-0.1,0-0.2
			s0,0,0.1,0s0,0.1,0.1,0.1c0,0,0.1,0,0.1-0.1c0-0.1,0-0.1,0-0.2c0,0,0,0,0,0s0,0,0.1,0.1c0,0,0.1,0,0.1-0.1c0,0,0-0.1,0-0.1
			c0,0,0.1,0,0.1,0c0.1,0,0.1,0,0.1-0.1c0,0,0-0.1-0.1-0.2C12,12,12,12,12,11.9c0,0,0.1,0,0.1,0c0,0,0.1,0,0.1,0c0,0,0,0,0,0
			s0,0-0.1-0.1c0,0-0.1-0.1-0.1-0.1c-0.1,0-0.1,0-0.1,0s0,0,0,0c0,0,0,0,0,0c0,0,0,0-0.1,0.1c0,0,0,0,0,0c0,0,0,0,0,0s0,0,0.1-0.1
			c0,0,0-0.1,0-0.1c0,0-0.1,0-0.1,0c0,0,0,0,0,0c0,0,0,0,0.1,0c0,0,0.1,0,0.1-0.1s0,0,0,0c0,0,0,0,0,0c0,0,0-0.1,0-0.1
			c0,0,0-0.1,0-0.1c0,0-0.1,0-0.1,0c0,0,0,0-0.1,0.1c0,0.1,0,0,0,0c0,0,0,0,0-0.1c0,0,0,0,0,0s0,0-0.1-0.1s-0.1,0-0.2,0
			c-0.1,0,0,0.1,0,0.1s0,0-0.1,0c0,0-0.1,0-0.1,0c0,0-0.1,0-0.1,0c0,0,0,0.1,0,0.1s0,0,0,0c0,0,0,0,0,0c0,0,0,0,0,0c0,0,0,0,0,0
			c0,0,0.1,0,0.1,0c0,0,0.1,0.1,0.1,0.1c0,0-0.1,0.1-0.1,0.1c0,0,0,0,0,0c0,0,0,0,0,0s0,0,0.1,0c0.1,0,0.1,0,0.1,0.1c0,0,0,0,0,0
			c0,0,0,0-0.1,0c0,0,0,0-0.1,0c0,0-0.1,0-0.2,0c-0.1,0-0.2,0.2-0.2,0.2s0,0,0.1,0c0.1,0,0.1-0.1,0.2-0.1c0.1,0,0.1,0,0,0.1
			c0,0.1,0,0,0,0c0,0,0,0,0.1-0.1c0.1,0,0,0,0,0s0,0,0,0.1c0,0.1,0.1,0,0.1,0c0-0.1,0.1,0,0,0.1c0,0.1-0.1,0.1-0.1,0.1
			c0,0-0.1,0-0.1-0.1s0-0.1,0-0.1c0,0-0.1,0-0.1,0c0,0-0.1,0-0.1,0c0,0,0,0,0,0c0,0,0,0,0,0c0,0-0.1,0-0.1,0.1
			c-0.1,0-0.1,0.1-0.1,0.1C11.1,12.4,11.1,12.4,11.2,12.4L11.2,12.4z"/>
		<path class="st2" d="M11.9,11.2C11.9,11.2,11.9,11.2,11.9,11.2c0,0,0.1,0,0.1,0c0,0,0,0,0,0C12,11.1,12,11.1,11.9,11.2
			C11.9,11.1,11.9,11.1,11.9,11.2C11.8,11.2,11.8,11.2,11.9,11.2C11.8,11.2,11.8,11.2,11.9,11.2C11.9,11.2,11.9,11.2,11.9,11.2
			L11.9,11.2z"/>
		<path class="st2" d="M12.1,11.4C12.1,11.4,12.1,11.4,12.1,11.4C12.1,11.4,12.1,11.4,12.1,11.4c0.1,0,0.1-0.1,0.2-0.1
			c0,0,0,0-0.1,0c-0.1,0-0.1,0-0.1,0C12.1,11.3,12.1,11.3,12.1,11.4C12,11.4,12.1,11.4,12.1,11.4L12.1,11.4z"/>
		<path class="st2" d="M12.1,11.4c0,0-0.1,0.1-0.1,0.1c0,0,0,0,0,0s0,0,0,0.1c0,0,0,0.1,0,0.1s0,0,0,0c0,0,0,0,0.1,0c0,0,0,0,0.1,0
			c0,0,0.1,0,0.1,0c0,0,0-0.1-0.1-0.1C12.1,11.4,12.1,11.4,12.1,11.4L12.1,11.4z"/>
		<path class="st2" d="M11.4,11.6C11.4,11.6,11.5,11.6,11.4,11.6C11.5,11.5,11.4,11.5,11.4,11.6c-0.1-0.1-0.3-0.1-0.3-0.2
			c0,0,0,0.1,0,0.2C11.2,11.6,11.4,11.6,11.4,11.6L11.4,11.6z"/>
		<path class="st2" d="M11,13.5C11,13.5,11,13.5,11,13.5l0.2,0c0,0,0,0,0-0.1c0,0,0-0.1,0-0.2c0-0.1,0.1-0.2,0.1-0.3
			c0-0.1,0-0.1,0-0.1c0,0,0-0.1,0-0.1c0,0,0,0-0.1,0c0,0,0,0,0,0.1c0,0,0,0.1,0,0.2c0,0.1-0.1,0.2-0.2,0.2c0,0-0.1,0-0.1,0
			s-0.1,0-0.1,0c0,0,0,0,0,0.1c0,0,0,0,0,0s0,0,0,0C10.9,13.5,10.9,13.5,11,13.5C11,13.4,11,13.5,11,13.5C11,13.5,11,13.5,11,13.5
			L11,13.5z"/>
		<path class="st2" d="M10.7,13.5C10.7,13.5,10.7,13.5,10.7,13.5L10.7,13.5C10.8,13.5,10.8,13.5,10.7,13.5
			C10.8,13.5,10.7,13.5,10.7,13.5z"/>
		<path class="st2" d="M10.9,13.5C10.9,13.5,10.8,13.5,10.9,13.5L10.9,13.5C11,13.5,11,13.5,10.9,13.5
			C10.9,13.5,10.9,13.5,10.9,13.5L10.9,13.5z"/>
		<path class="st2" d="M12,13.5C12,13.5,12,13.5,12,13.5C11.9,13.5,11.9,13.5,12,13.5C11.9,13.5,11.9,13.5,12,13.5L12,13.5
			C12,13.5,12,13.5,12,13.5C12,13.5,12,13.5,12,13.5C12,13.5,12,13.5,12,13.5L12,13.5z"/>
		<path class="st2" d="M12.1,13.5C12.1,13.5,12.1,13.5,12.1,13.5C12.1,13.5,12.1,13.5,12.1,13.5C12,13.5,12,13.5,12.1,13.5
			L12.1,13.5C12.1,13.5,12.1,13.5,12.1,13.5L12.1,13.5z"/>
		<path class="st2" d="M12.6,12.9C12.7,12.9,12.7,12.9,12.6,12.9c0-0.1,0-0.1,0-0.1c0,0-0.1,0-0.1,0s-0.2,0-0.2,0
			c0,0-0.1,0.1-0.1,0.2s0,0.1,0,0.1c0,0,0,0,0,0s0.1,0.1,0.1,0.1c0,0,0,0.1,0,0.1c0,0-0.1,0.1-0.1,0.2c0,0-0.1,0-0.1,0
			c0,0-0.1,0-0.1,0c0,0,0,0.1,0,0.1c0,0,0,0,0.1,0c0,0,0,0.1,0,0.1h0.2c0,0,0.1-0.1,0.1-0.1c0,0,0.1-0.1,0.1-0.1c0,0,0,0,0-0.1
			s0-0.1,0-0.1C12.5,13.1,12.5,13,12.6,12.9C12.5,13,12.6,12.9,12.6,12.9L12.6,12.9z"/>
		<path class="st2" d="M12.2,12.3C12.3,12.3,12.2,12.4,12.2,12.3c-0.1,0.1-0.1,0.1-0.2,0.1c-0.1,0-0.1,0-0.1,0c0,0,0,0.1,0,0.1
			c0,0-0.1,0-0.1,0s0,0,0,0c0,0,0,0.1-0.1,0.1c0,0,0,0-0.1,0c0,0,0,0-0.1,0c0,0,0,0-0.1-0.1c0,0,0,0-0.1,0c0,0,0,0.1-0.1,0.1
			c0,0-0.1-0.1-0.1-0.1c0,0,0-0.1-0.1-0.1c0,0-0.1,0.1-0.1,0.1c0,0,0,0-0.1,0c0,0,0,0-0.1,0.1c0,0.1,0,0.1,0,0.1c0,0,0.1,0,0.1-0.1
			c0,0,0.1,0,0.1,0c0,0,0,0.1,0.1,0.2c0,0.1,0.1,0.1,0.1,0.1s0,0,0.1-0.1c0-0.1,0-0.1,0.1-0.1c0,0,0,0,0.1,0.1
			c0,0.1,0.1,0.1,0.1,0.1c0,0,0-0.1,0.1-0.1c0,0,0.1,0,0,0c0,0,0,0.1,0,0.1c0.1,0,0.3-0.1,0.4-0.1c0,0,0.1,0,0.2,0
			c0.1,0,0.1,0,0.2,0c0,0,0,0,0.1,0c0,0,0,0-0.1,0c-0.1,0-0.1,0-0.2,0c-0.1,0-0.1,0-0.1,0c0,0,0,0,0.1,0c0.1,0,0.2,0,0.3,0
			c0.1,0,0.1,0,0,0.1c0,0,0,0.1,0,0.2c0,0,0,0.1,0,0.1S13,13,13,13c0,0,0,0,0,0c0,0,0,0,0.1,0c0,0,0.1,0,0.1,0c0,0,0,0,0,0
			c0,0,0,0.1,0,0.1c0,0,0,0.1,0,0.1c0,0-0.1,0.1-0.1,0.1s0,0-0.1,0c-0.1,0-0.1,0.1-0.1,0.1c0,0,0,0,0,0.1c0,0,0,0,0,0h0c0,0,0,0,0,0
			c0,0,0.1,0,0.1,0c0,0,0,0,0,0.1h0.2c0,0,0.1-0.2,0.1-0.2c0,0,0-0.1,0-0.1c0-0.1,0-0.3,0-0.3c0,0,0,0,0-0.1c0-0.1,0-0.1-0.1-0.1
			c-0.1,0-0.1-0.1-0.2-0.1c0,0,0-0.1-0.1-0.2c0-0.1-0.1-0.1-0.2-0.1c-0.1,0-0.2,0-0.3,0C12.5,12.2,12.3,12.3,12.2,12.3
			C12.2,12.2,12.2,12.3,12.2,12.3L12.2,12.3z"/>
		<path class="st2" d="M12.9,13.5C12.9,13.5,12.8,13.5,12.9,13.5L12.9,13.5C13,13.5,13,13.5,12.9,13.5
			C12.9,13.5,12.9,13.5,12.9,13.5L12.9,13.5z"/>
		<path class="st2" d="M13.1,13.5C13.1,13.5,13,13.5,13.1,13.5L13.1,13.5C13.1,13.5,13.1,13.5,13.1,13.5
			C13.1,13.5,13.1,13.5,13.1,13.5L13.1,13.5z"/>
		<path class="st2" d="M10.2,13.6c0,0,0,0.1,0,0.1h3.6c0,0,0-0.1,0-0.1H10.2L10.2,13.6z"/>
		<path class="st2" d="M12.7,11.8c0.1,0.1,0.5,0.1,0.7,0.1c0.2,0,0.2,0.2,0.1,0.2c-0.1,0.1-0.3,0.1-0.3,0.1c0,0,0.1,0.1,0.1,0.1
			s0,0,0.1,0c0.1,0,0.2,0,0.3-0.1c0.1-0.1,0.1-0.2,0-0.3c-0.1-0.1-0.2-0.1-0.3-0.1c-0.1,0-0.2,0-0.4,0c-0.1,0-0.2-0.1-0.2-0.2
			c0-0.1,0.1-0.1,0.1-0.1c0.1,0,0.1,0,0.2,0c0.1,0,0.2,0,0.3,0c0.2,0,0.2-0.1,0.2-0.1s0,0-0.1,0c-0.1,0-0.1,0-0.3,0
			c-0.1,0-0.2,0.1-0.3,0.1c-0.1,0-0.3,0-0.3,0.2C12.5,11.7,12.5,11.8,12.7,11.8L12.7,11.8z"/>
		<ellipse class="st1" cx="11.7" cy="11.3" rx="0.1" ry="0.1"/>
		<path class="st1" d="M13.2,11.4c-0.1,0-0.2,0-0.2,0s0,0,0.1,0C13.1,11.4,13.1,11.4,13.2,11.4c0.1,0.1,0.2,0,0.2,0
			S13.3,11.4,13.2,11.4L13.2,11.4z"/>
		<path class="st3" d="M12.3,13.1C12.3,13.1,12.3,13.1,12.3,13.1c-0.1,0-0.1-0.1-0.1-0.1c0,0,0-0.2,0-0.2s-0.1,0-0.2,0
			c-0.1,0-0.1,0-0.2,0c-0.1,0-0.1,0-0.1,0c0,0-0.1,0-0.1,0c0,0,0,0-0.1,0.1c0,0-0.1,0.1-0.1,0.2c0,0.1-0.1,0.2-0.1,0.3
			c0,0.1,0,0.1,0,0.1h0.6c0,0,0,0,0-0.1c0,0,0-0.1,0.1-0.1c0,0,0,0,0.1,0c0,0,0,0,0.1-0.1c0,0,0.1,0,0.1,0c0,0,0.1,0,0.1,0
			c0,0,0,0,0-0.1C12.4,13.2,12.4,13.2,12.3,13.1C12.4,13.2,12.3,13.1,12.3,13.1L12.3,13.1z"/>
		<path class="st3" d="M13.2,13.1C13.2,13.1,13.2,13.1,13.2,13.1c0,0-0.1-0.1-0.1-0.1c0,0,0,0.1,0,0.1s-0.1,0-0.1,0
			c-0.1,0-0.2-0.1-0.2-0.1c0,0-0.1-0.1-0.1-0.1s0,0,0,0c0,0,0,0.1,0,0.1c0,0,0.1,0.1,0.1,0.2c0,0-0.1,0.1-0.1,0.2c0,0,0,0.1-0.1,0.1
			h0.3c0,0,0,0,0,0c0,0,0.1,0,0.1,0s0,0,0,0c0,0,0-0.1,0.1-0.1c0.1,0,0.2,0,0.2,0s0,0,0.1-0.1C13.3,13.2,13.2,13.2,13.2,13.1
			L13.2,13.1z"/>
	</g>
	<g>
		<path class="st2" d="M10.9,16.2c0.1,0,0.1,0,0.2-0.1c0-0.1,0.1-0.1,0.1-0.2c0-0.1,0.1-0.1,0.1-0.1s0,0.1-0.1,0.2
			c0,0.1-0.1,0.3,0,0.3c0,0.1,0.1,0.1,0.2,0.1c0,0,0.1-0.1,0.1-0.2c0,0,0-0.1,0-0.1c0-0.1,0.1-0.2,0.1-0.2c0,0,0,0.1,0,0.1
			c0,0.1-0.1,0.2-0.1,0.3c0,0.1,0,0.2,0.1,0.2c0.1,0,0.1-0.1,0.2-0.2c0-0.2,0.1-0.2,0.1-0.2c0,0,0,0.1,0,0.2c0,0,0,0.1,0,0.1
			c0,0.1,0,0.2,0.1,0.2c0,0,0.1,0,0.1,0s0,0,0.1,0c0,0,0.1-0.3,0.1-0.3s0-0.2,0-0.2c0,0,0,0.1,0.1,0.2c0,0.2,0.1,0.2,0.2,0.2
			c0.1,0,0.1-0.2,0.1-0.2c0-0.1-0.1-0.2-0.1-0.3c0-0.1,0-0.1,0.1,0c0,0,0,0.1,0.1,0.1c0,0.1,0.1,0.1,0.1,0.1c0,0,0.1,0,0.2-0.1
			c0-0.1-0.1-0.5-0.1-0.5s0,0,0,0.1c0,0.1,0.1,0.1,0.1,0.2c0,0.1,0.1,0.1,0.2,0.1s0.1-0.1,0-0.3c0-0.2-0.2-0.3-0.3-0.4
			c-0.1-0.1-0.2-0.3-0.2-0.4c-0.1,0.1-0.3,0.1-0.4,0.3c-0.2,0.2-0.3,0.3-0.3,0.3s0-0.1-0.3-0.3c-0.1-0.1-0.2-0.2-0.4-0.3
			c0,0-0.1,0.2-0.2,0.4c-0.1,0.1-0.1,0.1-0.2,0.2c-0.1,0.1-0.1,0.2-0.1,0.2C10.9,16,10.9,16.1,10.9,16.2L10.9,16.2z"/>
		<path class="st2" d="M10.9,16.7c0.1-0.1,0.1-0.1,0.1-0.1s0,0,0,0c0,0.1,0,0.2,0,0.3c0,0.1,0,0.1,0.1,0.1c0.1-0.1,0.1-0.1,0.1-0.1
			c0,0,0.1-0.1,0.1,0c0,0.1,0,0.2,0,0.3c0,0.1,0.1,0.2,0.2,0c0.1-0.1,0.1-0.2,0.2-0.3c0-0.1,0.1-0.1,0.1,0c0,0.2,0.1,0.6,0.3,0.6
			c0.2-0.1,0.3-0.4,0.3-0.6c0-0.1,0.1-0.1,0.1,0c0,0.1,0.1,0.2,0.2,0.3c0.1,0.1,0.2,0.1,0.2,0c0-0.1,0-0.2,0-0.3s0,0,0.1,0
			c0,0,0.1,0.1,0.1,0.1c0.1,0.1,0.1,0,0.1-0.1c0-0.1,0-0.2,0-0.3c0-0.1,0,0,0,0s0,0,0.1,0.1c0.1,0.1,0.2,0.1,0.2,0.1s0-0.2-0.1-0.4
			s-0.1-0.2-0.1-0.2s-0.1,0-0.1,0c0,0-0.1,0-0.1,0s0,0.1,0,0.1v0c0,0,0.1,0.1,0.1,0.1c0,0,0.1,0.1,0,0C13,16.4,13,16.4,13,16.4
			s0,0.1-0.1,0.1c0,0-0.1,0-0.1,0c0,0,0,0,0,0l0,0c0,0,0.1,0.1,0.1,0.2c0,0.1,0,0.1,0,0c0-0.1-0.1-0.2-0.1-0.2c0-0.1-0.1-0.1-0.1,0
			c0,0.1,0,0.2,0,0.2c0,0,0,0.1,0,0.1s0,0.2,0.1,0.2c0,0,0,0.1,0,0c0,0-0.1-0.2-0.1-0.2s-0.1,0-0.1,0c0,0-0.1-0.1-0.1-0.1
			s0,0.1-0.1,0.2c0,0-0.1,0.1-0.1,0.1s0,0.2,0,0.3c0,0,0,0.1,0,0.1c0,0,0,0,0-0.1c0,0,0-0.3,0-0.3s-0.1,0-0.1-0.1
			c0,0-0.1-0.2-0.1-0.2s0,0.1-0.1,0.1c0,0-0.1,0-0.1,0S11.6,17,11.5,17c0,0,0,0,0,0c0,0,0.1-0.2,0.1-0.2s0,0,0-0.1c0,0,0-0.2,0-0.2
			c0-0.1,0,0-0.1,0c0,0.1-0.1,0.1-0.1,0.2c0,0.1-0.1,0.1,0,0c0-0.1,0.1-0.2,0.1-0.2l0,0l0,0c0,0-0.1,0-0.1,0c0,0-0.1-0.1-0.1-0.1
			s-0.1,0.1-0.2,0.1c-0.1,0.1,0,0,0,0c0,0,0.1-0.1,0.1-0.1s0,0,0,0v-0.1c0,0,0,0-0.1,0c0,0-0.1,0-0.1,0s0,0-0.1,0.2
			c-0.1,0.1-0.1,0.4-0.1,0.4S10.9,16.8,10.9,16.7L10.9,16.7z"/>
		<path class="st2" d="M12.1,18.3c-0.1-0.1-0.1-0.1-0.1-0.1s0,0-0.1,0.1c-0.1,0.1-0.2,0.2-0.2,0.2s0,0.2,0.1,0.3
			c0.1,0.1,0.1,0.2,0.2,0.2c0.1-0.1,0.2-0.1,0.2-0.2c0.1-0.1,0.1-0.3,0.1-0.3S12.2,18.4,12.1,18.3L12.1,18.3z"/>
		<path class="st1" d="M12,18.6c0,0,0,0.2,0,0.2C12.1,18.7,12.1,18.6,12,18.6c0.1,0,0.1-0.2,0.1-0.2H12C12,18.4,12,18.5,12,18.6
			L12,18.6z"/>
		<path class="st2" d="M12.1,7.8c-0.3,0-0.6,0-0.7-0.1c-0.1,0-0.1,0-0.2,0C11.4,7.8,11.6,7.9,12.1,7.8c0.4,0.1,0.6,0.1,0.9-0.1
			c-0.1,0-0.1,0-0.2,0C12.6,7.8,12.3,7.8,12.1,7.8L12.1,7.8z"/>
		<path class="st2" d="M13,7.6c0,0-0.1-0.1-0.2-0.1c0,0,0-0.1,0-0.1c0,0,0.1-0.1,0.2-0.1c0.1,0,0.1,0,0.1,0s0-0.1-0.3-0.1
			c-0.3,0-0.8,0-0.8,0s-0.5,0-0.8,0C11,7.2,11,7.3,11,7.3s0,0,0.1,0c0.1,0,0.2,0.1,0.2,0.1c0,0,0,0.1,0,0.1c0,0-0.2,0.1-0.2,0.1
			c0,0,0,0,0,0c0,0,0,0,0.1,0c0.3-0.1,0.5-0.1,0.8-0.1c0.3,0,0.5,0,0.8,0.1C13,7.6,13,7.6,13,7.6C13,7.6,13,7.6,13,7.6L13,7.6z"/>
		<path class="st2" d="M12.7,7.7c-0.2,0-0.3,0-0.7,0c-0.3,0-0.5,0-0.7,0c0.1,0,0.3,0.1,0.7,0.1C12.4,7.8,12.6,7.7,12.7,7.7L12.7,7.7
			z"/>
		<polygon class="st2" points="12,5.1 12.1,5.1 12.1,5 12.3,5 12.3,4.9 12.1,4.9 12.2,4.8 12,4.8 12,4.9 11.8,4.9 11.8,5 12,5 		"/>
		<path class="st2" d="M12.3,5.3h-0.2V5.2c0,0,0,0-0.1,0c0,0,0,0-0.1,0v0.2h-0.2c0,0,0,0,0,0.1c0,0,0,0,0,0L12.3,5.3
			C12.3,5.4,12.3,5.4,12.3,5.3C12.3,5.4,12.3,5.3,12.3,5.3L12.3,5.3z"/>
		<path class="st3" d="M12.1,5.6c0.1,0,0.2-0.1,0.2-0.2h-0.5C11.8,5.6,11.9,5.6,12.1,5.6L12.1,5.6z"/>
		<path class="st3" d="M12.2,5.2v0.1h0.1C12.3,5.2,12.2,5.2,12.2,5.2L12.2,5.2z"/>
		<path class="st3" d="M12,5.2c-0.1,0-0.1,0.1-0.1,0.1H12V5.2z"/>
		<path class="st1" d="M12.2,7.3c0,0-0.2-0.1-0.2-0.1s-0.1,0-0.2,0.1c-0.1,0,0,0-0.1,0.1c0,0,0,0.1,0,0.1c0,0,0.2,0.1,0.2,0.1
			s0.2-0.1,0.2-0.1C12.3,7.4,12.3,7.4,12.2,7.3C12.3,7.3,12.3,7.3,12.2,7.3L12.2,7.3z"/>
		<polygon class="st2" points="11.9,7.3 12.1,7.4 12.2,7.3 12.1,7.2 		"/>
		<path class="st2" d="M12.1,6.7C12.1,6.7,12,6.7,12.1,6.7C12,6.8,12,6.8,12,6.8c0,0,0,0.1,0.1,0.1c0,0,0.1,0,0.1-0.1
			C12.1,6.8,12.1,6.8,12.1,6.7C12.1,6.7,12.1,6.7,12.1,6.7L12.1,6.7z"/>
		<circle class="st2" cx="12.1" cy="6.9" r="0"/>
		<path class="st2" d="M11.9,6.8C11.9,6.8,12,6.7,11.9,6.8c0.1-0.1,0.1-0.2,0.1-0.2s0,0,0,0.1c0,0,0.1,0.1,0.1,0.1s0.1,0,0.1-0.2
			c0-0.1,0-0.3,0-0.5c0-0.2,0-0.5,0-0.5c-0.1,0-0.1,0-0.2,0c-0.1,0-0.1,0-0.2,0c0,0,0,0.3,0,0.5c0,0.2-0.1,0.3,0,0.5
			C11.9,6.7,11.9,6.8,11.9,6.8L11.9,6.8z"/>
		<ellipse class="st1" cx="12.1" cy="6.4" rx="0.1" ry="0.1"/>
		<ellipse class="st1" cx="12.1" cy="6.1" rx="0.1" ry="0.1"/>
		<ellipse class="st1" cx="12.1" cy="5.8" rx="0.1" ry="0.1"/>
		<ellipse class="st2" cx="12.1" cy="6.4" rx="0.1" ry="0.1"/>
		<ellipse class="st2" cx="12.1" cy="6.1" rx="0.1" ry="0.1"/>
		<ellipse class="st2" cx="12.1" cy="5.8" rx="0.1" ry="0.1"/>
		<path class="st1" d="M12,16.5C12.1,16.5,12.1,16.4,12,16.5c0-0.1,0-0.2,0-0.2c0-0.1,0-0.1,0,0c0,0,0,0,0,0.1
			C12,16.3,12,16.4,12,16.5C12,16.5,12,16.5,12,16.5L12,16.5z"/>
	</g>
	<g id="g4017_3_">
		<path class="st2" d="M10.7,17.5c0.1,0,0.1-0.1,0.2-0.2c0.1-0.1,0.2-0.2,0.2-0.2h0c0,0,0,0,0-0.1c0,0,0-0.1,0-0.2
			c0-0.1,0-0.2,0-0.2s-0.1,0.1-0.1,0.1c-0.1,0-0.1,0-0.1,0l0-0.1c0,0,0,0.1-0.1,0.2c-0.1,0.1-0.2,0.2-0.3,0.3
			c-0.1,0.1-0.2,0.2-0.3,0.2c-0.1,0,0,0.1,0,0.1s0.1,0.1,0.3,0.1C10.5,17.7,10.6,17.6,10.7,17.5L10.7,17.5z"/>
		<path class="st2" d="M11.4,17.5c-0.1,0-0.1,0-0.1-0.1c0-0.1,0-0.3,0-0.3s0,0-0.1,0.1c0,0-0.1,0-0.1,0s0,0,0,0.1
			c0,0-0.1,0.1-0.1,0.2c-0.1,0-0.2,0.1-0.2,0.2c-0.1,0-0.1,0.1-0.2,0.1c-0.1,0-0.1,0.1-0.2,0.2c0,0.1,0,0.1,0.1,0.1
			c0.1,0,0.1,0,0.2,0c0.1,0,0.3-0.2,0.5-0.3C11.3,17.6,11.4,17.5,11.4,17.5L11.4,17.5z"/>
		<path class="st2" d="M11.8,17.6c0,0-0.1-0.1-0.1-0.2c0-0.1-0.1-0.3-0.1-0.3s0,0.1-0.1,0.2c0,0.1-0.1,0.1-0.1,0.1s0,0-0.1,0.1
			c-0.1,0.1-0.2,0.2-0.3,0.2c-0.1,0.1-0.2,0.1-0.3,0.2c-0.1,0.1-0.1,0.2,0,0.3c0,0,0.1,0,0.1,0c0.1,0,0.3-0.1,0.5-0.2
			C11.7,17.9,11.8,17.6,11.8,17.6L11.8,17.6z"/>
		<path class="st2" d="M11.9,18.2c0.1-0.1,0.1-0.4,0.1-0.4s0,0-0.1,0c0,0-0.1-0.1-0.1-0.1s0,0.1-0.1,0.2c0,0.1-0.1,0.1-0.2,0.2
			c-0.1,0.1-0.2,0.2-0.3,0.3c-0.1,0.1,0,0.3,0,0.4c0,0.1,0.1,0,0.1,0c0.1-0.1,0.1-0.1,0.2-0.2S11.9,18.3,11.9,18.2L11.9,18.2z"/>
		<path class="st1" d="M11.1,16c0-0.1,0.1-0.2,0.1-0.2c0,0,0.1-0.1,0.1-0.1s-0.1,0.1-0.1,0.1C11.1,15.8,11.1,15.9,11.1,16
			C11,16,11,16,11.1,16z"/>
		<path class="st1" d="M11.4,16C11.5,16,11.5,15.9,11.4,16c0-0.1,0-0.1,0-0.1C11.5,15.9,11.4,15.9,11.4,16c-0.1,0.1-0.1,0.2-0.1,0.2
			C11.3,16.2,11.4,16.1,11.4,16L11.4,16z"/>
		<path class="st1" d="M11.7,16.3C11.8,16.2,11.8,16.2,11.7,16.3c0,0,0-0.1,0-0.2c0,0,0,0,0,0C11.7,16.2,11.7,16.2,11.7,16.3
			C11.7,16.3,11.7,16.3,11.7,16.3C11.7,16.3,11.7,16.3,11.7,16.3L11.7,16.3z"/>
		<path class="st1" d="M10.8,17.2L10.8,17.2C10.8,17.1,10.8,17.2,10.8,17.2c-0.1,0.1-0.2,0.1-0.2,0.1c0,0-0.1,0.1-0.1,0.1
			c-0.1,0-0.1,0-0.1,0.1c0,0,0.1,0,0.1,0s0,0,0.1,0c0.1,0,0.1-0.1,0.1-0.1S10.8,17.2,10.8,17.2z"/>
		<path class="st1" d="M11.1,17.5C11.2,17.5,11.2,17.5,11.1,17.5C11.2,17.5,11.1,17.5,11.1,17.5c0,0-0.1,0-0.2,0.1
			c0,0-0.1,0-0.1,0.1c0,0-0.1,0.1-0.1,0.1c0,0,0,0,0,0s0,0,0.1,0c0,0,0.1,0,0.1,0s0,0,0.1,0C11,17.6,11.1,17.6,11.1,17.5L11.1,17.5z
			"/>
		<path class="st1" d="M11.5,17.8C11.5,17.8,11.5,17.8,11.5,17.8c-0.1,0-0.2,0.1-0.2,0.1s-0.1,0-0.1,0.1c0,0,0,0,0,0c0,0,0,0,0,0
			c0,0,0.1,0,0.1,0s0,0,0,0c0,0,0.1,0,0.1-0.1C11.4,17.9,11.5,17.8,11.5,17.8L11.5,17.8z"/>
		<path class="st1" d="M11.7,18.1c-0.1,0-0.2,0.1-0.2,0.2c0,0.1,0,0.1,0,0.1c0,0,0,0,0.1,0c0,0,0-0.1,0-0.1S11.6,18.2,11.7,18.1
			c0,0,0.1,0,0.1-0.1c0,0,0-0.1,0-0.1S11.7,18.1,11.7,18.1L11.7,18.1z"/>
		<path class="st5" d="M9.9,8.7c-0.1,0-0.2-0.1-0.4-0.1c-0.2,0-0.3,0-0.4,0c-0.1,0-0.2,0-0.3,0c-0.1,0-0.2-0.1-0.2-0.3
			c0,0-0.1,0.1,0,0.3c0.1,0.1,0.1,0.1,0.2,0.1c0.2,0,0.5-0.1,0.7-0.1c0.2,0,0.3,0.1,0.3,0.1s0,0,0.1,0C10,8.7,10,8.7,9.9,8.7z"/>
		<path class="st2" d="M9.3,15.6C9.3,15.6,9.2,15.6,9.3,15.6c-0.1,0-0.2,0-0.2,0c0,0-0.1,0-0.1,0c0,0-0.2,0.1-0.2,0.1h0.3
			C9.2,15.7,9.3,15.6,9.3,15.6L9.3,15.6z"/>
		<path class="st2" d="M10.1,15.5L10.1,15.5l0-0.1c0,0,0,0-0.1,0.1c-0.1,0.1-0.1,0.1-0.1,0.2c0,0.1-0.1,0.1-0.1,0
			c0.1-0.1,0.1-0.1,0.1-0.2c0-0.1,0.1-0.1,0.1-0.1c0,0,0,0-0.2,0c-0.1,0-0.2-0.1-0.2-0.1c-0.1,0-0.2-0.1-0.2-0.1s-0.2,0.1-0.3,0.1
			s-0.1,0,0,0.1c0.1,0,0.1,0,0.2,0.1c0,0,0.1,0.1,0.2,0.1c0.1,0,0.2,0,0.1,0c0,0-0.1,0.1-0.1,0.3c0,0.1-0.1,0.3-0.1,0.3
			c0,0.1,0,0.1,0,0.1s0.1-0.1,0.3-0.2c0.2-0.1,0.3-0.2,0.3-0.2c0,0,0.1,0,0.1-0.1C10.1,15.7,10.1,15.6,10.1,15.5L10.1,15.5z"/>
		<path class="st2" d="M10.9,14.9C10.9,14.9,10.9,14.9,10.9,14.9C10.9,14.8,10.9,14.8,10.9,14.9c-0.1,0-0.2,0.1-0.3,0.2
			c-0.1,0.1-0.1,0.1,0,0c0.1-0.1,0.1-0.2,0.2-0.2c0,0,0,0,0,0c-0.1-0.1-0.2-0.1-0.3-0.2c0,0,0,0.1-0.1,0.1c0,0-0.2,0.1-0.2,0.1
			s0.1-0.1,0.1-0.2c0,0,0-0.1,0-0.1c-0.1-0.1-0.2-0.1-0.2-0.2c0,0.1-0.1,0.2-0.2,0.3C9.8,14.9,9.4,15,9.4,15s-0.1,0,0,0
			s0.2,0.1,0.4,0c0.2,0,0.2,0,0.2,0c0,0,0.1,0,0,0c-0.1,0-0.3,0.1-0.4,0.1c-0.1,0-0.2,0-0.1,0s0.2,0.1,0.3,0.1c0.1,0,0.1,0,0.2,0
			c0.1,0,0.1,0,0.1,0c0.1,0,0.1,0,0.1,0c0,0-0.1,0.1-0.1,0.2c0,0.1,0,0.2,0,0.3c0,0,0,0.1,0.1,0.1c0,0,0,0.1,0,0
			c0-0.1,0.1-0.2,0.1-0.3c0-0.1,0-0.1,0-0.1c0,0,0.1-0.1,0,0s0,0.2-0.1,0.2c0,0.1-0.1,0.2,0,0.1c0.1-0.1,0.3-0.4,0.3-0.4
			c0,0,0.1-0.1,0.1-0.1c0,0,0.1-0.1,0.1-0.1c0-0.1,0.1-0.2,0.2-0.2C11.1,14.9,11,14.9,10.9,14.9L10.9,14.9z"/>
		<path class="st2" d="M7.6,8.8c0,0.1,0.2,0.4,0.3,0.6C8,9.5,8,9.6,8,9.6c0,0-0.1-0.1-0.1-0.1C7.8,9.4,7.7,9.2,7.7,9.1
			C7.6,9,7.5,8.7,7.5,8.7c0,0,0,0-0.1,0c0,0-0.1,0.3,0,0.5c0.1,0.2,0.2,0.4,0.3,0.4c0.1,0.1,0.1,0.2,0.1,0.2c0,0,0,0-0.1-0.1
			C7.6,9.7,7.5,9.6,7.4,9.5C7.3,9.4,7.3,9.2,7.2,9.2c0,0,0,0,0,0c0,0-0.1,0.1,0,0.3c0,0.2,0.1,0.4,0.3,0.5c0.1,0.1,0.2,0.2,0.2,0.2
			c0,0-0.1-0.1-0.2-0.2C7.3,9.9,7.1,9.7,7.1,9.7C7,9.6,7,9.7,7,9.9c0,0.2,0.2,0.4,0.3,0.5c0.1,0.1,0.2,0.2,0.2,0.2
			c0,0-0.1,0-0.2-0.1c-0.1,0-0.3-0.2-0.3-0.2c0,0-0.1,0,0,0.2c0.1,0.2,0.2,0.3,0.3,0.4C7.4,11,7.6,11,7.6,11.1c0,0-0.1,0-0.2-0.1
			c-0.1,0-0.2-0.1-0.3-0.1c-0.1,0-0.1,0-0.1,0s0,0.2,0.1,0.3s0.2,0.2,0.4,0.2c0.1,0,0.1,0,0.1,0c0,0,0,0,0,0c0,0-0.1,0-0.3,0
			s-0.2,0-0.2,0.1c0,0,0,0.1,0.2,0.2c0.2,0.1,0.3,0.1,0.4,0.1c0.1,0,0.1,0,0.1,0c0,0-0.1,0-0.2,0c-0.1,0-0.2,0.1-0.2,0.1
			c0,0,0,0.1,0.1,0.2c0.1,0.1,0.2,0.1,0.4,0.1c0.2,0,0.2,0,0.2,0c0,0-0.1,0-0.2,0.1c-0.1,0-0.2,0-0.2,0.1c-0.1,0,0,0.1,0.1,0.2
			c0.1,0.1,0.3,0.1,0.4,0.1c0.1,0,0.2,0,0.2,0c0,0-0.1,0.1-0.2,0.1c-0.1,0-0.1,0.1-0.1,0.1c0,0,0,0.1,0.1,0.1c0.1,0,0.3,0,0.4,0
			c0.1,0,0.1-0.1,0.2,0c0,0,0,0,0,0.1c0,0-0.1,0.1-0.2,0.1c-0.1,0-0.1,0-0.1,0.1c0,0.1,0.1,0.1,0.2,0.1c0.2,0,0.4-0.1,0.5-0.1
			c0.1,0,0.1-0.1,0.1,0c0,0,0,0,0,0.1c0,0-0.2,0.1-0.2,0.1c-0.1,0-0.1,0.1-0.1,0.1c0,0,0,0.1,0.1,0.2c0.2,0,0.3,0,0.5-0.1
			c0.1,0,0.1-0.1,0.1-0.1c0-0.2,0-0.3,0-0.4c0,0-0.1,0-0.2,0c-0.1,0-0.1-0.1-0.2-0.2c0,0-0.1,0-0.1,0c0,0-0.1,0-0.1,0
			c-0.1,0-0.2,0-0.2-0.1C9,12.7,9,12.6,9,12.6c0,0-0.1,0-0.1,0c0,0-0.1,0-0.2-0.1c-0.1-0.1-0.1-0.2-0.1-0.2c0,0-0.1-0.1-0.1-0.1
			c0,0-0.1,0-0.2-0.1c-0.1-0.1-0.1-0.2-0.1-0.2c0,0,0,0-0.2-0.1c-0.1-0.1-0.1-0.2-0.1-0.3c0-0.1,0.1-0.1,0.1-0.1c0,0,0,0-0.1-0.1
			c0,0-0.2-0.1-0.2-0.3c0-0.2,0.1-0.2,0.1-0.2s0,0-0.1,0c0,0-0.2-0.1-0.2-0.2c0-0.1,0-0.2,0.1-0.2c0,0,0.1-0.1,0.1-0.1
			s-0.1,0-0.1-0.1c0-0.1,0-0.2,0-0.3C7.8,10,7.9,10,7.9,10C8,10,8,10,8,10c0,0,0,0,0-0.1c0,0,0-0.1,0-0.2c0,0,0-0.1,0.2-0.1
			c0.1,0,0.3,0,0.3,0.1c0,0,0,0,0-0.1c0,0-0.1-0.2-0.2-0.3C8.2,9.1,8.2,9,8.1,8.8C8,8.5,7.9,8.2,7.9,8.2c0-0.1,0,0,0,0s0,0-0.1,0.2
			C7.6,8.5,7.6,8.7,7.6,8.8L7.6,8.8z"/>
		<path class="st2" d="M10,12c-0.1,0-0.2,0-0.3-0.2c-0.1-0.1-0.2-0.1-0.4-0.1c-0.2,0-0.3-0.1-0.4-0.2c-0.1-0.1,0-0.3,0.2-0.4
			c0.2-0.1,0.3-0.2,0.3-0.4c0-0.2-0.2-0.4-0.4-0.7C8.9,9.7,8.7,9.4,8.7,9.4S8.6,9.5,8.6,9.5c0,0.1,0,0.2,0,0.2c0,0,0,0-0.2-0.1
			c-0.1-0.1-0.2-0.1-0.3,0C8,9.8,8.1,9.9,8.2,10c0.1,0.1,0.1,0.1,0.1,0.2c0,0-0.1,0-0.2-0.1c0,0-0.1-0.1-0.2-0.1
			c-0.1,0-0.2,0-0.2,0.2c0,0.1,0.1,0.2,0.2,0.2C8,10.4,8,10.5,8,10.5c0,0,0,0-0.1,0c0,0-0.1,0-0.2,0c-0.1,0-0.2,0.1-0.1,0.2
			C7.8,10.8,8,10.8,8,10.8c0,0,0.1,0,0.1,0c0,0-0.1,0-0.2,0c-0.1,0-0.1,0.1-0.1,0.2c0,0.1,0.2,0.2,0.3,0.2c0.1,0,0.1,0,0.1,0
			c0,0,0,0-0.1,0.1c-0.1,0-0.2,0-0.2,0.1c0,0.1,0,0.1,0.1,0.2c0.1,0.1,0.2,0.1,0.3,0.1c0,0,0.1-0.1,0.1,0c0,0,0,0.1-0.1,0.1
			c-0.1,0-0.1,0.1,0.1,0.2c0.1,0.1,0.2,0,0.3,0c0,0,0.1-0.1,0.1,0c0,0-0.1,0.1-0.2,0.1c-0.1,0.1,0,0.2,0.1,0.3c0.1,0.1,0.3,0,0.3,0
			c0,0,0.1,0,0.1,0c0,0,0,0.1,0,0.1c0,0.1-0.1,0.2,0.1,0.3c0.2,0.1,0.3-0.1,0.4-0.1c0,0,0.1,0,0.1,0c0,0,0,0,0,0.1
			c0,0-0.1,0.1,0.1,0.2c0.1,0.1,0.2,0.1,0.2,0c0-0.1,0.1-0.2,0.1-0.3h0c0,0,0,0,0,0s0,0,0,0c0,0,0,0,0,0c0,0,0,0-0.1,0
			c0,0,0,0,0.1-0.1c0,0,0,0,0-0.1c0,0,0,0,0-0.1c0,0,0,0,0,0c0-0.1,0-0.2,0.1-0.3C10.1,12.2,10.1,12.1,10,12L10,12L10,12z"/>
		<path class="st2" d="M6.6,9.5C6.7,9.9,7,10.1,7,10.1s0-0.1,0-0.2c0-0.1,0-0.1,0-0.1S6.9,9.7,6.8,9.5C6.6,9.3,6.6,9.1,6.6,9.1
			s0.1,0.3,0.2,0.4C6.9,9.6,7,9.7,7,9.7S7,9.6,7,9.6c0,0,0,0,0.1,0c0,0,0,0,0,0s0-0.1-0.1-0.1C7,9.5,7,9.5,7,9.4
			C6.9,9.3,6.8,9.1,6.7,8.9C6.6,8.7,6.4,8.2,6.4,8.1c0-0.1-0.1-0.1-0.1,0c0,0.1-0.1,0.3,0,0.5C6.3,8.8,6.4,9.1,6.6,9.5L6.6,9.5z"/>
		<path class="st2" d="M6.8,10.5c0.1,0,0.2,0.1,0.2,0.1s0,0,0-0.1c0,0,0-0.1,0-0.1s-0.1-0.1-0.1-0.1c-0.1,0-0.1-0.1-0.3-0.3
			c-0.1-0.2,0-0.1,0.1,0.1c0.1,0.1,0.3,0.3,0.3,0.3s0,0,0,0c0,0,0-0.1,0-0.1c0,0,0,0-0.1-0.1C6.7,10,6.4,9.6,6.3,9.4
			C6.2,9.2,6,8.9,6,8.9S6,9.4,6.2,9.8C6.5,10.3,6.7,10.4,6.8,10.5z"/>
		<path class="st2" d="M8.1,13.1c0.1-0.1,0.1-0.2,0.1-0.2c0,0-0.1,0-0.2,0.1c-0.1,0-0.3,0.1-0.3,0.1c-0.1,0-0.1,0-0.1,0
			c0,0,0.1,0,0.2,0c0.1,0,0.3-0.1,0.3-0.1c0,0,0,0,0,0c0,0-0.1,0-0.1,0c0,0-0.1,0-0.2,0c-0.1,0-0.4,0.1-0.6,0.1s-0.4,0-0.4,0
			c0,0-0.1,0,0,0.2c0.1,0.2,0.4,0.3,0.7,0.2C7.8,13.3,8,13.2,8.1,13.1L8.1,13.1z"/>
		<path class="st2" d="M7.5,12.8c0.2,0,0.3-0.1,0.3-0.1s0,0,0-0.1c0,0,0-0.1,0-0.1s-0.1,0-0.2,0c-0.1,0-0.2,0-0.3,0s-0.1,0,0,0
			c0.1,0,0.3,0,0.4,0c0.1,0,0,0,0-0.1c0,0-0.2-0.1-0.2-0.1s-0.3,0-0.6,0c-0.3,0-0.4-0.1-0.5-0.1c-0.1,0-0.1,0-0.1,0s0,0,0.1,0.2
			c0.1,0.1,0.3,0.2,0.4,0.3C7,12.8,7.3,12.8,7.5,12.8L7.5,12.8z"/>
		<path class="st2" d="M7.4,12.2C7.4,12.2,7.4,12.2,7.4,12.2c0-0.1,0-0.2,0-0.2s-0.1,0-0.2,0C7,12,7,12,6.9,12
			c-0.1,0-0.2-0.1-0.2-0.1c0,0,0,0,0.1,0c0.1,0,0.3,0.1,0.5,0.1c0.1,0,0.2,0,0.2,0c0,0,0.1,0,0.1,0s0,0-0.1,0c-0.1,0-0.1,0-0.2-0.1
			c0,0,0,0-0.2,0c-0.1,0-0.3-0.1-0.5-0.2c-0.3-0.1-0.5-0.2-0.5-0.3c-0.1,0,0,0,0,0c0,0.1,0,0.1,0.1,0.3c0.1,0.2,0.2,0.2,0.5,0.4
			C7.1,12.2,7.4,12.2,7.4,12.2L7.4,12.2z"/>
		<path class="st2" d="M6.4,11.4c0.3,0.2,0.7,0.3,0.7,0.3c0,0,0-0.1,0-0.1c0-0.1,0.1-0.1,0.1-0.1c0.1,0,0,0,0,0s0,0-0.1,0
			c-0.1,0-0.2,0-0.4-0.1c-0.2-0.1-0.2-0.1-0.2-0.1c0,0,0.1,0,0.2,0.1c0.2,0.1,0.3,0.1,0.4,0.1c0.1,0,0,0,0,0c0,0-0.1-0.1-0.1-0.1
			s-0.1,0-0.3-0.1c-0.2-0.1-0.3-0.1-0.5-0.2c-0.1,0-0.1-0.1-0.2-0.1c-0.1-0.1-0.2-0.1-0.2-0.2c-0.1,0,0,0,0,0c0,0,0,0.2,0.1,0.3
			C6.1,11.1,6.1,11.2,6.4,11.4z"/>
		<path class="st2" d="M6.4,10.8C6.7,11,6.9,11.1,7,11.1c0,0,0,0,0,0c0,0,0-0.1,0-0.1s-0.1-0.1-0.2-0.1c-0.1-0.1-0.2-0.2-0.3-0.2
			c-0.1-0.1,0-0.1,0,0c0,0,0.1,0.1,0.3,0.2C6.8,10.8,7,10.9,7,10.9s0,0,0-0.1c0,0,0.1,0,0.1,0s0,0,0-0.1c0,0-0.1-0.1-0.2-0.1
			c-0.1-0.1-0.3-0.2-0.5-0.3C6.2,10.3,6,9.9,5.9,9.9c0,0,0,0,0,0c0,0,0,0.1,0,0.2C6,10.3,6.1,10.6,6.4,10.8z"/>
		<path class="st2" d="M7.4,8.6c0,0.1,0.1,0.1,0.1,0.2c0,0.1,0.1,0.1,0.1,0.1s0,0,0-0.1c0,0,0-0.1,0-0.2c0,0,0-0.1,0-0.1
			c0,0,0-0.1,0-0.1c0,0-0.1-0.2-0.1-0.3c0-0.1,0-0.3,0-0.4c0-0.2,0-0.1,0,0s0,0.2,0,0.4c0,0.2,0.1,0.4,0.1,0.4s0,0,0-0.1
			s0.1-0.1,0.1-0.2c0-0.1,0-0.1,0-0.1S7.6,7.6,7.6,7.3c0-0.2-0.1-0.9-0.1-0.9C7.4,6.6,7.3,7,7.3,7.4c0,0.3,0,0.6,0,0.7
			C7.3,8.3,7.4,8.5,7.4,8.6L7.4,8.6z"/>
		<path class="st2" d="M7.1,9.4c0-0.1,0-0.2,0.1-0.2c0,0-0.1-0.1-0.1-0.3C7,8.8,7,8.6,7,8.5c0-0.3-0.1-0.5,0-0.1
			C7.1,8.9,7.2,9,7.2,9l0.1,0.2c0-0.1,0-0.1,0-0.2s0-0.2,0-0.3c0,0-0.1-0.3-0.2-0.6C7,7.7,7,7.4,6.9,7.2c0-0.2,0-0.2,0-0.2
			S6.8,7.1,6.7,7.7c0,0.5,0.1,1.1,0.2,1.3C7,9.1,7.1,9.4,7.1,9.4L7.1,9.4z"/>
		<path class="st2" d="M8.7,13.5C8.7,13.5,8.6,13.5,8.7,13.5c-0.2-0.1-0.1-0.2-0.1-0.2s0,0-0.1,0c0,0-0.1,0.1-0.2,0.1
			c-0.1,0-0.1,0-0.1,0.1c0,0,0,0,0,0c0,0,0,0,0.1-0.1c0.1,0,0.3-0.2,0.3-0.2s0,0-0.1,0c-0.1,0-0.2,0-0.2,0s-0.1,0.1-0.4,0.2
			c-0.3,0.1-0.6,0.2-0.6,0.2s0,0.2,0.2,0.2c0.1,0.1,0.3,0.1,0.6,0C8.4,13.7,8.7,13.5,8.7,13.5L8.7,13.5z"/>
		<path class="st2" d="M9,13.8c0-0.1,0-0.2,0-0.2s0,0-0.1,0c0,0-0.1,0.1-0.2,0.2c-0.1,0.1-0.2,0.1,0,0C8.8,13.8,9,13.6,9,13.6l0,0
			c0,0-0.1,0-0.5,0.2C8.1,14,7.9,14,7.9,14s0.2,0.2,0.6,0.2C8.9,14.2,9,14,9,13.8L9,13.8z"/>
		<path class="st2" d="M9.8,13.7c0,0,0,0.1-0.1,0.1c-0.1,0-0.2,0.1-0.2,0.1s0,0,0,0.1c0,0-0.1,0.1-0.2,0.2c-0.1,0.1-0.2,0.1-0.2,0.1
			c0,0,0.1,0,0.1-0.1c0.1,0,0.1-0.1,0.2-0.2c0-0.1,0,0,0,0s-0.1,0-0.2,0c-0.1,0-0.1,0-0.1,0S9.1,14,9,14c-0.1,0.1-0.1,0.2-0.2,0.2
			c0,0.1,0,0.1,0,0.1s0,0,0.2,0.1c0.1,0,0.2,0,0.4-0.1c0.1,0,0.2-0.1,0.2-0.2C9.8,13.9,9.8,13.7,9.8,13.7L9.8,13.7z"/>
		<path class="st2" d="M9.9,14.2C9.9,14.2,9.9,14.3,9.9,14.2C9.9,14.3,9.9,14.2,9.9,14.2c0-0.1,0-0.1,0-0.1c0-0.1-0.1-0.1-0.1-0.2
			c0,0.1-0.1,0.3-0.2,0.4c-0.1,0.2-0.2,0.2-0.1,0.2c0.1,0,0.2,0,0.3,0c0.1-0.1,0.1-0.2,0.2-0.2C10,14.2,10,14.2,9.9,14.2
			C10,14.1,9.9,14.1,9.9,14.2L9.9,14.2z"/>
		<ellipse class="st2" cx="9.9" cy="8.1" rx="0.1" ry="0.1"/>
		<path class="st2" d="M9.7,8c0.1,0,0.1,0,0.2,0C10,8,10.2,8,10.3,8.1c0.1,0.1,0.3,0.1,0.5,0c0,0,0.1,0,0.1-0.1
			c0.2-0.1,0.2-0.3,0.2-0.3c-0.1,0.1-0.3,0.2-0.5,0.2c0,0,0,0,0,0c0,0,0.1,0.1,0.1,0.1c0,0-0.1-0.1-0.2-0.1c-0.1,0-0.2-0.1-0.3-0.2
			c-0.2,0-0.3,0-0.4,0C9.7,7.9,9.6,7.9,9.7,8C9.7,8,9.7,8,9.7,8z"/>
		<path class="st2" d="M11.9,9.6c0,0-0.1,0-0.2-0.1c-0.1-0.1-0.3-0.3-0.3-0.3c0,0,0-0.1,0-0.1c0.1,0,0.1-0.1,0.1-0.1s-0.1,0-0.2-0.1
			c-0.1-0.1-0.3-0.2-0.3-0.3s0,0,0-0.1c0,0,0,0,0,0S11,8.5,11,8.4c-0.1-0.1-0.2-0.2-0.2-0.2c-0.1,0-0.3,0-0.4,0
			c-0.2,0-0.3-0.1-0.3-0.1s0,0,0,0.1c0,0.1-0.1,0.1-0.2,0C9.7,8.2,9.8,8.1,9.8,8.1S9.7,8,9.6,8C9.4,7.9,9.3,7.9,9.2,8
			C9.1,8,9,8.2,9,8.3c0,0.1,0.1,0.1,0.1,0.1c0,0,0-0.1,0.2-0.1c0.1,0,0.3,0,0.4,0.2C9.9,8.6,9.9,8.6,10,8.6c0.1,0.1,0,0.1-0.1,0.2
			c-0.1,0-0.3,0-0.3,0c0,0,0.1,0.1,0.2,0.2c0.1,0,0.3,0,0.4,0c0.1,0,0.1,0,0.1,0c0.1,0.1,0.2,0.3,0.2,0.4c0.1,0,0.1-0.1,0.1-0.1
			c0,0,0-0.1,0.1,0c0,0,0.1,0.3,0.1,0.4s0,0.2,0,0.2l0,0c0,0,0.1,0,0.1-0.1c0.1,0,0.1,0,0.1,0.1s0,0.2,0.1,0.4s0.2,0.3,0.2,0.3
			s0,0,0-0.1c0-0.1,0-0.2,0-0.4c0-0.1,0-0.4,0-0.4s0.2,0.2,0.3,0.2c0.2,0,0.3,0,0.4-0.1C12,9.7,11.9,9.6,11.9,9.6L11.9,9.6z"/>
		<path class="st2" d="M10.8,10.1c0,0-0.1,0.1-0.1,0.2s0,0,0,0s0.1,0,0.1,0.1c0.1,0,0.1,0,0.1,0s-0.1-0.1-0.1-0.2
			C10.8,10.2,10.8,10.1,10.8,10.1L10.8,10.1z"/>
		<path class="st2" d="M11.8,10.1C11.8,10,11.8,10,11.8,10.1c-0.1-0.1-0.3-0.1-0.4-0.2c0,0,0.1,0.2,0.2,0.2c0.1,0.1,0.1,0.1,0.1,0.1
			s-0.1,0-0.2-0.1c-0.1-0.1-0.1-0.2-0.1-0.2s0,0.3,0,0.4c0,0.2-0.1,0.2-0.1,0.2s0.2,0,0.5,0c0.2-0.1,0.3-0.1,0.3-0.1s0,0,0-0.1
			C11.9,10.2,11.8,10.1,11.8,10.1L11.8,10.1z"/>
		<path class="st1" d="M11.3,9.5c-0.1-0.1-0.1-0.1-0.1-0.1S11.2,9.4,11.3,9.5c-0.1,0,0,0.1,0.1,0.1c0.1,0,0.1,0.1,0.1,0.1l0,0
			C11.6,9.6,11.4,9.6,11.3,9.5z"/>
		<path class="st1" d="M11.1,10c0,0,0-0.3,0-0.4c0-0.1,0,0,0,0l0,0C11,9.6,11,10.1,11.1,10c0,0.1,0,0.1,0,0.1
			C11.1,10.2,11.1,10,11.1,10L11.1,10z"/>
		<path class="st1" d="M10.6,8.6C10.6,8.5,10.5,8.5,10.6,8.6c0,0.1,0.1,0.2,0.1,0.2c0,0.1,0,0.2,0,0.1c0,0-0.1,0-0.1-0.1
			c0,0-0.1-0.1-0.2-0.1c0,0-0.1,0,0,0.1c0,0.1,0.1,0.1,0.2,0.2c0.1,0.1,0.1,0.1,0.2,0.1c0,0,0.1,0.1,0.1,0.1s0-0.3-0.1-0.4
			C10.7,8.7,10.6,8.6,10.6,8.6z"/>
		<path class="st1" d="M9.1,13.2C9,13.3,9,13.3,9,13.3s0,0,0,0S9,13.3,9.1,13.2C9.1,13.3,9.1,13.2,9.1,13.2
			C9.2,13.2,9.2,13.2,9.1,13.2C9.2,13.1,9.1,13.2,9.1,13.2L9.1,13.2z"/>
		<path class="st1" d="M9.6,13.5c0,0-0.1,0.1-0.1,0.1s0,0-0.1,0c0,0,0,0,0,0s0,0,0,0C9.4,13.6,9.5,13.5,9.6,13.5
			C9.6,13.5,9.6,13.5,9.6,13.5C9.6,13.5,9.6,13.5,9.6,13.5L9.6,13.5z"/>
		<path class="st1" d="M7.6,10C7.6,10,7.6,10,7.6,10C7.7,10,7.7,10,7.6,10C7.6,9.9,7.6,9.9,7.6,10c0,0,0-0.1-0.1-0.1c0,0,0,0,0,0
			C7.6,9.9,7.6,10,7.6,10z"/>
		<path class="st1" d="M7.5,10.3C7.5,10.3,7.5,10.3,7.5,10.3c0.1,0.1,0.1,0.1,0.1,0.1C7.6,10.4,7.5,10.4,7.5,10.3
			C7.5,10.3,7.5,10.3,7.5,10.3C7.4,10.3,7.4,10.2,7.5,10.3C7.4,10.2,7.4,10.3,7.5,10.3L7.5,10.3z"/>
		<path class="st1" d="M7.5,10.8C7.6,10.9,7.6,10.9,7.5,10.8C7.6,10.9,7.6,10.8,7.5,10.8C7.5,10.8,7.5,10.8,7.5,10.8
			c-0.1-0.1-0.1-0.1-0.1-0.1c0,0,0,0,0,0C7.4,10.7,7.4,10.7,7.5,10.8C7.4,10.8,7.5,10.8,7.5,10.8L7.5,10.8z"/>
		<path class="st1" d="M7.6,11.3C7.6,11.2,7.6,11.2,7.6,11.3c-0.1,0-0.1,0-0.1,0s-0.1,0-0.1,0C7.5,11.2,7.5,11.2,7.6,11.3
			C7.6,11.3,7.6,11.3,7.6,11.3C7.6,11.3,7.6,11.3,7.6,11.3L7.6,11.3z"/>
		<path class="st1" d="M7.7,11.7c-0.1,0-0.1,0-0.1,0C7.5,11.7,7.6,11.7,7.7,11.7C7.6,11.8,7.7,11.8,7.7,11.7c0.1,0.1,0.1,0,0.1,0
			C7.8,11.7,7.7,11.7,7.7,11.7z"/>
		<path class="st1" d="M8.2,12.2C8.2,12.2,8.2,12.2,8.2,12.2c-0.1,0-0.2,0-0.2,0s-0.1,0-0.1,0l0,0c0,0,0.1,0,0.1,0
			C8,12.3,8.1,12.3,8.2,12.2C8.2,12.2,8.2,12.2,8.2,12.2L8.2,12.2z"/>
		<path class="st1" d="M8.4,12.6c0,0-0.1,0-0.1,0c0,0-0.1,0-0.1,0s0,0,0,0c0,0,0,0,0,0C8.2,12.6,8.3,12.6,8.4,12.6
			C8.4,12.6,8.4,12.6,8.4,12.6C8.5,12.6,8.5,12.6,8.4,12.6C8.5,12.5,8.4,12.6,8.4,12.6L8.4,12.6z"/>
		<path class="st1" d="M8.8,12.9c0,0-0.1,0.1-0.1,0.1s0,0-0.1,0c0,0,0,0,0,0c0,0,0,0,0,0C8.7,13,8.8,12.9,8.8,12.9
			C8.8,12.9,8.9,12.9,8.8,12.9C8.8,12.8,8.8,12.8,8.8,12.9L8.8,12.9z"/>
		<path class="st1" d="M8.1,9.3c0,0,0,0,0.1,0.1C8.3,9.5,8.2,9.5,8.1,9.3c0.1,0.1,0-0.1-0.1-0.1c0,0,0,0,0,0
			C8.1,9.2,8.1,9.3,8.1,9.3z"/>
		<path class="st1" d="M8,9.8C8,9.8,8,9.8,8,9.8C7.9,9.7,7.8,9.6,7.8,9.6s0,0,0,0c0,0,0,0.1,0.1,0.1C7.9,9.7,7.9,9.7,8,9.8
			C7.9,9.8,8,9.8,8,9.8L8,9.8z"/>
		<path class="st1" d="M8.2,10.7c0,0-0.1,0-0.1,0c0,0-0.1,0-0.1,0s-0.1,0-0.1,0c0,0,0,0,0.1,0C8,10.7,8,10.7,8.2,10.7
			C8.1,10.7,8.2,10.7,8.2,10.7L8.2,10.7z"/>
		<path class="st1" d="M8,10.2c0.1,0,0.1,0.1,0.1,0.1c0,0,0.1,0,0.1,0c0,0,0,0-0.1-0.1C8.1,10.2,8,10.2,8,10.2C8,10.2,8,10.2,8,10.2
			C8,10.2,7.9,10.2,8,10.2L8,10.2z"/>
		<path class="st1" d="M8.4,9.9C8.4,9.9,8.4,9.8,8.4,9.9c-0.1,0-0.1-0.1-0.1-0.1C8.3,9.8,8.4,9.9,8.4,9.9C8.4,9.9,8.5,10,8.4,9.9
			C8.5,10,8.5,9.9,8.4,9.9z"/>
		<path class="st1" d="M8.1,11.1C8.1,11.1,8.1,11.1,8.1,11.1C8,11.1,8,11.1,8.1,11.1C8.1,11.1,8.2,11.1,8.1,11.1c0.1,0,0.1,0,0.1,0
			C8.3,11.1,8.2,11.1,8.1,11.1C8.2,11.1,8.1,11.1,8.1,11.1z"/>
		<path class="st1" d="M8.2,11.5C8.2,11.5,8.3,11.5,8.2,11.5c0.1,0,0.1,0,0.2-0.1c0,0,0,0,0,0c0,0,0,0-0.1,0
			C8.3,11.5,8.3,11.5,8.2,11.5C8.3,11.5,8.2,11.5,8.2,11.5L8.2,11.5z"/>
		<path class="st1" d="M8.8,11.8C8.8,11.8,8.8,11.8,8.8,11.8C8.8,11.7,8.8,11.7,8.8,11.8c-0.1,0-0.1,0-0.1,0s0,0-0.1,0s-0.1,0,0,0
			c0,0,0.1,0,0.1,0C8.7,11.9,8.7,11.8,8.8,11.8L8.8,11.8z"/>
		<path class="st1" d="M9,12.2C9.1,12.1,9.1,12.1,9,12.2C9.1,12.1,9.2,12,9.1,12C9.1,12,9.1,12.1,9,12.2c0,0-0.1,0-0.1,0l0,0
			c0,0,0,0,0,0C8.9,12.2,8.9,12.2,9,12.2C9,12.2,9,12.2,9,12.2z"/>
		<path class="st1" d="M9.4,12.5c0,0,0.1-0.1,0.1-0.1c0,0,0.1,0,0-0.1c0,0,0,0-0.1,0C9.5,12.4,9.4,12.5,9.4,12.5
			C9.4,12.5,9.4,12.5,9.4,12.5C9.3,12.5,9.4,12.5,9.4,12.5C9.4,12.5,9.4,12.5,9.4,12.5L9.4,12.5z"/>
		<polygon class="st2" points="11,7.5 11.2,7.4 11,7.3 10.9,7.4 		"/>
		<ellipse class="st1" cx="11.5" cy="7.4" rx="0.2" ry="0.1"/>
		<ellipse class="st2" cx="11.5" cy="7.3" rx="0.1" ry="0.1"/>
		<path class="st2" d="M11.2,6.9C11.3,6.9,11.3,6.9,11.2,6.9C11.3,6.9,11.3,6.8,11.2,6.9c0-0.1,0-0.1,0-0.2c0,0,0,0,0,0s0,0.1,0,0.1
			C11.2,6.8,11.2,6.8,11.2,6.9L11.2,6.9z"/>
		<ellipse class="st2" cx="11.3" cy="6.9" rx="0" ry="0"/>
		<path class="st2" d="M11.1,6.9C11.1,6.9,11.1,6.9,11.1,6.9C11.1,6.9,11.1,6.9,11.1,6.9C11.1,7,11.2,7,11.2,7c0,0,0,0,0-0.1
			C11.2,6.9,11.2,6.9,11.1,6.9C11.1,6.9,11.1,6.9,11.1,6.9z"/>
		<path class="st2" d="M11.2,7.1C11.1,7.1,11,7,11,7c0,0.1-0.1,0.1-0.1,0.1l0,0c0,0,0.1,0,0.2,0.1C11.1,7.2,11.1,7.2,11.2,7.1
			C11.2,7.2,11.2,7.1,11.2,7.1c0.1,0,0.1-0.1,0.1-0.1S11.3,7.1,11.2,7.1L11.2,7.1z"/>
		<path class="st2" d="M10.8,7c0,0-0.1,0-0.1,0c0,0-0.1,0-0.1,0C10.7,7,10.7,7,10.8,7C10.8,7,10.8,7,10.8,7C10.9,7,10.9,7,10.8,7z"
			/>
		<path class="st2" d="M10.5,6.8C10.5,6.8,10.5,6.8,10.5,6.8C10.5,6.8,10.4,6.9,10.5,6.8c-0.1,0.1,0,0.1,0,0.1
			C10.6,7,10.6,6.9,10.5,6.8C10.6,6.9,10.6,6.9,10.5,6.8z"/>
		<ellipse class="st2" cx="10.6" cy="7" rx="0" ry="0"/>
		<path class="st2" d="M10.7,6.7c0-0.1,0-0.3,0.1-0.4C10.9,6.1,11.1,6,11.1,6s0,0,0.1-0.1c0.1-0.1,0.2-0.2,0.2-0.2s-0.2,0-0.2,0.1
			c0,0,0,0,0,0c0,0.1,0,0.1-0.1,0.1c0,0,0,0-0.1,0c0,0-0.2,0.1-0.2,0.1c0,0,0,0,0,0.1c0,0.1,0,0.1-0.1,0.1c0,0,0,0,0,0c0,0,0,0,0,0
			c0,0.1-0.1,0.1-0.1,0.2c0,0,0,0.1,0,0.1c0,0.1,0,0.1-0.1,0.1c0,0,0,0.1,0,0.1c0,0,0,0.1,0.1,0.1c0.1,0,0.1,0.1,0.1,0.1
			C10.7,6.9,10.7,6.8,10.7,6.7L10.7,6.7z"/>
		<path class="st2" d="M11,5.9C11.1,5.8,11.1,5.8,11,5.9C11,5.8,11,5.8,11,5.9C11,5.8,11,5.9,11,5.9C11,5.9,11,5.9,11,5.9z"/>
		<path class="st2" d="M10.7,6.1C10.7,6.1,10.7,6.1,10.7,6.1C10.6,6,10.6,6,10.7,6.1C10.6,6.1,10.5,6.1,10.7,6.1
			C10.6,6.2,10.6,6.2,10.7,6.1z"/>
		<ellipse class="st2" cx="10.4" cy="6.5" rx="0.1" ry="0.1"/>
		<path class="st2" d="M11.7,5.6c0,0-0.1,0-0.2,0.1h0c0.1,0,0.1,0,0.1,0.1c0,0.1-0.1,0.1-0.1,0.1c-0.1,0-0.1-0.1-0.1-0.1
			c0,0,0,0,0,0c0,0-0.1,0-0.1,0.1C11.2,5.9,11.1,6,11,6.2c-0.1,0.2-0.1,0.4-0.1,0.5c0,0.1,0.2,0.1,0.2,0.1s0,0,0,0c0,0,0,0,0-0.1
			c0,0,0-0.1,0-0.1s0,0,0.1,0c0,0,0,0.1,0.1,0.1c0,0,0.1,0.1,0.1,0.1s0,0,0-0.1c0-0.1,0-0.1,0-0.2s0-0.3,0.1-0.4
			c0.1-0.1,0.3-0.2,0.3-0.3c0.1,0,0.1-0.1,0.1-0.1C11.8,5.7,11.8,5.7,11.7,5.6C11.8,5.6,11.8,5.6,11.7,5.6L11.7,5.6z"/>
		<path class="st2" d="M11.5,5.8C11.6,5.8,11.6,5.8,11.5,5.8c0.1-0.1,0-0.1,0-0.1C11.5,5.7,11.5,5.7,11.5,5.8
			C11.5,5.8,11.5,5.8,11.5,5.8z"/>
		<path class="st2" d="M11.8,7c0,0,0.1,0,0.1,0c0,0,0-0.1,0-0.1c0,0-0.1,0-0.1,0C11.8,6.9,11.8,6.9,11.8,7C11.8,6.9,11.8,7,11.8,7z"
			/>
		<path class="st2" d="M12,7C12,7.1,12,7.1,12,7c-0.1,0-0.2,0-0.2,0c0,0-0.1-0.1-0.1-0.1l-0.1,0c0,0,0,0.1,0,0.1c0,0-0.1,0-0.2,0
			S11.4,7,11.4,7c0,0,0,0,0,0.1c0,0,0.1,0.1,0.1,0.1L12,7C11.9,7.1,12,7.1,12,7C12,7,12,7,12,7C12,7,12,7,12,7L12,7z"/>
		<path class="st2" d="M11.4,7c0.1,0,0.1,0,0.1,0c0,0,0,0,0,0S11.5,6.9,11.4,7c0-0.1,0-0.1,0-0.1c0,0,0,0,0,0S11.4,6.9,11.4,7
			L11.4,7z"/>
		<ellipse class="st1" cx="11.1" cy="6.4" rx="0.1" ry="0.1"/>
		<path class="st1" d="M11.4,6c0,0-0.1,0-0.2,0c0,0.1,0,0.1,0,0.2c0,0,0.1,0,0.2,0C11.4,6.1,11.4,6,11.4,6z"/>
		<ellipse class="st2" cx="11.1" cy="6.4" rx="0.1" ry="0.1"/>
		<path class="st2" d="M11.3,6C11.3,6,11.2,6,11.3,6c-0.1,0.1-0.1,0.1,0,0.1C11.3,6.1,11.4,6,11.3,6L11.3,6z"/>
	</g>
	<g>
		<path class="st2" d="M9.4,15.7c0,0-0.2,0.1-0.3,0.1c-0.1,0-0.1,0-0.1,0S8.9,15.9,8.8,16c-0.1,0.1-0.2,0.1-0.3,0.1
			c-0.2,0-0.6,0-0.8,0c-0.2,0-0.3,0-0.4,0.1c-0.1,0.1-0.1,0.2,0,0.3c0.1,0.1,0.2,0,0.3,0c0-0.1,0-0.1,0-0.2c0,0,0,0,0.1,0
			c0.1,0,0.1,0,0.2,0c0.1,0,0.2,0.1,0.3,0.1c0.1,0,0,0,0,0s-0.1,0-0.2-0.1c-0.1,0-0.1,0-0.2,0c0,0,0,0,0,0c0,0,0,0.1,0,0.1
			c0,0,0,0.1,0,0.1l0,0c0,0,0,0,0-0.1c0,0,0-0.1,0-0.1s0,0,0.1,0c0,0,0.1,0.1,0.1,0.2c0,0.1,0,0.2,0,0.2s0,0,0,0.1c0,0,0,0.1,0,0.1
			s0,0,0,0c0,0,0.1-0.1,0.1-0.2c0,0,0-0.1,0.1,0s0.1,0.1,0.1,0.1c0,0,0,0,0,0s0.1-0.1,0.1-0.1c0,0,0.1-0.1,0.2-0.2
			c0.1-0.1,0.2-0.2,0.3-0.2c0.1,0,0.2-0.1,0.3-0.2c0.1,0,0.1,0,0.1-0.1C9.3,15.9,9.4,15.8,9.4,15.7C9.4,15.7,9.4,15.7,9.4,15.7
			L9.4,15.7z"/>
		<path class="st2" d="M6.3,12.2C6.3,12.2,6.3,12.1,6.3,12.2c0-0.1-0.1-0.1-0.1-0.1s-0.1,0-0.1,0c0,0-0.1,0-0.1,0c0,0,0-0.1,0-0.1
			c0-0.1,0,0,0,0c0,0-0.1,0-0.1,0c0,0,0,0,0,0.1c0,0,0.1,0.1,0.1,0.1c0,0,0,0,0,0.1c0,0-0.1,0-0.1,0c0,0,0,0,0,0c0,0,0,0.1,0.1,0.1
			c0,0,0,0,0,0s0.1,0,0.1-0.1c0,0,0,0,0.1,0c0,0,0.1,0.2,0.1,0.2c0,0,0,0,0,0c0,0,0.1,0,0.1,0c0,0,0-0.1,0-0.1s-0.1-0.2-0.1-0.2
			c0,0,0-0.1,0-0.1C6.2,12.3,6.2,12.3,6.3,12.2C6.3,12.2,6.3,12.2,6.3,12.2L6.3,12.2z"/>
		<path class="st2" d="M7.4,16.7c0,0,0-0.1,0-0.1c0,0-0.1-0.1-0.1-0.1c0,0,0-0.1,0-0.1c0,0,0,0-0.1,0c0,0-0.1,0.1-0.1,0.1
			c0,0.1,0,0.2,0.2,0.2C7.4,16.8,7.4,16.8,7.4,16.7L7.4,16.7z"/>
		<path class="st2" d="M7.5,16.7C7.5,16.7,7.5,16.7,7.5,16.7C7.4,16.7,7.4,16.7,7.5,16.7c0,0.1,0,0.2,0.1,0.2c0,0,0,0,0,0
			C7.6,16.8,7.6,16.8,7.5,16.7C7.6,16.8,7.5,16.8,7.5,16.7C7.5,16.7,7.5,16.7,7.5,16.7L7.5,16.7z"/>
		<path class="st2" d="M7.6,17.1c0,0,0,0,0.1-0.1c0.1,0,0.2,0,0.2,0c0,0,0.1-0.1,0.1-0.1c0-0.1-0.1-0.1-0.1-0.1s-0.1,0-0.1,0
			c0,0,0,0-0.1,0.1c0,0-0.1,0-0.1,0c0,0,0,0,0,0c0,0-0.1,0-0.1,0c0,0,0,0-0.1,0c0,0-0.2,0-0.2,0s0,0,0,0c0,0,0,0,0,0
			c0,0,0,0.1,0,0.1c0,0,0.1,0.1,0.2,0.1C7.5,17.1,7.5,17.1,7.6,17.1C7.6,17.2,7.6,17.2,7.6,17.1L7.6,17.1z"/>
		<path class="st2" d="M8.2,17.2c0,0,0-0.1,0-0.1c0,0-0.1,0-0.1,0c0,0-0.1,0-0.1,0c0,0,0,0-0.1,0.1c-0.1,0-0.1,0-0.2,0.1
			c-0.1,0-0.1,0.1-0.1,0.1c0,0-0.1,0-0.1,0s0,0-0.1,0c0,0,0,0,0,0.1c0,0,0.1,0,0.1,0c0.1,0,0.1,0,0.1,0c0,0,0-0.1,0.1-0.1
			c0,0,0.1,0,0.2,0C8.1,17.2,8.2,17.2,8.2,17.2L8.2,17.2z"/>
		<path class="st2" d="M8.2,17C8.2,17,8.3,17,8.2,17c0.1,0,0.1-0.1,0.1-0.1c0,0,0-0.1,0-0.1S8.2,16.9,8.2,17
			C8.2,16.9,8.2,16.9,8.2,17L8.2,17z"/>
		<path class="st2" d="M8,16.6c0-0.1,0-0.1,0-0.1S8,16.6,8,16.6c-0.1,0-0.1,0-0.1,0S7.9,16.7,8,16.6C8,16.7,8,16.7,8,16.6L8,16.6z"
			/>
		<path class="st2" d="M7.7,16.8c0.1,0,0.1,0,0.1-0.1c0,0,0-0.1,0-0.1c0,0-0.1-0.1-0.1-0.1h0c0,0,0,0.1,0,0.1
			C7.6,16.6,7.6,16.7,7.7,16.8C7.6,16.7,7.6,16.8,7.7,16.8L7.7,16.8z"/>
		<path class="st2" d="M7.8,16.5C7.8,16.4,7.8,16.4,7.8,16.5c-0.1-0.1-0.1-0.1-0.1-0.1S7.7,16.4,7.8,16.5
			C7.7,16.4,7.7,16.4,7.8,16.5C7.7,16.4,7.7,16.5,7.8,16.5C7.8,16.5,7.8,16.5,7.8,16.5L7.8,16.5z"/>
		<path class="st2" d="M7,14.8l0-0.3c0-0.3-0.2-0.5-0.3-0.7c-0.1-0.2-0.2-0.5-0.3-0.6c-0.1-0.2-0.1-0.4-0.1-0.5c0-0.1,0-0.2,0-0.2
			s0,0,0,0c0,0,0,0-0.1,0c0,0-0.1,0.1-0.1,0.1c0,0,0,0.1,0,0.1s-0.1,0-0.2,0c-0.1,0-0.1,0-0.1,0c0,0,0,0,0.1,0.1
			c0.1,0,0.1,0,0.1,0.1c0,0,0.1,0.2,0.1,0.3c0,0.1,0.1,0.4,0.1,0.6c0,0.2,0.1,0.5,0.2,0.7C6.7,14.5,6.8,14.9,7,14.8L7,14.8z"/>
		<path class="st2" d="M7.2,15.3c-0.1,0-0.1,0.3,0,0.4c0,0.1,0.2,0.3,0.2,0.4c0,0,0.1,0,0.1,0c0,0,0,0,0,0s0.1,0,0.1-0.1
			c0,0,0-0.1,0-0.2c0-0.1-0.1-0.2-0.2-0.4C7.3,15.3,7.2,15.2,7.2,15.3L7.2,15.3z"/>
		<path class="st2" d="M7.2,15.1c0-0.1-0.1-0.2-0.2-0.2c0,0-0.1,0-0.1,0c-0.1,0.1,0,0.3,0.1,0.3c0,0,0.1,0,0.1,0
			C7.2,15.2,7.2,15.1,7.2,15.1L7.2,15.1z"/>
		<path class="st2" d="M8.5,17.5c0,0-0.1,0-0.1-0.1c-0.1,0-0.1-0.1-0.1-0.1c0,0,0,0-0.1,0c0,0-0.1,0-0.2,0c-0.1,0,0,0.1,0,0.1
			c0,0.1,0,0.2,0,0.2s0,0,0,0c0,0,0,0,0,0.1c0,0,0,0,0.1,0c0,0,0.1-0.2,0.1-0.2s0,0,0.1,0C8.3,17.6,8.4,17.6,8.5,17.5
			C8.5,17.6,8.5,17.5,8.5,17.5L8.5,17.5z"/>
		<path class="st2" d="M8.3,17.7C8.2,17.7,8.2,17.7,8.3,17.7C8.2,17.7,8.2,17.7,8.3,17.7c-0.1,0.1-0.1,0.1-0.1,0.1c0,0,0,0,0,0
			s0,0,0,0c0,0,0,0,0,0C8.3,17.8,8.3,17.8,8.3,17.7C8.3,17.7,8.3,17.7,8.3,17.7L8.3,17.7z"/>
		<path class="st3" d="M17.4,15.9C17.4,15.9,17.4,15.9,17.4,15.9c-0.1,0-0.1,0-0.1,0c0,0-0.1,0.1-0.1,0.1s-0.1,0-0.1,0.1
			c0,0.1,0,0.1,0.1,0.1c0.1,0,0.2,0,0.2-0.1C17.5,16,17.5,16,17.4,15.9C17.5,15.9,17.5,15.9,17.4,15.9L17.4,15.9z"/>
		<path class="st3" d="M17.6,15.3c0-0.2-0.1-0.4-0.3-0.5c0,0-0.1,0.3-0.1,0.4c0,0.1,0,0.1,0,0.1C17.3,15.3,17.5,15.4,17.6,15.3
			C17.6,15.4,17.6,15.4,17.6,15.3L17.6,15.3z"/>
		<path class="st3" d="M16.6,15.2C16.7,15.2,16.7,15.2,16.6,15.2c0.1-0.1,0.2-0.5,0.2-0.5s-0.2,0-0.4,0.1c-0.2,0.1-0.3,0.3-0.3,0.3
			s0,0,0.2,0C16.4,15.1,16.6,15.2,16.6,15.2L16.6,15.2z"/>
		<path class="st3" d="M16.2,15.6c-0.1,0-0.1,0-0.1,0s0,0.2,0.1,0.3c0.1,0.1,0.2,0.2,0.3,0.2c0.2,0,0.3-0.1,0.3-0.2
			c0-0.1,0.1-0.1,0.1-0.1s-0.3,0-0.4-0.1C16.3,15.7,16.2,15.6,16.2,15.6L16.2,15.6z"/>
		<path class="st2" d="M16.1,15.5c0.1,0,0.7,0.1,0.7,0.1c0.1,0,0.1,0,0.1,0c0,0,0,0,0.1,0c0.1,0,0.1-0.1,0.1-0.1s0-0.1,0-0.1
			c0-0.1,0-0.1,0.1,0c0.1,0.1,0.1,0.2,0.1,0.2c0,0.1,0.1,0.1,0.2,0.1c0.1,0,0.1,0,0.1-0.1c0-0.1,0-0.2,0.1-0.2c0-0.1,0-0.1-0.1-0.1
			c-0.1,0-0.4-0.1-0.4-0.1c-0.1,0,0-0.1,0-0.1s0.1-0.4,0.1-0.4c-0.1-0.1-0.2-0.1-0.4-0.1c0,0-0.1,0.4-0.1,0.5c0,0.1-0.1,0.1-0.1,0.1
			c-0.1,0-0.5-0.1-0.5-0.1s0,0,0,0.1C16,15.3,16,15.4,16.1,15.5C16,15.5,16,15.5,16.1,15.5L16.1,15.5z"/>
		<path class="st2" d="M17.7,15.9c-0.1,0-0.1-0.1-0.1,0c0,0.1,0,0.2-0.1,0.3c-0.1,0.1-0.2,0.2-0.3,0.2c-0.1,0-0.2,0-0.2-0.2
			c0-0.1,0.2-0.2,0.2-0.2c0-0.1,0-0.1,0-0.2c-0.1-0.1-0.1-0.1-0.2,0c0,0-0.1,0.1-0.1,0.2c0,0.1-0.1,0.2-0.1,0.2
			c-0.1,0.1-0.3,0.1-0.4,0.1c-0.2,0-0.2-0.1-0.3-0.2c-0.1-0.1-0.1-0.4-0.2-0.4c0,0-0.1,0-0.1,0c-0.1,0-0.1,0.1-0.1,0.2
			c0,0.1,0,0.1,0.1,0.2c0.1,0.1,0.1,0.2,0.2,0.2c0,0.1,0.1,0.2,0,0.2c-0.1,0-0.1,0-0.2-0.1c-0.1-0.1-0.4-0.3-0.5-0.4
			c-0.1-0.1-0.1-0.1-0.1-0.1c-0.1,0-0.3-0.1-0.4-0.2c0,0,0.1,0.2,0.1,0.3c0,0.1,0,0.1,0,0.1s0.3,0.2,0.4,0.2
			c0.1,0.1,0.4,0.2,0.5,0.3c0.1,0.1,0.2,0.2,0.4,0.1c0.2,0,0.6-0.2,0.8-0.2c0.1,0,0.5-0.1,0.7-0.2c0.1-0.1,0.2-0.1,0.2-0.2
			C17.8,16,17.8,15.9,17.7,15.9L17.7,15.9z"/>
		<path class="st2" d="M16.9,14.4c0,0,0,0,0.1,0c0.1,0,0,0.1,0,0.1c0,0,0,0.1-0.1,0.1c0,0,0,0.1,0,0.1c0,0,0,0,0.1,0c0.1,0,0,0,0,0
			c0,0,0-0.1,0-0.2c0,0,0,0,0.1,0c0,0,0,0,0.1,0c0,0,0,0,0,0c0,0,0,0,0-0.1c0,0,0,0,0,0c0,0-0.1,0-0.1,0c0,0,0,0,0,0s0-0.1,0.1-0.1
			c0,0,0,0,0-0.1c0,0-0.1,0-0.1,0c0,0,0,0,0,0s0,0.1,0,0.1c0,0,0,0,0,0.1c0,0-0.1,0-0.1-0.1c0,0,0,0,0,0
			C16.9,14.3,16.9,14.4,16.9,14.4C16.8,14.4,16.9,14.4,16.9,14.4L16.9,14.4z"/>
		<path class="st2" d="M17.1,15.4c0,0,0,0.1,0,0.1c0,0,0,0.1,0,0.1c0,0,0.1,0,0.1,0c0,0,0,0,0-0.1C17.2,15.5,17.2,15.5,17.1,15.4
			C17.1,15.4,17.1,15.4,17.1,15.4L17.1,15.4z"/>
		<path class="st2" d="M17.6,15.8C17.6,15.8,17.6,15.8,17.6,15.8C17.7,15.8,17.7,15.8,17.6,15.8C17.7,15.7,17.7,15.7,17.6,15.8
			c0-0.1,0-0.2,0-0.1C17.6,15.7,17.6,15.7,17.6,15.8L17.6,15.8z"/>
		<path class="st2" d="M15.9,15.4C15.9,15.4,16,15.5,15.9,15.4c0.1,0,0.1-0.1,0.1-0.1c0-0.1,0-0.1,0-0.1c0,0,0,0,0,0
			C15.9,15.3,15.9,15.3,15.9,15.4C15.9,15.4,15.9,15.4,15.9,15.4L15.9,15.4z"/>
		<circle class="st1" cx="16.2" cy="15.3" r="0.1"/>
		<circle class="st1" cx="16.5" cy="15.4" r="0.1"/>
		<circle class="st1" cx="17.4" cy="15.6" r="0.1"/>
		<circle class="st1" cx="16.8" cy="15.4" r="0.1"/>
		<circle class="st1" cx="16.9" cy="15.2" r="0.1"/>
		<circle class="st1" cx="17" cy="14.9" r="0.1"/>
		<circle class="st2" cx="16.2" cy="15.3" r="0.1"/>
		<circle class="st2" cx="16.5" cy="15.4" r="0.1"/>
		<circle class="st2" cx="17.4" cy="15.6" r="0.1"/>
		<circle class="st2" cx="16.9" cy="15.4" r="0.1"/>
		<circle class="st2" cx="16.9" cy="15.2" r="0.1"/>
		<circle class="st2" cx="17" cy="14.9" r="0.1"/>
	</g>
	<g transform="matrix(-1,0,0,1,639.96566,0)">
		<g id="g4017_2_">
			<path class="st2" d="M13.4,17.5c-0.1,0-0.1-0.1-0.2-0.2c-0.1-0.1-0.2-0.2-0.2-0.2h0c0,0,0,0,0-0.1c0,0,0-0.1,0-0.2
				c0-0.1,0-0.2,0-0.2s0.1,0.1,0.1,0.1c0.1,0,0.1,0,0.1,0l0-0.1c0,0,0,0.1,0.1,0.2c0.1,0.1,0.2,0.2,0.3,0.3c0.1,0.1,0.2,0.2,0.3,0.2
				c0.1,0,0,0.1,0,0.1s-0.1,0.1-0.3,0.1C13.6,17.7,13.5,17.6,13.4,17.5L13.4,17.5z"/>
			<path class="st2" d="M12.7,17.5c0.1,0,0.1,0,0.1-0.1c0-0.1,0-0.3,0-0.3s0,0,0.1,0.1c0,0,0.1,0,0.1,0s0,0,0,0.1
				c0,0,0.1,0.1,0.1,0.2c0.1,0,0.2,0.1,0.2,0.2c0.1,0,0.1,0.1,0.2,0.1c0.1,0,0.1,0.1,0.2,0.2c0,0.1,0,0.1-0.1,0.1
				c-0.1,0-0.1,0-0.2,0c-0.1,0-0.3-0.2-0.5-0.3C12.8,17.6,12.7,17.5,12.7,17.5L12.7,17.5z"/>
			<path class="st2" d="M12.3,17.6c0,0,0.1-0.1,0.1-0.2c0-0.1,0.1-0.3,0.1-0.3s0,0.1,0.1,0.2c0,0.1,0.1,0.1,0.1,0.1s0,0,0.1,0.1
				c0.1,0.1,0.2,0.2,0.3,0.2c0.1,0.1,0.2,0.1,0.3,0.2c0.1,0.1,0.1,0.2,0,0.3c0,0-0.1,0-0.1,0c-0.1,0-0.3-0.1-0.5-0.2
				C12.4,17.9,12.3,17.6,12.3,17.6L12.3,17.6z"/>
			<path class="st2" d="M12.2,18.2c-0.1-0.1-0.1-0.4-0.1-0.4s0,0,0.1,0c0,0,0.1-0.1,0.1-0.1s0,0.1,0.1,0.2c0,0.1,0.1,0.1,0.2,0.2
				c0.1,0.1,0.2,0.2,0.3,0.3c0.1,0.1,0,0.3,0,0.4c0,0.1-0.1,0-0.1,0c-0.1-0.1-0.1-0.1-0.2-0.2S12.2,18.3,12.2,18.2L12.2,18.2z"/>
			<path class="st1" d="M13,16c0-0.1-0.1-0.2-0.1-0.2c0,0-0.1-0.1-0.1-0.1s0.1,0.1,0.1,0.1C13,15.8,13.1,15.9,13,16
				C13.1,16,13.1,16,13,16z"/>
			<path class="st1" d="M12.7,16C12.6,16,12.6,15.9,12.7,16c0-0.1,0-0.1,0-0.1C12.6,15.9,12.7,15.9,12.7,16c0.1,0.1,0.1,0.2,0.1,0.2
				C12.8,16.2,12.7,16.1,12.7,16L12.7,16z"/>
			<path class="st1" d="M12.4,16.3C12.3,16.2,12.3,16.2,12.4,16.3c0,0,0-0.1,0-0.2c0,0,0,0,0,0C12.4,16.2,12.4,16.2,12.4,16.3
				C12.4,16.3,12.4,16.3,12.4,16.3C12.4,16.3,12.4,16.3,12.4,16.3L12.4,16.3z"/>
			<path class="st1" d="M13.3,17.2L13.3,17.2C13.3,17.1,13.3,17.2,13.3,17.2c0.1,0.1,0.2,0.1,0.2,0.1c0,0,0.1,0.1,0.1,0.1
				c0.1,0,0.1,0,0.1,0.1c0,0-0.1,0-0.1,0s0,0-0.1,0c-0.1,0-0.1-0.1-0.1-0.1S13.3,17.2,13.3,17.2z"/>
			<path class="st1" d="M13,17.5C12.9,17.5,12.9,17.5,13,17.5C12.9,17.5,13,17.5,13,17.5c0,0,0.1,0,0.2,0.1c0,0,0.1,0,0.1,0.1
				c0,0,0.1,0.1,0.1,0.1c0,0,0,0,0,0s0,0-0.1,0c0,0-0.1,0-0.1,0s0,0-0.1,0C13.1,17.6,13,17.6,13,17.5L13,17.5z"/>
			<path class="st1" d="M12.6,17.8C12.6,17.8,12.6,17.8,12.6,17.8c0.1,0,0.2,0.1,0.2,0.1s0.1,0,0.1,0.1c0,0,0,0,0,0c0,0,0,0,0,0
				c0,0-0.1,0-0.1,0s0,0,0,0c0,0-0.1,0-0.1-0.1C12.7,17.9,12.6,17.8,12.6,17.8L12.6,17.8z"/>
			<path class="st1" d="M12.4,18.1c0.1,0,0.2,0.1,0.2,0.2c0,0.1,0,0.1,0,0.1c0,0,0,0-0.1,0c0,0,0-0.1,0-0.1S12.5,18.2,12.4,18.1
				c0,0-0.1,0-0.1-0.1c0,0,0-0.1,0-0.1S12.4,18.1,12.4,18.1L12.4,18.1z"/>
			<path class="st5" d="M14.2,8.7c0.1,0,0.2-0.1,0.4-0.1c0.2,0,0.3,0,0.4,0c0.1,0,0.2,0,0.3,0c0.1,0,0.2-0.1,0.2-0.3
				c0,0,0.1,0.1,0,0.3c-0.1,0.1-0.1,0.1-0.2,0.1c-0.2,0-0.5-0.1-0.7-0.1c-0.2,0-0.3,0.1-0.3,0.1s0,0-0.1,0
				C14.1,8.7,14.1,8.7,14.2,8.7z"/>
			<path class="st2" d="M14.9,15.6C14.9,15.6,14.9,15.6,14.9,15.6c0.1,0,0.2,0,0.2,0c0,0,0.1,0,0.1,0c0,0,0.2,0.1,0.2,0.1H15
				C14.9,15.7,14.9,15.6,14.9,15.6L14.9,15.6z"/>
			<path class="st2" d="M14,15.5L14,15.5l0-0.1c0,0,0,0,0.1,0.1c0.1,0.1,0.1,0.1,0.1,0.2c0,0.1,0.1,0.1,0.1,0
				c-0.1-0.1-0.1-0.1-0.1-0.2c0-0.1-0.1-0.1-0.1-0.1c0,0,0,0,0.2,0c0.1,0,0.2-0.1,0.2-0.1c0.1,0,0.2-0.1,0.2-0.1s0.2,0.1,0.3,0.1
				s0.1,0,0,0.1c-0.1,0-0.1,0-0.2,0.1c0,0-0.1,0.1-0.2,0.1c-0.1,0-0.2,0-0.1,0c0,0,0.1,0.1,0.1,0.3c0,0.1,0.1,0.3,0.1,0.3
				c0,0.1,0,0.1,0,0.1s-0.1-0.1-0.3-0.2c-0.2-0.1-0.3-0.2-0.3-0.2c0,0-0.1,0-0.1-0.1C14,15.7,14,15.6,14,15.5L14,15.5z"/>
			<path class="st2" d="M13.2,14.9C13.2,14.9,13.2,14.9,13.2,14.9C13.2,14.8,13.2,14.8,13.2,14.9c0.1,0,0.2,0.1,0.3,0.2
				c0.1,0.1,0.1,0.1,0,0c-0.1-0.1-0.1-0.2-0.2-0.2c0,0,0,0,0,0c0.1-0.1,0.2-0.1,0.3-0.2c0,0,0,0.1,0.1,0.1c0,0,0.2,0.1,0.2,0.1
				s-0.1-0.1-0.1-0.2c0,0,0-0.1,0-0.1c0.1-0.1,0.2-0.1,0.2-0.2c0,0.1,0.1,0.2,0.2,0.3c0.2,0.2,0.5,0.3,0.5,0.3s0.1,0,0,0
				c-0.1,0-0.2,0.1-0.4,0c-0.2,0-0.2,0-0.2,0c0,0-0.1,0,0,0c0.1,0,0.3,0.1,0.4,0.1c0.1,0,0.2,0,0.1,0c-0.1,0.1-0.2,0.1-0.3,0.1
				c-0.1,0-0.1,0-0.2,0c-0.1,0-0.1,0-0.1,0c-0.1,0-0.1,0-0.1,0c0,0,0.1,0.1,0.1,0.2c0,0.1,0,0.2,0,0.3c0,0,0,0.1-0.1,0.1
				c0,0,0,0.1,0,0c0-0.1-0.1-0.2-0.1-0.3c0-0.1,0-0.1,0-0.1c0,0-0.1-0.1,0,0s0,0.2,0.1,0.2c0,0.1,0.1,0.2,0,0.1
				c-0.1-0.1-0.3-0.4-0.3-0.4c0,0-0.1-0.1-0.1-0.1c0,0-0.1-0.1-0.1-0.1c0-0.1-0.1-0.2-0.2-0.2C13.1,14.9,13.1,14.9,13.2,14.9
				L13.2,14.9z"/>
			<path class="st2" d="M16.5,8.8c0,0.1-0.2,0.4-0.3,0.6c-0.1,0.1-0.1,0.2-0.1,0.2c0,0,0.1-0.1,0.1-0.1c0.1-0.1,0.1-0.2,0.2-0.3
				c0.1-0.1,0.2-0.4,0.2-0.4c0,0,0,0,0.1,0c0,0,0.1,0.3,0,0.5c-0.1,0.2-0.2,0.4-0.3,0.4c-0.1,0.1-0.1,0.2-0.1,0.2c0,0,0,0,0.1-0.1
				c0.1-0.1,0.2-0.2,0.3-0.3c0.1-0.1,0.2-0.2,0.2-0.3c0,0,0,0,0,0c0,0,0.1,0.1,0,0.3c0,0.2-0.1,0.4-0.3,0.5
				c-0.1,0.1-0.2,0.2-0.2,0.2c0,0,0.1-0.1,0.2-0.2C16.8,9.9,17,9.7,17,9.7c0-0.1,0.1,0,0.1,0.2c0,0.2-0.2,0.4-0.3,0.5
				c-0.1,0.1-0.2,0.2-0.2,0.2c0,0,0.1,0,0.2-0.1c0.1,0,0.3-0.2,0.3-0.2c0,0,0.1,0,0,0.2c-0.1,0.2-0.2,0.3-0.3,0.4
				c-0.1,0.1-0.3,0.2-0.2,0.2c0,0,0.1,0,0.2-0.1c0.1,0,0.2-0.1,0.3-0.1c0.1,0,0.1,0,0.1,0s0,0.2-0.1,0.3c-0.1,0.1-0.2,0.2-0.4,0.2
				c-0.1,0-0.1,0-0.1,0c0,0,0,0,0,0s0.1,0,0.3,0c0.1,0,0.2,0,0.2,0.1c0,0,0,0.1-0.2,0.2c-0.2,0.1-0.3,0.1-0.4,0.1
				c-0.1,0-0.1,0-0.1,0c0,0,0.1,0,0.2,0c0.1,0,0.2,0.1,0.2,0.1c0,0,0,0.1-0.1,0.2c-0.1,0.1-0.2,0.1-0.4,0.1c-0.2,0-0.2,0-0.2,0
				c0,0,0.1,0,0.2,0.1c0.1,0,0.2,0,0.2,0.1c0.1,0,0,0.1-0.1,0.2c-0.1,0.1-0.3,0.1-0.4,0.1c-0.1,0-0.2,0-0.2,0c0,0,0.1,0.1,0.2,0.1
				c0.1,0,0.1,0.1,0.1,0.1c0,0,0,0.1-0.1,0.1c-0.1,0-0.3,0-0.4,0c-0.1,0-0.1-0.1-0.2,0c0,0,0,0,0,0.1c0,0,0.1,0.1,0.2,0.1
				c0.1,0,0.1,0,0.1,0.1c0,0.1-0.1,0.1-0.2,0.1c-0.2,0-0.4-0.1-0.5-0.1c-0.1,0-0.1-0.1-0.1,0c0,0,0,0,0,0.1c0,0,0.2,0.1,0.2,0.1
				c0.1,0,0.1,0.1,0.1,0.1c0,0,0,0.1-0.1,0.2c-0.2,0-0.3,0-0.5-0.1c-0.1,0-0.1-0.1-0.1-0.1c0-0.2,0-0.3,0-0.4c0,0,0.1,0,0.2,0
				c0.1,0,0.1-0.1,0.2-0.2c0,0,0.1,0,0.1,0c0,0,0.1,0,0.1,0c0.1,0,0.2,0,0.2-0.1c0.1-0.1,0.1-0.2,0.1-0.2c0,0,0.1,0,0.1,0
				c0,0,0.1,0,0.2-0.1c0.1-0.1,0.1-0.2,0.1-0.2c0,0,0.1-0.1,0.1-0.1c0,0,0.1,0,0.2-0.1c0.1-0.1,0.1-0.2,0.1-0.2c0,0,0,0,0.2-0.1
				c0.1-0.1,0.1-0.2,0.1-0.3c0-0.1-0.1-0.1-0.1-0.1c0,0,0,0,0.1-0.1c0,0,0.2-0.1,0.2-0.3c0-0.2-0.1-0.2-0.1-0.2s0,0,0.1,0
				c0,0,0.2-0.1,0.2-0.2c0-0.1,0-0.2-0.1-0.2c0,0-0.1-0.1-0.1-0.1s0.1,0,0.1-0.1c0-0.1,0-0.2,0-0.3C16.3,10,16.2,10,16.2,10
				c-0.1,0-0.1,0-0.1,0c0,0,0,0,0-0.1c0,0,0-0.1,0-0.2c0,0,0-0.1-0.2-0.1c-0.1,0-0.3,0-0.3,0.1c0,0,0,0,0-0.1c0,0,0.1-0.2,0.2-0.3
				C15.9,9.1,15.9,9,16,8.8c0.1-0.2,0.2-0.5,0.2-0.6c0-0.1,0,0,0,0s0,0,0.1,0.2C16.5,8.5,16.5,8.7,16.5,8.8L16.5,8.8z"/>
			<path class="st2" d="M14.1,12c0.1,0,0.2,0,0.3-0.2c0.1-0.1,0.2-0.1,0.4-0.1c0.2,0,0.3-0.1,0.4-0.2c0.1-0.1,0-0.3-0.2-0.4
				c-0.2-0.1-0.3-0.2-0.3-0.4c0-0.2,0.2-0.4,0.4-0.7c0.2-0.3,0.4-0.6,0.4-0.6s0.1,0.1,0.1,0.2c0,0.1,0,0.2,0,0.2c0,0,0,0,0.2-0.1
				c0.1-0.1,0.2-0.1,0.3,0c0.1,0.1,0,0.3-0.1,0.3c-0.1,0.1-0.1,0.1-0.1,0.2s0.1,0,0.2-0.1c0,0,0.1-0.1,0.2-0.1s0.2,0,0.2,0.2
				c0,0.1-0.1,0.2-0.2,0.2c-0.1,0-0.1,0.1-0.1,0.1c0,0,0,0,0.1,0c0,0,0.1,0,0.2,0c0.1,0,0.2,0.1,0.1,0.2c-0.1,0.1-0.3,0.1-0.3,0.2
				c0,0-0.1,0-0.1,0c0,0,0.1,0,0.2,0c0.1,0,0.1,0.1,0.1,0.2c0,0.1-0.2,0.2-0.3,0.2c-0.1,0-0.1,0-0.1,0c0,0,0,0,0.1,0.1
				c0.1,0,0.2,0,0.2,0.1c0,0.1,0,0.1-0.1,0.2c-0.1,0.1-0.2,0.1-0.3,0.1c0,0-0.1-0.1-0.1,0c0,0,0,0.1,0.1,0.1c0.1,0,0.1,0.1-0.1,0.2
				c-0.1,0.1-0.2,0-0.3,0c0,0-0.1-0.1-0.1,0c0,0,0.1,0.1,0.2,0.1c0.1,0.1,0,0.2-0.1,0.3c-0.1,0.1-0.3,0-0.3,0c0,0-0.1,0-0.1,0
				c0,0,0,0.1,0,0.1c0,0.1,0.1,0.2-0.1,0.3c-0.2,0.1-0.3-0.1-0.4-0.1c0,0-0.1,0-0.1,0c0,0,0,0,0,0.1c0,0,0.1,0.1-0.1,0.2
				c-0.1,0.1-0.2,0.1-0.2,0c0-0.1-0.1-0.2-0.1-0.3h0c0,0,0,0,0,0s0,0,0,0c0,0,0,0,0,0c0,0,0,0,0.1,0c0,0,0,0-0.1-0.1c0,0,0,0,0-0.1
				c0,0,0,0,0-0.1c0,0,0,0,0,0c0-0.1,0-0.2-0.1-0.3C14,12.2,14,12.1,14.1,12L14.1,12L14.1,12z"/>
			<path class="st2" d="M17.5,9.5c-0.2,0.4-0.4,0.6-0.4,0.6s0-0.1,0-0.2c0-0.1,0-0.1,0-0.1s0.1-0.1,0.2-0.3c0.1-0.2,0.2-0.5,0.2-0.5
				s-0.1,0.3-0.2,0.4c-0.1,0.1-0.2,0.3-0.2,0.3s0-0.1-0.1-0.1c0,0,0,0-0.1,0c0,0,0,0,0,0s0-0.1,0.1-0.1c0,0,0.1-0.1,0.1-0.1
				c0.1-0.1,0.2-0.3,0.3-0.5c0.1-0.2,0.2-0.7,0.3-0.9c0-0.1,0.1-0.1,0.1,0c0,0.1,0.1,0.3,0,0.5C17.8,8.8,17.7,9.1,17.5,9.5L17.5,9.5
				z"/>
			<path class="st2" d="M17.3,10.5c-0.1,0-0.2,0.1-0.2,0.1s0,0,0-0.1c0,0,0-0.1,0-0.1s0.1-0.1,0.1-0.1c0.1,0,0.1-0.1,0.3-0.3
				c0.1-0.2,0-0.1-0.1,0.1c-0.1,0.1-0.3,0.3-0.3,0.3s0,0,0,0c0,0,0-0.1,0-0.1c0,0,0,0,0.1-0.1c0.1-0.1,0.4-0.4,0.6-0.7
				c0.1-0.2,0.3-0.5,0.3-0.5s0.1,0.4-0.2,0.9C17.6,10.3,17.4,10.4,17.3,10.5z"/>
			<path class="st2" d="M16,13.1c-0.1-0.1-0.1-0.2-0.1-0.2c0,0,0.1,0,0.2,0.1c0.1,0,0.3,0.1,0.3,0.1c0.1,0,0.1,0,0.1,0
				c0,0-0.1,0-0.2,0c-0.1,0-0.3-0.1-0.3-0.1c0,0,0,0,0,0c0,0,0.1,0,0.1,0c0,0,0.1,0,0.2,0c0.1,0,0.4,0.1,0.6,0.1s0.4,0,0.4,0
				c0,0,0.1,0,0,0.2c-0.1,0.2-0.4,0.3-0.7,0.2C16.4,13.3,16.1,13.2,16,13.1L16,13.1z"/>
			<path class="st2" d="M16.6,12.8c-0.2,0-0.3-0.1-0.3-0.1s0,0,0-0.1c0,0,0-0.1,0-0.1s0.1,0,0.2,0c0.1,0,0.2,0,0.3,0s0.1,0,0,0
				c-0.1,0-0.3,0-0.4,0c-0.1,0,0,0,0-0.1c0,0,0.2-0.1,0.2-0.1s0.3,0,0.6,0c0.3,0,0.4-0.1,0.5-0.1c0.1,0,0.1,0,0.1,0s0,0-0.1,0.2
				c-0.1,0.1-0.3,0.2-0.4,0.3C17.1,12.8,16.8,12.8,16.6,12.8L16.6,12.8z"/>
			<path class="st2" d="M16.7,12.2C16.7,12.2,16.7,12.2,16.7,12.2c0-0.1,0-0.2,0-0.2s0.1,0,0.2,0c0.2,0,0.2,0,0.3-0.1
				c0.1,0,0.2-0.1,0.2-0.1c0,0,0,0-0.1,0c-0.1,0-0.3,0.1-0.5,0.1c-0.1,0-0.2,0-0.2,0c0,0-0.1,0-0.1,0s0,0,0.1,0c0.1,0,0.1,0,0.2-0.1
				c0,0,0,0,0.2,0c0.1,0,0.3-0.1,0.5-0.2c0.3-0.1,0.5-0.2,0.5-0.3c0.1,0,0,0,0,0c0,0.1,0,0.1-0.1,0.3c-0.1,0.2-0.2,0.2-0.5,0.4
				C17,12.2,16.7,12.2,16.7,12.2L16.7,12.2z"/>
			<path class="st2" d="M17.7,11.4c-0.3,0.2-0.7,0.3-0.7,0.3c0,0,0-0.1,0-0.1c0-0.1-0.1-0.1-0.1-0.1c-0.1,0,0,0,0,0s0,0,0.1,0
				c0.1,0,0.2,0,0.4-0.1c0.2-0.1,0.2-0.1,0.2-0.1c0,0-0.1,0-0.2,0.1c-0.2,0.1-0.3,0.1-0.4,0.1c-0.1,0,0,0,0,0c0,0,0.1-0.1,0.1-0.1
				s0.1,0,0.3-0.1c0.2-0.1,0.3-0.1,0.5-0.2c0.1,0,0.1-0.1,0.2-0.1c0.1-0.1,0.2-0.1,0.2-0.2c0.1,0,0,0,0,0c0,0,0,0.2-0.1,0.3
				C18,11.1,18,11.2,17.7,11.4z"/>
			<path class="st2" d="M17.7,10.8c-0.3,0.2-0.6,0.3-0.6,0.3c0,0,0,0,0,0c0,0,0-0.1,0-0.1s0.1-0.1,0.2-0.1c0.1-0.1,0.2-0.2,0.3-0.2
				c0.1-0.1,0-0.1,0,0c0,0-0.1,0.1-0.3,0.2c-0.1,0.1-0.3,0.2-0.3,0.2s0,0,0-0.1c0,0-0.1,0-0.1,0s0,0,0-0.1c0,0,0.1-0.1,0.2-0.1
				c0.1-0.1,0.3-0.2,0.5-0.3c0.1-0.1,0.4-0.4,0.4-0.5c0,0,0,0,0,0c0,0,0,0.1,0,0.2C18.1,10.3,18,10.6,17.7,10.8z"/>
			<path class="st2" d="M16.7,8.6c0,0.1-0.1,0.1-0.1,0.2c0,0.1-0.1,0.1-0.1,0.1s0,0,0-0.1c0,0,0-0.1,0-0.2c0,0,0-0.1,0-0.1
				c0,0,0-0.1,0-0.1c0,0,0.1-0.2,0.1-0.3c0-0.1,0-0.3,0-0.4c0-0.2,0-0.1,0,0s0,0.2,0,0.4c0,0.2-0.1,0.4-0.1,0.4s0,0,0-0.1
				c0-0.1-0.1-0.1-0.1-0.2c0-0.1,0-0.1,0-0.1s0.1-0.5,0.1-0.7c0-0.2,0.1-0.9,0.1-0.9c0.2,0.2,0.3,0.6,0.3,0.9c0,0.3,0,0.6,0,0.7
				C16.8,8.3,16.7,8.5,16.7,8.6L16.7,8.6z"/>
			<path class="st2" d="M17,9.4c0-0.1,0-0.2-0.1-0.2c0,0,0.1-0.1,0.1-0.3c0-0.1,0.1-0.3,0.1-0.4c0-0.3,0.1-0.5,0-0.1
				C17,8.9,16.9,9,16.9,9l-0.1,0.2c0-0.1,0-0.1,0-0.2c0-0.1,0-0.2,0-0.3c0,0,0.1-0.3,0.2-0.6c0.1-0.3,0.1-0.6,0.1-0.8
				c0-0.2,0-0.2,0-0.2s0.1,0.1,0.2,0.7c0,0.5-0.1,1.1-0.2,1.3C17.1,9.1,17,9.4,17,9.4L17,9.4z"/>
			<path class="st2" d="M15.4,13.5C15.4,13.5,15.5,13.5,15.4,13.5c0.2-0.1,0.1-0.2,0.1-0.2s0,0,0.1,0c0,0,0.1,0.1,0.2,0.1
				c0.1,0,0.1,0,0.1,0.1c0,0,0,0,0,0c0,0,0,0-0.1-0.1c-0.1,0-0.3-0.2-0.3-0.2s0,0,0.1,0c0.1,0,0.2,0,0.2,0s0.1,0.1,0.4,0.2
				c0.3,0.1,0.6,0.2,0.6,0.2s0,0.2-0.2,0.2c-0.1,0.1-0.3,0.1-0.6,0C15.7,13.7,15.4,13.5,15.4,13.5L15.4,13.5z"/>
			<path class="st2" d="M15.1,13.8c0-0.1,0-0.2,0-0.2s0,0,0.1,0c0,0,0.1,0.1,0.2,0.2c0.1,0.1,0.2,0.1,0,0c-0.1-0.1-0.3-0.3-0.3-0.3
				l0,0c0,0,0.1,0,0.5,0.2C16,14,16.2,14,16.2,14s-0.2,0.2-0.6,0.2C15.2,14.2,15.1,14,15.1,13.8L15.1,13.8z"/>
			<path class="st2" d="M14.3,13.7c0,0,0,0.1,0.1,0.1c0.1,0,0.2,0.1,0.2,0.1s0,0,0,0.1c0,0,0.1,0.1,0.2,0.2c0.1,0.1,0.2,0.1,0.2,0.1
				c0,0-0.1,0-0.1-0.1c-0.1,0-0.1-0.1-0.2-0.2c0-0.1,0,0,0,0s0.1,0,0.2,0c0.1,0,0.1,0,0.1,0c0,0,0.1,0.1,0.1,0.1
				c0.1,0.1,0.1,0.2,0.2,0.2c0,0.1,0,0.1,0,0.1s0,0-0.2,0.1c-0.1,0-0.2,0-0.4-0.1c-0.1,0-0.2-0.1-0.2-0.2
				C14.3,13.9,14.3,13.7,14.3,13.7L14.3,13.7z"/>
			<path class="st2" d="M14.2,14.2C14.2,14.2,14.3,14.3,14.2,14.2C14.3,14.3,14.2,14.2,14.2,14.2c0-0.1,0-0.1,0-0.1
				c0-0.1,0.1-0.1,0.1-0.2c0,0.1,0.1,0.3,0.2,0.4c0.1,0.2,0.2,0.2,0.1,0.2c-0.1,0-0.2,0-0.3,0c-0.1-0.1-0.1-0.2-0.2-0.2
				C14.1,14.2,14.1,14.2,14.2,14.2C14.1,14.1,14.2,14.1,14.2,14.2L14.2,14.2z"/>
			<ellipse class="st2" cx="14.2" cy="8.1" rx="0.1" ry="0.1"/>
			<path class="st2" d="M14.4,8c-0.1,0-0.1,0-0.2,0c-0.1,0-0.2,0.1-0.4,0.2c-0.1,0.1-0.3,0.1-0.5,0c0,0-0.1,0-0.1-0.1
				C13,8,13,7.8,13,7.8c0.1,0.1,0.3,0.2,0.5,0.2c0,0,0,0,0,0c0,0-0.1,0.1-0.1,0.1c0,0,0.1-0.1,0.2-0.1c0.1,0,0.2-0.1,0.3-0.2
				c0.2,0,0.3,0,0.4,0C14.4,7.9,14.5,7.9,14.4,8C14.4,8,14.4,8,14.4,8z"/>
			<path class="st2" d="M12.2,9.6c0,0,0.1,0,0.2-0.1c0.1-0.1,0.3-0.3,0.3-0.3c0,0,0-0.1,0-0.1c-0.1,0-0.1-0.1-0.1-0.1s0.1,0,0.2-0.1
				C12.8,8.8,13,8.7,13,8.6s0,0,0-0.1c0,0,0,0,0,0s0.1-0.1,0.2-0.1c0.1-0.1,0.2-0.2,0.2-0.2c0.1,0,0.3,0,0.4,0
				c0.2,0,0.3-0.1,0.3-0.1s0,0,0,0.1c0,0.1,0.1,0.1,0.2,0c0.1-0.1,0.1-0.2,0.1-0.2s0.1,0,0.2-0.1c0.1-0.1,0.3-0.1,0.4,0
				C15,8,15.1,8.2,15.1,8.3c0,0.1-0.1,0.1-0.1,0.1c0,0,0-0.1-0.2-0.1c-0.1,0-0.3,0-0.4,0.2c-0.2,0.1-0.2,0.1-0.3,0.2
				c-0.1,0.1,0,0.1,0.1,0.2c0.1,0,0.3,0,0.3,0c0,0-0.1,0.1-0.2,0.2c-0.1,0-0.3,0-0.4,0c-0.1,0-0.1,0-0.1,0c-0.1,0.1-0.2,0.3-0.2,0.4
				c-0.1,0-0.1-0.1-0.1-0.1c0,0,0-0.1-0.1,0c0,0-0.1,0.3-0.1,0.4s0,0.2,0,0.2l0,0c0,0-0.1,0-0.1-0.1c-0.1,0-0.1,0-0.1,0.1
				s0,0.2-0.1,0.4c-0.1,0.2-0.2,0.3-0.2,0.3s0,0,0-0.1c0-0.1,0-0.2,0-0.4c0-0.1,0-0.4,0-0.4s-0.2,0.2-0.3,0.2c-0.2,0-0.3,0-0.4-0.1
				C12.1,9.7,12.2,9.6,12.2,9.6L12.2,9.6z"/>
			<path class="st2" d="M13.3,10.1c0,0,0.1,0.1,0.1,0.2s0,0,0,0s-0.1,0-0.1,0.1c-0.1,0-0.1,0-0.1,0s0.1-0.1,0.1-0.2
				C13.3,10.2,13.3,10.1,13.3,10.1L13.3,10.1z"/>
			<path class="st2" d="M12.3,10.1C12.3,10,12.4,10,12.3,10.1c0.1-0.1,0.3-0.1,0.4-0.2c0,0-0.1,0.2-0.2,0.2
				c-0.1,0.1-0.1,0.1-0.1,0.1s0.1,0,0.2-0.1c0.1-0.1,0.1-0.2,0.1-0.2s0,0.3,0,0.4c0,0.2,0.1,0.2,0.1,0.2s-0.2,0-0.5,0
				c-0.2-0.1-0.3-0.1-0.3-0.1s0,0,0-0.1C12.2,10.2,12.3,10.1,12.3,10.1L12.3,10.1z"/>
			<path class="st1" d="M12.8,9.5c0.1-0.1,0.1-0.1,0.1-0.1S12.9,9.4,12.8,9.5c0.1,0,0,0.1-0.1,0.1c-0.1,0-0.1,0.1-0.1,0.1l0,0
				C12.5,9.6,12.7,9.6,12.8,9.5z"/>
			<path class="st1" d="M13.1,10c0,0,0-0.3,0-0.4c0-0.1,0,0,0,0l0,0C13.1,9.6,13.1,10.1,13.1,10c0,0.1,0,0.1,0,0.1
				C13,10.2,13,10,13.1,10L13.1,10z"/>
			<path class="st1" d="M13.5,8.6C13.5,8.5,13.6,8.5,13.5,8.6c0,0.1-0.1,0.2-0.1,0.2c0,0.1,0,0.2,0,0.1c0,0,0.1,0,0.1-0.1
				c0,0,0.1-0.1,0.2-0.1c0,0,0.1,0,0,0.1c0,0.1-0.1,0.1-0.2,0.2c-0.1,0.1-0.1,0.1-0.2,0.1c0,0-0.1,0.1-0.1,0.1s0-0.3,0.1-0.4
				C13.4,8.7,13.5,8.6,13.5,8.6z"/>
			<path class="st1" d="M15,13.2c0.1,0,0.1,0.1,0.1,0.1s0,0,0,0S15.1,13.3,15,13.2C15.1,13.3,15,13.2,15,13.2
				C15,13.2,14.9,13.2,15,13.2C14.9,13.1,15,13.2,15,13.2L15,13.2z"/>
			<path class="st1" d="M14.5,13.5c0,0,0.1,0.1,0.1,0.1s0,0,0.1,0c0,0,0,0,0,0s0,0,0,0C14.7,13.6,14.6,13.5,14.5,13.5
				C14.5,13.5,14.5,13.5,14.5,13.5C14.5,13.5,14.5,13.5,14.5,13.5L14.5,13.5z"/>
			<path class="st1" d="M16.5,10C16.5,10,16.5,10,16.5,10C16.4,10,16.4,10,16.5,10C16.5,9.9,16.5,9.9,16.5,10c0,0,0-0.1,0.1-0.1
				c0,0,0,0,0,0C16.5,9.9,16.5,10,16.5,10z"/>
			<path class="st1" d="M16.6,10.3C16.6,10.3,16.6,10.3,16.6,10.3c-0.1,0.1-0.1,0.1-0.1,0.1C16.5,10.4,16.6,10.4,16.6,10.3
				C16.6,10.3,16.6,10.3,16.6,10.3C16.7,10.3,16.7,10.2,16.6,10.3C16.7,10.2,16.7,10.3,16.6,10.3L16.6,10.3z"/>
			<path class="st1" d="M16.6,10.8C16.6,10.9,16.5,10.9,16.6,10.8C16.5,10.9,16.5,10.8,16.6,10.8C16.6,10.8,16.6,10.8,16.6,10.8
				c0.1-0.1,0.1-0.1,0.1-0.1c0,0,0,0,0,0C16.7,10.7,16.7,10.7,16.6,10.8C16.7,10.8,16.6,10.8,16.6,10.8L16.6,10.8z"/>
			<path class="st1" d="M16.5,11.3C16.5,11.2,16.5,11.2,16.5,11.3c0.1,0,0.1,0,0.1,0s0.1,0,0.1,0C16.7,11.2,16.6,11.2,16.5,11.3
				C16.5,11.3,16.5,11.3,16.5,11.3C16.5,11.3,16.5,11.3,16.5,11.3L16.5,11.3z"/>
			<path class="st1" d="M16.4,11.7c0.1,0,0.1,0,0.1,0C16.6,11.7,16.5,11.7,16.4,11.7C16.5,11.8,16.4,11.8,16.4,11.7
				c-0.1,0.1-0.1,0-0.1,0C16.3,11.7,16.4,11.7,16.4,11.7z"/>
			<path class="st1" d="M15.9,12.2C15.9,12.2,15.9,12.2,15.9,12.2c0.1,0,0.2,0,0.2,0s0.1,0,0.1,0l0,0c0,0-0.1,0-0.1,0
				C16.1,12.3,16,12.3,15.9,12.2C15.9,12.2,15.9,12.2,15.9,12.2L15.9,12.2z"/>
			<path class="st1" d="M15.7,12.6c0,0,0.1,0,0.1,0c0,0,0.1,0,0.1,0s0,0,0,0c0,0,0,0,0,0C15.9,12.6,15.8,12.6,15.7,12.6
				C15.7,12.6,15.7,12.6,15.7,12.6C15.6,12.6,15.6,12.6,15.7,12.6C15.6,12.5,15.7,12.6,15.7,12.6L15.7,12.6z"/>
			<path class="st1" d="M15.3,12.9c0,0,0.1,0.1,0.1,0.1s0,0,0.1,0c0,0,0,0,0,0c0,0,0,0,0,0C15.4,13,15.3,12.9,15.3,12.9
				C15.3,12.9,15.2,12.9,15.3,12.9C15.3,12.8,15.3,12.8,15.3,12.9L15.3,12.9z"/>
			<path class="st1" d="M16,9.3c0,0,0,0-0.1,0.1C15.8,9.5,15.9,9.5,16,9.3c-0.1,0.1,0-0.1,0.1-0.1c0,0,0,0,0,0C16,9.2,16,9.3,16,9.3
				z"/>
			<path class="st1" d="M16.1,9.8C16.1,9.8,16.1,9.8,16.1,9.8c0.1-0.1,0.2-0.2,0.2-0.2s0,0,0,0c0,0,0,0.1-0.1,0.1
				C16.2,9.7,16.2,9.7,16.1,9.8C16.2,9.8,16.1,9.8,16.1,9.8L16.1,9.8z"/>
			<path class="st1" d="M15.9,10.7c0,0,0.1,0,0.1,0c0,0,0.1,0,0.1,0s0.1,0,0.1,0c0,0,0,0-0.1,0C16.1,10.7,16.1,10.7,15.9,10.7
				C16,10.7,15.9,10.7,15.9,10.7L15.9,10.7z"/>
			<path class="st1" d="M16.1,10.2c-0.1,0-0.1,0.1-0.1,0.1c0,0-0.1,0-0.1,0c0,0,0,0,0.1-0.1C16.1,10.2,16.1,10.2,16.1,10.2
				C16.1,10.2,16.1,10.2,16.1,10.2C16.1,10.2,16.2,10.2,16.1,10.2L16.1,10.2z"/>
			<path class="st1" d="M15.7,9.9C15.7,9.9,15.7,9.8,15.7,9.9c0.1,0,0.1-0.1,0.1-0.1C15.8,9.8,15.7,9.9,15.7,9.9
				C15.7,9.9,15.6,10,15.7,9.9C15.6,10,15.6,9.9,15.7,9.9z"/>
			<path class="st1" d="M16,11.1C16,11.1,16,11.1,16,11.1C16.1,11.1,16.1,11.1,16,11.1C16,11.1,15.9,11.1,16,11.1
				c-0.1,0-0.1,0-0.1,0C15.8,11.1,15.9,11.1,16,11.1C15.9,11.1,16,11.1,16,11.1z"/>
			<path class="st1" d="M15.9,11.5C15.9,11.5,15.9,11.5,15.9,11.5c-0.1,0-0.1,0-0.2-0.1c0,0,0,0,0,0c0,0,0,0,0.1,0
				C15.8,11.5,15.8,11.5,15.9,11.5C15.8,11.5,15.9,11.5,15.9,11.5L15.9,11.5z"/>
			<path class="st1" d="M15.3,11.8C15.3,11.8,15.3,11.8,15.3,11.8C15.3,11.7,15.3,11.7,15.3,11.8c0.1,0,0.1,0,0.1,0s0,0,0.1,0
				c0,0,0.1,0,0,0c0,0-0.1,0-0.1,0C15.4,11.9,15.4,11.8,15.3,11.8L15.3,11.8z"/>
			<path class="st1" d="M15.1,12.2C15,12.1,15,12.1,15.1,12.2C15,12.1,14.9,12,15,12C15,12,15,12.1,15.1,12.2c0,0,0.1,0,0.1,0l0,0
				c0,0,0,0,0,0C15.2,12.2,15.2,12.2,15.1,12.2C15.1,12.2,15.1,12.2,15.1,12.2z"/>
			<path class="st1" d="M14.7,12.5c0,0-0.1-0.1-0.1-0.1c0,0-0.1,0,0-0.1c0,0,0,0,0.1,0C14.6,12.4,14.7,12.5,14.7,12.5
				C14.7,12.5,14.7,12.5,14.7,12.5C14.8,12.5,14.7,12.5,14.7,12.5C14.7,12.5,14.7,12.5,14.7,12.5L14.7,12.5z"/>
			<polygon class="st2" points="13.1,7.5 12.9,7.4 13.1,7.3 13.2,7.4 			"/>
			<ellipse class="st1" cx="12.6" cy="7.4" rx="0.2" ry="0.1"/>
			<ellipse class="st2" cx="12.6" cy="7.3" rx="0.1" ry="0.1"/>
			<path class="st2" d="M12.9,6.9C12.8,6.9,12.8,6.9,12.9,6.9C12.8,6.9,12.8,6.8,12.9,6.9c0-0.1,0-0.1,0-0.2c0,0,0,0,0,0
				s0,0.1,0,0.1C12.9,6.8,12.9,6.8,12.9,6.9L12.9,6.9z"/>
			<ellipse class="st2" cx="12.8" cy="6.9" rx="0" ry="0"/>
			<path class="st2" d="M13,6.9C13,6.9,13,6.9,13,6.9C13,6.9,13,6.9,13,6.9C13,7,12.9,7,12.9,7c0,0,0,0,0-0.1
				C12.9,6.9,12.9,6.9,13,6.9C13,6.9,13,6.9,13,6.9z"/>
			<path class="st2" d="M12.9,7.1C13,7.1,13.1,7,13.1,7c0,0.1,0.1,0.1,0.1,0.1l0,0c0,0-0.1,0-0.2,0.1C13,7.2,13,7.2,12.9,7.1
				C12.9,7.2,12.9,7.1,12.9,7.1c-0.1,0-0.1-0.1-0.1-0.1S12.8,7.1,12.9,7.1L12.9,7.1z"/>
			<path class="st2" d="M13.3,7c0,0,0.1,0,0.1,0c0,0,0.1,0,0.1,0C13.4,7,13.4,7,13.3,7C13.3,7,13.3,7,13.3,7C13.2,7,13.2,7,13.3,7z"
				/>
			<path class="st2" d="M13.6,6.8C13.6,6.8,13.6,6.8,13.6,6.8C13.6,6.8,13.7,6.9,13.6,6.8c0.1,0.1,0,0.1,0,0.1
				C13.5,7,13.5,6.9,13.6,6.8C13.5,6.9,13.5,6.9,13.6,6.8z"/>
			<ellipse class="st2" cx="13.5" cy="7" rx="0" ry="0"/>
			<path class="st2" d="M13.4,6.7c0-0.1,0-0.3-0.1-0.4C13.2,6.1,13,6,13,6s0,0-0.1-0.1c-0.1-0.1-0.2-0.2-0.2-0.2s0.2,0,0.2,0.1
				c0,0,0,0,0,0c0,0.1,0,0.1,0.1,0.1c0,0,0,0,0.1,0c0,0,0.2,0.1,0.2,0.1c0,0,0,0,0,0.1c0,0.1,0,0.1,0.1,0.1c0,0,0,0,0,0c0,0,0,0,0,0
				c0,0.1,0.1,0.1,0.1,0.2c0,0,0,0.1,0,0.1c0,0.1,0,0.1,0.1,0.1c0,0,0,0.1,0,0.1c0,0,0,0.1-0.1,0.1c-0.1,0-0.1,0.1-0.1,0.1
				C13.4,6.9,13.4,6.8,13.4,6.7L13.4,6.7z"/>
			<path class="st2" d="M13.1,5.9C13,5.8,13,5.8,13.1,5.9C13.1,5.8,13.1,5.8,13.1,5.9C13.1,5.8,13.1,5.9,13.1,5.9
				C13.1,5.9,13.1,5.9,13.1,5.9z"/>
			<path class="st2" d="M13.5,6.1C13.4,6.1,13.4,6.1,13.5,6.1C13.5,6,13.5,6,13.5,6.1C13.5,6.1,13.6,6.1,13.5,6.1
				C13.5,6.2,13.5,6.2,13.5,6.1z"/>
			<ellipse class="st2" cx="13.7" cy="6.5" rx="0.1" ry="0.1"/>
			<path class="st2" d="M12.4,5.6c0,0,0.1,0,0.2,0.1h0c-0.1,0-0.1,0-0.1,0.1c0,0.1,0.1,0.1,0.1,0.1c0.1,0,0.1-0.1,0.1-0.1
				c0,0,0,0,0,0c0,0,0.1,0,0.1,0.1C12.9,5.9,13,6,13.1,6.2c0.1,0.2,0.1,0.4,0.1,0.5c0,0.1-0.2,0.1-0.2,0.1s0,0,0,0c0,0,0,0,0-0.1
				c0,0,0-0.1,0-0.1s0,0-0.1,0c0,0,0,0.1-0.1,0.1c0,0-0.1,0.1-0.1,0.1s0,0,0-0.1c0-0.1,0-0.1,0-0.2c0-0.1,0-0.3-0.1-0.4
				c-0.1-0.1-0.3-0.2-0.3-0.3c-0.1,0-0.1-0.1-0.1-0.1C12.3,5.7,12.3,5.7,12.4,5.6C12.3,5.6,12.3,5.6,12.4,5.6L12.4,5.6z"/>
			<path class="st2" d="M12.6,5.8C12.5,5.8,12.5,5.8,12.6,5.8c-0.1-0.1,0-0.1,0-0.1C12.6,5.7,12.6,5.7,12.6,5.8
				C12.6,5.8,12.6,5.8,12.6,5.8z"/>
			<path class="st2" d="M12.3,7c0,0-0.1,0-0.1,0c0,0,0-0.1,0-0.1c0,0,0.1,0,0.1,0C12.3,6.9,12.3,6.9,12.3,7C12.3,6.9,12.3,7,12.3,7z
				"/>
			<path class="st2" d="M12.1,7C12.1,7.1,12.1,7.1,12.1,7c0.1,0,0.2,0,0.2,0c0,0,0.1-0.1,0.1-0.1l0.1,0c0,0,0,0.1,0,0.1
				c0,0,0.1,0,0.2,0S12.7,7,12.7,7s0,0,0,0.1c0,0-0.1,0.1-0.1,0.1L12.1,7C12.2,7.1,12.1,7.1,12.1,7C12.1,7,12.1,7,12.1,7
				C12.1,7,12.1,7,12.1,7L12.1,7z"/>
			<path class="st2" d="M12.7,7c-0.1,0-0.1,0-0.1,0c0,0,0,0,0,0S12.6,6.9,12.7,7c0-0.1,0-0.1,0-0.1c0,0,0,0,0,0S12.7,6.9,12.7,7
				L12.7,7z"/>
			<ellipse class="st1" cx="13" cy="6.4" rx="0.1" ry="0.1"/>
			<path class="st1" d="M12.7,6c0,0,0.1,0,0.2,0c0,0.1,0,0.1,0,0.2c0,0-0.1,0-0.2,0C12.7,6.1,12.7,6,12.7,6z"/>
			<ellipse class="st2" cx="13" cy="6.4" rx="0.1" ry="0.1"/>
			<path class="st2" d="M12.8,6C12.8,6,12.9,6,12.8,6c0.1,0.1,0.1,0.1,0,0.1C12.8,6.1,12.7,6,12.8,6L12.8,6z"/>
		</g>
	</g>
</g>
</svg>
