<?xml version="1.0" encoding="utf-8"?>
<!-- Generator: Adobe Illustrator 20.1.0, SVG Export Plug-In . SVG Version: 6.00 Build 0)  -->
<svg version="1.1" id="Layer_1" xmlns="http://www.w3.org/2000/svg" xmlns:xlink="http://www.w3.org/1999/xlink" x="0px" y="0px"
	 viewBox="0 0 24 24" style="enable-background:new 0 0 24 24;" xml:space="preserve">
<style type="text/css">
	.st0{fill:#00AFCA;}
	.st1{fill:#FEC50C;}
	.st2{fill:#FEC50C;stroke:#00AFCA;stroke-width:2.570635e-02;}
</style>
<g id="Kazakhstan">
	<circle class="st0" cx="12" cy="12" r="12"/>
	<path class="st1" d="M3.6,20.6C3.6,20.6,3.6,20.6,3.6,20.6C3.6,20.6,3.6,20.6,3.6,20.6C3.6,20.6,3.6,20.6,3.6,20.6z"/>
	<circle class="st1" cx="12" cy="10.6" r="2.7"/>
	<path class="st1" d="M12,7.5c0.2,0,0.2-0.1,0.2-0.2c0-0.2-0.2-0.9-0.2-0.9s-0.2,0.8-0.2,0.9C11.8,7.4,11.8,7.5,12,7.5z"/>
	<path class="st1" d="M15.3,10.4c-0.1,0-0.2,0.1-0.2,0.2c0,0.2,0.1,0.2,0.2,0.2c0.2,0,0.9-0.2,0.9-0.2S15.5,10.4,15.3,10.4z"/>
	<path class="st1" d="M11.8,13.9c0,0.2,0.2,0.9,0.2,0.9s0.2-0.8,0.2-0.9c0-0.1-0.1-0.2-0.2-0.2C11.8,13.7,11.8,13.8,11.8,13.9z"/>
	<path class="st1" d="M8.9,10.6c0-0.2-0.1-0.2-0.2-0.2c-0.2,0-0.9,0.2-0.9,0.2s0.8,0.2,0.9,0.2C8.8,10.8,8.9,10.7,8.9,10.6z"/>
	<path class="st1" d="M13.5,7.6c0.1-0.1,0.2-0.9,0.2-0.9s-0.5,0.6-0.6,0.8c0,0.1,0,0.2,0.1,0.3C13.3,7.8,13.4,7.7,13.5,7.6z"/>
	<path class="st1" d="M15.1,11.7c-0.1,0-0.2,0-0.3,0.1c-0.1,0.2,0,0.2,0.1,0.3c0.1,0.1,0.9,0.2,0.9,0.2S15.3,11.7,15.1,11.7z"/>
	<path class="st1" d="M10.8,13.4c-0.2-0.1-0.2,0-0.3,0.1c-0.1,0.1-0.2,0.9-0.2,0.9s0.5-0.6,0.6-0.8C11,13.6,11,13.5,10.8,13.4z"/>
	<path class="st1" d="M9.1,9.4c0.1-0.2,0-0.2-0.1-0.3C8.9,9.1,8.1,9,8.1,9s0.6,0.5,0.8,0.6C9,9.6,9.1,9.6,9.1,9.4z"/>
	<path class="st1" d="M14.2,8.4c0.1,0.1,0.2,0.1,0.3,0C14.6,8.3,15,7.6,15,7.6S14.3,8,14.2,8.1C14.1,8.2,14.1,8.3,14.2,8.4z"/>
	<path class="st1" d="M14.5,12.8c-0.1-0.1-0.2-0.1-0.3,0c-0.1,0.1-0.1,0.2,0,0.3c0.1,0.1,0.8,0.5,0.8,0.5S14.6,12.9,14.5,12.8z"/>
	<path class="st1" d="M9.8,12.8c-0.1-0.1-0.2-0.1-0.3,0C9.4,12.9,9,13.6,9,13.6s0.7-0.4,0.8-0.5C9.9,13,9.9,12.9,9.8,12.8z"/>
	<path class="st1" d="M9.8,8.4c0.1-0.1,0.1-0.2,0-0.3C9.7,8,9,7.6,9,7.6s0.4,0.7,0.5,0.8C9.6,8.5,9.7,8.5,9.8,8.4z"/>
	<path class="st1" d="M14.8,9.4c0.1,0.1,0.2,0.2,0.3,0.1C15.3,9.5,15.9,9,15.9,9S15.1,9.1,15,9.1C14.9,9.2,14.8,9.3,14.8,9.4z"/>
	<path class="st1" d="M13.6,14.5c0,0-0.1-0.8-0.2-0.9c0-0.1-0.1-0.2-0.3-0.1c-0.1,0.1-0.2,0.2-0.1,0.3
		C13.1,13.9,13.6,14.5,13.6,14.5z"/>
	<path class="st1" d="M9.1,11.8c-0.1-0.1-0.2-0.2-0.3-0.1c-0.1,0.1-0.8,0.6-0.8,0.6s0.8-0.1,0.9-0.2C9.1,12,9.2,11.9,9.1,11.8z"/>
	<path class="st1" d="M10.8,7.7C11,7.7,11,7.5,10.9,7.4c-0.1-0.1-0.6-0.8-0.6-0.8s0.1,0.8,0.2,0.9C10.6,7.7,10.7,7.8,10.8,7.7z"/>
	<path class="st1" d="M12.6,7.6c0.2,0,0.2-0.1,0.3-0.2c0-0.2,0-1,0-1s-0.4,0.7-0.4,0.9C12.4,7.4,12.4,7.5,12.6,7.6z"/>
	<path class="st1" d="M15.3,11c-0.1,0-0.2,0-0.3,0.2c0,0.2,0.1,0.2,0.2,0.3c0.2,0,1,0,1,0S15.4,11,15.3,11z"/>
	<path class="st1" d="M11.1,13.8c0,0.2,0,1,0,1s0.4-0.7,0.4-0.9c0-0.1,0-0.2-0.2-0.3C11.2,13.6,11.1,13.7,11.1,13.8z"/>
	<path class="st1" d="M9,10c0-0.2-0.1-0.2-0.2-0.3c-0.2,0-1,0-1,0s0.7,0.4,0.9,0.4C8.8,10.2,8.9,10.1,9,10z"/>
	<path class="st1" d="M13.7,8c0.1,0.1,0.2,0,0.3-0.1c0.1-0.1,0.3-0.9,0.3-0.9s-0.6,0.5-0.7,0.7C13.6,7.8,13.6,7.9,13.7,8z"/>
	<path class="st1" d="M14.9,12.2c-0.1-0.1-0.2-0.1-0.3,0.1c-0.1,0.1,0,0.2,0.1,0.3c0.1,0.1,0.9,0.3,0.9,0.3S15,12.3,14.9,12.2z"/>
	<path class="st1" d="M10.3,13.5c0.1-0.1,0.1-0.2-0.1-0.3c-0.1-0.1-0.2,0-0.3,0.1c-0.1,0.1-0.3,0.9-0.3,0.9S10.2,13.6,10.3,13.5z"/>
	<path class="st1" d="M9.1,8.9C9.2,9,9.3,9,9.4,8.9c0.1-0.1,0-0.2-0.1-0.3C9.2,8.5,8.5,8.2,8.5,8.2S9,8.8,9.1,8.9z"/>
	<path class="st1" d="M14.6,8.9C14.7,9,14.8,9,14.9,8.9c0.1-0.1,0.7-0.7,0.7-0.7s-0.8,0.2-0.9,0.3C14.5,8.6,14.5,8.7,14.6,8.9z"/>
	<path class="st1" d="M14.3,14.1c0,0-0.2-0.8-0.3-0.9c-0.1-0.1-0.2-0.2-0.3-0.1c-0.1,0.1-0.1,0.2-0.1,0.3
		C13.7,13.6,14.3,14.1,14.3,14.1z"/>
	<path class="st1" d="M9.4,12.3c-0.1-0.1-0.2-0.1-0.3-0.1c-0.1,0.1-0.7,0.7-0.7,0.7s0.8-0.2,0.9-0.3C9.5,12.5,9.5,12.4,9.4,12.3z"/>
	<path class="st1" d="M10.3,8c0.1-0.1,0.1-0.2,0.1-0.3c-0.1-0.1-0.7-0.7-0.7-0.7S9.9,7.8,10,8C10,8.1,10.1,8.1,10.3,8z"/>
	<path class="st1" d="M15.2,9.7C15.1,9.7,15,9.8,15,10c0,0.2,0.1,0.2,0.3,0.2c0.2,0,0.9-0.4,0.9-0.4S15.4,9.7,15.2,9.7z"/>
	<path class="st1" d="M12.6,13.6c-0.2,0-0.2,0.1-0.2,0.3c0,0.2,0.4,0.9,0.4,0.9s0.1-0.8,0-1C12.8,13.7,12.8,13.6,12.6,13.6z"/>
	<path class="st1" d="M9,11.2C8.9,11,8.8,11,8.7,11c-0.2,0-0.9,0.4-0.9,0.4s0.8,0.1,1,0C8.9,11.4,9,11.3,9,11.2z"/>
	<path class="st1" d="M11.4,7.6c0.2,0,0.2-0.1,0.2-0.3c0-0.2-0.4-0.9-0.4-0.9s-0.1,0.8,0,1C11.1,7.5,11.2,7.6,11.4,7.6z"/>
	<path class="st1" d="M12.1,17c0.1,0,0.2,0,0.3,0c0,0,0.1,0,0.1,0c0,0-0.1,0-0.1,0H12c-0.1,0-0.2,0-0.3-0.1c0,0-0.1,0-0.1,0
		c0,0-0.1,0-0.1,0c-0.1,0-0.1,0-0.2,0c0-0.1,0.1-0.1,0.2-0.2c0,0-0.1,0-0.1,0c0.1-0.1,0.1-0.1,0.2-0.2c-0.1,0-0.1,0-0.2,0
		c-0.1,0-0.2,0-0.3,0.1l0,0l-0.1,0c0,0,0,0,0,0.1c0,0,0,0,0,0.1c0,0,0,0,0,0c0,0,0,0,0,0c0,0,0,0-0.1,0c0,0,0,0-0.1,0c0,0,0,0-0.1,0
		c0,0,0,0-0.1,0c0,0,0,0-0.1,0c0,0,0,0-0.1,0c0,0,0,0-0.1,0c-0.1,0-0.1,0.1-0.2,0.1c0,0,0,0.1,0,0.1c0,0,0,0.1,0,0.1c0,0,0,0,0-0.1
		c0,0,0.1-0.1,0.1-0.1c0,0,0,0,0,0c0,0,0,0.1,0,0c0.1-0.1,0.3-0.1,0.4-0.1c0.2,0,0.4,0,0.6,0C11.7,17,11.9,17,12.1,17z"/>
	<path class="st1" d="M13.7,16.6c0,0.1-0.2,0.1-0.2,0.2c0.1,0.1-0.1,0.2-0.2,0.2c-0.5,0.2-1,0.1-1.5,0.1c-0.3,0-0.6,0.1-0.7,0.5
		c0.2,0.1,0.4-0.1,0.6-0.2c0.1,0,0,0.2,0,0.3c0.2,0,0.3-0.2,0.4-0.3c0.1,0.1,0,0.2,0,0.3c0.2,0,0.3-0.2,0.4-0.3c0.1,0,0,0.2,0,0.3
		c0.1,0.1,0.3,0,0.3-0.2c0.1-0.2,0.1,0,0.1,0.1c0.1,0.1,0.2,0,0.3-0.1c0.1-0.2,0.1,0,0.2,0.1c0.2,0,0.2-0.2,0.4-0.3
		c0,0.1,0.1,0.3,0.2,0.1c0.1-0.1,0.1-0.2,0.2-0.3c0.1,0,0.2,0.2,0.4,0.1v0c0.1-0.1,0.1-0.2,0.1-0.3c0-0.2,0.1,0.1,0.2,0.1
		c0.2,0.1,0.5-0.1,0.4-0.3c-0.5,0-1-0.1-1.5-0.1C13.8,16.5,13.7,16.5,13.7,16.6z"/>
	<path class="st1" d="M18.3,12.6c0-0.1-0.2-0.2-0.3,0c-0.3,0.3-0.5,0.6-0.9,0.8c0.3-0.3,0.6-0.7,0.9-1.1c0.1-0.1,0.2-0.3,0.1-0.4
		c-0.1-0.1-0.3,0-0.3,0.1c-0.2,0.3-0.4,0.6-0.7,0.9c0.2-0.5,0.5-1,0.5-1.5c0-0.1,0-0.3-0.2-0.3c-0.1,0-0.1,0.2-0.1,0.3
		c-0.1,0.4-0.2,0.8-0.4,1.1c0.1-0.3,0.1-0.6,0.1-0.9c0-0.1-0.3-0.1-0.2,0.1c-0.3,1.3-1.2,2.5-2.3,3.2c-0.5,0.3-1.1,0.5-1.7,0.6
		c-0.2,0-0.3,0-0.5,0.1c-0.4,0.3-0.6,0.8-1.1,0.9c-0.2,0.1-0.5,0.1-0.6,0.3c0,0,0,0.1,0,0.1c0.1,0.1,0.2,0,0.3-0.1
		c0.4-0.1,0.7-0.3,1-0.6c0.2-0.2,0.3-0.4,0.6-0.4c0.5-0.1,1-0.1,1.5-0.3c0.4-0.5,1-0.7,1.5-1c0.1,0,0.2-0.1,0.2-0.2
		c0.2-0.3,0.5-0.6,0.8-0.8c0.2-0.1,0.3-0.1,0.5-0.1c0,0.2-0.1,0.4-0.3,0.5c0.1,0,0.2-0.1,0.3-0.1c0,0.2-0.2,0.3-0.3,0.5
		c0.1,0,0.3,0,0.2,0.1c-0.2,0.1-0.4,0.2-0.6,0.4c0.2,0,0.2,0.1,0,0.1C16.2,14.8,16,14.9,16,15c0.1,0.1-0.1,0.1-0.1,0.2
		c-0.1,0-0.3,0.1-0.1,0.2c-0.1,0.1-0.2,0.1-0.3,0.1c0,0.1,0.1,0.2-0.1,0.3c-0.3,0.2-0.7,0.4-1.1,0.5c0.5,0,1-0.1,1.4-0.3
		c0.1-0.1,0.3-0.1,0.2-0.2c-0.1,0-0.2-0.1-0.3-0.1c0.2-0.1,0.5-0.1,0.8-0.2c0-0.1-0.2-0.1-0.3-0.1c-0.2,0-0.2-0.1,0-0.1
		c0.2-0.1,0.4-0.1,0.6-0.2c-0.1-0.1-0.3,0-0.5-0.1c0.3-0.1,0.6-0.1,0.8-0.3c0.1-0.1-0.1-0.1-0.2-0.1c-0.1,0-0.2,0,0-0.1
		c0.3-0.2,0.6-0.3,0.8-0.6c0-0.1,0.1-0.3,0-0.2c-0.2,0.1-0.4,0.3-0.6,0.2C17.6,13.5,18,13.1,18.3,12.6z"/>
	<path class="st1" d="M7.1,13.1C7.2,13.1,7.1,13,7.2,13c0.1,0.1,0.2,0.1,0.3,0.2c0.4,0.3,0.6,0.8,1,1.2c0.2,0.2,0.4,0.2,0.7,0.3
		c0.3,0.2,0.5,0.4,0.7,0.6c0.2,0.2,0.5,0.2,0.8,0.2c0.3,0,0.7,0,1,0.3c0.1-0.1,0.1-0.3,0.2-0.4l0,0c-0.1,0-0.2,0-0.2,0
		c-0.9-0.1-1.8-0.4-2.5-0.9c-0.9-0.6-1.6-1.5-1.9-2.6c-0.1-0.2-0.1-0.3-0.1-0.5c-0.1-0.1-0.2,0-0.2,0.1c-0.1,0.3,0,0.6,0.1,0.9
		c-0.2-0.4-0.3-0.8-0.4-1.2c0-0.1,0-0.2-0.1-0.2c-0.1,0-0.1,0.2-0.2,0.3c0,0.5,0.3,1,0.5,1.5c-0.3-0.2-0.5-0.6-0.7-0.9
		c-0.1-0.1-0.2-0.2-0.3-0.1c-0.1,0-0.1,0.2,0,0.3c0.2,0.4,0.5,0.8,0.8,1.2c0,0,0.2,0.2,0.1,0.1c-0.3-0.2-0.6-0.5-0.9-0.7
		c-0.1-0.1-0.3-0.1-0.2,0.1c0.2,0.4,0.6,0.7,0.9,1c0,0.1,0.2,0.1,0.2,0.2c-0.2,0-0.4-0.2-0.6-0.2c-0.1,0,0,0.2,0.1,0.2
		c0.3,0.3,0.7,0.5,1.1,0.6c-0.1,0.1-0.3,0-0.4,0c-0.1,0-0.3-0.1-0.2,0c0.2,0.2,0.5,0.2,0.8,0.3c-0.1,0.1-0.2,0.1-0.2,0.1
		c-0.1,0-0.2,0-0.2,0.1C7.2,15,7.4,15,7.5,15c0.2,0,0.1,0,0,0.1c-0.1,0-0.2,0-0.2,0.1c0.2,0.1,0.4,0.1,0.7,0.2
		c-0.1,0-0.2,0.1-0.3,0.1c0.2,0.1,0.5,0.2,0.7,0.3c0.4,0.2,0.9,0.3,1.4,0.4c-0.2,0-0.3-0.1-0.5-0.1c-0.4-0.1-0.8-0.3-1.2-0.5
		c0.1-0.1,0.2-0.1,0.3-0.2c-0.2,0-0.3-0.1-0.5-0.1c-0.2-0.1,0-0.1,0.1-0.2c0-0.1-0.2-0.1-0.2-0.1c-0.1,0-0.1-0.1-0.1-0.2
		c0.1-0.1-0.1-0.1-0.1-0.1c-0.1,0,0-0.2,0-0.2c-0.2,0-0.4-0.2-0.5-0.3c0,0,0.2,0,0.3,0c-0.2-0.1-0.3-0.3-0.4-0.4c0,0,0.2,0,0.3,0
		c0-0.2-0.1-0.4-0.3-0.6C6.9,13,7,13,7.1,13.1z"/>
	<path class="st1" d="M10.8,16.7C10.8,16.6,10.8,16.6,10.8,16.7C10.7,16.6,10.7,16.6,10.8,16.7C10.7,16.7,10.7,16.7,10.8,16.7
		C10.8,16.7,10.8,16.7,10.8,16.7z M10.7,16.7C10.7,16.7,10.8,16.6,10.7,16.7C10.8,16.6,10.8,16.7,10.7,16.7
		C10.8,16.7,10.8,16.7,10.7,16.7C10.8,16.7,10.7,16.7,10.7,16.7z"/>
	<circle class="st2" cx="10.8" cy="16.7" r="0"/>
	<path class="st1" d="M1.4,7.1c0,0.4,0.2,0.6,0.7,0.7c0,0,0,0,0,0c0,0,0,0,0,0c0.3,0,0.6-0.2,0.7-0.5C2.9,7.1,2.9,7,2.9,7l0,0l0.1-2
		v0C2.8,5,2.7,5.3,2.7,5.4c0,0.1,0.1,0.2,0.2,0.2C2.5,5.7,2.4,5.8,2.3,6C2.5,6,2.7,6,2.7,6.2c0,0,0,0.5,0,0.7
		C2.6,6.7,2.5,6.7,2.4,6.7c-0.2,0-0.2-0.1-0.2-0.3C2.1,6.5,2,6.5,2,6.7c-0.1,0-0.2,0.1-0.2,0.1C1.9,6.9,1.9,6.9,2,6.9
		c0,0.1,0.1,0.2,0.2,0.3c0-0.1-0.1-0.3,0.2-0.3c0.1,0,0.1,0.1,0.1,0.2c0,0.2-0.2,0.3-0.4,0.3C2,7.4,1.7,7.3,1.7,7
		c0-0.1,0-0.2,0.1-0.3c0.2-0.5,1-2.1,1.1-2.4c0,0,0,0,0,0c0,0,0-0.1,0-0.1C2.7,4.4,2.5,4.7,2.3,4.9C2,5.6,1.5,6.5,1.5,6.5
		C1.4,6.7,1.4,6.8,1.4,7.1z"/>
	<polygon class="st1" points="1.8,12 1.8,12 1.8,12 	"/>
	<path class="st1" d="M2.4,12.1C2.4,12.1,2.4,12.1,2.4,12.1c0.3,0,0.4-0.2,0.5-0.3l0,0c0-0.1-0.1-0.4,0-0.7c0,0,0,0,0,0
		C2.7,10.8,2,9.2,1.8,8.7c0-0.1-0.1-0.2-0.1-0.3C1.7,8.1,2,8,2.1,8c0.2,0,0.4,0.1,0.4,0.3c0,0.1-0.1,0.2-0.1,0.2
		c-0.2,0-0.2-0.2-0.2-0.3C2.1,8.3,2,8.4,2,8.5c-0.1,0-0.1,0-0.2,0.1C1.9,8.7,1.9,8.7,2,8.7C2,8.9,2.1,9,2.2,9c0-0.1-0.1-0.3,0.2-0.3
		c0.2,0,0.3,0,0.4-0.1c0,0.1,0,0.7,0,0.7c0,0.2-0.3,0.2-0.4,0.1c0.1,0.2,0.2,0.4,0.5,0.3c-0.1,0-0.2,0.1-0.2,0.2
		c0,0.2,0.2,0.4,0.3,0.5v0l-0.1-2h0c0-0.1,0-0.1,0.1-0.2C2.8,7.9,2.5,7.7,2.2,7.7c0,0,0,0,0,0c0,0,0,0,0,0C1.7,7.7,1.4,8,1.4,8.4
		c0,0.2,0,0.3,0.1,0.6c0,0,0.8,1.7,1.1,2.3c0,0.1,0.1,0.2,0.1,0.3c0,0.2-0.2,0.4-0.4,0.4c-0.2,0-0.4-0.2-0.4-0.4
		c0-0.3,0.1-0.4,0.3-0.4c0.2,0,0.2,0.1,0.2,0.2c0,0.1,0,0.1-0.1,0.1c-0.1,0-0.1-0.2-0.1-0.2c-0.1,0-0.1,0.1-0.1,0.2
		c-0.1,0-0.1,0-0.1,0.1c0,0,0.1,0.1,0.1,0.1c0,0.1,0,0.2,0.1,0.2c0,0,0-0.1,0-0.1c0.2,0,0.4,0,0.4-0.3c0-0.3-0.2-0.5-0.5-0.4
		c0.1,0,0.1-0.1,0.1-0.2c-0.1,0-0.1,0-0.1,0c0-0.1,0.1-0.1,0.1-0.3c-0.1,0-0.1,0.1-0.2,0c0.1-0.2,0-0.6-0.4-0.7
		c0.1,0.2,0.2,0.4,0.2,0.5c0,0.6-0.2,0.7-0.2,1.1c0,0.2,0.1,0.4,0.3,0.5c0,0,0,0,0,0v0c0,0,0,0,0,0c-0.1,0-0.2,0.1-0.2,0.2l0,0
		C1.9,12.1,2.2,12.1,2.4,12.1z"/>
	<path class="st1" d="M2.2,7.7C2.2,7.7,2.2,7.7,2.2,7.7C2.1,7.7,2.1,7.7,2.2,7.7C2.1,7.7,2.1,7.7,2.2,7.7C2.2,7.7,2.2,7.7,2.2,7.7z"
		/>
	<path class="st1" d="M4.2,3.3L4.2,3.3C4.1,3.2,4.1,3.1,3.9,3.1C4,3.1,4.1,3,4.2,2.9C4,3,3.9,3.1,3.8,3.2C3.9,3.2,4.1,3.3,4.2,3.3z"
		/>
	<path class="st1" d="M3.7,3.3C3.6,3.4,3.5,3.5,3.5,3.5c0,0,0,0,0.1,0c0.2,0,0.4,0.2,0.4,0.4c0,0.3-0.1,0.4-0.3,0.4
		c-0.2,0-0.2-0.1-0.2-0.2C3.4,4,3.5,4,3.5,4c0.1,0,0.1,0.2,0.1,0.2c0.1,0,0.1-0.1,0.1-0.2c0.1,0,0.1,0,0.1-0.1c0,0-0.1-0.1-0.1-0.1
		c0-0.1,0-0.2-0.1-0.2c0,0,0,0.1,0,0.1c-0.2,0-0.4,0-0.4,0.3c0,0.3,0.2,0.5,0.5,0.4c-0.1,0-0.1,0.1-0.1,0.2c0.1,0,0.1,0,0.1,0
		c0,0.1-0.1,0.1-0.1,0.3c0.1,0,0.1-0.1,0.2,0c-0.1,0.2,0,0.6,0.4,0.7C4.1,5.4,4.1,5.2,4.1,5c0-0.6,0.2-0.7,0.2-1.1
		c0-0.2-0.1-0.4-0.3-0.5c0,0,0,0,0,0v0c0,0,0,0,0,0c0.1,0,0.2-0.1,0.2-0.2l0,0C4.2,3.3,3.9,3.3,3.7,3.3z"/>
	<polygon class="st1" points="4,3.4 4,3.4 4,3.4 	"/>
	<path class="st1" d="M2.9,4.3L2.9,4.3C3.1,4.6,3.8,6.2,4,6.7c0,0.1,0.1,0.2,0.1,0.3c0,0.3-0.3,0.4-0.4,0.4c-0.2,0-0.4-0.1-0.4-0.3
		c0-0.1,0.1-0.2,0.1-0.2c0.2,0,0.2,0.2,0.2,0.3c0.1-0.1,0.2-0.2,0.2-0.3c0.1,0,0.1,0,0.2-0.1C3.9,6.8,3.9,6.7,3.8,6.7
		c0-0.2-0.1-0.2-0.2-0.3c0,0.1,0.1,0.3-0.2,0.3c-0.2,0-0.3,0-0.4,0.1c0-0.1,0-0.7,0-0.7C3.1,6,3.3,6,3.5,6C3.5,5.8,3.3,5.7,3,5.7
		c0.1,0,0.2-0.1,0.2-0.2C3.2,5.3,3,5,2.9,5l0,0L3,7l0,0v0v0c0,0.1,0,0.1-0.1,0.2C3,7.5,3.3,7.7,3.6,7.7c0,0,0,0,0,0c0,0,0,0,0,0
		c0.4,0,0.7-0.3,0.7-0.7c0-0.2,0-0.3-0.1-0.6c0,0-0.8-1.7-1.1-2.3c0-0.1,0-0.2,0-0.3C3.1,4,3,4,3,4.1C3,4.2,2.9,4.2,2.9,4.3z"/>
	<polygon class="st1" points="3,7 3,7 3,7 	"/>
	<path class="st1" d="M2.9,4.2c0,0,0,0.1,0,0.1C2.9,4.2,3,4.2,3,4.1C2.9,4.1,2.9,4.2,2.9,4.2z"/>
	<path class="st1" d="M2.9,5L2.9,7l0,0c0,0.1,0,0.1,0.1,0.2C2.9,7.1,3,7,3,7L2.9,5z"/>
	<path class="st1" d="M3.7,3.3c0.2,0,0.5,0,0.5,0C4.1,3.3,3.9,3.2,3.7,3.3C3.8,3.3,3.7,3.3,3.7,3.3z"/>
	<path class="st1" d="M3.6,7.7C3.3,7.7,3,7.9,2.9,8.3C2.9,8.3,3,8.4,3,8.5l-0.1,2l0,0C3,10.4,3.2,10.2,3.2,10c0-0.1-0.1-0.2-0.2-0.2
		c0.3,0,0.5-0.1,0.5-0.3C3.3,9.5,3.1,9.5,3.1,9.3c0,0,0-0.5,0-0.7c0.1,0.1,0.2,0.1,0.4,0.1c0.2,0,0.2,0.1,0.2,0.3
		c0.1,0,0.2-0.1,0.2-0.3c0.1,0,0.2-0.1,0.2-0.1C3.9,8.5,3.9,8.5,3.8,8.5c0-0.1-0.1-0.2-0.2-0.3c0,0.1,0.1,0.3-0.2,0.3
		c-0.1,0-0.1-0.1-0.1-0.2C3.3,8.1,3.5,8,3.7,8c0.2,0,0.4,0.1,0.4,0.4c0,0.1,0,0.2-0.1,0.3c-0.2,0.5-1,2.1-1.1,2.4l0,0
		c0.1,0.3,0,0.6,0,0.7l0,0c0,0.1,0.2,0.3,0.4,0.3c0,0,0,0,0,0c0.2-0.1,0.6-0.1,0.8,0l0,0C4.2,12.1,4.1,12,4,12c0,0,0,0,0,0v0
		c0,0,0,0,0,0c0.2-0.1,0.3-0.3,0.3-0.5c0-0.4-0.2-0.5-0.2-1.1c0-0.2,0.1-0.4,0.2-0.5c-0.4,0.1-0.5,0.4-0.4,0.7c-0.1,0-0.1,0-0.2,0
		c0,0.1,0.1,0.2,0.1,0.3c0,0-0.1,0-0.1,0c0,0.1,0,0.2,0.1,0.2c-0.3-0.1-0.5,0.2-0.5,0.4c0,0.3,0.2,0.3,0.4,0.3c0,0,0,0.1,0,0.1
		c0.1,0,0.1-0.1,0.1-0.2c0.1,0,0.1,0,0.1-0.1c0,0-0.1-0.1-0.1-0.1c0-0.1,0-0.2-0.1-0.2c0,0,0,0.2-0.1,0.2c-0.1,0-0.1,0-0.1-0.1
		c0-0.1,0.1-0.2,0.2-0.2c0.1,0,0.3,0.1,0.3,0.4c0,0.2-0.2,0.4-0.4,0.4c-0.2,0-0.4-0.2-0.4-0.4c0-0.1,0-0.2,0.1-0.3
		c0.3-0.6,1.1-2.3,1.1-2.3c0.1-0.2,0.1-0.3,0.1-0.6C4.4,8,4.2,7.7,3.6,7.7C3.7,7.7,3.7,7.7,3.6,7.7C3.7,7.7,3.6,7.7,3.6,7.7z"/>
	<polygon class="st1" points="4,12 4,12 4,12 	"/>
	<path class="st1" d="M2.9,11.8c0-0.1,0.1-0.4,0-0.7C2.8,11.4,2.9,11.7,2.9,11.8z"/>
	<path class="st1" d="M2.9,8.5l0.1,2l0.1-2c0-0.1,0-0.1-0.1-0.2C2.9,8.3,2.9,8.4,2.9,8.5L2.9,8.5z"/>
	<path class="st1" d="M3.6,7.7C3.6,7.7,3.7,7.7,3.6,7.7C3.7,7.7,3.7,7.7,3.6,7.7C3.7,7.7,3.7,7.7,3.6,7.7C3.7,7.7,3.6,7.7,3.6,7.7z"
		/>
	<path class="st1" d="M1.8,17.6c0-0.1-0.1-0.2-0.1-0.3c0-0.3,0.3-0.4,0.4-0.4c0.2,0,0.4,0.1,0.4,0.3c0,0.1-0.1,0.2-0.1,0.2
		c-0.2,0-0.2-0.2-0.2-0.3C2.1,17.1,2,17.2,2,17.3c-0.1,0-0.1,0-0.2,0.1c0.1,0.1,0.1,0.1,0.2,0.1c0,0.2,0.1,0.2,0.2,0.3
		c0-0.1-0.1-0.3,0.2-0.3c0.2,0,0.3,0,0.4-0.1c0,0.1,0,0.7,0,0.7c0,0.2-0.3,0.2-0.4,0.1c0.1,0.2,0.2,0.4,0.5,0.3
		c-0.1,0-0.2,0.1-0.2,0.2c0,0.2,0.2,0.4,0.3,0.5v0l-0.1-2l0,0c0-0.1,0-0.1,0.1-0.2c-0.1-0.3-0.4-0.5-0.7-0.5c0,0,0,0,0,0
		c0,0,0,0,0,0c-0.4,0-0.7,0.3-0.7,0.7c0,0.2,0,0.3,0.1,0.6c0,0,0.1,0.2,0.3,0.6c0.3,0.5,0.6,0.9,0.9,1.3C2.5,19.1,2,18,1.8,17.6z"/>
	<polygon class="st1" points="1.8,12.3 1.8,12.3 1.8,12.3 	"/>
	<path class="st1" d="M2.9,16c0-0.1-0.1-0.1-0.1-0.2l0,0l0.1-2v0c-0.1,0.1-0.3,0.3-0.3,0.5c0,0.1,0.1,0.2,0.2,0.2
		c-0.3,0-0.5,0.1-0.5,0.3c0.2-0.1,0.5-0.1,0.4,0.1c0,0,0,0.5,0,0.7c-0.1-0.1-0.2-0.1-0.4-0.1c-0.2,0-0.2-0.1-0.2-0.3
		c-0.1,0-0.2,0.1-0.2,0.3c-0.1,0-0.2,0.1-0.2,0.1c0.1,0.1,0.1,0.1,0.2,0.1c0,0.1,0.1,0.2,0.2,0.3c0-0.1-0.1-0.3,0.2-0.3
		c0.1,0,0.1,0.1,0.1,0.2c0,0.2-0.2,0.3-0.4,0.3c-0.2,0-0.4-0.1-0.4-0.4c0-0.1,0-0.2,0.1-0.3c0.2-0.5,1-2.1,1.1-2.4c0,0,0,0,0,0
		c-0.1-0.3,0-0.6,0-0.7l0,0c0-0.1-0.2-0.3-0.4-0.3c0,0,0,0,0,0c-0.2,0.1-0.6,0.1-0.8,0c0,0,0,0,0,0c0,0.1,0.1,0.1,0.2,0.2
		c0,0,0,0,0,0v0c0,0,0,0,0,0c-0.2,0.1-0.3,0.3-0.3,0.5c0,0.4,0.2,0.5,0.2,1.1c0,0.2-0.1,0.4-0.2,0.5c0.4-0.1,0.5-0.4,0.4-0.7
		c0.1,0,0.1,0,0.2,0c0-0.1-0.1-0.2-0.1-0.3c0,0,0.1,0,0.1,0c0-0.1,0-0.2-0.1-0.2c0.3,0.1,0.5-0.2,0.5-0.4c0-0.3-0.2-0.3-0.4-0.3
		c0,0,0-0.1,0-0.1c-0.1,0-0.1,0.1-0.1,0.2c-0.1,0-0.1,0-0.1,0.1c0,0,0.1,0.1,0.1,0.1c0,0.1,0,0.2,0.1,0.2c0,0,0-0.2,0.1-0.2
		c0.1,0,0.1,0,0.1,0.1c0,0.1-0.1,0.2-0.2,0.2c-0.1,0-0.3-0.1-0.3-0.4c0-0.2,0.2-0.4,0.4-0.4c0.2,0,0.4,0.2,0.4,0.4
		c0,0.1,0,0.2-0.1,0.3c-0.3,0.6-1.1,2.3-1.1,2.3c-0.1,0.2-0.1,0.3-0.1,0.6c0,0.4,0.2,0.6,0.7,0.7c0,0,0,0,0,0c0,0,0,0,0,0
		C2.5,16.6,2.8,16.4,2.9,16z"/>
	<path class="st1" d="M2.4,12.1c-0.2-0.1-0.6-0.1-0.8,0C1.9,12.2,2.2,12.2,2.4,12.1z"/>
	<path class="st1" d="M2.1,16.6C2.1,16.6,2.1,16.6,2.1,16.6C2.2,16.6,2.2,16.6,2.1,16.6C2.2,16.6,2.2,16.6,2.1,16.6
		C2.1,16.6,2.1,16.6,2.1,16.6z"/>
	<path class="st1" d="M4.2,21c0,0-0.1,0-0.1,0C4.1,21,4.1,21.1,4.2,21C4.2,21.1,4.2,21,4.2,21L4.2,21z"/>
	<path class="st1" d="M3.5,20.5C3.6,20.5,3.6,20.5,3.5,20.5C3.6,20.5,3.6,20.6,3.5,20.5c0.1,0.1,0.1,0.1,0.1,0.1
		c0.1,0,0.1-0.1,0.1-0.2c0.1,0,0.1,0,0.1-0.1c0,0-0.1-0.1-0.1-0.1c0-0.1,0-0.2-0.1-0.2c0,0,0,0.2-0.1,0.2c-0.1,0-0.1,0-0.1-0.1
		c0-0.1,0.1-0.2,0.2-0.2c0.1,0,0.3,0.1,0.3,0.4c0,0.1-0.1,0.2-0.2,0.3c0.1,0.1,0.2,0.2,0.3,0.3c0.1,0,0.1,0,0.1,0l0,0
		c0-0.1-0.1-0.1-0.2-0.2c0,0,0,0,0,0v0c0,0,0,0,0,0c0.2-0.1,0.3-0.3,0.3-0.5c0-0.4-0.2-0.5-0.2-1.1c0-0.2,0.1-0.4,0.2-0.5
		c-0.4,0.1-0.5,0.4-0.4,0.7c-0.1,0-0.1,0-0.2,0c0,0.1,0.1,0.2,0.1,0.3c0,0-0.1,0-0.1,0c0,0.1,0,0.2,0.1,0.2
		c-0.3-0.1-0.5,0.1-0.5,0.4C3.3,20.3,3.4,20.4,3.5,20.5z"/>
	<polygon class="st1" points="4,20.9 4,20.8 4,20.8 	"/>
	<path class="st1" d="M3.6,16.6c-0.3,0-0.6,0.2-0.7,0.5c0,0.1,0.1,0.1,0.1,0.2v0v0l0,0l-0.1,2l0,0C3,19.2,3.2,19,3.2,18.9
		c0-0.1-0.1-0.2-0.2-0.2c0.3,0,0.5-0.1,0.5-0.3c-0.2,0.1-0.5,0.1-0.4-0.1c0,0,0-0.5,0-0.7c0.1,0.1,0.2,0.1,0.4,0.1
		c0.2,0,0.2,0.1,0.2,0.3c0.1,0,0.2-0.1,0.2-0.3c0.1,0,0.2-0.1,0.2-0.1c-0.1-0.1-0.1-0.1-0.2-0.1c0-0.1-0.1-0.2-0.2-0.3
		c0,0.1,0.1,0.3-0.2,0.3c-0.1,0-0.1-0.1-0.1-0.2c0-0.2,0.2-0.3,0.4-0.3c0.2,0,0.4,0.1,0.4,0.4c0,0.1,0,0.2-0.1,0.3
		c-0.2,0.5-0.9,1.8-1.1,2.3C3,20,3.1,20,3.2,20.1c0,0,0,0,0,0c0.3-0.6,1.1-2.3,1.1-2.3c0.1-0.2,0.1-0.3,0.1-0.6
		C4.4,16.9,4.2,16.6,3.6,16.6C3.7,16.6,3.7,16.6,3.6,16.6C3.7,16.6,3.6,16.6,3.6,16.6z"/>
	<path class="st1" d="M2.9,17.1c0,0.1-0.1,0.1-0.1,0.2l0,0l0.1,2l0.1-2C3,17.3,2.9,17.2,2.9,17.1z"/>
	<polygon class="st1" points="3,17.3 3,17.3 3,17.3 	"/>
	<path class="st1" d="M4.1,21c0,0,0.1,0,0.1,0C4.2,21,4.1,21,4.1,21C4.1,21,4.1,21,4.1,21z"/>
	<polygon class="st1" points="4,12.3 4,12.3 4,12.3 	"/>
	<path class="st1" d="M3.4,12.1C3.4,12.2,3.4,12.2,3.4,12.1c-0.3,0-0.4,0.2-0.5,0.3l0,0c0,0.1,0.1,0.4,0,0.7l0,0
		c0.2,0.3,0.9,1.9,1.1,2.4c0,0.1,0.1,0.2,0.1,0.3c0,0.3-0.3,0.4-0.4,0.4c-0.2,0-0.4-0.1-0.4-0.3c0-0.1,0.1-0.2,0.1-0.2
		c0.2,0,0.2,0.2,0.2,0.3c0.1-0.1,0.2-0.2,0.2-0.3c0.1,0,0.1,0,0.2-0.1c-0.1-0.1-0.1-0.1-0.2-0.1c0-0.2-0.1-0.2-0.2-0.3
		c0,0.1,0.1,0.3-0.2,0.3c-0.2,0-0.3,0-0.4,0.1c0-0.1,0-0.7,0-0.7c0-0.2,0.3-0.2,0.4-0.1c-0.1-0.2-0.2-0.4-0.5-0.3
		c0.1,0,0.2-0.1,0.2-0.2c0-0.2-0.2-0.4-0.3-0.5l0,0l0.1,2l0,0v0v0c0,0.1,0,0.1-0.1,0.2c0.1,0.3,0.4,0.5,0.7,0.5c0,0,0,0,0,0
		c0,0,0,0,0,0c0.4,0,0.7-0.3,0.7-0.7c0-0.2,0-0.3-0.1-0.6c0,0-0.8-1.7-1.1-2.3c0-0.1-0.1-0.2-0.1-0.3c0-0.2,0.2-0.4,0.4-0.4
		c0.2,0,0.4,0.2,0.4,0.4c0,0.3-0.1,0.4-0.3,0.4c-0.2,0-0.2-0.1-0.2-0.2c0-0.1,0-0.1,0.1-0.1c0.1,0,0.1,0.2,0.1,0.2
		c0.1,0,0.1-0.1,0.1-0.2c0.1,0,0.1,0,0.1-0.1c0,0-0.1-0.1-0.1-0.1c0-0.1,0-0.2-0.1-0.2c0,0,0,0.1,0,0.1c-0.2,0-0.4,0-0.4,0.3
		c0,0.3,0.2,0.5,0.5,0.4c-0.1,0-0.1,0.1-0.1,0.2c0.1,0,0.1,0,0.1,0c0,0.1-0.1,0.1-0.1,0.3c0.1,0,0.1-0.1,0.2,0
		c-0.1,0.2,0,0.6,0.4,0.7c-0.1-0.2-0.2-0.4-0.2-0.5c0-0.6,0.2-0.7,0.2-1.1c0-0.2-0.1-0.4-0.3-0.5c0,0,0,0,0,0v0c0,0,0,0,0,0
		c0.1,0,0.2-0.1,0.2-0.2c0,0,0,0,0,0C4,12.2,3.6,12.2,3.4,12.1z"/>
	<path class="st1" d="M3.4,12.1c0.2,0.1,0.6,0.1,0.8,0C4,12.1,3.6,12.1,3.4,12.1z"/>
	<path class="st1" d="M2.9,13.2c0.1-0.3,0-0.6,0-0.7C2.9,12.5,2.8,12.9,2.9,13.2z"/>
	<polygon class="st1" points="3,15.8 3,15.8 3,15.8 	"/>
	<path class="st1" d="M2.9,15.8c0,0.1,0,0.1,0.1,0.2C2.9,16,3,15.9,3,15.8l-0.1-2L2.9,15.8L2.9,15.8z"/>
	<path class="st1" d="M3.6,16.6C3.6,16.6,3.7,16.6,3.6,16.6C3.7,16.6,3.7,16.6,3.6,16.6C3.7,16.6,3.7,16.6,3.6,16.6
		C3.7,16.6,3.6,16.6,3.6,16.6z"/>
</g>
</svg>
