<?xml version="1.0" encoding="utf-8"?>
<!-- Generator: Adobe Illustrator 20.1.0, SVG Export Plug-In . SVG Version: 6.00 Build 0)  -->
<svg version="1.1" id="Layer_1" xmlns="http://www.w3.org/2000/svg" xmlns:xlink="http://www.w3.org/1999/xlink" x="0px" y="0px"
	 viewBox="0 0 24 24" style="enable-background:new 0 0 24 24;" xml:space="preserve">
<style type="text/css">
	.st0{fill:#FFFFFF;}
	.st1{fill:#ED1C24;}
	.st2{fill:#005DA4;}
	.st3{fill:#FFDD00;}
</style>
<g id="Slovenia">
	<g>
		<path class="st0" d="M12,0C6.8,0,2.3,3.4,0.7,8h22.6C21.7,3.4,17.2,0,12,0z"/>
		<path class="st1" d="M12,24c5.2,0,9.6-3.3,11.3-8H0.7C2.3,20.7,6.8,24,12,24z"/>
		<path class="st2" d="M0.7,16h22.6c0.4-1.2,0.7-2.6,0.7-4c0-1.4-0.2-2.8-0.7-4H0.7C0.2,9.3,0,10.6,0,12C0,13.4,0.2,14.8,0.7,16z"/>
	</g>
	<g transform="translate(2.2238 1) scale(.12937)">
		<path class="st2" d="M101.5,57.8l2.3-33.9c-17.9-8.5-38.6-8.5-56.5,0l2.3,33.9C50.7,73,61,86,75.6,90.4
			C90.1,86,100.5,73,101.5,57.8"/>
		<path class="st0" d="M54.4,62.3c2.5,11.1,10.5,20,21.2,23.7c10.7-3.7,18.7-12.7,21.2-23.7L86.2,48.2l-4.2,5.7l-6.4-12.7l-6.4,12.7
			L65,48.2L54.4,62.3"/>
		<g id="wave_3_" transform="scale(5) translate(0 5.1962)">
			<path class="st2" d="M11.1,8c0.4,0.7,1.3,0.9,1.9,0.5l0,0c0.4-0.3,1-0.3,1.4,0c0.4,0.3,1,0.3,1.4,0c0.4-0.3,1-0.3,1.4,0
				c0.7,0.4,1.5,0.2,1.9-0.5l0,0v0.4c-0.4,0.7-1.3,0.9-1.9,0.5l0,0c-0.4-0.3-1-0.3-1.4,0c-0.4,0.3-1,0.3-1.4,0c-0.4-0.3-1-0.3-1.4,0
				c-0.7,0.4-1.5,0.2-1.9-0.5l0,0V8z"/>
		</g>
		<g transform="translate(0 17.321)">
			<g id="wave_2_" transform="scale(5) translate(0 5.1962)">
				<path class="st2" d="M11.1,8.8c0.4,0.7,1.3,0.9,1.9,0.5l0,0c0.4-0.3,1-0.3,1.4,0c0.4,0.3,1,0.3,1.4,0c0.4-0.3,1-0.3,1.4,0
					c0.7,0.4,1.5,0.2,1.9-0.5l0,0v0.4c-0.4,0.7-1.3,0.9-1.9,0.5l0,0c-0.4-0.3-1-0.3-1.4,0c-0.4,0.3-1,0.3-1.4,0
					c-0.4-0.3-1-0.3-1.4,0c-0.7,0.4-1.5,0.2-1.9-0.5l0,0V8.8z"/>
			</g>
		</g>
		<g id="s_5_" transform="translate(0,-120) scale(2.25)">
			<path class="st3" d="M33.6,67.3l0.2,0.8l0.8-0.2l-0.5,0.6l0.5,0.6l-0.8-0.2l-0.2,0.8l-0.2-0.8l-0.8,0.2l0.5-0.6l-0.5-0.6l0.8,0.2
				L33.6,67.3z"/>
		</g>
		<g transform="translate(-33.75,-45)">
			<g id="s_4_" transform="translate(0,-120) scale(2.25)">
				<path class="st3" d="M30.1,62.6l0.2,0.8l0.8-0.2l-0.5,0.6l0.5,0.6l-0.8-0.2l-0.2,0.8l-0.2-0.8L29,64.4l0.5-0.6L29,63.2l0.8,0.2
					L30.1,62.6z"/>
			</g>
		</g>
		<g transform="translate(33.75,-45)">
			<g id="s_3_" transform="translate(0,-120) scale(2.25)">
				<path class="st3" d="M37.1,62.6l0.2,0.8l0.8-0.2l-0.5,0.6l0.5,0.6l-0.8-0.2l-0.2,0.8l-0.2-0.8l-0.8,0.2l0.5-0.6l-0.5-0.6
					l0.8,0.2L37.1,62.6z"/>
			</g>
		</g>
		<path class="st1" d="M49.3,23l2.3,34.6c1,14.1,10.4,26.3,23.9,30.6C89,83.9,98.5,71.8,99.5,57.6l2.3-34.6c0.7,0.3,1.3,0.6,2,0.9
			l-2.3,33.9C100.5,73,90.1,86,75.6,90.4C61,86,50.7,73,49.6,57.8l-2.3-33.9C48,23.6,48.7,23.3,49.3,23"/>
	</g>
</g>
</svg>
