<?xml version="1.0" encoding="utf-8"?>
<!-- Generator: Adobe Illustrator 20.1.0, SVG Export Plug-In . SVG Version: 6.00 Build 0)  -->
<svg version="1.1" id="Layer_1" xmlns="http://www.w3.org/2000/svg" xmlns:xlink="http://www.w3.org/1999/xlink" x="0px" y="0px"
	 viewBox="0 0 24 24" style="enable-background:new 0 0 24 24;" xml:space="preserve">
<style type="text/css">
	.st0{fill:#002395;}
	.st1{fill:#FECB00;}
	.st2{fill:#FFFFFF;}
</style>
<g id="Bosnia__x26__Herzegovina">
	<path class="st0" d="M24,12c0-3.2-1.3-6.1-3.3-8.2v16.5C22.7,18.1,24,15.2,24,12z"/>
	<path class="st0" d="M1.3,6.6L1.7,8h1.7L2,9l0.5,1.6l-1.4-1l-1.1,0.8C0.1,10.9,0,11.4,0,12c0,6.6,5.4,12,12,12c1,0,1.9-0.1,2.8-0.4
		l-0.7-0.5h1.7l0.5-1.6l0.5,1.4c0.6-0.3,1.2-0.6,1.8-1L2,5.4C1.7,5.8,1.5,6.2,1.3,6.6z M13.3,18.5l0.5,1.6h1.7l-1.4,1l0.5,1.6
		l-1.4-1l-1.4,1l0.5-1.6l-1.4-1h1.7L13.3,18.5z M10.3,15.5l0.5,1.6h1.7l-1.4,1l0.5,1.6l-1.4-1l-1.4,1l0.5-1.6l-1.4-1h1.7L10.3,15.5z
		 M7.3,12.5L7.8,14h1.7l-1.4,1l0.5,1.6l-1.4-1l-1.4,1L6.4,15l-1.4-1h1.7L7.3,12.5z M4.2,9.4L4.7,11h1.7l-1.4,1l0.5,1.6l-1.4-1
		l-1.4,1L3.4,12L2,11h1.7L4.2,9.4z"/>
	<path class="st1" d="M12,0C7.8,0,4.1,2.1,2,5.4L18.6,22c0.8-0.5,1.5-1.1,2.1-1.8V3.8C18.5,1.4,15.4,0,12,0z"/>
	<path class="st2" d="M2.5,10.6L2,9l1.4-1H1.7L1.3,6.6c-0.6,1.1-1,2.4-1.1,3.7l1.1-0.8L2.5,10.6z"/>
	<polygon class="st2" points="3.4,12 2.9,13.6 4.2,12.6 5.6,13.6 5.1,12 6.4,11 4.7,11 4.2,9.4 3.7,11 2,11 	"/>
	<polygon class="st2" points="6.4,15 5.9,16.6 7.3,15.6 8.6,16.6 8.1,15 9.4,14 7.8,14 7.3,12.5 6.7,14 5.1,14 	"/>
	<polygon class="st2" points="9.4,18.1 8.9,19.7 10.3,18.7 11.6,19.7 11.1,18.1 12.5,17.1 10.8,17.1 10.3,15.5 9.8,17.1 8.1,17.1 	
		"/>
	<polygon class="st2" points="12.5,21.1 12,22.7 13.3,21.7 14.7,22.7 14.2,21.1 15.5,20.1 13.8,20.1 13.3,18.5 12.8,20.1 11.1,20.1 
			"/>
	<path class="st2" d="M15.8,23.1h-1.7l0.7,0.5c0.7-0.2,1.3-0.4,2-0.7l-0.5-1.4L15.8,23.1z"/>
</g>
</svg>
