<?xml version="1.0" encoding="UTF-8" standalone="no"?>
<svg width="24px" height="24px" viewBox="0 0 24 24" version="1.1" xmlns="http://www.w3.org/2000/svg" xmlns:xlink="http://www.w3.org/1999/xlink">
    <!-- Generator: Sketch 39.1 (31720) - http://www.bohemiancoding.com/sketch -->
    <title>Cyprus</title>
    <desc>Created with Sketch.</desc>
    <defs></defs>
    <g id="Page-1" stroke="none" stroke-width="1" fill="none" fill-rule="evenodd">
        <g id="Cyprus">
            <path d="M24,12 C24,18.627 18.627,24 12,24 C5.373,24 0,18.627 0,12 C0,5.373 5.373,0 12,0 C18.627,0 24,5.373 24,12" id="Fill-1" fill="#FFFFFF"></path>
            <path d="M6.7271,15.625 C6.7241,15.625 6.7211,15.625 6.7191,15.624 C6.6391,15.611 6.4981,15.55 6.3431,15.461 C6.1711,15.362 6.0311,15.256 5.9491,15.163 C5.8741,15.078 5.8301,14.944 5.8171,14.765 C5.8081,14.638 5.8191,14.533 5.8201,14.522 C5.8341,14.518 5.8491,14.515 5.8651,14.515 C5.9251,14.516 5.9891,14.543 6.0751,14.603 C6.1421,14.649 6.2161,14.712 6.2951,14.79 C6.4311,14.924 6.5381,15.059 6.5391,15.06 L6.5401,15.061 C6.5491,15.077 6.6261,15.216 6.6861,15.351 C6.7241,15.437 6.7461,15.499 6.7551,15.546 C6.7601,15.573 6.7611,15.591 6.7551,15.607 C6.7521,15.613 6.7471,15.619 6.7421,15.622 C6.7371,15.624 6.7321,15.625 6.7271,15.625 L6.7271,15.625 Z M7.0771,15.649 C7.0771,15.648 7.0251,15.585 6.9741,15.506 C6.9211,15.423 6.8721,15.336 6.8721,15.265 C6.8721,15.197 6.8561,15.053 6.8461,14.973 C6.8341,14.872 6.8221,14.785 6.8211,14.778 L6.8211,14.778 C6.8331,14.782 7.1031,14.884 7.1031,15.137 C7.1031,15.391 7.0781,15.646 7.0781,15.649 L7.0781,15.649 L7.0771,15.649 L7.0771,15.649 Z M6.6081,16.118 C6.5171,16.118 6.3771,16.112 6.2311,16.085 C6.0851,16.059 6.0021,15.935 5.9591,15.836 C5.9111,15.728 5.8981,15.625 5.8981,15.624 L5.8981,15.624 C6.3491,15.637 6.5611,15.769 6.6601,15.877 C6.7631,15.988 6.7691,16.104 6.7691,16.111 L6.7691,16.112 C6.7681,16.112 6.7051,16.118 6.6081,16.118 L6.6081,16.118 Z M6.9701,16.574 C6.8071,16.574 6.7511,16.486 6.7351,16.448 C6.7071,16.385 6.7161,16.323 6.7161,16.323 L6.7161,16.321 C6.7421,16.315 6.7701,16.311 6.7971,16.311 L6.8031,16.311 C6.9321,16.311 7.0331,16.376 7.0771,16.441 C7.0861,16.454 7.1121,16.498 7.0901,16.533 C7.0731,16.561 7.0321,16.574 6.9701,16.574 L6.9701,16.574 Z M8.2381,16.611 C8.2371,16.611 8.0951,16.554 7.9171,16.405 C7.7521,16.266 7.5191,16.017 7.3501,15.614 C7.3511,15.614 7.3891,15.593 7.4481,15.59 C7.4521,15.589 7.4551,15.589 7.4591,15.589 C7.4641,15.589 7.4691,15.59 7.4741,15.59 C7.5561,15.592 7.6811,15.626 7.8191,15.775 C7.9771,15.946 8.1191,16.227 8.2391,16.611 L8.2401,16.612 L8.2391,16.612 L8.2381,16.611 Z M7.7491,16.629 C7.7461,16.629 7.5461,16.577 7.3431,16.452 C7.1551,16.336 6.9251,16.132 6.8971,15.814 L6.8971,15.814 L6.8981,15.813 C6.8981,15.813 6.9151,15.809 6.9411,15.808 L6.9521,15.808 C7.0091,15.808 7.1231,15.824 7.2631,15.93 C7.4401,16.064 7.6031,16.3 7.7491,16.63 L7.7491,16.629 Z M8.4981,16.732 C8.4551,16.732 8.4171,16.716 8.3911,16.688 C8.3691,16.665 8.3531,16.632 8.3431,16.589 C8.3261,16.521 8.3301,16.454 8.3311,16.447 C8.3491,16.44 8.3671,16.436 8.3841,16.435 L8.3881,16.435 C8.4731,16.435 8.5401,16.509 8.5691,16.582 C8.5841,16.623 8.5871,16.657 8.5771,16.685 C8.5661,16.714 8.5361,16.732 8.4991,16.732 L8.4981,16.732 Z M7.5021,17.094 C7.3611,17.094 7.2251,17.078 7.0961,17.046 C6.8711,16.99 6.7751,16.904 6.7341,16.842 C6.7101,16.806 6.7021,16.776 6.6991,16.756 C6.6961,16.737 6.6971,16.722 6.6981,16.719 L6.6991,16.719 C6.6991,16.719 6.8481,16.677 7.0541,16.674 L7.0781,16.674 C7.1771,16.674 7.2751,16.683 7.3691,16.702 C7.7261,16.773 7.9111,17.043 7.9131,17.046 L7.9131,17.046 L7.9131,17.046 C7.9111,17.047 7.7401,17.094 7.5021,17.094 L7.5021,17.094 Z M9.7061,17.3 C9.2771,17.235 9.0331,17.051 8.9051,16.908 C8.7701,16.758 8.7301,16.618 8.7281,16.611 C8.7291,16.611 8.7811,16.597 8.8601,16.595 L8.8781,16.595 L8.8971,16.595 C9.1131,16.6 9.5051,16.698 9.7061,17.3 L9.7061,17.3 L9.7061,17.3 Z M9.1261,17.354 C8.5931,17.336 8.3161,17.184 8.1781,17.06 C8.1001,16.99 8.0561,16.921 8.0341,16.875 C8.0121,16.832 8.0041,16.799 8.0031,16.793 L8.0041,16.792 C8.0041,16.792 8.0541,16.774 8.1351,16.773 L8.1481,16.773 C8.3281,16.773 8.6941,16.848 9.1261,17.354 L9.1261,17.354 L9.1261,17.354 Z M10.0931,17.394 C10.0511,17.394 10.0131,17.378 9.9861,17.349 C9.9641,17.325 9.9481,17.293 9.9371,17.252 C9.9201,17.183 9.9251,17.115 9.9261,17.109 C9.9431,17.101 9.9621,17.097 9.9791,17.097 L9.9821,17.097 C10.0671,17.097 10.1351,17.17 10.1631,17.244 C10.1801,17.285 10.1831,17.32 10.1731,17.348 C10.1621,17.375 10.1301,17.394 10.0931,17.394 L10.0931,17.394 Z M8.1081,17.439 C8.0761,17.439 8.0451,17.425 8.0241,17.4 C8.0071,17.379 7.9951,17.352 7.9871,17.314 C7.9731,17.251 7.9771,17.19 7.9771,17.189 L7.9771,17.189 C7.9891,17.183 8.0031,17.18 8.0181,17.18 L8.0181,17.18 C8.0581,17.18 8.0881,17.201 8.1061,17.219 C8.1311,17.243 8.1511,17.275 8.1631,17.309 C8.1761,17.343 8.1781,17.373 8.1701,17.398 C8.1631,17.418 8.1401,17.439 8.1081,17.439 L8.1081,17.439 Z M8.9681,17.88 C8.7031,17.88 8.3381,17.799 8.1111,17.572 L8.1111,17.572 L8.1121,17.571 C8.1141,17.571 8.3601,17.508 8.6381,17.501 L8.6881,17.501 C8.9371,17.501 9.1271,17.549 9.2541,17.644 C9.2981,17.677 9.3221,17.708 9.3271,17.738 C9.3321,17.764 9.3191,17.791 9.2921,17.811 C9.2351,17.854 9.1331,17.877 8.9881,17.88 L8.9681,17.88 L8.9681,17.88 Z M10.1851,17.927 C9.9341,17.927 9.7431,17.883 9.6161,17.798 C9.5441,17.749 9.5081,17.695 9.4911,17.658 C9.4751,17.624 9.4721,17.595 9.4711,17.589 C9.4781,17.586 9.5811,17.541 9.7351,17.533 C9.7481,17.533 9.7611,17.532 9.7741,17.532 C9.9691,17.532 10.2641,17.596 10.5761,17.898 L10.5761,17.898 L10.5761,17.898 C10.4341,17.917 10.3021,17.927 10.1851,17.927 L10.1851,17.927 Z M11.3921,18.043 C10.8031,17.959 10.5541,17.747 10.4481,17.583 C10.3351,17.408 10.3591,17.247 10.3591,17.245 L10.3591,17.245 L10.3591,17.244 C10.3601,17.244 10.3951,17.235 10.4501,17.235 C10.6061,17.235 11.0071,17.313 11.3921,18.043 L11.3921,18.044 L11.3921,18.043 L11.3921,18.043 Z M9.6391,18.247 C9.5971,18.247 9.5591,18.23 9.5321,18.201 C9.5101,18.177 9.4941,18.146 9.4841,18.104 C9.4671,18.035 9.4711,17.967 9.4721,17.961 C9.4901,17.953 9.5081,17.949 9.5251,17.949 L9.5291,17.949 C9.6141,17.949 9.6811,18.023 9.7101,18.096 C9.7261,18.137 9.7291,18.172 9.7191,18.2 C9.7091,18.227 9.6771,18.246 9.6401,18.246 L9.6391,18.247 Z M10.6351,18.467 C10.4061,18.467 10.1791,18.404 9.9611,18.279 L9.9611,18.278 L9.9611,18.278 C9.9611,18.278 9.9891,18.224 10.0581,18.173 C10.1241,18.125 10.2431,18.067 10.4351,18.066 L10.4391,18.066 C10.6661,18.066 10.9441,18.144 11.2651,18.296 C11.2541,18.303 11.0021,18.467 10.6361,18.467 L10.6361,18.468 L10.6351,18.467 Z M12.4441,19.011 C12.4381,19.008 12.4371,19.006 12.4321,19.002 L12.4281,18.998 C12.4171,18.988 12.3991,18.97 12.3751,18.943 C12.3291,18.891 12.2691,18.816 12.2151,18.75 C12.1101,18.618 12.0231,18.505 12.0061,18.483 L11.9791,18.448 L11.7161,18.367 L11.5241,18.277 L11.6261,18.162 L11.9791,18.313 L12.2431,18.367 L12.7301,18.725 L12.7291,18.726 C12.7281,18.726 12.6581,18.785 12.5891,18.848 C12.5581,18.876 12.5191,18.912 12.4911,18.942 C12.4791,18.956 12.4681,18.97 12.4601,18.981 C12.4551,18.988 12.4531,18.994 12.4511,18.997 L12.4821,18.978 L12.5141,19.003 L12.4481,19.01 L12.4451,19.01 L12.4441,19.011 Z" id="Fill-3" fill="#4E5B31"></path>
            <path d="M17.2316,15.625 C17.2346,15.625 17.2376,15.625 17.2396,15.624 C17.3196,15.611 17.4606,15.55 17.6156,15.461 C17.7876,15.362 17.9276,15.256 18.0096,15.163 C18.0846,15.078 18.1286,14.944 18.1416,14.765 C18.1506,14.638 18.1396,14.533 18.1386,14.522 C18.1246,14.518 18.1096,14.515 18.0936,14.515 C18.0336,14.516 17.9696,14.543 17.8836,14.603 C17.8166,14.649 17.7426,14.712 17.6636,14.79 C17.5276,14.924 17.4206,15.059 17.4196,15.06 L17.4186,15.061 C17.4096,15.077 17.3326,15.216 17.2726,15.351 C17.2346,15.437 17.2126,15.499 17.2036,15.546 C17.1986,15.573 17.1976,15.591 17.2036,15.607 C17.2066,15.613 17.2116,15.619 17.2166,15.622 C17.2216,15.624 17.2266,15.625 17.2316,15.625 L17.2316,15.625 Z M16.8816,15.649 C16.8816,15.648 16.9336,15.585 16.9846,15.506 C17.0376,15.423 17.0866,15.336 17.0866,15.265 C17.0866,15.197 17.1026,15.053 17.1126,14.973 C17.1246,14.872 17.1366,14.785 17.1376,14.778 L17.1376,14.778 C17.1256,14.782 16.8556,14.884 16.8556,15.137 C16.8556,15.391 16.8806,15.646 16.8806,15.649 L16.8806,15.649 L16.8816,15.649 L16.8816,15.649 Z M17.3506,16.118 C17.4416,16.118 17.5816,16.112 17.7276,16.085 C17.8736,16.059 17.9566,15.935 17.9996,15.836 C18.0476,15.728 18.0606,15.625 18.0606,15.624 L18.0606,15.624 C17.6096,15.637 17.3976,15.769 17.2986,15.877 C17.1956,15.988 17.1896,16.104 17.1896,16.111 L17.1896,16.112 C17.1896,16.112 17.2536,16.118 17.3506,16.118 L17.3506,16.118 Z M16.9886,16.574 C17.1516,16.574 17.2076,16.486 17.2236,16.448 C17.2516,16.385 17.2426,16.323 17.2426,16.323 L17.2426,16.321 C17.2166,16.315 17.1886,16.311 17.1616,16.311 L17.1556,16.311 C17.0266,16.311 16.9256,16.376 16.8816,16.441 C16.8726,16.454 16.8466,16.498 16.8686,16.533 C16.8856,16.561 16.9266,16.574 16.9886,16.574 L16.9886,16.574 Z M15.7206,16.611 C15.7216,16.611 15.8636,16.554 16.0416,16.405 C16.2066,16.266 16.4396,16.017 16.6086,15.614 C16.6086,15.614 16.5696,15.593 16.5106,15.59 C16.5066,15.589 16.5036,15.589 16.4996,15.589 C16.4946,15.589 16.4896,15.59 16.4846,15.59 C16.4026,15.592 16.2776,15.626 16.1396,15.775 C15.9816,15.946 15.8396,16.227 15.7196,16.611 L15.7186,16.612 L15.7196,16.612 L15.7206,16.611 Z M16.2096,16.629 C16.2126,16.629 16.4126,16.577 16.6156,16.452 C16.8036,16.336 17.0336,16.132 17.0616,15.814 L17.0616,15.814 L17.0606,15.813 C17.0606,15.813 17.0436,15.809 17.0176,15.808 L17.0066,15.808 C16.9496,15.808 16.8356,15.824 16.6956,15.93 C16.5186,16.064 16.3556,16.3 16.2096,16.63 L16.2096,16.629 Z M15.4606,16.732 C15.5036,16.732 15.5416,16.716 15.5676,16.688 C15.5896,16.665 15.6056,16.632 15.6156,16.589 C15.6326,16.521 15.6286,16.454 15.6276,16.447 C15.6096,16.44 15.5916,16.436 15.5746,16.435 L15.5706,16.435 C15.4856,16.435 15.4186,16.509 15.3896,16.582 C15.3746,16.623 15.3716,16.657 15.3816,16.685 C15.3926,16.714 15.4226,16.732 15.4596,16.732 L15.4606,16.732 Z M16.4566,17.094 C16.5976,17.094 16.7336,17.078 16.8626,17.046 C17.0876,16.99 17.1836,16.904 17.2246,16.842 C17.2486,16.806 17.2566,16.776 17.2596,16.756 C17.2626,16.737 17.2616,16.722 17.2606,16.719 L17.2596,16.719 C17.2596,16.719 17.1106,16.677 16.9046,16.674 L16.8806,16.674 C16.7816,16.674 16.6836,16.683 16.5896,16.702 C16.2326,16.773 16.0476,17.043 16.0456,17.046 L16.0456,17.046 L16.0456,17.046 C16.0476,17.047 16.2186,17.094 16.4566,17.094 L16.4566,17.094 Z M14.2526,17.3 C14.6816,17.235 14.9256,17.051 15.0536,16.908 C15.1886,16.758 15.2286,16.618 15.2306,16.611 C15.2306,16.611 15.1776,16.597 15.0986,16.595 L15.0806,16.595 L15.0616,16.595 C14.8456,16.6 14.4536,16.698 14.2526,17.3 L14.2526,17.3 L14.2526,17.3 Z M14.8326,17.354 C15.3656,17.336 15.6426,17.184 15.7806,17.06 C15.8586,16.99 15.9026,16.921 15.9246,16.875 C15.9466,16.832 15.9546,16.799 15.9556,16.793 L15.9546,16.792 C15.9546,16.792 15.9046,16.774 15.8236,16.773 L15.8106,16.773 C15.6306,16.773 15.2646,16.848 14.8326,17.354 L14.8326,17.354 L14.8326,17.354 Z M13.8656,17.394 C13.9076,17.394 13.9456,17.378 13.9726,17.349 C13.9946,17.325 14.0106,17.293 14.0216,17.252 C14.0386,17.183 14.0336,17.115 14.0326,17.109 C14.0156,17.101 13.9966,17.097 13.9796,17.097 L13.9766,17.097 C13.8906,17.097 13.8236,17.17 13.7956,17.244 C13.7786,17.285 13.7756,17.32 13.7856,17.348 C13.7966,17.375 13.8286,17.394 13.8656,17.394 L13.8656,17.394 Z M15.8506,17.439 C15.8826,17.439 15.9136,17.425 15.9346,17.4 C15.9516,17.379 15.9636,17.352 15.9716,17.314 C15.9856,17.251 15.9816,17.19 15.9816,17.189 L15.9816,17.189 C15.9696,17.183 15.9556,17.18 15.9406,17.18 L15.9406,17.18 C15.9006,17.18 15.8706,17.201 15.8526,17.219 C15.8276,17.243 15.8076,17.275 15.7956,17.309 C15.7826,17.343 15.7806,17.373 15.7886,17.398 C15.7956,17.418 15.8186,17.439 15.8506,17.439 L15.8506,17.439 Z M14.9906,17.88 C15.2556,17.88 15.6206,17.799 15.8476,17.572 L15.8476,17.572 L15.8466,17.571 C15.8446,17.571 15.5986,17.508 15.3206,17.501 L15.2706,17.501 C15.0216,17.501 14.8316,17.549 14.7046,17.644 C14.6606,17.677 14.6366,17.708 14.6316,17.738 C14.6266,17.764 14.6396,17.791 14.6666,17.811 C14.7236,17.854 14.8256,17.877 14.9706,17.88 L14.9906,17.88 L14.9906,17.88 Z M13.7736,17.927 C14.0246,17.927 14.2156,17.883 14.3426,17.798 C14.4146,17.749 14.4506,17.695 14.4676,17.658 C14.4836,17.624 14.4866,17.595 14.4876,17.589 C14.4806,17.586 14.3776,17.541 14.2236,17.533 C14.2106,17.533 14.1976,17.532 14.1846,17.532 C13.9896,17.532 13.6946,17.596 13.3826,17.898 L13.3816,17.898 L13.3826,17.898 C13.5246,17.917 13.6566,17.927 13.7736,17.927 L13.7736,17.927 Z M12.5666,18.043 C13.1556,17.959 13.4046,17.747 13.5106,17.583 C13.6236,17.408 13.5996,17.247 13.5996,17.245 L13.5996,17.245 L13.5996,17.244 C13.5996,17.244 13.5636,17.235 13.5086,17.235 C13.3526,17.235 12.9516,17.313 12.5666,18.043 L12.5666,18.044 L12.5666,18.043 L12.5666,18.043 Z M14.3186,18.247 C14.3616,18.247 14.3996,18.23 14.4266,18.201 C14.4486,18.177 14.4646,18.146 14.4746,18.104 C14.4916,18.035 14.4876,17.967 14.4866,17.961 C14.4686,17.953 14.4506,17.949 14.4336,17.949 L14.4296,17.949 C14.3446,17.949 14.2776,18.023 14.2486,18.096 C14.2326,18.137 14.2296,18.172 14.2396,18.2 C14.2496,18.227 14.2816,18.246 14.3186,18.246 L14.3186,18.247 Z M13.3236,18.467 C13.5526,18.467 13.7796,18.404 13.9976,18.279 L13.9976,18.278 L13.9976,18.278 C13.9976,18.278 13.9696,18.224 13.9006,18.173 C13.8346,18.125 13.7156,18.067 13.5236,18.066 L13.5196,18.066 C13.2926,18.066 13.0146,18.144 12.6936,18.296 C12.7046,18.303 12.9566,18.467 13.3226,18.467 L13.3226,18.468 L13.3236,18.467 Z M11.5146,19.011 C11.5206,19.008 11.5216,19.006 11.5266,19.002 L11.5306,18.998 C11.5416,18.988 11.5596,18.97 11.5836,18.943 C11.6296,18.891 11.6896,18.816 11.7436,18.75 C11.8486,18.618 11.9356,18.505 11.9526,18.483 L11.9796,18.448 L12.2426,18.367 L12.4346,18.277 L12.3326,18.162 L11.9796,18.313 L11.7156,18.367 L11.2286,18.725 L11.2296,18.726 C11.2306,18.726 11.3006,18.785 11.3696,18.848 C11.4006,18.876 11.4396,18.912 11.4676,18.942 C11.4796,18.956 11.4906,18.97 11.4986,18.981 C11.5036,18.988 11.5056,18.994 11.5076,18.997 L11.4766,18.978 L11.4446,19.003 L11.5106,19.01 L11.5136,19.01 L11.5146,19.011 Z" id="Fill-5" fill="#4E5B31"></path>
            <path d="M21.3975,5.3526 L21.3175,5.3846 L21.2865,5.3966 L21.1895,5.3916 L21.0985,5.4346 L20.9385,5.5446 L20.9315,5.5496 L20.8715,5.5656 L20.8155,5.5416 L20.7835,5.5556 L20.7735,5.6206 L20.7425,5.6676 L20.7055,5.6936 L20.5775,5.7066 L20.4695,5.7626 L20.3285,5.7246 L20.2635,5.7506 L20.1245,5.8756 L20.0535,5.9096 L20.0285,5.9076 L19.9345,5.9036 L19.8945,5.9166 L19.8355,5.9736 L19.7225,5.9826 L19.6875,6.0066 L19.6325,6.1176 L19.5735,6.1786 L19.5395,6.1856 L19.5025,6.1726 L19.4745,6.1776 L19.4625,6.2476 L19.4355,6.2776 L19.3605,6.3036 L19.3005,6.3536 L19.2475,6.3806 L19.1765,6.3786 L19.1605,6.3786 L19.0895,6.4176 L18.9575,6.4296 L18.9025,6.4816 L18.8905,6.4926 L18.8645,6.5086 L18.8225,6.5336 L18.8125,6.5396 L18.7615,6.5306 L18.7025,6.5546 L18.6785,6.5176 L18.6375,6.5416 L18.5825,6.5446 L18.5155,6.5146 L18.4635,6.4916 L18.4255,6.4966 L18.4125,6.5626 L18.4115,6.5696 L18.3715,6.6226 L18.2975,6.6676 L18.2875,6.6806 L18.2035,6.7886 L18.0435,6.9576 L17.9075,7.0266 L17.7675,7.0686 L17.6695,7.1496 L17.4115,7.2776 L17.0045,7.4796 L16.9215,7.5066 L16.8025,7.5256 L16.5895,7.6036 L16.4015,7.6606 L16.3905,7.6636 L16.3535,7.6746 L16.0885,7.7546 L15.9655,7.7416 L15.8925,7.7686 L15.7025,7.7476 L15.5705,7.7496 L15.4865,7.7676 L15.3295,7.8426 L15.0645,7.9706 L14.9765,8.0506 L14.8395,8.1216 L14.6805,8.1726 L14.6805,8.1056 L14.6795,8.1026 L14.6235,8.1196 L14.5835,8.1326 L14.4545,8.1526 L14.3825,8.1526 L14.3375,8.1396 L14.3305,8.1416 L14.0655,8.2296 L13.7695,8.2576 L13.6215,8.3056 L13.5115,8.3036 L13.4415,8.3246 L13.3065,8.3406 L13.2585,8.3276 L13.2475,8.3246 L12.8485,8.3426 L12.6665,8.3216 L12.5795,8.3416 L12.4335,8.2926 L12.2215,8.2676 L12.1715,8.2526 L12.0595,8.2196 L12.0095,8.2486 L11.9715,8.2526 L11.8815,8.2196 L11.8485,8.2196 L11.7735,8.2466 L11.7305,8.2346 L11.6915,8.2036 L11.5975,8.1896 L11.5405,8.1416 L11.2215,8.1836 L11.1355,8.1586 L10.8445,8.0736 L10.7985,8.0756 L10.7415,8.1196 L10.6545,8.1506 L10.5795,8.1706 L10.4775,8.1736 L10.3595,8.1426 L10.2365,8.0836 L10.1915,8.0726 L10.0905,8.0826 L10.0595,8.0856 L9.8745,7.9866 L9.6355,7.8366 L9.4735,7.7586 L9.4135,7.7486 L9.4045,7.7776 L9.4355,7.8726 L9.4455,7.9676 L9.4425,8.0536 L9.4405,8.1076 L9.4555,8.1566 L9.5145,8.2206 L9.5385,8.2866 L9.5565,8.4656 L9.5565,8.6476 L9.5275,8.9376 L9.5185,8.9816 L9.4845,9.1316 L9.4535,9.2696 L9.3325,9.6366 L9.2995,9.6826 L9.2185,9.7376 L9.0355,9.8626 L8.8995,9.9406 L8.8565,9.9586 L8.7475,9.9666 L8.6785,9.9636 L8.5935,9.9166 L8.5095,9.8956 L8.4005,9.8166 L8.2785,9.7916 L8.1445,9.7146 L8.1095,9.6726 L8.0375,9.6656 L7.9365,9.6356 L7.9365,9.6356 L7.8995,9.6236 L7.8735,9.6166 L7.8735,9.6166 L7.7445,9.6126 L7.6245,9.5576 L7.5615,9.5426 L7.4755,9.5376 L7.3845,9.5796 L7.3845,9.5796 L7.3395,9.6016 L7.2815,9.5786 L7.2395,9.5806 L7.1915,9.6526 L7.1845,9.6636 L7.1525,9.6806 L7.1115,9.6806 L7.0795,9.6796 L7.0455,9.6946 L6.9985,9.7146 L6.9985,9.7146 L6.9575,9.7326 L6.9375,9.7416 L6.9375,9.7406 L6.9255,9.7436 L6.9035,9.7476 L6.8765,9.7526 L6.8285,9.7246 L6.8025,9.7096 L6.7605,9.7006 L6.7375,9.7176 L6.7325,9.7956 L6.7115,9.8426 L6.6455,9.9006 L6.5775,9.9606 L6.5305,10.0296 L6.4055,10.3146 L6.3275,10.4296 L6.3035,10.4556 L6.2215,10.5456 L6.1495,10.6026 L5.9825,10.7316 L5.8245,10.7906 L5.6885,10.8186 L5.6225,10.8186 L5.4975,10.8016 L5.3845,10.7676 L5.2605,10.6896 L5.1245,10.5806 L4.9285,10.3866 L4.9005,10.3706 L4.8945,10.3666 L4.8325,10.3266 L4.7865,10.3276 L4.7695,10.3576 L4.7595,10.4006 L4.7505,10.4386 L4.7285,10.6546 L4.7305,10.6666 L4.7415,10.7556 L4.8915,10.9646 L4.9375,11.0746 L4.9445,11.0876 L4.9755,11.1396 L4.9985,11.1786 L5.0015,11.1826 L5.0525,11.3346 L5.0165,11.4206 L5.0345,11.4786 L4.9895,11.5136 L4.9805,11.5636 L5.1145,11.7316 L5.1445,11.8056 L5.1115,11.9076 L5.0595,11.9646 L5.0445,11.9806 L5.0525,12.0236 L5.1135,12.0786 L5.2185,12.1726 L5.2745,12.3106 L5.3165,12.3476 L5.3665,12.3376 L5.3935,12.3586 L5.4355,12.3576 L5.4765,12.3986 L5.5025,12.4116 L5.5445,12.4326 L5.5775,12.4756 L5.5855,12.6086 L5.6465,12.7726 L5.6475,12.8626 L5.6485,12.8746 L5.6865,12.9406 L5.6985,12.9936 L5.6785,13.1316 L5.7275,13.1756 L5.7805,13.1646 L5.8145,13.1696 L5.8695,13.2156 L5.9365,13.3176 L6.0015,13.3086 L6.0435,13.3286 L6.2435,13.5086 L6.2885,13.5316 L6.2915,13.5336 L6.3245,13.5496 L6.3645,13.5906 L6.4275,13.5486 L6.4345,13.5486 L6.5035,13.5426 L6.5335,13.5626 L6.5905,13.6016 L6.6665,13.6006 L6.8305,13.6506 L6.9025,13.6696 L7.0475,13.7586 L7.1085,13.7966 L7.1455,13.8266 L7.1935,13.8656 L7.2895,13.9076 L7.3725,13.9276 L7.4175,13.9376 L7.4515,13.9506 L7.4515,13.9486 L7.4525,13.9486 L7.4515,13.9506 L7.6305,14.0196 L7.7275,14.0426 L7.8175,14.0756 L7.8825,14.0996 L7.9305,14.0996 L7.9985,14.0426 L8.0645,14.0396 L8.1185,14.0526 L8.1725,14.0436 L8.2565,13.9916 L8.2725,13.9676 L8.3325,13.9386 L8.5345,13.9136 L8.5935,13.9336 L8.7445,13.8676 L8.8455,13.8956 L8.9355,13.8636 L9.1315,13.9076 L9.1835,13.9436 L9.2415,14.0106 L9.2485,14.0106 L9.3135,14.0126 L9.2865,14.0576 L9.3725,14.1466 L9.4495,14.2636 L9.4545,14.2796 L9.5105,14.4446 L9.5525,14.5026 L9.5815,14.5846 L9.5835,14.6376 L9.5375,14.6716 L9.5305,14.6916 L9.5275,14.6986 L9.5365,14.7216 L9.5545,14.7116 L9.5865,14.6936 L9.6265,14.6876 L9.6965,14.6956 L9.7425,14.6996 L9.8155,14.6636 L9.8645,14.6396 L9.9415,14.6736 L10.0275,14.6726 L10.0635,14.6886 L10.1645,14.7346 L10.2165,14.7396 L10.2355,14.7266 L10.2475,14.6976 L10.2415,14.6636 L10.2025,14.6186 L10.1165,14.5196 L10.0815,14.4676 L10.0555,14.3936 L10.0465,14.2996 L10.0405,14.2356 L10.0515,14.1516 L10.0745,14.1216 L10.0915,14.0546 L10.0915,14.0546 L10.0965,14.0366 L10.1435,13.9736 L10.2705,13.8926 L10.4055,13.7716 L10.5135,13.7006 L10.6235,13.6526 L10.6265,13.6396 L10.6385,13.6446 L10.9205,13.5486 L10.9245,13.5476 L11.0495,13.5266 L11.8945,13.5856 L11.9265,13.5766 L11.9265,13.5756 L11.9545,13.4966 L11.9695,13.4826 L11.9795,13.4726 L12.0725,13.4316 L12.1165,13.4256 L12.2365,13.4556 L12.2865,13.4676 L12.3655,13.4236 L12.4215,13.4246 L12.5375,13.3606 L12.6085,13.3626 L12.6355,13.3516 L12.7755,13.2516 L12.9095,13.2136 L12.9445,13.1946 L12.9565,13.1876 L13.0945,13.1156 L13.1825,13.0476 L13.2575,13.0076 L13.3405,12.9866 L13.5565,12.9716 L13.5995,12.8986 L13.6935,12.8866 L13.7495,12.8226 L13.8135,12.7966 L13.8595,12.7306 L13.8985,12.6746 L13.9525,12.6436 L14.1255,12.6326 L14.3305,12.6586 L14.3575,12.6416 L14.4035,12.4766 L14.4525,12.4456 L14.5825,12.2556 L14.5835,12.1856 L14.5835,12.1276 L14.6045,12.0456 L14.5905,11.8966 L14.6075,11.7456 L14.6885,11.5546 L14.7605,11.4766 L14.8755,11.3986 L14.9345,11.3736 L15.0175,11.3596 L15.0175,11.3596 L15.0295,11.3566 L15.0505,11.3536 L15.3365,11.3496 C15.3405,11.3466 15.4405,11.3476 15.4405,11.3476 L15.5355,11.3466 L15.7765,11.3896 L15.7945,11.3926 L15.8755,11.4186 L15.9695,11.4926 L16.0695,11.5896 L16.0875,11.6076 L16.1525,11.6346 L16.1715,11.6436 L16.2255,11.6346 L16.3015,11.5956 L16.3585,11.5466 L16.4365,11.5046 L16.4385,11.5016 L16.4825,11.4356 L16.4835,11.4346 L16.4845,11.4346 L16.4845,11.4336 L16.4835,11.4336 L16.5015,11.4076 L16.6515,11.3486 L16.8295,11.3386 L16.8495,11.3276 L16.8605,11.3216 L16.9075,11.2666 L16.9515,11.2666 L17.0575,11.3046 L17.1325,11.2896 L17.1915,11.3136 L17.2375,11.3086 L17.3245,11.2976 L17.4175,11.3636 L17.4725,11.3706 L17.6645,11.4826 L17.6745,11.4846 L17.6795,11.4856 L17.6905,11.4876 L17.7135,11.4806 L17.7465,11.4706 L17.7515,11.4696 L17.7555,11.4756 L17.7775,11.5056 L17.8075,11.5106 L17.8425,11.4626 L17.8285,11.4416 L17.8235,11.4336 L17.7545,11.4196 L17.6935,11.3146 L17.7515,11.2516 L17.6605,11.1386 L17.6445,11.1196 L17.6395,11.1126 L17.6075,11.0636 L17.4465,10.8186 L17.2375,10.6516 L17.2375,10.6516 L17.1635,10.5926 L17.1635,10.5926 L17.1375,10.5716 L17.0255,10.4586 L16.9455,10.3516 L16.9355,10.3296 L16.9185,10.2936 L16.8705,10.1886 L16.7875,10.1246 L16.7195,10.0506 L16.7155,10.0456 L16.5755,9.8546 L16.5525,9.8236 L16.5195,9.8036 L16.4495,9.8036 L16.4425,9.7966 L16.4385,9.7926 L16.4415,9.7906 L16.4745,9.7566 L16.5125,9.7476 L16.5285,9.7106 L16.4565,9.5036 L16.4565,9.4966 L16.4505,9.4306 L16.5095,9.1296 L16.5165,9.0936 L16.6165,8.8916 L16.6775,8.8406 L16.7445,8.7086 L16.8025,8.6246 L16.8575,8.5706 L16.8665,8.5656 L16.9665,8.5046 L17.0495,8.4936 L17.1295,8.4816 L17.2685,8.5246 L17.4005,8.5226 L17.4265,8.5196 L17.4865,8.5126 L17.5855,8.4816 L17.6325,8.4526 L17.6565,8.4156 L17.7065,8.2466 L17.7225,8.1926 L17.7535,8.1346 L17.9335,7.9276 L18.0695,7.8016 L18.3755,7.5776 L18.5255,7.4876 L18.6015,7.4416 L19.2845,7.1386 L19.4615,6.9586 L19.5545,6.8656 L19.7175,6.7556 L19.9085,6.6776 L20.0735,6.5466 L20.1095,6.5016 L20.1545,6.3556 L20.1925,6.3466 L20.2265,6.2726 L20.2365,6.2516 L20.3705,6.1576 L20.3855,6.1496 L20.9075,5.8886 L20.9835,5.8986 L21.0235,5.8376 L21.1755,5.8126 L21.2035,5.8076 L21.2415,5.7886 L21.2725,5.7346 L21.2725,5.7246 L21.2775,5.5796 L21.3095,5.5396 L21.3275,5.4446 L21.3445,5.4226 L21.3615,5.3996 L21.4045,5.3696 L21.3965,5.3516 L21.3975,5.3526 Z" id="Fill-7" fill="#D57800"></path>
        </g>
    </g>
</svg>