<?xml version="1.0" encoding="utf-8"?>
<!-- Generator: Adobe Illustrator 19.2.1, SVG Export Plug-In . SVG Version: 6.00 Build 0)  -->
<svg version="1.1" id="Layer_1" xmlns="http://www.w3.org/2000/svg" xmlns:xlink="http://www.w3.org/1999/xlink" x="0px" y="0px"
	 viewBox="0 0 24 24" style="enable-background:new 0 0 24 24;" xml:space="preserve">
<style type="text/css">
	.st0{fill:#00AB39;}
	.st1{fill:#FFFFFF;}
	.st2{enable-background:new    ;}
	.st3{clip-path:url(#SVGID_2_);}
	.st4{clip-path:url(#SVGID_4_);}
	.st5{clip-path:url(#SVGID_6_);}
	.st6{clip-path:url(#SVGID_8_);fill:#D21034;}
</style>
<g id="Wales">
	<g>
		<path class="st0" d="M12,24c6.6,0,12-5.4,12-12H0C0,18.6,5.4,24,12,24z"/>
		<path class="st1" d="M12,0C5.4,0,0,5.4,0,12h24C24,5.4,18.6,0,12,0z"/>
	</g>
	<g class="st2">
		<g>
			<g>
				<defs>
					<path id="SVGID_1_" d="M18.1,5c-0.1,0-0.1,0-0.2,0c-0.2,0.1-0.4,0.2-0.7,0.5c-0.7,0.6-1.6,0.6-2.6,0.7c-2.1,0-3.1,0.6-3.5,1.2
						c-0.5,0.7-0.4,1.5-0.5,2c0,0.4-0.1,0.7-0.4,1.1c0.1-0.2,0.1-0.3,0.1-0.4c0-0.1-0.1-0.2-0.2-0.2C10.1,9.8,10,9.8,9.9,9.7
						c0-0.1-0.1-0.1-0.1-0.2c0.1-0.1,0.2-0.1,0.3,0c0.1,0.1,0.2,0.2,0.1,0.4c0,0,0,0,0,0c0,0,0,0,0,0c0,0,0,0,0,0l0,0c0,0,0,0,0,0
						c0.2-0.2,0.3-0.4,0.3-0.5c0-0.2,0-0.3-0.1-0.4c-0.1-0.1-0.2-0.2-0.3-0.3c-0.1-0.1-0.1-0.2-0.1-0.3c0,0,0.1-0.1,0.1-0.1
						c0.1,0,0.1,0,0.2,0c0,0,0.1,0.1,0.1,0.2c0,0.1,0,0.2,0,0.2c0,0,0,0,0,0c0,0,0,0,0,0c0,0,0,0,0,0c0,0,0,0,0,0c0,0,0,0,0,0
						c0.1-0.2,0.2-0.4,0.2-0.5c0-0.2,0-0.3-0.1-0.4c-0.1-0.1-0.2-0.2-0.3-0.3c-0.1-0.1-0.2-0.1-0.2-0.2c0,0,0,0,0-0.1
						c0.1,0,0.1-0.1,0.2-0.1c0.1,0,0.2,0.1,0.2,0.2c0,0,0,0,0,0c0,0,0,0,0,0c0,0,0,0,0,0v0c0-0.3,0-0.5-0.1-0.7
						c-0.1-0.2-0.2-0.3-0.4-0.3c0,0,0,0,0,0c0.1-0.1,0.1-0.2,0.2-0.3c0.2-0.2,0.3-0.5,0.3-0.8c0,0,0,0,0,0c0,0,0,0,0,0c0,0,0,0,0,0
						c0,0,0,0,0,0c0,0,0,0,0,0c-0.1,0.2-0.4,0.2-0.7,0.3c0-0.1,0.1-0.1,0.1-0.2C10,5.4,10,5.3,10,5.2v0c0,0,0,0,0,0c0,0,0,0,0,0
						c0,0,0,0,0,0c0,0,0,0,0,0c0,0,0,0,0,0C9.8,5.3,9.5,5.4,9.2,5.5c-0.1,0-0.3,0.1-0.4,0.1c0,0-0.1,0-0.1,0c0,0,0,0,0,0
						c-0.2,0-0.4-0.1-0.5-0.1c-0.3,0-0.5,0-0.7,0.1c-0.1,0-0.1,0.1-0.2,0.1c0,0-0.1,0.1,0,0.2c0,0.1,0.1,0.1,0.1,0.2
						C6.9,6,6.6,5.9,6.3,5.9c-0.1,0-0.2,0-0.3,0C5.8,6,5.6,6,5.5,6.1C5.4,6.2,5.3,6.2,5.3,6.2c0,0,0,0,0,0c0,0,0,0,0,0c0,0,0,0,0,0
						c0,0,0,0,0,0c0,0,0,0,0,0v0c0,0,0,0,0,0c0,0,0,0,0,0c0,0,0,0,0,0c0.1,0,0.1-0.1,0.2-0.1c0,0,0,0,0,0c0.1,0,0.1,0,0.2,0
						c0.1,0,0.1,0,0.1,0.1c0,0,0.1,0,0.1,0.1c0,0,0,0,0,0c0,0,0.1,0,0.1,0.1C5.9,6.6,5.8,6.8,5.9,7.1c0,0,0,0,0,0
						c-0.1,0-0.2,0-0.3,0C5.3,7.1,5.1,7.1,4.9,7C5,7,5,7,5,7C5.2,7,5.3,7,5.4,7c0,0,0,0,0,0c0,0,0,0,0,0c0,0,0,0,0,0c0,0,0,0,0,0
						C5.3,6.8,4.6,6.5,4,5.8c0,0,0,0,0,0c0,0,0,0,0,0c0,0,0,0,0,0c0,0,0,0,0,0c0,0,0,0,0,0C4,6.2,4.1,7,4.8,7.7c0,0,0,0,0,0
						c0,0,0,0,0,0c0-0.1,0-0.1,0-0.2c0,0,0,0,0,0c0-0.1,0-0.2,0-0.3C5,7.4,5.2,7.4,5.4,7.5c0.3,0,0.5,0,0.6,0c0,0,0,0,0,0
						C6.1,7.6,6,7.8,6,7.9C5.9,8,5.8,8.1,5.8,8.1C5.7,8.2,5.6,8.2,5.6,8.2h0c0,0,0,0,0,0c0,0,0,0,0,0c0,0,0,0,0,0c0.3,0,0.5,0,0.8,0
						h0c0,0,0,0,0,0c0,0,0,0,0,0c0,0-0.1,0.1-0.1,0.1c0,0,0,0,0,0c0,0,0,0,0,0c0,0,0,0,0,0c0,0,0,0,0,0c0,0,0,0,0,0c0,0,0,0,0,0
						c0.2,0,0.4-0.1,0.5-0.2c0,0,0,0,0,0.1c0,0,0,0,0,0c0,0,0,0,0,0c0,0,0,0-0.1,0.1c0,0,0,0,0,0c0,0,0,0,0,0c0,0,0,0,0,0
						c0,0,0,0,0,0h0c0,0,0,0,0,0c0.2,0,0.5-0.2,0.7-0.4c0.1,0,0.2,0.1,0.2,0.1c0,0,0,0.1,0.1,0.1c0,0,0,0,0,0c0,0,0,0,0,0
						c0,0,0,0,0,0C7.7,8.6,7.7,8.7,7.7,8.7c0,0,0,0.1,0,0.1C7.6,8.9,7.5,9,7.5,9.1c0,0,0,0.1,0,0.1c0,0,0,0,0,0c0,0,0,0,0,0h0
						C7.4,9.3,7.2,9.4,7.2,9.5c0,0.1,0,0.1,0,0.1c0,0,0,0,0,0.1C7,9.7,6.9,9.9,6.8,10c0,0.1-0.1,0.1-0.1,0.2c0,0,0,0.1,0,0.1
						c0,0,0,0,0,0c0,0,0,0,0,0c-0.1,0.1-0.2,0.2-0.3,0.4c0,0.1,0,0.1,0,0.2c0,0,0,0,0,0c0,0,0,0,0,0c0,0-0.1,0.1-0.1,0.1l0,0
						c-0.1,0.1-0.1,0.3-0.1,0.4c0,0.1,0,0.1,0,0.2c0,0,0,0,0,0c0,0,0,0,0,0l0,0c-0.1,0.1-0.1,0.3-0.1,0.4c0,0.1,0,0.1,0,0.2
						c0,0,0,0,0.1,0.1c0,0,0,0,0,0c0,0,0,0,0,0c0,0,0,0,0,0c0,0,0,0,0,0.1c0,0,0,0,0,0c0,0.1-0.1,0-0.1,0C6,12,5.8,11.7,5.6,10.7
						c0-0.2-0.4-0.5-0.5-1.2C5.1,9.4,5.3,9,5,8.9c0,0,0,0,0,0C4.7,8.5,4.3,8.7,4.2,8.8c0,0,0,0,0,0c0,0,0,0,0,0c0.1,0,0.2,0,0.2,0.2
						c-0.1,0.2,0,0.4,0,0.4C4.4,9.1,4,9.1,4,9.1c0,0,0,0,0,0L3.8,9C3.2,9,3.4,9.5,3.4,9.6c0,0,0,0,0,0c0,0,0,0,0,0
						c0-0.2,0.1-0.2,0.2-0.1C3.8,9.8,4,9.8,4,9.8v0h0c0.3,0.1,0.3,0.2,0.3,0.3c-0.1,0-0.2,0-0.3,0C3.9,10,3.8,10,3.7,10
						c0,0-0.2,0-0.3,0.1l0,0c-0.4,0.1-0.2,0.5-0.1,0.6c0,0,0,0,0,0c0,0,0,0,0,0c-0.1-0.1,0-0.2,0.1-0.2c0.1,0.2,0.3,0.2,0.7,0
						c0,0,0.1,0.1,0.3,0.1c0,0.2,0.2,0.4,0.3,0.6c0,0.2-0.1,0.3-0.1,0.4c0,0,0,0,0,0c-0.1,0.1-0.3,0.4-0.2,0.6c0,0.1-0.2,0.2-0.2,0
						c0,0,0,0,0,0c0,0,0,0,0,0c-0.1,0.2,0.2,0.6,0.6,0.4l0.1-0.1c0.1,0,0.3-0.2,0.3-0.3c0.2,1.2,0.6,2.4,0.8,2.8
						c-0.1,0.4-0.6,0.4-0.7,0.3c0,0,0,0,0,0c0,0,0,0,0,0c0,0,0,0,0,0c0.3,0.3,0.4,0.3,0.6,0.3c0.5,0,0.7-0.3,0.8-0.5
						C7,15,7.4,14.7,7.5,14.7c0,0,0,0.1,0.1,0.1c0.1,0.1,0.2,0.1,0.3,0.1c0,0,0.1,0,0.1,0C8,15,8,15,8.1,15.1c0,0.2,0,0.5-0.2,0.9
						c-0.1,0.4-0.3,0.9-0.8,1.4c-0.2,0.1-0.3,0-0.4-0.1c-0.1-0.1-0.3-0.3-0.3-0.4c0-0.1-0.1-0.2-0.2-0.3c-0.1-0.1-0.2-0.1-0.3-0.1
						c0,0,0,0,0,0c0,0-0.1,0-0.1,0c-0.3-0.2-0.5,0.1-0.5,0.4c0,0,0,0,0,0c0,0,0,0,0,0c0-0.1,0.1-0.1,0.2,0c0,0.1,0,0.2,0.1,0.3
						c-0.1,0-0.2,0-0.3,0.2C5,17.4,5.1,17.9,5.2,18c0,0,0,0,0,0c0,0,0,0,0,0c-0.1-0.2,0.1-0.3,0.2-0.2c0,0.1,0.1,0.2,0.2,0.2
						c0,0,0,0.1,0,0.2c-0.5,0.3,0,0.7,0.1,0.7c0,0,0,0,0,0c0,0,0,0,0,0c-0.1-0.1-0.1-0.2,0-0.2c0.1,0,0.2,0.1,0.2,0.1
						c0.2,0,0.2-0.1,0.4-0.3c0.1-0.1,0.2-0.1,0.3,0c0,0,0,0.1,0.1,0.1c0.1,0,0.2,0,0.3,0c0.4,0,0.6-0.1,0.8-0.2
						c0.2-0.1,0.3-0.1,0.5-0.1c0.1,0,0.2,0,0.4,0.1c0.1,0,0.2,0.1,0.3,0.1c0.1,0,0.1-0.1,0.2-0.1c0.1,0,0.2,0,0.1,0.2c0,0,0,0,0,0
						c0,0,0,0,0,0c0.2-0.1,0.6-0.5,0-0.8c-0.1-0.1-0.2-0.2-0.3-0.2c-0.1,0-0.2,0-0.3,0.1c-0.1,0-0.2,0-0.2,0c-0.1,0-0.1-0.1-0.1-0.2
						c0-0.1,0.3-0.6,0.4-0.8c0.3-0.3,0.6-0.7,0.9-1c0.7,0,0.4,0.4,0.3,0.5c0,0,0,0,0,0c0,0,0,0,0,0c0,0,0,0,0,0
						c0.3-0.1,0.5-0.3,0.6-0.4c0,0,0.2-0.3,0-0.6c0,0,0,0,0-0.1c0.1,0,0.2-0.2,0.2-0.2c0.1,0,0.6,0,0.6-0.3c0.2,0,0.6-0.1,0.6-0.4
						c0,0,0.1,0,0.1,0c0,0.2,0.3,0.4,0.4,0.4c0,0.3,0.5,0.5,0.6,0.4c0,0.1,0.3,0.2,0.4,0.2C13.4,16,13,16.7,12.4,17
						c-0.2,0-0.4-0.1-0.5-0.2c-0.1-0.1-0.2-0.1-0.2-0.2c-0.1-0.1-0.1-0.1-0.1-0.2c-0.1-0.1-0.2-0.1-0.2-0.1c0,0-0.1,0-0.1,0.1
						c-0.6-0.1-0.5,0.3-0.5,0.5c0,0,0,0,0,0c0,0,0,0,0,0c0-0.2,0.1-0.2,0.2-0.1c0,0,0,0,0,0c0,0.1,0,0.1,0,0.1c-0.1,0-0.1,0-0.2,0.1
						c-0.5-0.1-0.5,0.5-0.3,0.6c0,0,0,0,0,0c0,0,0,0,0,0c-0.1-0.1,0.1-0.3,0.2-0.1v0c0,0,0,0,0,0c0,0.1,0.1,0.2,0.2,0.2
						c0,0,0,0-0.1,0.1c-0.5,0.2-0.2,0.7-0.1,0.7c0,0,0,0,0,0c0,0,0,0,0,0c0-0.1,0-0.2,0.2-0.2c0,0.1,0.1,0.1,0.2,0.1
						c0.2,0,0.4-0.2,0.6-0.3c0.1-0.1,0.4,0,0.4,0c0,0,0.1,0.1,0.2,0c0.5,0,0.6-0.3,1.2-0.3c0.2,0,0.8,0.3,1,0c0.1,0,0.1,0,0,0.1
						c0,0,0,0,0,0c0,0,0,0,0,0c0.2,0,0.6-0.5,0-0.7c0,0,0,0,0,0c0,0-0.1-0.1-0.3-0.1c-0.2,0-0.3,0.1-0.4,0.1c-0.1,0-0.1-0.1-0.1-0.1
						c0.2-0.4,0.9-1.1,1.3-1.4c0,0,0.1,0,0.1-0.1c0.4-0.1,0.4,0.2,0.1,0.3c0,0,0,0,0,0.1c0,0,0,0,0,0c0.8-0.2,0.7-0.7,0.7-0.7
						c0-0.5-0.5-0.7-0.6-0.7c-0.1-0.2-0.2-0.3-0.2-0.4c0-0.1,0.1-0.2,0.1-0.1c0.1,0.1,0.3,0.2,0.3,0.1c-0.1,0.1,0.6,0.5,0.6,0.3
						c0.1,0.3,0.5,0.3,0.6,0.2c0.1,0.3,0.6,0.2,0.6,0.1c0,0.1,0.4,0.2,0.6,0.1l0,0c0.2,0.2,0.3,0.5,0.4,0.9c0.1,0.5,0.1,0.8-0.1,1.2
						c0,0,0,0-0.1,0c-0.1,0-0.2-0.1-0.3-0.1c-0.1-0.1-0.2-0.1-0.2-0.2c-0.1-0.1-0.1-0.2-0.2-0.3c-0.1-0.1-0.2-0.1-0.3-0.1h0
						c0,0-0.1,0-0.1,0c-0.4-0.1-0.6,0.3-0.6,0.5c0,0,0,0,0,0c0,0,0,0,0,0c0-0.1,0.2-0.2,0.3-0.1c0,0,0,0.1,0,0.1
						c-0.1,0-0.2,0-0.3,0.2c-0.5,0-0.3,0.5-0.2,0.7c0,0,0,0,0,0c0,0,0,0,0,0c0-0.1,0.1-0.3,0.2-0.2c0,0.1,0.1,0.1,0.2,0.1
						c-0.6,0.3-0.2,0.7,0,0.7c0,0,0,0,0,0c0,0,0,0,0,0c-0.1-0.1,0-0.3,0.1-0.2c0,0.1,0.2,0.2,0.3,0.2c0.2,0,0.3-0.1,0.5-0.2
						c0.1-0.1,0.5-0.1,0.5-0.1c0.2,0.2,0.6,0.2,0.9,0.1c0.3-0.1,0.4-0.2,0.6-0.2c0.3,0,0.5,0.3,0.7,0.1c0.2-0.1,0.2,0.1,0.1,0.2
						c0,0,0,0,0,0c0,0,0,0,0,0c0.2-0.1,0.6-0.4,0-0.7c0-0.1-0.2-0.3-0.4-0.3c-0.3,0-0.6,0.4-0.8-0.4c0-0.2-0.1-1.5-0.1-1.6
						c0,0,0.1-0.1,0.2-0.1c0.1,0,0.1,0,0.2,0.1c0.1,0.1,0.1,0.2,0,0.4c0,0,0,0,0,0c0,0,0,0,0,0c0,0,0,0,0,0c0,0,0,0,0,0c0,0,0,0,0,0
						c0,0,0,0,0,0c0,0,0,0,0,0c0.3-0.3,0.4-0.7,0.3-1c-0.1-0.3-0.3-0.4-0.5-0.4c-0.2,0-0.5-0.2-0.8-0.4c-0.2-0.2-0.4-0.5-0.5-0.7
						c0,0,0-0.1-0.1-0.1c1.5-0.5,1.9-1.7,1.9-2.5c0-0.5-0.2-0.9-0.5-1.3c0-0.1,0-0.3,0.1-0.4C20,8.9,20,8.8,20,8.8c0,0,0,0,0,0
						c0,0,0,0.1,0,0.1c0,0.1,0.1,0.1,0.1,0.2c0.1,0.2,0.2,0.3,0.2,0.4c0,0,0,0,0,0c0,0,0,0,0,0c0.1-0.7,0.3-1.8,1.1-2.8c0,0,0,0,0,0
						c0,0,0,0,0,0c0,0,0,0,0,0c0,0,0,0,0,0c0,0,0,0,0,0c0,0,0,0,0,0c0,0,0,0,0,0c-0.2,0.1-0.4,0.2-0.5,0.3c-1.3,0.7-1.6,1.2-2.3,1.8
						c0,0,0,0,0,0c0,0,0,0,0,0c0.4,0,0.7-0.1,1-0.2c-0.1,0.1-0.2,0.3-0.2,0.4c0,0.1-0.1,0.1-0.1,0.2c0,0,0,0,0,0c0,0,0,0,0,0
						c-0.2-0.1-0.4-0.1-0.6-0.1c-0.7,0-1.3,0.5-1.3,1.1c0,0.6,0.5,1.1,1,1.1c0.2,0,0.4-0.1,0.6-0.2c0.1-0.1,0.3-0.2,0.4-0.5
						c0,0,0,0,0,0.1c0,0.3-0.1,0.6-0.3,0.7c-0.2,0.2-0.5,0.2-0.9,0.2c-0.3,0-0.7-0.2-1.2-0.4c-0.5-0.2-1.1-0.4-2-0.4
						c-0.3,0-0.5,0-0.7,0.1c0,0,0,0,0,0c0.1-0.1,0.2-0.3,0.4-0.3c0.4-0.2,0.9-0.3,1.3-0.1c0,0,0.1,0.1,0.1,0.1c0,0,0.1,0,0.1,0
						c0,0.1,0,0.1,0,0.1c0,0,0,0,0,0c0,0,0,0,0,0c0,0,0,0,0,0c0,0,0,0,0,0c0,0,0,0,0,0c0,0,0,0,0,0c0,0,0,0,0,0c0,0,0.1,0.1,0.1,0
						c0,0,0.1,0,0.1-0.1c0,0,0.1-0.1,0.1-0.1c0,0,0,0,0,0c0,0,0.1-0.1,0.1-0.2c0-0.1-0.1-0.1-0.2-0.2c0,0,0,0,0,0c0,0,0,0,0-0.1
						c0,0,0-0.1-0.1-0.2c0-0.1,0-0.3,0-0.5c0.1-0.3,0.3-0.7,1-0.7c0,0,0,0,0,0c0.1,0,0.2,0,0.3,0c0,0,0,0,0,0c0,0,0,0,0,0
						c0,0,0,0,0,0.1c0,0,0,0,0,0.1c0,0,0,0,0,0c0,0,0,0,0,0c0,0,0,0,0,0v0v0h0v0c0,0,0,0,0,0c0,0,0,0,0,0c0,0,0.1,0,0.1,0
						c0,0,0.1-0.1,0.1-0.1c0-0.1,0-0.1,0-0.2c0,0,0-0.1-0.1-0.1c-0.5-0.5-0.5-1.2-0.3-1.8c0.1-0.3,0.3-0.5,0.4-0.7
						c0.2-0.2,0.3-0.3,0.4-0.4c0,0,0,0,0,0c0,0,0.1,0,0.1,0c0,0,0.1,0,0.1-0.1c0,0,0,0,0,0c0,0,0,0,0,0l0,0c0,0,0,0,0,0
						c0,0,0,0,0.1,0c0,0,0,0,0,0c0,0,0,0,0,0c0,0,0,0,0,0.1c0,0,0,0,0,0v0v0c0,0,0,0,0,0c0,0,0,0,0,0v0h0c0,0,0,0,0,0c0,0,0,0,0,0
						c0,0,0,0,0,0c0,0,0,0,0,0c0,0,0,0,0,0c0,0,0,0,0,0c0,0,0,0,0,0c0,0,0,0,0,0c0,0,0,0,0,0c0,0,0,0,0,0c0,0,0,0,0,0
						c0,0,0.1,0,0.1-0.1c0,0,0.1-0.1,0.1-0.2c0-0.1,0-0.1,0-0.2c0,0-0.1,0-0.2,0c0,0,0-0.1-0.1-0.1c0,0-0.1,0-0.1,0l0,0
						C18.3,5,18.2,5,18.1,5 M6.6,7.4c0.2,0,0.3,0,0.5,0.1c0,0-0.1,0-0.1,0.1c-0.1,0-0.2,0-0.3,0c-0.1,0-0.2-0.1-0.3-0.1c0,0,0,0,0,0
						C6.4,7.4,6.5,7.4,6.6,7.4 M18.7,9.7c0.1,0,0.1,0,0.2,0c0,0,0.1,0,0.1,0.1c0,0,0,0,0,0c-0.1,0.3-0.2,0.4-0.4,0.4
						c-0.1,0-0.2-0.1-0.2-0.2c0-0.2,0.1-0.2,0.1-0.3C18.6,9.7,18.6,9.7,18.7,9.7 M10,10.5C10.1,10.5,10.1,10.5,10,10.5
						c0.1,0,0.1,0.1,0.1,0.1c0,0,0,0,0,0c0,0,0,0,0,0c0,0,0,0,0,0c0,0.1-0.1,0.1-0.1,0.2c-0.1,0-0.1-0.1-0.2-0.2
						C9.9,10.5,10,10.5,10,10.5"/>
				</defs>
				<clipPath id="SVGID_2_">
					<use xlink:href="#SVGID_1_"  style="overflow:visible;"/>
				</clipPath>
				<g class="st3">
					<defs>
						<rect id="SVGID_3_" x="0.3" y="-0.1" width="24.1" height="24.1"/>
					</defs>
					<clipPath id="SVGID_4_">
						<use xlink:href="#SVGID_3_"  style="overflow:visible;"/>
					</clipPath>
					<rect x="-1.9" y="0" class="st4" width="28.6" height="24"/>
				</g>
			</g>
			<g>
				<defs>
					<path id="SVGID_5_" d="M18.2,5.1c-0.3,0.3-0.6,0.5-1,0.7c-0.7,0.4-1.5,0.5-2.5,0.6c-2,0.1-3,0.5-3.4,1.1
						C10.9,8,11,8.8,10.9,9.6c0,0.2-0.1,0.5-0.2,0.8c-0.1,0.2-0.3,0.4-0.5,0.5c0.6-0.5,0.6-1,0.6-1.3c0.1-0.5,0-1.3,0.4-1.9
						c0.4-0.6,1.3-1.2,3.5-1.3c0.9,0,1.4-0.1,1.8-0.2C16.8,6,17,5.8,17.2,5.7c0.2-0.1,0.4-0.3,0.6-0.5C17.9,5.1,18,5.1,18.2,5.1
						C18.1,5.1,18.1,5.1,18.2,5.1z M18.4,5.2C18.4,5.2,18.5,5.2,18.4,5.2c0.1,0,0.1,0,0.1,0c0,0,0,0.1,0,0.1c0,0.1-0.1,0.1-0.2,0.1
						c-0.1,0-0.2,0-0.2,0c0,0,0,0,0,0c0,0,0,0,0,0c0,0,0,0,0,0c0,0,0,0,0,0c-1,0.9-1.9,1.1-3.3,1.2c-0.5,0-1.2,0.1-1.9,0.3
						C12.5,7,12.2,7.1,12,7.2c-0.2,0.1-0.4,0.3-0.4,0.4c0,0,0,0,0,0c0,0,0,0,0,0c0,0,0,0,0,0c0,0,0,0,0,0c0.1,0,0.5,0,0.9,0
						c0.5,0,1.1,0.1,1.7,0.1c1.2,0.1,2.5,0.3,3.3,0.7c0,0,0,0,0,0.1c0,0,0,0,0,0c0,0-0.1,0-0.1,0c-0.1,0-0.4-0.1-0.6-0.1
						C16.3,8.2,15.6,8,14.9,8c-1.1-0.1-1.8-0.3-3.4-0.3c0,0,0,0,0,0c0,0,0,0,0,0c0,0,0,0,0,0c0,0,0,0,0,0c0,0,0,0,0,0.1
						c0,0.1-0.1,0.1,0,0.2c0,0,0,0,0,0c0,0,0,0,0,0c0,0,0,0,0,0c0.1,0,0.4,0.1,0.8,0.3c0.4,0.1,0.9,0.3,1.4,0.5c1,0.4,2,0.9,2.6,1.3
						c0,0,0.1,0.1,0.1,0.1c0,0,0,0,0,0c0,0,0,0,0,0c0,0,0,0-0.1,0c-0.2-0.1-0.6-0.2-1-0.5c-0.5-0.3-1-0.6-1.5-0.8
						c-0.9-0.4-1.9-0.8-2.4-0.9c0,0,0,0,0,0c0,0,0,0,0,0c0,0,0,0,0,0c0,0,0,0,0,0c0,0-0.1,0-0.1,0.1c0,0,0,0.1,0,0.1
						c0,0.1,0.1,0.1,0.2,0.3c0.2,0.2,0.6,0.6,1,1.2c0.8,1,1.2,1.5,1.3,1.8c0.1,0.1,0.1,0.2,0.1,0.2c0,0,0,0,0,0c0,0,0,0,0,0
						c-0.1,0-0.1,0-0.1,0c0,0-0.1-0.1-0.1-0.2c-0.1-0.2-0.3-0.6-0.8-1.2c-0.3-0.4-0.6-0.8-0.9-1.1c-0.3-0.3-0.5-0.6-0.6-0.7
						c0,0,0,0,0,0c0,0,0,0,0,0c0,0,0,0,0,0c0,0,0,0,0,0c0,0,0,0.1,0,0.1c0,0.1,0,0.2-0.1,0.3c0,0.1,0,0.3,0,0.4c0,0.1,0,0.2,0,0.2v0
						v0v0c0,0,0,0,0,0c0,0.2,0.1,0.3,0.2,0.5c0.1,0.2,0.2,0.5,0.3,0.9c0.1,0.4,0.2,0.8,0.2,1.1c0,0.1,0,0.3,0,0.4c0,0,0,0.1,0,0.1
						c0,0,0,0,0,0h0c0,0,0,0,0,0c0,0,0,0,0-0.1c0-0.1,0-0.2,0-0.4c0-0.4-0.2-1.1-0.6-2.2c0,0,0,0,0,0c0,0,0,0,0,0c0,0,0,0,0,0
						c0,0,0,0,0,0c0,0,0,0,0,0c0,0,0,0,0,0c0,0,0,0,0,0c0,0,0,0,0,0c0,0,0,0,0,0c0,0,0,0.1-0.1,0.1c0,0.1-0.1,0.3-0.1,0.5
						c-0.1,0.3-0.1,0.6-0.2,0.9c0,0,0-0.1,0-0.1c0-0.1,0-0.2,0-0.3c0,0,0-0.1,0-0.1c0,0,0,0,0,0c0,0,0,0,0-0.1c0,0,0,0,0,0
						c0,0,0,0,0,0c0,0,0,0,0,0c0,0,0,0,0,0c0,0,0,0,0,0c0,0,0,0,0,0c-0.2,0.2-0.3,0.3-0.4,0.5c0,0.1-0.1,0.2-0.1,0.3
						c0-0.1,0-0.2,0-0.2c0-0.1,0-0.1,0-0.1c0,0,0,0,0,0c0,0,0,0,0,0c0,0,0,0,0,0c0,0,0,0,0,0c0,0,0,0,0,0c-0.1,0.1-0.3,0.2-0.4,0.3
						c-0.1,0.1-0.1,0.1-0.2,0.2c0-0.1,0.1-0.2,0.1-0.3c0,0,0,0,0,0c0,0,0,0,0,0c0,0,0,0,0,0c0,0,0,0,0,0c0,0,0,0,0,0c0,0,0,0,0,0
						c0,0,0,0,0,0c0,0,0,0,0,0c-0.6,0.1-1,0.3-1.2,0.6c-0.1,0.2-0.2,0.4-0.3,0.5c0-0.4,0.3-0.8,0.6-0.9c0.2-0.1,0.5-0.1,0.7-0.2
						c0.2,0,0.4-0.1,0.5-0.2c0.3-0.1,0.5-0.4,0.6-0.7c0.1-0.3,0.2-0.6,0.3-0.8c0.1-0.7,0-1.4,0.4-2c0.2-0.3,0.5-0.5,1.1-0.7
						c0.5-0.2,1.3-0.3,2.4-0.4c0.9,0,1.4-0.1,1.8-0.3c0.4-0.1,0.6-0.3,0.8-0.4c0.1-0.1,0.3-0.2,0.5-0.4c0.1-0.1,0.2-0.1,0.3-0.2
						C18.3,5.2,18.4,5.2,18.4,5.2z M9.9,5.3c0,0.1-0.1,0.2-0.1,0.2c0,0.1-0.1,0.1-0.1,0.1c0,0,0,0,0,0c0,0,0,0,0,0c0,0,0,0,0,0
						c0,0,0,0,0,0h0c0,0,0,0,0,0c-0.2,0-0.3,0-0.4,0.1c0,0,0,0,0,0C9,5.8,9,5.8,8.9,5.8c0,0,0,0,0,0c0,0,0,0,0,0c0,0,0.1,0,0.1,0
						c0.1,0,0.2-0.1,0.3-0.1C9.6,5.5,9.8,5.5,9.9,5.3z M18.7,5.3C18.7,5.3,18.7,5.3,18.7,5.3C18.7,5.3,18.7,5.4,18.7,5.3
						c0.1,0.1,0.1,0.2,0,0.2c0,0,0,0,0-0.1C18.7,5.4,18.6,5.4,18.7,5.3C18.6,5.3,18.6,5.3,18.7,5.3C18.6,5.3,18.7,5.3,18.7,5.3z
						 M10.5,5.5c-0.1,0.4-0.3,0.7-0.5,0.8C9.8,6.4,9.7,6.5,9.6,6.5c0,0-0.1,0-0.1,0.1c0,0,0,0,0,0c0,0,0,0,0,0c0,0,0,0,0,0
						c0,0,0.1,0,0.2,0c0,0,0,0,0.1,0C9.9,6.9,10,7.2,10,7.6c0,0.4-0.1,0.8-0.2,1.2c-0.1,0.4-0.2,0.9-0.2,1.3c0,0.2,0,0.4,0.1,0.5
						c0.1,0.1,0.1,0.2,0.3,0.3c0,0-0.1,0.1-0.1,0.1c-0.1,0-0.2,0-0.3,0.1c-0.2,0-0.4,0.1-0.6,0.1c-0.1,0-0.4,0.2-0.6,0.4
						c-0.2,0.2-0.3,0.5-0.2,0.8c0,0,0,0,0,0c0,0,0,0,0,0c0,0.1,0,0.1,0,0.2v0c0,0,0,0,0,0c0,0,0,0,0,0c0,0,0,0,0,0c0,0,0,0,0,0
						c0,0,0,0,0-0.1c0,0,0.1,0,0.2,0c-0.1,0.2-0.1,0.4-0.2,0.6c0-0.1-0.1-0.1-0.2-0.2C8,13,8,13,8,13c0-0.1-0.1-0.3-0.3-0.5
						c0,0,0,0,0-0.1c0-0.1,0-0.3-0.1-0.5c0.1-0.1,0.1-0.3,0-0.6c0,0,0,0,0,0c0,0,0,0,0,0c0.1-0.1,0.1-0.3,0-0.5c0,0,0,0,0,0
						c0,0,0,0,0.1,0c0.1-0.1,0.1-0.3,0.1-0.5c0,0,0.1,0,0.1-0.1C8,10.2,8,10,8,9.8c0.1,0,0.1,0,0.1-0.1c0.1-0.1,0.1-0.2,0.1-0.4
						c0,0,0.1,0,0.1-0.1C8.4,9.1,8.5,9,8.4,8.8c0,0,0.1,0,0.1,0c0,0,0.1-0.1,0.1-0.2c0-0.1,0-0.2,0-0.4C8.6,8.1,8.6,8,8.6,8
						c0-0.1,0-0.3,0-0.4C8.6,7.4,8.7,7.2,8.7,7c0,0,0.1,0,0.1,0C8.9,7,9,7,9.1,6.9c0,0,0,0,0,0c0,0,0,0,0,0c0,0,0,0,0,0c0,0,0,0,0,0
						c0,0,0,0,0,0c0,0,0,0-0.1,0c0,0,0,0,0,0c-0.1,0-0.1,0-0.4-0.2c0,0,0,0,0,0c0,0,0,0,0,0c0,0,0,0,0,0c0,0,0,0,0,0c0,0,0,0,0,0
						c0,0.1,0.1,0.1,0.1,0.2c0,0,0,0,0.1,0c-0.1,0-0.1,0-0.2-0.1c0,0,0,0,0,0c0,0,0,0,0,0c0.1,0.3,0,0.6-0.2,0.9
						C8.1,8,7.8,8.1,7.4,7.9c0,0,0,0,0,0c0,0,0,0,0,0c0,0,0,0,0,0c0,0.1-0.1,0.2-0.2,0.2C7.1,8.2,7,8.3,6.9,8.3C7,8.3,7,8.3,7,8.2
						c0-0.1,0-0.2,0-0.3c0,0,0,0,0,0c0,0,0,0,0,0C7,8.1,6.8,8.2,6.4,8.4C6.6,8.2,6.7,8.1,6.7,8c0,0,0,0,0,0c0,0,0,0,0,0
						C6.4,8.1,6.1,8.2,5.8,8.2C5.9,8.2,6,8.1,6,8.1c0.1-0.1,0.2-0.3,0.3-0.6c0.2,0.1,0.4,0.2,0.6,0.2c0.2,0,0.3-0.1,0.4-0.1
						c0,0,0,0.1,0,0.1c0,0,0,0,0,0c0,0,0,0,0,0c0.1-0.2,0.2-0.4,0.1-0.5c0-0.1-0.1-0.2-0.2-0.3c0,0,0,0,0,0c0,0,0,0,0,0
						c0,0,0,0.1,0,0.1C6.9,6.9,6.6,6.6,6,7.1c0-0.3,0-0.4,0.1-0.6c0,0,0.1,0,0.1,0c0.1,0,0.1,0,0.2-0.1c0-0.1,0.1-0.1,0.1-0.3
						c0.4,0,0.8,0.1,1.2,0.2c0,0,0,0,0,0c0,0,0,0,0,0c0,0,0,0,0,0c0,0,0,0,0,0c0,0,0,0,0,0c0,0,0,0,0,0c0,0,0,0,0,0
						c-0.1,0-0.1-0.1-0.2-0.1c0,0-0.1-0.1-0.1-0.1c0-0.1,0-0.1,0.1-0.2C7.7,5.8,8.2,5.7,9,6c0,0-0.1,0.1-0.1,0.1c0,0,0,0,0,0
						c0,0,0,0,0,0c0.2-0.2,0.5-0.3,0.8-0.3C10,5.8,10.3,5.7,10.5,5.5z M10.3,5.9C10.2,5.9,10.2,5.9,10.3,5.9C10,6,9.9,6.1,9.7,6.1
						c-0.2,0-0.2,0.1-0.3,0.1c0,0,0,0,0,0c0,0,0,0,0,0c0,0,0,0-0.1-0.1c0,0,0,0,0,0c0,0,0,0,0,0c0,0,0,0,0,0c0,0,0,0,0,0
						c0,0,0,0.1,0.1,0.1c0,0,0,0.1,0.1,0.1c0,0,0,0,0,0.1c0,0,0,0,0,0c0,0,0,0,0,0c0.1-0.1,0.1-0.2,0.2-0.2c0,0,0.1,0,0.1,0
						c0,0,0.1,0,0.1,0c0,0,0,0,0,0c0,0,0,0,0,0c0,0,0,0,0,0C10,6.1,10.1,6,10.3,5.9C10.3,5.9,10.3,5.9,10.3,5.9
						C10.3,5.9,10.3,5.9,10.3,5.9z M4.1,5.9c0.3,0.4,0.6,0.7,1.1,1c-0.2,0-0.4,0-0.5-0.1C4.5,6.7,4.4,6.5,4.3,6.3c0,0,0,0,0,0
						c0,0,0,0,0,0c0,0,0,0,0,0c0,0,0,0,0,0c0,0,0,0,0,0C4.4,6.7,4.5,6.9,4.6,7c0.1,0.1,0.1,0.2,0.1,0.3C4.5,7.2,4.4,6.9,4.2,6.7
						C4.1,6.4,4.1,6.1,4.1,5.9z M17.7,6c-0.1,0.2-0.3,0.4-0.4,0.7c-0.2,0.5-0.2,1.1,0.1,1.7c-0.8-0.3-2-0.5-3.2-0.6
						c-0.6-0.1-1.2-0.1-1.7-0.1c-0.4,0-0.7,0-0.8,0c0.1-0.1,0.2-0.2,0.5-0.4c0.3-0.1,0.6-0.2,1-0.3c0.7-0.2,1.4-0.2,1.6-0.2
						c1.1,0,1.9-0.3,2.5-0.5C17.4,6.1,17.6,6,17.7,6z M7.6,6c0,0-0.1,0-0.1,0c0,0,0,0,0,0c0,0,0,0.1,0,0.1c0,0,0,0,0.1,0
						c0.1,0,0.1,0.1,0.2,0.2c0,0,0,0,0,0c0,0,0,0,0,0c0,0,0,0,0,0c0,0,0,0,0,0c0,0,0,0,0,0c0,0,0,0,0,0c0,0,0,0,0.1,0
						c0.2-0.1,0.3-0.1,0.4-0.1c0.1,0,0.1,0,0.2,0c0,0,0,0,0,0c0,0,0,0,0,0c0,0,0,0,0,0C8.4,6.2,8.3,6.1,8.3,6.1c-0.1,0-0.2,0-0.3,0
						c-0.1,0-0.2,0-0.2-0.1C7.7,6,7.7,6,7.6,6z M7.6,6.1c0,0,0.2,0,0.2,0c0,0.1,0,0.1,0.1,0.2C7.8,6.3,7.7,6.1,7.6,6.1z M6.2,6.1
						c0,0,0,0.1,0,0.2c0,0,0,0.1-0.1,0.1c0,0-0.1,0-0.1,0c0,0,0,0,0,0c0,0-0.2-0.1-0.3-0.1c0,0-0.1,0-0.1,0C5.8,6.1,6,6.1,6.2,6.1z
						 M8.2,6.2C8.2,6.2,8.3,6.2,8.2,6.2C8.2,6.3,8,6.3,8,6.3C8,6.3,8.1,6.2,8,6.2C8,6.2,8.1,6.2,8.2,6.2z M8.5,6.4
						c-0.1,0-0.2,0-0.3,0c-0.1,0-0.1,0-0.1,0.1c0,0,0,0,0,0c0,0,0,0,0,0c0,0,0.1,0,0.1,0c0,0,0,0,0,0c0,0,0,0,0,0c0,0,0,0,0,0
						c0,0,0,0,0,0c0-0.1,0.1-0.1,0.1-0.1C8.4,6.5,8.4,6.5,8.5,6.4C8.5,6.5,8.5,6.5,8.5,6.4L8.5,6.4L8.5,6.4C8.5,6.5,8.5,6.4,8.5,6.4
						C8.5,6.4,8.5,6.4,8.5,6.4C8.5,6.4,8.5,6.4,8.5,6.4L8.5,6.4z M21.5,6.6c-0.9,1-1.1,2.1-1.1,2.4c-0.1-0.2-0.3-0.4-0.2-0.7v0
						C20.4,7.8,20.5,7.7,21,7c0,0,0,0,0,0c0,0,0,0,0,0c0,0,0,0,0,0c0,0,0,0,0,0c0,0,0,0,0,0c0,0,0,0,0,0c0,0,0,0,0,0
						c-0.6,0.5-0.9,0.8-1.1,1.1c-0.2,0.2-0.4,0.3-0.8,0.4C19.8,7.8,20.2,7.3,21.5,6.6z M10,6.7C10,6.7,10,6.7,10,6.7
						c0.1,0,0.1,0.1,0.2,0.1c0.1,0.1,0.2,0.3,0.3,0.5c0-0.1-0.1-0.1-0.2-0.1c-0.1,0-0.2,0-0.3,0c0-0.1,0-0.1,0-0.2
						c0.1,0,0.2,0,0.2,0.1c0,0,0,0,0,0c0,0,0,0,0,0c0,0,0,0,0,0c-0.1-0.1-0.2-0.2-0.3-0.2C10.1,6.8,10,6.7,10,6.7z M4.7,6.9
						C4.7,6.9,4.7,6.9,4.7,6.9C5,7.1,5.2,7.2,5.4,7.3c0.2,0,0.4,0,0.7-0.1h0c0.1,0,0.2,0,0.3-0.1c0.1,0,0.3,0,0.4,0
						c0.1,0,0.3,0,0.4,0c0.1,0,0.1,0,0.2,0.1c-0.2,0-0.4-0.1-0.7,0c0,0,0,0,0,0c0,0,0,0,0,0c0,0,0,0,0,0c0,0,0,0,0,0c0,0,0,0,0.1,0
						c0.1,0,0.1,0,0.2,0c0.1,0,0.1,0,0.3,0.1c0,0,0,0,0,0.1c0,0,0,0,0,0c0,0-0.1,0-0.1,0c-0.1,0-0.2,0-0.3,0c-0.2,0-0.5,0-0.8,0h0
						C5.9,7.4,5.6,7.4,5.4,7.4C5.1,7.3,4.9,7.2,4.7,6.9C4.7,7,4.7,6.9,4.7,6.9z M20.7,7.3c-0.5,0.6-0.7,1-0.8,1.4
						c-0.1,0.2-0.1,0.4-0.1,0.4c0,0,0,0.1,0,0.1c-0.1,0-0.1-0.1-0.2-0.1c0,0,0,0,0-0.1c0-0.1,0-0.1,0.1-0.2c0.1-0.1,0.2-0.3,0.3-0.5
						C20.1,8,20.4,7.6,20.7,7.3z M10.1,7.6c0.1,0.1,0.3,0.2,0.4,0.4c0.1,0.1,0.1,0.3,0,0.5c0-0.1-0.1-0.2-0.1-0.3
						c-0.1,0-0.1-0.1-0.2-0.1c0,0-0.1,0-0.1,0c0-0.1,0-0.2,0-0.2c0,0,0,0,0.1,0c0,0,0.1,0,0.1,0.1c0,0,0.1,0.1,0.1,0.1
						c0,0,0,0.1,0,0.1c0,0,0,0,0,0c0,0,0,0,0,0c0,0,0-0.1,0-0.1c0,0,0,0,0,0c0,0-0.1-0.1-0.1-0.1c0,0-0.1-0.1-0.1-0.1
						c0,0-0.1,0-0.1,0C10.1,7.8,10.1,7.7,10.1,7.6z M8.5,7.7c0,0.1,0.1,0.2,0,0.3c0,0.1-0.1,0.1-0.1,0.2C8.3,8.3,8.1,8.3,7.9,8.3
						c0,0,0,0-0.1,0c0,0,0,0,0,0c0,0,0,0,0,0c0,0,0,0,0,0c0,0,0,0,0,0c0,0,0.1,0,0.1-0.1C8.1,8.1,8.2,8.1,8.3,8
						C8.4,7.9,8.4,7.8,8.5,7.7z M11.5,7.8c1.7,0.1,2.2,0.2,3.3,0.3c0.8,0.1,1.5,0.3,2,0.4c0,0,0,0,0,0c-0.5,0.1-0.7,0.4-0.8,0.8
						c0,0.2,0,0.4,0,0.5c0,0,0,0.1,0,0.1c-0.6-0.4-1.6-0.8-2.5-1.2c-0.5-0.2-1-0.4-1.4-0.5C11.9,8.1,11.7,8,11.5,8
						C11.5,7.9,11.5,7.8,11.5,7.8z M11.4,8.2C11.4,8.2,11.4,8.2,11.4,8.2c0.1,0,0.2,0.1,0.3,0.1c0.2,0.1,0.4,0.1,0.6,0.2
						c0.5,0.2,1,0.4,1.5,0.6c0.5,0.2,1.1,0.6,1.7,0.9c0,0,0,0,0.1,0c0,0,0,0-0.1,0c-0.2,0-0.4,0-0.6,0.1c-0.4,0.2-0.8,0.5-1,1.1
						c0,0,0,0,0-0.1c-0.2-0.3-0.7-0.8-1.2-1.6c-0.4-0.5-0.7-0.8-0.9-1C11.5,8.5,11.5,8.4,11.4,8.2C11.4,8.3,11.4,8.2,11.4,8.2z
						 M8.5,8.3c0,0.1,0,0.2,0,0.3c0,0.1-0.1,0.1-0.1,0.1c-0.1,0-0.2,0-0.4,0.1c-0.1,0-0.1,0-0.1-0.1c0,0,0-0.1,0-0.1
						c0-0.1,0.1-0.2,0.1-0.2h0c0,0,0,0,0,0c0,0,0,0,0,0C8.2,8.4,8.3,8.3,8.5,8.3z M17.8,8.6C17.8,8.6,17.8,8.6,17.8,8.6
						c0,0,0,0.1,0,0.1c0,0,0,0.1-0.1,0.1c0,0,0,0,0,0c0,0,0,0,0-0.1C17.7,8.7,17.7,8.7,17.8,8.6C17.7,8.6,17.7,8.6,17.8,8.6
						C17.7,8.6,17.7,8.6,17.8,8.6z M11.3,8.6C11.3,8.6,11.4,8.6,11.3,8.6c0.1,0.1,0.2,0.2,0.3,0.3c0.2,0.3,0.6,0.7,0.9,1.1
						c0.3,0.4,0.6,0.9,0.8,1.2c0,0.1,0.1,0.1,0.1,0.1c-0.1,0-0.2-0.1-0.4-0.1c-0.1,0-0.1,0-0.2,0c-0.3,0-0.6,0.2-0.8,0.6
						c0-0.3-0.2-0.7-0.3-1.1c-0.2-0.6-0.3-0.8-0.4-1c-0.1-0.1-0.1-0.2-0.2-0.5c0,0,0,0,0,0c0-0.1,0-0.3,0-0.5
						C11.3,8.8,11.3,8.7,11.3,8.6C11.3,8.6,11.3,8.6,11.3,8.6z M10,8.7c0,0,0.1,0.1,0.1,0.1C10.2,8.9,10.3,9,10.3,9
						c0.1,0.1,0.1,0.2,0.1,0.3c0,0.1-0.1,0.2-0.1,0.4c0-0.1,0-0.1,0-0.2c0-0.1-0.1-0.2-0.2-0.2c-0.1,0-0.2-0.1-0.2-0.1c0,0,0,0,0,0
						c0-0.1,0-0.1,0.1-0.1c0,0,0.1,0,0.1,0c0.1,0,0.1,0,0.1,0.1c0,0,0.1,0.1,0.1,0.1c0,0,0,0,0,0c0,0,0,0,0,0v0c0,0,0,0,0,0
						C10.2,9.1,10.1,9.1,10,9C10,9,10,8.9,10,8.9C9.9,8.9,9.9,8.8,10,8.7z M4.5,8.7c0.2,0,0.3,0.1,0.4,0.2c0,0,0,0-0.1,0
						C4.7,8.9,4.6,8.8,4.5,8.7C4.5,8.8,4.5,8.8,4.5,8.7C4.5,8.8,4.5,8.8,4.5,8.7C4.5,8.8,4.5,8.8,4.5,8.7C4.6,8.9,4.7,8.9,4.6,9
						c0,0-0.1,0-0.1,0c0-0.1-0.1-0.1-0.3-0.2C4.4,8.8,4.4,8.7,4.5,8.7z M8.3,8.8c0,0.2,0,0.3-0.1,0.3C8.2,9.2,8.1,9.2,8,9.2
						c-0.1,0-0.2,0-0.3,0c0,0,0,0,0,0h0c0,0,0,0-0.1,0c0,0,0,0,0,0c0,0,0-0.1,0.1-0.1c0,0,0.1-0.1,0.1-0.1c0,0,0.1,0,0.1,0
						C8,8.8,8.2,8.8,8.3,8.8C8.3,8.8,8.3,8.8,8.3,8.8z M18.7,9c0.7,0,1.5,0.7,1.5,1.7c0,0.7-0.4,1.8-1.9,2.3
						c-0.4-0.8-1.2-1.5-2.2-1.9c0,0,0,0,0,0c0,0,0,0,0,0c0,0,0,0,0,0c1.1,0.4,1.8,1.2,2.2,2.1c0.1,0.2,0.3,0.6,0.6,0.8
						c0.2,0.2,0.5,0.4,0.8,0.4c0.2,0,0.4,0.1,0.5,0.3c0.1,0.2,0.1,0.4-0.1,0.7c0-0.1,0-0.2,0-0.3C20,15.1,19.8,15,19.7,15
						c-0.2,0-0.2,0.1-0.5,0.2c0,0,0,0,0,0c0,0,0.1,0,0.2,0c0,0.1,0.2,1.4,0.2,1.6c0.1,0.9,0.8,0.5,0.9,0.5c0.2,0,0.3,0.1,0.3,0.2
						c-0.1,0-0.1,0.2-0.1,0.4c-0.3,0.2-0.5-0.1-0.7-0.1c-0.2,0-0.5,0.2-0.7,0.2c-0.2,0.1-0.3,0.1-0.6,0c0,0,0.1,0,0.1,0c0,0,0,0,0,0
						c0,0,0,0,0,0c0,0,0,0,0,0c0,0,0,0,0,0c0,0,0,0,0,0c0,0,0,0,0,0h0c0,0,0,0,0,0c0,0-0.1,0-0.1,0c-0.1,0-0.2,0-0.3,0
						c-0.1,0-0.3,0-0.4,0.1c-0.1,0.1-0.3,0.2-0.4,0.2c-0.1,0-0.2,0-0.2-0.1c0-0.1,0-0.3-0.1-0.4l0,0c0.2,0,0.2-0.1,0.3-0.1
						c0.1,0,0.1,0.2,0.8-0.2c0,0,0,0,0,0c0,0,0,0,0,0c0,0,0,0,0,0c-0.6,0.3-0.4,0.1-0.7,0.1c-0.3,0-0.3,0.1-0.5,0.1
						c-0.1,0-0.2,0-0.2-0.1c0.1,0,0.1-0.2,0.1-0.3c0,0,0,0,0,0c0,0,0,0,0,0c0,0,0.1-0.1,0.2-0.1c0.1,0,0.2,0.1,0.3,0.1
						c0.1,0.1,0.2,0,0.4,0.1c0,0,0,0,0,0c0,0,0,0,0,0c-0.1,0-0.2-0.2-0.3-0.2c-0.1,0-0.2-0.1-0.3-0.1c-0.1-0.1-0.2-0.2-0.2-0.2
						c0,0,0.1,0,0.1-0.1c0,0,0-0.1,0.1-0.1c0,0,0,0,0-0.1c0,0,0,0,0,0c0,0,0.1-0.1,0.1-0.1c0.1,0,0.1,0,0.2,0.1
						c0.1,0.1,0.1,0.2,0.2,0.3c0.1,0.2,0.2,0.2,0.3,0.3c0,0-0.1,0.1-0.1,0.1c0,0,0,0,0,0c0,0,0,0,0,0c0,0,0,0,0,0c0,0,0,0,0,0
						c0,0,0,0,0.1,0c0,0,0.1,0,0.2,0c0.1,0,0.1,0,0.2,0c0.1,0,0.1,0,0.1-0.1c0.2-0.3,0.2-0.9,0.1-1.3c-0.1-0.5-0.4-1.1-0.4-1.1
						c0-0.2-0.4-0.6-0.5-0.5c0,0,0,0,0-0.1c0,0,0-0.1,0-0.1c0-0.1-0.1-0.1-0.2-0.2c-0.1-0.1-0.1-0.1-0.2-0.1c0,0-0.1,0-0.1,0
						c0,0,0,0,0,0c0,0,0-0.1-0.1-0.1c0-0.1-0.1-0.1-0.2-0.2c-0.1-0.1-0.1-0.1-0.2-0.1c0,0-0.1,0-0.1,0c0,0,0,0,0,0c0,0,0-0.1,0-0.1
						c0-0.1-0.1-0.1-0.2-0.2c-0.1-0.1-0.2-0.1-0.2-0.1c0,0-0.1,0-0.1,0.1c0-0.1,0-0.1,0-0.1c0-0.1-0.1-0.2-0.2-0.2
						c-0.1-0.1-0.2-0.1-0.3-0.1c0,0-0.1,0-0.1,0l0,0c0-0.1,0-0.1-0.1-0.1c-0.1-0.1-0.2-0.1-0.2-0.2c-0.1,0-0.2,0-0.3,0
						c0,0-0.1,0-0.1,0c0,0,0,0,0,0c0,0,0,0,0,0c0,0-0.1-0.1-0.1-0.1c-0.1,0-0.2-0.1-0.3-0.1c0,0-0.1,0-0.1,0c0,0-0.1,0-0.1,0
						c0,0-0.1,0.1-0.1,0.1c0,0-0.1-0.1-0.1-0.1c-0.1,0-0.2,0-0.3,0c-0.1,0-0.2,0.1-0.2,0.1c0,0,0,0,0,0c0,0,0,0,0,0
						c-0.1,0-0.2,0-0.3,0c-0.1,0-0.2,0-0.3,0.1c0,0-0.1,0.1-0.1,0.1c0,0,0,0,0,0c0,0,0,0-0.1,0c-0.1,0-0.2,0-0.3,0
						c-0.1,0-0.2,0.1-0.3,0.1c0,0,0,0.1,0,0.1c0,0,0,0,0,0c-0.1,0-0.2,0-0.3,0c-0.1,0-0.2,0.1-0.2,0.2c0,0,0,0,0,0.1
						c0,0-0.1,0-0.1,0c-0.1,0-0.2,0-0.3,0.1c-0.1,0-0.2,0.1-0.2,0.2c0,0,0,0,0,0.1c0,0-0.1,0-0.1,0c0,0,0-0.1,0.1-0.2
						c0,0,0.1-0.1,0.1-0.1c0,0,0,0,0,0c0,0,0,0,0,0c0,0,0,0,0,0c-0.2,0.1-0.4,0.4-0.5,0.7c-0.1,0.3-0.2,0.7-0.2,0.9v0
						c0,0.3,0.1,0.4,0.2,0.5c0.1,0.1,0.1,0.2,0,0.5v0c-0.1,0.1-0.1,0.2-0.3,0.3c0.2-0.4-0.4-0.7-1.2-0.3c0,0,0,0,0,0c0,0,0,0,0,0
						c0,0,0,0,0,0c0.1,0,0.1,0,0.1,0c0.1,0.2-0.3,0.5-0.5,0.9c-0.1,0.2-0.5,0.6-0.5,0.9c0,0.2,0.1,0.3,0.2,0.3c0,0,0.1,0,0.2,0
						c0.1,0,0.2-0.1,0.3-0.1c0.1,0,0.1,0,0.2,0.1c0,0-0.2,0.3-0.1,0.5c0,0-0.1,0-0.1,0c-0.1,0-0.2-0.1-0.3-0.1
						c-0.2-0.1-0.2-0.1-0.4-0.1c-0.2,0-0.4,0.1-0.6,0.1c-0.2,0.1-0.3,0.1-0.7,0.1c0,0-0.1,0-0.2,0C7,18.3,7,18.2,7,18.2c0,0,0,0,0,0
						c0,0,0,0,0,0c0,0,0,0,0,0c0,0,0,0,0,0c0,0,0,0,0,0c0,0,0,0,0,0c0,0,0,0,0,0c0,0-0.4,0.1-0.6,0.1c-0.1,0.1-0.2,0.3-0.4,0.3
						c-0.1,0-0.1,0-0.2-0.1c0.1-0.3-0.2-0.4-0.1-0.5c0.1,0,0.5,0.1,0.9-0.2c0,0,0,0,0,0c0,0,0,0,0,0c0,0,0,0,0,0
						c-0.2,0.1-0.4-0.1-0.5-0.1c-0.3,0-0.2,0.1-0.4,0.1c-0.1,0-0.2,0-0.2-0.1c0.1-0.1,0.2-0.3,0.1-0.4c0,0,0.1-0.1,0.2-0.1
						c0.1,0,0.1,0.1,0.2,0.1c0.4,0.2,0.3,0,0.7,0.2c0,0,0,0,0,0c0,0,0-0.1,0-0.1c-0.4-0.1-0.5-0.2-0.6-0.3c0,0-0.1,0-0.2-0.1
						c-0.2-0.2-0.2-0.3-0.2-0.3c0,0,0.1-0.2,0.1-0.2c0,0,0.1,0,0.1,0c0.2,0,0.4,0.3,0.3,0.4c0,0,0.2,0.2,0.3,0.3
						c0.1,0.1,0.2,0.3,0.5,0.3c0,0,0,0,0,0c0,0,0,0,0,0c0.4-0.4,0.7-1,0.9-1.5c0.1-0.3,0.2-0.5,0.2-0.7c0-0.2,0.1-0.3,0.1-0.4
						c0-0.3-0.1-0.8-0.1-1.3c0-0.4,0.1-0.8,0.3-1.1c0.1,0,0.1,0,0.2-0.1c0.2-0.1,0.3-0.2,0.4-0.3c0,0,0,0.1,0,0.1
						c0,0.1,0.1,0.2,0.1,0.3C9.5,12.8,9.7,13,9.9,13h0c0,0,0,0,0,0c0,0,0,0,0,0c0,0,0,0,0,0c0,0,0,0,0,0c0,0,0,0,0,0c0,0,0,0,0,0
						c0,0-0.1,0-0.1,0c0,0,0,0,0-0.1c0-0.1,0-0.2,0.1-0.3c0-0.1,0.1-0.2,0.1-0.2c0.1,0.2,0.2,0.3,0.3,0.4c0.2,0.1,0.5,0.2,0.8,0
						c0,0,0,0,0,0c0,0,0,0,0,0c0,0,0,0,0,0c0,0,0,0,0,0c0,0,0,0,0,0c0,0,0,0,0,0c0,0,0,0,0,0c-0.3-0.1-0.3-0.3-0.3-0.4
						c0-0.1,0-0.2,0-0.2c0.1,0.2,0.3,0.3,0.5,0.3c0.1,0,0.2,0,0.2,0c0,0,0.1,0,0.1,0c0,0,0,0.1,0,0.1c0,0,0,0,0.1,0
						c0,0.1,0,0.1,0,0.1c0,0-0.1,0-0.1,0h0h0h0h0l0,0h0c0,0,0,0,0,0c0,0,0,0,0,0c0,0,0,0,0,0l0,0c0,0,0,0,0,0v0c0,0,0,0,0,0v0l0,0
						c0,0,0,0,0,0c0,0,0,0,0,0c0,0,0,0,0.1,0c0,0,0,0,0,0c0,0,0,0,0,0c0,0,0,0,0,0c0,0,0,0,0,0c0.1,0,0.1,0,0.2-0.1
						c0.1-0.1,0.1-0.1,0.1-0.2c0-0.1,0-0.1,0-0.2c0,0,0,0,0,0c0-0.1,0-0.1,0-0.2c0-0.1,0.1-0.2,0.2-0.2c0.1-0.1,0.2-0.2,0.4-0.3
						c0.3-0.1,0.7-0.2,1,0c0,0,0,0,0,0c0,0,0.1,0,0.1,0.1c0,0.1,0,0.1,0,0.1c0,0-0.1,0-0.1,0c0,0,0,0,0,0c0,0,0,0,0,0c0,0,0,0,0,0
						c0,0,0,0,0,0v0c0,0,0,0,0,0v0l0,0v0h0c0,0,0,0,0,0c0,0,0,0,0.1,0c0,0,0,0,0,0c0,0,0,0,0,0c0,0,0,0,0,0c0.1,0,0.1,0,0.2-0.1
						c0.1,0,0.1-0.1,0.1-0.1c0,0,0-0.1,0-0.1c0,0,0-0.1,0-0.1c0,0,0-0.1-0.1-0.1c0,0,0-0.1,0-0.1c0.1-0.2,0.2-0.4,0.4-0.5
						c0.2-0.1,0.4-0.1,0.7-0.1c0.9,0,1.5,0.2,1.9,0.4c0.5,0.2,0.8,0.4,1.2,0.4c0.4,0,0.7-0.1,0.9-0.3c0.2-0.2,0.4-0.5,0.4-0.8
						c0-0.1,0-0.3-0.1-0.4c-0.1-0.2-0.3-0.4-0.5-0.4c-0.1,0-0.2,0-0.2,0c-0.1,0-0.1,0-0.2,0c-0.1,0.1-0.2,0.2-0.2,0.4
						c0,0.2,0.2,0.4,0.4,0.4c0.2,0,0.4-0.1,0.5-0.5c0.1,0.1,0.1,0.1,0.2,0.2c0,0.3-0.2,0.5-0.4,0.6c-0.2,0.1-0.4,0.2-0.5,0.2
						c-0.4,0-0.8-0.4-0.8-1C17.6,9.4,18,9,18.7,9z M4.9,9c0.2,0.2,0,0.3,0,0.6c0.1,0.9,0.5,1,0.6,1.4c0.2,1.3,0.8,1.9,0.8,2
						c0,0,0,0.1,0.1,0.1c0,0.1,0,0.3,0.1,0.4c0.1,0.1,0.1,0.3,0.2,0.3v0c0,0.1,0,0.3,0.1,0.4c0.1,0.1,0.2,0.2,0.3,0.3
						c0,0,0.1,0.1,0.1,0.1c0.1,0.2-0.5,0.4-0.8,0.5c-0.1,0.3-0.4,0.5-0.7,0.5c-0.2,0-0.2,0-0.3-0.1c0.4-0.1,0.5-0.1,0.5-1
						c0,0,0,0,0,0c0,0,0,0,0,0c0,0,0,0,0,0c0,0,0,0,0,0c0,0,0,0,0,0c0,0,0,0,0,0c0,0,0,0,0,0v0v0C5.8,15,5.2,12.8,5.1,12
						c0-0.2,0.2-0.6,0.2-0.8c0,0,0,0,0,0c0,0.1-0.1,0.2-0.1,0.3c0,0,0,0,0,0c0,0,0,0,0,0c0,0-0.1,0.1-0.1,0.1
						c-0.1,0.1-0.2,0.2-0.1,0.5c0,0.1-0.1,0.3-0.2,0.3c0-0.2-0.3-0.2-0.3-0.2c0-0.2,0.1-0.4,0.2-0.5c0.1-0.1,0.3-0.6,0.2-0.8
						c0,0,0,0-0.1,0c0,0,0,0,0,0c0,0,0,0,0,0c0,0,0,0.1,0,0.1c0,0,0,0,0,0c-0.1,0.1-0.2-0.2-0.1-0.3c0,0,0.1,0,0.1,0c0,0,0,0,0-0.1
						c0,0,0,0-0.1,0c-0.1,0-0.3-0.1-0.5-0.2c-0.5,0.2-0.5,0.1-0.7,0c0.1-0.1,0-0.3,0-0.3c0.1-0.1,0.2-0.1,0.3-0.1c0,0,0.2,0,0.3,0.1
						c0.2-0.1,0.4,0.1,0.5,0.2c0,0,0,0,0,0c0,0,0,0,0,0c0,0,0,0,0,0c0,0,0,0,0,0c0-0.1-0.2-0.7-0.6-0.7h0c0,0-0.2,0-0.2-0.3
						C3.9,9.4,4,9.3,4,9.2c0,0,0,0,0,0c0.2,0.1,0.3,0.3,0.3,0.4c0.1,0.1,0.4,0.1,0.4,0.9c0,0,0,0,0,0c0,0,0,0,0.1,0c0,0,0,0,0,0
						c0-0.2,0-0.3-0.1-0.4c0-0.2,0-0.3-0.2-0.5c0,0,0,0,0,0c-0.1-0.1-0.1-0.2,0-0.3C4.7,9.1,4.9,9,4.9,9z M3.7,9.1
						c0.1,0,0.1,0,0.2,0c0,0,0,0.1,0,0.1c0,0,0,0,0,0c-0.1,0-0.3-0.1-0.4,0c0,0,0,0,0,0c0,0,0,0,0,0c0,0,0,0,0,0
						c0.1,0,0.2,0,0.2,0.1c0,0,0,0,0,0c-0.1,0-0.2,0-0.3,0C3.4,9.2,3.6,9.1,3.7,9.1z M7.5,9.3c0.1,0,0.1,0,0.2,0c0.1,0,0.2,0,0.3,0
						c0,0,0,0,0.1,0c0,0.2,0,0.3-0.1,0.3C8,9.7,7.9,9.7,7.8,9.7c-0.1,0-0.3,0-0.4,0c0,0,0,0-0.1,0c0,0,0,0,0,0c0,0,0,0,0,0
						c0,0,0-0.1,0-0.1C7.4,9.4,7.5,9.3,7.5,9.3z M7.3,9.7c0.1,0,0.1,0,0.2,0c0.1,0,0.3,0,0.4,0c0,0,0,0,0.1,0c0,0.2,0,0.3-0.1,0.4
						c-0.1,0.1-0.2,0.1-0.3,0.1c-0.1,0-0.3,0-0.4,0c0,0-0.1,0-0.1,0c0,0,0,0,0,0c0,0,0,0,0,0c0,0,0,0,0,0c0,0,0-0.1,0-0.2
						C7.1,9.9,7.2,9.8,7.3,9.7z M9.8,9.8c0.2,0,0.3,0.1,0.4,0.2c0.1,0.1,0.1,0.3,0.1,0.4c0,0,0-0.1-0.1-0.1c0,0-0.1,0-0.1,0
						c-0.1,0-0.2,0-0.2,0.1c0,0,0,0,0-0.1c0,0,0-0.1,0-0.1c0,0,0.1,0,0.1,0c0.1,0,0.2,0,0.3,0.1c0,0,0,0,0,0c0,0,0,0,0,0
						c-0.1-0.1-0.2-0.1-0.3-0.2c0,0-0.1,0-0.1,0c0,0,0,0,0,0C9.8,10,9.8,9.9,9.8,9.8z M11.1,10C11.1,10,11.1,10.1,11.1,10
						c0.1,0.1,0.1,0.1,0.1,0.1c0,0.1,0.1,0.2,0.1,0.3c0.1,0.3,0.1,0.6,0.2,0.7c0.1,0.5,0.1,0.8,0.1,1.1c0,0,0,0,0,0.1
						c0,0-0.1,0-0.1,0c-0.1,0-0.1,0-0.2-0.1c-0.1-0.1-0.3-0.2-0.3-0.3c0,0,0,0,0,0c0,0,0,0,0,0h0c0,0,0,0,0,0c0,0,0,0,0,0
						c0,0,0,0,0,0c-0.1,0.1-0.2,0.2-0.2,0.3c0,0.1,0,0.2,0.1,0.3c0.1,0.1,0.1,0.1,0.2,0.2c0,0,0.1,0,0.1,0c-0.1,0-0.3,0-0.5,0
						c-0.2-0.1-0.4-0.2-0.5-0.6c0,0,0,0,0,0c0,0,0,0,0,0c0,0,0,0,0,0c0,0,0,0,0,0c0,0,0,0,0,0c-0.2,0.1-0.3,0.3-0.3,0.5
						c0,0.1,0,0.2,0,0.3c0,0,0,0,0,0c-0.2-0.1-0.3-0.2-0.3-0.4c-0.1-0.2-0.1-0.4-0.1-0.6c0,0,0,0,0,0c0,0,0,0,0,0c0,0,0,0,0,0
						c0,0,0,0,0,0c0,0,0,0,0,0c0,0,0,0,0,0c0,0,0,0,0,0v0l0,0l0,0l0,0l0,0c0,0,0,0,0,0c0,0,0,0,0,0c0,0,0,0,0,0c0,0,0,0,0,0
						c-0.1,0.1-0.2,0.3-0.5,0.4c-0.2,0.1-0.4,0.2-0.6,0.1c0.1-0.4,0.4-0.7,0.6-0.9c0.2-0.1,0.5-0.2,0.7-0.2c0,0,0,0,0,0
						c0,0.1,0,0.3,0,0.4v0v0c0,0,0,0,0,0c0,0,0,0,0,0v0c0,0,0,0,0,0c0-0.1,0.1-0.3,0.2-0.4c0.1-0.1,0.1-0.1,0.2-0.1c0,0,0.1,0,0.1,0
						c0,0,0,0.1,0,0.1c0,0.2,0,0.4,0,0.6v0c0,0,0,0,0,0h0c0,0,0,0,0,0c0,0,0,0,0,0c0,0,0,0,0,0c0,0,0,0,0,0c0,0,0,0,0,0c0,0,0,0,0,0
						c0.1-0.3,0.2-0.6,0.2-0.8c0-0.1,0.1-0.2,0.1-0.2c0,0,0,0,0,0c0,0,0,0,0,0c0,0,0,0,0,0c0,0,0,0,0,0.1c0,0.1,0,0.1,0,0.2
						c0,0.2,0,0.4,0,0.5c0,0,0,0,0,0c0,0,0,0,0,0c0,0,0,0,0,0c0,0,0,0,0,0c0-0.5,0.1-0.9,0.2-1.3C11,10.3,11,10.2,11.1,10
						C11.1,10.1,11.1,10.1,11.1,10z M3.4,10.2C3.4,10.2,3.4,10.2,3.4,10.2c0,0.1-0.1,0.1-0.2,0.2c0,0,0,0,0,0c0,0,0,0,0,0
						c0,0,0,0,0,0c0,0,0.1,0,0.1,0c0,0,0,0.1,0,0.1c-0.1,0-0.1,0-0.2,0.1C3.2,10.3,3.3,10.2,3.4,10.2z M7,10.3c0.1,0,0.1,0,0.2,0
						c0.1,0,0.3,0,0.4,0c0,0,0.1,0,0.1,0c0,0.2,0,0.4-0.1,0.4c-0.1,0.1-0.2,0.1-0.4,0.1c-0.1,0-0.3,0-0.4,0c-0.1,0-0.1,0-0.2,0
						c0,0,0,0,0,0c0,0,0-0.1,0.1-0.2c0-0.1,0.1-0.2,0.2-0.3C6.9,10.3,6.9,10.3,7,10.3C7,10.3,7,10.3,7,10.3z M16.3,10.5
						C16.3,10.5,16.4,10.5,16.3,10.5C16.4,10.5,16.4,10.5,16.3,10.5c0,0.1,0,0.1,0,0.1C16.3,10.5,16.3,10.5,16.3,10.5
						C16.3,10.5,16.3,10.5,16.3,10.5z M7.6,10.9c0.1,0.2,0,0.3,0,0.4c-0.1,0.1-0.2,0.1-0.4,0.1c-0.2,0-0.3,0-0.5,0.1
						c-0.1,0-0.1,0-0.2,0.1c0,0,0,0,0,0c0,0,0-0.1,0-0.2c0-0.1,0-0.2,0.1-0.3c0,0,0-0.1,0-0.1c0,0,0,0,0,0c0.1,0,0.2,0,0.3,0
						c0.2,0,0.3,0,0.5,0C7.5,10.9,7.5,10.9,7.6,10.9z M7.5,11.5c0.1,0.1,0.1,0.2,0.1,0.3c0,0.1,0,0.1,0,0.2C7.5,12,7.4,12,7.2,12.1
						c-0.2,0-0.3,0-0.5,0.1c-0.1,0-0.2,0.1-0.2,0.1c0,0,0,0,0,0c0,0,0-0.1,0-0.2c0-0.1,0-0.2,0.1-0.2c0,0,0-0.1,0-0.1c0,0,0,0,0,0
						c0.1,0,0.1,0,0.2,0c0.2,0,0.3,0,0.5-0.1C7.4,11.5,7.4,11.5,7.5,11.5z M13.9,11.8c0,0.1,0,0.1-0.1,0.2c0,0-0.1,0-0.1,0
						c0,0,0,0,0,0c0,0,0,0,0,0C13.7,11.9,13.8,11.9,13.9,11.8C13.9,11.8,13.9,11.8,13.9,11.8C13.9,11.8,13.9,11.8,13.9,11.8
						C13.9,11.8,13.9,11.8,13.9,11.8z M7.5,12.1c0.1,0.1,0.1,0.1,0.1,0.2c0,0.1,0,0.1,0,0.1c0,0.1-0.2,0.2-0.3,0.2
						c-0.1,0.1-0.3,0.1-0.5,0.2c-0.1,0-0.2,0.1-0.2,0.1c-0.1,0-0.1-0.1-0.2-0.1c0-0.1,0-0.1,0-0.2c0-0.1,0-0.2,0.1-0.2c0,0,0,0,0,0
						c0.1,0,0.2-0.1,0.3-0.1c0.2,0,0.3,0,0.5-0.1C7.4,12.2,7.5,12.1,7.5,12.1z M4.4,12.3C4.5,12.3,4.5,12.3,4.4,12.3
						c0,0.1,0,0.2-0.1,0.2c0,0,0,0,0,0c0,0,0,0,0,0c0,0,0,0,0,0c0.1,0,0.2-0.1,0.2-0.1c0,0,0.1,0,0.1,0.1c-0.1,0.1-0.3,0.2-0.5,0
						C4.3,12.5,4.4,12.4,4.4,12.3z M11.9,12.5c0,0.1-0.1,0.2-0.1,0.2c0,0-0.1,0-0.1,0c0,0,0.1,0,0.1-0.1
						C11.8,12.6,11.8,12.6,11.9,12.5C11.8,12.6,11.8,12.6,11.9,12.5C11.9,12.6,11.9,12.5,11.9,12.5z M14.5,12.6
						c0.2,0,0.3,0.1,0.3,0.2c0,0,0,0,0,0c0,0,0,0.1,0,0.1c0,0.1,0,0.2,0,0.3c0,0.2,0,0.4,0,0.4c-0.2,0.2-0.4,0-0.4-0.1
						c0,0,0-0.2-0.1-0.4c0-0.1,0-0.2-0.1-0.3c0,0,0-0.1,0-0.1C14.3,12.6,14.4,12.6,14.5,12.6z M13.8,12.6c0.1,0,0.2,0,0.2,0.1
						c0,0,0,0.1,0,0.1c0,0.1,0,0.2,0.1,0.3c0,0.2,0.1,0.4,0.1,0.4c-0.1,0.1-0.4,0.2-0.5,0c0,0,0,0,0,0l-0.2-0.8
						C13.6,12.7,13.7,12.6,13.8,12.6z M7.6,12.6c0.1,0.1,0.2,0.1,0.2,0.2c0,0.1,0.1,0.1,0.1,0.2c0,0.1-0.1,0.2-0.2,0.3
						c-0.1,0.1-0.3,0.2-0.5,0.2c-0.1,0-0.2,0.1-0.2,0.1c-0.1,0-0.1,0-0.2,0c-0.1,0-0.1-0.1-0.1-0.2c0-0.1-0.1-0.2,0-0.2
						c0,0,0-0.1,0-0.1c0.3-0.1,0.6-0.2,0.9-0.3C7.5,12.7,7.6,12.7,7.6,12.6z M13.2,12.7c0.1,0,0.2,0,0.2,0.1l0.2,0.8
						c-0.1,0.1-0.3,0.2-0.4,0.1l-0.3-0.8C12.9,12.8,13,12.7,13.2,12.7z M15,12.7c0.2,0,0.4,0.2,0.4,0.3l-0.2,0.8
						c0,0.1-0.3,0.1-0.4-0.2c0,0,0,0,0,0c0,0,0-0.2,0-0.5c0-0.1,0-0.2,0-0.3c0,0,0-0.1,0-0.1c0,0,0,0,0,0C14.9,12.7,15,12.7,15,12.7
						z M12.7,12.8c0,0,0.1,0,0.1,0l0.3,0.8c0,0.1-0.4,0.3-0.5,0.2l-0.3-0.8C12.3,13,12.5,12.8,12.7,12.8z M15.7,13
						c0.2,0,0.4,0.1,0.4,0.4l-0.3,0.8c-0.1,0-0.4-0.1-0.4-0.3l0.2-0.8C15.6,13,15.6,13,15.7,13z M12.1,13.1c0,0,0.1,0,0.1,0l0.3,0.8
						c0,0.2-0.3,0.3-0.5,0.2l-0.3-0.8c0,0,0,0,0,0C11.7,13.3,11.9,13.1,12.1,13.1z M7.9,13.2c0.2,0.1,0.2,0.2,0.2,0.3
						c0,0.1-0.1,0.2-0.2,0.3c-0.2,0.2-0.4,0.3-0.6,0.4c0,0-0.1,0-0.2-0.1c-0.1,0-0.1-0.1-0.2-0.2c0-0.1-0.1-0.1-0.1-0.2
						c0,0,0-0.1,0-0.1c0,0,0,0,0,0c0.3-0.1,0.6-0.2,0.9-0.4C7.9,13.3,7.9,13.2,7.9,13.2z M11.5,13.3c0,0,0.1,0,0.1,0l0.4,0.8
						c0,0.2-0.4,0.4-0.5,0.3l-0.3-0.9C11.1,13.5,11.3,13.4,11.5,13.3z M16.3,13.4c0.2,0,0.4,0.1,0.4,0.3l-0.3,0.8
						c-0.2,0.1-0.5-0.2-0.5-0.3l0.3-0.8C16.2,13.4,16.2,13.4,16.3,13.4z M10.9,13.6c0.1,0,0.1,0,0.2,0.1l0.3,0.9
						c0,0.1-0.4,0.3-0.6,0.2c0-0.1-0.2-0.5-0.2-0.7c0-0.1,0-0.2,0.1-0.2c0-0.1,0.1-0.1,0.1-0.2C10.8,13.6,10.8,13.6,10.9,13.6z
						 M14.3,13.7C14.3,13.7,14.3,13.7,14.3,13.7c0,0.1,0.4,0.2,0.5,0.1c0,0.1,0.2,0.3,0.4,0.3c0,0.1,0,0.2,0,0.2
						c0,0.1,0,0.3,0.2,0.5c0.1,0.1,0.6,0.2,0.6,0.6c0,0.3-0.2,0.4-0.3,0.4c0.1-0.2,0-0.3-0.2-0.3c-0.1,0-0.4,0-0.7,0c0,0,0,0,0,0.1
						c0,0,0,0,0.1,0c0.1,0,0.2,0,0.2,0.1c0,0,0,0,0,0c-0.4,0.3-1.3,1.2-1.3,1.5c0,0.1,0.1,0.2,0.2,0.2c0,0,0.4-0.2,0.6,0
						c-0.1,0.1,0,0.3,0,0.3c-0.2,0.2-0.5-0.1-1-0.1c-0.4,0-0.8,0.3-1.1,0.3c0,0-0.1,0-0.1,0c0,0,0-0.1,0-0.1c0,0,0,0,0,0
						c0,0,0,0,0,0c0,0,0,0,0,0c0,0,0,0,0,0c0,0,0,0,0,0c0,0,0,0,0,0c0,0-0.2,0-0.3,0c-0.1,0-0.3,0.1-0.5,0.2c-0.1,0-0.3,0.3-0.6,0.2
						c0-0.1,0-0.3-0.1-0.4c0,0,0,0,0.1-0.1c0.4-0.1,0.4,0.2,0.5,0c0.1-0.1,0.1,0.2,0.6-0.3c0,0,0,0,0,0c0,0,0,0,0,0c0,0,0,0,0,0
						c-0.6,0.3-0.5,0.1-0.7,0.1c-0.3,0-0.2,0.1-0.4,0.1c-0.1,0-0.2-0.1-0.2-0.1c0.1,0,0.1-0.2,0-0.3c0,0,0.1-0.1,0.2-0.1
						c0.2,0,0.3,0.2,0.6,0.3c0.2,0,0.4-0.2,0.5-0.1c0,0,0,0,0,0c0,0,0,0,0,0c1.1,0,2-2.4,1.8-2.7c0,0,0,0,0,0c0,0,0,0,0,0
						c0-0.1-0.1-0.2-0.2-0.2c0,0,0,0,0,0c0,0-0.1-0.3-0.3-0.3c0-0.1,0-0.1,0-0.1c0.1,0,0.2-0.1,0.3-0.1
						C13.8,13.8,14.3,13.8,14.3,13.7z M16.8,13.7c0.1,0,0.4,0.1,0.4,0.3l-0.3,0.7c-0.1,0.1-0.4,0-0.4,0c0,0,0-0.1,0-0.1l0.3-0.7
						C16.7,13.8,16.8,13.7,16.8,13.7z M8.1,13.8c0,0,0,0.1,0,0.1c0,0.2,0,0.4,0,0.6c0,0,0,0,0,0v0c0,0.1-0.1,0.2-0.1,0.2
						c-0.1,0-0.1,0-0.2,0c-0.1,0-0.3-0.2-0.4-0.4C7.7,14.2,7.9,14.1,8.1,13.8C8.1,13.8,8.1,13.8,8.1,13.8z M13.3,13.9
						c0,0.3-0.5,0.7-0.7,0.7c0,0,0,0,0,0c0,0-0.1,0-0.1-0.1C12.4,14.3,13.1,13.9,13.3,13.9z M15.2,14.1
						C15.2,14.1,15.2,14.1,15.2,14.1C15.2,14.1,15.2,14.1,15.2,14.1C15.2,14.1,15.2,14.1,15.2,14.1z M13.4,14.1
						c0.2,0,0.3,0.2,0.2,0.3c0,0-0.2,0.4-0.4,0.5c-0.1,0-0.2,0-0.2,0c-0.1,0-0.2-0.2-0.3-0.3C12.8,14.5,13.1,14.4,13.4,14.1
						C13.4,14.1,13.4,14.1,13.4,14.1z M17.3,14.1c0.1,0,0.4,0.1,0.4,0.3l-0.2,0.4c-0.1,0.1-0.5,0.1-0.5-0.1L17.3,14.1
						C17.3,14.1,17.3,14.1,17.3,14.1z M10.5,14.4c0.1,0,0.2,0.3,0.2,0.4l0,0c0,0-0.1,0.4-0.2-0.2C10.5,14.6,10.5,14.5,10.5,14.4
						C10.5,14.4,10.5,14.4,10.5,14.4z M13.7,14.4c0,0,0.1,0,0.1,0.1c0,0.2-0.1,0.4-0.1,0.6c-0.1,0-0.3,0-0.4-0.1c0,0,0-0.1,0-0.1
						C13.5,14.8,13.6,14.6,13.7,14.4C13.7,14.4,13.7,14.4,13.7,14.4z M17.8,14.5c0.1,0,0.3,0.2,0.4,0.4l0,0c0,0.1-0.4,0.1-0.5-0.1
						L17.8,14.5z M8.1,14.7c0,0.1,0,0.2,0,0.2c0,0-0.1-0.1-0.1-0.1c0,0,0,0,0,0C8.1,14.8,8.1,14.7,8.1,14.7z M11.3,16.4
						c0.1,0,0.1,0,0.1,0.1c0.1,0.1,0.1,0.2,0.2,0.3c0.1,0.1,0.4,0.3,0.5,0.3c-0.1,0-0.1,0-0.2,0c-0.2,0-0.3,0.1-0.6-0.2
						c0,0-0.1-0.1-0.2-0.1c-0.1,0-0.2-0.2-0.2-0.2c0.1-0.1,0.1-0.2,0.1-0.3C11.2,16.4,11.2,16.4,11.3,16.4z M10.9,16.5
						c0.1,0,0.1,0,0.2,0c0,0,0,0,0,0C11,16.5,11,16.5,10.9,16.5C10.8,16.5,10.8,16.5,10.9,16.5C10.8,16.5,10.8,16.5,10.9,16.5
						C10.9,16.5,10.9,16.5,10.9,16.5c0.1,0.1,0.1,0.1,0.1,0.1c0,0,0,0,0,0c0,0-0.2-0.2-0.3,0C10.7,16.5,10.8,16.5,10.9,16.5z
						 M17.2,16.5c0.1,0,0.1,0,0.2,0.1c0,0,0,0,0,0c0,0,0,0,0,0c-0.1,0-0.2-0.1-0.3-0.1c0,0,0,0,0,0c0,0,0,0,0,0c0,0,0,0,0,0
						c0.1,0,0.2,0.1,0.2,0.1c0,0,0,0-0.1,0.1c0,0-0.2-0.2-0.4,0C16.9,16.6,17.1,16.5,17.2,16.5z M5.7,16.6c0.1,0,0.1,0,0.2,0.1
						c0,0,0,0,0,0c0,0,0,0,0,0c0,0-0.1,0-0.2,0c0,0,0,0,0,0c0,0,0,0,0,0c0,0,0,0,0,0c0.1,0,0.1,0,0.1,0c0,0,0,0,0,0.1
						c-0.1,0-0.2-0.1-0.3,0C5.6,16.6,5.7,16.6,5.7,16.6z M10.9,16.7C10.9,16.7,10.9,16.7,10.9,16.7C10.9,16.7,10.9,16.7,10.9,16.7
						C10.9,16.7,10.9,16.7,10.9,16.7z M10.6,17.1C10.6,17.1,10.6,17.1,10.6,17.1C10.6,17.1,10.7,17.1,10.6,17.1
						C10.7,17.1,10.7,17.1,10.6,17.1c0,0.1-0.1,0.1-0.1,0.1c0,0,0,0,0,0c0,0,0,0,0,0c0,0,0,0,0,0c0.1-0.1,0.1,0,0.2,0c0,0,0,0,0,0.1
						c-0.1,0-0.2-0.1-0.3,0C10.4,17.1,10.5,17.1,10.6,17.1z M16.9,17.3C16.9,17.3,16.9,17.3,16.9,17.3
						C16.9,17.3,16.9,17.3,16.9,17.3c0,0.1-0.1,0.1-0.2,0.1c0,0,0,0,0,0c0,0,0,0,0,0c0,0,0,0,0,0c0.1,0,0.1,0,0.2,0c0,0,0,0,0,0
						c-0.1,0-0.2-0.1-0.3,0.2C16.5,17.3,16.7,17.3,16.9,17.3z M14.5,17.4C14.5,17.4,14.5,17.4,14.5,17.4c0.2,0,0.5,0.2,0.1,0.5
						c0.1-0.2-0.1-0.2-0.1-0.2c0,0,0,0,0,0c0.1,0,0.1,0,0.2,0.1c0,0,0,0,0,0c0,0,0,0,0,0c0,0,0,0,0,0c0-0.1-0.2-0.2-0.2-0.2
						C14.5,17.5,14.5,17.5,14.5,17.4z M5.5,17.5C5.5,17.5,5.5,17.5,5.5,17.5c-0.1,0.1-0.2,0.1-0.2,0.1c0,0,0,0,0,0c0,0,0,0,0,0
						c0,0,0,0,0,0c0.1,0,0.1,0,0.2,0c0,0,0,0.1,0,0.1c-0.1,0-0.2-0.1-0.3,0C5.2,17.5,5.4,17.4,5.5,17.5z M20.9,17.6
						c0.1,0,0.5,0.2,0.1,0.5c0.1-0.2-0.2-0.3-0.2-0.3c0,0,0,0,0,0c0.1,0,0.1,0,0.2,0.1c0,0,0,0,0,0c0,0,0,0,0,0c0,0,0,0,0,0
						C21,17.8,20.9,17.7,20.9,17.6C20.8,17.7,20.8,17.7,20.9,17.6z M17.2,17.9C17.2,17.9,17.2,17.9,17.2,17.9c0,0.1-0.1,0.1-0.2,0.3
						c0,0,0,0,0,0c0,0,0,0,0,0c0,0,0,0,0,0c0-0.1,0.1-0.1,0.2-0.1c0,0,0,0,0,0c-0.1,0-0.3,0-0.2,0.3C16.7,18,17.2,17.9,17.2,17.9z
						 M10.9,17.9C10.9,17.9,10.9,17.9,10.9,17.9c0,0.1-0.1,0.1-0.2,0.2c0,0,0,0,0,0c0,0,0,0,0,0c0,0,0,0,0,0c0-0.1,0.1-0.1,0.2-0.1
						c0,0,0,0.1,0,0.1c-0.1,0-0.2,0-0.3,0.1C10.5,18.1,10.7,17.9,10.9,17.9z M9.3,17.9c0.2,0,0.5,0.2,0.1,0.5
						c0.1-0.2-0.1-0.2-0.2-0.2c0,0,0,0,0-0.1c0.1,0,0.2,0,0.2,0.1c0,0,0,0,0,0c0,0,0,0,0,0c0,0,0,0,0,0C9.4,18.1,9.3,18,9.3,17.9
						C9.3,18,9.3,18,9.3,17.9z M5.7,18.3L5.7,18.3C5.7,18.3,5.8,18.3,5.7,18.3c0,0.1-0.1,0.1-0.1,0.2c0,0,0,0,0,0c0,0,0,0,0,0
						c0,0,0,0,0,0c0-0.1,0.1-0.1,0.1-0.1c0,0,0,0.1,0,0.1c-0.1,0-0.2,0-0.1,0.2C5.4,18.5,5.6,18.3,5.7,18.3z"/>
				</defs>
				<clipPath id="SVGID_6_">
					<use xlink:href="#SVGID_5_"  style="overflow:visible;"/>
				</clipPath>
				<g class="st5">
					<defs>
						<rect id="SVGID_7_" x="0.3" y="-0.1" width="24.1" height="24.1"/>
					</defs>
					<clipPath id="SVGID_8_">
						<use xlink:href="#SVGID_7_"  style="overflow:visible;"/>
					</clipPath>
					<rect x="-1.8" y="0" class="st6" width="28.4" height="23.7"/>
				</g>
			</g>
		</g>
	</g>
</g>
</svg>
