<?xml version="1.0" encoding="UTF-8" standalone="no"?>
<svg width="25px" height="25px" viewBox="0 0 25 25" version="1.1" xmlns="http://www.w3.org/2000/svg" xmlns:xlink="http://www.w3.org/1999/xlink">
    <!-- Generator: Sketch 39.1 (31720) - http://www.bohemiancoding.com/sketch -->
    <title>Northern Ireland</title>
    <desc>Created with Sketch.</desc>
    <defs>
        <polygon id="path-1" points="24.702 24.7895 24.702 0.7895 0.6772 0.7895 0.6772 24.7895 24.702 24.7895"></polygon>
        <path d="M2.723,0.855 C1.922,0.881 0.97,0.649 0.97,0.649 C0.799,0.759 0.841,1.018 0.926,1.179 C0.926,1.179 1.765,1.463 2.719,1.436 C3.325,1.417 3.9,1.26 4.223,1.156 C4.408,1.095 4.437,1.04 4.437,1.038 C4.591,0.793 4.499,0.635 4.266,0.586 C4.266,0.586 3.524,0.828 2.723,0.855 L2.723,0.855 Z" id="path-3"></path>
        <path d="M4.262,0.573 C4.255,0.575 3.513,0.815 2.722,0.842 C2.68,0.842 2.637,0.843 2.594,0.843 C1.832,0.843 0.982,0.638 0.973,0.636 L0.967,0.635 L0.963,0.638 C0.778,0.756 0.833,1.031 0.914,1.185 L0.917,1.191 L0.921,1.192 C0.93,1.194 1.696,1.451 2.587,1.451 C2.632,1.451 2.676,1.45 2.72,1.449 C3.302,1.432 3.861,1.287 4.226,1.168 C4.388,1.116 4.437,1.066 4.448,1.045 C4.522,0.926 4.544,0.819 4.509,0.735 C4.476,0.655 4.393,0.598 4.269,0.572 L4.265,0.572 L4.262,0.573 L4.262,0.573 Z M2.723,0.868 C3.49,0.842 4.212,0.617 4.267,0.599 C4.38,0.624 4.456,0.674 4.486,0.746 C4.516,0.821 4.495,0.919 4.426,1.031 L4.423,1.034 L4.423,1.035 C4.418,1.044 4.379,1.091 4.219,1.143 C3.855,1.261 3.298,1.406 2.719,1.422 C1.817,1.45 1.005,1.192 0.935,1.168 C0.86,1.022 0.81,0.772 0.973,0.663 C1.047,0.681 1.861,0.869 2.594,0.869 C2.637,0.869 2.68,0.869 2.723,0.868 L2.723,0.868 Z" id="path-5"></path>
        <polygon id="path-7" points="4.14 4.07 0.6 3.799 2.6 6.79 0.6 9.779 4.14 9.509 5.68 12.77 7.22 9.509 10.76 9.779 8.76 6.79 10.76 3.799 7.22 4.07 5.68 0.809"></polygon>
        <path d="M4.112,4.021 L0.508,3.745 L2.544,6.79 L0.508,9.834 L4.112,9.558 L5.68,12.879 L7.248,9.558 L10.852,9.834 L8.816,6.79 L10.852,3.745 L7.248,4.021 L5.68,0.7 L4.112,4.021 L4.112,4.021 Z M5.68,0.917 L7.192,4.119 L10.668,3.854 L8.704,6.79 L10.668,9.725 L7.192,9.459 L5.68,12.661 L4.168,9.459 L0.692,9.725 L2.657,6.79 L0.692,3.854 L4.168,4.119 L5.68,0.917 L5.68,0.917 Z" id="path-9"></path>
        <path d="M3.194,1.096 C2.997,1.161 2.896,1.226 2.62,1.221 C2.344,1.215 1.849,0.966 1.759,0.917 C1.669,0.869 1.536,0.82 1.414,0.826 C1.291,0.831 1.164,0.863 1.1,0.95 C1.037,1.037 1.037,1.145 1.037,1.145 C1.037,1.145 0.935,1.08 0.776,1.08 C0.616,1.08 0.526,1.102 0.452,1.188 C0.378,1.275 0.282,1.519 0.282,1.519 L0.462,1.936 L0.473,2.51 L0.85,3.117 L2.657,2.798 C4.486,3.104 4.524,3.204 4.522,3.214 L5.027,1.676 C5.027,1.676 5.08,1.373 4.942,1.188 C4.804,1.004 4.416,1.107 4.416,1.107 C4.416,1.107 4.363,0.858 4.193,0.799 C4.178,0.793 4.158,0.79 4.135,0.79 C3.91,0.79 3.372,1.038 3.194,1.096 L3.194,1.096 Z M4.522,3.214 L4.522,3.215 C4.522,3.215 4.522,3.215 4.522,3.214 L4.522,3.214 Z" id="path-11"></path>
        <path d="M3.39,0.986 C3.305,1.02 3.231,1.05 3.184,1.065 C3.143,1.079 3.106,1.092 3.071,1.105 C2.938,1.153 2.833,1.193 2.621,1.187 C2.373,1.183 1.926,0.97 1.775,0.889 C1.717,0.857 1.566,0.785 1.412,0.792 C1.3,0.797 1.151,0.826 1.074,0.93 C1.033,0.987 1.016,1.051 1.009,1.094 C0.962,1.073 0.881,1.047 0.776,1.047 C0.62,1.047 0.513,1.067 0.427,1.167 C0.35,1.257 0.255,1.496 0.252,1.507 L0.247,1.52 L0.43,1.943 L0.441,2.52 L0.834,3.154 L2.658,2.831 C4.337,3.113 4.485,3.219 4.495,3.23 C4.492,3.226 4.488,3.215 4.492,3.204 L4.549,3.235 L4.559,3.217 L4.557,3.212 L5.059,1.682 C5.061,1.669 5.113,1.362 4.968,1.169 C4.841,0.999 4.539,1.047 4.44,1.068 C4.418,0.994 4.351,0.819 4.204,0.767 C4.185,0.761 4.162,0.757 4.136,0.757 C3.979,0.757 3.693,0.865 3.39,0.986 L3.39,0.986 Z M3.093,1.168 C3.127,1.154 3.163,1.141 3.204,1.128 C3.253,1.112 3.327,1.082 3.414,1.048 C3.658,0.951 4.064,0.788 4.182,0.83 C4.333,0.882 4.384,1.112 4.384,1.115 L4.392,1.148 L4.424,1.139 C4.428,1.138 4.793,1.044 4.917,1.209 C5.044,1.378 4.997,1.665 4.997,1.665 L4.505,3.162 C4.335,3.076 3.717,2.942 2.662,2.765 L2.657,2.764 L0.867,3.081 L0.506,2.501 L0.495,1.935 L0.317,1.519 C0.337,1.467 0.416,1.281 0.476,1.21 C0.539,1.138 0.615,1.114 0.776,1.114 C0.923,1.114 1.018,1.172 1.019,1.173 L1.069,1.204 L1.069,1.145 C1.069,1.144 1.07,1.047 1.126,0.97 C1.191,0.881 1.335,0.863 1.415,0.859 C1.51,0.854 1.633,0.888 1.744,0.947 C1.749,0.95 2.306,1.248 2.619,1.254 C2.632,1.254 2.644,1.255 2.656,1.255 C2.857,1.255 2.966,1.214 3.093,1.168 L3.093,1.168 Z" id="path-13"></path>
        <path d="M2.674,0.35 C1.718,0.354 0.879,0.66 0.879,0.66 C0.879,0.66 0.834,0.682 0.805,0.747 C0.763,0.836 0.801,0.824 0.801,0.824 C0.801,0.824 0.773,0.875 0.793,0.942 C0.807,0.99 0.86,0.984 0.86,0.984 C0.86,0.984 0.846,1.03 0.85,1.094 C0.853,1.159 0.95,1.194 0.95,1.194 C0.95,1.194 1.894,0.931 2.696,0.931 C3.497,0.931 4.247,1.148 4.247,1.148 C4.247,1.148 4.4,1.113 4.438,1.094 C4.476,1.076 4.464,1.033 4.464,1.033 C4.464,1.033 4.524,1.03 4.531,0.984 C4.539,0.938 4.509,0.907 4.509,0.907 C4.509,0.907 4.55,0.869 4.554,0.827 C4.557,0.786 4.46,0.667 4.46,0.667 C4.46,0.66 3.639,0.35 2.69,0.35 L2.674,0.35 L2.674,0.35 Z" id="path-15"></path>
        <path d="M2.674,0.337 C1.727,0.34 0.884,0.643 0.874,0.647 C0.871,0.648 0.824,0.673 0.793,0.742 C0.771,0.788 0.767,0.815 0.778,0.83 C0.78,0.831 0.781,0.832 0.783,0.833 C0.775,0.855 0.766,0.896 0.78,0.946 C0.791,0.981 0.821,0.994 0.844,0.997 C0.84,1.016 0.833,1.052 0.836,1.095 C0.84,1.168 0.942,1.205 0.946,1.207 L0.95,1.208 L0.954,1.207 C0.963,1.204 1.905,0.944 2.696,0.944 C3.486,0.944 4.235,1.158 4.243,1.161 L4.246,1.162 L4.25,1.161 C4.256,1.16 4.405,1.126 4.443,1.106 C4.473,1.092 4.479,1.065 4.478,1.045 C4.5,1.04 4.538,1.027 4.544,0.986 C4.55,0.95 4.536,0.923 4.526,0.908 C4.54,0.894 4.564,0.863 4.566,0.829 C4.571,0.786 4.495,0.689 4.473,0.662 L4.469,0.657 C4.453,0.641 3.622,0.337 2.69,0.337 L2.674,0.337 L2.674,0.337 Z M0.816,0.752 C0.843,0.694 0.884,0.671 0.884,0.671 C0.893,0.669 1.732,0.367 2.674,0.364 L2.69,0.364 C3.587,0.364 4.397,0.648 4.451,0.677 C4.49,0.725 4.543,0.801 4.541,0.826 C4.538,0.862 4.5,0.897 4.5,0.897 L4.49,0.907 L4.5,0.917 C4.5,0.917 4.525,0.943 4.519,0.982 C4.513,1.016 4.463,1.021 4.463,1.021 L4.448,1.021 L4.451,1.037 C4.452,1.04 4.458,1.069 4.432,1.083 C4.399,1.1 4.27,1.13 4.247,1.135 C4.193,1.119 3.464,0.917 2.696,0.917 C1.929,0.917 1.02,1.161 0.951,1.18 C0.934,1.174 0.865,1.143 0.862,1.094 C0.859,1.032 0.873,0.988 0.873,0.988 L0.879,0.968 L0.859,0.971 C0.858,0.97 0.816,0.975 0.805,0.938 C0.787,0.878 0.812,0.83 0.812,0.83 L0.829,0.802 L0.798,0.812 C0.798,0.812 0.794,0.801 0.816,0.752 L0.816,0.752 Z" id="path-17"></path>
        <path d="M0.782,1.182 C0.819,1.324 0.8,1.442 0.8,1.442 C0.8,1.442 0.656,1.349 0.617,1.252 C0.587,1.175 0.567,1.043 0.567,1.043 L0.309,1.654 C0.309,1.654 0.35,1.617 0.493,1.607 C0.692,1.593 0.762,1.635 0.762,1.635 L0.876,1.616 L1.166,1.003 L0.641,0.812 C0.641,0.812 0.739,1.025 0.782,1.182 L0.782,1.182 Z" id="path-19"></path>
        <path d="M0.614,0.826 C0.615,0.827 0.712,1.037 0.753,1.19 C0.774,1.269 0.776,1.341 0.774,1.386 C0.729,1.351 0.666,1.294 0.645,1.24 C0.617,1.167 0.597,1.04 0.597,1.039 L0.581,0.934 L0.236,1.75 L0.328,1.678 C0.328,1.678 0.368,1.646 0.495,1.637 C0.677,1.625 0.747,1.662 0.747,1.662 L0.755,1.668 L0.896,1.643 L1.208,0.985 L0.584,0.759 L0.614,0.826 L0.614,0.826 Z M0.829,1.447 C0.83,1.442 0.85,1.321 0.81,1.174 C0.783,1.068 0.73,0.941 0.698,0.865 L1.124,1.02 L0.855,1.588 L0.766,1.604 C0.743,1.593 0.684,1.573 0.571,1.573 C0.547,1.573 0.52,1.574 0.491,1.577 C0.437,1.581 0.396,1.589 0.366,1.597 L0.557,1.146 C0.565,1.186 0.576,1.229 0.59,1.263 C0.63,1.369 0.778,1.464 0.783,1.467 L0.821,1.492 L0.829,1.447 L0.829,1.447 Z" id="path-21"></path>
        <path d="M2.188,0.676 C1.804,0.711 1.581,0.488 1.581,0.488 C1.581,0.488 1.438,0.816 1.202,0.875 C0.828,0.969 0.517,0.696 0.513,0.696 L0.722,1.152 C0.722,1.152 1.61,0.798 2.659,0.805 C4.233,0.816 4.679,1.137 4.679,1.137 L4.912,0.572 L4.738,0.676 L4.558,0.79 L4.354,0.87 L4.107,0.85 L3.888,0.686 L3.776,0.448 L3.592,0.622 L3.266,0.696 L2.946,0.612 L2.664,0.25 C2.664,0.25 2.454,0.653 2.188,0.676 L2.188,0.676 Z" id="path-23"></path>
        <path d="M2.642,0.239 C2.641,0.242 2.435,0.629 2.186,0.652 C1.819,0.685 1.6,0.473 1.598,0.47 L1.573,0.445 L1.559,0.478 C1.557,0.482 1.417,0.795 1.196,0.85 C0.91,0.922 0.66,0.776 0.535,0.682 C0.525,0.674 0.521,0.671 0.513,0.671 L0.473,0.671 L0.709,1.184 L0.731,1.176 C0.739,1.172 1.61,0.83 2.631,0.83 L2.659,0.83 C4.202,0.84 4.661,1.155 4.665,1.158 L4.691,1.176 L4.964,0.512 L4.725,0.655 L4.549,0.767 L4.35,0.844 L4.116,0.825 L3.908,0.67 L3.784,0.407 L3.58,0.599 L3.267,0.671 L2.96,0.59 L2.66,0.204 L2.642,0.239 L2.642,0.239 Z M2.191,0.701 C2.424,0.68 2.61,0.394 2.667,0.295 L2.931,0.635 L3.266,0.722 L3.604,0.645 L3.768,0.491 L3.865,0.698 L4.098,0.874 L4.358,0.895 L4.571,0.812 L4.75,0.699 L4.861,0.632 L4.668,1.1 C4.553,1.033 4.038,0.788 2.659,0.779 C1.708,0.777 0.877,1.067 0.734,1.12 L0.573,0.77 C0.717,0.862 0.948,0.964 1.208,0.899 C1.412,0.848 1.546,0.614 1.589,0.528 C1.653,0.581 1.832,0.705 2.105,0.705 C2.133,0.705 2.161,0.704 2.191,0.701 L2.191,0.701 Z" id="path-25"></path>
        <path d="M0.675,0.92 C0.675,1.066 0.79,1.184 0.932,1.184 C1.074,1.184 1.189,1.065 1.189,0.919 L1.01,0.919 C1.01,0.964 0.975,1.001 0.932,1.001 C0.889,1.001 0.854,0.964 0.854,0.919 C0.853,0.874 0.888,0.837 0.931,0.837 L0.932,0.837 C0.974,0.837 1.009,0.873 1.01,0.918 L1.189,0.917 C1.188,0.771 1.075,0.656 0.93,0.654 C0.789,0.655 0.674,0.774 0.675,0.92 L0.675,0.92 Z" id="path-27"></path>
        <path d="M0.523,0.848 C0.38,0.849 0.266,0.969 0.266,1.115 C0.267,1.26 0.382,1.378 0.523,1.378 L0.524,1.378 C0.666,1.378 0.781,1.26 0.781,1.114 L0.602,1.114 C0.602,1.159 0.568,1.196 0.524,1.196 L0.523,1.196 C0.481,1.196 0.445,1.159 0.445,1.114 C0.445,1.069 0.48,1.032 0.523,1.031 C0.567,1.031 0.602,1.068 0.602,1.113 L0.781,1.111 C0.78,0.966 0.665,0.848 0.523,0.848 L0.523,0.848 Z" id="path-29"></path>
        <path d="M0.404,0.54 C0.262,0.541 0.147,0.66 0.148,0.806 C0.148,0.952 0.264,1.07 0.405,1.07 C0.548,1.07 0.663,0.951 0.663,0.805 L0.484,0.805 C0.484,0.85 0.449,0.887 0.405,0.887 C0.362,0.887 0.327,0.85 0.327,0.805 C0.327,0.76 0.362,0.723 0.404,0.722 C0.445,0.719 0.484,0.759 0.484,0.804 L0.663,0.803 C0.662,0.657 0.547,0.54 0.405,0.54 L0.404,0.54 L0.404,0.54 Z" id="path-31"></path>
        <path d="M0.937,0.649 C0.796,0.65 0.681,0.77 0.682,0.916 C0.682,1.061 0.798,1.179 0.939,1.179 C1.081,1.178 1.197,1.06 1.197,0.915 L1.017,0.915 C1.017,0.96 0.982,0.997 0.939,0.997 C0.896,0.997 0.861,0.96 0.861,0.915 C0.86,0.869 0.895,0.832 0.938,0.832 C0.983,0.829 1.016,0.868 1.017,0.914 L1.197,0.912 C1.196,0.767 1.079,0.649 0.939,0.649 L0.937,0.649 L0.937,0.649 Z" id="path-33"></path>
        <path d="M0.344,0.991 C0.202,0.992 0.088,1.111 0.088,1.257 C0.089,1.403 0.204,1.52 0.345,1.52 L0.346,1.52 C0.488,1.52 0.603,1.402 0.603,1.256 L0.424,1.256 C0.424,1.301 0.389,1.338 0.346,1.339 L0.345,1.339 C0.303,1.339 0.268,1.302 0.267,1.257 C0.267,1.211 0.302,1.174 0.345,1.174 L0.346,1.174 C0.388,1.174 0.423,1.21 0.424,1.255 L0.603,1.254 C0.602,1.108 0.486,0.991 0.346,0.991 L0.344,0.991 L0.344,0.991 Z" id="path-35"></path>
        <path d="M0.52,0.552 C0.378,0.553 0.263,0.672 0.264,0.818 C0.264,0.963 0.38,1.081 0.521,1.081 C0.664,1.081 0.779,0.962 0.779,0.817 L0.6,0.817 C0.6,0.862 0.564,0.899 0.521,0.898 C0.478,0.898 0.443,0.863 0.443,0.817 C0.443,0.772 0.477,0.735 0.521,0.734 C0.564,0.734 0.599,0.771 0.6,0.816 L0.779,0.815 C0.778,0.669 0.663,0.552 0.521,0.552 L0.52,0.552 L0.52,0.552 Z" id="path-37"></path>
        <path d="M0.455,0.119 C0.313,0.12 0.198,0.239 0.198,0.385 C0.199,0.53 0.314,0.648 0.457,0.648 C0.598,0.648 0.714,0.529 0.714,0.384 L0.535,0.384 C0.535,0.429 0.5,0.465 0.457,0.466 L0.456,0.466 C0.413,0.466 0.378,0.43 0.377,0.384 C0.377,0.339 0.413,0.302 0.456,0.302 C0.5,0.3 0.534,0.338 0.534,0.383 L0.713,0.382 C0.712,0.236 0.597,0.119 0.456,0.119 L0.455,0.119 L0.455,0.119 Z" id="path-39"></path>
        <path d="M1.207,0.617 C1.066,0.618 0.951,0.736 0.952,0.882 C0.952,1.028 1.067,1.146 1.209,1.146 C1.351,1.146 1.467,1.027 1.467,0.881 L1.287,0.881 C1.287,0.926 1.252,0.963 1.209,0.963 C1.166,0.963 1.131,0.927 1.131,0.881 C1.13,0.836 1.165,0.799 1.208,0.798 L1.209,0.798 C1.251,0.798 1.286,0.835 1.287,0.88 L1.467,0.88 C1.466,0.734 1.35,0.617 1.209,0.617 L1.207,0.617 L1.207,0.617 Z" id="path-41"></path>
        <path d="M1.126,0.998 C0.983,0.999 0.869,1.118 0.869,1.264 C0.87,1.409 0.985,1.528 1.126,1.528 L1.127,1.528 C1.269,1.527 1.384,1.408 1.384,1.262 L1.206,1.262 C1.206,1.308 1.17,1.345 1.127,1.345 L1.126,1.345 C1.084,1.345 1.049,1.308 1.048,1.263 C1.048,1.218 1.083,1.18 1.126,1.18 C1.17,1.18 1.205,1.217 1.206,1.262 L1.384,1.26 C1.383,1.115 1.268,0.998 1.126,0.998 L1.126,0.998 Z" id="path-43"></path>
        <path d="M0.66,0.06 C0.518,0.06 0.404,0.179 0.404,0.325 C0.405,0.471 0.52,0.589 0.662,0.589 C0.803,0.589 0.919,0.47 0.919,0.324 L0.74,0.324 C0.74,0.369 0.705,0.406 0.662,0.406 C0.619,0.406 0.584,0.369 0.583,0.324 C0.583,0.279 0.618,0.242 0.661,0.241 L0.662,0.241 C0.704,0.241 0.74,0.278 0.74,0.323 L0.919,0.322 C0.918,0.177 0.803,0.06 0.662,0.06 L0.66,0.06 L0.66,0.06 Z" id="path-45"></path>
        <path d="M1.189,0.993 C1.047,0.994 0.932,1.114 0.933,1.26 C0.934,1.404 1.049,1.523 1.191,1.523 C1.333,1.522 1.448,1.404 1.448,1.258 L1.269,1.258 C1.269,1.304 1.234,1.34 1.191,1.34 C1.147,1.34 1.112,1.304 1.112,1.259 C1.112,1.213 1.147,1.176 1.191,1.176 C1.234,1.176 1.269,1.213 1.269,1.258 L1.448,1.256 C1.447,1.111 1.332,0.993 1.191,0.993 L1.189,0.993 L1.189,0.993 Z" id="path-47"></path>
        <path d="M0.516,1.092 C0.517,1.237 0.633,1.356 0.774,1.356 L0.775,1.356 C0.916,1.355 1.031,1.236 1.031,1.09 L0.852,1.09 C0.852,1.136 0.818,1.173 0.775,1.173 L0.774,1.173 C0.732,1.173 0.695,1.136 0.695,1.091 C0.695,1.045 0.731,1.008 0.774,1.008 C0.817,1.008 0.852,1.045 0.852,1.09 L1.031,1.089 C1.03,0.943 0.914,0.828 0.773,0.826 C0.631,0.827 0.516,0.946 0.516,1.092 L0.516,1.092 Z" id="path-49"></path>
        <path d="M0.374,0.635 C0.232,0.635 0.118,0.755 0.118,0.9 C0.119,1.046 0.234,1.164 0.375,1.164 L0.376,1.164 C0.517,1.164 0.633,1.045 0.633,0.9 L0.453,0.9 C0.453,0.945 0.418,0.981 0.376,0.981 L0.375,0.981 C0.333,0.981 0.298,0.945 0.297,0.9 C0.297,0.854 0.332,0.818 0.375,0.817 C0.418,0.817 0.453,0.854 0.453,0.899 L0.633,0.897 C0.632,0.752 0.516,0.635 0.375,0.635 L0.374,0.635 L0.374,0.635 Z" id="path-51"></path>
        <path d="M0.916,0.533 C0.775,0.534 0.661,0.653 0.661,0.799 C0.661,0.945 0.777,1.062 0.918,1.062 L0.919,1.062 C1.06,1.062 1.175,0.944 1.175,0.798 L0.996,0.798 C0.996,0.843 0.961,0.88 0.918,0.88 C0.875,0.88 0.84,0.843 0.84,0.798 C0.84,0.753 0.875,0.716 0.918,0.715 C0.961,0.715 0.996,0.752 0.996,0.797 L1.175,0.795 C1.174,0.65 1.059,0.533 0.918,0.533 L0.916,0.533 L0.916,0.533 Z" id="path-53"></path>
        <path d="M0.377,0.665 C0.236,0.665 0.12,0.784 0.121,0.93 C0.121,1.076 0.238,1.194 0.379,1.194 C0.521,1.194 0.636,1.075 0.636,0.929 L0.457,0.929 C0.457,0.974 0.422,1.011 0.379,1.011 C0.336,1.011 0.301,0.975 0.301,0.929 C0.3,0.884 0.335,0.847 0.378,0.846 L0.379,0.846 C0.421,0.846 0.456,0.883 0.457,0.928 L0.636,0.927 C0.635,0.783 0.519,0.665 0.379,0.665 L0.377,0.665 L0.377,0.665 Z" id="path-55"></path>
        <path d="M0.996,0.053 C0.854,0.053 0.74,0.173 0.74,0.319 C0.741,0.465 0.856,0.583 0.997,0.583 L0.998,0.583 C1.139,0.583 1.255,0.464 1.255,0.318 L1.076,0.318 C1.076,0.363 1.04,0.4 0.998,0.4 L0.997,0.4 C0.954,0.4 0.919,0.363 0.919,0.318 C0.919,0.273 0.954,0.236 0.997,0.235 C1.04,0.235 1.076,0.272 1.076,0.317 L1.255,0.316 C1.254,0.17 1.139,0.053 0.998,0.053 L0.996,0.053 L0.996,0.053 Z" id="path-57"></path>
        <path d="M0.581,0.863 C0.582,1.008 0.697,1.127 0.839,1.127 L0.84,1.127 C0.981,1.126 1.096,1.007 1.096,0.862 L0.917,0.862 C0.917,0.908 0.882,0.944 0.84,0.944 L0.839,0.944 C0.796,0.944 0.761,0.908 0.76,0.863 C0.76,0.817 0.796,0.78 0.839,0.78 C0.882,0.78 0.917,0.816 0.917,0.862 L1.096,0.86 C1.095,0.714 0.979,0.598 0.838,0.597 C0.696,0.598 0.581,0.718 0.581,0.863 L0.581,0.863 Z" id="path-59"></path>
        <path d="M0.908,0.165 C0.766,0.166 0.652,0.285 0.652,0.431 C0.652,0.576 0.768,0.695 0.91,0.695 C1.052,0.694 1.167,0.575 1.167,0.43 L0.988,0.43 C0.988,0.475 0.953,0.512 0.91,0.512 C0.867,0.512 0.832,0.475 0.831,0.43 C0.831,0.385 0.866,0.348 0.909,0.348 L0.91,0.348 C0.952,0.348 0.987,0.385 0.988,0.43 L1.167,0.428 C1.165,0.283 1.05,0.165 0.91,0.165 L0.908,0.165 L0.908,0.165 Z" id="path-61"></path>
        <path d="M1.165,0.679 C1.024,0.68 0.91,0.799 0.91,0.945 C0.911,1.091 1.026,1.209 1.167,1.209 L1.168,1.209 C1.309,1.209 1.425,1.09 1.425,0.944 L1.246,0.944 C1.246,0.989 1.21,1.026 1.167,1.026 C1.124,1.026 1.089,0.989 1.089,0.944 C1.089,0.899 1.124,0.862 1.167,0.861 C1.21,0.861 1.246,0.898 1.246,0.943 L1.425,0.942 C1.424,0.797 1.309,0.679 1.167,0.679 L1.165,0.679 L1.165,0.679 Z" id="path-63"></path>
        <path d="M0.516,0.317 L0.529,0.607 C0.529,0.607 0.191,0.637 0.178,0.668 C0.112,0.818 0.256,1.02 0.256,1.02 C0.256,1.02 0.37,0.934 0.656,0.934 C0.928,0.934 1.067,1.001 1.067,1.001 C1.067,1.001 1.14,0.884 1.14,0.798 C1.14,0.711 1.109,0.625 1.109,0.625 C1.109,0.625 0.971,0.607 0.928,0.607 L0.807,0.607 L0.795,0.311 L0.516,0.317 L0.516,0.317 Z" id="path-65"></path>
        <path d="M0.487,0.288 L0.498,0.58 C0.172,0.611 0.157,0.641 0.151,0.656 C0.08,0.82 0.227,1.029 0.233,1.037 L0.25,1.061 L0.273,1.044 C0.275,1.044 0.386,0.963 0.656,0.963 C0.917,0.963 1.054,1.028 1.055,1.028 L1.078,1.04 L1.092,1.017 C1.095,1.012 1.169,0.891 1.169,0.798 C1.169,0.708 1.138,0.619 1.137,0.615 L1.131,0.598 L1.113,0.596 C1.108,0.595 0.972,0.577 0.928,0.577 L0.835,0.577 L0.823,0.28 L0.487,0.288 L0.487,0.288 Z M0.202,0.686 C0.235,0.671 0.395,0.648 0.532,0.637 L0.559,0.634 L0.547,0.346 L0.767,0.341 L0.779,0.637 L0.928,0.637 C0.956,0.637 1.041,0.647 1.088,0.652 C1.096,0.681 1.11,0.74 1.11,0.798 C1.11,0.854 1.074,0.928 1.055,0.964 C1.002,0.945 0.869,0.904 0.656,0.904 C0.437,0.904 0.316,0.954 0.265,0.98 C0.233,0.926 0.161,0.791 0.202,0.686 L0.202,0.686 Z" id="path-67"></path>
        <path d="M2.645,0.793 C1.854,0.831 1.459,0.917 1.281,0.974 C1.104,1.031 0.671,1.203 0.682,1.2 C0.682,1.2 0.794,1.305 0.823,1.4 C0.852,1.494 0.897,1.746 0.897,1.746 C0.897,1.746 2.057,1.419 2.627,1.445 C3.196,1.472 4.508,1.765 4.508,1.765 C4.508,1.765 4.531,1.622 4.556,1.472 C4.582,1.32 4.689,1.155 4.689,1.155 C4.689,1.155 3.547,0.79 2.755,0.79 C2.717,0.79 2.681,0.791 2.645,0.793 L2.645,0.793 Z" id="path-69"></path>
        <path d="M2.644,0.779 C1.829,0.818 1.437,0.91 1.277,0.961 C1.272,0.963 0.786,1.137 0.687,1.186 L0.686,1.184 L0.678,1.187 L0.679,1.19 C0.673,1.193 0.669,1.195 0.669,1.197 L0.668,1.204 L0.676,1.212 C0.693,1.229 0.785,1.321 0.811,1.404 C0.84,1.496 0.884,1.746 0.885,1.749 L0.886,1.763 L0.901,1.76 C0.912,1.756 1.978,1.456 2.559,1.456 C2.582,1.456 2.605,1.457 2.626,1.458 C3.188,1.484 4.492,1.775 4.505,1.779 L4.519,1.781 L4.521,1.768 C4.521,1.766 4.543,1.623 4.569,1.473 C4.594,1.328 4.699,1.164 4.7,1.162 L4.71,1.148 L4.693,1.142 C4.682,1.138 3.538,0.777 2.752,0.777 C2.715,0.777 2.679,0.778 2.644,0.779 L2.644,0.779 Z M0.835,1.395 C0.812,1.319 0.738,1.237 0.706,1.204 C0.788,1.171 1.131,1.035 1.285,0.986 C1.444,0.936 1.832,0.845 2.646,0.807 C3.377,0.771 4.52,1.116 4.669,1.162 C4.642,1.207 4.565,1.342 4.543,1.469 C4.522,1.591 4.503,1.71 4.497,1.749 C4.357,1.718 3.16,1.456 2.627,1.432 C2.605,1.43 2.583,1.43 2.559,1.43 C2.01,1.43 1.035,1.695 0.907,1.73 C0.897,1.675 0.861,1.478 0.835,1.395 L0.835,1.395 Z" id="path-71"></path>
        <path d="M0.414,0.413 C0.407,0.413 0.494,0.498 0.535,0.576 C0.576,0.653 0.556,0.777 0.556,0.777 C0.556,0.777 0.462,0.801 0.362,0.756 C0.262,0.709 0.217,0.589 0.217,0.589 L0.217,1.212 C0.217,1.212 0.323,1.082 0.383,1.039 C0.444,0.996 0.565,0.996 0.565,0.996 C0.565,0.996 0.583,1.086 0.538,1.171 C0.468,1.305 0.299,1.486 0.299,1.486 L1.013,1.458 C1.013,1.458 0.843,1.225 0.801,1.162 C0.758,1.101 0.758,0.996 0.758,0.996 C0.758,0.996 0.848,1.013 0.938,1.061 C1.011,1.1 1.134,1.221 1.134,1.221 L1.134,0.573 C1.134,0.573 1.007,0.666 0.947,0.719 C0.885,0.771 0.749,0.771 0.749,0.771 C0.749,0.771 0.743,0.654 0.765,0.583 C0.79,0.5 0.913,0.413 0.913,0.413 L0.414,0.413 L0.414,0.413 Z" id="path-73"></path>
        <path d="M0.389,0.396 C0.376,0.416 0.388,0.43 0.41,0.456 C0.435,0.486 0.483,0.541 0.509,0.591 C0.535,0.64 0.533,0.715 0.53,0.751 C0.499,0.756 0.438,0.758 0.374,0.729 C0.287,0.688 0.245,0.579 0.245,0.578 L0.188,0.589 L0.188,1.294 L0.239,1.231 C0.241,1.23 0.344,1.104 0.4,1.063 C0.434,1.039 0.498,1.029 0.539,1.027 C0.541,1.056 0.538,1.108 0.512,1.158 C0.445,1.285 0.28,1.464 0.278,1.466 L0.228,1.519 L1.069,1.486 L1.036,1.441 C1.036,1.441 0.867,1.207 0.825,1.145 C0.803,1.114 0.794,1.067 0.791,1.035 C0.823,1.044 0.874,1.061 0.923,1.087 C0.993,1.125 1.112,1.242 1.113,1.242 L1.163,1.291 L1.163,0.515 L1.117,0.549 C1.111,0.553 0.988,0.643 0.928,0.695 C0.893,0.725 0.823,0.737 0.778,0.739 C0.777,0.702 0.779,0.636 0.793,0.592 C0.811,0.531 0.898,0.46 0.929,0.438 L1.006,0.383 L0.418,0.383 L0.401,0.378 L0.389,0.396 L0.389,0.396 Z M0.563,0.806 L0.582,0.801 L0.585,0.782 C0.586,0.776 0.605,0.647 0.56,0.562 C0.538,0.52 0.503,0.476 0.476,0.442 L0.83,0.442 C0.794,0.477 0.751,0.525 0.737,0.574 C0.714,0.649 0.721,0.767 0.721,0.773 L0.722,0.801 L0.749,0.801 C0.765,0.801 0.899,0.799 0.965,0.741 C1.001,0.71 1.063,0.663 1.105,0.631 L1.105,1.153 C1.061,1.114 0.998,1.06 0.951,1.035 C0.859,0.985 0.768,0.967 0.764,0.967 L0.73,0.96 L0.73,0.996 C0.73,1 0.73,1.111 0.777,1.18 C0.808,1.225 0.905,1.359 0.956,1.432 L0.367,1.454 C0.424,1.389 0.515,1.278 0.563,1.186 C0.613,1.091 0.595,0.994 0.594,0.99 L0.589,0.966 L0.565,0.966 C0.559,0.966 0.434,0.967 0.367,1.015 C0.332,1.04 0.283,1.091 0.246,1.133 L0.246,0.696 C0.271,0.729 0.306,0.762 0.351,0.783 C0.403,0.807 0.454,0.813 0.493,0.813 C0.533,0.813 0.56,0.807 0.563,0.806 L0.563,0.806 Z" id="path-75"></path>
        <path d="M0.655,1.015 C0.562,1.037 0.222,1.189 0.073,1.682 C-0.033,2.028 0.09,2.446 0.197,2.633 C0.304,2.821 0.476,3.011 0.476,3.011 L0.66,2.884 C0.66,2.884 0.193,2.481 0.248,1.957 C0.304,1.433 0.561,1.312 0.561,1.312 C0.561,1.312 0.877,1.059 1.3,1.298 C1.724,1.538 2.139,1.647 2.139,1.647 C2.139,1.647 2.529,1.744 2.563,1.739 C2.597,1.735 2.371,1.47 2.375,1.468 C2.367,1.468 2.016,1.462 1.715,1.281 C1.473,1.134 1.229,0.983 0.912,0.983 C0.831,0.983 0.746,0.993 0.655,1.015 L0.655,1.015 Z" id="path-77"></path>
        <path d="M0.648,0.986 C0.643,0.987 0.22,1.096 0.045,1.673 C-0.064,2.031 0.065,2.461 0.172,2.648 C0.279,2.836 0.448,3.023 0.455,3.031 L0.472,3.05 L0.708,2.887 L0.678,2.861 C0.674,2.858 0.224,2.462 0.277,1.961 C0.33,1.463 0.57,1.34 0.579,1.335 C0.591,1.325 0.886,1.098 1.287,1.324 C1.709,1.564 2.128,1.675 2.132,1.676 C2.251,1.706 2.531,1.771 2.567,1.768 L2.587,1.764 L2.593,1.747 C2.603,1.722 2.592,1.693 2.433,1.495 C2.415,1.474 2.403,1.458 2.399,1.453 L2.382,1.464 L2.388,1.442 L2.366,1.431 L2.361,1.439 C2.292,1.435 1.991,1.412 1.731,1.255 L1.714,1.245 C1.476,1.101 1.23,0.954 0.912,0.954 C0.829,0.954 0.742,0.963 0.648,0.986 L0.648,0.986 Z M0.222,2.618 C0.12,2.44 -0.002,2.031 0.101,1.691 C0.266,1.145 0.658,1.044 0.661,1.044 C0.75,1.023 0.831,1.013 0.91,1.013 C1.215,1.013 1.452,1.157 1.685,1.296 L1.701,1.306 C1.976,1.473 2.288,1.494 2.36,1.498 C2.366,1.507 2.375,1.518 2.387,1.533 C2.416,1.57 2.484,1.653 2.518,1.703 C2.438,1.688 2.269,1.648 2.146,1.619 C2.143,1.618 1.731,1.508 1.315,1.272 C0.88,1.025 0.547,1.285 0.548,1.285 C0.537,1.29 0.276,1.42 0.219,1.954 C0.17,2.417 0.509,2.782 0.613,2.88 L0.481,2.971 C0.436,2.919 0.307,2.767 0.222,2.618 L0.222,2.618 Z" id="path-79"></path>
        <path d="M0.222,1.054 L0.41,1.432 L0.489,1.671 L0.638,1.624 C0.638,1.624 0.765,1.59 0.87,1.608 C0.962,1.624 1.093,1.757 1.093,1.757 L0.84,0.928 C0.84,0.928 0.76,1.219 0.71,1.299 C0.645,1.405 0.593,1.445 0.593,1.445 C0.593,1.445 0.579,1.309 0.619,1.147 C0.652,1.014 0.788,0.828 0.788,0.828 L0.222,1.054 L0.222,1.054 Z" id="path-81"></path>
        <path d="M0.18,1.038 L0.382,1.444 L0.47,1.708 L0.646,1.654 C0.647,1.654 0.768,1.621 0.865,1.638 C0.923,1.648 1.013,1.72 1.072,1.778 L1.093,1.799 L1.128,1.766 L0.839,0.821 L0.811,0.919 C0.789,0.999 0.723,1.22 0.685,1.283 C0.661,1.322 0.638,1.352 0.621,1.374 C0.621,1.32 0.626,1.24 0.648,1.154 C0.678,1.029 0.811,0.848 0.812,0.846 L0.875,0.761 L0.18,1.038 L0.18,1.038 Z M0.439,1.422 L0.264,1.07 L0.708,0.893 C0.665,0.96 0.609,1.059 0.589,1.14 C0.549,1.304 0.562,1.442 0.563,1.448 L0.569,1.502 L0.611,1.47 C0.613,1.468 0.668,1.425 0.735,1.315 C0.768,1.262 0.813,1.126 0.84,1.033 L1.034,1.663 C0.986,1.626 0.927,1.587 0.875,1.578 C0.851,1.573 0.827,1.572 0.803,1.572 C0.715,1.572 0.634,1.593 0.63,1.595 L0.508,1.633 L0.439,1.422 L0.439,1.422 Z" id="path-83"></path>
        <path d="M1.674,1.274 C1.372,1.456 1.022,1.462 1.015,1.462 C1.018,1.464 0.792,1.727 0.827,1.732 C0.861,1.736 1.25,1.64 1.25,1.64 C1.25,1.64 1.665,1.531 2.089,1.292 C2.512,1.052 2.828,1.305 2.828,1.305 C2.828,1.305 3.086,1.427 3.141,1.95 C3.197,2.474 2.792,2.844 2.792,2.844 L3.013,2.924 C3.013,2.924 3.086,2.814 3.192,2.627 C3.299,2.439 3.421,2.021 3.316,1.675 C3.167,1.182 2.827,1.03 2.735,1.008 C2.643,0.986 2.557,0.976 2.477,0.976 C2.16,0.976 1.916,1.128 1.674,1.274 L1.674,1.274 Z" id="path-85"></path>
        <path d="M1.675,1.239 L1.658,1.249 C1.399,1.405 1.097,1.428 1.028,1.431 L1.023,1.424 L1.001,1.435 L1.007,1.458 L0.99,1.447 C0.987,1.451 0.974,1.467 0.957,1.488 C0.797,1.687 0.786,1.715 0.796,1.741 L0.806,1.76 L0.823,1.762 C0.86,1.764 1.138,1.699 1.257,1.669 C1.262,1.668 1.681,1.557 2.103,1.317 C2.503,1.09 2.798,1.318 2.816,1.331 C2.818,1.332 3.059,1.456 3.112,1.953 C3.165,2.455 2.776,2.817 2.773,2.822 L2.737,2.855 L3.024,2.96 L3.037,2.941 C3.037,2.94 3.111,2.827 3.217,2.641 C3.324,2.455 3.453,2.025 3.344,1.666 C3.169,1.089 2.746,0.98 2.741,0.979 C2.648,0.956 2.56,0.946 2.477,0.946 C2.159,0.946 1.914,1.095 1.675,1.239 L1.675,1.239 Z M1.002,1.526 C1.014,1.512 1.023,1.5 1.029,1.491 C1.101,1.488 1.413,1.466 1.688,1.3 L1.704,1.29 C1.996,1.115 2.296,0.933 2.728,1.037 C2.732,1.038 3.123,1.138 3.288,1.684 C3.392,2.024 3.268,2.433 3.167,2.611 C3.088,2.752 3.026,2.849 3.001,2.889 L2.846,2.832 C2.945,2.727 3.217,2.394 3.17,1.947 C3.114,1.413 2.852,1.283 2.846,1.281 C2.844,1.278 2.51,1.018 2.074,1.266 C1.659,1.501 1.247,1.611 1.243,1.611 C1.12,1.642 0.951,1.682 0.872,1.697 C0.905,1.646 0.973,1.563 1.002,1.526 L1.002,1.526 Z" id="path-87"></path>
        <path d="M0.653,0.317 C0.386,0.318 0.171,0.521 0.172,0.772 C0.173,1.022 0.389,1.224 0.657,1.223 C0.924,1.223 1.14,1.02 1.14,0.77 L1.14,0.766 C1.137,0.517 0.921,0.317 0.657,0.317 L0.653,0.317 L0.653,0.317 Z" id="path-89"></path>
        <path d="M0.653,0.288 C0.37,0.288 0.142,0.506 0.143,0.773 C0.144,1.038 0.374,1.253 0.656,1.253 L0.657,1.253 C0.939,1.253 1.169,1.036 1.169,0.77 L1.11,0.77 C1.11,1.003 0.907,1.194 0.657,1.194 L0.656,1.194 C0.406,1.194 0.202,1.005 0.201,0.772 C0.199,0.539 0.403,0.348 0.653,0.347 L0.656,0.347 C0.905,0.347 1.109,0.535 1.11,0.767 L1.169,0.766 C1.167,0.502 0.937,0.288 0.656,0.288 L0.653,0.288 L0.653,0.288 Z" id="path-91"></path>
        <path d="M0.227,0.501 C0.227,0.505 0.382,0.62 0.451,0.706 C0.519,0.791 0.519,0.957 0.519,0.957 C0.519,0.957 0.444,0.964 0.31,0.912 C0.177,0.859 0.136,0.73 0.136,0.73 L0.149,1.469 C0.149,1.469 0.252,1.362 0.335,1.306 C0.393,1.267 0.523,1.259 0.523,1.259 L0.807,1.259 C0.807,1.259 0.947,1.259 1.046,1.319 C1.146,1.378 1.206,1.477 1.206,1.477 L1.209,0.695 C1.209,0.695 1.11,0.819 1.021,0.886 C0.932,0.951 0.805,0.953 0.805,0.953 C0.805,0.953 0.794,0.857 0.877,0.706 C0.961,0.554 1.059,0.494 1.059,0.494 L0.227,0.501 L0.227,0.501 Z" id="path-93"></path>
        <path d="M0.201,0.476 L0.201,0.501 C0.201,0.514 0.204,0.516 0.237,0.543 C0.284,0.581 0.382,0.66 0.432,0.721 C0.479,0.78 0.49,0.884 0.494,0.932 C0.463,0.929 0.403,0.921 0.319,0.889 C0.199,0.841 0.16,0.723 0.159,0.722 L0.111,0.73 L0.126,1.529 L0.167,1.486 C0.168,1.485 0.269,1.381 0.348,1.328 C0.391,1.298 0.49,1.286 0.523,1.285 L0.807,1.285 C0.809,1.285 0.942,1.285 1.035,1.34 C1.126,1.395 1.184,1.49 1.185,1.491 L1.23,1.565 L1.234,0.624 L1.19,0.679 C1.189,0.681 1.092,0.801 1.007,0.865 C0.947,0.909 0.869,0.923 0.829,0.926 C0.832,0.89 0.844,0.816 0.899,0.717 C0.978,0.574 1.071,0.516 1.072,0.516 L1.149,0.468 L0.201,0.476 L0.201,0.476 Z M0.522,0.982 L0.544,0.98 L0.544,0.957 C0.544,0.95 0.543,0.781 0.469,0.69 C0.425,0.635 0.348,0.569 0.296,0.526 L0.987,0.52 C0.95,0.555 0.901,0.611 0.856,0.693 C0.769,0.851 0.78,0.952 0.781,0.957 L0.784,0.979 L0.806,0.979 C0.811,0.979 0.941,0.976 1.036,0.906 C1.09,0.865 1.146,0.806 1.184,0.762 L1.181,1.402 C1.153,1.369 1.111,1.328 1.059,1.297 C0.956,1.235 0.813,1.234 0.807,1.234 L0.521,1.234 C0.515,1.234 0.384,1.243 0.321,1.285 C0.269,1.32 0.211,1.373 0.173,1.41 L0.163,0.829 C0.191,0.868 0.236,0.909 0.301,0.935 C0.41,0.978 0.482,0.982 0.509,0.982 L0.522,0.982 L0.522,0.982 Z" id="path-95"></path>
        <path d="M2.109,0.63 C1.713,0.626 1.564,0.395 1.564,0.395 C1.564,0.395 1.452,0.836 1.114,0.86 C0.776,0.882 0.555,0.63 0.555,0.63 L0.501,0.713 C0.501,0.713 0.812,1.006 1.204,0.923 C1.596,0.841 1.609,0.552 1.609,0.552 C1.609,0.552 1.624,0.654 1.803,0.708 C1.982,0.76 2.191,0.759 2.375,0.689 C2.569,0.614 2.663,0.34 2.663,0.34 C2.663,0.34 2.654,0.373 2.686,0.432 C2.717,0.492 2.883,0.671 3.01,0.709 C3.2,0.766 3.405,0.769 3.553,0.717 C3.702,0.667 3.771,0.524 3.771,0.524 C3.771,0.524 3.838,0.747 3.951,0.839 C4.063,0.931 4.412,0.962 4.526,0.905 C4.748,0.794 4.961,0.584 4.961,0.584 L4.884,0.515 C4.884,0.515 4.514,0.795 4.384,0.832 C4.253,0.869 4.127,0.836 3.97,0.713 C3.811,0.589 3.82,0.364 3.82,0.364 C3.82,0.364 3.648,0.569 3.396,0.635 C3.284,0.663 3.036,0.608 2.954,0.533 C2.811,0.405 2.69,0.115 2.69,0.115 L2.618,0.106 C2.618,0.106 2.505,0.635 2.109,0.63 L2.109,0.63 Z" id="path-97"></path>
        <path d="M2.596,0.101 C2.595,0.106 2.483,0.606 2.114,0.606 L2.109,0.606 C1.732,0.601 1.585,0.384 1.584,0.383 L1.554,0.339 L1.542,0.39 C1.541,0.394 1.429,0.814 1.112,0.835 C0.79,0.858 0.575,0.617 0.572,0.614 L0.553,0.59 L0.471,0.717 L0.485,0.73 C0.497,0.741 0.735,0.962 1.061,0.962 C1.109,0.962 1.158,0.958 1.209,0.947 C1.494,0.887 1.587,0.717 1.618,0.621 C1.646,0.658 1.699,0.701 1.797,0.73 C1.99,0.787 2.203,0.779 2.383,0.711 C2.523,0.657 2.612,0.511 2.655,0.421 C2.658,0.428 2.661,0.436 2.665,0.444 C2.699,0.508 2.871,0.693 3.004,0.733 C3.198,0.79 3.406,0.793 3.56,0.741 C3.665,0.705 3.731,0.628 3.766,0.58 C3.792,0.652 3.851,0.788 3.936,0.857 C4.057,0.956 4.418,0.986 4.536,0.926 C4.76,0.815 4.968,0.609 4.977,0.601 L4.995,0.583 L4.885,0.484 L4.87,0.496 C4.866,0.499 4.503,0.774 4.378,0.809 C4.25,0.844 4.132,0.81 3.984,0.694 C3.837,0.579 3.844,0.366 3.844,0.365 L3.846,0.296 L3.803,0.348 C3.801,0.35 3.631,0.548 3.39,0.611 C3.285,0.638 3.046,0.584 2.969,0.515 C2.833,0.393 2.712,0.109 2.712,0.106 L2.706,0.094 L2.6,0.08 L2.596,0.101 L2.596,0.101 Z M2.114,0.654 C2.474,0.654 2.609,0.233 2.636,0.132 L2.674,0.138 C2.7,0.195 2.81,0.435 2.938,0.551 C3.026,0.63 3.281,0.689 3.402,0.658 C3.59,0.609 3.734,0.485 3.8,0.42 C3.808,0.499 3.838,0.64 3.955,0.732 C4.115,0.857 4.249,0.895 4.39,0.855 C4.51,0.822 4.81,0.6 4.882,0.546 L4.926,0.584 C4.87,0.637 4.695,0.794 4.515,0.884 C4.413,0.935 4.072,0.906 3.965,0.82 C3.86,0.734 3.794,0.519 3.793,0.518 L3.776,0.46 L3.75,0.513 C3.749,0.515 3.683,0.649 3.546,0.695 C3.399,0.744 3.202,0.742 3.018,0.687 C2.894,0.65 2.734,0.473 2.706,0.421 C2.681,0.373 2.686,0.347 2.686,0.347 L2.641,0.332 C2.641,0.335 2.549,0.596 2.367,0.666 C2.196,0.731 1.993,0.738 1.81,0.684 C1.649,0.637 1.633,0.552 1.633,0.548 L1.586,0.551 C1.585,0.562 1.567,0.823 1.199,0.9 C0.871,0.969 0.598,0.763 0.532,0.708 L0.559,0.668 C0.623,0.73 0.827,0.904 1.115,0.883 C1.405,0.863 1.534,0.561 1.573,0.445 C1.635,0.512 1.797,0.65 2.109,0.654 L2.114,0.654 L2.114,0.654 Z" id="path-99"></path>
        <path d="M0.734,0.764 C0.661,0.818 0.569,0.995 0.569,0.995 L0.567,1.374 L0.718,1.365 L0.714,1.285 C0.714,1.285 0.716,1.143 0.746,1.101 C0.788,1.042 0.846,1.039 0.875,1.047 C0.911,1.058 0.948,1.091 0.942,1.188 C0.936,1.286 0.909,1.334 0.938,1.371 C0.966,1.409 0.97,1.434 1.026,1.426 C1.081,1.417 1.105,1.398 1.092,1.347 C1.086,1.32 1.079,1.322 1.072,1.324 C1.065,1.326 1.058,1.328 1.054,1.307 C1.044,1.263 1.107,1.075 1.097,0.958 C1.087,0.844 1.044,0.752 0.958,0.729 C0.928,0.721 0.899,0.716 0.871,0.716 C0.825,0.716 0.781,0.729 0.734,0.764 L0.734,0.764 Z" id="path-101"></path>
        <path d="M0.71,0.732 C0.633,0.79 0.543,0.957 0.533,0.976 L0.529,0.985 L0.526,1.416 L0.759,1.403 L0.753,1.284 C0.755,1.221 0.766,1.144 0.778,1.125 C0.814,1.074 0.859,1.085 0.864,1.087 C0.875,1.089 0.908,1.099 0.902,1.186 C0.9,1.218 0.895,1.245 0.892,1.267 C0.884,1.316 0.877,1.358 0.906,1.396 C0.911,1.402 0.915,1.408 0.919,1.413 C0.936,1.439 0.956,1.468 1.007,1.468 C1.014,1.468 1.022,1.467 1.031,1.465 C1.063,1.461 1.1,1.452 1.122,1.419 C1.137,1.398 1.139,1.371 1.132,1.337 C1.128,1.32 1.12,1.3 1.101,1.288 C1.099,1.286 1.096,1.285 1.093,1.285 C1.095,1.263 1.103,1.226 1.109,1.196 C1.124,1.121 1.143,1.027 1.137,0.954 C1.124,0.809 1.064,0.715 0.968,0.69 C0.939,0.682 0.907,0.675 0.873,0.675 C0.822,0.675 0.768,0.689 0.71,0.732 L0.71,0.732 Z M0.608,1.005 C0.637,0.953 0.707,0.835 0.758,0.798 C0.823,0.748 0.879,0.75 0.948,0.768 C1.029,0.79 1.052,0.898 1.057,0.961 C1.063,1.023 1.045,1.11 1.03,1.18 C1.016,1.251 1.009,1.29 1.015,1.316 C1.019,1.329 1.025,1.348 1.043,1.359 C1.046,1.362 1.051,1.364 1.055,1.365 C1.056,1.372 1.055,1.374 1.055,1.374 C1.055,1.374 1.05,1.381 1.02,1.385 C0.999,1.388 0.999,1.388 0.984,1.366 C0.979,1.36 0.975,1.354 0.969,1.347 C0.962,1.337 0.964,1.321 0.971,1.281 C0.975,1.256 0.98,1.227 0.982,1.191 C0.99,1.058 0.925,1.019 0.885,1.008 C0.875,1.005 0.861,1.003 0.848,1.003 C0.804,1.003 0.753,1.022 0.714,1.077 C0.679,1.126 0.675,1.248 0.674,1.283 L0.676,1.327 L0.607,1.33 L0.608,1.005 L0.608,1.005 Z" id="path-103"></path>
        <path d="M0.991,0.977 C0.921,1.032 0.918,1.133 0.953,1.242 C0.99,1.354 1.121,1.501 1.129,1.546 C1.137,1.59 1.1,1.545 1.109,1.597 C1.119,1.65 1.148,1.657 1.201,1.643 C1.255,1.627 1.249,1.603 1.261,1.557 C1.273,1.511 1.229,1.478 1.186,1.391 C1.142,1.303 1.163,1.258 1.192,1.234 C1.216,1.214 1.269,1.194 1.331,1.231 C1.375,1.258 1.433,1.386 1.433,1.386 L1.461,1.462 L1.602,1.408 L1.452,1.062 C1.452,1.062 1.298,0.937 1.21,0.917 C1.19,0.913 1.17,0.91 1.152,0.91 C1.091,0.91 1.041,0.936 0.991,0.977 L0.991,0.977 Z" id="path-105"></path>
        <path d="M0.967,0.944 C0.889,1.006 0.87,1.117 0.915,1.255 C0.938,1.325 0.993,1.403 1.036,1.466 C1.052,1.491 1.074,1.521 1.084,1.541 C1.082,1.543 1.08,1.546 1.078,1.547 C1.066,1.565 1.067,1.587 1.07,1.604 C1.075,1.638 1.089,1.662 1.111,1.676 C1.127,1.686 1.144,1.689 1.161,1.689 C1.179,1.689 1.197,1.686 1.212,1.681 C1.28,1.663 1.288,1.623 1.295,1.588 C1.297,1.581 1.298,1.574 1.299,1.567 C1.311,1.52 1.289,1.484 1.263,1.443 C1.25,1.424 1.236,1.402 1.221,1.373 C1.182,1.294 1.209,1.273 1.218,1.266 C1.221,1.262 1.258,1.234 1.31,1.266 C1.33,1.278 1.371,1.346 1.396,1.402 L1.437,1.514 L1.656,1.431 L1.485,1.036 L1.477,1.031 C1.461,1.017 1.313,0.899 1.219,0.878 C1.195,0.872 1.173,0.87 1.152,0.87 C1.072,0.87 1.013,0.906 0.967,0.944 L0.967,0.944 Z M1.155,1.608 C1.155,1.608 1.153,1.606 1.151,1.599 C1.154,1.596 1.157,1.592 1.16,1.589 C1.173,1.572 1.171,1.552 1.168,1.538 C1.164,1.511 1.142,1.479 1.102,1.419 C1.061,1.361 1.011,1.288 0.992,1.23 C0.972,1.169 0.949,1.061 1.016,1.008 C1.072,0.963 1.122,0.939 1.202,0.957 C1.263,0.971 1.373,1.051 1.42,1.088 L1.549,1.385 L1.484,1.41 L1.469,1.369 C1.454,1.336 1.402,1.227 1.352,1.196 C1.276,1.15 1.205,1.171 1.167,1.203 C1.135,1.229 1.091,1.291 1.15,1.41 C1.166,1.441 1.182,1.466 1.196,1.488 C1.218,1.521 1.225,1.536 1.222,1.547 C1.22,1.556 1.219,1.564 1.217,1.572 C1.212,1.598 1.212,1.598 1.191,1.603 C1.176,1.608 1.166,1.609 1.161,1.609 C1.156,1.609 1.155,1.608 1.155,1.608 L1.155,1.608 Z" id="path-107"></path>
        <path d="M1.157,0.861 C1.071,0.886 0.923,1.018 0.923,1.018 L0.791,1.372 L0.936,1.418 L0.959,1.34 C0.959,1.34 1.01,1.21 1.053,1.181 C1.113,1.14 1.167,1.158 1.192,1.176 C1.222,1.199 1.245,1.243 1.206,1.332 C1.167,1.422 1.126,1.457 1.139,1.502 C1.153,1.547 1.148,1.572 1.203,1.584 C1.257,1.596 1.287,1.588 1.293,1.535 C1.299,1.482 1.265,1.528 1.27,1.483 C1.276,1.439 1.4,1.285 1.431,1.172 C1.46,1.061 1.451,0.96 1.379,0.908 C1.33,0.872 1.283,0.851 1.226,0.851 C1.205,0.851 1.182,0.853 1.157,0.861 L1.157,0.861 Z" id="path-109"></path>
        <path d="M1.146,0.822 C1.054,0.848 0.912,0.973 0.897,0.988 L0.89,0.994 L0.738,1.398 L0.962,1.469 L0.997,1.354 C1.019,1.297 1.056,1.228 1.075,1.214 C1.126,1.18 1.164,1.206 1.168,1.209 C1.177,1.216 1.205,1.236 1.17,1.316 C1.156,1.346 1.143,1.369 1.132,1.389 C1.107,1.431 1.087,1.468 1.101,1.515 C1.103,1.522 1.105,1.528 1.107,1.535 C1.116,1.57 1.126,1.609 1.195,1.624 C1.208,1.627 1.224,1.63 1.239,1.63 C1.259,1.63 1.278,1.626 1.295,1.613 C1.316,1.598 1.329,1.573 1.333,1.539 C1.334,1.522 1.335,1.501 1.322,1.483 C1.319,1.481 1.317,1.479 1.314,1.476 C1.324,1.457 1.344,1.425 1.359,1.4 C1.4,1.334 1.45,1.253 1.469,1.183 C1.507,1.042 1.483,0.933 1.403,0.875 C1.356,0.842 1.3,0.81 1.227,0.81 C1.202,0.81 1.175,0.814 1.146,0.822 L1.146,0.822 Z M0.844,1.346 L0.957,1.042 C1.001,1.003 1.107,0.917 1.168,0.9 C1.246,0.878 1.298,0.899 1.356,0.942 C1.425,0.991 1.408,1.1 1.392,1.161 C1.377,1.22 1.33,1.295 1.292,1.357 C1.254,1.419 1.234,1.452 1.231,1.479 C1.229,1.492 1.228,1.512 1.242,1.528 C1.245,1.533 1.248,1.536 1.251,1.538 C1.251,1.545 1.249,1.547 1.249,1.547 C1.249,1.547 1.241,1.551 1.211,1.545 C1.19,1.54 1.19,1.54 1.184,1.514 C1.182,1.507 1.18,1.499 1.178,1.491 C1.174,1.479 1.181,1.464 1.201,1.429 C1.214,1.408 1.228,1.382 1.243,1.349 C1.296,1.228 1.248,1.168 1.215,1.143 C1.194,1.127 1.163,1.115 1.127,1.115 C1.098,1.115 1.064,1.124 1.031,1.147 C0.982,1.18 0.936,1.292 0.922,1.325 L0.91,1.366 L0.844,1.346 L0.844,1.346 Z" id="path-111"></path>
        <path d="M0.388,0.794 C0.305,0.821 0.266,0.915 0.262,1.03 C0.257,1.147 0.33,1.332 0.323,1.376 C0.318,1.398 0.312,1.396 0.305,1.394 C0.298,1.393 0.29,1.391 0.286,1.418 C0.276,1.47 0.301,1.487 0.357,1.493 C0.412,1.499 0.415,1.473 0.441,1.434 C0.469,1.395 0.44,1.349 0.428,1.252 C0.417,1.155 0.453,1.119 0.488,1.107 C0.517,1.097 0.575,1.096 0.62,1.154 C0.651,1.195 0.661,1.335 0.661,1.335 L0.661,1.417 L0.812,1.417 L0.791,1.039 C0.791,1.039 0.689,0.867 0.614,0.817 C0.57,0.788 0.529,0.776 0.486,0.776 C0.455,0.776 0.423,0.782 0.388,0.794 L0.388,0.794 Z" id="path-113"></path>
        <path d="M0.377,0.755 C0.282,0.786 0.227,0.882 0.222,1.028 C0.219,1.101 0.243,1.194 0.262,1.268 C0.269,1.297 0.279,1.333 0.281,1.356 C0.279,1.357 0.276,1.358 0.274,1.36 C0.255,1.372 0.25,1.393 0.246,1.41 C0.24,1.444 0.244,1.471 0.261,1.492 C0.283,1.523 0.322,1.53 0.353,1.534 C0.359,1.534 0.365,1.535 0.37,1.535 C0.427,1.535 0.446,1.503 0.463,1.475 C0.467,1.47 0.47,1.464 0.475,1.457 C0.502,1.418 0.493,1.376 0.482,1.328 C0.477,1.306 0.472,1.279 0.468,1.248 C0.458,1.16 0.49,1.15 0.501,1.146 C0.506,1.144 0.549,1.131 0.588,1.18 C0.603,1.198 0.617,1.275 0.622,1.337 L0.622,1.457 L0.855,1.457 L0.83,1.027 L0.825,1.018 C0.814,1 0.717,0.837 0.636,0.783 C0.582,0.747 0.532,0.736 0.486,0.736 C0.447,0.736 0.41,0.745 0.377,0.755 L0.377,0.755 Z M0.361,1.452 C0.33,1.449 0.324,1.443 0.324,1.443 L0.324,1.434 C0.328,1.432 0.333,1.43 0.336,1.428 C0.354,1.416 0.359,1.397 0.361,1.383 C0.366,1.357 0.357,1.319 0.339,1.248 C0.322,1.178 0.299,1.092 0.302,1.032 C0.304,0.969 0.32,0.859 0.401,0.833 C0.469,0.811 0.524,0.806 0.593,0.852 C0.645,0.886 0.721,1.001 0.752,1.051 L0.77,1.376 L0.701,1.376 L0.701,1.332 C0.698,1.296 0.687,1.176 0.65,1.129 C0.595,1.059 0.522,1.052 0.476,1.068 C0.437,1.082 0.373,1.124 0.388,1.257 C0.393,1.292 0.399,1.321 0.405,1.346 C0.413,1.385 0.415,1.402 0.409,1.411 C0.404,1.419 0.399,1.426 0.396,1.432 C0.385,1.449 0.382,1.453 0.373,1.453 C0.37,1.453 0.366,1.453 0.361,1.452 L0.361,1.452 Z" id="path-115"></path>
        <path d="M2.678,0.733 C1.462,0.737 0.656,1.092 0.646,1.096 C0.644,1.097 0.615,1.12 0.612,1.151 C0.611,1.162 0.613,1.177 0.627,1.193 C0.631,1.207 0.645,1.253 0.677,1.263 C0.681,1.265 0.686,1.265 0.689,1.265 C0.703,1.265 0.716,1.258 0.73,1.246 C0.787,1.193 1.586,0.873 2.712,0.873 C3.872,0.873 4.618,1.205 4.626,1.209 C4.633,1.212 4.64,1.216 4.647,1.219 C4.676,1.235 4.704,1.249 4.743,1.205 C4.753,1.193 4.757,1.179 4.756,1.164 C4.754,1.119 4.705,1.075 4.702,1.072 L4.699,1.07 C4.692,1.067 3.908,0.733 2.705,0.733 L2.678,0.733 L2.678,0.733 Z M0.685,1.238 C0.667,1.232 0.654,1.195 0.652,1.184 L0.651,1.18 L0.648,1.177 C0.641,1.169 0.637,1.162 0.638,1.154 C0.639,1.138 0.655,1.122 0.659,1.12 C0.667,1.116 1.467,0.764 2.678,0.759 L2.705,0.759 C3.873,0.759 4.643,1.076 4.687,1.094 C4.7,1.106 4.729,1.138 4.73,1.165 C4.731,1.174 4.729,1.181 4.723,1.187 C4.698,1.216 4.688,1.211 4.658,1.195 C4.652,1.192 4.645,1.188 4.636,1.184 C4.629,1.181 3.877,0.846 2.712,0.846 C1.579,0.846 0.77,1.172 0.713,1.226 C0.705,1.234 0.697,1.238 0.69,1.238 L0.685,1.238 L0.685,1.238 Z" id="path-117"></path>
        <path d="M1.578,0.745 C1.559,0.849 1.558,0.977 1.56,1.117 C1.564,1.246 1.57,1.386 1.568,1.526 C1.561,2.058 1.551,2.621 1.531,2.787 C1.527,2.732 1.475,2.454 1.46,2.082 C1.455,1.936 1.447,1.758 1.44,1.589 C1.431,1.388 1.431,1.236 1.426,1.101 C1.424,1.02 1.393,0.786 1.239,0.8 C1.158,0.789 1.073,0.847 1.038,1.069 C1.02,1.192 1.02,1.406 1.017,1.569 C1.01,1.881 0.997,2.154 1.012,2.431 C1.021,2.604 1.02,2.737 1.021,2.822 C1.024,2.845 0.978,2.676 0.956,2.449 C0.935,2.243 0.917,1.988 0.915,1.998 C0.915,1.882 0.91,1.716 0.899,1.577 C0.892,1.467 0.896,1.345 0.778,1.355 C0.66,1.365 0.586,1.406 0.561,1.614 C0.545,1.749 0.541,2.042 0.537,2.147 C0.55,2.416 0.48,3.044 0.448,3.223 C0.439,3.35 0.389,3.513 0.369,3.69 C0.325,4.07 0.367,4.514 0.417,4.741 C0.515,5.1 0.77,5.261 0.757,5.505 C0.744,5.749 0.757,6.178 0.757,6.37 C0.757,6.563 0.921,6.573 1.26,6.499 C1.516,6.443 1.72,6.464 1.909,6.487 C2.128,6.512 2.329,6.537 2.576,6.441 C2.518,5.909 2.63,5.589 2.628,5.397 L2.638,5.336 C2.762,5.212 2.962,5.074 3.072,4.774 C3.176,4.493 3.226,3.979 3.321,3.718 C3.445,3.27 3.693,2.835 3.397,2.865 C3.115,2.892 3.024,3.171 2.917,3.375 C2.867,3.45 2.753,3.612 2.731,3.705 C2.727,3.55 2.65,3.098 2.634,2.644 C2.62,2.219 2.631,1.778 2.621,1.613 C2.606,1.396 2.608,1.191 2.558,1.03 C2.535,0.956 2.426,0.883 2.371,0.886 C2.257,0.887 2.189,0.988 2.173,1.083 C2.163,1.158 2.165,1.13 2.158,1.227 C2.148,1.35 2.16,1.508 2.152,1.647 C2.142,1.796 2.162,1.962 2.154,2.101 C2.137,2.382 2.118,2.639 2.109,2.692 C2.109,2.587 2.063,2.096 2.046,1.63 C2.041,1.452 2.036,1.278 2.034,1.116 C2.031,0.984 2.036,0.845 2.023,0.742 C2,0.569 1.945,0.488 1.82,0.488 C1.737,0.488 1.617,0.551 1.578,0.745 L1.578,0.745 Z" id="path-119"></path>
        <path d="M1.54,0.737 C1.518,0.848 1.518,0.985 1.521,1.118 L1.524,1.227 C1.527,1.325 1.53,1.425 1.529,1.526 C1.524,1.803 1.52,2.081 1.514,2.307 C1.508,2.237 1.504,2.162 1.501,2.081 C1.495,1.934 1.488,1.757 1.479,1.587 C1.474,1.467 1.472,1.365 1.47,1.273 C1.469,1.211 1.469,1.154 1.466,1.1 C1.466,1.08 1.46,0.89 1.362,0.802 C1.328,0.77 1.288,0.756 1.24,0.758 C1.166,0.75 1.042,0.783 0.999,1.063 C0.983,1.168 0.98,1.334 0.978,1.479 L0.976,1.568 C0.975,1.638 0.974,1.706 0.972,1.772 C0.969,1.888 0.966,2.001 0.965,2.111 C0.961,2.059 0.958,2.024 0.955,2.001 C0.955,1.894 0.95,1.722 0.939,1.575 L0.937,1.544 C0.932,1.467 0.928,1.388 0.877,1.344 C0.852,1.321 0.818,1.311 0.776,1.314 C0.639,1.326 0.549,1.379 0.522,1.61 C0.508,1.72 0.503,1.926 0.499,2.063 L0.497,2.149 C0.51,2.409 0.442,3.031 0.408,3.22 C0.404,3.282 0.389,3.358 0.372,3.437 C0.357,3.512 0.34,3.598 0.329,3.685 C0.282,4.088 0.332,4.542 0.378,4.752 C0.426,4.927 0.508,5.055 0.581,5.168 C0.66,5.29 0.723,5.387 0.717,5.502 C0.708,5.677 0.712,5.941 0.715,6.153 C0.716,6.239 0.717,6.314 0.717,6.37 C0.717,6.443 0.739,6.498 0.782,6.533 C0.824,6.568 0.885,6.582 0.96,6.582 C1.045,6.582 1.149,6.564 1.269,6.538 C1.524,6.482 1.723,6.506 1.916,6.528 C2.134,6.554 2.339,6.577 2.59,6.479 L2.619,6.467 L2.615,6.437 C2.577,6.082 2.615,5.823 2.643,5.633 C2.658,5.538 2.668,5.462 2.667,5.403 L2.675,5.356 C2.695,5.336 2.718,5.316 2.741,5.294 C2.864,5.182 3.016,5.042 3.109,4.789 C3.164,4.641 3.204,4.432 3.243,4.23 C3.279,4.037 3.314,3.855 3.359,3.729 C3.39,3.617 3.429,3.508 3.466,3.402 C3.554,3.149 3.618,2.966 3.547,2.874 C3.515,2.833 3.464,2.817 3.394,2.824 C3.129,2.85 3.021,3.071 2.927,3.266 C2.911,3.296 2.896,3.326 2.883,3.352 L2.861,3.386 C2.83,3.432 2.791,3.491 2.757,3.548 C2.753,3.508 2.747,3.463 2.742,3.414 C2.718,3.207 2.684,2.924 2.675,2.642 C2.667,2.417 2.666,2.183 2.666,1.995 C2.666,1.824 2.666,1.688 2.66,1.611 C2.658,1.565 2.655,1.519 2.653,1.475 C2.645,1.307 2.637,1.15 2.596,1.018 C2.568,0.926 2.441,0.843 2.371,0.846 C2.234,0.847 2.152,0.965 2.134,1.077 L2.13,1.1 C2.125,1.139 2.125,1.139 2.121,1.186 L2.118,1.224 C2.113,1.289 2.114,1.36 2.114,1.435 C2.115,1.505 2.116,1.577 2.111,1.644 C2.107,1.723 2.109,1.806 2.112,1.886 C2.115,1.962 2.117,2.034 2.113,2.099 C2.113,2.107 2.112,2.115 2.112,2.122 C2.102,1.967 2.092,1.796 2.087,1.628 C2.081,1.451 2.077,1.277 2.073,1.115 C2.073,1.077 2.073,1.038 2.072,1 C2.072,0.903 2.072,0.812 2.063,0.737 C2.045,0.603 2.001,0.448 1.82,0.448 C1.717,0.448 1.582,0.524 1.54,0.737 L1.54,0.737 Z M1.608,1.527 C1.61,1.424 1.607,1.323 1.604,1.225 L1.601,1.116 C1.597,0.988 1.597,0.857 1.618,0.752 C1.65,0.588 1.748,0.53 1.82,0.53 C1.902,0.53 1.959,0.566 1.983,0.748 C1.993,0.818 1.993,0.906 1.993,1 C1.993,1.038 1.993,1.078 1.994,1.117 C1.997,1.279 2.001,1.454 2.007,1.631 C2.017,1.915 2.037,2.206 2.053,2.417 C2.062,2.549 2.069,2.652 2.069,2.692 L2.148,2.698 C2.157,2.639 2.178,2.367 2.193,2.104 C2.197,2.035 2.195,1.961 2.192,1.883 C2.189,1.805 2.187,1.724 2.191,1.65 C2.196,1.579 2.195,1.505 2.194,1.434 C2.193,1.361 2.193,1.291 2.198,1.23 L2.2,1.192 C2.204,1.149 2.204,1.149 2.209,1.112 L2.213,1.09 C2.225,1.011 2.28,0.928 2.373,0.927 C2.411,0.925 2.502,0.985 2.52,1.042 C2.558,1.164 2.566,1.317 2.573,1.479 C2.576,1.523 2.577,1.569 2.58,1.616 C2.585,1.692 2.585,1.832 2.586,1.996 C2.586,2.184 2.586,2.419 2.594,2.645 C2.604,2.93 2.638,3.215 2.663,3.424 C2.677,3.55 2.69,3.649 2.691,3.706 L2.77,3.714 C2.787,3.641 2.874,3.51 2.927,3.432 L2.952,3.394 C2.967,3.364 2.982,3.333 2.998,3.302 C3.088,3.117 3.181,2.927 3.401,2.905 C3.443,2.9 3.471,2.907 3.484,2.923 C3.528,2.982 3.458,3.181 3.39,3.375 C3.353,3.482 3.314,3.593 3.284,3.703 C3.236,3.834 3.201,4.018 3.164,4.214 C3.126,4.413 3.087,4.619 3.035,4.76 C2.948,4.994 2.803,5.127 2.687,5.234 C2.659,5.259 2.633,5.284 2.61,5.307 L2.6,5.316 L2.588,5.397 C2.589,5.456 2.578,5.529 2.565,5.62 C2.536,5.809 2.498,6.065 2.532,6.413 C2.313,6.492 2.133,6.471 1.925,6.447 C1.735,6.425 1.52,6.4 1.252,6.459 C1.092,6.493 0.901,6.527 0.832,6.47 C0.817,6.457 0.797,6.434 0.797,6.37 C0.797,6.314 0.796,6.238 0.794,6.152 C0.792,5.941 0.788,5.679 0.797,5.507 C0.804,5.365 0.732,5.253 0.648,5.124 C0.579,5.016 0.499,4.893 0.455,4.733 C0.411,4.53 0.363,4.087 0.408,3.695 C0.418,3.611 0.434,3.531 0.451,3.453 C0.467,3.371 0.483,3.294 0.487,3.23 C0.519,3.049 0.59,2.421 0.578,2.149 L0.579,2.065 C0.583,1.929 0.588,1.725 0.601,1.619 C0.624,1.423 0.687,1.403 0.782,1.396 C0.786,1.395 0.788,1.395 0.792,1.395 C0.813,1.395 0.822,1.403 0.825,1.406 C0.85,1.427 0.854,1.492 0.857,1.549 L0.859,1.581 C0.87,1.728 0.875,1.897 0.875,2.002 L0.875,2.008 L0.876,2.008 C0.878,2.02 0.881,2.063 0.886,2.119 C0.893,2.211 0.904,2.34 0.916,2.452 C0.938,2.673 0.962,2.776 0.982,2.824 L0.982,2.826 L0.983,2.826 C1.001,2.867 1.016,2.865 1.026,2.865 L1.063,2.859 L1.062,2.821 C1.061,2.798 1.061,2.771 1.06,2.74 C1.059,2.658 1.058,2.554 1.052,2.428 C1.04,2.215 1.046,2.001 1.052,1.775 C1.054,1.708 1.055,1.64 1.056,1.57 L1.058,1.481 C1.06,1.337 1.063,1.174 1.078,1.075 C1.092,0.982 1.13,0.827 1.235,0.84 L1.238,0.84 L1.243,0.84 C1.269,0.838 1.29,0.845 1.309,0.862 C1.363,0.911 1.385,1.033 1.387,1.103 C1.389,1.157 1.389,1.214 1.39,1.275 C1.392,1.367 1.394,1.47 1.4,1.591 C1.407,1.76 1.415,1.937 1.421,2.083 C1.432,2.365 1.463,2.591 1.48,2.712 C1.486,2.75 1.489,2.776 1.49,2.79 L1.57,2.792 C1.591,2.628 1.6,2.1 1.608,1.527 L1.608,1.527 Z" id="path-121"></path>
    </defs>
    <g id="Page-1" stroke="none" stroke-width="1" fill="none" fill-rule="evenodd">
        <g id="Northern-Ireland" transform="translate(0.000000, -1.000000)">
            <g id="Group-3" transform="translate(0.000000, 0.710000)">
                <mask id="mask-2" fill="white">
                    <use xlink:href="#path-1"></use>
                </mask>
                <g id="Clip-2"></g>
                <path d="M24.4652,10.4195 L15.0592,10.4195 L15.0592,1.0255 C14.2932,0.8725 13.5012,0.7895 12.6892,0.7895 C11.8772,0.7895 11.0852,0.8725 10.3192,1.0255 L10.3192,10.4195 L0.9132,10.4195 C0.7592,11.1855 0.6772,11.9775 0.6772,12.7895 C0.6772,13.6015 0.7592,14.3935 0.9132,15.1595 L10.3192,15.1595 L10.3192,24.5535 C11.0852,24.7065 11.8772,24.7895 12.6892,24.7895 C13.5012,24.7895 14.2932,24.7065 15.0592,24.5535 L15.0592,15.1595 L24.4652,15.1595 C24.6192,14.3935 24.7022,13.6015 24.7022,12.7895 C24.7022,11.9775 24.6192,11.1855 24.4652,10.4195" id="Fill-1" fill="#CC0000" mask="url(#mask-2)"></path>
            </g>
            <g id="Group-6" transform="translate(10.000000, 7.710000)">
                <mask id="mask-4" fill="white">
                    <use xlink:href="#path-3"></use>
                </mask>
                <g id="Clip-5"></g>
                <polygon id="Fill-4" fill="#ECEBE3" mask="url(#mask-4)" points="-4.236 6.525 9.6 6.525 9.6 -4.502 -4.236 -4.502"></polygon>
            </g>
            <g id="Group-9" transform="translate(10.000000, 7.710000)">
                <mask id="mask-6" fill="white">
                    <use xlink:href="#path-5"></use>
                </mask>
                <g id="Clip-8"></g>
                <polygon id="Fill-7" fill="#000000" mask="url(#mask-6)" points="-4.249 6.538 9.613 6.538 9.613 -4.516 -4.249 -4.516"></polygon>
            </g>
            <g id="Group-12" transform="translate(7.000000, 6.710000)">
                <mask id="mask-8" fill="white">
                    <use xlink:href="#path-7"></use>
                </mask>
                <g id="Clip-11"></g>
                <polygon id="Fill-10" fill="#FFFFFF" mask="url(#mask-8)" points="-4.487 17.858 15.848 17.858 15.848 -4.279 -4.487 -4.279"></polygon>
            </g>
            <g id="Group-15" transform="translate(7.000000, 6.710000)">
                <mask id="mask-10" fill="white">
                    <use xlink:href="#path-9"></use>
                </mask>
                <g id="Clip-14"></g>
                <polygon id="Fill-13" fill="#161111" mask="url(#mask-10)" points="-4.58 17.966 15.94 17.966 15.94 -4.388 -4.58 -4.388"></polygon>
            </g>
            <g id="Group-18" transform="translate(10.000000, 4.710000)">
                <mask id="mask-12" fill="white">
                    <use xlink:href="#path-11"></use>
                </mask>
                <g id="Clip-17"></g>
                <polygon id="Fill-16" fill="#B0231F" mask="url(#mask-12)" points="-4.806 8.303 10.125 8.303 10.125 -4.297 -4.806 -4.297"></polygon>
            </g>
            <g id="Group-21" transform="translate(10.000000, 4.710000)">
                <mask id="mask-14" fill="white">
                    <use xlink:href="#path-13"></use>
                </mask>
                <g id="Clip-20"></g>
                <polygon id="Fill-19" fill="#000000" mask="url(#mask-14)" points="-4.841 8.323 10.158 8.323 10.158 -4.33 -4.841 -4.33"></polygon>
            </g>
            <g id="Group-24" transform="translate(10.000000, 7.710000)">
                <mask id="mask-16" fill="white">
                    <use xlink:href="#path-15"></use>
                </mask>
                <g id="Clip-23"></g>
                <polygon id="Fill-22" fill="#ECEBE3" mask="url(#mask-16)" points="-4.303 6.282 9.641 6.282 9.641 -4.738 -4.303 -4.738"></polygon>
            </g>
            <g id="Group-27" transform="translate(10.000000, 7.710000)">
                <mask id="mask-18" fill="white">
                    <use xlink:href="#path-17"></use>
                </mask>
                <g id="Clip-26"></g>
                <polygon id="Fill-25" fill="#000000" mask="url(#mask-18)" points="-4.316 6.296 9.654 6.296 9.654 -4.751 -4.316 -4.751"></polygon>
            </g>
            <g id="Group-30" transform="translate(14.000000, 5.710000)">
                <mask id="mask-20" fill="white">
                    <use xlink:href="#path-19"></use>
                </mask>
                <g id="Clip-29"></g>
                <polygon id="Fill-28" fill="#FFCC00" mask="url(#mask-20)" points="-4.779 6.742 6.254 6.742 6.254 -4.275 -4.779 -4.275"></polygon>
            </g>
            <g id="Group-33" transform="translate(14.000000, 5.710000)">
                <mask id="mask-22" fill="white">
                    <use xlink:href="#path-21"></use>
                </mask>
                <g id="Clip-32"></g>
                <polygon id="Fill-31" fill="#000000" mask="url(#mask-22)" points="-4.852 6.837 6.295 6.837 6.295 -4.329 -4.852 -4.329"></polygon>
            </g>
            <g id="Group-36" transform="translate(10.000000, 6.710000)">
                <mask id="mask-24" fill="white">
                    <use xlink:href="#path-23"></use>
                </mask>
                <g id="Clip-35"></g>
                <polygon id="Fill-34" fill="#F7CA1F" mask="url(#mask-24)" points="-4.575 6.24 10 6.24 10 -4.837 -4.575 -4.837"></polygon>
            </g>
            <g id="Group-39" transform="translate(10.000000, 6.710000)">
                <mask id="mask-26" fill="white">
                    <use xlink:href="#path-25"></use>
                </mask>
                <g id="Clip-38"></g>
                <polygon id="Fill-37" fill="#000000" mask="url(#mask-26)" points="-4.614 6.271 10.052 6.271 10.052 -4.883 -4.614 -4.883"></polygon>
            </g>
            <g id="Group-42" transform="translate(13.000000, 3.710000)">
                <mask id="mask-28" fill="white">
                    <use xlink:href="#path-27"></use>
                </mask>
                <g id="Clip-41"></g>
                <polygon id="Fill-40" fill="#1E1E1E" mask="url(#mask-28)" points="-4.413 6.271 6.277 6.271 6.277 -4.434 -4.413 -4.434"></polygon>
            </g>
            <g id="Group-45" transform="translate(13.000000, 3.710000)">
                <mask id="mask-30" fill="white">
                    <use xlink:href="#path-29"></use>
                </mask>
                <g id="Clip-44"></g>
                <polygon id="Fill-43" fill="#1E1E1E" mask="url(#mask-30)" points="-4.821 6.466 5.869 6.466 5.869 -4.239 -4.821 -4.239"></polygon>
            </g>
            <g id="Group-48" transform="translate(14.000000, 3.710000)">
                <mask id="mask-32" fill="white">
                    <use xlink:href="#path-31"></use>
                </mask>
                <g id="Clip-47"></g>
                <polygon id="Fill-46" fill="#1E1E1E" mask="url(#mask-32)" points="-4.94 6.157 5.75 6.157 5.75 -4.548 -4.94 -4.548"></polygon>
            </g>
            <g id="Group-51" transform="translate(14.000000, 3.710000)">
                <mask id="mask-34" fill="white">
                    <use xlink:href="#path-33"></use>
                </mask>
                <g id="Clip-50"></g>
                <polygon id="Fill-49" fill="#1E1E1E" mask="url(#mask-34)" points="-4.406 6.267 6.284 6.267 6.284 -4.438 -4.406 -4.438"></polygon>
            </g>
            <g id="Group-54" transform="translate(15.000000, 3.710000)">
                <mask id="mask-36" fill="white">
                    <use xlink:href="#path-35"></use>
                </mask>
                <g id="Clip-53"></g>
                <polygon id="Fill-52" fill="#1E1E1E" mask="url(#mask-36)" points="-5 6.608 5.69 6.608 5.69 -4.097 -5 -4.097"></polygon>
            </g>
            <g id="Group-57" transform="translate(15.000000, 4.710000)">
                <mask id="mask-38" fill="white">
                    <use xlink:href="#path-37"></use>
                </mask>
                <g id="Clip-56"></g>
                <polygon id="Fill-55" fill="#1E1E1E" mask="url(#mask-38)" points="-4.824 6.169 5.866 6.169 5.866 -4.536 -4.824 -4.536"></polygon>
            </g>
            <g id="Group-60" transform="translate(15.000000, 5.710000)">
                <mask id="mask-40" fill="white">
                    <use xlink:href="#path-39"></use>
                </mask>
                <g id="Clip-59"></g>
                <polygon id="Fill-58" fill="#1E1E1E" mask="url(#mask-40)" points="-4.889 5.736 5.801 5.736 5.801 -4.969 -4.889 -4.969"></polygon>
            </g>
            <g id="Group-63" transform="translate(14.000000, 5.710000)">
                <mask id="mask-42" fill="white">
                    <use xlink:href="#path-41"></use>
                </mask>
                <g id="Clip-62"></g>
                <polygon id="Fill-61" fill="#1E1E1E" mask="url(#mask-42)" points="-4.136 6.234 6.554 6.234 6.554 -4.471 -4.136 -4.471"></polygon>
            </g>
            <g id="Group-66" transform="translate(12.000000, 3.710000)">
                <mask id="mask-44" fill="white">
                    <use xlink:href="#path-43"></use>
                </mask>
                <g id="Clip-65"></g>
                <polygon id="Fill-64" fill="#1E1E1E" mask="url(#mask-44)" points="-4.218 6.615 6.472 6.615 6.472 -4.09 -4.218 -4.09"></polygon>
            </g>
            <g id="Group-69" transform="translate(12.000000, 5.710000)">
                <mask id="mask-46" fill="white">
                    <use xlink:href="#path-45"></use>
                </mask>
                <g id="Clip-68"></g>
                <polygon id="Fill-67" fill="#1E1E1E" mask="url(#mask-46)" points="-4.683 5.676 6.007 5.676 6.007 -5.029 -4.683 -5.029"></polygon>
            </g>
            <g id="Group-72" transform="translate(11.000000, 3.710000)">
                <mask id="mask-48" fill="white">
                    <use xlink:href="#path-47"></use>
                </mask>
                <g id="Clip-71"></g>
                <polygon id="Fill-70" fill="#1E1E1E" mask="url(#mask-48)" points="-4.155 6.611 6.535 6.611 6.535 -4.094 -4.155 -4.094"></polygon>
            </g>
            <g id="Group-75" transform="translate(11.000000, 3.710000)">
                <mask id="mask-50" fill="white">
                    <use xlink:href="#path-49"></use>
                </mask>
                <g id="Clip-74"></g>
                <polygon id="Fill-73" fill="#1E1E1E" mask="url(#mask-50)" points="-4.571 6.443 6.119 6.443 6.119 -4.262 -4.571 -4.262"></polygon>
            </g>
            <g id="Group-78" transform="translate(11.000000, 3.710000)">
                <mask id="mask-52" fill="white">
                    <use xlink:href="#path-51"></use>
                </mask>
                <g id="Clip-77"></g>
                <polygon id="Fill-76" fill="#1E1E1E" mask="url(#mask-52)" points="-4.97 6.252 5.72 6.252 5.72 -4.453 -4.97 -4.453"></polygon>
            </g>
            <g id="Group-81" transform="translate(10.000000, 3.710000)">
                <mask id="mask-54" fill="white">
                    <use xlink:href="#path-53"></use>
                </mask>
                <g id="Clip-80"></g>
                <polygon id="Fill-79" fill="#1E1E1E" mask="url(#mask-54)" points="-4.427 6.15 6.263 6.15 6.263 -4.555 -4.427 -4.555"></polygon>
            </g>
            <g id="Group-84" transform="translate(10.000000, 3.710000)">
                <mask id="mask-56" fill="white">
                    <use xlink:href="#path-55"></use>
                </mask>
                <g id="Clip-83"></g>
                <polygon id="Fill-82" fill="#1E1E1E" mask="url(#mask-56)" points="-4.967 6.282 5.723 6.282 5.723 -4.423 -4.967 -4.423"></polygon>
            </g>
            <g id="Group-87" transform="translate(9.000000, 4.710000)">
                <mask id="mask-58" fill="white">
                    <use xlink:href="#path-57"></use>
                </mask>
                <g id="Clip-86"></g>
                <polygon id="Fill-85" fill="#1E1E1E" mask="url(#mask-58)" points="-4.348 5.67 6.342 5.67 6.342 -5.035 -4.348 -5.035"></polygon>
            </g>
            <g id="Group-90" transform="translate(9.000000, 4.710000)">
                <mask id="mask-60" fill="white">
                    <use xlink:href="#path-59"></use>
                </mask>
                <g id="Clip-89"></g>
                <polygon id="Fill-88" fill="#1E1E1E" mask="url(#mask-60)" points="-4.506 6.214 6.184 6.214 6.184 -4.491 -4.506 -4.491"></polygon>
            </g>
            <g id="Group-93" transform="translate(9.000000, 5.710000)">
                <mask id="mask-62" fill="white">
                    <use xlink:href="#path-61"></use>
                </mask>
                <g id="Clip-92"></g>
                <polygon id="Fill-91" fill="#1E1E1E" mask="url(#mask-62)" points="-4.436 5.782 6.254 5.782 6.254 -4.923 -4.436 -4.923"></polygon>
            </g>
            <g id="Group-96" transform="translate(9.000000, 5.710000)">
                <mask id="mask-64" fill="white">
                    <use xlink:href="#path-63"></use>
                </mask>
                <g id="Clip-95"></g>
                <polygon id="Fill-94" fill="#1E1E1E" mask="url(#mask-64)" points="-4.178 6.296 6.512 6.296 6.512 -4.409 -4.178 -4.409"></polygon>
            </g>
            <g id="Group-99" transform="translate(12.000000, 3.710000)">
                <mask id="mask-66" fill="white">
                    <use xlink:href="#path-65"></use>
                </mask>
                <g id="Clip-98"></g>
                <polygon id="Fill-97" fill="#B3A192" mask="url(#mask-66)" points="-4.927 6.108 6.228 6.108 6.228 -4.777 -4.927 -4.777"></polygon>
            </g>
            <g id="Group-102" transform="translate(12.000000, 3.710000)">
                <mask id="mask-68" fill="white">
                    <use xlink:href="#path-67"></use>
                </mask>
                <g id="Clip-101"></g>
                <polygon id="Fill-100" fill="#000000" mask="url(#mask-68)" points="-4.956 6.15 6.257 6.15 6.257 -4.807 -4.956 -4.807"></polygon>
            </g>
            <g id="Group-105" transform="translate(10.000000, 6.710000)">
                <mask id="mask-70" fill="white">
                    <use xlink:href="#path-69"></use>
                </mask>
                <g id="Clip-104"></g>
                <polygon id="Fill-103" fill="#FFCC00" mask="url(#mask-70)" points="-4.405 6.853 9.777 6.853 9.777 -4.297 -4.405 -4.297"></polygon>
            </g>
            <g id="Group-108" transform="translate(10.000000, 6.710000)">
                <mask id="mask-72" fill="white">
                    <use xlink:href="#path-71"></use>
                </mask>
                <g id="Clip-107"></g>
                <polygon id="Fill-106" fill="#000000" mask="url(#mask-72)" points="-4.42 6.869 9.797 6.869 9.797 -4.31 -4.42 -4.31"></polygon>
            </g>
            <g id="Group-111" transform="translate(12.000000, 2.710000)">
                <mask id="mask-74" fill="white">
                    <use xlink:href="#path-73"></use>
                </mask>
                <g id="Clip-110"></g>
                <polygon id="Fill-109" fill="#FFCC00" mask="url(#mask-74)" points="-4.871 6.574 6.221 6.574 6.221 -4.675 -4.871 -4.675"></polygon>
            </g>
            <g id="Group-114" transform="translate(12.000000, 2.710000)">
                <mask id="mask-76" fill="white">
                    <use xlink:href="#path-75"></use>
                </mask>
                <g id="Clip-113"></g>
                <polygon id="Fill-112" fill="#000000" mask="url(#mask-76)" points="-4.9 6.607 6.25 6.607 6.25 -4.71 -4.9 -4.71"></polygon>
            </g>
            <g id="Group-117" transform="translate(10.000000, 3.710000)">
                <mask id="mask-78" fill="white">
                    <use xlink:href="#path-77"></use>
                </mask>
                <g id="Clip-116"></g>
                <polygon id="Fill-115" fill="#FFCC00" mask="url(#mask-78)" points="-5.055 8.098 7.654 8.098 7.654 -4.105 -5.055 -4.105"></polygon>
            </g>
            <g id="Group-120" transform="translate(10.000000, 3.710000)">
                <mask id="mask-80" fill="white">
                    <use xlink:href="#path-79"></use>
                </mask>
                <g id="Clip-119"></g>
                <polygon id="Fill-118" fill="#121116" mask="url(#mask-80)" points="-5.084 8.137 7.683 8.137 7.683 -4.135 -5.084 -4.135"></polygon>
            </g>
            <g id="Group-123" transform="translate(10.000000, 5.710000)">
                <mask id="mask-82" fill="white">
                    <use xlink:href="#path-81"></use>
                </mask>
                <g id="Clip-122"></g>
                <polygon id="Fill-121" fill="#FFCC00" mask="url(#mask-82)" points="-4.866 6.844 6.181 6.844 6.181 -4.26 -4.866 -4.26"></polygon>
            </g>
            <g id="Group-126" transform="translate(10.000000, 5.710000)">
                <mask id="mask-84" fill="white">
                    <use xlink:href="#path-83"></use>
                </mask>
                <g id="Clip-125"></g>
                <polygon id="Fill-124" fill="#000000" mask="url(#mask-84)" points="-4.908 6.887 6.215 6.887 6.215 -4.327 -4.908 -4.327"></polygon>
            </g>
            <g id="Group-129" transform="translate(12.000000, 3.710000)">
                <mask id="mask-86" fill="white">
                    <use xlink:href="#path-85"></use>
                </mask>
                <g id="Clip-128"></g>
                <polygon id="Fill-127" fill="#FFCC00" mask="url(#mask-86)" points="-4.265 8.012 8.444 8.012 8.444 -4.112 -4.265 -4.112"></polygon>
            </g>
            <g id="Group-132" transform="translate(12.000000, 3.710000)">
                <mask id="mask-88" fill="white">
                    <use xlink:href="#path-87"></use>
                </mask>
                <g id="Clip-131"></g>
                <polygon id="Fill-130" fill="#121116" mask="url(#mask-88)" points="-4.294 8.048 8.473 8.048 8.473 -4.141 -4.294 -4.141"></polygon>
            </g>
            <g id="Group-135" transform="translate(12.000000, 3.710000)">
                <mask id="mask-90" fill="white">
                    <use xlink:href="#path-89"></use>
                </mask>
                <g id="Clip-134"></g>
                <polygon id="Fill-133" fill="#FFCC00" mask="url(#mask-90)" points="-4.916 6.311 6.228 6.311 6.228 -4.771 -4.916 -4.771"></polygon>
            </g>
            <g id="Group-138" transform="translate(12.000000, 3.710000)">
                <mask id="mask-92" fill="white">
                    <use xlink:href="#path-91"></use>
                </mask>
                <g id="Clip-137"></g>
                <polygon id="Fill-136" fill="#121116" mask="url(#mask-92)" points="-4.945 6.341 6.257 6.341 6.257 -4.801 -4.945 -4.801"></polygon>
            </g>
            <g id="Group-141" transform="translate(12.000000, 5.710000)">
                <mask id="mask-94" fill="white">
                    <use xlink:href="#path-93"></use>
                </mask>
                <g id="Clip-140"></g>
                <polygon id="Fill-139" fill="#FFCC00" mask="url(#mask-94)" points="-4.952 6.565 6.297 6.565 6.297 -4.594 -4.952 -4.594"></polygon>
            </g>
            <g id="Group-144" transform="translate(12.000000, 5.710000)">
                <mask id="mask-96" fill="white">
                    <use xlink:href="#path-95"></use>
                </mask>
                <g id="Clip-143"></g>
                <polygon id="Fill-142" fill="#000000" mask="url(#mask-96)" points="-4.977 6.653 6.322 6.653 6.322 -4.62 -4.977 -4.62"></polygon>
            </g>
            <g id="Group-147" transform="translate(10.000000, 6.710000)">
                <mask id="mask-98" fill="white">
                    <use xlink:href="#path-97"></use>
                </mask>
                <g id="Clip-146"></g>
                <polygon id="Fill-145" fill="#F7CA1F" mask="url(#mask-98)" points="-4.587 6.027 10.048 6.027 10.048 -4.981 -4.587 -4.981"></polygon>
            </g>
            <g id="Group-150" transform="translate(10.000000, 6.710000)">
                <mask id="mask-100" fill="white">
                    <use xlink:href="#path-99"></use>
                </mask>
                <g id="Clip-149"></g>
                <polygon id="Fill-148" fill="#000000" mask="url(#mask-100)" points="-4.617 6.05 10.083 6.05 10.083 -5.008 -4.617 -5.008"></polygon>
            </g>
            <g id="Group-153" transform="translate(11.000000, 5.710000)">
                <mask id="mask-102" fill="white">
                    <use xlink:href="#path-101"></use>
                </mask>
                <g id="Clip-152"></g>
                <polygon id="Fill-151" fill="#FFCC00" mask="url(#mask-102)" points="-4.521 6.514 6.186 6.514 6.186 -4.372 -4.521 -4.372"></polygon>
            </g>
            <g id="Group-156" transform="translate(11.000000, 5.710000)">
                <mask id="mask-104" fill="white">
                    <use xlink:href="#path-103"></use>
                </mask>
                <g id="Clip-155"></g>
                <polygon id="Fill-154" fill="#000000" mask="url(#mask-104)" points="-4.561 6.555 6.226 6.555 6.226 -4.413 -4.561 -4.413"></polygon>
            </g>
            <g id="Group-159" transform="translate(10.000000, 5.710000)">
                <mask id="mask-106" fill="white">
                    <use xlink:href="#path-105"></use>
                </mask>
                <g id="Clip-158"></g>
                <polygon id="Fill-157" fill="#FFCC00" mask="url(#mask-106)" points="-4.156 6.737 6.69 6.737 6.69 -4.177 -4.156 -4.177"></polygon>
            </g>
            <g id="Group-162" transform="translate(10.000000, 5.710000)">
                <mask id="mask-108" fill="white">
                    <use xlink:href="#path-107"></use>
                </mask>
                <g id="Clip-161"></g>
                <polygon id="Fill-160" fill="#000000" mask="url(#mask-108)" points="-4.196 6.777 6.744 6.777 6.744 -4.218 -4.196 -4.218"></polygon>
            </g>
            <g id="Group-165" transform="translate(13.000000, 5.710000)">
                <mask id="mask-110" fill="white">
                    <use xlink:href="#path-109"></use>
                </mask>
                <g id="Clip-164"></g>
                <polygon id="Fill-163" fill="#FFCC00" mask="url(#mask-110)" points="-4.297 6.677 6.534 6.677 6.534 -4.237 -4.297 -4.237"></polygon>
            </g>
            <g id="Group-168" transform="translate(13.000000, 5.710000)">
                <mask id="mask-112" fill="white">
                    <use xlink:href="#path-111"></use>
                </mask>
                <g id="Clip-167"></g>
                <polygon id="Fill-166" fill="#000000" mask="url(#mask-112)" points="-4.349 6.717 6.574 6.717 6.574 -4.278 -4.349 -4.278"></polygon>
            </g>
            <g id="Group-171" transform="translate(13.000000, 5.710000)">
                <mask id="mask-114" fill="white">
                    <use xlink:href="#path-113"></use>
                </mask>
                <g id="Clip-170"></g>
                <polygon id="Fill-169" fill="#FFCC00" mask="url(#mask-114)" points="-4.826 6.581 5.9 6.581 5.9 -4.312 -4.826 -4.312"></polygon>
            </g>
            <g id="Group-174" transform="translate(13.000000, 5.710000)">
                <mask id="mask-116" fill="white">
                    <use xlink:href="#path-115"></use>
                </mask>
                <g id="Clip-173"></g>
                <polygon id="Fill-172" fill="#000000" mask="url(#mask-116)" points="-4.866 6.622 5.942 6.622 5.942 -4.353 -4.866 -4.353"></polygon>
            </g>
            <g id="Group-177" transform="translate(10.000000, 6.710000)">
                <mask id="mask-118" fill="white">
                    <use xlink:href="#path-117"></use>
                </mask>
                <g id="Clip-176"></g>
                <polygon id="Fill-175" fill="#000000" mask="url(#mask-118)" points="-4.476 6.353 9.845 6.353 9.845 -4.355 -4.476 -4.355"></polygon>
            </g>
            <g id="Group-180" transform="translate(11.000000, 9.710000)">
                <mask id="mask-120" fill="white">
                    <use xlink:href="#path-119"></use>
                </mask>
                <g id="Clip-179"></g>
                <polygon id="Fill-178" fill="#CC0000" mask="url(#mask-120)" points="-4.737 11.629 8.625 11.629 8.625 -4.599 -4.737 -4.599"></polygon>
            </g>
            <g id="Group-183" transform="translate(11.000000, 9.710000)">
                <mask id="mask-122" fill="white">
                    <use xlink:href="#path-121"></use>
                </mask>
                <g id="Clip-182"></g>
                <polygon id="Fill-181" fill="#161111" mask="url(#mask-122)" points="-4.777 11.67 8.665 11.67 8.665 -4.639 -4.777 -4.639"></polygon>
            </g>
        </g>
    </g>
</svg>