<?xml version="1.0" encoding="utf-8"?>
<!-- Generator: Adobe Illustrator 20.1.0, SVG Export Plug-In . SVG Version: 6.00 Build 0)  -->
<svg version="1.1" id="Layer_1" xmlns="http://www.w3.org/2000/svg" xmlns:xlink="http://www.w3.org/1999/xlink" x="0px" y="0px"
	 viewBox="0 0 24 24" style="enable-background:new 0 0 24 24;" xml:space="preserve">
<style type="text/css">
	.st0{fill-rule:evenodd;clip-rule:evenodd;fill:#244AA5;}
	.st1{fill:#D0A650;}
	.st2{fill:#FFFFFF;}
</style>
<g>
	<g id="Albania_2_">
		<circle class="st0" cx="12" cy="12" r="12"/>
	</g>
	<g>
		<path class="st1" d="M9,11C9,11,9,11,9,11c0.1,0,0.2-0.1,0.2-0.1s0,0,0.1,0c0,0,0.1,0,0.1,0c0,0,0.1,0.1,0.1,0.1s0.1,0,0.1,0
			c0,0,0,0,0.1,0s0,0,0,0s0,0,0-0.1c0,0,0.1,0,0.1,0s0.1,0,0.1-0.1c0,0,0.1-0.1,0.1-0.1c0,0,0,0,0.1,0c0.1,0,0.1,0,0.1,0
			c0,0,0,0,0,0c0,0,0.1,0,0.1,0c0,0,0,0,0-0.1c-0.1,0-0.1,0-0.1,0c0,0,0,0-0.1,0c-0.1,0,0,0,0-0.1c0,0,0,0,0-0.1c0,0,0,0,0,0
			s0,0,0,0s0,0,0,0s0,0,0,0c0,0,0,0,0,0c0,0,0-0.1,0-0.1l0,0c0,0,0.1-0.1,0.1-0.1c0,0,0,0,0.1,0c0,0,0,0,0,0.1c0,0,0.1,0,0.1,0
			c0,0,0-0.1,0-0.1c0,0,0-0.1,0.1-0.1s0-0.1,0.1-0.1c0,0,0.1,0,0.1-0.1c0,0,0,0,0.1-0.1c0,0,0.1,0,0.1,0c0,0,0,0,0.1,0
			c0,0,0.1,0,0.1,0c0,0,0,0,0.1,0c0,0,0,0,0.1,0s0-0.1,0-0.1s0,0,0.1,0c0,0,0,0,0,0c0,0,0,0,0.1,0c0,0,0.1,0,0.1,0
			c0,0-0.1-0.1-0.1-0.1c0,0,0-0.1,0-0.1s-0.1,0-0.1,0c0,0,0-0.1,0-0.1c0,0,0.1,0,0.1,0S11,9,11,9s0-0.1,0-0.1c0,0,0-0.1,0-0.1
			c0,0-0.1-0.1-0.1-0.1c0,0,0,0-0.1-0.1c0,0-0.1,0-0.1,0s0,0,0-0.1c0-0.1-0.1-0.1-0.1-0.1l-0.1,0c0,0-0.1,0-0.2,0s-0.1,0,0-0.1
			c0,0,0.1-0.1,0-0.1s0-0.1-0.1-0.1s-0.1,0,0-0.1c0,0,0-0.1,0.1,0c0,0,0.1,0,0.1,0c0,0,0.1,0,0.1,0c0,0,0,0,0.1,0c0,0,0.1,0,0.1,0
			S11,8,11,8c0,0,0.1,0,0.1-0.1c0,0,0-0.1,0.1-0.1s0.1-0.1,0.1-0.1s0,0,0,0s0-0.1,0-0.1c0,0,0.1,0,0.1,0c0,0,0.1,0,0.1,0
			s0.1,0,0.1,0s0.1,0,0.1,0c0,0,0.1,0,0.1,0s0,0,0-0.1c0,0,0-0.1,0-0.1s0,0,0-0.1c0,0,0,0,0.1,0s0.1,0,0.1,0c0,0,0.1,0,0.1,0.1
			c0,0,0,0,0,0.1s0.1,0,0,0.1c0,0,0,0,0,0c0,0,0,0,0,0c0,0,0,0,0,0c0,0,0,0,0,0.1s0,0,0,0.1c0,0,0,0.1,0,0.1s0.1,0.1,0,0
			c-0.1,0-0.1,0-0.1,0c0,0,0,0,0,0s0,0-0.1,0S12,8.1,12,8.1s0.1,0,0.1,0.1s0,0,0,0c0,0,0,0-0.1,0c0,0,0,0,0,0.1s0,0,0,0s0,0,0.1,0
			c0,0,0,0,0.1,0s0,0,0.1,0s0,0,0.1,0c0,0,0.1,0,0.1,0c0,0,0,0,0.1,0.1c0,0,0,0,0,0c0,0,0,0,0,0c0,0,0.1,0,0.1,0s0,0.1,0,0.1l0,0
			l0.1,0c0,0,0,0,0,0s0,0,0,0c0,0,0.1,0,0.1,0s0,0,0,0s0,0,0,0s0.1,0,0.1,0c0,0,0.1,0,0.1,0c0,0,0.1,0.1,0.1,0.1s0,0,0,0.1
			c0,0,0.1,0,0.1,0s0,0,0,0.1c0,0,0.1,0,0.1,0s0.1,0,0.1,0s0.1,0,0.1,0s0,0,0-0.1s0,0,0-0.1c0,0,0,0,0.1,0c0,0,0,0,0,0.1
			s0,0.1,0.1,0.1s0.1,0,0.1,0c0,0,0.1,0,0.1,0c0,0.1,0,0.1,0,0.1s0,0.1,0,0.1s0,0,0,0.1c0,0,0,0.1,0,0.1s0,0,0,0.1s0,0.1,0,0.1
			s0,0.1,0,0.1s0,0.1,0,0s0.1,0,0.1,0c0,0,0,0.1,0,0.1c0,0,0,0.1,0,0.1c0,0,0,0,0.1,0s0,0.1,0.1,0s0,0,0.1,0c0,0,0,0,0,0
			c0,0,0,0,0-0.1c0,0,0-0.1,0-0.1s0,0,0.1,0c0,0,0,0,0.1,0s0,0,0,0s0.1,0,0.1,0.1s0,0.1,0,0.1s0,0.1,0,0.1s0,0,0,0c0,0,0,0.1,0,0.1
			c0,0,0,0,0,0s0,0,0,0.1c0,0,0,0,0.1,0.1c0,0,0,0,0,0.1c0,0,0,0.1,0,0.1c0,0,0,0.1,0.1,0.1c0,0,0.1,0,0.1,0.1c0,0,0,0.1,0,0.1
			s0,0,0,0s0.1,0,0.1,0c0,0,0,0,0.1-0.1s0.1,0,0.1,0c0,0,0,0,0.1,0c0,0,0.1,0,0.1,0s0,0,0,0s0.1,0.1,0,0.1s0,0.1,0,0.1s0.1,0,0.1,0
			c0,0,0,0,0,0c0,0,0,0,0.1,0c0,0,0,0,0.1,0c0,0,0,0,0.1,0s0.1,0,0.1,0s0.1,0,0.1,0c0,0,0.1,0,0.1,0s0,0,0,0.1s0,0,0,0.1
			c0,0,0,0,0,0c0,0,0,0,0,0s0,0,0,0.1s0,0,0,0c0,0,0,0,0,0c0,0,0,0,0,0.1c0,0,0,0.1,0,0.1s0,0,0,0c0,0-0.1,0-0.1,0c0,0,0,0.1,0,0.1
			c0,0,0,0,0,0s0,0.1,0,0.1s0,0,0,0s-0.1,0-0.1,0.1s0,0,0,0c0,0,0,0,0,0.1c0,0,0,0,0.1,0s0,0,0,0s0.1,0,0.1,0s0.1,0,0.1,0
			c0,0,0.1,0,0.1,0c0,0,0,0,0,0.1c0,0,0,0,0.1,0c0,0,0,0,0,0s0-0.1,0.1,0c0,0,0,0,0.1,0s0,0,0,0c0,0,0,0,0.1,0c0,0,0,0,0.1,0
			c0,0,0,0,0,0s0,0,0.1,0s0,0,0.1,0c0,0,0.1,0,0.1,0c0,0,0.1-0.1,0.1,0c0,0,0,0,0.1,0c0,0,0.1,0,0.1,0c0,0,0.1,0.1,0,0.1
			c0,0-0.1,0.1,0,0.1s0.1,0,0.1,0c0,0,0.1,0,0.1,0c0,0,0.1,0,0.1,0c0,0,0.1,0,0.1,0c0,0,0,0.1,0,0.1s0,0.1,0,0.1c0,0,0,0,0,0.1
			s0,0,0.1,0s0,0,0-0.1s0-0.1,0-0.1s0.1,0,0.1,0s0.1-0.1,0.1,0s0,0,0.1,0c0,0,0.1,0,0.1,0s0.1,0,0.1,0c0,0,0,0,0.1,0
			c0,0,0,0.1,0,0.1s0,0.1,0,0.1s0,0,0,0c0,0,0,0.1,0,0.1s0,0,0.1,0c0.1,0,0,0,0.1,0.1s0,0,0,0s0,0,0,0c0,0-0.1,0-0.1,0l0,0
			c0,0,0,0,0,0s0,0.1,0,0.1c0,0,0,0.1,0,0.1c0,0,0,0.1-0.1,0.1c0,0,0,0-0.1,0c0,0,0,0.1,0,0.1c0,0,0.1,0.1,0.1,0.1l0,0.1
			c0,0,0,0,0,0s0,0.1,0,0.1c0,0,0,0.1,0,0.1c0,0-0.1,0-0.1,0s0,0-0.1,0s-0.1,0-0.1,0s0,0.1-0.1,0c0,0,0,0.1,0,0.1c0,0,0,0.1,0,0.1
			s0,0,0,0.1c0,0,0,0,0,0c0,0-0.1,0-0.1,0c0,0,0,0.1,0,0.1c0,0-0.1,0-0.1,0c0,0,0,0.1,0,0.1s0,0,0,0c0,0,0,0.1,0,0.1s-0.1,0-0.1,0
			c0,0,0,0.1,0,0.1c-0.1,0-0.1,0-0.1,0.1c0,0,0,0,0,0.1s0,0.1,0.1,0.1c0,0,0,0,0,0.1c0,0,0,0.1,0,0.1s0.1,0,0.1,0s0,0,0,0.1
			c0,0,0,0,0,0.1s0,0,0,0.1c0,0,0,0,0,0.1s0,0,0,0.1c0,0-0.1,0-0.1,0s0,0,0,0c0,0-0.1,0-0.1,0c0,0-0.1,0-0.1,0s0,0,0,0.1
			c0,0,0,0.1,0,0.1c0,0-0.1,0-0.1,0c0,0-0.1-0.1-0.1,0c0,0.1,0,0.1,0,0.1c0,0.1,0,0.1,0,0.1c0,0,0,0,0,0.1c0,0,0,0.1,0,0.1
			c0,0,0.1,0.1,0.1,0.1c0,0,0,0.1,0,0.1s0.1,0,0.1,0s0.1-0.1,0.1,0c0,0.1,0,0.1,0,0.1s0,0.1,0.1,0.1c0,0,0.1,0.1,0.1,0.1
			c-0.1,0-0.1,0.1-0.1,0.1c0,0,0,0-0.1,0c0,0,0,0,0,0c0,0,0,0-0.1,0c0,0,0,0.1-0.1,0c0,0-0.1-0.1-0.1-0.2c0,0,0-0.1,0-0.1
			c0-0.1-0.1,0-0.1,0c0,0,0-0.1-0.1-0.1c-0.1,0,0,0.1-0.1,0.1c-0.1,0-0.1-0.1-0.2,0c0,0,0,0,0,0.1c0,0-0.1,0.1-0.1,0.1
			c0,0,0.1,0.1,0.1,0.1c0,0.1,0,0.2-0.1,0.1c-0.1,0-0.1-0.1-0.1-0.1c0,0,0,0,0,0c0,0,0,0-0.1,0c0,0,0,0,0,0.1c0,0,0,0,0,0
			c0,0,0,0.1,0,0.1c0,0-0.1,0-0.1,0c0,0,0,0.1-0.1,0.1c0,0,0-0.1-0.1,0c0,0,0,0,0,0c0,0,0,0,0,0c0.1,0.1-0.1,0.1-0.1,0.2
			c0,0,0,0.1,0,0.1c0,0-0.1,0.1-0.1,0.1c0,0,0,0,0,0c0,0,0,0,0,0c0,0,0,0,0,0c0,0,0,0,0,0c0.1,0.1,0,0,0.1,0.1c0,0,0,0,0,0
			c0,0,0,0,0,0c0,0,0,0.1,0,0.1c0,0-0.1,0.1-0.1,0.1c0,0,0-0.1,0-0.1c0,0,0,0.1,0,0.1c0,0,0,0,0,0c-0.1,0-0.1,0.1-0.1,0.1
			c0,0,0,0-0.1,0c0,0,0,0-0.1,0c0,0,0,0,0,0c0,0-0.1,0-0.1,0c0,0,0,0-0.1,0c0,0,0,0,0-0.1c0,0,0-0.1,0-0.1c0,0,0-0.1,0-0.1
			c0,0-0.1-0.1-0.1-0.1c0,0,0-0.1-0.1-0.1c0,0-0.1-0.1-0.1-0.1c0,0,0,0,0,0c0,0,0,0,0,0c0,0,0-0.1,0-0.1c0,0-0.2,0-0.2,0
			c0,0,0,0-0.1,0c0,0,0,0,0,0c0,0,0,0,0,0c0,0,0,0,0,0c-0.1,0-0.1,0.1-0.1,0.1c0,0-0.1,0-0.2,0.1c0,0-0.1,0.1-0.1,0.1c0,0,0,0,0,0
			c0,0-0.1,0.1-0.1,0.1c0,0,0,0,0,0l-0.1,0c0,0,0,0-0.1,0c0,0,0,0-0.1,0.1c0,0,0,0,0,0c0,0,0,0,0,0c0,0,0,0,0,0c0,0,0,0-0.1,0
			c0,0-0.1,0-0.2,0c0,0-0.1,0.1-0.1,0.1c0,0,0,0,0,0c0,0,0,0.1,0,0.1c0,0-0.1,0.1-0.1,0.1c0,0,0,0,0,0c0,0,0,0,0,0c0,0-0.1,0-0.1,0
			c0,0-0.2,0-0.2,0c0,0,0,0.1-0.1,0.1c-0.1,0-0.1,0-0.1,0c0,0,0,0-0.1,0c0,0,0,0,0,0.1v0c0,0,0,0,0,0c0,0-0.1,0.1-0.1,0.1
			c0,0,0,0,0,0c0,0-0.1,0-0.1,0c0,0,0,0.1,0,0.1c0,0-0.1,0.1-0.1,0.1c0,0,0,0.1,0,0.1c0,0.1,0,0.1,0,0.2c0,0,0,0.1,0,0.1
			c0,0,0,0,0,0c0,0,0.1,0.1,0.1,0.2c0,0.1-0.1,0.1,0,0.2c0,0,0,0,0,0c0,0,0.1,0.1,0.1,0.1c0,0-0.1,0-0.1,0c0,0-0.1,0.1-0.1,0.2
			c0,0,0,0-0.1,0.1c0,0,0,0.1,0,0.1c0,0,0,0-0.1,0c0,0,0,0,0,0c0,0-0.2,0.1-0.3,0.1c0,0,0,0,0-0.1c0,0,0,0,0,0c-0.1,0-0.1-0.1-0.2,0
			c0,0,0,0,0,0.1c0,0-0.1,0-0.1,0.1c0,0,0,0,0,0c0,0-0.1-0.1-0.1-0.1c0,0-0.1-0.1-0.1-0.1c0-0.1-0.1-0.2-0.1-0.3l0.1,0
			c0.1,0,0-0.1,0.1-0.1c0,0,0,0,0-0.1c0,0,0,0,0,0c0-0.1,0.1-0.3,0-0.3c0,0-0.1,0-0.1-0.1c0,0,0,0,0-0.1c0,0,0-0.1,0-0.1
			c0,0,0,0,0,0c0,0,0-0.1,0-0.1c0-0.1-0.2-0.2-0.2-0.2c0,0,0-0.1,0-0.1c0,0,0,0,0-0.1c0,0,0,0,0,0c0,0,0.1-0.1,0.1-0.1
			c0,0,0-0.1,0-0.1c0,0,0.1-0.1,0.1-0.1c0,0-0.1-0.1-0.1-0.2c0,0,0,0,0,0c0,0-0.1-0.1-0.1-0.1c0,0,0,0,0-0.1c0,0,0,0,0,0
			c0,0,0,0,0-0.1c0,0-0.1-0.2-0.1-0.3c0,0,0,0,0,0c0,0,0,0,0-0.1c0,0-0.1,0-0.1,0c0,0,0-0.1,0-0.1c0,0,0,0,0,0c0,0,0,0,0,0
			c0,0-0.1,0-0.1-0.1c0,0-0.1,0-0.1-0.1c0,0,0,0,0,0c0,0-0.1,0-0.1,0c0,0-0.1,0-0.1,0s0,0,0,0c0,0-0.1,0-0.1,0c0,0,0-0.1-0.1-0.1
			c0,0,0,0,0,0c0,0-0.1,0-0.2-0.1c0,0,0,0,0,0c0,0,0,0,0-0.1c0,0,0,0-0.1-0.1c0,0,0,0,0,0c-0.1,0-0.1,0-0.1,0c0,0,0,0,0,0
			c0,0,0,0.1-0.1,0c0,0,0,0,0,0c0,0,0,0,0,0c-0.1,0-0.2,0.1-0.2,0c0,0,0,0-0.1,0c0,0,0-0.1-0.1-0.2c0,0,0.1,0,0.1-0.1c0,0,0,0,0,0
			c0,0,0-0.1,0-0.1c0,0,0,0,0,0c0,0,0,0,0-0.1c0,0,0,0,0,0c0,0-0.1,0-0.1-0.1c0,0,0,0,0,0c0,0-0.1,0-0.1-0.1c0,0,0,0,0,0
			c0,0,0,0,0,0c0,0,0.1,0,0.1-0.1c0,0,0-0.1,0-0.1c0,0,0,0,0,0C8,14.2,8,14.2,8,14.2c-0.1,0-0.1,0,0-0.1C8,14,7.9,14,7.9,14
			c0,0,0-0.1,0-0.1c0,0-0.1,0-0.1-0.1c0,0,0,0,0,0l0,0c0,0,0,0,0,0c0,0,0,0,0,0c-0.1-0.1-0.1-0.1-0.2-0.1c0,0,0,0,0,0
			c0,0-0.1-0.1-0.1-0.1c0,0,0-0.1,0-0.1c0,0,0,0,0,0c0,0,0-0.1-0.1-0.1c0,0,0,0,0,0c0,0,0-0.1,0-0.1c0,0,0,0,0-0.1c0,0,0-0.1,0-0.1
			c0-0.1-0.1-0.1-0.1-0.2c0,0,0,0,0-0.1c0,0,0,0,0,0c0,0,0,0,0.1,0c0,0,0-0.1,0.1-0.1c0,0,0.1,0,0.1-0.1c0,0,0,0,0-0.1
			c0,0,0,0-0.1,0c0,0,0,0,0,0c0,0,0,0,0,0l0,0c0,0,0,0-0.1,0c0,0-0.1,0-0.1,0c0,0-0.1-0.1-0.1-0.1c-0.1,0-0.1,0-0.1,0c0,0,0,0-0.1,0
			c0,0,0,0-0.1,0c0,0,0,0,0,0c0,0,0,0,0,0c-0.1,0,0-0.1-0.1-0.1c0,0,0,0,0,0c0,0,0,0,0,0l0,0c0,0,0-0.1,0-0.1c0,0,0.1,0,0.1,0
			c0,0,0,0,0,0c0,0,0-0.1,0-0.1l0,0c0,0,0,0-0.1,0c0,0,0,0,0,0c0-0.1,0.1,0,0.2-0.1c0,0,0,0,0-0.1l0,0c0,0,0,0,0,0c0,0,0,0,0,0l0,0
			c0.1,0,0.1-0.1,0.1-0.1c0,0,0.1,0,0.1,0c0,0,0.1,0,0.1,0.1c0,0,0.1,0,0.1,0c0,0,0,0,0,0.1c0.1,0,0,0,0.1,0c0.1,0,0.1,0.1,0.2,0.1
			c0,0,0,0,0,0c0,0,0.1,0,0.1,0c0,0,0,0,0,0c0,0,0,0,0,0c0,0,0,0,0.1,0c0,0,0-0.1,0.1-0.2c0,0,0.1,0,0.1,0c0,0,0,0,0,0
			c0,0,0-0.1,0-0.1c0,0,0,0,0,0c0,0,0.1,0,0.1,0c0,0,0-0.1,0-0.1c0,0,0,0,0,0c0,0,0,0,0,0c0,0,0,0,0-0.1c0.1,0,0.1-0.1,0.2-0.1
			c0,0,0,0,0,0l0,0c0,0,0.1,0,0.1,0c0,0,0,0,0,0c0,0,0.1,0,0.1,0c0,0,0,0,0,0c0,0,0.1-0.1,0.1-0.1c0,0,0,0,0.1,0C8.9,11,8.9,11,9,11
			C8.9,11,8.9,11,9,11C9,11,9,11,9,11L9,11z"/>
		<g id="h">
			<polygon class="st2" points="19.4,7.1 20.1,6.5 19.2,6.5 19,5.7 18.7,6.5 17.8,6.5 18.5,7.1 18.2,7.9 19,7.4 19.7,7.9 			"/>
			<polygon class="st2" points="5.5,7.1 6.2,6.5 5.3,6.5 5,5.7 4.8,6.5 3.9,6.5 4.6,7.1 4.3,7.9 5,7.4 5.8,7.9 			"/>
			<polygon class="st2" points="8.2,6.1 8.9,5.5 8,5.5 7.7,4.7 7.5,5.5 6.6,5.5 7.3,6.1 7,6.9 7.7,6.4 8.5,6.9 			"/>
			<polygon class="st2" points="11,5.6 11.7,5 10.8,5 10.6,4.2 10.3,5 9.4,5 10.1,5.6 9.8,6.4 10.6,5.9 11.3,6.4 			"/>
			<polygon class="st2" points="13.9,5.6 14.6,5 13.7,5 13.5,4.2 13.2,5 12.3,5 13,5.6 12.7,6.4 13.5,5.9 14.2,6.4 			"/>
			<polygon class="st2" points="16.7,6.1 17.4,5.5 16.5,5.5 16.3,4.7 16,5.5 15.1,5.5 15.8,6.1 15.5,6.9 16.3,6.4 17,6.9 			"/>
		</g>
	</g>
</g>
</svg>
