<?xml version="1.0" encoding="utf-8"?>
<!-- Generator: Adobe Illustrator 19.2.1, SVG Export Plug-In . SVG Version: 6.00 Build 0)  -->
<svg version="1.1" id="Layer_1" xmlns="http://www.w3.org/2000/svg" xmlns:xlink="http://www.w3.org/1999/xlink" x="0px" y="0px"
	 viewBox="0 0 48 48" style="enable-background:new 0 0 48 48;" xml:space="preserve">
<style type="text/css">
	.st0{fill:#FFFFFF;}
</style>
<path class="st0" d="M24,0C10.8,0,0,10.8,0,24s10.8,24,24,24s24-10.8,24-24S37.2,0,24,0z M18.4,4.2L17,6.8l7,3l7-3l-1.4-2.6
	c4.8,1.3,8.8,4.3,11.5,8.3L38.2,12l-0.8,7.6l5.2,5.8l1.9-2.1c0,0.2,0.1,0.5,0.1,0.7c0,4.8-1.7,9.1-4.4,12.6l-0.4-2.8l-7.4,1.6
	l-4,6.6l2.8,1.3c-2.2,0.8-4.6,1.3-7.1,1.3s-4.9-0.5-7.1-1.3l2.8-1.3l-4-6.6l-7.4-1.6l-0.4,2.8C5,33.1,3.4,28.8,3.4,24
	c0-0.2,0.1-0.5,0.1-0.7l1.9,2.1l5.2-5.8L9.8,12l-2.9,0.5C9.6,8.5,13.7,5.5,18.4,4.2z M24,16l-8.4,6.2l3.2,9.8h10.4l3.2-9.8L24,16z"
	/>
</svg>
